<?xml version="1.0" encoding="UTF-8" standalone="no"?><svg xmlns="http://www.w3.org/2000/svg" xmlns:xlink="http://www.w3.org/1999/xlink" contentScriptType="application/ecmascript" contentStyleType="text/css" height="391px" preserveAspectRatio="none" style="width:677px;height:391px;" version="1.1" viewBox="0 0 677 391" width="677px" zoomAndPan="magnify"><defs><filter height="300%" id="fid2qwxg5kc6y" width="300%" x="-1" y="-1"><feGaussianBlur result="blurOut" stdDeviation="2.0"/><feColorMatrix in="blurOut" result="blurOut2" type="matrix" values="0 0 0 0 0 0 0 0 0 0 0 0 0 0 0 0 0 0 .4 0"/><feOffset dx="4.0" dy="4.0" in="blurOut2" result="blurOut3"/><feBlend in="SourceGraphic" in2="blurOut3" mode="normal"/></filter></defs><g><rect fill="#FFFFFF" filter="url(#fid2qwxg5kc6y)" height="165.5313" style="stroke: #F05772; stroke-width: 1.0;" width="10" x="515" y="204.8281"/><line style="stroke: #F05772; stroke-width: 1.0; stroke-dasharray: 5.0,5.0;" x1="27" x2="27" y1="86.2969" y2="379.3594"/><line style="stroke: #F05772; stroke-width: 1.0; stroke-dasharray: 5.0,5.0;" x1="242" x2="242" y1="86.2969" y2="379.3594"/><line style="stroke: #F05772; stroke-width: 1.0; stroke-dasharray: 5.0,5.0;" x1="344" x2="344" y1="86.2969" y2="379.3594"/><line style="stroke: #F05772; stroke-width: 1.0; stroke-dasharray: 5.0,5.0;" x1="520" x2="520" y1="86.2969" y2="379.3594"/><text fill="#33335B" font-family="sans-serif" font-size="14" lengthAdjust="spacingAndGlyphs" textLength="32" x="8" y="82.9951">Host</text><ellipse cx="27" cy="13" fill="#FFFFFF" filter="url(#fid2qwxg5kc6y)" rx="8" ry="8" style="stroke: #33335B; stroke-width: 2.0;"/><path d="M27,21 L27,48 M14,29 L40,29 M27,48 L14,63 M27,48 L40,63 " fill="none" filter="url(#fid2qwxg5kc6y)" style="stroke: #33335B; stroke-width: 2.0;"/><rect fill="#FFFFFF" filter="url(#fid2qwxg5kc6y)" height="30.2969" style="stroke: #33335B; stroke-width: 1.5;" width="88" x="196" y="51"/><text fill="#33335B" font-family="sans-serif" font-size="14" lengthAdjust="spacingAndGlyphs" textLength="74" x="203" y="70.9951">MemWnd0</text><rect fill="#FFFFFF" filter="url(#fid2qwxg5kc6y)" height="30.2969" style="stroke: #33335B; stroke-width: 1.5;" width="89" x="298" y="51"/><text fill="#33335B" font-family="sans-serif" font-size="14" lengthAdjust="spacingAndGlyphs" textLength="75" x="305" y="70.9951">DSP Core0</text><rect fill="#FFFFFF" filter="url(#fid2qwxg5kc6y)" height="30.2969" style="stroke: #33335B; stroke-width: 1.5;" width="80" x="478" y="51"/><text fill="#33335B" font-family="sans-serif" font-size="14" lengthAdjust="spacingAndGlyphs" textLength="66" x="485" y="70.9951">DSP ROM</text><rect fill="#FFFFFF" filter="url(#fid2qwxg5kc6y)" height="165.5313" style="stroke: #F05772; stroke-width: 1.0;" width="10" x="515" y="204.8281"/><polygon fill="#4A4A86" points="332.5,113.4297,342.5,117.4297,332.5,121.4297,336.5,117.4297" style="stroke: #4A4A86; stroke-width: 1.0;"/><line style="stroke: #4A4A86; stroke-width: 1.0;" x1="27" x2="338.5" y1="117.4297" y2="117.4297"/><text fill="#33335B" font-family="sans-serif" font-size="13" lengthAdjust="spacingAndGlyphs" textLength="123" x="34" y="112.3638">power up and reset</text><polygon fill="#4A4A86" points="508,142.5625,518,146.5625,508,150.5625,512,146.5625" style="stroke: #4A4A86; stroke-width: 1.0;"/><line style="stroke: #4A4A86; stroke-width: 1.0;" x1="27" x2="514" y1="146.5625" y2="146.5625"/><text fill="#33335B" font-family="sans-serif" font-size="13" lengthAdjust="spacingAndGlyphs" textLength="258" x="34" y="141.4966">&lt;&lt;IPC&gt;&gt; ROM Control(set_boot_config)</text><polygon fill="#4A4A86" points="332.5,171.6953,342.5,175.6953,332.5,179.6953,336.5,175.6953" style="stroke: #4A4A86; stroke-width: 1.0;"/><line style="stroke: #4A4A86; stroke-width: 1.0;" x1="27" x2="338.5" y1="175.6953" y2="175.6953"/><text fill="#33335B" font-family="sans-serif" font-size="13" lengthAdjust="spacingAndGlyphs" textLength="42" x="34" y="170.6294">unstall</text><polygon fill="#4A4A86" points="503,200.8281,513,204.8281,503,208.8281,507,204.8281" style="stroke: #4A4A86; stroke-width: 1.0;"/><line style="stroke: #4A4A86; stroke-width: 1.0;" x1="344.5" x2="509" y1="204.8281" y2="204.8281"/><text fill="#33335B" font-family="sans-serif" font-size="13" lengthAdjust="spacingAndGlyphs" textLength="88" x="351.5" y="199.7622">ResetVector()</text><polygon fill="#4A4A86" points="230,229.9609,240,233.9609,230,237.9609,234,233.9609" style="stroke: #4A4A86; stroke-width: 1.0;"/><line style="stroke: #4A4A86; stroke-width: 1.0;" x1="27" x2="236" y1="233.9609" y2="233.9609"/><text fill="#33335B" font-family="sans-serif" font-size="13" lengthAdjust="spacingAndGlyphs" textLength="191" x="34" y="228.895">wait for(FSR_ROM_INIT_DONE)</text><line style="stroke: #4A4A86; stroke-width: 1.0;" x1="525" x2="567" y1="263.0938" y2="263.0938"/><line style="stroke: #4A4A86; stroke-width: 1.0;" x1="567" x2="567" y1="263.0938" y2="276.0938"/><line style="stroke: #4A4A86; stroke-width: 1.0;" x1="526" x2="567" y1="276.0938" y2="276.0938"/><polygon fill="#4A4A86" points="536,272.0938,526,276.0938,536,280.0938,532,276.0938" style="stroke: #4A4A86; stroke-width: 1.0;"/><text fill="#33335B" font-family="sans-serif" font-size="13" lengthAdjust="spacingAndGlyphs" textLength="133" x="532" y="258.0278">Process ROM Control</text><polygon fill="#4A4A86" points="253,301.2266,243,305.2266,253,309.2266,249,305.2266" style="stroke: #4A4A86; stroke-width: 1.0;"/><line style="stroke: #4A4A86; stroke-width: 1.0;" x1="247" x2="514" y1="305.2266" y2="305.2266"/><text fill="#33335B" font-family="sans-serif" font-size="13" lengthAdjust="spacingAndGlyphs" textLength="249" x="259" y="300.1606">FwRegsSetState(FSR_ROM_INIT_DONE)</text><polygon fill="#4A4A86" points="38,315.2266,28,319.2266,38,323.2266,34,319.2266" style="stroke: #4A4A86; stroke-width: 1.0;"/><line style="stroke: #4A4A86; stroke-width: 1.0; stroke-dasharray: 2.0,2.0;" x1="32" x2="241" y1="319.2266" y2="319.2266"/><line style="stroke: #4A4A86; stroke-width: 1.0;" x1="27" x2="69" y1="348.3594" y2="348.3594"/><line style="stroke: #4A4A86; stroke-width: 1.0;" x1="69" x2="69" y1="348.3594" y2="361.3594"/><line style="stroke: #4A4A86; stroke-width: 1.0;" x1="28" x2="69" y1="361.3594" y2="361.3594"/><polygon fill="#4A4A86" points="38,357.3594,28,361.3594,38,365.3594,34,361.3594" style="stroke: #4A4A86; stroke-width: 1.0;"/><text fill="#33335B" font-family="sans-serif" font-size="13" lengthAdjust="spacingAndGlyphs" textLength="100" x="34" y="343.2935">binaries loading</text><!--MD5=[f6cebdcefd4461720bfc31d78aafdf3c]
@startuml
hidefootbox
skinparam componentStyle uml2

skinparam defaultFontColor	#33335b

skinparam rectangle {
	color		#d6d6de
	backgroundColor	#ffffff
}

skinparam component {
	backgroundColor	#ffffff
	borderColor	#33335b
	arrowColor	#f05772
}

skinparam interface {
	backgroundColor	#ffffff
	borderColor	#f05772
}

skinparam class {
	backgroundColor	#ffffff
	borderColor	#33335b
	arrowColor	#f05772
}
skinparam stereotypeCBackgroundColor	#6fccdd

skinparam sequence {
	arrowColor		#4a4a86
	lifeLineBorderColor	#f05772
	groupBorderColor	#a1a1ca
	boxBorderColor		#a1a1ca
	dividerBorderColor	#d6d6de
	dividerBorderThickness	1
}
skinparam participant {
	borderColor		#33335b
	backgroundColor		#ffffff
}
skinparam actor {
	borderColor		#33335b
	backgroundColor		#ffffff
}

skinparam state {
	borderColor		#33335b
	backgroundColor		#ffffff
}

skinparam node {
	backgroundColor		#ffffff
}

skinparam note {
	backgroundColor 	#f6ed80
	borderColor		#d6d6de
}
actor Host
participant mw0 as "MemWnd0"
participant core0 as "DSP Core0"
participant rom as "DSP ROM"

Host -> core0 : power up and reset

Host -> rom : <<IPC>> ROM Control(set_boot_config)
Host -> core0 : unstall
  core0 -> rom : ResetVector()
    activate rom

Host -> mw0 : wait for(FSR_ROM_INIT_DONE)

  rom -> rom : Process ROM Control

  mw0 <- rom : FwRegsSetState(FSR_ROM_INIT_DONE)

Host <- - mw0

Host -> Host : binaries loading

@enduml

PlantUML version 1.2019.12(Sun Nov 03 10:24:54 UTC 2019)
(GPL source distribution)
Java Runtime: OpenJDK Runtime Environment
JVM: OpenJDK 64-Bit Server VM
Java Version: 11.0.14.1+1
Operating System: Linux
Default Encoding: UTF-8
Language: en
Country: null
--></g></svg>