<?xml version="1.0" encoding="UTF-8" standalone="no"?><svg xmlns="http://www.w3.org/2000/svg" xmlns:xlink="http://www.w3.org/1999/xlink" contentScriptType="application/ecmascript" contentStyleType="text/css" height="821px" preserveAspectRatio="none" style="width:1033px;height:821px;" version="1.1" viewBox="0 0 1033 821" width="1033px" zoomAndPan="magnify"><defs><filter height="300%" id="f1jfy63uze68up" width="300%" x="-1" y="-1"><feGaussianBlur result="blurOut" stdDeviation="2.0"/><feColorMatrix in="blurOut" result="blurOut2" type="matrix" values="0 0 0 0 0 0 0 0 0 0 0 0 0 0 0 0 0 0 .4 0"/><feOffset dx="4.0" dy="4.0" in="blurOut2" result="blurOut3"/><feBlend in="SourceGraphic" in2="blurOut3" mode="normal"/></filter></defs><g><rect fill="#90EE90" height="799.5313" style="stroke: #A1A1CA; stroke-width: 1.0;" width="64" x="8" y="4"/><text fill="#33335B" font-family="sans-serif" font-size="13" font-weight="bold" lengthAdjust="spacingAndGlyphs" textLength="27" x="26.5" y="17.4951">Host</text><rect fill="#87CEFA" height="799.5313" style="stroke: #A1A1CA; stroke-width: 1.0;" width="468.5" x="208.5" y="4"/><text fill="#33335B" font-family="sans-serif" font-size="13" font-weight="bold" lengthAdjust="spacingAndGlyphs" textLength="27" x="429.25" y="17.4951">SOF</text><rect fill="#ADD8E6" height="799.5313" style="stroke: #A1A1CA; stroke-width: 1.0;" width="204" x="812" y="4"/><text fill="#33335B" font-family="sans-serif" font-size="13" font-weight="bold" lengthAdjust="spacingAndGlyphs" textLength="83" x="872.5" y="17.4951">Zephyr RTOS</text><rect fill="#FFFFFF" filter="url(#f1jfy63uze68up)" height="698.2188" style="stroke: #F05772; stroke-width: 1.0;" width="10" x="258" y="93.3125"/><rect fill="#FFFFFF" filter="url(#f1jfy63uze68up)" height="576.8125" style="stroke: #F05772; stroke-width: 1.0;" width="10" x="398" y="184.3672"/><rect fill="#FFFFFF" filter="url(#f1jfy63uze68up)" height="30.3516" style="stroke: #F05772; stroke-width: 1.0;" width="10" x="607" y="123.6641"/><rect fill="#FFFFFF" filter="url(#f1jfy63uze68up)" height="30.3516" style="stroke: #F05772; stroke-width: 1.0;" width="10" x="607" y="214.7188"/><rect fill="#FFFFFF" filter="url(#f1jfy63uze68up)" height="464.7578" style="stroke: #F05772; stroke-width: 1.0;" width="10" x="607" y="259.0703"/><rect fill="#FFFFFF" filter="url(#f1jfy63uze68up)" height="14" style="stroke: #F05772; stroke-width: 1.0;" width="10" x="909" y="245.0703"/><rect fill="#FFFFFF" filter="url(#f1jfy63uze68up)" height="14" style="stroke: #F05772; stroke-width: 1.0;" width="10" x="909" y="305.7734"/><rect fill="#FFFFFF" filter="url(#f1jfy63uze68up)" height="14" style="stroke: #F05772; stroke-width: 1.0;" width="10" x="909" y="350.125"/><rect fill="#FFFFFF" filter="url(#f1jfy63uze68up)" height="14" style="stroke: #F05772; stroke-width: 1.0;" width="10" x="909" y="463.1797"/><rect fill="#FFFFFF" filter="url(#f1jfy63uze68up)" height="14" style="stroke: #F05772; stroke-width: 1.0;" width="10" x="909" y="523.8828"/><rect fill="#FFFFFF" filter="url(#f1jfy63uze68up)" height="166.7578" style="stroke: #A1A1CA; stroke-width: 2.0;" width="481" x="541" y="379.125"/><rect fill="#FFFFFF" filter="url(#f1jfy63uze68up)" height="171.9453" style="stroke: #A1A1CA; stroke-width: 2.0;" width="365.5" x="317.5" y="559.8828"/><rect fill="#FFFFFF" height="76.5391" style="stroke: none; stroke-width: 1.0;" width="365.5" x="317.5" y="655.2891"/><line style="stroke: #F05772; stroke-width: 1.0; stroke-dasharray: 5.0,5.0;" x1="40" x2="40" y1="60.9609" y2="809.5313"/><line style="stroke: #F05772; stroke-width: 1.0; stroke-dasharray: 5.0,5.0;" x1="262.5" x2="262.5" y1="60.9609" y2="809.5313"/><line style="stroke: #F05772; stroke-width: 1.0; stroke-dasharray: 5.0,5.0;" x1="402.5" x2="402.5" y1="60.9609" y2="809.5313"/><line style="stroke: #F05772; stroke-width: 1.0; stroke-dasharray: 5.0,5.0;" x1="612" x2="612" y1="60.9609" y2="809.5313"/><line style="stroke: #F05772; stroke-width: 1.0; stroke-dasharray: 5.0,5.0;" x1="914" x2="914" y1="60.9609" y2="809.5313"/><rect fill="#FFFFFF" filter="url(#f1jfy63uze68up)" height="31.6094" style="stroke: #33335B; stroke-width: 1.5;" width="52" x="12" y="24.3516"/><text fill="#33335B" font-family="sans-serif" font-size="14" lengthAdjust="spacingAndGlyphs" textLength="38" x="19" y="45.8848">Driver</text><rect fill="#FFFFFF" filter="url(#f1jfy63uze68up)" height="31.6094" style="stroke: #33335B; stroke-width: 1.5;" width="97" x="212.5" y="24.3516"/><text fill="#33335B" font-family="sans-serif" font-size="14" lengthAdjust="spacingAndGlyphs" textLength="83" x="219.5" y="45.8848">IPC4 Handler</text><rect fill="#FFFFFF" filter="url(#f1jfy63uze68up)" height="31.6094" style="stroke: #33335B; stroke-width: 1.5;" width="147" x="327.5" y="24.3516"/><text fill="#33335B" font-family="sans-serif" font-size="14" lengthAdjust="spacingAndGlyphs" textLength="133" x="334.5" y="45.8848">Component Manager</text><rect fill="#FFFFFF" filter="url(#f1jfy63uze68up)" height="31.6094" style="stroke: #33335B; stroke-width: 1.5;" width="118" x="551" y="24.3516"/><text fill="#33335B" font-family="sans-serif" font-size="14" lengthAdjust="spacingAndGlyphs" textLength="104" x="558" y="45.8848">Library Manager</text><rect fill="#FFFFFF" filter="url(#f1jfy63uze68up)" height="31.6094" style="stroke: #33335B; stroke-width: 1.5;" width="192" x="816" y="24.3516"/><text fill="#33335B" font-family="sans-serif" font-size="14" lengthAdjust="spacingAndGlyphs" textLength="178" x="823" y="45.8848">Memory Management Driver</text><rect fill="#FFFFFF" filter="url(#f1jfy63uze68up)" height="698.2188" style="stroke: #F05772; stroke-width: 1.0;" width="10" x="258" y="93.3125"/><rect fill="#FFFFFF" filter="url(#f1jfy63uze68up)" height="576.8125" style="stroke: #F05772; stroke-width: 1.0;" width="10" x="398" y="184.3672"/><rect fill="#FFFFFF" filter="url(#f1jfy63uze68up)" height="30.3516" style="stroke: #F05772; stroke-width: 1.0;" width="10" x="607" y="123.6641"/><rect fill="#FFFFFF" filter="url(#f1jfy63uze68up)" height="30.3516" style="stroke: #F05772; stroke-width: 1.0;" width="10" x="607" y="214.7188"/><rect fill="#FFFFFF" filter="url(#f1jfy63uze68up)" height="464.7578" style="stroke: #F05772; stroke-width: 1.0;" width="10" x="607" y="259.0703"/><rect fill="#FFFFFF" filter="url(#f1jfy63uze68up)" height="14" style="stroke: #F05772; stroke-width: 1.0;" width="10" x="909" y="245.0703"/><rect fill="#FFFFFF" filter="url(#f1jfy63uze68up)" height="14" style="stroke: #F05772; stroke-width: 1.0;" width="10" x="909" y="305.7734"/><rect fill="#FFFFFF" filter="url(#f1jfy63uze68up)" height="14" style="stroke: #F05772; stroke-width: 1.0;" width="10" x="909" y="350.125"/><rect fill="#FFFFFF" filter="url(#f1jfy63uze68up)" height="14" style="stroke: #F05772; stroke-width: 1.0;" width="10" x="909" y="463.1797"/><rect fill="#FFFFFF" filter="url(#f1jfy63uze68up)" height="14" style="stroke: #F05772; stroke-width: 1.0;" width="10" x="909" y="523.8828"/><polygon fill="#F05772" points="246,89.3125,256,93.3125,246,97.3125,250,93.3125" style="stroke: #F05772; stroke-width: 1.0;"/><line style="stroke: #F05772; stroke-width: 1.0;" x1="40" x2="252" y1="93.3125" y2="93.3125"/><text fill="#33335B" font-family="sans-serif" font-size="13" lengthAdjust="spacingAndGlyphs" textLength="199" x="47" y="88.4561">SOF_IPC4_MOD_INIT_INSTANCE</text><polygon fill="#F05772" points="595,119.6641,605,123.6641,595,127.6641,599,123.6641" style="stroke: #F05772; stroke-width: 1.0;"/><line style="stroke: #F05772; stroke-width: 1.0;" x1="268" x2="601" y1="123.6641" y2="123.6641"/><text fill="#33335B" font-family="sans-serif" font-size="13" lengthAdjust="spacingAndGlyphs" textLength="177" x="275" y="118.8076">lib_manager_register_module()</text><polygon fill="#F05772" points="279,150.0156,269,154.0156,279,158.0156,275,154.0156" style="stroke: #F05772; stroke-width: 1.0;"/><line style="stroke: #F05772; stroke-width: 1.0;" x1="273" x2="611" y1="154.0156" y2="154.0156"/><text fill="#33335B" font-family="sans-serif" font-size="13" lengthAdjust="spacingAndGlyphs" textLength="73" x="285" y="149.1592">return status</text><polygon fill="#F05772" points="386,180.3672,396,184.3672,386,188.3672,390,184.3672" style="stroke: #F05772; stroke-width: 1.0;"/><line style="stroke: #F05772; stroke-width: 1.0;" x1="268" x2="392" y1="184.3672" y2="184.3672"/><text fill="#33335B" font-family="sans-serif" font-size="13" lengthAdjust="spacingAndGlyphs" textLength="111" x="275" y="179.5107">Create comp_driver</text><polygon fill="#F05772" points="595,210.7188,605,214.7188,595,218.7188,599,214.7188" style="stroke: #F05772; stroke-width: 1.0;"/><line style="stroke: #F05772; stroke-width: 1.0;" x1="408" x2="601" y1="214.7188" y2="214.7188"/><text fill="#33335B" font-family="sans-serif" font-size="13" lengthAdjust="spacingAndGlyphs" textLength="180" x="415" y="209.8623">Allocate L2 memory for module</text><polygon fill="#F05772" points="897,241.0703,907,245.0703,897,249.0703,901,245.0703" style="stroke: #F05772; stroke-width: 1.0;"/><line style="stroke: #F05772; stroke-width: 1.0;" x1="612" x2="903" y1="245.0703" y2="245.0703"/><text fill="#33335B" font-family="sans-serif" font-size="13" lengthAdjust="spacingAndGlyphs" textLength="94" x="619" y="240.2139">Map L2 memory</text><polygon fill="#F05772" points="628,255.0703,618,259.0703,628,263.0703,624,259.0703" style="stroke: #F05772; stroke-width: 1.0;"/><line style="stroke: #F05772; stroke-width: 1.0;" x1="622" x2="913" y1="259.0703" y2="259.0703"/><polygon fill="#F05772" points="897,301.7734,907,305.7734,897,309.7734,901,305.7734" style="stroke: #F05772; stroke-width: 1.0;"/><line style="stroke: #F05772; stroke-width: 1.0;" x1="617" x2="903" y1="305.7734" y2="305.7734"/><text fill="#33335B" font-family="sans-serif" font-size="13" lengthAdjust="spacingAndGlyphs" textLength="171" x="624" y="284.5654">Load module code and rodata</text><text fill="#33335B" font-family="sans-serif" font-size="13" lengthAdjust="spacingAndGlyphs" textLength="127" x="624" y="300.917">from L3 to L2 memory</text><polygon fill="#F05772" points="628,315.7734,618,319.7734,628,323.7734,624,319.7734" style="stroke: #F05772; stroke-width: 1.0;"/><line style="stroke: #F05772; stroke-width: 1.0;" x1="622" x2="913" y1="319.7734" y2="319.7734"/><polygon fill="#F05772" points="897,346.125,907,350.125,897,354.125,901,350.125" style="stroke: #F05772; stroke-width: 1.0;"/><line style="stroke: #F05772; stroke-width: 1.0;" x1="617" x2="903" y1="350.125" y2="350.125"/><text fill="#33335B" font-family="sans-serif" font-size="13" lengthAdjust="spacingAndGlyphs" textLength="159" x="624" y="345.2686">Initialize L2 memory for bss</text><polygon fill="#F05772" points="628,360.125,618,364.125,628,368.125,624,364.125" style="stroke: #F05772; stroke-width: 1.0;"/><line style="stroke: #F05772; stroke-width: 1.0;" x1="622" x2="913" y1="364.125" y2="364.125"/><path d="M541,379.125 L614,379.125 L614,387.125 L604,397.125 L541,397.125 L541,379.125 " fill="#EEEEEE" style="stroke: #A1A1CA; stroke-width: 1.0;"/><rect fill="none" height="166.7578" style="stroke: #A1A1CA; stroke-width: 2.0;" width="481" x="541" y="379.125"/><text fill="#33335B" font-family="sans-serif" font-size="13" font-weight="bold" lengthAdjust="spacingAndGlyphs" textLength="28" x="556" y="393.6201">loop</text><text fill="#33335B" font-family="sans-serif" font-size="11" font-weight="bold" lengthAdjust="spacingAndGlyphs" textLength="190" x="629" y="392.5439">[Search library for shared module]</text><line style="stroke: #F05772; stroke-width: 1.0;" x1="617" x2="659" y1="419.8281" y2="419.8281"/><line style="stroke: #F05772; stroke-width: 1.0;" x1="659" x2="659" y1="419.8281" y2="432.8281"/><line style="stroke: #F05772; stroke-width: 1.0;" x1="618" x2="659" y1="432.8281" y2="432.8281"/><polygon fill="#F05772" points="628,428.8281,618,432.8281,628,436.8281,624,432.8281" style="stroke: #F05772; stroke-width: 1.0;"/><text fill="#33335B" font-family="sans-serif" font-size="13" lengthAdjust="spacingAndGlyphs" textLength="278" x="624" y="414.9717">Check if shared module exists and is not loaded</text><polygon fill="#F05772" points="897,459.1797,907,463.1797,897,467.1797,901,463.1797" style="stroke: #F05772; stroke-width: 1.0;"/><line style="stroke: #F05772; stroke-width: 1.0;" x1="617" x2="903" y1="463.1797" y2="463.1797"/><text fill="#33335B" font-family="sans-serif" font-size="13" lengthAdjust="spacingAndGlyphs" textLength="252" x="624" y="458.3232">Allocate/Map L2 memory for shared module</text><polygon fill="#F05772" points="628,473.1797,618,477.1797,628,481.1797,624,477.1797" style="stroke: #F05772; stroke-width: 1.0;"/><line style="stroke: #F05772; stroke-width: 1.0;" x1="622" x2="913" y1="477.1797" y2="477.1797"/><polygon fill="#F05772" points="897,519.8828,907,523.8828,897,527.8828,901,523.8828" style="stroke: #F05772; stroke-width: 1.0;"/><line style="stroke: #F05772; stroke-width: 1.0;" x1="617" x2="903" y1="523.8828" y2="523.8828"/><text fill="#33335B" font-family="sans-serif" font-size="13" lengthAdjust="spacingAndGlyphs" textLength="214" x="624" y="502.6748">Load shared module code and rodata</text><text fill="#33335B" font-family="sans-serif" font-size="13" lengthAdjust="spacingAndGlyphs" textLength="127" x="624" y="519.0264">from L3 to L2 memory</text><polygon fill="#F05772" points="628,533.8828,618,537.8828,628,541.8828,624,537.8828" style="stroke: #F05772; stroke-width: 1.0;"/><line style="stroke: #F05772; stroke-width: 1.0;" x1="622" x2="913" y1="537.8828" y2="537.8828"/><path d="M317.5,559.8828 L378.5,559.8828 L378.5,567.8828 L368.5,577.8828 L317.5,577.8828 L317.5,559.8828 " fill="#EEEEEE" style="stroke: #A1A1CA; stroke-width: 1.0;"/><rect fill="none" height="171.9453" style="stroke: #A1A1CA; stroke-width: 2.0;" width="365.5" x="317.5" y="559.8828"/><text fill="#33335B" font-family="sans-serif" font-size="13" font-weight="bold" lengthAdjust="spacingAndGlyphs" textLength="16" x="332.5" y="574.3779">alt</text><text fill="#33335B" font-family="sans-serif" font-size="11" font-weight="bold" lengthAdjust="spacingAndGlyphs" textLength="78" x="393.5" y="573.3018">[IADK module]</text><polygon fill="#F05772" points="595,612.9375,605,616.9375,595,620.9375,599,616.9375" style="stroke: #F05772; stroke-width: 1.0;"/><line style="stroke: #F05772; stroke-width: 1.0;" x1="408" x2="601" y1="616.9375" y2="616.9375"/><text fill="#33335B" font-family="sans-serif" font-size="13" lengthAdjust="spacingAndGlyphs" textLength="162" x="415" y="595.7295">Create/Initialize comp_driver</text><text fill="#33335B" font-family="sans-serif" font-size="13" lengthAdjust="spacingAndGlyphs" textLength="152" x="415" y="612.0811">with IADK Module Adapter</text><polygon fill="#F05772" points="419,643.2891,409,647.2891,419,651.2891,415,647.2891" style="stroke: #F05772; stroke-width: 1.0;"/><line style="stroke: #F05772; stroke-width: 1.0;" x1="413" x2="606" y1="647.2891" y2="647.2891"/><text fill="#33335B" font-family="sans-serif" font-size="13" lengthAdjust="spacingAndGlyphs" textLength="73" x="425" y="642.4326">return status</text><line style="stroke: #A1A1CA; stroke-width: 1.0; stroke-dasharray: 2.0,2.0;" x1="317.5" x2="683" y1="656.2891" y2="656.2891"/><text fill="#33335B" font-family="sans-serif" font-size="11" font-weight="bold" lengthAdjust="spacingAndGlyphs" textLength="74" x="322.5" y="667.708">[SOF module]</text><polygon fill="#F05772" points="595,689.4766,605,693.4766,595,697.4766,599,693.4766" style="stroke: #F05772; stroke-width: 1.0;"/><line style="stroke: #F05772; stroke-width: 1.0;" x1="408" x2="601" y1="693.4766" y2="693.4766"/><text fill="#33335B" font-family="sans-serif" font-size="13" lengthAdjust="spacingAndGlyphs" textLength="162" x="415" y="688.6201">Create/Initialize comp_driver</text><polygon fill="#F05772" points="419,719.8281,409,723.8281,419,727.8281,415,723.8281" style="stroke: #F05772; stroke-width: 1.0;"/><line style="stroke: #F05772; stroke-width: 1.0;" x1="413" x2="611" y1="723.8281" y2="723.8281"/><text fill="#33335B" font-family="sans-serif" font-size="13" lengthAdjust="spacingAndGlyphs" textLength="73" x="425" y="718.9717">return status</text><polygon fill="#F05772" points="279,757.1797,269,761.1797,279,765.1797,275,761.1797" style="stroke: #F05772; stroke-width: 1.0;"/><line style="stroke: #F05772; stroke-width: 1.0;" x1="273" x2="402" y1="761.1797" y2="761.1797"/><text fill="#33335B" font-family="sans-serif" font-size="13" lengthAdjust="spacingAndGlyphs" textLength="73" x="285" y="756.3232">return status</text><polygon fill="#F05772" points="51,787.5313,41,791.5313,51,795.5313,47,791.5313" style="stroke: #F05772; stroke-width: 1.0;"/><line style="stroke: #F05772; stroke-width: 1.0;" x1="45" x2="262" y1="791.5313" y2="791.5313"/><text fill="#33335B" font-family="sans-serif" font-size="13" lengthAdjust="spacingAndGlyphs" textLength="127" x="57" y="786.6748">Complete IPC request</text><!--MD5=[f6e6dae39a77bfee099f557062c477af]
@startuml
hidefootbox
skinparam componentStyle uml2

skinparam defaultFontColor	#33335b

skinparam rectangle {
	color		#d6d6de
	backgroundColor	#ffffff
}

skinparam queue {
	color		#d6d6de
	backgroundColor	#ffffff
}

skinparam component {
	backgroundColor	#ffffff
	borderColor	#33335b
	arrowColor	#f05772
}

skinparam interface {
	backgroundColor	#ffffff
	borderColor	#f05772
}

skinparam class {
	backgroundColor	#ffffff
	borderColor	#33335b
	arrowColor	#f05772
}
skinparam stereotypeCBackgroundColor	#6fccdd

skinparam sequence {
	arrowColor		#4a4a86
	lifeLineBorderColor	#f05772
	groupBorderColor	#a1a1ca
	boxBorderColor		#a1a1ca
	dividerBorderColor	#d6d6de
	dividerBorderThickness	1
}
skinparam participant {
	borderColor		#33335b
	backgroundColor		#ffffff
}
skinparam actor {
	borderColor		#33335b
	backgroundColor		#ffffff
}

skinparam state {
	borderColor		#33335b
	backgroundColor		#ffffff
}

skinparam node {
	backgroundColor		#ffffff
}

skinparam note {
	backgroundColor 	#f6ed80
	borderColor		#d6d6de
}

skinparam activity {
	borderColor		#33335b
	backgroundColor		#ffffff
}

skinparam activityDiamond {
	borderColor		#33335b
	backgroundColor		#ffffff
}

skinparam arrowColor	#f05772
skinparam maxMessageSize 400
skinparam BoxPadding 4

box "Host" #LightGreen
	participant "Driver" as host_driver
end box

box "SOF" #LightSkyBlue
	participant "IPC4 Handler" as ipc4_handler
	participant "Component Manager" as component_manager
	participant "Library Manager" as library_manager
end box

box "Zephyr RTOS" #LightBlue
	participant "Memory Management Driver" as memory_management_driver
end box

host_driver -> ipc4_handler: SOF_IPC4_MOD_INIT_INSTANCE
	activate ipc4_handler
	ipc4_handler -> library_manager: lib_manager_register_module()
	activate library_manager
	library_manager -> ipc4_handler: return status
	deactivate library_manager
	ipc4_handler -> component_manager: Create comp_driver
		activate component_manager
		component_manager -> library_manager: Allocate L2 memory for module
		activate library_manager
		library_manager -> memory_management_driver: Map L2 memory
		deactivate library_manager
		activate memory_management_driver
		memory_management_driver -> library_manager
		deactivate memory_management_driver
		activate library_manager
		library_manager -> memory_management_driver: Load module code and rodata \nfrom L3 to L2 memory
		activate memory_management_driver
		memory_management_driver -> library_manager
		deactivate memory_management_driver
		library_manager -> memory_management_driver: Initialize L2 memory for bss
		activate memory_management_driver
		memory_management_driver -> library_manager
		deactivate memory_management_driver
	loop Search library for shared module
		library_manager -> library_manager: Check if shared module exists and is not loaded
		library_manager -> memory_management_driver: Allocate/Map L2 memory for shared module
		activate memory_management_driver
		memory_management_driver -> library_manager
		deactivate memory_management_driver
		library_manager -> memory_management_driver: Load shared module code and rodata \nfrom L3 to L2 memory
		activate memory_management_driver
		memory_management_driver -> library_manager
		deactivate memory_management_driver
	end loop
	alt IADK module
		component_manager -> library_manager: Create/Initialize comp_driver \nwith IADK Module Adapter 
		library_manager -> component_manager: return status
	else SOF module
		component_manager -> library_manager: Create/Initialize comp_driver 
		library_manager -> component_manager: return status
		deactivate library_manager
	end alt
	component_manager -> ipc4_handler: return status
	deactivate component_manager
ipc4_handler -> host_driver: Complete IPC request
deactivate ipc4_handler

@enduml

PlantUML version 1.2019.12(Sun Nov 03 11:24:54 CET 2019)
(GPL source distribution)
Java Runtime: OpenJDK Runtime Environment
JVM: OpenJDK 64-Bit Server VM
Java Version: 1.8.0_302-b08
Operating System: Windows 10
Default Encoding: Cp1252
Language: en
Country: US
--></g></svg>