<?xml version="1.0" encoding="UTF-8" standalone="no"?><svg xmlns="http://www.w3.org/2000/svg" xmlns:xlink="http://www.w3.org/1999/xlink" contentScriptType="application/ecmascript" contentStyleType="text/css" height="304px" preserveAspectRatio="none" style="width:510px;height:304px;" version="1.1" viewBox="0 0 510 304" width="510px" zoomAndPan="magnify"><defs><filter height="300%" id="fq6zp1bjl50rr" width="300%" x="-1" y="-1"><feGaussianBlur result="blurOut" stdDeviation="2.0"/><feColorMatrix in="blurOut" result="blurOut2" type="matrix" values="0 0 0 0 0 0 0 0 0 0 0 0 0 0 0 0 0 0 .4 0"/><feOffset dx="4.0" dy="4.0" in="blurOut2" result="blurOut3"/><feBlend in="SourceGraphic" in2="blurOut3" mode="normal"/></filter></defs><g><!--MD5=[ab55af83c6f8e96805fa81b05d6a69db]
class pipeline--><rect fill="#FFFFFF" filter="url(#fq6zp1bjl50rr)" height="116.8281" id="pipeline" style="stroke: #33335B; stroke-width: 1.5;" width="184" x="6" y="8"/><ellipse cx="69.25" cy="24" fill="#6FCCDD" rx="11" ry="11" style="stroke: #33335B; stroke-width: 1.0;"/><path d="M72.2188,29.6406 Q71.6406,29.9375 71,30.0781 Q70.3594,30.2344 69.6563,30.2344 Q67.1563,30.2344 65.8281,28.5938 Q64.5156,26.9375 64.5156,23.8125 Q64.5156,20.6875 65.8281,19.0313 Q67.1563,17.375 69.6563,17.375 Q70.3594,17.375 71,17.5313 Q71.6563,17.6875 72.2188,17.9844 L72.2188,20.7031 Q71.5938,20.125 71,19.8594 Q70.4063,19.5781 69.7813,19.5781 Q68.4375,19.5781 67.75,20.6563 Q67.0625,21.7188 67.0625,23.8125 Q67.0625,25.9063 67.75,26.9844 Q68.4375,28.0469 69.7813,28.0469 Q70.4063,28.0469 71,27.7813 Q71.5938,27.5 72.2188,26.9219 L72.2188,29.6406 Z "/><text fill="#33335B" font-family="sans-serif" font-size="12" lengthAdjust="spacingAndGlyphs" textLength="49" x="89.75" y="28.1543">pipeline</text><line style="stroke: #33335B; stroke-width: 1.5;" x1="7" x2="189" y1="40" y2="40"/><text fill="#33335B" font-family="sans-serif" font-size="11" lengthAdjust="spacingAndGlyphs" textLength="46" x="12" y="54.2104">ipc_pipe</text><text fill="#33335B" font-family="sans-serif" font-size="11" lengthAdjust="spacingAndGlyphs" textLength="172" x="12" y="67.0151">comp_list : list of components</text><text fill="#33335B" font-family="sans-serif" font-size="11" lengthAdjust="spacingAndGlyphs" textLength="146" x="12" y="79.8198">buffer_list : list of buffers</text><text fill="#33335B" font-family="sans-serif" font-size="11" lengthAdjust="spacingAndGlyphs" textLength="54" x="12" y="92.6245">pipe_task</text><text fill="#33335B" font-family="sans-serif" font-size="11" lengthAdjust="spacingAndGlyphs" textLength="150" x="12" y="105.4292">sched_comp : comp_dev *</text><text fill="#33335B" font-family="sans-serif" font-size="11" lengthAdjust="spacingAndGlyphs" textLength="93" x="12" y="118.2339">status : uint32_t</text><!--MD5=[228114eb5c53e3eb94ad2fd153ad995c]
class sof_ipc_pipe_new--><rect fill="#FFFFFF" filter="url(#fq6zp1bjl50rr)" height="91.2188" id="sof_ipc_pipe_new" style="stroke: #33335B; stroke-width: 1.5;" width="139" x="28.5" y="202"/><ellipse cx="43.5" cy="218" fill="#6FCCDD" rx="11" ry="11" style="stroke: #33335B; stroke-width: 1.0;"/><path d="M46.4688,223.6406 Q45.8906,223.9375 45.25,224.0781 Q44.6094,224.2344 43.9063,224.2344 Q41.4063,224.2344 40.0781,222.5938 Q38.7656,220.9375 38.7656,217.8125 Q38.7656,214.6875 40.0781,213.0313 Q41.4063,211.375 43.9063,211.375 Q44.6094,211.375 45.25,211.5313 Q45.9063,211.6875 46.4688,211.9844 L46.4688,214.7031 Q45.8438,214.125 45.25,213.8594 Q44.6563,213.5781 44.0313,213.5781 Q42.6875,213.5781 42,214.6563 Q41.3125,215.7188 41.3125,217.8125 Q41.3125,219.9063 42,220.9844 Q42.6875,222.0469 44.0313,222.0469 Q44.6563,222.0469 45.25,221.7813 Q45.8438,221.5 46.4688,220.9219 L46.4688,223.6406 Z "/><text fill="#33335B" font-family="sans-serif" font-size="12" lengthAdjust="spacingAndGlyphs" textLength="107" x="57.5" y="222.1543">sof_ipc_pipe_new</text><line style="stroke: #33335B; stroke-width: 1.5;" x1="29.5" x2="166.5" y1="234" y2="234"/><text fill="#33335B" font-family="sans-serif" font-size="11" lengthAdjust="spacingAndGlyphs" textLength="47" x="34.5" y="248.2104">comp_id</text><text fill="#33335B" font-family="sans-serif" font-size="11" lengthAdjust="spacingAndGlyphs" textLength="60" x="34.5" y="261.0151">pipeline_id</text><text fill="#33335B" font-family="sans-serif" font-size="11" lengthAdjust="spacingAndGlyphs" textLength="50" x="34.5" y="273.8198">sched_id</text><text fill="#33335B" font-family="sans-serif" font-size="11" lengthAdjust="spacingAndGlyphs" textLength="12" x="34.5" y="286.6245">...</text><path d="M203,227.5 L203,243.5 L167.78,247.5 L203,251.5 L203,267.7656 A0,0 0 0 0 203,267.7656 L345,267.7656 A0,0 0 0 0 345,267.7656 L345,237.5 L335,227.5 L203,227.5 A0,0 0 0 0 203,227.5 " fill="#F6ED80" filter="url(#fq6zp1bjl50rr)" style="stroke: #D6D6DE; stroke-width: 1.0;"/><path d="M335,227.5 L335,237.5 L345,237.5 L335,227.5 " fill="#F6ED80" style="stroke: #D6D6DE; stroke-width: 1.0;"/><text fill="#33335B" font-family="sans-serif" font-size="13" lengthAdjust="spacingAndGlyphs" textLength="121" x="209" y="244.5669">attributes provided</text><text fill="#33335B" font-family="sans-serif" font-size="13" lengthAdjust="spacingAndGlyphs" textLength="72" x="209" y="259.6997">through ipc</text><!--MD5=[7995dc4b925f04a8b903038d633a4635]
class task--><rect fill="#FFFFFF" filter="url(#fq6zp1bjl50rr)" height="32" id="task" style="stroke: #33335B; stroke-width: 1.5;" width="59" x="287.5" y="50.5"/><ellipse cx="302.5" cy="66.5" fill="#6FCCDD" rx="11" ry="11" style="stroke: #33335B; stroke-width: 1.0;"/><path d="M305.4688,72.1406 Q304.8906,72.4375 304.25,72.5781 Q303.6094,72.7344 302.9063,72.7344 Q300.4063,72.7344 299.0781,71.0938 Q297.7656,69.4375 297.7656,66.3125 Q297.7656,63.1875 299.0781,61.5313 Q300.4063,59.875 302.9063,59.875 Q303.6094,59.875 304.25,60.0313 Q304.9063,60.1875 305.4688,60.4844 L305.4688,63.2031 Q304.8438,62.625 304.25,62.3594 Q303.6563,62.0781 303.0313,62.0781 Q301.6875,62.0781 301,63.1563 Q300.3125,64.2188 300.3125,66.3125 Q300.3125,68.4063 301,69.4844 Q301.6875,70.5469 303.0313,70.5469 Q303.6563,70.5469 304.25,70.2813 Q304.8438,70 305.4688,69.4219 L305.4688,72.1406 Z "/><text fill="#33335B" font-family="sans-serif" font-size="12" lengthAdjust="spacingAndGlyphs" textLength="27" x="316.5" y="70.6543">task</text><path d="M381.5,46.5 L381.5,62.5 L346.79,66.5 L381.5,70.5 L381.5,86.7656 A0,0 0 0 0 381.5,86.7656 L498.5,86.7656 A0,0 0 0 0 498.5,86.7656 L498.5,56.5 L488.5,46.5 L381.5,46.5 A0,0 0 0 0 381.5,46.5 " fill="#F6ED80" filter="url(#fq6zp1bjl50rr)" style="stroke: #D6D6DE; stroke-width: 1.0;"/><path d="M488.5,46.5 L488.5,56.5 L498.5,56.5 L488.5,46.5 " fill="#F6ED80" style="stroke: #D6D6DE; stroke-width: 1.0;"/><text fill="#33335B" font-family="sans-serif" font-size="13" lengthAdjust="spacingAndGlyphs" textLength="96" x="387.5" y="63.5669">task registered</text><text fill="#33335B" font-family="sans-serif" font-size="13" lengthAdjust="spacingAndGlyphs" textLength="77" x="387.5" y="78.6997">in scheduler</text><!--MD5=[1dacaf936f44fb09a94ee8f650d330b4]
link pipeline to sof_ipc_pipe_new--><path d="M98,125.12 C98,149.96 98,178.56 98,201.76 " fill="none" id="pipeline-sof_ipc_pipe_new" style="stroke: #4A4A86; stroke-width: 1.0;"/><text fill="#33335B" font-family="sans-serif" font-size="13" lengthAdjust="spacingAndGlyphs" textLength="52" x="99" y="168.0669">ipc_pipe</text><!--MD5=[4840c0ed22f8de6d9a6bbeed5a2aa92c]
link pipeline to task--><path d="M190.24,66.5 C225.08,66.5 262.3,66.5 287.33,66.5 " fill="none" id="pipeline-task" style="stroke: #4A4A86; stroke-width: 1.0;"/><text fill="#33335B" font-family="sans-serif" font-size="13" lengthAdjust="spacingAndGlyphs" textLength="61" x="208.25" y="59.5669">pipe_task</text><!--MD5=[9cdc3c1df2c70e451fe2eef7ba5bbd04]
@startuml
hidefootbox
skinparam componentStyle uml2

skinparam defaultFontColor	#33335b

skinparam rectangle {
	color		#d6d6de
	backgroundColor	#ffffff
}

skinparam component {
	backgroundColor	#ffffff
	borderColor	#33335b
	arrowColor	#f05772
}

skinparam interface {
	backgroundColor	#ffffff
	borderColor	#f05772
}

skinparam class {
	backgroundColor	#ffffff
	borderColor	#33335b
	arrowColor	#f05772
}
skinparam stereotypeCBackgroundColor	#6fccdd

skinparam sequence {
	arrowColor		#4a4a86
	lifeLineBorderColor	#f05772
	groupBorderColor	#a1a1ca
	boxBorderColor		#a1a1ca
	dividerBorderColor	#d6d6de
	dividerBorderThickness	1
}
skinparam participant {
	borderColor		#33335b
	backgroundColor		#ffffff
}
skinparam actor {
	borderColor		#33335b
	backgroundColor		#ffffff
}

skinparam state {
	borderColor		#33335b
	backgroundColor		#ffffff
}

skinparam node {
	backgroundColor		#ffffff
}

skinparam note {
	backgroundColor 	#f6ed80
	borderColor		#d6d6de
}
class "pipeline" {
   ipc_pipe
   comp_list : list of components
   buffer_list : list of buffers
   pipe_task
   sched_comp : comp_dev *
   status : uint32_t
}
hide pipeline methods

class sof_ipc_pipe_new {
   comp_id
   pipeline_id
   sched_id
   ...
}
hide sof_ipc_pipe_new methods
note right: attributes provided\nthrough ipc

class task
hide task members
hide task attributes
note right: task registered\nin scheduler

pipeline - - sof_ipc_pipe_new : ipc_pipe
pipeline - task : "pipe_task"

@enduml

PlantUML version 1.2019.12(Sun Nov 03 10:24:54 UTC 2019)
(GPL source distribution)
Java Runtime: OpenJDK Runtime Environment
JVM: OpenJDK 64-Bit Server VM
Java Version: 11.0.11+9
Operating System: Linux
Default Encoding: UTF-8
Language: en
Country: null
--></g></svg>