<?xml version="1.0" encoding="UTF-8" standalone="no"?><svg xmlns="http://www.w3.org/2000/svg" xmlns:xlink="http://www.w3.org/1999/xlink" contentScriptType="application/ecmascript" contentStyleType="text/css" height="165px" preserveAspectRatio="none" style="width:971px;height:165px;" version="1.1" viewBox="0 0 971 165" width="971px" zoomAndPan="magnify"><defs><filter height="300%" id="f228wlzxlk0xv" width="300%" x="-1" y="-1"><feGaussianBlur result="blurOut" stdDeviation="2.0"/><feColorMatrix in="blurOut" result="blurOut2" type="matrix" values="0 0 0 0 0 0 0 0 0 0 0 0 0 0 0 0 0 0 .4 0"/><feOffset dx="4.0" dy="4.0" in="blurOut2" result="blurOut3"/><feBlend in="SourceGraphic" in2="blurOut3" mode="normal"/></filter></defs><g><ellipse cx="25.2181" cy="56.2945" fill="#F6ED80" filter="url(#f228wlzxlk0xv)" rx="19.2181" ry="15.9745" style="stroke: #A80036; stroke-width: 1.5;"/><text fill="#33335B" font-family="sans-serif" font-size="14" lengthAdjust="spacingAndGlyphs" textLength="22" x="14.2181" y="62.3284">LL1</text><!--MD5=[5d22f46591651d873fa5f01919463b1f]
entity buf1--><rect fill="#FFFFFF" filter="url(#f228wlzxlk0xv)" height="96.2717" style="stroke: #000000; stroke-width: 1.5;" width="115" x="104.44" y="8.16"/><text fill="#33335B" font-family="sans-serif" font-size="14" lengthAdjust="spacingAndGlyphs" textLength="34" x="114.44" y="33.1259">BUF1</text><text fill="#33335B" font-family="sans-serif" font-size="14" lengthAdjust="spacingAndGlyphs" textLength="0" x="118.44" y="52.1939"/><text fill="#33335B" font-family="sans-serif" font-size="14" lengthAdjust="spacingAndGlyphs" textLength="95" x="114.44" y="71.2618">109ms of data</text><text fill="#33335B" font-family="sans-serif" font-size="14" lengthAdjust="spacingAndGlyphs" textLength="0" x="118.44" y="90.3297"/><ellipse cx="330.4448" cy="56.2931" fill="#ADD1B2" filter="url(#f228wlzxlk0xv)" rx="21.3848" ry="16.4831" style="stroke: #A80036; stroke-width: 1.5;"/><text fill="#33335B" font-family="sans-serif" font-size="14" lengthAdjust="spacingAndGlyphs" textLength="26" x="317.4448" y="62.327">DP1</text><path d="M279.44,107.59 L279.44,153.002 A0,0 0 0 0 279.44,153.002 L381.44,153.002 A0,0 0 0 0 381.44,153.002 L381.44,117.59 L371.44,107.59 L334.44,107.59 L330.44,72.99 L326.44,107.59 L279.44,107.59 A0,0 0 0 0 279.44,107.59 " fill="#F6ED80" filter="url(#f228wlzxlk0xv)" style="stroke: #D6D6DE; stroke-width: 1.0;"/><path d="M371.44,107.59 L371.44,117.59 L381.44,117.59 L371.44,107.59 " fill="#F6ED80" style="stroke: #D6D6DE; stroke-width: 1.0;"/><text fill="#33335B" font-family="sans-serif" font-size="13" lengthAdjust="spacingAndGlyphs" textLength="81" x="285.44" y="126.487">period 100ms</text><text fill="#33335B" font-family="sans-serif" font-size="13" lengthAdjust="spacingAndGlyphs" textLength="56" x="285.44" y="144.193">LPT:  5ms</text><!--MD5=[09669385afe7e2c2493411eba046fab2]
entity buf2--><rect fill="#FFFFFF" filter="url(#f228wlzxlk0xv)" height="96.2717" style="stroke: #000000; stroke-width: 1.5;" width="107" x="441.44" y="8.16"/><text fill="#33335B" font-family="sans-serif" font-size="14" lengthAdjust="spacingAndGlyphs" textLength="34" x="451.44" y="33.1259">BUF2</text><text fill="#33335B" font-family="sans-serif" font-size="14" lengthAdjust="spacingAndGlyphs" textLength="0" x="455.44" y="52.1939"/><text fill="#33335B" font-family="sans-serif" font-size="14" lengthAdjust="spacingAndGlyphs" textLength="87" x="451.44" y="71.2618">10ms of data</text><text fill="#33335B" font-family="sans-serif" font-size="14" lengthAdjust="spacingAndGlyphs" textLength="0" x="455.44" y="90.3297"/><ellipse cx="655.9448" cy="56.2931" fill="#ADD1B2" filter="url(#f228wlzxlk0xv)" rx="21.3848" ry="16.4831" style="stroke: #A80036; stroke-width: 1.5;"/><text fill="#33335B" font-family="sans-serif" font-size="14" lengthAdjust="spacingAndGlyphs" textLength="26" x="642.9448" y="62.327">DP2</text><path d="M608.44,107.59 L608.44,153.002 A0,0 0 0 0 608.44,153.002 L703.44,153.002 A0,0 0 0 0 703.44,153.002 L703.44,117.59 L693.44,107.59 L659.94,107.59 L655.94,72.99 L651.94,107.59 L608.44,107.59 A0,0 0 0 0 608.44,107.59 " fill="#F6ED80" filter="url(#f228wlzxlk0xv)" style="stroke: #D6D6DE; stroke-width: 1.0;"/><path d="M693.44,107.59 L693.44,117.59 L703.44,117.59 L693.44,107.59 " fill="#F6ED80" style="stroke: #D6D6DE; stroke-width: 1.0;"/><text fill="#33335B" font-family="sans-serif" font-size="13" lengthAdjust="spacingAndGlyphs" textLength="74" x="614.44" y="126.487">period 10ms</text><text fill="#33335B" font-family="sans-serif" font-size="13" lengthAdjust="spacingAndGlyphs" textLength="56" x="614.44" y="144.193">LPT:  9ms</text><!--MD5=[314e2eb86b776a866fe0256c837c215b]
entity buf3--><rect fill="#FFFFFF" filter="url(#f228wlzxlk0xv)" height="96.2717" style="stroke: #000000; stroke-width: 1.5;" width="99" x="763.44" y="8.16"/><text fill="#33335B" font-family="sans-serif" font-size="14" lengthAdjust="spacingAndGlyphs" textLength="34" x="773.44" y="33.1259">BUF3</text><text fill="#33335B" font-family="sans-serif" font-size="14" lengthAdjust="spacingAndGlyphs" textLength="0" x="777.44" y="52.1939"/><text fill="#33335B" font-family="sans-serif" font-size="14" lengthAdjust="spacingAndGlyphs" textLength="79" x="773.44" y="71.2618">6ms of data</text><text fill="#33335B" font-family="sans-serif" font-size="14" lengthAdjust="spacingAndGlyphs" textLength="0" x="777.44" y="90.3297"/><ellipse cx="941.6481" cy="56.2945" fill="#F6ED80" filter="url(#f228wlzxlk0xv)" rx="19.2181" ry="15.9745" style="stroke: #A80036; stroke-width: 1.5;"/><text fill="#33335B" font-family="sans-serif" font-size="14" lengthAdjust="spacingAndGlyphs" textLength="22" x="930.6481" y="62.3284">LL2</text><!--MD5=[df65c77ac4b23fee284ac96141319ade]
link mod1 to buf1--><path d="M44.67,56.29 C58.52,56.29 78.35,56.29 97.73,56.29 " fill="none" id="mod1-&gt;buf1" style="stroke: #F05772; stroke-width: 1.0;"/><polygon fill="#F05772" points="102.48,56.29,93.48,52.29,97.48,56.29,93.48,60.29,102.48,56.29" style="stroke: #F05772; stroke-width: 1.0;"/><!--MD5=[3da331e53385dbf693d9d454d6235b4b]
link buf1 to mod2--><path d="M219.77,56.29 C247.72,56.29 280.11,56.29 302.4,56.29 " fill="none" id="buf1-&gt;mod2" style="stroke: #F05772; stroke-width: 1.0;"/><polygon fill="#F05772" points="307.18,56.29,298.18,52.29,302.18,56.29,298.18,60.29,307.18,56.29" style="stroke: #F05772; stroke-width: 1.0;"/><!--MD5=[eed46d208007f879a35f6ae7d3ec9c2d]
link mod2 to buf2--><path d="M352.02,56.29 C372.74,56.29 405.7,56.29 434.64,56.29 " fill="none" id="mod2-&gt;buf2" style="stroke: #F05772; stroke-width: 1.0;"/><polygon fill="#F05772" points="439.61,56.29,430.61,52.29,434.61,56.29,430.61,60.29,439.61,56.29" style="stroke: #F05772; stroke-width: 1.0;"/><!--MD5=[920971b403b6dd8672d0721d775be8ab]
link buf2 to mod3--><path d="M548.88,56.29 C575.41,56.29 606.39,56.29 627.99,56.29 " fill="none" id="buf2-&gt;mod3" style="stroke: #F05772; stroke-width: 1.0;"/><polygon fill="#F05772" points="632.87,56.29,623.87,52.29,627.87,56.29,623.87,60.29,632.87,56.29" style="stroke: #F05772; stroke-width: 1.0;"/><!--MD5=[d2dd8acab52e70a55c229c1191f54284]
link mod3 to buf3--><path d="M677.52,56.29 C697.73,56.29 729.45,56.29 757.01,56.29 " fill="none" id="mod3-&gt;buf3" style="stroke: #F05772; stroke-width: 1.0;"/><polygon fill="#F05772" points="761.67,56.29,752.67,52.29,756.67,56.29,752.67,60.29,761.67,56.29" style="stroke: #F05772; stroke-width: 1.0;"/><!--MD5=[cd5393936a715c9ee6f62f24a0c24840]
link buf3 to mod4--><path d="M862.93,56.29 C881.09,56.29 900.91,56.29 915.99,56.29 " fill="none" id="buf3-&gt;mod4" style="stroke: #F05772; stroke-width: 1.0;"/><polygon fill="#F05772" points="920.63,56.29,911.63,52.29,915.63,56.29,911.63,60.29,920.63,56.29" style="stroke: #F05772; stroke-width: 1.0;"/><!--MD5=[2dbe959fa5ba61cf6aee62590e03b88c]
@startuml
hidefootbox
skinparam componentStyle uml2

skinparam defaultFontColor	#33335b

skinparam rectangle {
	color		#d6d6de
	backgroundColor	#ffffff
}

skinparam component {
	backgroundColor	#ffffff
	borderColor	#33335b
	arrowColor	#f05772
}

skinparam interface {
	backgroundColor	#ffffff
	borderColor	#f05772
}

skinparam class {
	backgroundColor	#ffffff
	borderColor	#33335b
	arrowColor	#f05772
}
skinparam stereotypeCBackgroundColor	#6fccdd

skinparam sequence {
	arrowColor		#4a4a86
	lifeLineBorderColor	#f05772
	groupBorderColor	#a1a1ca
	boxBorderColor		#a1a1ca
	dividerBorderColor	#d6d6de
	dividerBorderThickness	1
}
skinparam participant {
	borderColor		#33335b
	backgroundColor		#ffffff
}
skinparam actor {
	borderColor		#33335b
	backgroundColor		#ffffff
}

skinparam state {
	borderColor		#33335b
	backgroundColor		#ffffff
}

skinparam node {
	backgroundColor		#ffffff
}

skinparam note {
	backgroundColor 	#f6ed80
	borderColor		#d6d6de
}

skinparam activity {
	borderColor		#33335b
	backgroundColor		#ffffff
}

skinparam activityDiamond {
	borderColor		#33335b
	backgroundColor		#ffffff
}

skinparam arrowColor	#f05772
skinparam maxMessageSize 400
skinparam BoxPadding 4
left to right direction
(LL1) as mod1 #f6ed80

rectangle "BUF1\n\n109ms of data\n" as buf1

(DP1) as mod2 #ADD1B2

note bottom of mod2
  period 100ms
  LPT:  5ms
end note

rectangle "BUF2\n\n10ms of data\n" as buf2

(DP2) as mod3 #ADD1B2

note bottom of mod3
  period 10ms
  LPT:  9ms
end note

rectangle "BUF3\n\n6ms of data\n" as buf3

(LL2) as mod4 #f6ed80


mod1- -> buf1
buf1 - -> mod2
mod2- ->buf2
buf2 - -> mod3
mod3- ->buf3
buf3 - -> mod4
@enduml 

PlantUML version 1.2019.12(Sun Nov 03 10:24:54 GMT 2019)
(GPL source distribution)
Java Runtime: OpenJDK Runtime Environment
JVM: OpenJDK 64-Bit Server VM
Java Version: 25.0.4+7-1-26.04-Ubuntu
Operating System: Linux
Default Encoding: UTF-8
Language: en
Country: US
--></g></svg>