<?xml version="1.0" encoding="UTF-8" standalone="no"?><svg xmlns="http://www.w3.org/2000/svg" xmlns:xlink="http://www.w3.org/1999/xlink" contentScriptType="application/ecmascript" contentStyleType="text/css" height="593px" preserveAspectRatio="none" style="width:617px;height:593px;" version="1.1" viewBox="0 0 617 593" width="617px" zoomAndPan="magnify"><defs><filter height="300%" id="f1ky7te3ly0ylf" width="300%" x="-1" y="-1"><feGaussianBlur result="blurOut" stdDeviation="2.0"/><feColorMatrix in="blurOut" result="blurOut2" type="matrix" values="0 0 0 0 0 0 0 0 0 0 0 0 0 0 0 0 0 0 .4 0"/><feOffset dx="4.0" dy="4.0" in="blurOut2" result="blurOut3"/><feBlend in="SourceGraphic" in2="blurOut3" mode="normal"/></filter></defs><g><ellipse cx="16" cy="28" fill="#000000" filter="url(#f1ky7te3ly0ylf)" rx="10" ry="10" style="stroke: none; stroke-width: 1.0;"/><rect fill="#FFFFFF" filter="url(#f1ky7te3ly0ylf)" height="40" rx="12.5" ry="12.5" style="stroke: #33335B; stroke-width: 1.5;" width="136" x="210" y="8"/><text fill="#33335B" font-family="sans-serif" font-size="14" lengthAdjust="spacingAndGlyphs" textLength="126" x="215" y="33.7285">COMP_STATE_INIT</text><rect fill="#FFFFFF" filter="url(#f1ky7te3ly0ylf)" height="40" rx="12.5" ry="12.5" style="stroke: #33335B; stroke-width: 1.5;" width="159" x="198.5" y="126"/><text fill="#33335B" font-family="sans-serif" font-size="14" lengthAdjust="spacingAndGlyphs" textLength="149" x="203.5" y="151.7285">COMP_STATE_READY</text><rect fill="#FFFFFF" filter="url(#f1ky7te3ly0ylf)" height="40" rx="12.5" ry="12.5" style="stroke: #33335B; stroke-width: 1.5;" width="177" x="189.5" y="306"/><text fill="#33335B" font-family="sans-serif" font-size="14" lengthAdjust="spacingAndGlyphs" textLength="167" x="194.5" y="331.7285">COMP_STATE_PREPARE</text><rect fill="#FFFFFF" filter="url(#f1ky7te3ly0ylf)" height="40" rx="12.5" ry="12.5" style="stroke: #33335B; stroke-width: 1.5;" width="161" x="86.5" y="424"/><text fill="#33335B" font-family="sans-serif" font-size="14" lengthAdjust="spacingAndGlyphs" textLength="151" x="91.5" y="449.7285">COMP_STATE_ACTIVE</text><rect fill="#FFFFFF" filter="url(#f1ky7te3ly0ylf)" height="40" rx="12.5" ry="12.5" style="stroke: #33335B; stroke-width: 1.5;" width="167" x="168.5" y="542"/><text fill="#33335B" font-family="sans-serif" font-size="14" lengthAdjust="spacingAndGlyphs" textLength="157" x="173.5" y="567.7285">COMP_STATE_PAUSED</text><!--MD5=[3f2fa9af7dc3588883d229ca224ef419]
link *start to COMP_STATE_INIT--><path d="M26.27,28 C55.53,28 141.31,28 204.64,28 " fill="none" id="*start-&gt;COMP_STATE_INIT" style="stroke: #F05772; stroke-width: 1.0;"/><polygon fill="#F05772" points="209.92,28,200.92,24,204.92,28,200.92,32,209.92,28" style="stroke: #F05772; stroke-width: 1.0;"/><text fill="#33335B" font-family="sans-serif" font-size="13" lengthAdjust="spacingAndGlyphs" textLength="40" x="44.5" y="21.4951">start of</text><text fill="#33335B" font-family="sans-serif" font-size="13" font-weight="bold" lengthAdjust="spacingAndGlyphs" textLength="103" x="88.5" y="21.4951">comp_ops.new()</text><!--MD5=[2c2e8ba71b720de02b041b8c6b18dfc4]
link COMP_STATE_INIT to COMP_STATE_READY--><path d="M278,48.16 C278,67.97 278,98.98 278,120.55 " fill="none" id="COMP_STATE_INIT-&gt;COMP_STATE_READY" style="stroke: #F05772; stroke-width: 1.0;"/><polygon fill="#F05772" points="278,125.82,282,116.82,278,120.82,274,116.82,278,125.82" style="stroke: #F05772; stroke-width: 1.0;"/><text fill="#33335B" font-family="sans-serif" font-size="13" lengthAdjust="spacingAndGlyphs" textLength="35" x="279" y="92.4951">end of</text><text fill="#33335B" font-family="sans-serif" font-size="13" font-weight="bold" lengthAdjust="spacingAndGlyphs" textLength="103" x="318" y="92.4951">comp_ops.new()</text><!--MD5=[47445f1fafaa5737054a7992c8179a8e]
link COMP_STATE_READY to COMP_STATE_PREPARE--><path d="M242.62,166.03 C221.03,179.8 195.28,200.61 183,227 C168.47,258.23 201.07,285.59 231.96,303.4 " fill="none" id="COMP_STATE_READY-&gt;COMP_STATE_PREPARE" style="stroke: #F05772; stroke-width: 1.0;"/><polygon fill="#F05772" points="236.5,305.96,230.6255,298.0549,232.1448,303.5039,226.6958,305.0233,236.5,305.96" style="stroke: #F05772; stroke-width: 1.0;"/><text fill="#33335B" font-family="sans-serif" font-size="13" font-weight="bold" lengthAdjust="spacingAndGlyphs" textLength="172" x="184" y="241.4951">COMP_TRIGGER_PREPARE</text><!--MD5=[c9df9f78e3e659911d3ea3bbd25d27c3]
link COMP_STATE_PREPARE to COMP_STATE_READY--><path d="M307.76,305.88 C326.92,291.68 350.2,270.42 361,245 C373.79,214.91 344.69,187.13 317.49,168.89 " fill="none" id="COMP_STATE_PREPARE-&gt;COMP_STATE_READY" style="stroke: #F05772; stroke-width: 1.0;"/><polygon fill="#F05772" points="313.15,166.05,318.4724,174.3369,317.3278,168.797,322.8676,167.6524,313.15,166.05" style="stroke: #F05772; stroke-width: 1.0;"/><text fill="#33335B" font-family="sans-serif" font-size="13" lengthAdjust="spacingAndGlyphs" textLength="153" x="366" y="241.4951">COMP_TRIGGER_RESET</text><!--MD5=[6b00e1dc5fed14cfc539e52d6886ce96]
link COMP_STATE_PREPARE to COMP_STATE_ACTIVE--><path d="M189.31,338.01 C142.99,345.78 93.07,358.04 79,376 C64.84,394.07 83.09,409.87 106.57,421.58 " fill="none" id="COMP_STATE_PREPARE-&gt;COMP_STATE_ACTIVE" style="stroke: #F05772; stroke-width: 1.0;"/><polygon fill="#F05772" points="111.33,423.87,104.9627,416.3562,106.8269,421.6971,101.486,423.5612,111.33,423.87" style="stroke: #F05772; stroke-width: 1.0;"/><text fill="#33335B" font-family="sans-serif" font-size="13" font-weight="bold" lengthAdjust="spacingAndGlyphs" textLength="154" x="80" y="390.4951">COMP_TRIGGER_START</text><!--MD5=[f93a8328611bcc654651b8c96614e578]
link COMP_STATE_ACTIVE to COMP_STATE_PREPARE--><path d="M201.67,423.86 C214.39,415.75 228.28,405.5 239,394 C250.87,381.26 260.7,364.29 267.53,350.61 " fill="none" id="COMP_STATE_ACTIVE-&gt;COMP_STATE_PREPARE" style="stroke: #F05772; stroke-width: 1.0;"/><polygon fill="#F05772" points="269.72,346.11,262.1819,352.4485,267.5299,350.6048,269.3736,355.9528,269.72,346.11" style="stroke: #F05772; stroke-width: 1.0;"/><text fill="#33335B" font-family="sans-serif" font-size="13" lengthAdjust="spacingAndGlyphs" textLength="145" x="254" y="390.4951">COMP_TRIGGER_STOP</text><!--MD5=[4ef321c417bd4449e4c82d82f9873a6e]
link COMP_STATE_PAUSED to COMP_STATE_PREPARE--><path d="M335.6,553.56 C362.36,546.78 389.33,534.39 406,512 C524.99,352.14 426.58,402.85 408,376 C398.86,362.79 385.68,353.13 371.17,346.08 " fill="none" id="COMP_STATE_PAUSED-&gt;COMP_STATE_PREPARE" style="stroke: #F05772; stroke-width: 1.0;"/><polygon fill="#F05772" points="366.63,343.97,373.121,351.3772,371.1685,346.068,376.4778,344.1156,366.63,343.97" style="stroke: #F05772; stroke-width: 1.0;"/><text fill="#33335B" font-family="sans-serif" font-size="13" lengthAdjust="spacingAndGlyphs" textLength="145" x="460" y="449.4951">COMP_TRIGGER_STOP</text><!--MD5=[0c46d5859d5cdcf68a9ec202b1df70b5]
link COMP_STATE_ACTIVE to COMP_STATE_PAUSED--><path d="M86.97,464.14 C57.71,475.04 35.38,490.82 52,512 C66.19,530.08 116.57,542.36 163.21,550.1 " fill="none" id="COMP_STATE_ACTIVE-&gt;COMP_STATE_PAUSED" style="stroke: #F05772; stroke-width: 1.0;"/><polygon fill="#F05772" points="168.29,550.93,160.0624,545.5164,163.3569,550.115,158.7583,553.4094,168.29,550.93" style="stroke: #F05772; stroke-width: 1.0;"/><text fill="#33335B" font-family="sans-serif" font-size="13" lengthAdjust="spacingAndGlyphs" textLength="155" x="53" y="508.4951">COMP_TRIGGER_PAUSE</text><!--MD5=[34cb113936606449aae17b5ab6cd8ebe]
link COMP_STATE_PAUSED to COMP_STATE_ACTIVE--><path d="M242.33,541.8 C235.02,528 224.34,509.22 213,494 C206.29,485 198.12,475.84 190.54,467.91 " fill="none" id="COMP_STATE_PAUSED-&gt;COMP_STATE_ACTIVE" style="stroke: #F05772; stroke-width: 1.0;"/><polygon fill="#F05772" points="186.88,464.12,190.2662,473.3684,190.3578,467.7123,196.0139,467.8039,186.88,464.12" style="stroke: #F05772; stroke-width: 1.0;"/><text fill="#33335B" font-family="sans-serif" font-size="13" lengthAdjust="spacingAndGlyphs" textLength="171" x="226" y="508.4951">COMP_TRIGGER_RELEASE</text><!--MD5=[c3473b29661e4ad2b95340da9c14569d]
@startuml
hidefootbox
skinparam componentStyle uml2

skinparam defaultFontColor	#33335b

skinparam rectangle {
	color		#d6d6de
	backgroundColor	#ffffff
}

skinparam queue {
	color		#d6d6de
	backgroundColor	#ffffff
}

skinparam component {
	backgroundColor	#ffffff
	borderColor	#33335b
	arrowColor	#f05772
}

skinparam interface {
	backgroundColor	#ffffff
	borderColor	#f05772
}

skinparam class {
	backgroundColor	#ffffff
	borderColor	#33335b
	arrowColor	#f05772
}
skinparam stereotypeCBackgroundColor	#6fccdd

skinparam sequence {
	arrowColor		#4a4a86
	lifeLineBorderColor	#f05772
	groupBorderColor	#a1a1ca
	boxBorderColor		#a1a1ca
	dividerBorderColor	#d6d6de
	dividerBorderThickness	1
}
skinparam participant {
	borderColor		#33335b
	backgroundColor		#ffffff
}
skinparam actor {
	borderColor		#33335b
	backgroundColor		#ffffff
}

skinparam state {
	borderColor		#33335b
	backgroundColor		#ffffff
}

skinparam node {
	backgroundColor		#ffffff
}

skinparam note {
	backgroundColor 	#f6ed80
	borderColor		#d6d6de
}

skinparam activity {
	borderColor		#33335b
	backgroundColor		#ffffff
}

skinparam activityDiamond {
	borderColor		#33335b
	backgroundColor		#ffffff
}

skinparam arrowColor	#f05772
skinparam maxMessageSize 400
skinparam BoxPadding 4
hide empty description
[*] -right-> COMP_STATE_INIT : start of <b>comp_ops.new()</b>

COMP_STATE_INIT - -> COMP_STATE_READY : end of <b>comp_ops.new()</b>

COMP_STATE_READY - - -> COMP_STATE_PREPARE : <b>COMP_TRIGGER_PREPARE</b>

COMP_STATE_PREPARE - -> COMP_STATE_ACTIVE : <b>COMP_TRIGGER_START</b>

COMP_STATE_ACTIVE - -> COMP_STATE_PREPARE : COMP_TRIGGER_STOP
COMP_STATE_PAUSED - -> COMP_STATE_PREPARE : COMP_TRIGGER_STOP

COMP_STATE_ACTIVE -> COMP_STATE_PAUSED : COMP_TRIGGER_PAUSE

COMP_STATE_PAUSED - -> COMP_STATE_ACTIVE : COMP_TRIGGER_RELEASE

COMP_STATE_PREPARE - -> COMP_STATE_READY : COMP_TRIGGER_RESET

@enduml

PlantUML version 1.2019.12(Sun Nov 03 11:24:54 CET 2019)
(GPL source distribution)
Java Runtime: OpenJDK Runtime Environment
JVM: OpenJDK 64-Bit Server VM
Java Version: 1.8.0_302-b08
Operating System: Windows 10
Default Encoding: Cp1252
Language: en
Country: US
--></g></svg>