<?xml version="1.0" encoding="UTF-8" standalone="no"?><svg xmlns="http://www.w3.org/2000/svg" xmlns:xlink="http://www.w3.org/1999/xlink" contentScriptType="application/ecmascript" contentStyleType="text/css" height="837px" preserveAspectRatio="none" style="width:712px;height:837px;" version="1.1" viewBox="0 0 712 837" width="712px" zoomAndPan="magnify"><defs><filter height="300%" id="fso2oqbd3lavm" width="300%" x="-1" y="-1"><feGaussianBlur result="blurOut" stdDeviation="2.0"/><feColorMatrix in="blurOut" result="blurOut2" type="matrix" values="0 0 0 0 0 0 0 0 0 0 0 0 0 0 0 0 0 0 .4 0"/><feOffset dx="4.0" dy="4.0" in="blurOut2" result="blurOut3"/><feBlend in="SourceGraphic" in2="blurOut3" mode="normal"/></filter></defs><g><rect fill="#FFFFFF" filter="url(#fso2oqbd3lavm)" height="114.3984" style="stroke: #F05772; stroke-width: 1.0;" width="10" x="203" y="69.4297"/><rect fill="#FFFFFF" filter="url(#fso2oqbd3lavm)" height="155.5313" style="stroke: #F05772; stroke-width: 1.0;" width="10" x="203" y="212.9609"/><rect fill="#FFFFFF" filter="url(#fso2oqbd3lavm)" height="82.2656" style="stroke: #F05772; stroke-width: 1.0;" width="10" x="208" y="250.0938"/><rect fill="#FFFFFF" filter="url(#fso2oqbd3lavm)" height="281.9297" style="stroke: #F05772; stroke-width: 1.0;" width="10" x="203" y="526.0234"/><rect fill="#FFFFFF" filter="url(#fso2oqbd3lavm)" height="82.2656" style="stroke: #F05772; stroke-width: 1.0;" width="10" x="208" y="563.1563"/><rect fill="#FFFFFF" filter="url(#fso2oqbd3lavm)" height="85.2656" style="stroke: #F05772; stroke-width: 1.0;" width="10" x="436" y="411.625"/><rect fill="#FFFFFF" filter="url(#fso2oqbd3lavm)" height="245.7969" style="stroke: #F05772; stroke-width: 1.0;" width="10" x="436" y="526.0234"/><rect fill="#FFFFFF" filter="url(#fso2oqbd3lavm)" height="82.2656" style="stroke: #F05772; stroke-width: 1.0;" width="10" x="441" y="689.5547"/><line style="stroke: #F05772; stroke-width: 1.0; stroke-dasharray: 5.0,5.0;" x1="27" x2="27" y1="38.2969" y2="825.9531"/><line style="stroke: #F05772; stroke-width: 1.0; stroke-dasharray: 5.0,5.0;" x1="208" x2="208" y1="38.2969" y2="825.9531"/><line style="stroke: #F05772; stroke-width: 1.0; stroke-dasharray: 5.0,5.0;" x1="441" x2="441" y1="38.2969" y2="825.9531"/><line style="stroke: #F05772; stroke-width: 1.0; stroke-dasharray: 5.0,5.0;" x1="674" x2="674" y1="38.2969" y2="825.9531"/><rect fill="#FFFFFF" filter="url(#fso2oqbd3lavm)" height="30.2969" style="stroke: #33335B; stroke-width: 1.5;" width="34" x="8" y="3"/><text fill="#33335B" font-family="sans-serif" font-size="14" lengthAdjust="spacingAndGlyphs" textLength="20" x="15" y="22.9951">ipc</text><rect fill="#FFFFFF" filter="url(#fso2oqbd3lavm)" height="30.2969" style="stroke: #33335B; stroke-width: 1.5;" width="58" x="177" y="3"/><text fill="#33335B" font-family="sans-serif" font-size="14" lengthAdjust="spacingAndGlyphs" textLength="44" x="184" y="22.9951">core 0</text><rect fill="#FFFFFF" filter="url(#fso2oqbd3lavm)" height="30.2969" style="stroke: #33335B; stroke-width: 1.5;" width="58" x="410" y="3"/><text fill="#33335B" font-family="sans-serif" font-size="14" lengthAdjust="spacingAndGlyphs" textLength="44" x="417" y="22.9951">core 1</text><rect fill="#FFFFFF" filter="url(#fso2oqbd3lavm)" height="30.2969" style="stroke: #33335B; stroke-width: 1.5;" width="58" x="643" y="3"/><text fill="#33335B" font-family="sans-serif" font-size="14" lengthAdjust="spacingAndGlyphs" textLength="44" x="650" y="22.9951">wallclk</text><rect fill="#FFFFFF" filter="url(#fso2oqbd3lavm)" height="114.3984" style="stroke: #F05772; stroke-width: 1.0;" width="10" x="203" y="69.4297"/><rect fill="#FFFFFF" filter="url(#fso2oqbd3lavm)" height="155.5313" style="stroke: #F05772; stroke-width: 1.0;" width="10" x="203" y="212.9609"/><rect fill="#FFFFFF" filter="url(#fso2oqbd3lavm)" height="82.2656" style="stroke: #F05772; stroke-width: 1.0;" width="10" x="208" y="250.0938"/><rect fill="#FFFFFF" filter="url(#fso2oqbd3lavm)" height="281.9297" style="stroke: #F05772; stroke-width: 1.0;" width="10" x="203" y="526.0234"/><rect fill="#FFFFFF" filter="url(#fso2oqbd3lavm)" height="82.2656" style="stroke: #F05772; stroke-width: 1.0;" width="10" x="208" y="563.1563"/><rect fill="#FFFFFF" filter="url(#fso2oqbd3lavm)" height="85.2656" style="stroke: #F05772; stroke-width: 1.0;" width="10" x="436" y="411.625"/><rect fill="#FFFFFF" filter="url(#fso2oqbd3lavm)" height="245.7969" style="stroke: #F05772; stroke-width: 1.0;" width="10" x="436" y="526.0234"/><rect fill="#FFFFFF" filter="url(#fso2oqbd3lavm)" height="82.2656" style="stroke: #F05772; stroke-width: 1.0;" width="10" x="441" y="689.5547"/><polygon fill="#4A4A86" points="191,65.4297,201,69.4297,191,73.4297,195,69.4297" style="stroke: #4A4A86; stroke-width: 1.0;"/><line style="stroke: #4A4A86; stroke-width: 1.0;" x1="27" x2="197" y1="69.4297" y2="69.4297"/><text fill="#33335B" font-family="sans-serif" font-size="13" lengthAdjust="spacingAndGlyphs" textLength="157" x="34" y="64.3638">new pipeline 0 (@core 0)</text><polygon fill="#4A4A86" points="662,94.5625,672,98.5625,662,102.5625,666,98.5625" style="stroke: #4A4A86; stroke-width: 1.0;"/><line style="stroke: #4A4A86; stroke-width: 1.0;" x1="213" x2="668" y1="98.5625" y2="98.5625"/><text fill="#33335B" font-family="sans-serif" font-size="13" lengthAdjust="spacingAndGlyphs" textLength="100" x="220" y="93.4966">timer_register()</text><line style="stroke: #4A4A86; stroke-width: 1.0;" x1="213" x2="255" y1="127.6953" y2="127.6953"/><line style="stroke: #4A4A86; stroke-width: 1.0;" x1="255" x2="255" y1="127.6953" y2="140.6953"/><line style="stroke: #4A4A86; stroke-width: 1.0;" x1="214" x2="255" y1="140.6953" y2="140.6953"/><polygon fill="#4A4A86" points="224,136.6953,214,140.6953,224,144.6953,220,140.6953" style="stroke: #4A4A86; stroke-width: 1.0;"/><text fill="#33335B" font-family="sans-serif" font-size="13" lengthAdjust="spacingAndGlyphs" textLength="204" x="220" y="122.6294">work_schedule(ppl 0 dai, +1ms)</text><polygon fill="#4A4A86" points="662,165.8281,672,169.8281,662,173.8281,666,169.8281" style="stroke: #4A4A86; stroke-width: 1.0;"/><line style="stroke: #4A4A86; stroke-width: 1.0;" x1="213" x2="668" y1="169.8281" y2="169.8281"/><text fill="#33335B" font-family="sans-serif" font-size="13" lengthAdjust="spacingAndGlyphs" textLength="205" x="220" y="164.7622">work_set_timer(period = +1ms)</text><polygon fill="#4A4A86" points="38,179.8281,28,183.8281,38,187.8281,34,183.8281" style="stroke: #4A4A86; stroke-width: 1.0;"/><line style="stroke: #4A4A86; stroke-width: 1.0; stroke-dasharray: 2.0,2.0;" x1="32" x2="207" y1="183.8281" y2="183.8281"/><polygon fill="#4A4A86" points="224,208.9609,214,212.9609,224,216.9609,220,212.9609" style="stroke: #4A4A86; stroke-width: 1.0;"/><line style="stroke: #4A4A86; stroke-width: 1.0;" x1="218" x2="673" y1="212.9609" y2="212.9609"/><text fill="#33335B" font-family="sans-serif" font-size="13" lengthAdjust="spacingAndGlyphs" textLength="98" x="230" y="207.895">cb() @ next ms</text><line style="stroke: #4A4A86; stroke-width: 1.0;" x1="213" x2="260" y1="237.0938" y2="237.0938"/><line style="stroke: #4A4A86; stroke-width: 1.0;" x1="260" x2="260" y1="237.0938" y2="250.0938"/><line style="stroke: #4A4A86; stroke-width: 1.0;" x1="219" x2="260" y1="250.0938" y2="250.0938"/><polygon fill="#4A4A86" points="229,246.0938,219,250.0938,229,254.0938,225,250.0938" style="stroke: #4A4A86; stroke-width: 1.0;"/><text fill="#33335B" font-family="sans-serif" font-size="13" lengthAdjust="spacingAndGlyphs" textLength="83" x="225" y="232.0278">ppl 0 dai cb()</text><line style="stroke: #4A4A86; stroke-width: 1.0;" x1="218" x2="260" y1="284.2266" y2="284.2266"/><line style="stroke: #4A4A86; stroke-width: 1.0;" x1="260" x2="260" y1="284.2266" y2="297.2266"/><line style="stroke: #4A4A86; stroke-width: 1.0;" x1="219" x2="260" y1="297.2266" y2="297.2266"/><polygon fill="#4A4A86" points="229,293.2266,219,297.2266,229,301.2266,225,297.2266" style="stroke: #4A4A86; stroke-width: 1.0;"/><text fill="#33335B" font-family="sans-serif" font-size="13" lengthAdjust="spacingAndGlyphs" textLength="65" x="225" y="279.1606">ppl 0 copy</text><line style="stroke: #4A4A86; stroke-width: 1.0;" x1="218" x2="260" y1="331.3594" y2="331.3594"/><line style="stroke: #4A4A86; stroke-width: 1.0;" x1="260" x2="260" y1="331.3594" y2="344.3594"/><line style="stroke: #4A4A86; stroke-width: 1.0;" x1="213" x2="260" y1="344.3594" y2="344.3594"/><polygon fill="#4A4A86" points="223,340.3594,213,344.3594,223,348.3594,219,344.3594" style="stroke: #4A4A86; stroke-width: 1.0;"/><text fill="#33335B" font-family="sans-serif" font-size="13" lengthAdjust="spacingAndGlyphs" textLength="204" x="225" y="326.2935">work_schedule(ppl 0 dai, +1ms)</text><polygon fill="#4A4A86" points="662,364.4922,672,368.4922,662,372.4922,666,368.4922" style="stroke: #4A4A86; stroke-width: 1.0;"/><line style="stroke: #4A4A86; stroke-width: 1.0;" x1="208" x2="668" y1="368.4922" y2="368.4922"/><text fill="#33335B" font-family="sans-serif" font-size="13" lengthAdjust="spacingAndGlyphs" textLength="107" x="215" y="363.4263">work_set_timer()</text><polygon fill="#4A4A86" points="196,393.625,206,397.625,196,401.625,200,397.625" style="stroke: #4A4A86; stroke-width: 1.0;"/><line style="stroke: #4A4A86; stroke-width: 1.0;" x1="27" x2="202" y1="397.625" y2="397.625"/><text fill="#33335B" font-family="sans-serif" font-size="13" lengthAdjust="spacingAndGlyphs" textLength="157" x="34" y="392.5591">new pipeline 1 (@core 1)</text><polygon fill="#4A4A86" points="424,407.625,434,411.625,424,415.625,428,411.625" style="stroke: #4A4A86; stroke-width: 1.0;"/><line style="stroke: #4A4A86; stroke-width: 1.0;" x1="208" x2="430" y1="411.625" y2="411.625"/><polygon fill="#4A4A86" points="662,436.7578,672,440.7578,662,444.7578,666,440.7578" style="stroke: #4A4A86; stroke-width: 1.0;"/><line style="stroke: #4A4A86; stroke-width: 1.0;" x1="446" x2="668" y1="440.7578" y2="440.7578"/><text fill="#33335B" font-family="sans-serif" font-size="13" lengthAdjust="spacingAndGlyphs" textLength="100" x="453" y="435.6919">timer_register()</text><line style="stroke: #4A4A86; stroke-width: 1.0;" x1="446" x2="488" y1="469.8906" y2="469.8906"/><line style="stroke: #4A4A86; stroke-width: 1.0;" x1="488" x2="488" y1="469.8906" y2="482.8906"/><line style="stroke: #4A4A86; stroke-width: 1.0;" x1="447" x2="488" y1="482.8906" y2="482.8906"/><polygon fill="#4A4A86" points="457,478.8906,447,482.8906,457,486.8906,453,482.8906" style="stroke: #4A4A86; stroke-width: 1.0;"/><text fill="#33335B" font-family="sans-serif" font-size="13" lengthAdjust="spacingAndGlyphs" textLength="157" x="453" y="464.8247">work_schedule(ppl 1 dai)</text><polygon fill="#4A4A86" points="219,492.8906,209,496.8906,219,500.8906,215,496.8906" style="stroke: #4A4A86; stroke-width: 1.0;"/><line style="stroke: #4A4A86; stroke-width: 1.0; stroke-dasharray: 2.0,2.0;" x1="213" x2="440" y1="496.8906" y2="496.8906"/><polygon fill="#4A4A86" points="224,522.0234,214,526.0234,224,530.0234,220,526.0234" style="stroke: #4A4A86; stroke-width: 1.0;"/><line style="stroke: #4A4A86; stroke-width: 1.0;" x1="218" x2="673" y1="526.0234" y2="526.0234"/><text fill="#33335B" font-family="sans-serif" font-size="13" lengthAdjust="spacingAndGlyphs" textLength="98" x="230" y="520.9575">cb() @ next ms</text><line style="stroke: #4A4A86; stroke-width: 1.0;" x1="213" x2="260" y1="550.1563" y2="550.1563"/><line style="stroke: #4A4A86; stroke-width: 1.0;" x1="260" x2="260" y1="550.1563" y2="563.1563"/><line style="stroke: #4A4A86; stroke-width: 1.0;" x1="219" x2="260" y1="563.1563" y2="563.1563"/><polygon fill="#4A4A86" points="229,559.1563,219,563.1563,229,567.1563,225,563.1563" style="stroke: #4A4A86; stroke-width: 1.0;"/><text fill="#33335B" font-family="sans-serif" font-size="13" lengthAdjust="spacingAndGlyphs" textLength="83" x="225" y="545.0903">ppl 0 dai cb()</text><line style="stroke: #4A4A86; stroke-width: 1.0;" x1="218" x2="260" y1="597.2891" y2="597.2891"/><line style="stroke: #4A4A86; stroke-width: 1.0;" x1="260" x2="260" y1="597.2891" y2="610.2891"/><line style="stroke: #4A4A86; stroke-width: 1.0;" x1="219" x2="260" y1="610.2891" y2="610.2891"/><polygon fill="#4A4A86" points="229,606.2891,219,610.2891,229,614.2891,225,610.2891" style="stroke: #4A4A86; stroke-width: 1.0;"/><text fill="#33335B" font-family="sans-serif" font-size="13" lengthAdjust="spacingAndGlyphs" textLength="65" x="225" y="592.2231">ppl 0 copy</text><line style="stroke: #4A4A86; stroke-width: 1.0;" x1="218" x2="260" y1="644.4219" y2="644.4219"/><line style="stroke: #4A4A86; stroke-width: 1.0;" x1="260" x2="260" y1="644.4219" y2="657.4219"/><line style="stroke: #4A4A86; stroke-width: 1.0;" x1="213" x2="260" y1="657.4219" y2="657.4219"/><polygon fill="#4A4A86" points="223,653.4219,213,657.4219,223,661.4219,219,657.4219" style="stroke: #4A4A86; stroke-width: 1.0;"/><text fill="#33335B" font-family="sans-serif" font-size="13" lengthAdjust="spacingAndGlyphs" textLength="204" x="225" y="639.356">work_schedule(ppl 0 dai, +1ms)</text><line style="stroke: #4A4A86; stroke-width: 1.0;" x1="446" x2="493" y1="676.5547" y2="676.5547"/><line style="stroke: #4A4A86; stroke-width: 1.0;" x1="493" x2="493" y1="676.5547" y2="689.5547"/><line style="stroke: #4A4A86; stroke-width: 1.0;" x1="452" x2="493" y1="689.5547" y2="689.5547"/><polygon fill="#4A4A86" points="462,685.5547,452,689.5547,462,693.5547,458,689.5547" style="stroke: #4A4A86; stroke-width: 1.0;"/><text fill="#33335B" font-family="sans-serif" font-size="13" lengthAdjust="spacingAndGlyphs" textLength="83" x="458" y="671.4888">ppl 1 dai cb()</text><line style="stroke: #4A4A86; stroke-width: 1.0;" x1="451" x2="493" y1="723.6875" y2="723.6875"/><line style="stroke: #4A4A86; stroke-width: 1.0;" x1="493" x2="493" y1="723.6875" y2="736.6875"/><line style="stroke: #4A4A86; stroke-width: 1.0;" x1="452" x2="493" y1="736.6875" y2="736.6875"/><polygon fill="#4A4A86" points="462,732.6875,452,736.6875,462,740.6875,458,736.6875" style="stroke: #4A4A86; stroke-width: 1.0;"/><text fill="#33335B" font-family="sans-serif" font-size="13" lengthAdjust="spacingAndGlyphs" textLength="65" x="458" y="718.6216">ppl 1 copy</text><line style="stroke: #4A4A86; stroke-width: 1.0;" x1="451" x2="493" y1="770.8203" y2="770.8203"/><line style="stroke: #4A4A86; stroke-width: 1.0;" x1="493" x2="493" y1="770.8203" y2="783.8203"/><line style="stroke: #4A4A86; stroke-width: 1.0;" x1="446" x2="493" y1="783.8203" y2="783.8203"/><polygon fill="#4A4A86" points="456,779.8203,446,783.8203,456,787.8203,452,783.8203" style="stroke: #4A4A86; stroke-width: 1.0;"/><text fill="#33335B" font-family="sans-serif" font-size="13" lengthAdjust="spacingAndGlyphs" textLength="204" x="458" y="765.7544">work_schedule(ppl 1 dai, +1ms)</text><polygon fill="#4A4A86" points="662,803.9531,672,807.9531,662,811.9531,666,807.9531" style="stroke: #4A4A86; stroke-width: 1.0;"/><line style="stroke: #4A4A86; stroke-width: 1.0;" x1="208" x2="668" y1="807.9531" y2="807.9531"/><text fill="#33335B" font-family="sans-serif" font-size="13" lengthAdjust="spacingAndGlyphs" textLength="107" x="215" y="802.8872">work_set_timer()</text><!--MD5=[4614faa7968c0da5c21ea989f568c6cf]
@startuml
hidefootbox
skinparam componentStyle uml2

skinparam defaultFontColor	#33335b

skinparam rectangle {
	color		#d6d6de
	backgroundColor	#ffffff
}

skinparam component {
	backgroundColor	#ffffff
	borderColor	#33335b
	arrowColor	#f05772
}

skinparam interface {
	backgroundColor	#ffffff
	borderColor	#f05772
}

skinparam class {
	backgroundColor	#ffffff
	borderColor	#33335b
	arrowColor	#f05772
}
skinparam stereotypeCBackgroundColor	#6fccdd

skinparam sequence {
	arrowColor		#4a4a86
	lifeLineBorderColor	#f05772
	groupBorderColor	#a1a1ca
	boxBorderColor		#a1a1ca
	dividerBorderColor	#d6d6de
	dividerBorderThickness	1
}
skinparam participant {
	borderColor		#33335b
	backgroundColor		#ffffff
}
skinparam actor {
	borderColor		#33335b
	backgroundColor		#ffffff
}

skinparam state {
	borderColor		#33335b
	backgroundColor		#ffffff
}

skinparam node {
	backgroundColor		#ffffff
}

skinparam note {
	backgroundColor 	#f6ed80
	borderColor		#d6d6de
}
participant ipc
participant "core 0" as core_0
participant "core 1" as core_1
participant wallclk

ipc -> core_0 : new pipeline 0 (@core 0)
   activate core_0
   core_0 -> wallclk : timer_register()
   core_0 -> core_0 : work_schedule(ppl 0 dai, +1ms)
   core_0 -> wallclk : work_set_timer(period = +1ms)
ipc <- - core_0
deactivate core_0

wallclk -> core_0 : cb() @ next ms
   activate core_0
   core_0 -> core_0 : ppl 0 dai cb()
      activate core_0
         core_0 -> core_0 : ppl 0 copy
         core_0 -> core_0 : work_schedule(ppl 0 dai, +1ms)
      deactivate core_0
   core_0 -> wallclk : work_set_timer()
   deactivate core_0

ipc -> core_0 : new pipeline 1 (@core 1)
   core_0 -> core_1
   activate core_1
      core_1 -> wallclk : timer_register()
      core_1 -> core_1 : work_schedule(ppl 1 dai)
   core_0 <- - core_1
   deactivate core_1

wallclk -> core_0 : cb() @ next ms
   activate core_0
   activate core_1
   core_0 -> core_0 : ppl 0 dai cb()
      activate core_0
         core_0 -> core_0 : ppl 0 copy
         core_0 -> core_0 : work_schedule(ppl 0 dai, +1ms)
      deactivate core_0
   core_1 -> core_1 : ppl 1 dai cb()
      activate core_1
         core_1 -> core_1 : ppl 1 copy
         core_1 -> core_1 : work_schedule(ppl 1 dai, +1ms)
      deactivate core_1
   deactivate core_1
   core_0 -> wallclk : work_set_timer()
   deactivate core_0

@enduml

PlantUML version 1.2019.12(Sun Nov 03 10:24:54 UTC 2019)
(GPL source distribution)
Java Runtime: OpenJDK Runtime Environment
JVM: OpenJDK 64-Bit Server VM
Java Version: 11.0.11+9
Operating System: Linux
Default Encoding: UTF-8
Language: en
Country: null
--></g></svg>