<?xml version="1.0" encoding="UTF-8" standalone="no"?><svg xmlns="http://www.w3.org/2000/svg" xmlns:xlink="http://www.w3.org/1999/xlink" contentScriptType="application/ecmascript" contentStyleType="text/css" height="589px" preserveAspectRatio="none" style="width:1837px;height:589px;" version="1.1" viewBox="0 0 1837 589" width="1837px" zoomAndPan="magnify"><defs/><g><text fill="#33335B" font-family="sans-serif" font-size="18" lengthAdjust="spacingAndGlyphs" textLength="322" x="754" y="28.6855">Tasks scheduling on multiple DSP cores</text><line style="stroke: #000000; stroke-width: 1.7;" x1="10" x2="10" y1="32.6406" y2="387.3906"/><line style="stroke: #000000; stroke-width: 1.7;" x1="1820" x2="1820" y1="32.6406" y2="387.3906"/><line style="stroke: #AAAAAA; stroke-width: 0.5; stroke-dasharray: 3.0,5.0;" x1="15" x2="15" y1="32.6406" y2="387.3906"/><line style="stroke: #AAAAAA; stroke-width: 0.5; stroke-dasharray: 3.0,5.0;" x1="315" x2="315" y1="32.6406" y2="387.3906"/><line style="stroke: #AAAAAA; stroke-width: 0.5; stroke-dasharray: 3.0,5.0;" x1="615" x2="615" y1="32.6406" y2="387.3906"/><line style="stroke: #AAAAAA; stroke-width: 0.5; stroke-dasharray: 3.0,5.0;" x1="915" x2="915" y1="32.6406" y2="387.3906"/><line style="stroke: #AAAAAA; stroke-width: 0.5; stroke-dasharray: 3.0,5.0;" x1="1215" x2="1215" y1="32.6406" y2="387.3906"/><line style="stroke: #AAAAAA; stroke-width: 0.5; stroke-dasharray: 3.0,5.0;" x1="1515" x2="1515" y1="32.6406" y2="387.3906"/><line style="stroke: #AAAAAA; stroke-width: 0.5; stroke-dasharray: 3.0,5.0;" x1="1815" x2="1815" y1="32.6406" y2="387.3906"/><text fill="#33335B" font-family="sans-serif" font-size="12" lengthAdjust="spacingAndGlyphs" textLength="42" x="15" y="45.0977">DSP #2</text><line style="stroke: #000000; stroke-width: 1.0;" x1="10" x2="58" y1="48.7344" y2="48.7344"/><line style="stroke: #000000; stroke-width: 1.0;" x1="58" x2="68" y1="48.7344" y2="32.6406"/><polygon fill="#D7E0F2" points="27,86.8281,93,86.8281,105,98.8281,93,110.8281,27,110.8281,15,98.8281" style="stroke: #038048; stroke-width: 1.5;"/><line style="stroke: #038048; stroke-width: 1.5;" x1="105" x2="315" y1="98.8281" y2="98.8281"/><polygon fill="#D7E0F2" points="327,86.8281,393,86.8281,405,98.8281,393,110.8281,327,110.8281,315,98.8281" style="stroke: #038048; stroke-width: 1.5;"/><line style="stroke: #038048; stroke-width: 1.5;" x1="405" x2="615" y1="98.8281" y2="98.8281"/><polygon fill="#D7E0F2" points="627,86.8281,693,86.8281,705,98.8281,693,110.8281,627,110.8281,615,98.8281" style="stroke: #038048; stroke-width: 1.5;"/><polygon fill="#D7E0F2" points="717,86.8281,903,86.8281,915,98.8281,903,110.8281,717,110.8281,705,98.8281" style="stroke: #038048; stroke-width: 1.5;"/><polygon fill="#D7E0F2" points="927,86.8281,993,86.8281,1005,98.8281,993,110.8281,927,110.8281,915,98.8281" style="stroke: #038048; stroke-width: 1.5;"/><polygon fill="#D7E0F2" points="1017,86.8281,1113,86.8281,1125,98.8281,1113,110.8281,1017,110.8281,1005,98.8281" style="stroke: #038048; stroke-width: 1.5;"/><line style="stroke: #038048; stroke-width: 1.5;" x1="1125" x2="1215" y1="98.8281" y2="98.8281"/><polygon fill="#D7E0F2" points="1227,86.8281,1293,86.8281,1305,98.8281,1293,110.8281,1227,110.8281,1215,98.8281" style="stroke: #038048; stroke-width: 1.5;"/><polygon fill="#D7E0F2" points="1317,86.8281,1815,86.8281,1815,110.8281,1317,110.8281,1305,98.8281" style="stroke: #D7E0F2; stroke-width: 1.5;"/><path d="M1815,86.8281 L1317,86.8281 L1305,98.8281 L1317,110.8281 L1815,110.8281 " fill="#D7E0F2" style="stroke: #038048; stroke-width: 1.5;"/><text fill="#33335B" font-family="sans-serif" font-size="12" lengthAdjust="spacingAndGlyphs" textLength="44" x="38" y="103.7383">LL proc.</text><text fill="#33335B" font-family="sans-serif" font-size="12" lengthAdjust="spacingAndGlyphs" textLength="44" x="338" y="103.7383">LL proc.</text><text fill="#33335B" font-family="sans-serif" font-size="12" lengthAdjust="spacingAndGlyphs" textLength="44" x="638" y="103.7383">LL proc.</text><text fill="#33335B" font-family="sans-serif" font-size="12" lengthAdjust="spacingAndGlyphs" textLength="47" x="786.5" y="103.7383">DP proc.</text><text fill="#33335B" font-family="sans-serif" font-size="12" lengthAdjust="spacingAndGlyphs" textLength="44" x="938" y="103.7383">LL proc.</text><text fill="#33335B" font-family="sans-serif" font-size="12" lengthAdjust="spacingAndGlyphs" textLength="47" x="1041.5" y="103.7383">DP proc.</text><text fill="#33335B" font-family="sans-serif" font-size="12" lengthAdjust="spacingAndGlyphs" textLength="44" x="1238" y="103.7383">LL proc.</text><text fill="#33335B" font-family="sans-serif" font-size="12" lengthAdjust="spacingAndGlyphs" textLength="47" x="1317" y="103.7383">DP proc.</text><line style="stroke: #FF0000; stroke-width: 1.0;" x1="15" x2="315" y1="77.8281" y2="77.8281"/><polygon fill="#FF0000" points="22.5175,75.092,22.5175,80.5643,15,77.8281" style="stroke: #FF0000; stroke-width: 1.0;"/><polygon fill="#FF0000" points="307.4825,80.5643,307.4825,75.092,315,77.8281" style="stroke: #FF0000; stroke-width: 1.0;"/><text fill="#000000" font-family="Serif" font-size="14" lengthAdjust="spacingAndGlyphs" textLength="190" x="70" y="69.752">DSP#2 LL schedule period (1ms)</text><line style="stroke: #FF0000; stroke-width: 1.0;" x1="705" x2="1305" y1="77.8281" y2="77.8281"/><polygon fill="#FF0000" points="712.5175,75.092,712.5175,80.5643,705,77.8281" style="stroke: #FF0000; stroke-width: 1.0;"/><polygon fill="#FF0000" points="1297.4825,80.5643,1297.4825,75.092,1305,77.8281" style="stroke: #FF0000; stroke-width: 1.0;"/><text fill="#000000" font-family="Serif" font-size="14" lengthAdjust="spacingAndGlyphs" textLength="192" x="909" y="69.752">DSP#2 DP schedule period (2ms)</text><line style="stroke: #000000; stroke-width: 1.7;" x1="10" x2="1820" y1="32.6406" y2="32.6406"/><text fill="#33335B" font-family="sans-serif" font-size="12" lengthAdjust="spacingAndGlyphs" textLength="42" x="15" y="141.2852">DSP #1</text><line style="stroke: #000000; stroke-width: 1.0;" x1="10" x2="58" y1="144.9219" y2="144.9219"/><line style="stroke: #000000; stroke-width: 1.0;" x1="58" x2="68" y1="144.9219" y2="128.8281"/><line style="stroke: #038048; stroke-width: 1.5;" x1="15" x2="315" y1="195.0156" y2="195.0156"/><polygon fill="#D7E0F2" points="327,183.0156,483,183.0156,495,195.0156,483,207.0156,327,207.0156,315,195.0156" style="stroke: #038048; stroke-width: 1.5;"/><line style="stroke: #038048; stroke-width: 1.5;" x1="495" x2="615" y1="195.0156" y2="195.0156"/><polygon fill="#D7E0F2" points="627,183.0156,783,183.0156,795,195.0156,783,207.0156,627,207.0156,615,195.0156" style="stroke: #038048; stroke-width: 1.5;"/><line style="stroke: #038048; stroke-width: 1.5;" x1="795" x2="915" y1="195.0156" y2="195.0156"/><polygon fill="#D7E0F2" points="927,183.0156,1083,183.0156,1095,195.0156,1083,207.0156,927,207.0156,915,195.0156" style="stroke: #038048; stroke-width: 1.5;"/><line style="stroke: #038048; stroke-width: 1.5;" x1="1095" x2="1215" y1="195.0156" y2="195.0156"/><polygon fill="#D7E0F2" points="1227,183.0156,1383,183.0156,1395,195.0156,1383,207.0156,1227,207.0156,1215,195.0156" style="stroke: #038048; stroke-width: 1.5;"/><line style="stroke: #038048; stroke-width: 1.5;" x1="1395" x2="1515" y1="195.0156" y2="195.0156"/><line style="stroke: #038048; stroke-width: 1.5;" x1="1515" x2="1815" y1="195.0156" y2="195.0156"/><text fill="#33335B" font-family="sans-serif" font-size="12" lengthAdjust="spacingAndGlyphs" textLength="47" x="381.5" y="199.9258">DP proc.</text><text fill="#33335B" font-family="sans-serif" font-size="12" lengthAdjust="spacingAndGlyphs" textLength="47" x="681.5" y="199.9258">DP proc.</text><text fill="#33335B" font-family="sans-serif" font-size="12" lengthAdjust="spacingAndGlyphs" textLength="47" x="981.5" y="199.9258">DP proc.</text><text fill="#33335B" font-family="sans-serif" font-size="12" lengthAdjust="spacingAndGlyphs" textLength="47" x="1281.5" y="199.9258">DP proc.</text><line style="stroke: #FF0000; stroke-width: 1.0;" x1="15" x2="315" y1="174.0156" y2="174.0156"/><polygon fill="#FF0000" points="22.5175,171.2795,22.5175,176.7518,15,174.0156" style="stroke: #FF0000; stroke-width: 1.0;"/><polygon fill="#FF0000" points="307.4825,176.7518,307.4825,171.2795,315,174.0156" style="stroke: #FF0000; stroke-width: 1.0;"/><text fill="#000000" font-family="Serif" font-size="14" lengthAdjust="spacingAndGlyphs" textLength="286" x="22" y="165.9395">delay one period (waiting for first DSP#0 LL data)</text><line style="stroke: #FF0000; stroke-width: 1.0;" x1="315" x2="615" y1="174.0156" y2="174.0156"/><polygon fill="#FF0000" points="322.5175,171.2795,322.5175,176.7518,315,174.0156" style="stroke: #FF0000; stroke-width: 1.0;"/><polygon fill="#FF0000" points="607.4825,176.7518,607.4825,171.2795,615,174.0156" style="stroke: #FF0000; stroke-width: 1.0;"/><text fill="#000000" font-family="Serif" font-size="14" lengthAdjust="spacingAndGlyphs" textLength="192" x="369" y="165.9395">DSP#1 DP schedule period (1ms)</text><line style="stroke: #000000; stroke-width: 1.7;" x1="10" x2="1820" y1="128.8281" y2="128.8281"/><text fill="#33335B" font-family="sans-serif" font-size="12" lengthAdjust="spacingAndGlyphs" textLength="42" x="15" y="237.4727">DSP #0</text><line style="stroke: #000000; stroke-width: 1.0;" x1="10" x2="58" y1="241.1094" y2="241.1094"/><line style="stroke: #000000; stroke-width: 1.0;" x1="58" x2="68" y1="241.1094" y2="225.0156"/><polygon fill="#D7E0F2" points="27,279.2031,153,279.2031,165,291.2031,153,303.2031,27,303.2031,15,291.2031" style="stroke: #038048; stroke-width: 1.5;"/><line style="stroke: #038048; stroke-width: 1.5;" x1="165" x2="315" y1="291.2031" y2="291.2031"/><polygon fill="#D7E0F2" points="327,279.2031,453,279.2031,465,291.2031,453,303.2031,327,303.2031,315,291.2031" style="stroke: #038048; stroke-width: 1.5;"/><line style="stroke: #038048; stroke-width: 1.5;" x1="465" x2="615" y1="291.2031" y2="291.2031"/><polygon fill="#D7E0F2" points="627,279.2031,753,279.2031,765,291.2031,753,303.2031,627,303.2031,615,291.2031" style="stroke: #038048; stroke-width: 1.5;"/><line style="stroke: #038048; stroke-width: 1.5;" x1="765" x2="915" y1="291.2031" y2="291.2031"/><polygon fill="#D7E0F2" points="927,279.2031,1053,279.2031,1065,291.2031,1053,303.2031,927,303.2031,915,291.2031" style="stroke: #038048; stroke-width: 1.5;"/><line style="stroke: #038048; stroke-width: 1.5;" x1="1065" x2="1215" y1="291.2031" y2="291.2031"/><polygon fill="#D7E0F2" points="1227,279.2031,1353,279.2031,1365,291.2031,1353,303.2031,1227,303.2031,1215,291.2031" style="stroke: #038048; stroke-width: 1.5;"/><line style="stroke: #038048; stroke-width: 1.5;" x1="1365" x2="1815" y1="291.2031" y2="291.2031"/><text fill="#33335B" font-family="sans-serif" font-size="12" lengthAdjust="spacingAndGlyphs" textLength="44" x="68" y="296.1133">LL proc.</text><text fill="#33335B" font-family="sans-serif" font-size="12" lengthAdjust="spacingAndGlyphs" textLength="44" x="368" y="296.1133">LL proc.</text><text fill="#33335B" font-family="sans-serif" font-size="12" lengthAdjust="spacingAndGlyphs" textLength="44" x="668" y="296.1133">LL proc.</text><text fill="#33335B" font-family="sans-serif" font-size="12" lengthAdjust="spacingAndGlyphs" textLength="44" x="968" y="296.1133">LL proc.</text><text fill="#33335B" font-family="sans-serif" font-size="12" lengthAdjust="spacingAndGlyphs" textLength="44" x="1268" y="296.1133">LL proc.</text><line style="stroke: #FF0000; stroke-width: 1.0;" x1="15" x2="315" y1="270.2031" y2="270.2031"/><polygon fill="#FF0000" points="22.5175,267.467,22.5175,272.9393,15,270.2031" style="stroke: #FF0000; stroke-width: 1.0;"/><polygon fill="#FF0000" points="307.4825,272.9393,307.4825,267.467,315,270.2031" style="stroke: #FF0000; stroke-width: 1.0;"/><text fill="#000000" font-family="Serif" font-size="14" lengthAdjust="spacingAndGlyphs" textLength="190" x="70" y="262.127">DSP#0 LL schedule period (1ms)</text><line style="stroke: #000000; stroke-width: 1.7;" x1="10" x2="1820" y1="225.0156" y2="225.0156"/><text fill="#33335B" font-family="sans-serif" font-size="12" lengthAdjust="spacingAndGlyphs" textLength="80" x="15" y="333.6602">Timer interrupt</text><line style="stroke: #000000; stroke-width: 1.0;" x1="10" x2="96" y1="337.2969" y2="337.2969"/><line style="stroke: #000000; stroke-width: 1.0;" x1="96" x2="106" y1="337.2969" y2="321.2031"/><line style="stroke: #000000; stroke-width: 1.7;" x1="10" x2="1820" y1="321.2031" y2="321.2031"/><line style="stroke: #000000; stroke-width: 2.0;" x1="15" x2="15" y1="387.3906" y2="392.3906"/><line style="stroke: #000000; stroke-width: 2.0;" x1="315" x2="315" y1="387.3906" y2="392.3906"/><line style="stroke: #000000; stroke-width: 2.0;" x1="615" x2="615" y1="387.3906" y2="392.3906"/><line style="stroke: #000000; stroke-width: 2.0;" x1="915" x2="915" y1="387.3906" y2="392.3906"/><line style="stroke: #000000; stroke-width: 2.0;" x1="1215" x2="1215" y1="387.3906" y2="392.3906"/><line style="stroke: #000000; stroke-width: 2.0;" x1="1515" x2="1515" y1="387.3906" y2="392.3906"/><line style="stroke: #000000; stroke-width: 2.0;" x1="1815" x2="1815" y1="387.3906" y2="392.3906"/><line style="stroke: #000000; stroke-width: 2.0;" x1="15" x2="1815" y1="387.3906" y2="387.3906"/><text fill="#33335B" font-family="sans-serif" font-size="12" lengthAdjust="spacingAndGlyphs" textLength="7" x="11.5" y="405.8477">0</text><text fill="#33335B" font-family="sans-serif" font-size="12" lengthAdjust="spacingAndGlyphs" textLength="7" x="311.5" y="405.8477">1</text><text fill="#33335B" font-family="sans-serif" font-size="12" lengthAdjust="spacingAndGlyphs" textLength="7" x="611.5" y="405.8477">2</text><text fill="#33335B" font-family="sans-serif" font-size="12" lengthAdjust="spacingAndGlyphs" textLength="7" x="911.5" y="405.8477">3</text><text fill="#33335B" font-family="sans-serif" font-size="12" lengthAdjust="spacingAndGlyphs" textLength="7" x="1211.5" y="405.8477">4</text><text fill="#33335B" font-family="sans-serif" font-size="12" lengthAdjust="spacingAndGlyphs" textLength="7" x="1511.5" y="405.8477">5</text><text fill="#33335B" font-family="sans-serif" font-size="12" lengthAdjust="spacingAndGlyphs" textLength="7" x="1811.5" y="405.8477">6</text><line style="stroke: #9400D3; stroke-width: 1.0;" x1="15" x2="15" y1="345.3906" y2="291.2031"/><polygon fill="#9400D3" points="17.7362,298.7207,12.2638,298.7207,15,291.2031" style="stroke: #9400D3; stroke-width: 1.0;"/><line style="stroke: #9400D3; stroke-width: 1.0;" x1="15" x2="15" y1="345.3906" y2="195.0156"/><polygon fill="#9400D3" points="17.7362,202.5332,12.2638,202.5332,15,195.0156" style="stroke: #9400D3; stroke-width: 1.0;"/><line style="stroke: #9400D3; stroke-width: 1.0;" x1="15" x2="15" y1="345.3906" y2="98.8281"/><polygon fill="#9400D3" points="17.7362,106.3457,12.2638,106.3457,15,98.8281" style="stroke: #9400D3; stroke-width: 1.0;"/><line style="stroke: #9400D3; stroke-width: 1.0;" x1="315" x2="315" y1="345.3906" y2="291.2031"/><polygon fill="#9400D3" points="317.7362,298.7207,312.2638,298.7207,315,291.2031" style="stroke: #9400D3; stroke-width: 1.0;"/><line style="stroke: #9400D3; stroke-width: 1.0;" x1="315" x2="315" y1="345.3906" y2="195.0156"/><polygon fill="#9400D3" points="317.7362,202.5332,312.2638,202.5332,315,195.0156" style="stroke: #9400D3; stroke-width: 1.0;"/><line style="stroke: #9400D3; stroke-width: 1.0;" x1="315" x2="315" y1="345.3906" y2="98.8281"/><polygon fill="#9400D3" points="317.7362,106.3457,312.2638,106.3457,315,98.8281" style="stroke: #9400D3; stroke-width: 1.0;"/><line style="stroke: #9400D3; stroke-width: 1.0;" x1="615" x2="615" y1="345.3906" y2="291.2031"/><polygon fill="#9400D3" points="617.7362,298.7207,612.2638,298.7207,615,291.2031" style="stroke: #9400D3; stroke-width: 1.0;"/><line style="stroke: #9400D3; stroke-width: 1.0;" x1="615" x2="615" y1="345.3906" y2="195.0156"/><polygon fill="#9400D3" points="617.7362,202.5332,612.2638,202.5332,615,195.0156" style="stroke: #9400D3; stroke-width: 1.0;"/><line style="stroke: #9400D3; stroke-width: 1.0;" x1="615" x2="615" y1="345.3906" y2="98.8281"/><polygon fill="#9400D3" points="617.7362,106.3457,612.2638,106.3457,615,98.8281" style="stroke: #9400D3; stroke-width: 1.0;"/><line style="stroke: #9400D3; stroke-width: 1.0;" x1="915" x2="915" y1="345.3906" y2="291.2031"/><polygon fill="#9400D3" points="917.7362,298.7207,912.2638,298.7207,915,291.2031" style="stroke: #9400D3; stroke-width: 1.0;"/><line style="stroke: #9400D3; stroke-width: 1.0;" x1="915" x2="915" y1="345.3906" y2="195.0156"/><polygon fill="#9400D3" points="917.7362,202.5332,912.2638,202.5332,915,195.0156" style="stroke: #9400D3; stroke-width: 1.0;"/><line style="stroke: #9400D3; stroke-width: 1.0;" x1="915" x2="915" y1="345.3906" y2="98.8281"/><polygon fill="#9400D3" points="917.7362,106.3457,912.2638,106.3457,915,98.8281" style="stroke: #9400D3; stroke-width: 1.0;"/><line style="stroke: #9400D3; stroke-width: 1.0;" x1="1215" x2="1215" y1="345.3906" y2="291.2031"/><polygon fill="#9400D3" points="1217.7362,298.7207,1212.2638,298.7207,1215,291.2031" style="stroke: #9400D3; stroke-width: 1.0;"/><line style="stroke: #9400D3; stroke-width: 1.0;" x1="1215" x2="1215" y1="345.3906" y2="195.0156"/><polygon fill="#9400D3" points="1217.7362,202.5332,1212.2638,202.5332,1215,195.0156" style="stroke: #9400D3; stroke-width: 1.0;"/><line style="stroke: #9400D3; stroke-width: 1.0;" x1="1215" x2="1215" y1="345.3906" y2="98.8281"/><polygon fill="#9400D3" points="1217.7362,106.3457,1212.2638,106.3457,1215,98.8281" style="stroke: #9400D3; stroke-width: 1.0;"/><rect fill="#DDDDDD" height="168.4844" rx="5" ry="5" style="stroke: #000000; stroke-width: 1.0;" width="745" x="542" y="410.4844"/><text fill="#33335B" font-family="sans-serif" font-size="14" lengthAdjust="spacingAndGlyphs" textLength="84" x="548" y="430.0176">Assumptions:</text><text fill="#33335B" font-family="sans-serif" font-size="14" lengthAdjust="spacingAndGlyphs" textLength="116" x="548" y="447.627">1) 1ms system tick</text><text fill="#33335B" font-family="sans-serif" font-size="14" lengthAdjust="spacingAndGlyphs" textLength="0" x="552" y="465.2363"/><text fill="#33335B" font-family="sans-serif" font-size="14" lengthAdjust="spacingAndGlyphs" textLength="40" x="548" y="482.8457">Notes:</text><text fill="#33335B" font-family="sans-serif" font-size="14" lengthAdjust="spacingAndGlyphs" textLength="393" x="548" y="500.4551">2) Core #0 has only LL tasks assigned schedule in 1ms period</text><text fill="#33335B" font-family="sans-serif" font-size="14" lengthAdjust="spacingAndGlyphs" textLength="677" x="548" y="518.0645">3) Core #1 has one DP task assigned that is dependent on Core #0 LL tasks data, scheduled in 1ms period</text><text fill="#33335B" font-family="sans-serif" font-size="14" lengthAdjust="spacingAndGlyphs" textLength="430" x="548" y="535.6738">(e.g. multicore pipeline with DP module scheduled on separate core)</text><text fill="#33335B" font-family="sans-serif" font-size="14" lengthAdjust="spacingAndGlyphs" textLength="549" x="548" y="553.2832">4) Core #2 has LL tasks scheduled in 1ms period and DP task scheduled in 2ms period</text><text fill="#33335B" font-family="sans-serif" font-size="14" lengthAdjust="spacingAndGlyphs" textLength="733" x="548" y="570.8926">(e.g. pipeline processing with LL and DP components components where DP component has 2ms scheduling period)</text><!--MD5=[14de972702e8ebdb0618d635ab99288b]
@startuml
hidefootbox
skinparam componentStyle uml2

skinparam defaultFontColor	#33335b

skinparam rectangle {
	color		#d6d6de
	backgroundColor	#ffffff
}

skinparam component {
	backgroundColor	#ffffff
	borderColor	#33335b
	arrowColor	#f05772
}

skinparam interface {
	backgroundColor	#ffffff
	borderColor	#f05772
}

skinparam class {
	backgroundColor	#ffffff
	borderColor	#33335b
	arrowColor	#f05772
}
skinparam stereotypeCBackgroundColor	#6fccdd

skinparam sequence {
	arrowColor		#4a4a86
	lifeLineBorderColor	#f05772
	groupBorderColor	#a1a1ca
	boxBorderColor		#a1a1ca
	dividerBorderColor	#d6d6de
	dividerBorderThickness	1
}
skinparam participant {
	borderColor		#33335b
	backgroundColor		#ffffff
}
skinparam actor {
	borderColor		#33335b
	backgroundColor		#ffffff
}

skinparam state {
	borderColor		#33335b
	backgroundColor		#ffffff
}

skinparam node {
	backgroundColor		#ffffff
}

skinparam note {
	backgroundColor 	#f6ed80
	borderColor		#d6d6de
}

Title Tasks scheduling on multiple DSP cores

legend
Assumptions:
1) 1ms system tick

Notes:
2) Core #0 has only LL tasks assigned schedule in 1ms period
3) Core #1 has one DP task assigned that is dependent on Core #0 LL tasks data, scheduled in 1ms period
(e.g. multicore pipeline with DP module scheduled on separate core)
4) Core #2 has LL tasks scheduled in 1ms period and DP task scheduled in 2ms period
(e.g. pipeline processing with LL and DP components components where DP component has 2ms scheduling period)
end legend

scale 1 as 300 pixels

concise "DSP #2" as DSP_2
concise "DSP #1" as DSP_1
concise "DSP #0" as DSP_0

concise "Timer interrupt" as Interrupt

@DSP_0
0 is "LL proc."
0.5 is {-}

1 is "LL proc."
1.5 is {-}

2 is "LL proc."
2.5 is {-}

3 is "LL proc."
3.5 is {-}

4 is "LL proc."
4.5 is {-}

@0 <-> @1: DSP#0 LL schedule period (1ms)

@DSP_1
0 is {-}

1 is "DP proc."
1.6 is {-}

2 is "DP proc."
2.6 is {-}

3 is "DP proc."
3.6 is {-}

4 is "DP proc."
4.6 is {-}
5 is {-}

@0 <-> @1: delay one period (waiting for first DSP#0 LL data)
@1 <-> @2: DSP#1 DP schedule period (1ms)

@DSP_2

0 is "LL proc."
0.3 is {-}

1 is "LL proc."
1.3 is {-}

2 is "LL proc."
2.3 is "DP proc."

3 is "LL proc."
3.3 is "DP proc."
3.7 is {-}

4 is "LL proc."
4.3 is "DP proc."

@0 <-> @1: DSP#2 LL schedule period (1ms)
@2.3 <-> @4.3: DSP#2 DP schedule period (2ms)

@0
Interrupt -[#DarkViolet]> DSP_0
Interrupt -[#DarkViolet]> DSP_1
Interrupt -[#DarkViolet]> DSP_2

@1
Interrupt -[#DarkViolet]> DSP_0
Interrupt -[#DarkViolet]> DSP_1
Interrupt -[#DarkViolet]> DSP_2

@2
Interrupt -[#DarkViolet]> DSP_0
Interrupt -[#DarkViolet]> DSP_1
Interrupt -[#DarkViolet]> DSP_2

@3
Interrupt -[#DarkViolet]> DSP_0
Interrupt -[#DarkViolet]> DSP_1
Interrupt -[#DarkViolet]> DSP_2

@4
Interrupt -[#DarkViolet]> DSP_0
Interrupt -[#DarkViolet]> DSP_1
Interrupt -[#DarkViolet]> DSP_2

@enduml

PlantUML version 1.2019.12(Sun Nov 03 11:24:54 CET 2019)
(GPL source distribution)
Java Runtime: OpenJDK Runtime Environment
JVM: OpenJDK 64-Bit Server VM
Java Version: 1.8.0_302-b08
Operating System: Windows 10
Default Encoding: Cp1252
Language: en
Country: US
--></g></svg>