<?xml version="1.0" encoding="UTF-8" standalone="no"?><svg xmlns="http://www.w3.org/2000/svg" xmlns:xlink="http://www.w3.org/1999/xlink" contentScriptType="application/ecmascript" contentStyleType="text/css" height="948px" preserveAspectRatio="none" style="width:1316px;height:948px;" version="1.1" viewBox="0 0 1316 948" width="1316px" zoomAndPan="magnify"><defs><filter height="300%" id="f11b7ah522tz3a" width="300%" x="-1" y="-1"><feGaussianBlur result="blurOut" stdDeviation="2.0"/><feColorMatrix in="blurOut" result="blurOut2" type="matrix" values="0 0 0 0 0 0 0 0 0 0 0 0 0 0 0 0 0 0 .4 0"/><feOffset dx="4.0" dy="4.0" in="blurOut2" result="blurOut3"/><feBlend in="SourceGraphic" in2="blurOut3" mode="normal"/></filter></defs><g><rect fill="#90EE90" height="926.75" style="stroke: #A1A1CA; stroke-width: 1.0;" width="66" x="8" y="4"/><text fill="#33335B" font-family="sans-serif" font-size="13" font-weight="bold" lengthAdjust="spacingAndGlyphs" textLength="34" x="24" y="16.0669">Host</text><rect fill="#87CEFA" height="926.75" style="stroke: #A1A1CA; stroke-width: 1.0;" width="736.5" x="126" y="4"/><text fill="#33335B" font-family="sans-serif" font-size="13" font-weight="bold" lengthAdjust="spacingAndGlyphs" textLength="248" x="370.25" y="16.0669">Media Processing Pipelines Layer</text><rect fill="#ADD8E6" height="926.75" style="stroke: #A1A1CA; stroke-width: 1.0;" width="220" x="872.5" y="4"/><text fill="#33335B" font-family="sans-serif" font-size="13" font-weight="bold" lengthAdjust="spacingAndGlyphs" textLength="95" x="935" y="16.0669">Zephyr RTOS</text><rect fill="#D3D3D3" height="926.75" style="stroke: #A1A1CA; stroke-width: 1.0;" width="81" x="1129" y="4"/><text fill="#33335B" font-family="sans-serif" font-size="13" font-weight="bold" lengthAdjust="spacingAndGlyphs" textLength="72" x="1133.5" y="16.0669">Hardware</text><rect fill="#FFFFFF" filter="url(#f11b7ah522tz3a)" height="677.3906" style="stroke: #F05772; stroke-width: 1.0;" width="10" x="207" y="250.3594"/><rect fill="#FFFFFF" filter="url(#f11b7ah522tz3a)" height="87.3984" style="stroke: #F05772; stroke-width: 1.0;" width="10" x="378" y="89.5625"/><rect fill="#FFFFFF" filter="url(#f11b7ah522tz3a)" height="551.9922" style="stroke: #F05772; stroke-width: 1.0;" width="10" x="378" y="303.625"/><rect fill="#FFFFFF" filter="url(#f11b7ah522tz3a)" height="29.1328" style="stroke: #F05772; stroke-width: 1.0;" width="10" x="768" y="133.8281"/><rect fill="#FFFFFF" filter="url(#f11b7ah522tz3a)" height="116.3984" style="stroke: #F05772; stroke-width: 1.0;" width="10" x="977.5" y="399.0234"/><rect fill="#FFFFFF" filter="url(#f11b7ah522tz3a)" height="14" style="stroke: #F05772; stroke-width: 1.0;" width="10" x="977.5" y="643.9531"/><rect fill="#FFFFFF" filter="url(#f11b7ah522tz3a)" height="116.3984" style="stroke: #F05772; stroke-width: 1.0;" width="10" x="977.5" y="718.2188"/><rect fill="#FFFFFF" filter="url(#f11b7ah522tz3a)" height="598.2578" style="stroke: #A1A1CA; stroke-width: 2.0;" width="1185.5" x="120" y="265.3594"/><rect fill="#FFFFFF" filter="url(#f11b7ah522tz3a)" height="347.3281" style="stroke: #A1A1CA; stroke-width: 2.0;" width="985.5" x="310" y="318.625"/><rect fill="#FFFFFF" filter="url(#f11b7ah522tz3a)" height="46.2656" style="stroke: #A1A1CA; stroke-width: 2.0;" width="419" x="866.5" y="456.1563"/><rect fill="#FFFFFF" filter="url(#f11b7ah522tz3a)" height="162.6641" style="stroke: #A1A1CA; stroke-width: 2.0;" width="985.5" x="310" y="679.9531"/><rect fill="#FFFFFF" filter="url(#f11b7ah522tz3a)" height="46.2656" style="stroke: #A1A1CA; stroke-width: 2.0;" width="419" x="866.5" y="775.3516"/><line style="stroke: #F05772; stroke-width: 1.0; stroke-dasharray: 5.0,5.0;" x1="41" x2="41" y1="58.4297" y2="936.75"/><line style="stroke: #F05772; stroke-width: 1.0; stroke-dasharray: 5.0,5.0;" x1="212" x2="212" y1="58.4297" y2="936.75"/><line style="stroke: #F05772; stroke-width: 1.0; stroke-dasharray: 5.0,5.0;" x1="383" x2="383" y1="58.4297" y2="936.75"/><line style="stroke: #F05772; stroke-width: 1.0; stroke-dasharray: 5.0,5.0;" x1="772.5" x2="772.5" y1="58.4297" y2="936.75"/><line style="stroke: #F05772; stroke-width: 1.0; stroke-dasharray: 5.0,5.0;" x1="982.5" x2="982.5" y1="58.4297" y2="936.75"/><line style="stroke: #F05772; stroke-width: 1.0; stroke-dasharray: 5.0,5.0;" x1="1169" x2="1169" y1="58.4297" y2="936.75"/><rect fill="#FFFFFF" filter="url(#f11b7ah522tz3a)" height="30.2969" style="stroke: #33335B; stroke-width: 1.5;" width="54" x="12" y="23.1328"/><text fill="#33335B" font-family="sans-serif" font-size="14" lengthAdjust="spacingAndGlyphs" textLength="40" x="19" y="43.1279">Driver</text><rect fill="#FFFFFF" filter="url(#f11b7ah522tz3a)" height="30.2969" style="stroke: #33335B; stroke-width: 1.5;" width="160" x="130" y="23.1328"/><text fill="#33335B" font-family="sans-serif" font-size="14" lengthAdjust="spacingAndGlyphs" textLength="146" x="137" y="43.1279">Component Manager</text><rect fill="#FFFFFF" filter="url(#f11b7ah522tz3a)" height="30.2969" style="stroke: #33335B; stroke-width: 1.5;" width="122" x="320" y="23.1328"/><text fill="#33335B" font-family="sans-serif" font-size="14" lengthAdjust="spacingAndGlyphs" textLength="108" x="327" y="43.1279">Library Manager</text><rect fill="#FFFFFF" filter="url(#f11b7ah522tz3a)" height="30.2969" style="stroke: #33335B; stroke-width: 1.5;" width="167" x="687.5" y="23.1328"/><text fill="#33335B" font-family="sans-serif" font-size="14" lengthAdjust="spacingAndGlyphs" textLength="153" x="694.5" y="43.1279">MPP Memory Manager</text><rect fill="#FFFFFF" filter="url(#f11b7ah522tz3a)" height="30.2969" style="stroke: #33335B; stroke-width: 1.5;" width="208" x="876.5" y="23.1328"/><text fill="#33335B" font-family="sans-serif" font-size="14" lengthAdjust="spacingAndGlyphs" textLength="194" x="883.5" y="43.1279">Memory Management Driver</text><rect fill="#FFFFFF" filter="url(#f11b7ah522tz3a)" height="30.2969" style="stroke: #33335B; stroke-width: 1.5;" width="69" x="1133" y="23.1328"/><text fill="#33335B" font-family="sans-serif" font-size="14" lengthAdjust="spacingAndGlyphs" textLength="55" x="1140" y="43.1279">Memory</text><rect fill="#FFFFFF" filter="url(#f11b7ah522tz3a)" height="677.3906" style="stroke: #F05772; stroke-width: 1.0;" width="10" x="207" y="250.3594"/><rect fill="#FFFFFF" filter="url(#f11b7ah522tz3a)" height="87.3984" style="stroke: #F05772; stroke-width: 1.0;" width="10" x="378" y="89.5625"/><rect fill="#FFFFFF" filter="url(#f11b7ah522tz3a)" height="551.9922" style="stroke: #F05772; stroke-width: 1.0;" width="10" x="378" y="303.625"/><rect fill="#FFFFFF" filter="url(#f11b7ah522tz3a)" height="29.1328" style="stroke: #F05772; stroke-width: 1.0;" width="10" x="768" y="133.8281"/><rect fill="#FFFFFF" filter="url(#f11b7ah522tz3a)" height="116.3984" style="stroke: #F05772; stroke-width: 1.0;" width="10" x="977.5" y="399.0234"/><rect fill="#FFFFFF" filter="url(#f11b7ah522tz3a)" height="14" style="stroke: #F05772; stroke-width: 1.0;" width="10" x="977.5" y="643.9531"/><rect fill="#FFFFFF" filter="url(#f11b7ah522tz3a)" height="116.3984" style="stroke: #F05772; stroke-width: 1.0;" width="10" x="977.5" y="718.2188"/><polygon fill="#F05772" points="366,85.5625,376,89.5625,366,93.5625,370,89.5625" style="stroke: #F05772; stroke-width: 1.0;"/><line style="stroke: #F05772; stroke-width: 1.0;" x1="41" x2="372" y1="89.5625" y2="89.5625"/><text fill="#33335B" font-family="sans-serif" font-size="13" lengthAdjust="spacingAndGlyphs" textLength="78" x="48" y="84.4966">Load Library</text><polygon fill="#F05772" points="756,129.8281,766,133.8281,756,137.8281,760,133.8281" style="stroke: #F05772; stroke-width: 1.0;"/><line style="stroke: #F05772; stroke-width: 1.0;" x1="388" x2="762" y1="133.8281" y2="133.8281"/><text fill="#33335B" font-family="sans-serif" font-size="13" lengthAdjust="spacingAndGlyphs" textLength="361" x="395" y="113.6294">rmalloc(MEM_ZONE_RUNTIME, flags=NULL, MEM_CAPS_</text><text fill="#33335B" font-family="sans-serif" font-size="13" lengthAdjust="spacingAndGlyphs" textLength="165" x="395" y="128.7622">LOADABLE_LIBRARY, size)</text><polygon fill="#F05772" points="399,158.9609,389,162.9609,399,166.9609,395,162.9609" style="stroke: #F05772; stroke-width: 1.0;"/><line style="stroke: #F05772; stroke-width: 1.0; stroke-dasharray: 2.0,2.0;" x1="393" x2="772" y1="162.9609" y2="162.9609"/><text fill="#33335B" font-family="sans-serif" font-size="13" lengthAdjust="spacingAndGlyphs" textLength="148" x="405" y="157.895">address to store library</text><polygon fill="#F05772" points="52,172.9609,42,176.9609,52,180.9609,48,176.9609" style="stroke: #F05772; stroke-width: 1.0;"/><line style="stroke: #F05772; stroke-width: 1.0; stroke-dasharray: 2.0,2.0;" x1="46" x2="382" y1="176.9609" y2="176.9609"/><polygon fill="#F05772" points="371,217.2266,381,221.2266,371,225.2266,375,221.2266" style="stroke: #F05772; stroke-width: 1.0;"/><line style="stroke: #F05772; stroke-width: 1.0;" x1="41" x2="377" y1="221.2266" y2="221.2266"/><text fill="#33335B" font-family="sans-serif" font-size="13" lengthAdjust="spacingAndGlyphs" textLength="161" x="48" y="201.0278">Transfer library over DMA</text><text fill="#33335B" font-family="sans-serif" font-size="13" lengthAdjust="spacingAndGlyphs" textLength="106" x="48" y="216.1606">to given address</text><polygon fill="#F05772" points="195,246.3594,205,250.3594,195,254.3594,199,250.3594" style="stroke: #F05772; stroke-width: 1.0;"/><line style="stroke: #F05772; stroke-width: 1.0;" x1="41" x2="201" y1="250.3594" y2="250.3594"/><text fill="#33335B" font-family="sans-serif" font-size="13" lengthAdjust="spacingAndGlyphs" textLength="147" x="48" y="245.2935">Instantiate Component</text><path d="M120,265.3594 L190,265.3594 L190,272.3594 L180,282.3594 L120,282.3594 L120,265.3594 " fill="#EEEEEE" style="stroke: #A1A1CA; stroke-width: 1.0;"/><rect fill="none" height="598.2578" style="stroke: #A1A1CA; stroke-width: 2.0;" width="1185.5" x="120" y="265.3594"/><text fill="#33335B" font-family="sans-serif" font-size="13" font-weight="bold" lengthAdjust="spacingAndGlyphs" textLength="25" x="135" y="278.4263">opt</text><text fill="#33335B" font-family="sans-serif" font-size="11" font-weight="bold" lengthAdjust="spacingAndGlyphs" textLength="319" x="205" y="277.5698">[if Component is Loadable and it is first instance]</text><polygon fill="#F05772" points="366,299.625,376,303.625,366,307.625,370,303.625" style="stroke: #F05772; stroke-width: 1.0;"/><line style="stroke: #F05772; stroke-width: 1.0;" x1="217" x2="372" y1="303.625" y2="303.625"/><text fill="#33335B" font-family="sans-serif" font-size="13" lengthAdjust="spacingAndGlyphs" textLength="108" x="224" y="298.5591">Load component</text><path d="M310,318.625 L387,318.625 L387,325.625 L377,335.625 L310,335.625 L310,318.625 " fill="#EEEEEE" style="stroke: #A1A1CA; stroke-width: 1.0;"/><rect fill="none" height="347.3281" style="stroke: #A1A1CA; stroke-width: 2.0;" width="985.5" x="310" y="318.625"/><text fill="#33335B" font-family="sans-serif" font-size="13" font-weight="bold" lengthAdjust="spacingAndGlyphs" textLength="32" x="325" y="331.6919">loop</text><text fill="#33335B" font-family="sans-serif" font-size="11" font-weight="bold" lengthAdjust="spacingAndGlyphs" textLength="246" x="402" y="330.8354">[repeat for Component TEXT, RODATA]</text><line style="stroke: #F05772; stroke-width: 1.0;" x1="388" x2="430" y1="356.8906" y2="356.8906"/><line style="stroke: #F05772; stroke-width: 1.0;" x1="430" x2="430" y1="356.8906" y2="369.8906"/><line style="stroke: #F05772; stroke-width: 1.0;" x1="389" x2="430" y1="369.8906" y2="369.8906"/><polygon fill="#F05772" points="399,365.8906,389,369.8906,399,373.8906,395,369.8906" style="stroke: #F05772; stroke-width: 1.0;"/><text fill="#33335B" font-family="sans-serif" font-size="13" lengthAdjust="spacingAndGlyphs" textLength="357" x="395" y="351.8247">read Component virtual address and size from manifest</text><polygon fill="#F05772" points="965.5,395.0234,975.5,399.0234,965.5,403.0234,969.5,399.0234" style="stroke: #F05772; stroke-width: 1.0;"/><line style="stroke: #F05772; stroke-width: 1.0;" x1="388" x2="971.5" y1="399.0234" y2="399.0234"/><text fill="#33335B" font-family="sans-serif" font-size="13" lengthAdjust="spacingAndGlyphs" textLength="400" x="395" y="393.9575">sys_mm_drv_map_region(virt*, phys=NULL, size, flags=NULL)</text><line style="stroke: #F05772; stroke-width: 1.0;" x1="987.5" x2="1029.5" y1="428.1563" y2="428.1563"/><line style="stroke: #F05772; stroke-width: 1.0;" x1="1029.5" x2="1029.5" y1="428.1563" y2="441.1563"/><line style="stroke: #F05772; stroke-width: 1.0;" x1="988.5" x2="1029.5" y1="441.1563" y2="441.1563"/><polygon fill="#F05772" points="998.5,437.1563,988.5,441.1563,998.5,445.1563,994.5,441.1563" style="stroke: #F05772; stroke-width: 1.0;"/><text fill="#33335B" font-family="sans-serif" font-size="13" lengthAdjust="spacingAndGlyphs" textLength="156" x="994.5" y="423.0903">allocate free phys pages</text><path d="M866.5,456.1563 L936.5,456.1563 L936.5,463.1563 L926.5,473.1563 L866.5,473.1563 L866.5,456.1563 " fill="#EEEEEE" style="stroke: #A1A1CA; stroke-width: 1.0;"/><rect fill="none" height="46.2656" style="stroke: #A1A1CA; stroke-width: 2.0;" width="419" x="866.5" y="456.1563"/><text fill="#33335B" font-family="sans-serif" font-size="13" font-weight="bold" lengthAdjust="spacingAndGlyphs" textLength="25" x="881.5" y="469.2231">opt</text><text fill="#33335B" font-family="sans-serif" font-size="11" font-weight="bold" lengthAdjust="spacingAndGlyphs" textLength="329" x="951.5" y="468.3667">[power up memory banks for allocated phys pages]</text><polygon fill="#F05772" points="1157.5,490.4219,1167.5,494.4219,1157.5,498.4219,1161.5,494.4219" style="stroke: #F05772; stroke-width: 1.0;"/><line style="stroke: #F05772; stroke-width: 1.0;" x1="987.5" x2="1163.5" y1="494.4219" y2="494.4219"/><text fill="#33335B" font-family="sans-serif" font-size="13" lengthAdjust="spacingAndGlyphs" textLength="158" x="994.5" y="489.356">power up memory banks</text><polygon fill="#F05772" points="399,511.4219,389,515.4219,399,519.4219,395,515.4219" style="stroke: #F05772; stroke-width: 1.0;"/><line style="stroke: #F05772; stroke-width: 1.0; stroke-dasharray: 2.0,2.0;" x1="393" x2="981.5" y1="515.4219" y2="515.4219"/><line style="stroke: #F05772; stroke-width: 1.0;" x1="388" x2="430" y1="544.5547" y2="544.5547"/><line style="stroke: #F05772; stroke-width: 1.0;" x1="430" x2="430" y1="544.5547" y2="557.5547"/><line style="stroke: #F05772; stroke-width: 1.0;" x1="389" x2="430" y1="557.5547" y2="557.5547"/><polygon fill="#F05772" points="399,553.5547,389,557.5547,399,561.5547,395,557.5547" style="stroke: #F05772; stroke-width: 1.0;"/><text fill="#33335B" font-family="sans-serif" font-size="13" lengthAdjust="spacingAndGlyphs" textLength="340" x="395" y="539.4888">read Component address offset from library manifest</text><line style="stroke: #F05772; stroke-width: 1.0;" x1="388" x2="430" y1="586.6875" y2="586.6875"/><line style="stroke: #F05772; stroke-width: 1.0;" x1="430" x2="430" y1="586.6875" y2="599.6875"/><line style="stroke: #F05772; stroke-width: 1.0;" x1="389" x2="430" y1="599.6875" y2="599.6875"/><polygon fill="#F05772" points="399,595.6875,389,599.6875,399,603.6875,395,599.6875" style="stroke: #F05772; stroke-width: 1.0;"/><text fill="#33335B" font-family="sans-serif" font-size="13" lengthAdjust="spacingAndGlyphs" textLength="319" x="395" y="581.6216">mem_copy(virt*, library_store_addr + offset, size)</text><polygon fill="#F05772" points="965.5,639.9531,975.5,643.9531,965.5,647.9531,969.5,643.9531" style="stroke: #F05772; stroke-width: 1.0;"/><line style="stroke: #F05772; stroke-width: 1.0;" x1="388" x2="971.5" y1="643.9531" y2="643.9531"/><text fill="#33335B" font-family="sans-serif" font-size="13" lengthAdjust="spacingAndGlyphs" textLength="400" x="395" y="623.7544">sys_mm_drv_update_region(virt*, size, flags= CODE / RODATA</text><text fill="#33335B" font-family="sans-serif" font-size="13" lengthAdjust="spacingAndGlyphs" textLength="5" x="395" y="638.8872">)</text><path d="M992,615.2539 L992,640.2539 L1268,640.2539 L1268,625.2539 L1258,615.2539 L992,615.2539 " fill="#F6ED80" filter="url(#f11b7ah522tz3a)" style="stroke: #D6D6DE; stroke-width: 1.0;"/><path d="M1258,615.2539 L1258,625.2539 L1268,625.2539 L1258,615.2539 " fill="#F6ED80" style="stroke: #D6D6DE; stroke-width: 1.0;"/><text fill="#33335B" font-family="sans-serif" font-size="13" lengthAdjust="spacingAndGlyphs" textLength="255" x="998" y="632.3208">update region flags to prevent overwrite</text><polygon fill="#F05772" points="399,653.9531,389,657.9531,399,661.9531,395,657.9531" style="stroke: #F05772; stroke-width: 1.0;"/><line style="stroke: #F05772; stroke-width: 1.0; stroke-dasharray: 2.0,2.0;" x1="393" x2="981.5" y1="657.9531" y2="657.9531"/><path d="M310,679.9531 L380,679.9531 L380,686.9531 L370,696.9531 L310,696.9531 L310,679.9531 " fill="#EEEEEE" style="stroke: #A1A1CA; stroke-width: 1.0;"/><rect fill="none" height="162.6641" style="stroke: #A1A1CA; stroke-width: 2.0;" width="985.5" x="310" y="679.9531"/><text fill="#33335B" font-family="sans-serif" font-size="13" font-weight="bold" lengthAdjust="spacingAndGlyphs" textLength="25" x="325" y="693.02">opt</text><text fill="#33335B" font-family="sans-serif" font-size="11" font-weight="bold" lengthAdjust="spacingAndGlyphs" textLength="152" x="395" y="692.1636">[if Component has BSS]</text><polygon fill="#F05772" points="965.5,714.2188,975.5,718.2188,965.5,722.2188,969.5,718.2188" style="stroke: #F05772; stroke-width: 1.0;"/><line style="stroke: #F05772; stroke-width: 1.0;" x1="388" x2="971.5" y1="718.2188" y2="718.2188"/><text fill="#33335B" font-family="sans-serif" font-size="13" lengthAdjust="spacingAndGlyphs" textLength="384" x="395" y="713.1528">sys_mm_drv_map_region(virt*, phys=NULL, bss_size, flags)</text><line style="stroke: #F05772; stroke-width: 1.0;" x1="987.5" x2="1029.5" y1="747.3516" y2="747.3516"/><line style="stroke: #F05772; stroke-width: 1.0;" x1="1029.5" x2="1029.5" y1="747.3516" y2="760.3516"/><line style="stroke: #F05772; stroke-width: 1.0;" x1="988.5" x2="1029.5" y1="760.3516" y2="760.3516"/><polygon fill="#F05772" points="998.5,756.3516,988.5,760.3516,998.5,764.3516,994.5,760.3516" style="stroke: #F05772; stroke-width: 1.0;"/><text fill="#33335B" font-family="sans-serif" font-size="13" lengthAdjust="spacingAndGlyphs" textLength="156" x="994.5" y="742.2856">allocate free phys pages</text><path d="M866.5,775.3516 L936.5,775.3516 L936.5,782.3516 L926.5,792.3516 L866.5,792.3516 L866.5,775.3516 " fill="#EEEEEE" style="stroke: #A1A1CA; stroke-width: 1.0;"/><rect fill="none" height="46.2656" style="stroke: #A1A1CA; stroke-width: 2.0;" width="419" x="866.5" y="775.3516"/><text fill="#33335B" font-family="sans-serif" font-size="13" font-weight="bold" lengthAdjust="spacingAndGlyphs" textLength="25" x="881.5" y="788.4185">opt</text><text fill="#33335B" font-family="sans-serif" font-size="11" font-weight="bold" lengthAdjust="spacingAndGlyphs" textLength="329" x="951.5" y="787.562">[power up memory banks for allocated phys pages]</text><polygon fill="#F05772" points="1157.5,809.6172,1167.5,813.6172,1157.5,817.6172,1161.5,813.6172" style="stroke: #F05772; stroke-width: 1.0;"/><line style="stroke: #F05772; stroke-width: 1.0;" x1="987.5" x2="1163.5" y1="813.6172" y2="813.6172"/><text fill="#33335B" font-family="sans-serif" font-size="13" lengthAdjust="spacingAndGlyphs" textLength="158" x="994.5" y="808.5513">power up memory banks</text><polygon fill="#F05772" points="399,830.6172,389,834.6172,399,838.6172,395,834.6172" style="stroke: #F05772; stroke-width: 1.0;"/><line style="stroke: #F05772; stroke-width: 1.0; stroke-dasharray: 2.0,2.0;" x1="393" x2="981.5" y1="834.6172" y2="834.6172"/><polygon fill="#F05772" points="228,851.6172,218,855.6172,228,859.6172,224,855.6172" style="stroke: #F05772; stroke-width: 1.0;"/><line style="stroke: #F05772; stroke-width: 1.0; stroke-dasharray: 2.0,2.0;" x1="222" x2="382" y1="855.6172" y2="855.6172"/><line style="stroke: #F05772; stroke-width: 1.0;" x1="217" x2="259" y1="891.75" y2="891.75"/><line style="stroke: #F05772; stroke-width: 1.0;" x1="259" x2="259" y1="891.75" y2="904.75"/><line style="stroke: #F05772; stroke-width: 1.0;" x1="218" x2="259" y1="904.75" y2="904.75"/><polygon fill="#F05772" points="228,900.75,218,904.75,228,908.75,224,904.75" style="stroke: #F05772; stroke-width: 1.0;"/><text fill="#33335B" font-family="sans-serif" font-size="13" lengthAdjust="spacingAndGlyphs" textLength="147" x="224" y="886.6841">Instantiate Component</text><polygon fill="#F05772" points="52,914.75,42,918.75,52,922.75,48,918.75" style="stroke: #F05772; stroke-width: 1.0;"/><line style="stroke: #F05772; stroke-width: 1.0; stroke-dasharray: 2.0,2.0;" x1="46" x2="206" y1="918.75" y2="918.75"/><!--MD5=[4d85535c24397a3a4f4386242f7ed1a1]
@startuml
hidefootbox
skinparam componentStyle uml2

skinparam defaultFontColor	#33335b

skinparam rectangle {
	color		#d6d6de
	backgroundColor	#ffffff
}

skinparam component {
	backgroundColor	#ffffff
	borderColor	#33335b
	arrowColor	#f05772
}

skinparam interface {
	backgroundColor	#ffffff
	borderColor	#f05772
}

skinparam class {
	backgroundColor	#ffffff
	borderColor	#33335b
	arrowColor	#f05772
}
skinparam stereotypeCBackgroundColor	#6fccdd

skinparam sequence {
	arrowColor		#4a4a86
	lifeLineBorderColor	#f05772
	groupBorderColor	#a1a1ca
	boxBorderColor		#a1a1ca
	dividerBorderColor	#d6d6de
	dividerBorderThickness	1
}
skinparam participant {
	borderColor		#33335b
	backgroundColor		#ffffff
}
skinparam actor {
	borderColor		#33335b
	backgroundColor		#ffffff
}

skinparam state {
	borderColor		#33335b
	backgroundColor		#ffffff
}

skinparam node {
	backgroundColor		#ffffff
}

skinparam note {
	backgroundColor 	#f6ed80
	borderColor		#d6d6de
}

skinparam activity {
	borderColor		#33335b
	backgroundColor		#ffffff
}

skinparam activityDiamond {
	borderColor		#33335b
	backgroundColor		#ffffff
}

skinparam arrowColor	#f05772
skinparam maxMessageSize 400
skinparam BoxPadding 4

box "Host" #LightGreen
	participant "Driver" as host_driver
end box

box "Media Processing Pipelines Layer" #LightSkyBlue
	participant "Component Manager" as component_manager
	participant "Library Manager" as lib_manager
	participant "MPP Memory Manager" as mpp_memory_manager
end box

box "Zephyr RTOS" #LightBlue
	participant "Memory Management Driver" as memory_management_driver
end box

box "Hardware" #LightGrey
	participant "Memory" as hw_memory
end box

host_driver -> lib_manager: Load Library
	activate lib_manager
	lib_manager -> mpp_memory_manager: rmalloc(MEM_ZONE_RUNTIME, flags=NULL, MEM_CAPS_LOADABLE_LIBRARY, size)
		activate mpp_memory_manager
		return address to store library
	lib_manager - -> host_driver
	deactivate lib_manager

host_driver -> lib_manager: Transfer library over DMA\nto given address

host_driver -> component_manager: Instantiate Component
	activate component_manager

	opt  if Component is Loadable and it is first instance
		component_manager -> lib_manager: Load component
		activate lib_manager

		loop repeat for Component TEXT, RODATA
			lib_manager -> lib_manager: read Component virtual address and size from manifest

			lib_manager -> memory_management_driver: sys_mm_drv_map_region(virt*, phys=NULL, size, flags=NULL)
				activate memory_management_driver
				memory_management_driver -> memory_management_driver: allocate free phys pages
				opt power up memory banks for allocated phys pages
					memory_management_driver -> hw_memory: power up memory banks
				end
				memory_management_driver - -> lib_manager
				deactivate memory_management_driver

			lib_manager -> lib_manager: read Component address offset from library manifest
			lib_manager -> lib_manager: mem_copy(virt*, library_store_addr + offset, size)
			lib_manager -> memory_management_driver: sys_mm_drv_update_region(virt*, size, flags= CODE / RODATA)
				activate memory_management_driver
				note right: update region flags to prevent overwrite
				return

		end

		opt if Component has BSS
			lib_manager -> memory_management_driver: sys_mm_drv_map_region(virt*, phys=NULL, bss_size, flags)
			activate memory_management_driver
			memory_management_driver -> memory_management_driver: allocate free phys pages
			opt power up memory banks for allocated phys pages
				memory_management_driver -> hw_memory: power up memory banks
			end
			memory_management_driver - -> lib_manager
			deactivate memory_management_driver
		end

		lib_manager - -> component_manager
		deactivate lib_manager
	end

	component_manager -> component_manager: Instantiate Component
	component_manager - -> host_driver

@enduml

PlantUML version 1.2019.12(Sun Nov 03 10:24:54 UTC 2019)
(GPL source distribution)
Java Runtime: OpenJDK Runtime Environment
JVM: OpenJDK 64-Bit Server VM
Java Version: 11.0.18+10
Operating System: Linux
Default Encoding: UTF-8
Language: en
Country: null
--></g></svg>