<?xml version="1.0" encoding="UTF-8" standalone="no"?><svg xmlns="http://www.w3.org/2000/svg" xmlns:xlink="http://www.w3.org/1999/xlink" contentScriptType="application/ecmascript" contentStyleType="text/css" height="489px" preserveAspectRatio="none" style="width:941px;height:489px;" version="1.1" viewBox="0 0 941 489" width="941px" zoomAndPan="magnify"><defs><filter height="300%" id="fgkeglx5rih3d" width="300%" x="-1" y="-1"><feGaussianBlur result="blurOut" stdDeviation="2.0"/><feColorMatrix in="blurOut" result="blurOut2" type="matrix" values="0 0 0 0 0 0 0 0 0 0 0 0 0 0 0 0 0 0 .4 0"/><feOffset dx="4.0" dy="4.0" in="blurOut2" result="blurOut3"/><feBlend in="SourceGraphic" in2="blurOut3" mode="normal"/></filter></defs><g><rect fill="#FFFFFF" filter="url(#fgkeglx5rih3d)" height="274.1484" style="stroke: #A1A1CA; stroke-width: 2.0;" width="742" x="187" y="99.5625"/><rect fill="#FFFFFF" height="86.0703" style="stroke: none; stroke-width: 1.0;" width="742" x="187" y="174.9609"/><rect fill="#FFFFFF" height="43.9375" style="stroke: none; stroke-width: 1.0;" width="742" x="187" y="261.0313"/><rect fill="#FFFFFF" height="53.9375" style="stroke: none; stroke-width: 1.0;" width="742" x="187" y="304.9688"/><rect fill="#FFFFFF" height="14.8047" style="stroke: none; stroke-width: 1.0;" width="742" x="187" y="358.9063"/><rect fill="#FFFFFF" filter="url(#fgkeglx5rih3d)" height="59.2656" style="stroke: #A1A1CA; stroke-width: 2.0;" width="622" x="187" y="387.7109"/><line style="stroke: #F05772; stroke-width: 1.0; stroke-dasharray: 5.0,5.0;" x1="233" x2="233" y1="38.2969" y2="477.9766"/><line style="stroke: #F05772; stroke-width: 1.0; stroke-dasharray: 5.0,5.0;" x1="681" x2="681" y1="38.2969" y2="477.9766"/><rect fill="#FFFFFF" filter="url(#fgkeglx5rih3d)" height="30.2969" style="stroke: #33335B; stroke-width: 1.5;" width="68" x="197" y="3"/><text fill="#33335B" font-family="sans-serif" font-size="14" lengthAdjust="spacingAndGlyphs" textLength="54" x="204" y="22.9951">pipeline</text><rect fill="#FFFFFF" filter="url(#fgkeglx5rih3d)" height="30.2969" style="stroke: #33335B; stroke-width: 1.5;" width="94" x="632" y="3"/><text fill="#33335B" font-family="sans-serif" font-size="14" lengthAdjust="spacingAndGlyphs" textLength="80" x="639" y="22.9951">component</text><polygon fill="#4A4A86" points="221,80.5625,231,84.5625,221,88.5625,225,84.5625" style="stroke: #4A4A86; stroke-width: 1.0;"/><line style="stroke: #4A4A86; stroke-width: 1.0;" x1="3" x2="227" y1="84.5625" y2="84.5625"/><text fill="#33335B" font-family="sans-serif" font-size="13" lengthAdjust="spacingAndGlyphs" textLength="206" x="10" y="64.3638">comp_op_downstream(op_data,</text><text fill="#33335B" font-family="sans-serif" font-size="13" lengthAdjust="spacingAndGlyphs" textLength="151" x="10" y="79.4966">start, current, previous)</text><path d="M238,55.8633 L238,80.8633 L576,80.8633 L576,65.8633 L566,55.8633 L238,55.8633 " fill="#F6ED80" filter="url(#fgkeglx5rih3d)" style="stroke: #D6D6DE; stroke-width: 1.0;"/><path d="M566,55.8633 L566,65.8633 L576,65.8633 L566,55.8633 " fill="#F6ED80" style="stroke: #D6D6DE; stroke-width: 1.0;"/><text fill="#33335B" font-family="sans-serif" font-size="13" lengthAdjust="spacingAndGlyphs" textLength="317" x="244" y="72.9302">start, current, and previous are struct *comp_dev</text><path d="M187,99.5625 L251,99.5625 L251,106.5625 L241,116.5625 L187,116.5625 L187,99.5625 " fill="#EEEEEE" style="stroke: #A1A1CA; stroke-width: 1.0;"/><rect fill="none" height="274.1484" style="stroke: #A1A1CA; stroke-width: 2.0;" width="742" x="187" y="99.5625"/><text fill="#33335B" font-family="sans-serif" font-size="13" font-weight="bold" lengthAdjust="spacingAndGlyphs" textLength="19" x="202" y="112.6294">alt</text><text fill="#33335B" font-family="sans-serif" font-size="11" font-weight="bold" lengthAdjust="spacingAndGlyphs" textLength="244" x="266" y="111.7729">[op_data-&gt;op == COMP_OPS_PARAMS]</text><polygon fill="#4A4A86" points="669,133.8281,679,137.8281,669,141.8281,673,137.8281" style="stroke: #4A4A86; stroke-width: 1.0;"/><line style="stroke: #4A4A86; stroke-width: 1.0;" x1="233" x2="675" y1="137.8281" y2="137.8281"/><text fill="#33335B" font-family="sans-serif" font-size="13" lengthAdjust="spacingAndGlyphs" textLength="192" x="240" y="132.7622">comp_install_params(current)</text><polygon fill="#4A4A86" points="669,162.9609,679,166.9609,669,170.9609,673,166.9609" style="stroke: #4A4A86; stroke-width: 1.0;"/><line style="stroke: #4A4A86; stroke-width: 1.0;" x1="233" x2="675" y1="166.9609" y2="166.9609"/><text fill="#33335B" font-family="sans-serif" font-size="13" lengthAdjust="spacingAndGlyphs" textLength="148" x="240" y="161.895">comp_params(current)</text><line style="stroke: #A1A1CA; stroke-width: 1.0; stroke-dasharray: 2.0,2.0;" x1="187" x2="929" y1="175.9609" y2="175.9609"/><text fill="#33335B" font-family="sans-serif" font-size="11" font-weight="bold" lengthAdjust="spacingAndGlyphs" textLength="115" x="192" y="186.1714">[COMP_OPS_CMD]</text><polygon fill="#4A4A86" points="669,206.8984,679,210.8984,669,214.8984,673,210.8984" style="stroke: #4A4A86; stroke-width: 1.0;"/><line style="stroke: #4A4A86; stroke-width: 1.0;" x1="233" x2="675" y1="210.8984" y2="210.8984"/><text fill="#33335B" font-family="sans-serif" font-size="13" lengthAdjust="spacingAndGlyphs" textLength="127" x="240" y="205.8325">comp_cmd(current)</text><line style="stroke: #4A4A86; stroke-width: 1.0;" x1="233" x2="275" y1="240.0313" y2="240.0313"/><line style="stroke: #4A4A86; stroke-width: 1.0;" x1="275" x2="275" y1="240.0313" y2="253.0313"/><line style="stroke: #4A4A86; stroke-width: 1.0;" x1="234" x2="275" y1="253.0313" y2="253.0313"/><polygon fill="#4A4A86" points="244,249.0313,234,253.0313,244,257.0313,240,253.0313" style="stroke: #4A4A86; stroke-width: 1.0;"/><text fill="#33335B" font-family="sans-serif" font-size="13" lengthAdjust="spacingAndGlyphs" textLength="192" x="240" y="234.9653">pipeline_cmd_update(current)</text><line style="stroke: #A1A1CA; stroke-width: 1.0; stroke-dasharray: 2.0,2.0;" x1="187" x2="929" y1="262.0313" y2="262.0313"/><text fill="#33335B" font-family="sans-serif" font-size="11" font-weight="bold" lengthAdjust="spacingAndGlyphs" textLength="142" x="192" y="272.2417">[COMP_OPS_PREPARE]</text><polygon fill="#4A4A86" points="669,292.9688,679,296.9688,669,300.9688,673,296.9688" style="stroke: #4A4A86; stroke-width: 1.0;"/><line style="stroke: #4A4A86; stroke-width: 1.0;" x1="233" x2="675" y1="296.9688" y2="296.9688"/><text fill="#33335B" font-family="sans-serif" font-size="13" lengthAdjust="spacingAndGlyphs" textLength="149" x="240" y="291.9028">comp_prepare(current)</text><line style="stroke: #A1A1CA; stroke-width: 1.0; stroke-dasharray: 2.0,2.0;" x1="187" x2="929" y1="305.9688" y2="305.9688"/><text fill="#33335B" font-family="sans-serif" font-size="11" font-weight="bold" lengthAdjust="spacingAndGlyphs" textLength="126" x="192" y="316.1792">[COMP_OPS_RESET]</text><polygon fill="#4A4A86" points="669,341.9063,679,345.9063,669,349.9063,673,345.9063" style="stroke: #4A4A86; stroke-width: 1.0;"/><line style="stroke: #4A4A86; stroke-width: 1.0;" x1="233" x2="675" y1="345.9063" y2="345.9063"/><text fill="#33335B" font-family="sans-serif" font-size="13" lengthAdjust="spacingAndGlyphs" textLength="132" x="240" y="340.8403">comp_reset(current)</text><path d="M686,324.7734 L686,349.7734 L910,349.7734 L910,334.7734 L900,324.7734 L686,324.7734 " fill="#F6ED80" filter="url(#fgkeglx5rih3d)" style="stroke: #D6D6DE; stroke-width: 1.0;"/><path d="M900,324.7734 L900,334.7734 L910,334.7734 L900,324.7734 " fill="#F6ED80" style="stroke: #D6D6DE; stroke-width: 1.0;"/><text fill="#33335B" font-family="sans-serif" font-size="13" lengthAdjust="spacingAndGlyphs" textLength="203" x="692" y="341.8403">error, handled by other API calls</text><line style="stroke: #A1A1CA; stroke-width: 1.0; stroke-dasharray: 2.0,2.0;" x1="187" x2="929" y1="359.9063" y2="359.9063"/><text fill="#33335B" font-family="sans-serif" font-size="11" font-weight="bold" lengthAdjust="spacingAndGlyphs" textLength="136" x="192" y="370.1167">[COMP_OPS_BUFFER]</text><path d="M187,387.7109 L264,387.7109 L264,394.7109 L254,404.7109 L187,404.7109 L187,387.7109 " fill="#EEEEEE" style="stroke: #A1A1CA; stroke-width: 1.0;"/><rect fill="none" height="59.2656" style="stroke: #A1A1CA; stroke-width: 2.0;" width="622" x="187" y="387.7109"/><text fill="#33335B" font-family="sans-serif" font-size="13" font-weight="bold" lengthAdjust="spacingAndGlyphs" textLength="32" x="202" y="400.7778">loop</text><text fill="#33335B" font-family="sans-serif" font-size="11" font-weight="bold" lengthAdjust="spacingAndGlyphs" textLength="153" x="279" y="399.9214">[for each current's sink]</text><line style="stroke: #4A4A86; stroke-width: 1.0;" x1="233" x2="275" y1="425.9766" y2="425.9766"/><line style="stroke: #4A4A86; stroke-width: 1.0;" x1="275" x2="275" y1="425.9766" y2="438.9766"/><line style="stroke: #4A4A86; stroke-width: 1.0;" x1="234" x2="275" y1="438.9766" y2="438.9766"/><polygon fill="#4A4A86" points="244,434.9766,234,438.9766,244,442.9766,240,438.9766" style="stroke: #4A4A86; stroke-width: 1.0;"/><text fill="#33335B" font-family="sans-serif" font-size="13" lengthAdjust="spacingAndGlyphs" textLength="434" x="240" y="420.9106">component_op_downstream(..., current = consumer @ sink/source)</text><path d="M686,411.3438 L686,436.3438 L790,436.3438 L790,421.3438 L780,411.3438 L686,411.3438 " fill="#F6ED80" filter="url(#fgkeglx5rih3d)" style="stroke: #D6D6DE; stroke-width: 1.0;"/><path d="M780,411.3438 L780,421.3438 L790,421.3438 L780,411.3438 " fill="#F6ED80" style="stroke: #D6D6DE; stroke-width: 1.0;"/><text fill="#33335B" font-family="sans-serif" font-size="13" lengthAdjust="spacingAndGlyphs" textLength="83" x="692" y="428.4106">recursive call</text><polygon fill="#4A4A86" points="14,455.9766,4,459.9766,14,463.9766,10,459.9766" style="stroke: #4A4A86; stroke-width: 1.0;"/><line style="stroke: #4A4A86; stroke-width: 1.0; stroke-dasharray: 2.0,2.0;" x1="8" x2="232" y1="459.9766" y2="459.9766"/><!--MD5=[4571f416149fa519d77290765201060b]
@startuml
hidefootbox
skinparam componentStyle uml2

skinparam defaultFontColor	#33335b

skinparam rectangle {
	color		#d6d6de
	backgroundColor	#ffffff
}

skinparam component {
	backgroundColor	#ffffff
	borderColor	#33335b
	arrowColor	#f05772
}

skinparam interface {
	backgroundColor	#ffffff
	borderColor	#f05772
}

skinparam class {
	backgroundColor	#ffffff
	borderColor	#33335b
	arrowColor	#f05772
}
skinparam stereotypeCBackgroundColor	#6fccdd

skinparam sequence {
	arrowColor		#4a4a86
	lifeLineBorderColor	#f05772
	groupBorderColor	#a1a1ca
	boxBorderColor		#a1a1ca
	dividerBorderColor	#d6d6de
	dividerBorderThickness	1
}
skinparam participant {
	borderColor		#33335b
	backgroundColor		#ffffff
}
skinparam actor {
	borderColor		#33335b
	backgroundColor		#ffffff
}

skinparam state {
	borderColor		#33335b
	backgroundColor		#ffffff
}

skinparam node {
	backgroundColor		#ffffff
}

skinparam note {
	backgroundColor 	#f6ed80
	borderColor		#d6d6de
}
participant "pipeline" as ppl
participant "component" as comp
-> ppl : comp_op_downstream(op_data,\nstart, current, previous)
   note right: start, current, and previous are struct *comp_dev
   alt op_data->op == COMP_OPS_PARAMS
      ppl -> comp : comp_install_params(current)
      ppl -> comp : comp_params(current)
   else COMP_OPS_CMD
      ppl -> comp : comp_cmd(current)
      ppl -> ppl : pipeline_cmd_update(current)
   else COMP_OPS_PREPARE
      ppl -> comp : comp_prepare(current)
   else COMP_OPS_RESET
      ppl -> comp : comp_reset(current)
   else COMP_OPS_BUFFER
      note right: error, handled by other API calls
   end
   loop for each current's sink
      ppl -> ppl : component_op_downstream(..., current = consumer @ sink/source)
      note right: recursive call
   end
<- - ppl

@enduml

PlantUML version 1.2019.12(Sun Nov 03 10:24:54 UTC 2019)
(GPL source distribution)
Java Runtime: OpenJDK Runtime Environment
JVM: OpenJDK 64-Bit Server VM
Java Version: 11.0.16.1+1
Operating System: Linux
Default Encoding: UTF-8
Language: en
Country: null
--></g></svg>