<?xml version="1.0" encoding="UTF-8" standalone="no"?><svg xmlns="http://www.w3.org/2000/svg" xmlns:xlink="http://www.w3.org/1999/xlink" contentScriptType="application/ecmascript" contentStyleType="text/css" height="589px" preserveAspectRatio="none" style="width:632px;height:589px;" version="1.1" viewBox="0 0 632 589" width="632px" zoomAndPan="magnify"><defs><filter height="300%" id="fuc9dnwjdet6s" width="300%" x="-1" y="-1"><feGaussianBlur result="blurOut" stdDeviation="2.0"/><feColorMatrix in="blurOut" result="blurOut2" type="matrix" values="0 0 0 0 0 0 0 0 0 0 0 0 0 0 0 0 0 0 .4 0"/><feOffset dx="4.0" dy="4.0" in="blurOut2" result="blurOut3"/><feBlend in="SourceGraphic" in2="blurOut3" mode="normal"/></filter></defs><g><ellipse cx="16" cy="28" fill="#000000" filter="url(#fuc9dnwjdet6s)" rx="10" ry="10" style="stroke: none; stroke-width: 1.0;"/><rect fill="#FFFFFF" filter="url(#fuc9dnwjdet6s)" height="40" rx="12.5" ry="12.5" style="stroke: #33335B; stroke-width: 1.5;" width="136" x="235" y="8"/><text fill="#33335B" font-family="sans-serif" font-size="14" lengthAdjust="spacingAndGlyphs" textLength="126" x="240" y="32.8467">COMP_STATE_INIT</text><rect fill="#FFFFFF" filter="url(#fuc9dnwjdet6s)" height="40" rx="12.5" ry="12.5" style="stroke: #33335B; stroke-width: 1.5;" width="159" x="223.5" y="125"/><text fill="#33335B" font-family="sans-serif" font-size="14" lengthAdjust="spacingAndGlyphs" textLength="149" x="228.5" y="149.8467">COMP_STATE_READY</text><rect fill="#FFFFFF" filter="url(#fuc9dnwjdet6s)" height="40" rx="12.5" ry="12.5" style="stroke: #33335B; stroke-width: 1.5;" width="176" x="215" y="304"/><text fill="#33335B" font-family="sans-serif" font-size="14" lengthAdjust="spacingAndGlyphs" textLength="166" x="220" y="328.8467">COMP_STATE_PREPARE</text><rect fill="#FFFFFF" filter="url(#fuc9dnwjdet6s)" height="40" rx="12.5" ry="12.5" style="stroke: #33335B; stroke-width: 1.5;" width="160" x="107" y="421"/><text fill="#33335B" font-family="sans-serif" font-size="14" lengthAdjust="spacingAndGlyphs" textLength="150" x="112" y="445.8467">COMP_STATE_ACTIVE</text><rect fill="#FFFFFF" filter="url(#fuc9dnwjdet6s)" height="40" rx="12.5" ry="12.5" style="stroke: #33335B; stroke-width: 1.5;" width="168" x="196" y="538"/><text fill="#33335B" font-family="sans-serif" font-size="14" lengthAdjust="spacingAndGlyphs" textLength="158" x="201" y="562.8467">COMP_STATE_PAUSED</text><!--MD5=[3f2fa9af7dc3588883d229ca224ef419]
link *start to COMP_STATE_INIT--><path d="M26.21,28 C58.3,28 159.11,28 229.76,28 " fill="none" id="*start-&gt;COMP_STATE_INIT" style="stroke: #4A4A86; stroke-width: 1.0;"/><polygon fill="#4A4A86" points="234.79,28,225.79,24,229.79,28,225.79,32,234.79,28" style="stroke: #4A4A86; stroke-width: 1.0;"/><text fill="#33335B" font-family="sans-serif" font-size="13" lengthAdjust="spacingAndGlyphs" textLength="46" x="44.5" y="21.0669">start of</text><text fill="#33335B" font-family="sans-serif" font-size="13" font-weight="bold" lengthAdjust="spacingAndGlyphs" textLength="122" x="94.5" y="21.0669">comp_ops.new()</text><!--MD5=[2c2e8ba71b720de02b041b8c6b18dfc4]
link COMP_STATE_INIT to COMP_STATE_READY--><path d="M303,48.25 C303,67.82 303,98.21 303,119.49 " fill="none" id="COMP_STATE_INIT-&gt;COMP_STATE_READY" style="stroke: #4A4A86; stroke-width: 1.0;"/><polygon fill="#4A4A86" points="303,124.69,307,115.69,303,119.69,299,115.69,303,124.69" style="stroke: #4A4A86; stroke-width: 1.0;"/><text fill="#33335B" font-family="sans-serif" font-size="13" lengthAdjust="spacingAndGlyphs" textLength="40" x="304" y="91.0669">end of</text><text fill="#33335B" font-family="sans-serif" font-size="13" font-weight="bold" lengthAdjust="spacingAndGlyphs" textLength="122" x="348" y="91.0669">comp_ops.new()</text><!--MD5=[47445f1fafaa5737054a7992c8179a8e]
link COMP_STATE_READY to COMP_STATE_PREPARE--><path d="M256.31,165.1 C221.95,182.29 183.8,209.91 200,243 C212.37,268.26 236.98,287.84 259.05,301.31 " fill="none" id="COMP_STATE_READY-&gt;COMP_STATE_PREPARE" style="stroke: #4A4A86; stroke-width: 1.0;"/><polygon fill="#4A4A86" points="263.42,303.92,257.7605,295.8596,259.1325,301.3475,253.6446,302.7195,263.42,303.92" style="stroke: #4A4A86; stroke-width: 1.0;"/><text fill="#33335B" font-family="sans-serif" font-size="13" font-weight="bold" lengthAdjust="spacingAndGlyphs" textLength="189" x="201" y="239.0669">COMP_TRIGGER_PREPARE</text><!--MD5=[c9df9f78e3e659911d3ea3bbd25d27c3]
link COMP_STATE_PREPARE to COMP_STATE_READY--><path d="M343.46,303.88 C374.45,286.28 409.63,258.1 395,226 C383.94,201.72 361.47,181.96 341.51,168.15 " fill="none" id="COMP_STATE_PREPARE-&gt;COMP_STATE_READY" style="stroke: #4A4A86; stroke-width: 1.0;"/><polygon fill="#4A4A86" points="337.29,165.29,342.5068,173.6437,341.4326,168.0898,346.9865,167.0156,337.29,165.29" style="stroke: #4A4A86; stroke-width: 1.0;"/><text fill="#33335B" font-family="sans-serif" font-size="13" lengthAdjust="spacingAndGlyphs" textLength="146" x="400" y="239.0669">COMP_TRIGGER_RESET</text><!--MD5=[6b00e1dc5fed14cfc539e52d6886ce96]
link COMP_STATE_PREPARE to COMP_STATE_ACTIVE--><path d="M214.74,334.46 C164.11,341.91 107.58,354.38 92,374 C77.48,392.28 95.74,407.57 120,418.82 " fill="none" id="COMP_STATE_PREPARE-&gt;COMP_STATE_ACTIVE" style="stroke: #4A4A86; stroke-width: 1.0;"/><polygon fill="#4A4A86" points="124.6,420.87,118.0151,413.5461,120.0351,418.83,114.7512,420.85,124.6,420.87" style="stroke: #4A4A86; stroke-width: 1.0;"/><text fill="#33335B" font-family="sans-serif" font-size="13" font-weight="bold" lengthAdjust="spacingAndGlyphs" textLength="166" x="93" y="387.0669">COMP_TRIGGER_START</text><!--MD5=[f93a8328611bcc654651b8c96614e578]
link COMP_STATE_ACTIVE to COMP_STATE_PREPARE--><path d="M224.48,420.98 C237.97,412.95 252.65,402.73 264,391 C275.79,378.82 285.5,362.42 292.28,349.02 " fill="none" id="COMP_STATE_ACTIVE-&gt;COMP_STATE_PREPARE" style="stroke: #4A4A86; stroke-width: 1.0;"/><polygon fill="#4A4A86" points="294.65,344.23,287.0795,350.5297,292.4368,348.7135,294.2531,354.0709,294.65,344.23" style="stroke: #4A4A86; stroke-width: 1.0;"/><text fill="#33335B" font-family="sans-serif" font-size="13" lengthAdjust="spacingAndGlyphs" textLength="140" x="279" y="387.0669">COMP_TRIGGER_STOP</text><!--MD5=[4ef321c417bd4449e4c82d82f9873a6e]
link COMP_STATE_PAUSED to COMP_STATE_PREPARE--><path d="M364.33,547.1 C388.02,540.01 411.31,528.06 426,508 C548.31,340.96 446.18,400.65 428,374 C419.93,362.17 408.53,353.19 395.86,346.38 " fill="none" id="COMP_STATE_PAUSED-&gt;COMP_STATE_PREPARE" style="stroke: #4A4A86; stroke-width: 1.0;"/><polygon fill="#4A4A86" points="391.15,343.97,397.3426,351.6284,395.6019,346.2461,400.9843,344.5054,391.15,343.97" style="stroke: #4A4A86; stroke-width: 1.0;"/><text fill="#33335B" font-family="sans-serif" font-size="13" lengthAdjust="spacingAndGlyphs" textLength="140" x="480" y="445.5669">COMP_TRIGGER_STOP</text><!--MD5=[0c46d5859d5cdcf68a9ec202b1df70b5]
link COMP_STATE_ACTIVE to COMP_STATE_PAUSED--><path d="M118.39,461.05 C91.05,472.16 69.37,487.96 85,508 C98.54,525.36 146.08,537.51 190.82,545.37 " fill="none" id="COMP_STATE_ACTIVE-&gt;COMP_STATE_PAUSED" style="stroke: #4A4A86; stroke-width: 1.0;"/><polygon fill="#4A4A86" points="195.98,546.26,187.7831,540.8001,191.0515,545.4172,186.4345,548.6857,195.98,546.26" style="stroke: #4A4A86; stroke-width: 1.0;"/><text fill="#33335B" font-family="sans-serif" font-size="13" lengthAdjust="spacingAndGlyphs" textLength="150" x="86" y="504.0669">COMP_TRIGGER_PAUSE</text><!--MD5=[34cb113936606449aae17b5ab6cd8ebe]
link COMP_STATE_PAUSED to COMP_STATE_ACTIVE--><path d="M270.64,537.82 C263.48,524.09 252.86,505.55 241,491 C233.3,481.55 223.76,472.29 214.85,464.39 " fill="none" id="COMP_STATE_PAUSED-&gt;COMP_STATE_ACTIVE" style="stroke: #4A4A86; stroke-width: 1.0;"/><polygon fill="#4A4A86" points="211.07,461.1,215.2284,470.0279,214.84,464.3844,220.4835,463.996,211.07,461.1" style="stroke: #4A4A86; stroke-width: 1.0;"/><text fill="#33335B" font-family="sans-serif" font-size="13" lengthAdjust="spacingAndGlyphs" textLength="163" x="254" y="504.0669">COMP_TRIGGER_RELEASE</text><!--MD5=[57c387c82e680128a3789abe5ede1121]
@startuml
hidefootbox
skinparam componentStyle uml2

skinparam defaultFontColor	#33335b

skinparam rectangle {
	color		#d6d6de
	backgroundColor	#ffffff
}

skinparam component {
	backgroundColor	#ffffff
	borderColor	#33335b
	arrowColor	#f05772
}

skinparam interface {
	backgroundColor	#ffffff
	borderColor	#f05772
}

skinparam class {
	backgroundColor	#ffffff
	borderColor	#33335b
	arrowColor	#f05772
}
skinparam stereotypeCBackgroundColor	#6fccdd

skinparam sequence {
	arrowColor		#4a4a86
	lifeLineBorderColor	#f05772
	groupBorderColor	#a1a1ca
	boxBorderColor		#a1a1ca
	dividerBorderColor	#d6d6de
	dividerBorderThickness	1
}
skinparam participant {
	borderColor		#33335b
	backgroundColor		#ffffff
}
skinparam actor {
	borderColor		#33335b
	backgroundColor		#ffffff
}

skinparam state {
	borderColor		#33335b
	backgroundColor		#ffffff
}

skinparam node {
	backgroundColor		#ffffff
}

skinparam note {
	backgroundColor 	#f6ed80
	borderColor		#d6d6de
}
hide empty description
[*] -right-> COMP_STATE_INIT : start of <b>comp_ops.new()</b>

COMP_STATE_INIT - -> COMP_STATE_READY : end of <b>comp_ops.new()</b>

COMP_STATE_READY - - -> COMP_STATE_PREPARE : <b>COMP_TRIGGER_PREPARE</b>

COMP_STATE_PREPARE - -> COMP_STATE_ACTIVE : <b>COMP_TRIGGER_START</b>

COMP_STATE_ACTIVE - -> COMP_STATE_PREPARE : COMP_TRIGGER_STOP
COMP_STATE_PAUSED - -> COMP_STATE_PREPARE : COMP_TRIGGER_STOP

COMP_STATE_ACTIVE -> COMP_STATE_PAUSED : COMP_TRIGGER_PAUSE

COMP_STATE_PAUSED - -> COMP_STATE_ACTIVE : COMP_TRIGGER_RELEASE

COMP_STATE_PREPARE - -> COMP_STATE_READY : COMP_TRIGGER_RESET

@enduml

PlantUML version 1.2019.12(Sun Nov 03 10:24:54 UTC 2019)
(GPL source distribution)
Java Runtime: OpenJDK Runtime Environment
JVM: OpenJDK 64-Bit Server VM
Java Version: 11.0.14.1+1
Operating System: Linux
Default Encoding: UTF-8
Language: en
Country: null
--></g></svg>