<?xml version="1.0" encoding="UTF-8" standalone="no"?><svg xmlns="http://www.w3.org/2000/svg" xmlns:xlink="http://www.w3.org/1999/xlink" contentScriptType="application/ecmascript" contentStyleType="text/css" height="792px" preserveAspectRatio="none" style="width:1148px;height:792px;" version="1.1" viewBox="0 0 1148 792" width="1148px" zoomAndPan="magnify"><defs><filter height="300%" id="f3f21i5p6n8as" width="300%" x="-1" y="-1"><feGaussianBlur result="blurOut" stdDeviation="2.0"/><feColorMatrix in="blurOut" result="blurOut2" type="matrix" values="0 0 0 0 0 0 0 0 0 0 0 0 0 0 0 0 0 0 .4 0"/><feOffset dx="4.0" dy="4.0" in="blurOut2" result="blurOut3"/><feBlend in="SourceGraphic" in2="blurOut3" mode="normal"/></filter></defs><g><!--MD5=[1b9195384ad2c337b6f09a94b611cc0b]
cluster SOF--><polygon fill="#FFFFFF" filter="url(#f3f21i5p6n8as)" points="22,24,59,24,66,46.2969,1126,46.2969,1126,780,22,780,22,24" style="stroke: #000000; stroke-width: 1.5;"/><line style="stroke: #000000; stroke-width: 1.5;" x1="22" x2="66" y1="46.2969" y2="46.2969"/><text fill="#33335B" font-family="sans-serif" font-size="14" font-weight="bold" lengthAdjust="spacingAndGlyphs" textLength="31" x="26" y="38.9951">SOF</text><!--MD5=[b02aba72c0933d018b660826330fcf9c]
cluster APP_CUSTOMIZATION--><polygon fill="#FFFFFF" filter="url(#f3f21i5p6n8as)" points="310,75,447,75,454,97.2969,1091,97.2969,1091,440,310,440,310,75" style="stroke: #000000; stroke-width: 1.5;"/><line style="stroke: #000000; stroke-width: 1.5;" x1="310" x2="454" y1="97.2969" y2="97.2969"/><text fill="#33335B" font-family="sans-serif" font-size="14" font-weight="bold" lengthAdjust="spacingAndGlyphs" textLength="131" x="314" y="89.9951">Application layer</text><!--MD5=[383881c4c7d312f8809eff84219b0271]
cluster LOADABLE_MODULE--><polygon fill="#FFFFFF" filter="url(#f3f21i5p6n8as)" points="350,287,559,287,566,309.2969,1024,309.2969,1024,400,350,400,350,287" style="stroke: #000000; stroke-width: 1.5;"/><line style="stroke: #000000; stroke-width: 1.5;" x1="350" x2="566" y1="309.2969" y2="309.2969"/><text fill="#33335B" font-family="sans-serif" font-size="14" font-weight="bold" lengthAdjust="spacingAndGlyphs" textLength="203" x="354" y="301.9951">Example Loadable Module</text><!--MD5=[1287bfc0cbe5db1ee794f1d80d81b297]
cluster BUILTIN_MODULE--><polygon fill="#FFFFFF" filter="url(#f3f21i5p6n8as)" points="350,134,472,134,479,156.2969,1043,156.2969,1043,247,350,247,350,134" style="stroke: #000000; stroke-width: 1.5;"/><line style="stroke: #000000; stroke-width: 1.5;" x1="350" x2="479" y1="156.2969" y2="156.2969"/><text fill="#33335B" font-family="sans-serif" font-size="14" font-weight="bold" lengthAdjust="spacingAndGlyphs" textLength="116" x="354" y="148.9951">Built-in Module</text><!--MD5=[484229c70bef6a5a40380a30effb1339]
cluster SYS_SERVICES--><polygon fill="#FFFFFF" filter="url(#f3f21i5p6n8as)" points="54,480,191,480,198,502.2969,1094,502.2969,1094,748,54,748,54,480" style="stroke: #000000; stroke-width: 1.5;"/><line style="stroke: #000000; stroke-width: 1.5;" x1="54" x2="198" y1="502.2969" y2="502.2969"/><text fill="#33335B" font-family="sans-serif" font-size="14" font-weight="bold" lengthAdjust="spacingAndGlyphs" textLength="131" x="58" y="494.9951">System Services</text><!--MD5=[108947d34363f80ddfb22322db30bdf0]
cluster KERNEL_EXTENSION--><polygon fill="#FFFFFF" filter="url(#f3f21i5p6n8as)" points="94,595,471,595,478,617.2969,841,617.2969,841,708,94,708,94,595" style="stroke: #000000; stroke-width: 1.5;"/><line style="stroke: #000000; stroke-width: 1.5;" x1="94" x2="478" y1="617.2969" y2="617.2969"/><text fill="#33335B" font-family="sans-serif" font-size="14" font-weight="bold" lengthAdjust="spacingAndGlyphs" textLength="371" x="98" y="609.9951">Media Processing Pipelines Services extension</text><!--MD5=[db5f58e19a5a8a766cfd90fc428bd153]
cluster ZEPHYR--><polygon fill="#FFFFFF" filter="url(#f3f21i5p6n8as)" points="881,595,944,595,951,617.2969,1046,617.2969,1046,708,881,708,881,595" style="stroke: #000000; stroke-width: 1.5;"/><line style="stroke: #000000; stroke-width: 1.5;" x1="881" x2="951" y1="617.2969" y2="617.2969"/><text fill="#33335B" font-family="sans-serif" font-size="14" font-weight="bold" lengthAdjust="spacingAndGlyphs" textLength="57" x="885" y="609.9951">Zephyr</text><!--MD5=[eed1985b5621964b193996eeb3c499e4]
entity PROCESSING_3RD_PARTY--><rect fill="#FFFFFF" filter="url(#f3f21i5p6n8as)" height="46.2969" style="stroke: #33335B; stroke-width: 1.5;" width="218" x="393" y="330"/><rect fill="#FFFFFF" height="10" style="stroke: #33335B; stroke-width: 1.5;" width="15" x="591" y="335"/><rect fill="#FFFFFF" height="2" style="stroke: #33335B; stroke-width: 1.5;" width="4" x="589" y="337"/><rect fill="#FFFFFF" height="2" style="stroke: #33335B; stroke-width: 1.5;" width="4" x="589" y="341"/><text fill="#33335B" font-family="sans-serif" font-size="14" lengthAdjust="spacingAndGlyphs" textLength="178" x="408" y="362.9951">3rd Party Post-Processing</text><!--MD5=[de1eef77fb44cb0c2b8d482f48ed3665]
entity WOV_MODULE--><rect fill="#FFFFFF" filter="url(#f3f21i5p6n8as)" height="46.2969" style="stroke: #33335B; stroke-width: 1.5;" width="71" x="646.5" y="330"/><rect fill="#FFFFFF" height="10" style="stroke: #33335B; stroke-width: 1.5;" width="15" x="697.5" y="335"/><rect fill="#FFFFFF" height="2" style="stroke: #33335B; stroke-width: 1.5;" width="4" x="695.5" y="337"/><rect fill="#FFFFFF" height="2" style="stroke: #33335B; stroke-width: 1.5;" width="4" x="695.5" y="341"/><text fill="#33335B" font-family="sans-serif" font-size="14" lengthAdjust="spacingAndGlyphs" textLength="31" x="661.5" y="362.9951">WoV</text><!--MD5=[0e425364f4832be5f144410b2d33b074]
entity ACA_MODULE--><rect fill="#FFFFFF" filter="url(#f3f21i5p6n8as)" height="46.2969" style="stroke: #33335B; stroke-width: 1.5;" width="68" x="753" y="330"/><rect fill="#FFFFFF" height="10" style="stroke: #33335B; stroke-width: 1.5;" width="15" x="801" y="335"/><rect fill="#FFFFFF" height="2" style="stroke: #33335B; stroke-width: 1.5;" width="4" x="799" y="337"/><rect fill="#FFFFFF" height="2" style="stroke: #33335B; stroke-width: 1.5;" width="4" x="799" y="341"/><text fill="#33335B" font-family="sans-serif" font-size="14" lengthAdjust="spacingAndGlyphs" textLength="28" x="768" y="362.9951">ACA</text><!--MD5=[57c6205950f95b36ea6dd841ca12a294]
entity OTHER_MODULES--><rect fill="#FFFFFF" filter="url(#f3f21i5p6n8as)" height="46.2969" style="stroke: #33335B; stroke-width: 1.5;" width="143" x="856.5" y="330"/><rect fill="#FFFFFF" height="10" style="stroke: #33335B; stroke-width: 1.5;" width="15" x="979.5" y="335"/><rect fill="#FFFFFF" height="2" style="stroke: #33335B; stroke-width: 1.5;" width="4" x="977.5" y="337"/><rect fill="#FFFFFF" height="2" style="stroke: #33335B; stroke-width: 1.5;" width="4" x="977.5" y="341"/><text fill="#33335B" font-family="sans-serif" font-size="14" lengthAdjust="spacingAndGlyphs" textLength="103" x="871.5" y="362.9951">Other modules</text><!--MD5=[81b2abae97fe9166193b5270427f45c0]
entity COPIER--><rect fill="#FFFFFF" filter="url(#f3f21i5p6n8as)" height="46.2969" style="stroke: #33335B; stroke-width: 1.5;" width="85" x="393.5" y="177"/><rect fill="#FFFFFF" height="10" style="stroke: #33335B; stroke-width: 1.5;" width="15" x="458.5" y="182"/><rect fill="#FFFFFF" height="2" style="stroke: #33335B; stroke-width: 1.5;" width="4" x="456.5" y="184"/><rect fill="#FFFFFF" height="2" style="stroke: #33335B; stroke-width: 1.5;" width="4" x="456.5" y="188"/><text fill="#33335B" font-family="sans-serif" font-size="14" lengthAdjust="spacingAndGlyphs" textLength="45" x="408.5" y="209.9951">Copier</text><!--MD5=[183d75e42a7a852d02a7f9ce2cc3343f]
entity SRC--><rect fill="#FFFFFF" filter="url(#f3f21i5p6n8as)" height="46.2969" style="stroke: #33335B; stroke-width: 1.5;" width="69" x="513.5" y="177"/><rect fill="#FFFFFF" height="10" style="stroke: #33335B; stroke-width: 1.5;" width="15" x="562.5" y="182"/><rect fill="#FFFFFF" height="2" style="stroke: #33335B; stroke-width: 1.5;" width="4" x="560.5" y="184"/><rect fill="#FFFFFF" height="2" style="stroke: #33335B; stroke-width: 1.5;" width="4" x="560.5" y="188"/><text fill="#33335B" font-family="sans-serif" font-size="14" lengthAdjust="spacingAndGlyphs" textLength="29" x="528.5" y="209.9951">SRC</text><!--MD5=[4b04cc8d72cb1110fd273e53f0958e3e]
entity MIXERS--><rect fill="#FFFFFF" filter="url(#f3f21i5p6n8as)" height="46.2969" style="stroke: #33335B; stroke-width: 1.5;" width="84" x="618" y="177"/><rect fill="#FFFFFF" height="10" style="stroke: #33335B; stroke-width: 1.5;" width="15" x="682" y="182"/><rect fill="#FFFFFF" height="2" style="stroke: #33335B; stroke-width: 1.5;" width="4" x="680" y="184"/><rect fill="#FFFFFF" height="2" style="stroke: #33335B; stroke-width: 1.5;" width="4" x="680" y="188"/><text fill="#33335B" font-family="sans-serif" font-size="14" lengthAdjust="spacingAndGlyphs" textLength="44" x="633" y="209.9951">Mixers</text><!--MD5=[236bfa44e2ecd518b2ededdb05bb1763]
entity HISTORY_BUFFER--><rect fill="#FFFFFF" filter="url(#f3f21i5p6n8as)" height="46.2969" style="stroke: #33335B; stroke-width: 1.5;" width="165" x="737.5" y="177"/><rect fill="#FFFFFF" height="10" style="stroke: #33335B; stroke-width: 1.5;" width="15" x="882.5" y="182"/><rect fill="#FFFFFF" height="2" style="stroke: #33335B; stroke-width: 1.5;" width="4" x="880.5" y="184"/><rect fill="#FFFFFF" height="2" style="stroke: #33335B; stroke-width: 1.5;" width="4" x="880.5" y="188"/><text fill="#33335B" font-family="sans-serif" font-size="14" lengthAdjust="spacingAndGlyphs" textLength="125" x="752.5" y="209.9951">History Buffer/KPB</text><!--MD5=[c999f8f65364e1ebb658d6b7fe226224]
entity PROBE--><rect fill="#FFFFFF" filter="url(#f3f21i5p6n8as)" height="46.2969" style="stroke: #33335B; stroke-width: 1.5;" width="81" x="937.5" y="177"/><rect fill="#FFFFFF" height="10" style="stroke: #33335B; stroke-width: 1.5;" width="15" x="998.5" y="182"/><rect fill="#FFFFFF" height="2" style="stroke: #33335B; stroke-width: 1.5;" width="4" x="996.5" y="184"/><rect fill="#FFFFFF" height="2" style="stroke: #33335B; stroke-width: 1.5;" width="4" x="996.5" y="188"/><text fill="#33335B" font-family="sans-serif" font-size="14" lengthAdjust="spacingAndGlyphs" textLength="41" x="952.5" y="209.9951">Probe</text><!--MD5=[84880ae5c3bf70711146fb4996ef4306]
class SS--><rect fill="#FFFFFF" filter="url(#f3f21i5p6n8as)" height="48" id="SS" style="stroke: #33335B; stroke-width: 1.5;" width="132" x="721" y="523"/><ellipse cx="736" cy="539" fill="#B4A7E5" rx="11" ry="11" style="stroke: #33335B; stroke-width: 1.0;"/><path d="M731.9219,534.7656 L731.9219,532.6094 L739.3125,532.6094 L739.3125,534.7656 L736.8438,534.7656 L736.8438,542.8438 L739.3125,542.8438 L739.3125,545 L731.9219,545 L731.9219,542.8438 L734.3906,542.8438 L734.3906,534.7656 L731.9219,534.7656 Z "/><text fill="#33335B" font-family="sans-serif" font-size="12" font-style="italic" lengthAdjust="spacingAndGlyphs" textLength="100" x="750" y="543.1543">System Services</text><line style="stroke: #33335B; stroke-width: 1.5;" x1="722" x2="852" y1="555" y2="555"/><line style="stroke: #33335B; stroke-width: 1.5;" x1="722" x2="852" y1="563" y2="563"/><!--MD5=[91b1661add713a87aaced2b2832bde16]
entity COMMUNICATION--><rect fill="#FFFFFF" filter="url(#f3f21i5p6n8as)" height="46.2969" style="stroke: #33335B; stroke-width: 1.5;" width="148" x="137" y="638"/><rect fill="#FFFFFF" height="10" style="stroke: #33335B; stroke-width: 1.5;" width="15" x="265" y="643"/><rect fill="#FFFFFF" height="2" style="stroke: #33335B; stroke-width: 1.5;" width="4" x="263" y="645"/><rect fill="#FFFFFF" height="2" style="stroke: #33335B; stroke-width: 1.5;" width="4" x="263" y="649"/><text fill="#33335B" font-family="sans-serif" font-size="14" lengthAdjust="spacingAndGlyphs" textLength="108" x="152" y="670.9951">Communication</text><!--MD5=[39473a4710e48934cd290deeaad48e0d]
entity PIPELINE_COMPONENT_INFRASTRUCTURE--><rect fill="#FFFFFF" filter="url(#f3f21i5p6n8as)" height="46.2969" style="stroke: #33335B; stroke-width: 1.5;" width="314" x="320" y="638"/><rect fill="#FFFFFF" height="10" style="stroke: #33335B; stroke-width: 1.5;" width="15" x="614" y="643"/><rect fill="#FFFFFF" height="2" style="stroke: #33335B; stroke-width: 1.5;" width="4" x="612" y="645"/><rect fill="#FFFFFF" height="2" style="stroke: #33335B; stroke-width: 1.5;" width="4" x="612" y="649"/><text fill="#33335B" font-family="sans-serif" font-size="14" lengthAdjust="spacingAndGlyphs" textLength="274" x="335" y="670.9951">Pipelines and Component Infrastructure</text><!--MD5=[baac23e0658fce5152481e098cf47f4a]
entity AVS_SCHEDULERS--><rect fill="#FFFFFF" filter="url(#f3f21i5p6n8as)" height="46.2969" style="stroke: #33335B; stroke-width: 1.5;" width="148" x="669" y="638"/><rect fill="#FFFFFF" height="10" style="stroke: #33335B; stroke-width: 1.5;" width="15" x="797" y="643"/><rect fill="#FFFFFF" height="2" style="stroke: #33335B; stroke-width: 1.5;" width="4" x="795" y="645"/><rect fill="#FFFFFF" height="2" style="stroke: #33335B; stroke-width: 1.5;" width="4" x="795" y="649"/><text fill="#33335B" font-family="sans-serif" font-size="14" lengthAdjust="spacingAndGlyphs" textLength="108" x="684" y="670.9951">AVS Scheduling</text><!--MD5=[7089780ca7565dab24142cd085e29fa4]
entity SERVICES--><rect fill="#FFFFFF" filter="url(#f3f21i5p6n8as)" height="46.2969" style="stroke: #33335B; stroke-width: 1.5;" width="98" x="924" y="638"/><rect fill="#FFFFFF" height="10" style="stroke: #33335B; stroke-width: 1.5;" width="15" x="1002" y="643"/><rect fill="#FFFFFF" height="2" style="stroke: #33335B; stroke-width: 1.5;" width="4" x="1000" y="645"/><rect fill="#FFFFFF" height="2" style="stroke: #33335B; stroke-width: 1.5;" width="4" x="1000" y="649"/><text fill="#33335B" font-family="sans-serif" font-size="14" lengthAdjust="spacingAndGlyphs" textLength="58" x="939" y="670.9951">Services</text><!--MD5=[b22478295e3d382a8b538f9461fdbed6]
link PROCESSING_3RD_PARTY to WOV_MODULE--><!--MD5=[afaaeace0af5940a065535b8afe21a78]
link WOV_MODULE to ACA_MODULE--><!--MD5=[9588f6402becb52cba2b1c353f69bd46]
link ACA_MODULE to OTHER_MODULES--><!--MD5=[9adb4925be50fd5bd0af6ff871b020f2]
link COPIER to SRC--><!--MD5=[828609bc7b60125919dd2060dbc60899]
link SRC to MIXERS--><!--MD5=[91637f9af7074646a7d0f5e05911c1e9]
link MIXERS to HISTORY_BUFFER--><!--MD5=[460d74632abba2a8a3882bc01973e2c6]
link HISTORY_BUFFER to PROBE--><!--MD5=[494011ad971e74828bb4f229b1778fa1]
link BUILTIN_MODULE to LOADABLE_MODULE--><!--MD5=[46ed31ec080125ddf97a9677eb43fe0c]
link COMMUNICATION to PIPELINE_COMPONENT_INFRASTRUCTURE--><!--MD5=[fc857fb3946eed8baee23efc2e23d81b]
link PIPELINE_COMPONENT_INFRASTRUCTURE to AVS_SCHEDULERS--><!--MD5=[054a10473eeb913360f3c7a2ac3b56d2]
link SS to KERNEL_EXTENSION--><!--MD5=[4a45edd94fa979ecb5c755b66e765ced]
link SS to ZEPHYR--><!--MD5=[943b0ff1c1c24cb1fea0e98153378a59]
link KERNEL_EXTENSION to ZEPHYR--><!--MD5=[5104f87873044250271ec376d1d096f0]
link APP_CUSTOMIZATION to SYS_SERVICES--><!--MD5=[48a0a245f7724b340d970c13470d0e74]
link BUILTIN_MODULE to SS--><path d="M364.8443,247.2381 C364.9355,247.4363 365.0279,247.6339 365.1214,247.8308 C365.3083,248.2246 365.4999,248.616 365.6962,249.0045 C366.0887,249.7816 366.5001,250.5475 366.9311,251.3004 C367.7932,252.806 368.7338,254.2591 369.7601,255.6436 C371.8127,258.4127 374.2075,260.9075 377,263 C391.21,273.64 1003.53,258.37 1016,271 C1044.89,300.25 1044.33,426.21 1016,456 C1003.81,468.82 872.87,456.19 857,464 C831.3,476.64 811.32,503.46 799.4,523 " fill="none" id="BUILTIN_MODULE-SS" style="stroke: #F05772; stroke-width: 1.0; stroke-dasharray: 7.0,7.0;"/><!--MD5=[4797890b6a8f7d1435e17bb9aa29fdf5]
link PROCESSING_3RD_PARTY to SS--><path d="M527.34,376.35 C552.34,397.91 592.05,430.87 629,456 C665.81,481.03 710,505.79 742.28,522.99 " fill="none" id="PROCESSING_3RD_PARTY-SS" style="stroke: #F05772; stroke-width: 1.0; stroke-dasharray: 7.0,7.0;"/><!--MD5=[f779a93c5a5332a2697a32b4f90e68aa]
link WOV_MODULE to SS--><path d="M693.09,376.04 C703.63,396.8 720.03,428.7 735,456 C747.58,478.94 762.59,504.77 773.24,522.85 " fill="none" id="WOV_MODULE-SS" style="stroke: #F05772; stroke-width: 1.0; stroke-dasharray: 7.0,7.0;"/><!--MD5=[6116d04c6a0c8950a04a99bd708d1284]
link ACA_MODULE to SS--><path d="M787,376.02 C787,412.57 787,485.4 787,522.74 " fill="none" id="ACA_MODULE-SS" style="stroke: #F05772; stroke-width: 1.0; stroke-dasharray: 7.0,7.0;"/><!--MD5=[9f59702cf1ae5b959d23abf158779562]
link OTHER_MODULES to SS--><path d="M911.83,376.02 C884.99,412.57 831.5,485.4 804.08,522.74 " fill="none" id="OTHER_MODULES-SS" style="stroke: #F05772; stroke-width: 1.0; stroke-dasharray: 7.0,7.0;"/><!--MD5=[941683b5cf0cf698059052e44ca99a6b]
@startuml
hidefootbox
skinparam componentStyle uml2

skinparam defaultFontColor	#33335b

skinparam rectangle {
	color		#d6d6de
	backgroundColor	#ffffff
}

skinparam component {
	backgroundColor	#ffffff
	borderColor	#33335b
	arrowColor	#f05772
}

skinparam interface {
	backgroundColor	#ffffff
	borderColor	#f05772
}

skinparam class {
	backgroundColor	#ffffff
	borderColor	#33335b
	arrowColor	#f05772
}
skinparam stereotypeCBackgroundColor	#6fccdd

skinparam sequence {
	arrowColor		#4a4a86
	lifeLineBorderColor	#f05772
	groupBorderColor	#a1a1ca
	boxBorderColor		#a1a1ca
	dividerBorderColor	#d6d6de
	dividerBorderThickness	1
}
skinparam participant {
	borderColor		#33335b
	backgroundColor		#ffffff
}
skinparam actor {
	borderColor		#33335b
	backgroundColor		#ffffff
}

skinparam state {
	borderColor		#33335b
	backgroundColor		#ffffff
}

skinparam node {
	backgroundColor		#ffffff
}

skinparam note {
	backgroundColor 	#f6ed80
	borderColor		#d6d6de
}

skinparam activity {
	borderColor		#33335b
	backgroundColor		#ffffff
}

skinparam activityDiamond {
	borderColor		#33335b
	backgroundColor		#ffffff
}

skinparam arrowColor	#f05772
skinparam maxMessageSize 400
skinparam BoxPadding 4
allowmixing

scale max 1280 width

package "SOF" {

  package "Application layer" as APP_CUSTOMIZATION {

    package "Example Loadable Module" as LOADABLE_MODULE {
      component "3rd Party Post-Processing" as PROCESSING_3RD_PARTY
      component "WoV" as WOV_MODULE
      component "ACA" as ACA_MODULE
      component "Other modules" as OTHER_MODULES

      PROCESSING_3RD_PARTY -[hidden]right- WOV_MODULE
      WOV_MODULE -[hidden]right- ACA_MODULE
      ACA_MODULE -[hidden]right- OTHER_MODULES
    }

    package "Built-in Module" as BUILTIN_MODULE {
      component "Copier" as COPIER
      component "SRC" as SRC
      component "Mixers" as MIXERS
      component "History Buffer/KPB" as HISTORY_BUFFER
      component "Probe" as PROBE

      COPIER -[hidden]right- SRC
      SRC -[hidden]right- MIXERS
      MIXERS -[hidden]right- HISTORY_BUFFER
      HISTORY_BUFFER -[hidden]right- PROBE
    }

      BUILTIN_MODULE -[hidden]down- LOADABLE_MODULE
  }

  package "System Services" as SYS_SERVICES {

    interface "System Services" as SS

    package "Media Processing Pipelines Services extension" as KERNEL_EXTENSION {
        component "Communication" as COMMUNICATION
        component "Pipelines and Component Infrastructure" as PIPELINE_COMPONENT_INFRASTRUCTURE
        component "AVS Scheduling" as AVS_SCHEDULERS

        COMMUNICATION -[hidden]right- PIPELINE_COMPONENT_INFRASTRUCTURE
        PIPELINE_COMPONENT_INFRASTRUCTURE -[hidden]right- AVS_SCHEDULERS
    }

    package "Zephyr" as ZEPHYR {
        component "Services" as SERVICES
    }

    SS -[hidden]down- KERNEL_EXTENSION
    SS -[hidden]down- ZEPHYR

    KERNEL_EXTENSION -[hidden]right- ZEPHYR
  }

  APP_CUSTOMIZATION -[hidden]down- SYS_SERVICES
  BUILTIN_MODULE .down. SS
  PROCESSING_3RD_PARTY .down. SS
  WOV_MODULE .down. SS
  ACA_MODULE .down. SS
  OTHER_MODULES .down. SS
}

@enduml

PlantUML version 1.2019.12(Sun Nov 03 10:24:54 UTC 2019)
(GPL source distribution)
Java Runtime: OpenJDK Runtime Environment
JVM: OpenJDK 64-Bit Server VM
Java Version: 11.0.24+8
Operating System: Linux
Default Encoding: UTF-8
Language: en
Country: null
--></g></svg>