<?xml version="1.0" encoding="UTF-8" standalone="no"?><svg xmlns="http://www.w3.org/2000/svg" xmlns:xlink="http://www.w3.org/1999/xlink" contentScriptType="application/ecmascript" contentStyleType="text/css" height="763px" preserveAspectRatio="none" style="width:949px;height:763px;" version="1.1" viewBox="0 0 949 763" width="949px" zoomAndPan="magnify"><defs><filter height="300%" id="fk8swa4xddon2" width="300%" x="-1" y="-1"><feGaussianBlur result="blurOut" stdDeviation="2.0"/><feColorMatrix in="blurOut" result="blurOut2" type="matrix" values="0 0 0 0 0 0 0 0 0 0 0 0 0 0 0 0 0 0 .4 0"/><feOffset dx="4.0" dy="4.0" in="blurOut2" result="blurOut3"/><feBlend in="SourceGraphic" in2="blurOut3" mode="normal"/></filter></defs><g><rect fill="#ADD8E6" height="741.9922" style="stroke: #A1A1CA; stroke-width: 1.0;" width="809" x="8" y="4"/><text fill="#33335B" font-family="sans-serif" font-size="13" font-weight="bold" lengthAdjust="spacingAndGlyphs" textLength="92" x="366.5" y="17.4951">SOF Firmware</text><rect fill="#FFFFFF" filter="url(#fk8swa4xddon2)" height="139.4063" style="stroke: #F05772; stroke-width: 1.0;" width="10" x="75" y="460.1797"/><rect fill="#FFFFFF" filter="url(#fk8swa4xddon2)" height="118.0547" style="stroke: #F05772; stroke-width: 1.0;" width="10" x="259" y="183.3672"/><rect fill="#FFFFFF" filter="url(#fk8swa4xddon2)" height="60.7031" style="stroke: #F05772; stroke-width: 1.0;" width="10" x="259" y="538.8828"/><rect fill="#FFFFFF" filter="url(#fk8swa4xddon2)" height="672.0313" style="stroke: #F05772; stroke-width: 1.0;" width="10" x="461" y="70.9609"/><rect fill="#FFFFFF" filter="url(#fk8swa4xddon2)" height="265.4609" style="stroke: #F05772; stroke-width: 1.0;" width="10" x="752" y="109.6641"/><rect fill="#FFFFFF" filter="url(#fk8swa4xddon2)" height="14" style="stroke: #F05772; stroke-width: 1.0;" width="10" x="757" y="213.7188"/><rect fill="#FFFFFF" filter="url(#fk8swa4xddon2)" height="208.1094" style="stroke: #F05772; stroke-width: 1.0;" width="10" x="752" y="421.8281"/><rect fill="#FFFFFF" filter="url(#fk8swa4xddon2)" height="57.3516" style="stroke: #F05772; stroke-width: 1.0;" width="10" x="752" y="676.6406"/><line style="stroke: #F05772; stroke-width: 1.0; stroke-dasharray: 5.0,5.0;" x1="80" x2="80" y1="60.9609" y2="751.9922"/><line style="stroke: #F05772; stroke-width: 1.0; stroke-dasharray: 5.0,5.0;" x1="263.5" x2="263.5" y1="60.9609" y2="751.9922"/><line style="stroke: #F05772; stroke-width: 1.0; stroke-dasharray: 5.0,5.0;" x1="466" x2="466" y1="60.9609" y2="751.9922"/><line style="stroke: #F05772; stroke-width: 1.0; stroke-dasharray: 5.0,5.0;" x1="757" x2="757" y1="60.9609" y2="751.9922"/><rect fill="#FFFFFF" filter="url(#fk8swa4xddon2)" height="31.6094" style="stroke: #33335B; stroke-width: 1.5;" width="132" x="12" y="24.3516"/><text fill="#33335B" font-family="sans-serif" font-size="14" lengthAdjust="spacingAndGlyphs" textLength="118" x="19" y="45.8848">Firmware Manager</text><rect fill="#FFFFFF" filter="url(#fk8swa4xddon2)" height="31.6094" style="stroke: #33335B; stroke-width: 1.5;" width="117" x="203.5" y="24.3516"/><text fill="#33335B" font-family="sans-serif" font-size="14" lengthAdjust="spacingAndGlyphs" textLength="103" x="210.5" y="45.8848">MPP Scheduling</text><rect fill="#FFFFFF" filter="url(#fk8swa4xddon2)" height="31.6094" style="stroke: #33335B; stroke-width: 1.5;" width="126" x="401" y="24.3516"/><text fill="#33335B" font-family="sans-serif" font-size="14" lengthAdjust="spacingAndGlyphs" textLength="112" x="408" y="45.8848">Zephyr Scheduler</text><rect fill="#FFFFFF" filter="url(#fk8swa4xddon2)" height="31.6094" style="stroke: #33335B; stroke-width: 1.5;" width="108" x="701" y="24.3516"/><text fill="#33335B" font-family="sans-serif" font-size="14" lengthAdjust="spacingAndGlyphs" textLength="94" x="708" y="45.8848">Zephyr Thread</text><rect fill="#FFFFFF" filter="url(#fk8swa4xddon2)" height="139.4063" style="stroke: #F05772; stroke-width: 1.0;" width="10" x="75" y="460.1797"/><rect fill="#FFFFFF" filter="url(#fk8swa4xddon2)" height="118.0547" style="stroke: #F05772; stroke-width: 1.0;" width="10" x="259" y="183.3672"/><rect fill="#FFFFFF" filter="url(#fk8swa4xddon2)" height="60.7031" style="stroke: #F05772; stroke-width: 1.0;" width="10" x="259" y="538.8828"/><rect fill="#FFFFFF" filter="url(#fk8swa4xddon2)" height="672.0313" style="stroke: #F05772; stroke-width: 1.0;" width="10" x="461" y="70.9609"/><rect fill="#FFFFFF" filter="url(#fk8swa4xddon2)" height="265.4609" style="stroke: #F05772; stroke-width: 1.0;" width="10" x="752" y="109.6641"/><rect fill="#FFFFFF" filter="url(#fk8swa4xddon2)" height="14" style="stroke: #F05772; stroke-width: 1.0;" width="10" x="757" y="213.7188"/><rect fill="#FFFFFF" filter="url(#fk8swa4xddon2)" height="208.1094" style="stroke: #F05772; stroke-width: 1.0;" width="10" x="752" y="421.8281"/><rect fill="#FFFFFF" filter="url(#fk8swa4xddon2)" height="57.3516" style="stroke: #F05772; stroke-width: 1.0;" width="10" x="752" y="676.6406"/><polygon fill="#4A4A86" points="740,105.6641,750,109.6641,740,113.6641,744,109.6641" style="stroke: #4A4A86; stroke-width: 1.0;"/><line style="stroke: #4A4A86; stroke-width: 1.0;" x1="471" x2="746" y1="109.6641" y2="109.6641"/><text fill="#33335B" font-family="sans-serif" font-size="13" lengthAdjust="spacingAndGlyphs" textLength="262" x="478" y="88.4561">schedule IPC Task with Budget (TWB) thread</text><text fill="#33335B" font-family="sans-serif" font-size="13" lengthAdjust="spacingAndGlyphs" textLength="98" x="478" y="104.8076">(MEDIUM_PRIO)</text><line style="stroke: #4A4A86; stroke-width: 1.0;" x1="762" x2="804" y1="140.0156" y2="140.0156"/><line style="stroke: #4A4A86; stroke-width: 1.0;" x1="804" x2="804" y1="140.0156" y2="153.0156"/><line style="stroke: #4A4A86; stroke-width: 1.0;" x1="763" x2="804" y1="153.0156" y2="153.0156"/><polygon fill="#4A4A86" points="773,149.0156,763,153.0156,773,157.0156,769,153.0156" style="stroke: #4A4A86; stroke-width: 1.0;"/><text fill="#33335B" font-family="sans-serif" font-size="13" lengthAdjust="spacingAndGlyphs" textLength="18" x="769" y="135.1592">run</text><polygon fill="#4A4A86" points="280,179.3672,270,183.3672,280,187.3672,276,183.3672" style="stroke: #4A4A86; stroke-width: 1.0;"/><line style="stroke: #4A4A86; stroke-width: 1.0;" x1="274" x2="751" y1="183.3672" y2="183.3672"/><text fill="#33335B" font-family="sans-serif" font-size="13" lengthAdjust="spacingAndGlyphs" textLength="138" x="286" y="178.5107">on processing complete</text><polygon fill="#4A4A86" points="745,209.7188,755,213.7188,745,217.7188,749,213.7188" style="stroke: #4A4A86; stroke-width: 1.0;"/><line style="stroke: #4A4A86; stroke-width: 1.0;" x1="269" x2="751" y1="213.7188" y2="213.7188"/><text fill="#33335B" font-family="sans-serif" font-size="13" lengthAdjust="spacingAndGlyphs" textLength="161" x="276" y="208.8623">k_thread_runtime_stats_get</text><polygon fill="#4A4A86" points="280,223.7188,270,227.7188,280,231.7188,276,227.7188" style="stroke: #4A4A86; stroke-width: 1.0;"/><line style="stroke: #4A4A86; stroke-width: 1.0; stroke-dasharray: 2.0,2.0;" x1="274" x2="751" y1="227.7188" y2="227.7188"/><line style="stroke: #4A4A86; stroke-width: 1.0;" x1="269" x2="311" y1="274.4219" y2="274.4219"/><line style="stroke: #4A4A86; stroke-width: 1.0;" x1="311" x2="311" y1="274.4219" y2="287.4219"/><line style="stroke: #4A4A86; stroke-width: 1.0;" x1="270" x2="311" y1="287.4219" y2="287.4219"/><polygon fill="#4A4A86" points="280,283.4219,270,287.4219,280,291.4219,276,287.4219" style="stroke: #4A4A86; stroke-width: 1.0;"/><text fill="#33335B" font-family="sans-serif" font-size="13" lengthAdjust="spacingAndGlyphs" textLength="166" x="276" y="253.2139">update IPC Task with budget</text><text fill="#33335B" font-family="sans-serif" font-size="13" lengthAdjust="spacingAndGlyphs" textLength="178" x="276" y="269.5654">cycles_consumed_in_sys_tick</text><polygon fill="#4A4A86" points="740,297.4219,750,301.4219,740,305.4219,744,301.4219" style="stroke: #4A4A86; stroke-width: 1.0;"/><line style="stroke: #4A4A86; stroke-width: 1.0; stroke-dasharray: 2.0,2.0;" x1="264" x2="746" y1="301.4219" y2="301.4219"/><line style="stroke: #4A4A86; stroke-width: 1.0;" x1="762" x2="804" y1="348.125" y2="348.125"/><line style="stroke: #4A4A86; stroke-width: 1.0;" x1="804" x2="804" y1="348.125" y2="361.125"/><line style="stroke: #4A4A86; stroke-width: 1.0;" x1="763" x2="804" y1="361.125" y2="361.125"/><polygon fill="#4A4A86" points="773,357.125,763,361.125,773,365.125,769,361.125" style="stroke: #4A4A86; stroke-width: 1.0;"/><text fill="#33335B" font-family="sans-serif" font-size="13" lengthAdjust="spacingAndGlyphs" textLength="168" x="769" y="326.917">suspend TWB Zephyr Thread</text><text fill="#33335B" font-family="sans-serif" font-size="13" lengthAdjust="spacingAndGlyphs" textLength="79" x="769" y="343.2686">(k_sem_take)</text><polygon fill="#4A4A86" points="482,371.125,472,375.125,482,379.125,478,375.125" style="stroke: #4A4A86; stroke-width: 1.0;"/><line style="stroke: #4A4A86; stroke-width: 1.0; stroke-dasharray: 2.0,2.0;" x1="476" x2="756" y1="375.125" y2="375.125"/><polygon fill="#4A4A86" points="740,417.8281,750,421.8281,740,425.8281,744,421.8281" style="stroke: #4A4A86; stroke-width: 1.0;"/><line style="stroke: #4A4A86; stroke-width: 1.0;" x1="471" x2="746" y1="421.8281" y2="421.8281"/><text fill="#33335B" font-family="sans-serif" font-size="13" lengthAdjust="spacingAndGlyphs" textLength="122" x="478" y="400.6201">schedule EDF thread</text><text fill="#33335B" font-family="sans-serif" font-size="13" lengthAdjust="spacingAndGlyphs" textLength="76" x="478" y="416.9717">(LOW_PRIO)</text><line style="stroke: #4A4A86; stroke-width: 1.0;" x1="762" x2="809" y1="447.1797" y2="447.1797"/><line style="stroke: #4A4A86; stroke-width: 1.0;" x1="809" x2="809" y1="447.1797" y2="460.1797"/><line style="stroke: #4A4A86; stroke-width: 1.0;" x1="768" x2="809" y1="460.1797" y2="460.1797"/><polygon fill="#4A4A86" points="778,456.1797,768,460.1797,778,464.1797,774,460.1797" style="stroke: #4A4A86; stroke-width: 1.0;"/><text fill="#33335B" font-family="sans-serif" font-size="13" lengthAdjust="spacingAndGlyphs" textLength="18" x="774" y="442.3232">run</text><line style="stroke: #4A4A86; stroke-width: 1.0;" x1="85" x2="127" y1="495.5313" y2="495.5313"/><line style="stroke: #4A4A86; stroke-width: 1.0;" x1="127" x2="127" y1="495.5313" y2="508.5313"/><line style="stroke: #4A4A86; stroke-width: 1.0;" x1="86" x2="127" y1="508.5313" y2="508.5313"/><polygon fill="#4A4A86" points="96,504.5313,86,508.5313,96,512.5313,92,508.5313" style="stroke: #4A4A86; stroke-width: 1.0;"/><text fill="#33335B" font-family="sans-serif" font-size="13" lengthAdjust="spacingAndGlyphs" textLength="160" x="92" y="490.6748">Host IPC message received</text><polygon fill="#4A4A86" points="247,534.8828,257,538.8828,247,542.8828,251,538.8828" style="stroke: #4A4A86; stroke-width: 1.0;"/><line style="stroke: #4A4A86; stroke-width: 1.0;" x1="85" x2="253" y1="538.8828" y2="538.8828"/><text fill="#33335B" font-family="sans-serif" font-size="13" lengthAdjust="spacingAndGlyphs" textLength="135" x="92" y="534.0264">request IPC processing</text><polygon fill="#4A4A86" points="740,581.5859,750,585.5859,740,589.5859,744,585.5859" style="stroke: #4A4A86; stroke-width: 1.0;"/><line style="stroke: #4A4A86; stroke-width: 1.0;" x1="269" x2="746" y1="585.5859" y2="585.5859"/><text fill="#33335B" font-family="sans-serif" font-size="13" lengthAdjust="spacingAndGlyphs" textLength="187" x="276" y="564.3779">resume IPC TWB Zephyr Thread</text><text fill="#33335B" font-family="sans-serif" font-size="13" lengthAdjust="spacingAndGlyphs" textLength="76" x="276" y="580.7295">(k_sem_give)</text><polygon fill="#4A4A86" points="91,595.5859,81,599.5859,91,603.5859,87,599.5859" style="stroke: #4A4A86; stroke-width: 1.0;"/><line style="stroke: #4A4A86; stroke-width: 1.0; stroke-dasharray: 2.0,2.0;" x1="85" x2="263" y1="599.5859" y2="599.5859"/><polygon fill="#4A4A86" points="482,625.9375,472,629.9375,482,633.9375,478,629.9375" style="stroke: #4A4A86; stroke-width: 1.0;"/><line style="stroke: #4A4A86; stroke-width: 1.0; stroke-dasharray: 2.0,2.0;" x1="476" x2="756" y1="629.9375" y2="629.9375"/><text fill="#33335B" font-family="sans-serif" font-size="13" lengthAdjust="spacingAndGlyphs" textLength="160" x="488" y="625.0811">EDF thread gets preempted</text><polygon fill="#4A4A86" points="740,672.6406,750,676.6406,740,680.6406,744,676.6406" style="stroke: #4A4A86; stroke-width: 1.0;"/><line style="stroke: #4A4A86; stroke-width: 1.0;" x1="471" x2="746" y1="676.6406" y2="676.6406"/><text fill="#33335B" font-family="sans-serif" font-size="13" lengthAdjust="spacingAndGlyphs" textLength="216" x="478" y="655.4326">schedule IPC task with budget thread</text><text fill="#33335B" font-family="sans-serif" font-size="13" lengthAdjust="spacingAndGlyphs" textLength="98" x="478" y="671.7842">(MEDIUM_PRIO)</text><line style="stroke: #4A4A86; stroke-width: 1.0;" x1="762" x2="804" y1="706.9922" y2="706.9922"/><line style="stroke: #4A4A86; stroke-width: 1.0;" x1="804" x2="804" y1="706.9922" y2="719.9922"/><line style="stroke: #4A4A86; stroke-width: 1.0;" x1="763" x2="804" y1="719.9922" y2="719.9922"/><polygon fill="#4A4A86" points="773,715.9922,763,719.9922,773,723.9922,769,719.9922" style="stroke: #4A4A86; stroke-width: 1.0;"/><text fill="#33335B" font-family="sans-serif" font-size="13" lengthAdjust="spacingAndGlyphs" textLength="18" x="769" y="702.1357">run</text><polygon fill="#4A4A86" points="482,729.9922,472,733.9922,482,737.9922,478,733.9922" style="stroke: #4A4A86; stroke-width: 1.0;"/><line style="stroke: #4A4A86; stroke-width: 1.0; stroke-dasharray: 2.0,2.0;" x1="476" x2="756" y1="733.9922" y2="733.9922"/><!--MD5=[b9e837cda3e265a2cca9f1d68ba9ce53]
@startuml
hidefootbox
skinparam componentStyle uml2

skinparam defaultFontColor	#33335b

skinparam rectangle {
	color		#d6d6de
	backgroundColor	#ffffff
}

skinparam component {
	backgroundColor	#ffffff
	borderColor	#33335b
	arrowColor	#f05772
}

skinparam interface {
	backgroundColor	#ffffff
	borderColor	#f05772
}

skinparam class {
	backgroundColor	#ffffff
	borderColor	#33335b
	arrowColor	#f05772
}
skinparam stereotypeCBackgroundColor	#6fccdd

skinparam sequence {
	arrowColor		#4a4a86
	lifeLineBorderColor	#f05772
	groupBorderColor	#a1a1ca
	boxBorderColor		#a1a1ca
	dividerBorderColor	#d6d6de
	dividerBorderThickness	1
}
skinparam participant {
	borderColor		#33335b
	backgroundColor		#ffffff
}
skinparam actor {
	borderColor		#33335b
	backgroundColor		#ffffff
}

skinparam state {
	borderColor		#33335b
	backgroundColor		#ffffff
}

skinparam node {
	backgroundColor		#ffffff
}

skinparam note {
	backgroundColor 	#f6ed80
	borderColor		#d6d6de
}

skinparam maxMessageSize 400
skinparam BoxPadding 4

box "SOF Firmware" #LightBlue
	participant "Firmware Manager"
	participant "MPP Scheduling"
	participant "Zephyr Scheduler"
	participant "Zephyr Thread"
end box

activate "Zephyr Scheduler"

"Zephyr Scheduler"-> "Zephyr Thread": schedule IPC Task with Budget (TWB) thread\n(MEDIUM_PRIO)
activate "Zephyr Thread"

	"Zephyr Thread"-> "Zephyr Thread": run
	"Zephyr Thread"-> "MPP Scheduling": on processing complete
	activate "MPP Scheduling"
		"MPP Scheduling"-> "Zephyr Thread": k_thread_runtime_stats_get
		activate "Zephyr Thread"
		return
		"MPP Scheduling"-> "MPP Scheduling": update IPC Task with budget\ncycles_consumed_in_sys_tick
	return
	"Zephyr Thread"-> "Zephyr Thread": suspend TWB Zephyr Thread\n(k_sem_take)
return

"Zephyr Scheduler"-> "Zephyr Thread": schedule EDF thread\n(LOW_PRIO)
activate "Zephyr Thread"
	"Zephyr Thread"-> "Zephyr Thread": run

	activate "Firmware Manager"
	"Firmware Manager"-> "Firmware Manager": Host IPC message received
		"Firmware Manager"-> "MPP Scheduling": request IPC processing
		activate "MPP Scheduling"
		"MPP Scheduling"-> "Zephyr Thread": resume IPC TWB Zephyr Thread\n(k_sem_give)
		"MPP Scheduling" - -> "Firmware Manager"
		deactivate "MPP Scheduling"
	deactivate "Firmware Manager"

"Zephyr Thread" - -> "Zephyr Scheduler": EDF thread gets preempted
deactivate "Zephyr Thread"

"Zephyr Scheduler"-> "Zephyr Thread": schedule IPC task with budget thread\n(MEDIUM_PRIO)
	activate "Zephyr Thread"
		"Zephyr Thread"-> "Zephyr Thread": run
	return

@enduml

PlantUML version 1.2019.12(Sun Nov 03 11:24:54 CET 2019)
(GPL source distribution)
Java Runtime: OpenJDK Runtime Environment
JVM: OpenJDK 64-Bit Server VM
Java Version: 1.8.0_302-b08
Operating System: Windows 10
Default Encoding: Cp1252
Language: en
Country: US
--></g></svg>