<?xml version="1.0" encoding="UTF-8" standalone="no"?><svg xmlns="http://www.w3.org/2000/svg" xmlns:xlink="http://www.w3.org/1999/xlink" contentScriptType="application/ecmascript" contentStyleType="text/css" height="589px" preserveAspectRatio="none" style="width:941px;height:589px;" version="1.1" viewBox="0 0 941 589" width="941px" zoomAndPan="magnify"><defs><filter height="300%" id="f13n2subo7918e" width="300%" x="-1" y="-1"><feGaussianBlur result="blurOut" stdDeviation="2.0"/><feColorMatrix in="blurOut" result="blurOut2" type="matrix" values="0 0 0 0 0 0 0 0 0 0 0 0 0 0 0 0 0 0 .4 0"/><feOffset dx="4.0" dy="4.0" in="blurOut2" result="blurOut3"/><feBlend in="SourceGraphic" in2="blurOut3" mode="normal"/></filter></defs><g><ellipse cx="16" cy="28" fill="#000000" filter="url(#f13n2subo7918e)" rx="10" ry="10" style="stroke: none; stroke-width: 1.0;"/><rect fill="#FFFFFF" filter="url(#f13n2subo7918e)" height="40" rx="12.5" ry="12.5" style="stroke: #33335B; stroke-width: 1.5;" width="136" x="235" y="8"/><text fill="#33335B" font-family="sans-serif" font-size="14" lengthAdjust="spacingAndGlyphs" textLength="126" x="240" y="32.8467">COMP_STATE_INIT</text><rect fill="#FFFFFF" filter="url(#f13n2subo7918e)" height="40" rx="12.5" ry="12.5" style="stroke: #33335B; stroke-width: 1.5;" width="159" x="223.5" y="125"/><text fill="#33335B" font-family="sans-serif" font-size="14" lengthAdjust="spacingAndGlyphs" textLength="149" x="228.5" y="149.8467">COMP_STATE_READY</text><rect fill="#FFFFFF" filter="url(#f13n2subo7918e)" height="40" rx="12.5" ry="12.5" style="stroke: #33335B; stroke-width: 1.5;" width="176" x="215" y="304"/><text fill="#33335B" font-family="sans-serif" font-size="14" lengthAdjust="spacingAndGlyphs" textLength="166" x="220" y="328.8467">COMP_STATE_PREPARE</text><rect fill="#FFFFFF" filter="url(#f13n2subo7918e)" height="40" rx="12.5" ry="12.5" style="stroke: #33335B; stroke-width: 1.5;" width="160" x="190" y="421"/><text fill="#33335B" font-family="sans-serif" font-size="14" lengthAdjust="spacingAndGlyphs" textLength="150" x="195" y="445.8467">COMP_STATE_ACTIVE</text><rect fill="#FFFFFF" filter="url(#f13n2subo7918e)" height="40" rx="12.5" ry="12.5" style="stroke: #33335B; stroke-width: 1.5;" width="168" x="346" y="538"/><text fill="#33335B" font-family="sans-serif" font-size="14" lengthAdjust="spacingAndGlyphs" textLength="158" x="351" y="562.8467">COMP_STATE_PAUSED</text><!--MD5=[3f2fa9af7dc3588883d229ca224ef419]
link *start to COMP_STATE_INIT--><path d="M26.21,28 C58.3,28 159.11,28 229.76,28 " fill="none" id="*start-&gt;COMP_STATE_INIT" style="stroke: #4A4A86; stroke-width: 1.0;"/><polygon fill="#4A4A86" points="234.79,28,225.79,24,229.79,28,225.79,32,234.79,28" style="stroke: #4A4A86; stroke-width: 1.0;"/><text fill="#33335B" font-family="sans-serif" font-size="13" lengthAdjust="spacingAndGlyphs" textLength="46" x="44.5" y="21.0669">start of</text><text fill="#33335B" font-family="sans-serif" font-size="13" font-weight="bold" lengthAdjust="spacingAndGlyphs" textLength="122" x="94.5" y="21.0669">comp_ops.new()</text><!--MD5=[2c2e8ba71b720de02b041b8c6b18dfc4]
link COMP_STATE_INIT to COMP_STATE_READY--><path d="M303,48.25 C303,67.82 303,98.21 303,119.49 " fill="none" id="COMP_STATE_INIT-&gt;COMP_STATE_READY" style="stroke: #4A4A86; stroke-width: 1.0;"/><polygon fill="#4A4A86" points="303,124.69,307,115.69,303,119.69,299,115.69,303,124.69" style="stroke: #4A4A86; stroke-width: 1.0;"/><text fill="#33335B" font-family="sans-serif" font-size="13" lengthAdjust="spacingAndGlyphs" textLength="40" x="304" y="91.0669">end of</text><text fill="#33335B" font-family="sans-serif" font-size="13" font-weight="bold" lengthAdjust="spacingAndGlyphs" textLength="122" x="348" y="91.0669">comp_ops.new()</text><!--MD5=[47445f1fafaa5737054a7992c8179a8e]
link COMP_STATE_READY to COMP_STATE_PREPARE--><path d="M256.31,165.1 C221.95,182.29 183.8,209.91 200,243 C212.37,268.26 236.98,287.84 259.05,301.31 " fill="none" id="COMP_STATE_READY-&gt;COMP_STATE_PREPARE" style="stroke: #4A4A86; stroke-width: 1.0;"/><polygon fill="#4A4A86" points="263.42,303.92,257.7605,295.8596,259.1325,301.3475,253.6446,302.7195,263.42,303.92" style="stroke: #4A4A86; stroke-width: 1.0;"/><text fill="#33335B" font-family="sans-serif" font-size="13" font-weight="bold" lengthAdjust="spacingAndGlyphs" textLength="189" x="201" y="239.0669">COMP_TRIGGER_PREPARE</text><!--MD5=[c9df9f78e3e659911d3ea3bbd25d27c3]
link COMP_STATE_PREPARE to COMP_STATE_READY--><path d="M343.46,303.88 C374.45,286.28 409.63,258.1 395,226 C383.94,201.72 361.47,181.96 341.51,168.15 " fill="none" id="COMP_STATE_PREPARE-&gt;COMP_STATE_READY" style="stroke: #4A4A86; stroke-width: 1.0;"/><polygon fill="#4A4A86" points="337.29,165.29,342.5068,173.6437,341.4326,168.0898,346.9865,167.0156,337.29,165.29" style="stroke: #4A4A86; stroke-width: 1.0;"/><text fill="#33335B" font-family="sans-serif" font-size="13" lengthAdjust="spacingAndGlyphs" textLength="146" x="400" y="239.0669">COMP_TRIGGER_RESET</text><!--MD5=[6b00e1dc5fed14cfc539e52d6886ce96]
link COMP_STATE_PREPARE to COMP_STATE_ACTIVE--><path d="M214.74,334.46 C164.11,341.91 107.58,354.38 92,374 C61.79,412.03 125.34,428.15 184.71,434.98 " fill="none" id="COMP_STATE_PREPARE-&gt;COMP_STATE_ACTIVE" style="stroke: #4A4A86; stroke-width: 1.0;"/><polygon fill="#4A4A86" points="189.71,435.53,181.1974,430.5767,184.7395,434.9872,180.329,438.5294,189.71,435.53" style="stroke: #4A4A86; stroke-width: 1.0;"/><text fill="#33335B" font-family="sans-serif" font-size="13" font-weight="bold" lengthAdjust="spacingAndGlyphs" textLength="166" x="93" y="387.0669">COMP_TRIGGER_START</text><!--MD5=[f93a8328611bcc654651b8c96614e578]
link COMP_STATE_ACTIVE to COMP_STATE_PREPARE--><path d="M275.54,420.69 C281.19,401.01 289.96,370.45 296.06,349.18 " fill="none" id="COMP_STATE_ACTIVE-&gt;COMP_STATE_PREPARE" style="stroke: #4A4A86; stroke-width: 1.0;"/><polygon fill="#4A4A86" points="297.48,344.25,291.1407,351.7874,296.0932,349.0538,298.8268,354.0063,297.48,344.25" style="stroke: #4A4A86; stroke-width: 1.0;"/><text fill="#33335B" font-family="sans-serif" font-size="13" lengthAdjust="spacingAndGlyphs" textLength="290" x="290" y="387.0669">COMP_TRIGGER_STOP, COMP_TRIGGER_XRUN</text><!--MD5=[4ef321c417bd4449e4c82d82f9873a6e]
link COMP_STATE_PAUSED to COMP_STATE_PREPARE--><path d="M514.14,546.77 C538.25,539.67 562.24,527.8 578,508 C715.59,335.19 611.13,400.24 589,374 C564.58,345.04 470.15,333.2 396.39,328.35 " fill="none" id="COMP_STATE_PAUSED-&gt;COMP_STATE_PREPARE" style="stroke: #4A4A86; stroke-width: 1.0;"/><polygon fill="#4A4A86" points="391.12,328.01,399.8505,332.5683,396.1101,328.3246,400.3538,324.5841,391.12,328.01" style="stroke: #4A4A86; stroke-width: 1.0;"/><text fill="#33335B" font-family="sans-serif" font-size="13" lengthAdjust="spacingAndGlyphs" textLength="290" x="639" y="445.5669">COMP_TRIGGER_STOP, COMP_TRIGGER_XRUN</text><!--MD5=[0c46d5859d5cdcf68a9ec202b1df70b5]
link COMP_STATE_ACTIVE to COMP_STATE_PAUSED--><path d="M248.35,461.26 C235.51,475.02 223.75,493.58 235,508 C248.54,525.36 296.08,537.51 340.82,545.37 " fill="none" id="COMP_STATE_ACTIVE-&gt;COMP_STATE_PAUSED" style="stroke: #4A4A86; stroke-width: 1.0;"/><polygon fill="#4A4A86" points="345.98,546.26,337.7831,540.8001,341.0515,545.4172,336.4345,548.6857,345.98,546.26" style="stroke: #4A4A86; stroke-width: 1.0;"/><text fill="#33335B" font-family="sans-serif" font-size="13" lengthAdjust="spacingAndGlyphs" textLength="150" x="236" y="504.0669">COMP_TRIGGER_PAUSE</text><!--MD5=[34cb113936606449aae17b5ab6cd8ebe]
link COMP_STATE_PAUSED to COMP_STATE_ACTIVE--><path d="M422.74,537.94 C416.34,523.36 405.72,503.68 391,491 C377.34,479.24 360.49,470.06 343.76,462.99 " fill="none" id="COMP_STATE_PAUSED-&gt;COMP_STATE_ACTIVE" style="stroke: #4A4A86; stroke-width: 1.0;"/><polygon fill="#4A4A86" points="339.04,461.05,345.8468,468.1681,343.6655,462.9487,348.8848,460.7673,339.04,461.05" style="stroke: #4A4A86; stroke-width: 1.0;"/><text fill="#33335B" font-family="sans-serif" font-size="13" lengthAdjust="spacingAndGlyphs" textLength="163" x="406" y="504.0669">COMP_TRIGGER_RELEASE</text><!--MD5=[85c09bdbc23e9a0bb373b847c1083e3d]
@startuml
hidefootbox
skinparam componentStyle uml2

skinparam defaultFontColor	#33335b

skinparam rectangle {
	color		#d6d6de
	backgroundColor	#ffffff
}

skinparam component {
	backgroundColor	#ffffff
	borderColor	#33335b
	arrowColor	#f05772
}

skinparam interface {
	backgroundColor	#ffffff
	borderColor	#f05772
}

skinparam class {
	backgroundColor	#ffffff
	borderColor	#33335b
	arrowColor	#f05772
}
skinparam stereotypeCBackgroundColor	#6fccdd

skinparam sequence {
	arrowColor		#4a4a86
	lifeLineBorderColor	#f05772
	groupBorderColor	#a1a1ca
	boxBorderColor		#a1a1ca
	dividerBorderColor	#d6d6de
	dividerBorderThickness	1
}
skinparam participant {
	borderColor		#33335b
	backgroundColor		#ffffff
}
skinparam actor {
	borderColor		#33335b
	backgroundColor		#ffffff
}

skinparam state {
	borderColor		#33335b
	backgroundColor		#ffffff
}

skinparam node {
	backgroundColor		#ffffff
}

skinparam note {
	backgroundColor 	#f6ed80
	borderColor		#d6d6de
}
hide empty description
[*] -right-> COMP_STATE_INIT : start of <b>comp_ops.new()</b>

COMP_STATE_INIT - -> COMP_STATE_READY : end of <b>comp_ops.new()</b>

COMP_STATE_READY - - -> COMP_STATE_PREPARE : <b>COMP_TRIGGER_PREPARE</b>

COMP_STATE_PREPARE - -> COMP_STATE_ACTIVE : <b>COMP_TRIGGER_START</b>

COMP_STATE_ACTIVE - -> COMP_STATE_PREPARE : COMP_TRIGGER_STOP, COMP_TRIGGER_XRUN
COMP_STATE_PAUSED - -> COMP_STATE_PREPARE : COMP_TRIGGER_STOP, COMP_TRIGGER_XRUN

COMP_STATE_ACTIVE -> COMP_STATE_PAUSED : COMP_TRIGGER_PAUSE

COMP_STATE_PAUSED - -> COMP_STATE_ACTIVE : COMP_TRIGGER_RELEASE

COMP_STATE_PREPARE - -> COMP_STATE_READY : COMP_TRIGGER_RESET

@enduml

PlantUML version 1.2019.12(Sun Nov 03 10:24:54 UTC 2019)
(GPL source distribution)
Java Runtime: OpenJDK Runtime Environment
JVM: OpenJDK 64-Bit Server VM
Java Version: 11.0.2+9
Operating System: Linux
Default Encoding: UTF-8
Language: en
Country: US
--></g></svg>