<?xml version="1.0" encoding="UTF-8" standalone="no"?><svg xmlns="http://www.w3.org/2000/svg" xmlns:xlink="http://www.w3.org/1999/xlink" contentScriptType="application/ecmascript" contentStyleType="text/css" height="439px" preserveAspectRatio="none" style="width:646px;height:439px;" version="1.1" viewBox="0 0 646 439" width="646px" zoomAndPan="magnify"><defs><filter height="300%" id="f1rivyehawfdoq" width="300%" x="-1" y="-1"><feGaussianBlur result="blurOut" stdDeviation="2.0"/><feColorMatrix in="blurOut" result="blurOut2" type="matrix" values="0 0 0 0 0 0 0 0 0 0 0 0 0 0 0 0 0 0 .4 0"/><feOffset dx="4.0" dy="4.0" in="blurOut2" result="blurOut3"/><feBlend in="SourceGraphic" in2="blurOut3" mode="normal"/></filter></defs><g><!--MD5=[9e4aa97db5e5c58d8bed60c7a5d4e5bc]
cluster Zephyr--><rect fill="#FFFFFF" filter="url(#f1rivyehawfdoq)" height="177" style="stroke: #33335B; stroke-width: 1.5;" width="357" x="22" y="251"/><rect fill="#FFFFFF" height="10" style="stroke: #33335B; stroke-width: 1.5;" width="15" x="359" y="256"/><rect fill="#FFFFFF" height="2" style="stroke: #33335B; stroke-width: 1.5;" width="4" x="357" y="258"/><rect fill="#FFFFFF" height="2" style="stroke: #33335B; stroke-width: 1.5;" width="4" x="357" y="262"/><text fill="#33335B" font-family="sans-serif" font-size="14" font-weight="bold" lengthAdjust="spacingAndGlyphs" textLength="48" x="176.5" y="278.5332">Zephyr</text><!--MD5=[6394d650e8413bf585d3737c169a36c8]
cluster MPP--><rect fill="#FFFFFF" filter="url(#f1rivyehawfdoq)" height="177" style="stroke: #33335B; stroke-width: 1.5;" width="319" x="316" y="24"/><rect fill="#FFFFFF" height="10" style="stroke: #33335B; stroke-width: 1.5;" width="15" x="615" y="29"/><rect fill="#FFFFFF" height="2" style="stroke: #33335B; stroke-width: 1.5;" width="4" x="613" y="31"/><rect fill="#FFFFFF" height="2" style="stroke: #33335B; stroke-width: 1.5;" width="4" x="613" y="35"/><text fill="#33335B" font-family="sans-serif" font-size="14" font-weight="bold" lengthAdjust="spacingAndGlyphs" textLength="31" x="460" y="51.5332">MPP</text><!--MD5=[b62323ee1874da9a840ce1f0edb6d2ab]
class DmicDriver--><rect fill="#FFFFFF" filter="url(#f1rivyehawfdoq)" height="32" id="DmicDriver" style="stroke: #33335B; stroke-width: 1.5;" width="93" x="265.5" y="380"/><ellipse cx="280.5" cy="396" fill="#6FCCDD" rx="11" ry="11" style="stroke: #33335B; stroke-width: 1.0;"/><path d="M283.2656,391.875 Q283.4219,391.6563 283.6094,391.5469 Q283.7969,391.4375 284.0156,391.4375 Q284.3906,391.4375 284.625,391.7031 Q284.8594,391.9531 284.8594,392.5625 L284.8594,394.0156 Q284.8594,394.625 284.625,394.8906 Q284.3906,395.1563 284.0156,395.1563 Q283.6719,395.1563 283.4688,394.9531 Q283.2656,394.7656 283.1563,394.25 Q283.1094,393.8906 282.9219,393.7031 Q282.5938,393.3281 281.9844,393.1094 Q281.375,392.8906 280.75,392.8906 Q279.9844,392.8906 279.3438,393.2188 Q278.7188,393.5469 278.2188,394.2969 Q277.7344,395.0469 277.7344,396.0781 L277.7344,397.1719 Q277.7344,398.4063 278.625,399.2344 Q279.5156,400.0469 281.1094,400.0469 Q282.0469,400.0469 282.7031,399.7969 Q283.0938,399.6406 283.5156,399.2031 Q283.7813,398.9375 283.9219,398.8594 Q284.0781,398.7813 284.2813,398.7813 Q284.6094,398.7813 284.8594,399.0469 Q285.125,399.2969 285.125,399.6406 Q285.125,399.9844 284.7813,400.3906 Q284.2813,400.9688 283.4844,401.2969 Q282.4063,401.75 281.1094,401.75 Q279.5938,401.75 278.3906,401.125 Q277.4063,400.625 276.7188,399.5625 Q276.0313,398.4844 276.0313,397.2031 L276.0313,396.0469 Q276.0313,394.7188 276.6406,393.5781 Q277.2656,392.4219 278.3594,391.8125 Q279.4531,391.1875 280.6875,391.1875 Q281.4219,391.1875 282.0625,391.3594 Q282.7188,391.5156 283.2656,391.875 Z "/><text fill="#33335B" font-family="sans-serif" font-size="12" lengthAdjust="spacingAndGlyphs" textLength="61" x="294.5" y="400.9102">DmicDriver</text><!--MD5=[79da5a0e561bb65dbcb764c35e63b0a4]
class dai_dmic_ops--><rect fill="#FFFFFF" filter="url(#f1rivyehawfdoq)" height="32" id="dai_dmic_ops" style="stroke: #33335B; stroke-width: 1.5;" width="110" x="253" y="287"/><ellipse cx="268" cy="303" fill="#B4A7E5" rx="11" ry="11" style="stroke: #33335B; stroke-width: 1.0;"/><path d="M268.9531,299.6406 L268.9531,306.2969 L270.6719,306.2969 Q271.2813,306.2969 271.5469,306.5313 Q271.8125,306.7656 271.8125,307.1563 Q271.8125,307.5313 271.5469,307.7656 Q271.2813,308 270.6719,308 L265.5313,308 Q264.9219,308 264.6563,307.7656 Q264.3906,307.5313 264.3906,307.1406 Q264.3906,306.7656 264.6563,306.5313 Q264.9219,306.2969 265.5313,306.2969 L267.25,306.2969 L267.25,299.6406 L265.5313,299.6406 Q264.9219,299.6406 264.6563,299.4063 Q264.3906,299.1719 264.3906,298.7813 Q264.3906,298.4063 264.6563,298.1719 Q264.9219,297.9375 265.5313,297.9375 L270.6719,297.9375 Q271.2813,297.9375 271.5469,298.1719 Q271.8125,298.4063 271.8125,298.7813 Q271.8125,299.1719 271.5469,299.4063 Q271.2813,299.6406 270.6719,299.6406 L268.9531,299.6406 Z "/><text fill="#33335B" font-family="sans-serif" font-size="12" font-style="italic" lengthAdjust="spacingAndGlyphs" textLength="78" x="282" y="307.9102">dai_dmic_ops</text><!--MD5=[de7e873df13dabe32eb6c6dfa36328fb]
class dai_driver_api--><rect fill="#FFFFFF" filter="url(#f1rivyehawfdoq)" height="32" id="dai_driver_api" style="stroke: #33335B; stroke-width: 1.5;" width="111" x="38.5" y="287"/><ellipse cx="53.5" cy="303" fill="#B4A7E5" rx="11" ry="11" style="stroke: #33335B; stroke-width: 1.0;"/><path d="M54.4531,299.6406 L54.4531,306.2969 L56.1719,306.2969 Q56.7813,306.2969 57.0469,306.5313 Q57.3125,306.7656 57.3125,307.1563 Q57.3125,307.5313 57.0469,307.7656 Q56.7813,308 56.1719,308 L51.0313,308 Q50.4219,308 50.1563,307.7656 Q49.8906,307.5313 49.8906,307.1406 Q49.8906,306.7656 50.1563,306.5313 Q50.4219,306.2969 51.0313,306.2969 L52.75,306.2969 L52.75,299.6406 L51.0313,299.6406 Q50.4219,299.6406 50.1563,299.4063 Q49.8906,299.1719 49.8906,298.7813 Q49.8906,298.4063 50.1563,298.1719 Q50.4219,297.9375 51.0313,297.9375 L56.1719,297.9375 Q56.7813,297.9375 57.0469,298.1719 Q57.3125,298.4063 57.3125,298.7813 Q57.3125,299.1719 57.0469,299.4063 Q56.7813,299.6406 56.1719,299.6406 L54.4531,299.6406 Z "/><text fill="#33335B" font-family="sans-serif" font-size="12" font-style="italic" lengthAdjust="spacingAndGlyphs" textLength="79" x="67.5" y="307.9102">dai_driver_api</text><!--MD5=[6de492f04047ff8a778df2bea690e363]
class Gateway--><rect fill="#FFFFFF" filter="url(#f1rivyehawfdoq)" height="32" id="Gateway" style="stroke: #33335B; stroke-width: 1.5;" width="79" x="336.5" y="60"/><ellipse cx="351.5" cy="76" fill="#B4A7E5" rx="11" ry="11" style="stroke: #33335B; stroke-width: 1.0;"/><path d="M352.4531,72.6406 L352.4531,79.2969 L354.1719,79.2969 Q354.7813,79.2969 355.0469,79.5313 Q355.3125,79.7656 355.3125,80.1563 Q355.3125,80.5313 355.0469,80.7656 Q354.7813,81 354.1719,81 L349.0313,81 Q348.4219,81 348.1563,80.7656 Q347.8906,80.5313 347.8906,80.1406 Q347.8906,79.7656 348.1563,79.5313 Q348.4219,79.2969 349.0313,79.2969 L350.75,79.2969 L350.75,72.6406 L349.0313,72.6406 Q348.4219,72.6406 348.1563,72.4063 Q347.8906,72.1719 347.8906,71.7813 Q347.8906,71.4063 348.1563,71.1719 Q348.4219,70.9375 349.0313,70.9375 L354.1719,70.9375 Q354.7813,70.9375 355.0469,71.1719 Q355.3125,71.4063 355.3125,71.7813 Q355.3125,72.1719 355.0469,72.4063 Q354.7813,72.6406 354.1719,72.6406 L352.4531,72.6406 Z "/><text fill="#33335B" font-family="sans-serif" font-size="12" font-style="italic" lengthAdjust="spacingAndGlyphs" textLength="47" x="365.5" y="80.9102">Gateway</text><!--MD5=[b964af19f160f0552db2c645a9120b61]
class IoDriver--><rect fill="#FFFFFF" filter="url(#f1rivyehawfdoq)" height="32" id="IoDriver" style="stroke: #33335B; stroke-width: 1.5;" width="76" x="526" y="60"/><ellipse cx="541" cy="76" fill="#B4A7E5" rx="11" ry="11" style="stroke: #33335B; stroke-width: 1.0;"/><path d="M541.9531,72.6406 L541.9531,79.2969 L543.6719,79.2969 Q544.2813,79.2969 544.5469,79.5313 Q544.8125,79.7656 544.8125,80.1563 Q544.8125,80.5313 544.5469,80.7656 Q544.2813,81 543.6719,81 L538.5313,81 Q537.9219,81 537.6563,80.7656 Q537.3906,80.5313 537.3906,80.1406 Q537.3906,79.7656 537.6563,79.5313 Q537.9219,79.2969 538.5313,79.2969 L540.25,79.2969 L540.25,72.6406 L538.5313,72.6406 Q537.9219,72.6406 537.6563,72.4063 Q537.3906,72.1719 537.3906,71.7813 Q537.3906,71.4063 537.6563,71.1719 Q537.9219,70.9375 538.5313,70.9375 L543.6719,70.9375 Q544.2813,70.9375 544.5469,71.1719 Q544.8125,71.4063 544.8125,71.7813 Q544.8125,72.1719 544.5469,72.4063 Q544.2813,72.6406 543.6719,72.6406 L541.9531,72.6406 Z "/><text fill="#33335B" font-family="sans-serif" font-size="12" font-style="italic" lengthAdjust="spacingAndGlyphs" textLength="44" x="555" y="80.9102">IoDriver</text><!--MD5=[08a3ec142fb1084e3bf1352b7826c3ff]
class DmicManager--><rect fill="#FFFFFF" filter="url(#f1rivyehawfdoq)" height="32" id="DmicManager" style="stroke: #33335B; stroke-width: 1.5;" width="109" x="509.5" y="153"/><ellipse cx="524.5" cy="169" fill="#6FCCDD" rx="11" ry="11" style="stroke: #33335B; stroke-width: 1.0;"/><path d="M527.2656,164.875 Q527.4219,164.6563 527.6094,164.5469 Q527.7969,164.4375 528.0156,164.4375 Q528.3906,164.4375 528.625,164.7031 Q528.8594,164.9531 528.8594,165.5625 L528.8594,167.0156 Q528.8594,167.625 528.625,167.8906 Q528.3906,168.1563 528.0156,168.1563 Q527.6719,168.1563 527.4688,167.9531 Q527.2656,167.7656 527.1563,167.25 Q527.1094,166.8906 526.9219,166.7031 Q526.5938,166.3281 525.9844,166.1094 Q525.375,165.8906 524.75,165.8906 Q523.9844,165.8906 523.3438,166.2188 Q522.7188,166.5469 522.2188,167.2969 Q521.7344,168.0469 521.7344,169.0781 L521.7344,170.1719 Q521.7344,171.4063 522.625,172.2344 Q523.5156,173.0469 525.1094,173.0469 Q526.0469,173.0469 526.7031,172.7969 Q527.0938,172.6406 527.5156,172.2031 Q527.7813,171.9375 527.9219,171.8594 Q528.0781,171.7813 528.2813,171.7813 Q528.6094,171.7813 528.8594,172.0469 Q529.125,172.2969 529.125,172.6406 Q529.125,172.9844 528.7813,173.3906 Q528.2813,173.9688 527.4844,174.2969 Q526.4063,174.75 525.1094,174.75 Q523.5938,174.75 522.3906,174.125 Q521.4063,173.625 520.7188,172.5625 Q520.0313,171.4844 520.0313,170.2031 L520.0313,169.0469 Q520.0313,167.7188 520.6406,166.5781 Q521.2656,165.4219 522.3594,164.8125 Q523.4531,164.1875 524.6875,164.1875 Q525.4219,164.1875 526.0625,164.3594 Q526.7188,164.5156 527.2656,164.875 Z "/><text fill="#33335B" font-family="sans-serif" font-size="12" lengthAdjust="spacingAndGlyphs" textLength="77" x="538.5" y="173.9102">DmicManager</text><!--MD5=[eb6d85d5b8852d59760b5c3fa53f96b5]
class DmicInput--><rect fill="#FFFFFF" filter="url(#f1rivyehawfdoq)" height="32" id="DmicInput" style="stroke: #33335B; stroke-width: 1.5;" width="88" x="332" y="153"/><ellipse cx="347" cy="169" fill="#6FCCDD" rx="11" ry="11" style="stroke: #33335B; stroke-width: 1.0;"/><path d="M349.7656,164.875 Q349.9219,164.6563 350.1094,164.5469 Q350.2969,164.4375 350.5156,164.4375 Q350.8906,164.4375 351.125,164.7031 Q351.3594,164.9531 351.3594,165.5625 L351.3594,167.0156 Q351.3594,167.625 351.125,167.8906 Q350.8906,168.1563 350.5156,168.1563 Q350.1719,168.1563 349.9688,167.9531 Q349.7656,167.7656 349.6563,167.25 Q349.6094,166.8906 349.4219,166.7031 Q349.0938,166.3281 348.4844,166.1094 Q347.875,165.8906 347.25,165.8906 Q346.4844,165.8906 345.8438,166.2188 Q345.2188,166.5469 344.7188,167.2969 Q344.2344,168.0469 344.2344,169.0781 L344.2344,170.1719 Q344.2344,171.4063 345.125,172.2344 Q346.0156,173.0469 347.6094,173.0469 Q348.5469,173.0469 349.2031,172.7969 Q349.5938,172.6406 350.0156,172.2031 Q350.2813,171.9375 350.4219,171.8594 Q350.5781,171.7813 350.7813,171.7813 Q351.1094,171.7813 351.3594,172.0469 Q351.625,172.2969 351.625,172.6406 Q351.625,172.9844 351.2813,173.3906 Q350.7813,173.9688 349.9844,174.2969 Q348.9063,174.75 347.6094,174.75 Q346.0938,174.75 344.8906,174.125 Q343.9063,173.625 343.2188,172.5625 Q342.5313,171.4844 342.5313,170.2031 L342.5313,169.0469 Q342.5313,167.7188 343.1406,166.5781 Q343.7656,165.4219 344.8594,164.8125 Q345.9531,164.1875 347.1875,164.1875 Q347.9219,164.1875 348.5625,164.3594 Q349.2188,164.5156 349.7656,164.875 Z "/><text fill="#33335B" font-family="sans-serif" font-size="12" lengthAdjust="spacingAndGlyphs" textLength="56" x="361" y="173.9102">DmicInput</text><!--MD5=[f65ad7c7b6268df6e0885375312d3049]
link dai_dmic_ops to DmicDriver--><path d="M308.66,319.03 C309.4,335.89 310.6,363.08 311.34,379.95 " fill="none" id="dai_dmic_ops-DmicDriver" style="stroke: #F05772; stroke-width: 1.0;"/><!--MD5=[9b92cb896d204a43ef177f92c39cce11]
reverse link dai_driver_api to dai_dmic_ops--><path d="M169.91,303 C197.32,303 227.71,303 252.98,303 " fill="none" id="dai_driver_api&lt;-dai_dmic_ops" style="stroke: #F05772; stroke-width: 1.0;"/><polygon fill="none" points="169.67,310,149.67,303,169.67,296,169.67,310" style="stroke: #F05772; stroke-width: 1.0;"/><text fill="#33335B" font-family="sans-serif" font-size="13" lengthAdjust="spacingAndGlyphs" textLength="67" x="167.75" y="296.4951">implements</text><!--MD5=[beed8db8479c1d19520f14ef16bd6505]
link IoDriver to DmicManager--><path d="M564,92.03 C564,108.89 564,136.08 564,152.95 " fill="none" id="IoDriver-DmicManager" style="stroke: #F05772; stroke-width: 1.0;"/><!--MD5=[44b8fbf50836c2b3e341bc150413378d]
reverse link DmicInput to DmicManager--><path d="M425.17,169 C451.04,169 482.82,169 509.44,169 " fill="none" id="DmicInput&lt;-DmicManager" style="stroke: #F05772; stroke-width: 1.0;"/><polygon fill="#F05772" points="420.08,169,429.08,173,425.08,169,429.08,165,420.08,169" style="stroke: #F05772; stroke-width: 1.0;"/><text fill="#33335B" font-family="sans-serif" font-size="13" lengthAdjust="spacingAndGlyphs" textLength="53" x="438.25" y="162.4951">manages</text><!--MD5=[9107a352db4f0cf08cbb304d6fa8bc78]
link Gateway to DmicInput--><path d="M376,92.03 C376,108.89 376,136.08 376,152.95 " fill="none" id="Gateway-DmicInput" style="stroke: #F05772; stroke-width: 1.0;"/><!--MD5=[ea233d80a5f8fb421f1c23cd05156b45]
link DmicInput to dai_dmic_ops--><path d="M368.2,185.14 C355.92,208.98 332.06,255.3 318.35,281.9 " fill="none" id="DmicInput-&gt;dai_dmic_ops" style="stroke: #F05772; stroke-width: 1.0;"/><polygon fill="#F05772" points="315.92,286.63,323.5942,280.4569,318.2074,282.1839,316.4804,276.7971,315.92,286.63" style="stroke: #F05772; stroke-width: 1.0;"/><text fill="#33335B" font-family="sans-serif" font-size="13" lengthAdjust="spacingAndGlyphs" textLength="27" x="351" y="231.4951">calls</text><!--MD5=[c616a11418d3fb35c5c67d95128cb014]
link DmicDriver to DmicInput--><path d="M331.64,379.89 C348.02,366.03 370.35,343.9 381,319 C397.86,279.59 390.81,228.8 383.73,197.86 " fill="none" id="DmicDriver-&gt;DmicInput" style="stroke: #F05772; stroke-width: 1.0;"/><polygon fill="#F05772" points="380.56,185.15,378.1292,191.9391,383.4611,196.794,385.8919,190.005,380.56,185.15" style="stroke: #F05772; stroke-width: 1.0;"/><!--MD5=[f1702a496df960d9dee6beab6bfb9867]
@startuml
hidefootbox
skinparam componentStyle uml2

skinparam defaultFontColor	#33335b

skinparam rectangle {
	color		#d6d6de
	backgroundColor	#ffffff
}

skinparam queue {
	color		#d6d6de
	backgroundColor	#ffffff
}

skinparam component {
	backgroundColor	#ffffff
	borderColor	#33335b
	arrowColor	#f05772
}

skinparam interface {
	backgroundColor	#ffffff
	borderColor	#f05772
}

skinparam class {
	backgroundColor	#ffffff
	borderColor	#33335b
	arrowColor	#f05772
}
skinparam stereotypeCBackgroundColor	#6fccdd

skinparam sequence {
	arrowColor		#4a4a86
	lifeLineBorderColor	#f05772
	groupBorderColor	#a1a1ca
	boxBorderColor		#a1a1ca
	dividerBorderColor	#d6d6de
	dividerBorderThickness	1
}
skinparam participant {
	borderColor		#33335b
	backgroundColor		#ffffff
}
skinparam actor {
	borderColor		#33335b
	backgroundColor		#ffffff
}

skinparam state {
	borderColor		#33335b
	backgroundColor		#ffffff
}

skinparam node {
	backgroundColor		#ffffff
}

skinparam note {
	backgroundColor 	#f6ed80
	borderColor		#d6d6de
}

skinparam activity {
	borderColor		#33335b
	backgroundColor		#ffffff
}

skinparam activityDiamond {
	borderColor		#33335b
	backgroundColor		#ffffff
}

skinparam arrowColor	#f05772
skinparam maxMessageSize 400
skinparam BoxPadding 4

hide methods
hide attributes

component Zephyr {
	class DmicDriver
	interface dai_dmic_ops
	interface dai_driver_api
}

component MPP {
	interface Gateway

	interface IoDriver
	class DmicManager
	class DmicInput
}

DmicDriver -up- dai_dmic_ops

dai_dmic_ops -left-|> dai_driver_api : implements

DmicManager -up- IoDriver
DmicManager -left-> DmicInput : manages
DmicInput -up- Gateway
DmicInput -down-> dai_dmic_ops : calls
DmicDriver - -* DmicInput

@enduml

PlantUML version 1.2019.12(Sun Nov 03 11:24:54 CET 2019)
(GPL source distribution)
Java Runtime: OpenJDK Runtime Environment
JVM: OpenJDK 64-Bit Server VM
Java Version: 1.8.0_302-b08
Operating System: Windows 10
Default Encoding: Cp1252
Language: en
Country: US
--></g></svg>