<?xml version="1.0" encoding="UTF-8" standalone="no"?><svg xmlns="http://www.w3.org/2000/svg" xmlns:xlink="http://www.w3.org/1999/xlink" contentScriptType="application/ecmascript" contentStyleType="text/css" height="380px" preserveAspectRatio="none" style="width:732px;height:380px;" version="1.1" viewBox="0 0 732 380" width="732px" zoomAndPan="magnify"><defs><filter height="300%" id="fdq63154j8uwj" width="300%" x="-1" y="-1"><feGaussianBlur result="blurOut" stdDeviation="2.0"/><feColorMatrix in="blurOut" result="blurOut2" type="matrix" values="0 0 0 0 0 0 0 0 0 0 0 0 0 0 0 0 0 0 .4 0"/><feOffset dx="4.0" dy="4.0" in="blurOut2" result="blurOut3"/><feBlend in="SourceGraphic" in2="blurOut3" mode="normal"/></filter></defs><g><rect fill="#FFFFFF" filter="url(#fdq63154j8uwj)" height="149.4063" style="stroke: #F05772; stroke-width: 1.0;" width="10" x="174" y="71.9609"/><rect fill="#FFFFFF" filter="url(#fdq63154j8uwj)" height="30.3516" style="stroke: #F05772; stroke-width: 1.0;" width="10" x="388" y="102.3125"/><rect fill="#FFFFFF" filter="url(#fdq63154j8uwj)" height="102.7031" style="stroke: #F05772; stroke-width: 1.0;" width="10" x="470.5" y="256.7188"/><rect fill="#FFFFFF" filter="url(#fdq63154j8uwj)" height="44.3516" style="stroke: #F05772; stroke-width: 1.0;" width="10" x="592.5" y="163.0156"/><rect fill="#FFFFFF" filter="url(#fdq63154j8uwj)" height="67.3516" style="stroke: #F05772; stroke-width: 1.0;" width="10" x="592.5" y="292.0703"/><rect fill="#FFFFFF" filter="url(#fdq63154j8uwj)" height="166.0547" style="stroke: #F05772; stroke-width: 1.0;" width="10" x="665.5" y="193.3672"/><line style="stroke: #F05772; stroke-width: 1.0; stroke-dasharray: 5.0,5.0;" x1="31" x2="31" y1="39.6094" y2="368.4219"/><line style="stroke: #F05772; stroke-width: 1.0; stroke-dasharray: 5.0,5.0;" x1="179" x2="179" y1="39.6094" y2="368.4219"/><line style="stroke: #F05772; stroke-width: 1.0; stroke-dasharray: 5.0,5.0;" x1="392.5" x2="392.5" y1="39.6094" y2="368.4219"/><line style="stroke: #F05772; stroke-width: 1.0; stroke-dasharray: 5.0,5.0;" x1="475.5" x2="475.5" y1="39.6094" y2="368.4219"/><line style="stroke: #F05772; stroke-width: 1.0; stroke-dasharray: 5.0,5.0;" x1="597" x2="597" y1="39.6094" y2="368.4219"/><line style="stroke: #F05772; stroke-width: 1.0; stroke-dasharray: 5.0,5.0;" x1="670.5" x2="670.5" y1="39.6094" y2="368.4219"/><rect fill="#FFFFFF" filter="url(#fdq63154j8uwj)" height="31.6094" style="stroke: #33335B; stroke-width: 1.5;" width="42" x="8" y="3"/><text fill="#33335B" font-family="sans-serif" font-size="14" lengthAdjust="spacingAndGlyphs" textLength="28" x="15" y="24.5332">Host</text><rect fill="#FFFFFF" filter="url(#fdq63154j8uwj)" height="31.6094" style="stroke: #33335B; stroke-width: 1.5;" width="32" x="161" y="3"/><text fill="#33335B" font-family="sans-serif" font-size="14" lengthAdjust="spacingAndGlyphs" textLength="18" x="168" y="24.5332">ipc</text><rect fill="#FFFFFF" filter="url(#fdq63154j8uwj)" height="31.6094" style="stroke: #33335B; stroke-width: 1.5;" width="65" x="358.5" y="3"/><text fill="#33335B" font-family="sans-serif" font-size="14" lengthAdjust="spacingAndGlyphs" textLength="51" x="365.5" y="24.5332">platform</text><rect fill="#FFFFFF" filter="url(#fdq63154j8uwj)" height="31.6094" style="stroke: #33335B; stroke-width: 1.5;" width="72" x="437.5" y="3"/><text fill="#33335B" font-family="sans-serif" font-size="14" lengthAdjust="spacingAndGlyphs" textLength="58" x="444.5" y="24.5332">audio/dai</text><rect fill="#FFFFFF" filter="url(#fdq63154j8uwj)" height="31.6094" style="stroke: #33335B; stroke-width: 1.5;" width="33" x="579" y="3"/><text fill="#33335B" font-family="sans-serif" font-size="14" lengthAdjust="spacingAndGlyphs" textLength="19" x="586" y="24.5332">dai</text><rect fill="#FFFFFF" filter="url(#fdq63154j8uwj)" height="31.6094" style="stroke: #33335B; stroke-width: 1.5;" width="58" x="639.5" y="3"/><text fill="#33335B" font-family="sans-serif" font-size="14" lengthAdjust="spacingAndGlyphs" textLength="44" x="646.5" y="24.5332">dai_hw</text><rect fill="#FFFFFF" filter="url(#fdq63154j8uwj)" height="149.4063" style="stroke: #F05772; stroke-width: 1.0;" width="10" x="174" y="71.9609"/><rect fill="#FFFFFF" filter="url(#fdq63154j8uwj)" height="30.3516" style="stroke: #F05772; stroke-width: 1.0;" width="10" x="388" y="102.3125"/><rect fill="#FFFFFF" filter="url(#fdq63154j8uwj)" height="102.7031" style="stroke: #F05772; stroke-width: 1.0;" width="10" x="470.5" y="256.7188"/><rect fill="#FFFFFF" filter="url(#fdq63154j8uwj)" height="44.3516" style="stroke: #F05772; stroke-width: 1.0;" width="10" x="592.5" y="163.0156"/><rect fill="#FFFFFF" filter="url(#fdq63154j8uwj)" height="67.3516" style="stroke: #F05772; stroke-width: 1.0;" width="10" x="592.5" y="292.0703"/><rect fill="#FFFFFF" filter="url(#fdq63154j8uwj)" height="166.0547" style="stroke: #F05772; stroke-width: 1.0;" width="10" x="665.5" y="193.3672"/><polygon fill="#4A4A86" points="162,67.9609,172,71.9609,162,75.9609,166,71.9609" style="stroke: #4A4A86; stroke-width: 1.0;"/><line style="stroke: #4A4A86; stroke-width: 1.0;" x1="31" x2="168" y1="71.9609" y2="71.9609"/><text fill="#33335B" font-family="sans-serif" font-size="13" lengthAdjust="spacingAndGlyphs" textLength="124" x="38" y="67.1045">ipc_dai_config(config)</text><polygon fill="#4A4A86" points="376,98.3125,386,102.3125,376,106.3125,380,102.3125" style="stroke: #4A4A86; stroke-width: 1.0;"/><line style="stroke: #4A4A86; stroke-width: 1.0;" x1="184" x2="382" y1="102.3125" y2="102.3125"/><text fill="#33335B" font-family="sans-serif" font-size="13" lengthAdjust="spacingAndGlyphs" textLength="185" x="191" y="97.4561">dai_get(config-&gt;type, config-&gt;id)</text><polygon fill="#4A4A86" points="195,128.6641,185,132.6641,195,136.6641,191,132.6641" style="stroke: #4A4A86; stroke-width: 1.0;"/><line style="stroke: #4A4A86; stroke-width: 1.0; stroke-dasharray: 2.0,2.0;" x1="189" x2="392" y1="132.6641" y2="132.6641"/><text fill="#33335B" font-family="sans-serif" font-size="13" lengthAdjust="spacingAndGlyphs" textLength="36" x="201" y="127.8076">dai ptr</text><polygon fill="#4A4A86" points="580.5,159.0156,590.5,163.0156,580.5,167.0156,584.5,163.0156" style="stroke: #4A4A86; stroke-width: 1.0;"/><line style="stroke: #4A4A86; stroke-width: 1.0;" x1="184" x2="586.5" y1="163.0156" y2="163.0156"/><text fill="#33335B" font-family="sans-serif" font-size="13" lengthAdjust="spacingAndGlyphs" textLength="125" x="191" y="158.1592">dai_set_config(config)</text><polygon fill="#4A4A86" points="653.5,189.3672,663.5,193.3672,653.5,197.3672,657.5,193.3672" style="stroke: #4A4A86; stroke-width: 1.0;"/><line style="stroke: #4A4A86; stroke-width: 1.0;" x1="602.5" x2="659.5" y1="193.3672" y2="193.3672"/><text fill="#33335B" font-family="sans-serif" font-size="13" lengthAdjust="spacingAndGlyphs" textLength="32" x="609.5" y="188.5107">setup</text><polygon fill="#4A4A86" points="195,203.3672,185,207.3672,195,211.3672,191,207.3672" style="stroke: #4A4A86; stroke-width: 1.0;"/><line style="stroke: #4A4A86; stroke-width: 1.0; stroke-dasharray: 2.0,2.0;" x1="189" x2="596.5" y1="207.3672" y2="207.3672"/><polygon fill="#4A4A86" points="42,217.3672,32,221.3672,42,225.3672,38,221.3672" style="stroke: #4A4A86; stroke-width: 1.0;"/><line style="stroke: #4A4A86; stroke-width: 1.0; stroke-dasharray: 2.0,2.0;" x1="36" x2="178" y1="221.3672" y2="221.3672"/><polygon fill="#4A4A86" points="458.5,252.7188,468.5,256.7188,458.5,260.7188,462.5,256.7188" style="stroke: #4A4A86; stroke-width: 1.0;"/><line style="stroke: #4A4A86; stroke-width: 1.0;" x1="31" x2="464.5" y1="256.7188" y2="256.7188"/><text fill="#33335B" font-family="sans-serif" font-size="13" lengthAdjust="spacingAndGlyphs" textLength="132" x="38" y="251.8623">dai_comp_trigger(cmd)</text><path d="M485,234.3672 L485,260.3672 L720,260.3672 L720,244.3672 L710,234.3672 L485,234.3672 " fill="#F6ED80" filter="url(#fdq63154j8uwj)" style="stroke: #D6D6DE; stroke-width: 1.0;"/><path d="M710,234.3672 L710,244.3672 L720,244.3672 L710,234.3672 " fill="#F6ED80" style="stroke: #D6D6DE; stroke-width: 1.0;"/><text fill="#33335B" font-family="sans-serif" font-size="13" lengthAdjust="spacingAndGlyphs" textLength="214" x="491" y="252.8623">Full call path includes parent pipeline</text><polygon fill="#4A4A86" points="580.5,288.0703,590.5,292.0703,580.5,296.0703,584.5,292.0703" style="stroke: #4A4A86; stroke-width: 1.0;"/><line style="stroke: #4A4A86; stroke-width: 1.0;" x1="480.5" x2="586.5" y1="292.0703" y2="292.0703"/><text fill="#33335B" font-family="sans-serif" font-size="13" lengthAdjust="spacingAndGlyphs" textLength="93" x="487.5" y="287.2139">dai_trigger(cmd)</text><polygon fill="#4A4A86" points="653.5,318.4219,663.5,322.4219,653.5,326.4219,657.5,322.4219" style="stroke: #4A4A86; stroke-width: 1.0;"/><line style="stroke: #4A4A86; stroke-width: 1.0;" x1="602.5" x2="659.5" y1="322.4219" y2="322.4219"/><text fill="#33335B" font-family="sans-serif" font-size="13" lengthAdjust="spacingAndGlyphs" textLength="39" x="609.5" y="317.5654">update</text><polygon fill="#4A4A86" points="491.5,332.4219,481.5,336.4219,491.5,340.4219,487.5,336.4219" style="stroke: #4A4A86; stroke-width: 1.0;"/><line style="stroke: #4A4A86; stroke-width: 1.0; stroke-dasharray: 2.0,2.0;" x1="485.5" x2="591.5" y1="336.4219" y2="336.4219"/><polygon fill="#4A4A86" points="42,346.4219,32,350.4219,42,354.4219,38,350.4219" style="stroke: #4A4A86; stroke-width: 1.0;"/><line style="stroke: #4A4A86; stroke-width: 1.0; stroke-dasharray: 2.0,2.0;" x1="36" x2="469.5" y1="350.4219" y2="350.4219"/><!--MD5=[7da8821f87b28cfc7263db1dc7509afd]
@startuml
hidefootbox
skinparam componentStyle uml2

skinparam defaultFontColor	#33335b

skinparam rectangle {
	color		#d6d6de
	backgroundColor	#ffffff
}

skinparam component {
	backgroundColor	#ffffff
	borderColor	#33335b
	arrowColor	#f05772
}

skinparam interface {
	backgroundColor	#ffffff
	borderColor	#f05772
}

skinparam class {
	backgroundColor	#ffffff
	borderColor	#33335b
	arrowColor	#f05772
}
skinparam stereotypeCBackgroundColor	#6fccdd

skinparam sequence {
	arrowColor		#4a4a86
	lifeLineBorderColor	#f05772
	groupBorderColor	#a1a1ca
	boxBorderColor		#a1a1ca
	dividerBorderColor	#d6d6de
	dividerBorderThickness	1
}
skinparam participant {
	borderColor		#33335b
	backgroundColor		#ffffff
}
skinparam actor {
	borderColor		#33335b
	backgroundColor		#ffffff
}

skinparam state {
	borderColor		#33335b
	backgroundColor		#ffffff
}

skinparam node {
	backgroundColor		#ffffff
}

skinparam note {
	backgroundColor 	#f6ed80
	borderColor		#d6d6de
}
participant host as "Host"
participant ipc
participant platform
participant dai_comp as "audio/dai"
participant dai
participant dai_hw

host -> ipc : ipc_dai_config(config)
   activate ipc

   ipc -> platform : dai_get(config->type, config->id)
      activate platform
   ipc <- - platform : dai ptr
   deactivate platform

   ipc -> dai : dai_set_config(config)
      activate dai
      dai -> dai_hw : setup
      activate dai_hw
   ipc <- - dai
   deactivate dai

host <- - ipc
deactivate ipc

host -> dai_comp : dai_comp_trigger(cmd)
   note right: Full call path includes parent pipeline
   activate dai_comp
   dai_comp -> dai : dai_trigger(cmd)
      activate dai
      dai -> dai_hw : update
   dai_comp <- - dai
host <- - dai_comp

@enduml

PlantUML version 1.2019.12(Sun Nov 03 11:24:54 CET 2019)
(GPL source distribution)
Java Runtime: OpenJDK Runtime Environment
JVM: OpenJDK 64-Bit Server VM
Java Version: 1.8.0_302-b08
Operating System: Windows 10
Default Encoding: Cp1252
Language: en
Country: US
--></g></svg>