<?xml version="1.0" encoding="UTF-8" standalone="no"?><svg xmlns="http://www.w3.org/2000/svg" xmlns:xlink="http://www.w3.org/1999/xlink" contentScriptType="application/ecmascript" contentStyleType="text/css" height="732px" preserveAspectRatio="none" style="width:1118px;height:732px;" version="1.1" viewBox="0 0 1118 732" width="1118px" zoomAndPan="magnify"><defs><filter height="300%" id="fa5pgr4v3s9mx" width="300%" x="-1" y="-1"><feGaussianBlur result="blurOut" stdDeviation="2.0"/><feColorMatrix in="blurOut" result="blurOut2" type="matrix" values="0 0 0 0 0 0 0 0 0 0 0 0 0 0 0 0 0 0 .4 0"/><feOffset dx="4.0" dy="4.0" in="blurOut2" result="blurOut3"/><feBlend in="SourceGraphic" in2="blurOut3" mode="normal"/></filter></defs><g><rect fill="#87CEFA" height="710.7578" style="stroke: #A1A1CA; stroke-width: 1.0;" width="64" x="19" y="4"/><text fill="#33335B" font-family="sans-serif" font-size="13" font-weight="bold" lengthAdjust="spacingAndGlyphs" textLength="34" x="34" y="16.0669">Host</text><rect fill="#ADD8E6" height="710.7578" style="stroke: #A1A1CA; stroke-width: 1.0;" width="681" x="238.5" y="4"/><text fill="#33335B" font-family="sans-serif" font-size="13" font-weight="bold" lengthAdjust="spacingAndGlyphs" textLength="29" x="564.5" y="16.0669">SOF</text><rect fill="#90EE90" height="710.7578" style="stroke: #A1A1CA; stroke-width: 1.0;" width="143" x="947.5" y="4"/><text fill="#33335B" font-family="sans-serif" font-size="13" font-weight="bold" lengthAdjust="spacingAndGlyphs" textLength="72" x="983" y="16.0669">Hardware</text><rect fill="#FFFFFF" filter="url(#fa5pgr4v3s9mx)" height="72.2656" style="stroke: #F05772; stroke-width: 1.0;" width="10" x="314" y="113.6953"/><rect fill="#FFFFFF" filter="url(#fa5pgr4v3s9mx)" height="341.1328" style="stroke: #F05772; stroke-width: 1.0;" width="10" x="314" y="265.2266"/><rect fill="#FFFFFF" filter="url(#fa5pgr4v3s9mx)" height="14" style="stroke: #F05772; stroke-width: 1.0;" width="10" x="580" y="157.9609"/><rect fill="#FFFFFF" filter="url(#fa5pgr4v3s9mx)" height="14" style="stroke: #F05772; stroke-width: 1.0;" width="10" x="580" y="294.3594"/><rect fill="#FFFFFF" filter="url(#fa5pgr4v3s9mx)" height="156.5313" style="stroke: #F05772; stroke-width: 1.0;" width="10" x="580" y="420.6953"/><rect fill="#FFFFFF" filter="url(#fa5pgr4v3s9mx)" height="98.2656" style="stroke: #F05772; stroke-width: 1.0;" width="10" x="846" y="464.9609"/><rect fill="#FFFFFF" filter="url(#fa5pgr4v3s9mx)" height="118.5313" style="stroke: #A1A1CA; stroke-width: 2.0;" width="671" x="13" y="75.4297"/><rect fill="#FFFFFF" filter="url(#fa5pgr4v3s9mx)" height="291" style="stroke: #A1A1CA; stroke-width: 2.0;" width="1006" x="13" y="323.3594"/><rect fill="#FFFFFF" height="244.7344" style="stroke: none; stroke-width: 1.0;" width="1006" x="13" y="369.625"/><rect fill="#FFFFFF" filter="url(#fa5pgr4v3s9mx)" height="46.2656" style="stroke: #A1A1CA; stroke-width: 2.0;" width="1083.5" x="13" y="657.4922"/><line style="stroke: #F05772; stroke-width: 1.0; stroke-dasharray: 5.0,5.0;" x1="51" x2="51" y1="58.4297" y2="720.7578"/><line style="stroke: #F05772; stroke-width: 1.0; stroke-dasharray: 5.0,5.0;" x1="318.5" x2="318.5" y1="58.4297" y2="720.7578"/><line style="stroke: #F05772; stroke-width: 1.0; stroke-dasharray: 5.0,5.0;" x1="585" x2="585" y1="58.4297" y2="720.7578"/><line style="stroke: #F05772; stroke-width: 1.0; stroke-dasharray: 5.0,5.0;" x1="850.5" x2="850.5" y1="58.4297" y2="720.7578"/><line style="stroke: #F05772; stroke-width: 1.0; stroke-dasharray: 5.0,5.0;" x1="1018.5" x2="1018.5" y1="58.4297" y2="720.7578"/><rect fill="#FFFFFF" filter="url(#fa5pgr4v3s9mx)" height="30.2969" style="stroke: #33335B; stroke-width: 1.5;" width="52" x="23" y="23.1328"/><text fill="#33335B" font-family="sans-serif" font-size="14" lengthAdjust="spacingAndGlyphs" textLength="38" x="30" y="43.1279">driver</text><rect fill="#FFFFFF" filter="url(#fa5pgr4v3s9mx)" height="30.2969" style="stroke: #33335B; stroke-width: 1.5;" width="149" x="242.5" y="23.1328"/><text fill="#33335B" font-family="sans-serif" font-size="14" lengthAdjust="spacingAndGlyphs" textLength="135" x="249.5" y="43.1279">Core #0: Zephyr lib</text><rect fill="#FFFFFF" filter="url(#fa5pgr4v3s9mx)" height="30.2969" style="stroke: #33335B; stroke-width: 1.5;" width="174" x="496" y="23.1328"/><text fill="#33335B" font-family="sans-serif" font-size="14" lengthAdjust="spacingAndGlyphs" textLength="160" x="503" y="43.1279">Zephyr Power Manager</text><rect fill="#FFFFFF" filter="url(#fa5pgr4v3s9mx)" height="30.2969" style="stroke: #33335B; stroke-width: 1.5;" width="125" x="786.5" y="23.1328"/><text fill="#33335B" font-family="sans-serif" font-size="14" lengthAdjust="spacingAndGlyphs" textLength="111" x="793.5" y="43.1279">Zephyr SoC HAL</text><rect fill="#FFFFFF" filter="url(#fa5pgr4v3s9mx)" height="30.2969" style="stroke: #33335B; stroke-width: 1.5;" width="131" x="951.5" y="23.1328"/><text fill="#33335B" font-family="sans-serif" font-size="14" lengthAdjust="spacingAndGlyphs" textLength="117" x="958.5" y="43.1279">Core #0: Control</text><rect fill="#FFFFFF" filter="url(#fa5pgr4v3s9mx)" height="72.2656" style="stroke: #F05772; stroke-width: 1.0;" width="10" x="314" y="113.6953"/><rect fill="#FFFFFF" filter="url(#fa5pgr4v3s9mx)" height="341.1328" style="stroke: #F05772; stroke-width: 1.0;" width="10" x="314" y="265.2266"/><rect fill="#FFFFFF" filter="url(#fa5pgr4v3s9mx)" height="14" style="stroke: #F05772; stroke-width: 1.0;" width="10" x="580" y="157.9609"/><rect fill="#FFFFFF" filter="url(#fa5pgr4v3s9mx)" height="14" style="stroke: #F05772; stroke-width: 1.0;" width="10" x="580" y="294.3594"/><rect fill="#FFFFFF" filter="url(#fa5pgr4v3s9mx)" height="156.5313" style="stroke: #F05772; stroke-width: 1.0;" width="10" x="580" y="420.6953"/><rect fill="#FFFFFF" filter="url(#fa5pgr4v3s9mx)" height="98.2656" style="stroke: #F05772; stroke-width: 1.0;" width="10" x="846" y="464.9609"/><path d="M13,75.4297 L83,75.4297 L83,82.4297 L73,92.4297 L13,92.4297 L13,75.4297 " fill="#EEEEEE" style="stroke: #A1A1CA; stroke-width: 1.0;"/><rect fill="none" height="118.5313" style="stroke: #A1A1CA; stroke-width: 2.0;" width="671" x="13" y="75.4297"/><text fill="#33335B" font-family="sans-serif" font-size="13" font-weight="bold" lengthAdjust="spacingAndGlyphs" textLength="25" x="28" y="88.4966">opt</text><text fill="#33335B" font-family="sans-serif" font-size="11" font-weight="bold" lengthAdjust="spacingAndGlyphs" textLength="122" x="98" y="87.6401">[If D0ix is enabled]</text><polygon fill="#F05772" points="302,109.6953,312,113.6953,302,117.6953,306,113.6953" style="stroke: #F05772; stroke-width: 1.0;"/><line style="stroke: #F05772; stroke-width: 1.0;" x1="51" x2="308" y1="113.6953" y2="113.6953"/><text fill="#33335B" font-family="sans-serif" font-size="13" lengthAdjust="spacingAndGlyphs" textLength="227" x="58" y="108.6294">SET_D0ix(prevent D0ix) IPC request</text><polygon fill="#F05772" points="568,153.9609,578,157.9609,568,161.9609,572,157.9609" style="stroke: #F05772; stroke-width: 1.0;"/><line style="stroke: #F05772; stroke-width: 1.0;" x1="324" x2="574" y1="157.9609" y2="157.9609"/><text fill="#33335B" font-family="sans-serif" font-size="13" lengthAdjust="spacingAndGlyphs" textLength="164" x="331" y="137.7622">pm_policy_state_lock_get</text><text fill="#33335B" font-family="sans-serif" font-size="13" lengthAdjust="spacingAndGlyphs" textLength="175" x="331" y="152.895">(PM_STATE_RUNTIME_IDLE)</text><polygon fill="#F05772" points="335,167.9609,325,171.9609,335,175.9609,331,171.9609" style="stroke: #F05772; stroke-width: 1.0;"/><line style="stroke: #F05772; stroke-width: 1.0; stroke-dasharray: 2.0,2.0;" x1="329" x2="584" y1="171.9609" y2="171.9609"/><polygon fill="#F05772" points="62,181.9609,52,185.9609,62,189.9609,58,185.9609" style="stroke: #F05772; stroke-width: 1.0;"/><line style="stroke: #F05772; stroke-width: 1.0; stroke-dasharray: 2.0,2.0;" x1="56" x2="318" y1="185.9609" y2="185.9609"/><rect fill="#EEEEEE" filter="url(#fa5pgr4v3s9mx)" height="3" style="stroke: #EEEEEE; stroke-width: 1.0;" width="1103.5" x="3" y="221.5273"/><line style="stroke: #D6D6DE; stroke-width: 0.5;" x1="3" x2="1106.5" y1="221.5273" y2="221.5273"/><line style="stroke: #D6D6DE; stroke-width: 0.5;" x1="3" x2="1106.5" y1="224.5273" y2="224.5273"/><rect fill="#EEEEEE" filter="url(#fa5pgr4v3s9mx)" height="23.1328" style="stroke: #D6D6DE; stroke-width: 1.0;" width="232" x="438.75" y="210.9609"/><text fill="#33335B" font-family="sans-serif" font-size="13" font-weight="bold" lengthAdjust="spacingAndGlyphs" textLength="213" x="444.75" y="227.0278">DSP FW in PM_STATE_ACTIVE</text><polygon fill="#F05772" points="302,261.2266,312,265.2266,302,269.2266,306,265.2266" style="stroke: #F05772; stroke-width: 1.0;"/><line style="stroke: #F05772; stroke-width: 1.0;" x1="51" x2="308" y1="265.2266" y2="265.2266"/><text fill="#33335B" font-family="sans-serif" font-size="13" lengthAdjust="spacingAndGlyphs" textLength="244" x="58" y="260.1606">SET_DX(PID: Core #0, D3) IPC request</text><polygon fill="#F05772" points="568,290.3594,578,294.3594,568,298.3594,572,294.3594" style="stroke: #F05772; stroke-width: 1.0;"/><line style="stroke: #F05772; stroke-width: 1.0;" x1="324" x2="574" y1="294.3594" y2="294.3594"/><text fill="#33335B" font-family="sans-serif" font-size="13" lengthAdjust="spacingAndGlyphs" textLength="201" x="331" y="289.2935">Read status of secondary cores</text><polygon fill="#F05772" points="335,304.3594,325,308.3594,335,312.3594,331,308.3594" style="stroke: #F05772; stroke-width: 1.0;"/><line style="stroke: #F05772; stroke-width: 1.0; stroke-dasharray: 2.0,2.0;" x1="329" x2="584" y1="308.3594" y2="308.3594"/><path d="M13,323.3594 L77,323.3594 L77,330.3594 L67,340.3594 L13,340.3594 L13,323.3594 " fill="#EEEEEE" style="stroke: #A1A1CA; stroke-width: 1.0;"/><rect fill="none" height="291" style="stroke: #A1A1CA; stroke-width: 2.0;" width="1006" x="13" y="323.3594"/><text fill="#33335B" font-family="sans-serif" font-size="13" font-weight="bold" lengthAdjust="spacingAndGlyphs" textLength="19" x="28" y="336.4263">alt</text><text fill="#33335B" font-family="sans-serif" font-size="11" font-weight="bold" lengthAdjust="spacingAndGlyphs" textLength="243" x="92" y="335.5698">[If any secondary core is powered up]</text><polygon fill="#F05772" points="62,357.625,52,361.625,62,365.625,58,361.625" style="stroke: #F05772; stroke-width: 1.0;"/><line style="stroke: #F05772; stroke-width: 1.0; stroke-dasharray: 2.0,2.0;" x1="56" x2="313" y1="361.625" y2="361.625"/><text fill="#33335B" font-family="sans-serif" font-size="13" lengthAdjust="spacingAndGlyphs" textLength="188" x="68" y="356.5591">SET_DX(ERROR) IPC response</text><line style="stroke: #A1A1CA; stroke-width: 1.0; stroke-dasharray: 2.0,2.0;" x1="13" x2="1019" y1="370.625" y2="370.625"/><text fill="#33335B" font-family="sans-serif" font-size="11" font-weight="bold" lengthAdjust="spacingAndGlyphs" textLength="37" x="18" y="380.8354">[else]</text><polygon fill="#F05772" points="568,416.6953,578,420.6953,568,424.6953,572,420.6953" style="stroke: #F05772; stroke-width: 1.0;"/><line style="stroke: #F05772; stroke-width: 1.0;" x1="324" x2="574" y1="420.6953" y2="420.6953"/><text fill="#33335B" font-family="sans-serif" font-size="13" lengthAdjust="spacingAndGlyphs" textLength="145" x="331" y="400.4966">pm_power_state_force</text><text fill="#33335B" font-family="sans-serif" font-size="13" lengthAdjust="spacingAndGlyphs" textLength="237" x="331" y="415.6294">(PM_STATE_SOFT_OFF, PID: Core #0)</text><polygon fill="#F05772" points="834,460.9609,844,464.9609,834,468.9609,838,464.9609" style="stroke: #F05772; stroke-width: 1.0;"/><line style="stroke: #F05772; stroke-width: 1.0;" x1="590" x2="840" y1="464.9609" y2="464.9609"/><text fill="#33335B" font-family="sans-serif" font-size="13" lengthAdjust="spacingAndGlyphs" textLength="133" x="597" y="444.7622">pm_power_state_set</text><text fill="#33335B" font-family="sans-serif" font-size="13" lengthAdjust="spacingAndGlyphs" textLength="237" x="597" y="459.895">(PM_STATE_SOFT_OFF, PID: Core #0)</text><line style="stroke: #F05772; stroke-width: 1.0;" x1="856" x2="898" y1="494.0938" y2="494.0938"/><line style="stroke: #F05772; stroke-width: 1.0;" x1="898" x2="898" y1="494.0938" y2="507.0938"/><line style="stroke: #F05772; stroke-width: 1.0;" x1="857" x2="898" y1="507.0938" y2="507.0938"/><polygon fill="#F05772" points="867,503.0938,857,507.0938,867,511.0938,863,507.0938" style="stroke: #F05772; stroke-width: 1.0;"/><text fill="#33335B" font-family="sans-serif" font-size="13" lengthAdjust="spacingAndGlyphs" textLength="84" x="863" y="489.0278">Save context</text><line style="stroke: #F05772; stroke-width: 1.0;" x1="856" x2="898" y1="536.2266" y2="536.2266"/><line style="stroke: #F05772; stroke-width: 1.0;" x1="898" x2="898" y1="536.2266" y2="549.2266"/><line style="stroke: #F05772; stroke-width: 1.0;" x1="857" x2="898" y1="549.2266" y2="549.2266"/><polygon fill="#F05772" points="867,545.2266,857,549.2266,867,553.2266,863,549.2266" style="stroke: #F05772; stroke-width: 1.0;"/><text fill="#33335B" font-family="sans-serif" font-size="13" lengthAdjust="spacingAndGlyphs" textLength="144" x="863" y="531.1606">Prepare restore vector</text><polygon fill="#F05772" points="601,559.2266,591,563.2266,601,567.2266,597,563.2266" style="stroke: #F05772; stroke-width: 1.0;"/><line style="stroke: #F05772; stroke-width: 1.0; stroke-dasharray: 2.0,2.0;" x1="595" x2="850" y1="563.2266" y2="563.2266"/><polygon fill="#F05772" points="335,573.2266,325,577.2266,335,581.2266,331,577.2266" style="stroke: #F05772; stroke-width: 1.0;"/><line style="stroke: #F05772; stroke-width: 1.0; stroke-dasharray: 2.0,2.0;" x1="329" x2="584" y1="577.2266" y2="577.2266"/><polygon fill="#F05772" points="62,602.3594,52,606.3594,62,610.3594,58,606.3594" style="stroke: #F05772; stroke-width: 1.0;"/><line style="stroke: #F05772; stroke-width: 1.0; stroke-dasharray: 2.0,2.0;" x1="56" x2="318" y1="606.3594" y2="606.3594"/><text fill="#33335B" font-family="sans-serif" font-size="13" lengthAdjust="spacingAndGlyphs" textLength="209" x="68" y="601.2935">SET_DX(SUCCESS) IPC response</text><polygon fill="#F05772" points="1007,638.4922,1017,642.4922,1007,646.4922,1011,642.4922" style="stroke: #F05772; stroke-width: 1.0;"/><line style="stroke: #F05772; stroke-width: 1.0;" x1="51" x2="1013" y1="642.4922" y2="642.4922"/><text fill="#33335B" font-family="sans-serif" font-size="13" lengthAdjust="spacingAndGlyphs" textLength="126" x="58" y="637.4263">clear power register</text><path d="M13,657.4922 L90,657.4922 L90,664.4922 L80,674.4922 L13,674.4922 L13,657.4922 " fill="#EEEEEE" style="stroke: #A1A1CA; stroke-width: 1.0;"/><rect fill="none" height="46.2656" style="stroke: #A1A1CA; stroke-width: 2.0;" width="1083.5" x="13" y="657.4922"/><text fill="#33335B" font-family="sans-serif" font-size="13" font-weight="bold" lengthAdjust="spacingAndGlyphs" textLength="32" x="28" y="670.5591">loop</text><text fill="#33335B" font-family="sans-serif" font-size="11" font-weight="bold" lengthAdjust="spacingAndGlyphs" textLength="193" x="105" y="669.7026">[Until Core #0 power is down]</text><polygon fill="#F05772" points="1007,691.7578,1017,695.7578,1007,699.7578,1011,695.7578" style="stroke: #F05772; stroke-width: 1.0;"/><line style="stroke: #F05772; stroke-width: 1.0;" x1="51" x2="1013" y1="695.7578" y2="695.7578"/><text fill="#33335B" font-family="sans-serif" font-size="13" lengthAdjust="spacingAndGlyphs" textLength="151" x="58" y="690.6919">Read Core #0 power bit</text><!--MD5=[5d1579483257bbee537c63eefdd2a929]
@startuml
hidefootbox
skinparam componentStyle uml2

skinparam defaultFontColor	#33335b

skinparam rectangle {
	color		#d6d6de
	backgroundColor	#ffffff
}

skinparam component {
	backgroundColor	#ffffff
	borderColor	#33335b
	arrowColor	#f05772
}

skinparam interface {
	backgroundColor	#ffffff
	borderColor	#f05772
}

skinparam class {
	backgroundColor	#ffffff
	borderColor	#33335b
	arrowColor	#f05772
}
skinparam stereotypeCBackgroundColor	#6fccdd

skinparam sequence {
	arrowColor		#4a4a86
	lifeLineBorderColor	#f05772
	groupBorderColor	#a1a1ca
	boxBorderColor		#a1a1ca
	dividerBorderColor	#d6d6de
	dividerBorderThickness	1
}
skinparam participant {
	borderColor		#33335b
	backgroundColor		#ffffff
}
skinparam actor {
	borderColor		#33335b
	backgroundColor		#ffffff
}

skinparam state {
	borderColor		#33335b
	backgroundColor		#ffffff
}

skinparam node {
	backgroundColor		#ffffff
}

skinparam note {
	backgroundColor 	#f6ed80
	borderColor		#d6d6de
}

skinparam activity {
	borderColor		#33335b
	backgroundColor		#ffffff
}

skinparam activityDiamond {
	borderColor		#33335b
	backgroundColor		#ffffff
}

skinparam arrowColor	#f05772
skinparam maxMessageSize 400
skinparam BoxPadding 4

scale max 1280 width

box "Host" #LightSkyBlue
	participant "driver" as driver
end box

box "SOF" #LightBlue
	participant "Core #0: Zephyr lib" as sof_zephyr_lib_0
	participant "Zephyr Power Manager" as zephyr_power_manager
	participant "Zephyr SoC HAL" as soc_hal
end box

box "Hardware" #LightGreen
	participant "Core #0: Control" as core_hw_control
end box

opt If D0ix is enabled
	driver -> sof_zephyr_lib_0: SET_D0ix(prevent D0ix) IPC request
	activate sof_zephyr_lib_0
		sof_zephyr_lib_0 -> zephyr_power_manager: pm_policy_state_lock_get\n(PM_STATE_RUNTIME_IDLE)
		activate zephyr_power_manager
		return
	return
end

== DSP FW in PM_STATE_ACTIVE ==

driver -> sof_zephyr_lib_0: SET_DX(PID: Core #0, D3) IPC request
activate sof_zephyr_lib_0
	sof_zephyr_lib_0 -> zephyr_power_manager: Read status of secondary cores
	activate zephyr_power_manager
		return

	alt If any secondary core is powered up
		sof_zephyr_lib_0 - -> driver: SET_DX(ERROR) IPC response
	else else
		sof_zephyr_lib_0 -> zephyr_power_manager: pm_power_state_force\n(PM_STATE_SOFT_OFF, PID: Core #0)
		activate zephyr_power_manager
			zephyr_power_manager -> soc_hal: pm_power_state_set\n(PM_STATE_SOFT_OFF, PID: Core #0)
			activate soc_hal
				soc_hal -> soc_hal: Save context
				soc_hal -> soc_hal: Prepare restore vector
			return
		return

return SET_DX(SUCCESS) IPC response
end

driver -> core_hw_control: clear power register
loop Until Core #0 power is down
	driver -> core_hw_control: Read Core #0 power bit
end

@enduml

PlantUML version 1.2019.12(Sun Nov 03 10:24:54 UTC 2019)
(GPL source distribution)
Java Runtime: OpenJDK Runtime Environment
JVM: OpenJDK 64-Bit Server VM
Java Version: 11.0.23+9
Operating System: Linux
Default Encoding: UTF-8
Language: en
Country: null
--></g></svg>