<?xml version="1.0" encoding="UTF-8" standalone="no"?><svg xmlns="http://www.w3.org/2000/svg" xmlns:xlink="http://www.w3.org/1999/xlink" contentScriptType="application/ecmascript" contentStyleType="text/css" height="626px" preserveAspectRatio="none" style="width:793px;height:626px;" version="1.1" viewBox="0 0 793 626" width="793px" zoomAndPan="magnify"><defs><filter height="300%" id="f1e75athe2zcmr" width="300%" x="-1" y="-1"><feGaussianBlur result="blurOut" stdDeviation="2.0"/><feColorMatrix in="blurOut" result="blurOut2" type="matrix" values="0 0 0 0 0 0 0 0 0 0 0 0 0 0 0 0 0 0 .4 0"/><feOffset dx="4.0" dy="4.0" in="blurOut2" result="blurOut3"/><feBlend in="SourceGraphic" in2="blurOut3" mode="normal"/></filter></defs><g><!--MD5=[360c1f17fd567815a93c7b66b8857514]
cluster lib--><rect fill="#FFFFFF" filter="url(#f1e75athe2zcmr)" height="253" style="stroke: #33335B; stroke-width: 1.5;" width="466" x="75" y="117"/><rect fill="#FFFFFF" height="10" style="stroke: #33335B; stroke-width: 1.5;" width="15" x="521" y="122"/><rect fill="#FFFFFF" height="2" style="stroke: #33335B; stroke-width: 1.5;" width="4" x="519" y="124"/><rect fill="#FFFFFF" height="2" style="stroke: #33335B; stroke-width: 1.5;" width="4" x="519" y="128"/><text fill="#33335B" font-family="sans-serif" font-size="14" font-style="italic" lengthAdjust="spacingAndGlyphs" textLength="65" x="275.5" y="142.9951">«sof_api»</text><text fill="#33335B" font-family="sans-serif" font-size="14" font-weight="bold" lengthAdjust="spacingAndGlyphs" textLength="18" x="299" y="159.292">lib</text><!--MD5=[03b6cfe99e5423a85151ec4aae35d48f]
cluster arch_xtensa--><rect fill="#FFFFFF" filter="url(#f1e75athe2zcmr)" height="97" style="stroke: #33335B; stroke-width: 1.5;" width="136" x="646" y="273"/><rect fill="#FFFFFF" height="10" style="stroke: #33335B; stroke-width: 1.5;" width="15" x="762" y="278"/><rect fill="#FFFFFF" height="2" style="stroke: #33335B; stroke-width: 1.5;" width="4" x="760" y="280"/><rect fill="#FFFFFF" height="2" style="stroke: #33335B; stroke-width: 1.5;" width="4" x="760" y="284"/><text fill="#33335B" font-family="sans-serif" font-size="14" font-weight="bold" lengthAdjust="spacingAndGlyphs" textLength="116" x="656" y="298.9951">arch/xtensa/lib</text><!--MD5=[a55d374a9c623bf08ced0127bb659fdf]
cluster <i>vendor</i>--><rect fill="#FFFFFF" filter="url(#f1e75athe2zcmr)" height="196" style="stroke: #33335B; stroke-width: 1.5;" width="667" x="22" y="419"/><rect fill="#FFFFFF" height="10" style="stroke: #33335B; stroke-width: 1.5;" width="15" x="669" y="424"/><rect fill="#FFFFFF" height="2" style="stroke: #33335B; stroke-width: 1.5;" width="4" x="667" y="426"/><rect fill="#FFFFFF" height="2" style="stroke: #33335B; stroke-width: 1.5;" width="4" x="667" y="430"/><text fill="#33335B" font-family="sans-serif" font-size="14" font-style="italic" font-weight="bold" lengthAdjust="spacingAndGlyphs" textLength="56" x="327.5" y="444.9951">vendor</text><!--MD5=[d841c4c2f84d4e18d352f800547f43fc]
cluster platform--><rect fill="#FFFFFF" filter="url(#f1e75athe2zcmr)" height="113" style="stroke: #33335B; stroke-width: 1.5;" width="506" x="54" y="470"/><rect fill="#FFFFFF" height="10" style="stroke: #33335B; stroke-width: 1.5;" width="15" x="540" y="475"/><rect fill="#FFFFFF" height="2" style="stroke: #33335B; stroke-width: 1.5;" width="4" x="538" y="477"/><rect fill="#FFFFFF" height="2" style="stroke: #33335B; stroke-width: 1.5;" width="4" x="538" y="481"/><text fill="#33335B" font-family="sans-serif" font-size="14" font-weight="bold" lengthAdjust="spacingAndGlyphs" textLength="66" x="274" y="495.9951">platform</text><!--MD5=[9023815ac2e56879d3ad77c2418dcfac]
entity cpu--><ellipse cx="498" cy="197" fill="#FFFFFF" filter="url(#f1e75athe2zcmr)" rx="8" ry="8" style="stroke: #F05772; stroke-width: 2.0;"/><text fill="#33335B" font-family="sans-serif" font-size="14" lengthAdjust="spacingAndGlyphs" textLength="26" x="485" y="226.9951">cpu</text><!--MD5=[f0599599bb301d97d9145bb7fc019eb4]
entity dai--><ellipse cx="409" cy="197" fill="#FFFFFF" filter="url(#f1e75athe2zcmr)" rx="8" ry="8" style="stroke: #F05772; stroke-width: 2.0;"/><text fill="#33335B" font-family="sans-serif" font-size="14" lengthAdjust="spacingAndGlyphs" textLength="20" x="399" y="226.9951">dai</text><!--MD5=[c4af81e676288ff39d2baf0dc7d17f04]
entity dma--><ellipse cx="320" cy="197" fill="#FFFFFF" filter="url(#f1e75athe2zcmr)" rx="8" ry="8" style="stroke: #F05772; stroke-width: 2.0;"/><text fill="#33335B" font-family="sans-serif" font-size="14" lengthAdjust="spacingAndGlyphs" textLength="30" x="305" y="226.9951">dma</text><!--MD5=[bebae0cedf2208dc0e6bed2cb4ae5286]
entity pm_runtime--><ellipse cx="190" cy="197" fill="#FFFFFF" filter="url(#f1e75athe2zcmr)" rx="8" ry="8" style="stroke: #F05772; stroke-width: 2.0;"/><text fill="#33335B" font-family="sans-serif" font-size="14" lengthAdjust="spacingAndGlyphs" textLength="82" x="149" y="226.9951">pm_runtime</text><!--MD5=[8509b6eab69dec12300848639ef4d2e7]
entity dai_mng--><rect fill="#FFFFFF" filter="url(#f1e75athe2zcmr)" height="46.2969" style="stroke: #33335B; stroke-width: 1.5;" width="98" x="427" y="308"/><rect fill="#FFFFFF" height="10" style="stroke: #33335B; stroke-width: 1.5;" width="15" x="505" y="313"/><rect fill="#FFFFFF" height="2" style="stroke: #33335B; stroke-width: 1.5;" width="4" x="503" y="315"/><rect fill="#FFFFFF" height="2" style="stroke: #33335B; stroke-width: 1.5;" width="4" x="503" y="319"/><text fill="#33335B" font-family="sans-serif" font-size="14" lengthAdjust="spacingAndGlyphs" textLength="58" x="442" y="340.9951">dai_mng</text><!--MD5=[0b8519e171e5f0ba6b3ffb05f562567d]
entity dma_mng--><rect fill="#FFFFFF" filter="url(#f1e75athe2zcmr)" height="46.2969" style="stroke: #33335B; stroke-width: 1.5;" width="108" x="284" y="308"/><rect fill="#FFFFFF" height="10" style="stroke: #33335B; stroke-width: 1.5;" width="15" x="372" y="313"/><rect fill="#FFFFFF" height="2" style="stroke: #33335B; stroke-width: 1.5;" width="4" x="370" y="315"/><rect fill="#FFFFFF" height="2" style="stroke: #33335B; stroke-width: 1.5;" width="4" x="370" y="319"/><text fill="#33335B" font-family="sans-serif" font-size="14" lengthAdjust="spacingAndGlyphs" textLength="68" x="299" y="340.9951">dma_mng</text><!--MD5=[a8a3a44187ed57378f7c65a5c8fc1e12]
entity pm_runtime_impl--><rect fill="#FFFFFF" filter="url(#f1e75athe2zcmr)" height="46.2969" style="stroke: #33335B; stroke-width: 1.5;" width="157" x="91.5" y="308"/><rect fill="#FFFFFF" height="10" style="stroke: #33335B; stroke-width: 1.5;" width="15" x="228.5" y="313"/><rect fill="#FFFFFF" height="2" style="stroke: #33335B; stroke-width: 1.5;" width="4" x="226.5" y="315"/><rect fill="#FFFFFF" height="2" style="stroke: #33335B; stroke-width: 1.5;" width="4" x="226.5" y="319"/><text fill="#33335B" font-family="sans-serif" font-size="14" lengthAdjust="spacingAndGlyphs" textLength="117" x="106.5" y="340.9951">pm_runtime_impl</text><!--MD5=[114269b35eff2fc00b67f8effcdc03c1]
entity arch_cpu--><rect fill="#FFFFFF" filter="url(#f1e75athe2zcmr)" height="46.2969" style="stroke: #33335B; stroke-width: 1.5;" width="103" x="662.5" y="308"/><rect fill="#FFFFFF" height="10" style="stroke: #33335B; stroke-width: 1.5;" width="15" x="745.5" y="313"/><rect fill="#FFFFFF" height="2" style="stroke: #33335B; stroke-width: 1.5;" width="4" x="743.5" y="315"/><rect fill="#FFFFFF" height="2" style="stroke: #33335B; stroke-width: 1.5;" width="4" x="743.5" y="319"/><text fill="#33335B" font-family="sans-serif" font-size="14" lengthAdjust="spacingAndGlyphs" textLength="63" x="677.5" y="340.9951">arch_cpu</text><!--MD5=[b6906ea0fc5cf08f297a27ba856a64df]
entity drivers--><rect fill="#FFFFFF" filter="url(#f1e75athe2zcmr)" height="46.2969" style="stroke: #33335B; stroke-width: 1.5;" width="86" x="587" y="513"/><rect fill="#FFFFFF" height="10" style="stroke: #33335B; stroke-width: 1.5;" width="15" x="653" y="518"/><rect fill="#FFFFFF" height="2" style="stroke: #33335B; stroke-width: 1.5;" width="4" x="651" y="520"/><rect fill="#FFFFFF" height="2" style="stroke: #33335B; stroke-width: 1.5;" width="4" x="651" y="524"/><text fill="#33335B" font-family="sans-serif" font-size="14" lengthAdjust="spacingAndGlyphs" textLength="46" x="602" y="545.9951">drivers</text><!--MD5=[37f873e5921f5afd142a52176a0a757f]
entity dai_init--><rect fill="#FFFFFF" filter="url(#f1e75athe2zcmr)" height="46.2969" style="stroke: #33335B; stroke-width: 1.5;" width="87" x="429.5" y="513"/><rect fill="#FFFFFF" height="10" style="stroke: #33335B; stroke-width: 1.5;" width="15" x="496.5" y="518"/><rect fill="#FFFFFF" height="2" style="stroke: #33335B; stroke-width: 1.5;" width="4" x="494.5" y="520"/><rect fill="#FFFFFF" height="2" style="stroke: #33335B; stroke-width: 1.5;" width="4" x="494.5" y="524"/><text fill="#33335B" font-family="sans-serif" font-size="14" lengthAdjust="spacingAndGlyphs" textLength="47" x="444.5" y="545.9951">dai_init</text><!--MD5=[038dbc61cb9cec57e0b7c3e0227ca1b2]
entity dma_init--><rect fill="#FFFFFF" filter="url(#f1e75athe2zcmr)" height="46.2969" style="stroke: #33335B; stroke-width: 1.5;" width="97" x="297.5" y="513"/><rect fill="#FFFFFF" height="10" style="stroke: #33335B; stroke-width: 1.5;" width="15" x="374.5" y="518"/><rect fill="#FFFFFF" height="2" style="stroke: #33335B; stroke-width: 1.5;" width="4" x="372.5" y="520"/><rect fill="#FFFFFF" height="2" style="stroke: #33335B; stroke-width: 1.5;" width="4" x="372.5" y="524"/><text fill="#33335B" font-family="sans-serif" font-size="14" lengthAdjust="spacingAndGlyphs" textLength="57" x="312.5" y="545.9951">dma_init</text><!--MD5=[23ded4f2e54e03f9f2979850b7b9d671]
entity platform_pm_runtime--><rect fill="#FFFFFF" filter="url(#f1e75athe2zcmr)" height="46.2969" style="stroke: #33335B; stroke-width: 1.5;" width="185" x="77.5" y="513"/><rect fill="#FFFFFF" height="10" style="stroke: #33335B; stroke-width: 1.5;" width="15" x="242.5" y="518"/><rect fill="#FFFFFF" height="2" style="stroke: #33335B; stroke-width: 1.5;" width="4" x="240.5" y="520"/><rect fill="#FFFFFF" height="2" style="stroke: #33335B; stroke-width: 1.5;" width="4" x="240.5" y="524"/><text fill="#33335B" font-family="sans-serif" font-size="14" lengthAdjust="spacingAndGlyphs" textLength="145" x="92.5" y="545.9951">platform_pm_runtime</text><!--MD5=[4541fb81c80c07473fe4b07432ef0971]
entity app--><rect fill="#FFFFFF" filter="url(#f1e75athe2zcmr)" height="46.2969" style="stroke: #33335B; stroke-width: 1.5;" width="102" x="309" y="8"/><rect fill="#FFFFFF" height="10" style="stroke: #33335B; stroke-width: 1.5;" width="15" x="391" y="13"/><rect fill="#FFFFFF" height="2" style="stroke: #33335B; stroke-width: 1.5;" width="4" x="389" y="15"/><rect fill="#FFFFFF" height="2" style="stroke: #33335B; stroke-width: 1.5;" width="4" x="389" y="19"/><text fill="#33335B" font-family="sans-serif" font-size="14" lengthAdjust="spacingAndGlyphs" textLength="62" x="324" y="40.9951">app/mpp</text><!--MD5=[8b9befc4b4feaec834b48f74dea86ad4]
link dai to dai_mng--><path d="M413.19,206.26 C423.36,226.29 449.62,278.03 464.77,307.88 " fill="none" id="dai-dai_mng" style="stroke: #F05772; stroke-width: 1.0;"/><!--MD5=[889f6eea6401c0cb9de568ff6d19b1c4]
link dma to dma_mng--><path d="M321.13,206.26 C323.86,226.29 330.91,278.03 334.98,307.88 " fill="none" id="dma-dma_mng" style="stroke: #F05772; stroke-width: 1.0;"/><!--MD5=[07bcf2d2e568cfebcfc34fbfeaf7f096]
link pm_runtime to pm_runtime_impl--><path d="M188.75,206.26 C185.71,226.29 177.87,278.03 173.35,307.88 " fill="none" id="pm_runtime-pm_runtime_impl" style="stroke: #F05772; stroke-width: 1.0;"/><!--MD5=[6b918298e091ad71f63a12a36c044223]
link app to dai--><path d="M366.61,54.12 C376.94,88.71 396.62,154.56 405.03,182.7 " fill="none" id="app-&gt;dai" style="stroke: #F05772; stroke-width: 1.0; stroke-dasharray: 7.0,7.0;"/><polygon fill="#F05772" points="406.55,187.81,407.8165,178.0429,405.1237,183.0177,400.1489,180.3249,406.55,187.81" style="stroke: #F05772; stroke-width: 1.0;"/><text fill="#33335B" font-family="sans-serif" font-size="13" lengthAdjust="spacingAndGlyphs" textLength="30" x="381" y="97.0669">uses</text><!--MD5=[699aafc846667d651b0af5acbf9ba40b]
link app to dma--><path d="M343.71,54.21 C338.06,63.05 332.32,73.59 329,84 C318.06,118.29 318.21,161.33 319.15,182.7 " fill="none" id="app-&gt;dma" style="stroke: #F05772; stroke-width: 1.0; stroke-dasharray: 7.0,7.0;"/><polygon fill="#F05772" points="319.42,187.88,322.9511,178.6859,319.1625,182.8866,314.9617,179.098,319.42,187.88" style="stroke: #F05772; stroke-width: 1.0;"/><text fill="#33335B" font-family="sans-serif" font-size="13" lengthAdjust="spacingAndGlyphs" textLength="30" x="330" y="97.0669">uses</text><!--MD5=[83f4f52947dfdc7c5b3e2d86c7e7a7c7]
link app to pm_runtime--><path d="M324.23,54.02 C311.31,62.68 296.97,73.14 285,84 C249.39,116.31 214.69,161.8 198.89,183.51 " fill="none" id="app-&gt;pm_runtime" style="stroke: #F05772; stroke-width: 1.0; stroke-dasharray: 7.0,7.0;"/><polygon fill="#F05772" points="195.81,187.77,204.3291,182.8279,198.7432,183.7208,197.8504,178.1348,195.81,187.77" style="stroke: #F05772; stroke-width: 1.0;"/><text fill="#33335B" font-family="sans-serif" font-size="13" lengthAdjust="spacingAndGlyphs" textLength="30" x="286" y="97.0669">uses</text><!--MD5=[7037aa99ff07387152d48e45bc323bb8]
link app to cpu--><path d="M393.42,54.05 C412.86,68.09 436.83,87.61 454,109 C472.63,132.21 486.42,164.57 493.24,182.57 " fill="none" id="app-&gt;cpu" style="stroke: #F05772; stroke-width: 1.0; stroke-dasharray: 7.0,7.0;"/><polygon fill="#F05772" points="495.12,187.67,495.7315,177.8401,493.3769,182.9837,488.2334,180.6291,495.12,187.67" style="stroke: #F05772; stroke-width: 1.0;"/><text fill="#33335B" font-family="sans-serif" font-size="13" lengthAdjust="spacingAndGlyphs" textLength="30" x="446" y="97.0669">uses</text><!--MD5=[690ce6a045a63a372f279563a6ade9e6]
link cpu to arch_cpu--><path d="M507.26,201.23 C530.27,209.53 591.35,233.18 635,265 C653.51,278.5 673.43,294.9 688.63,307.85 " fill="none" id="cpu-arch_cpu" style="stroke: #F05772; stroke-width: 1.0;"/><!--MD5=[2dda90c499bff4a98115263a98af6f62]
reverse link dai_mng to dai_init--><path d="M474.83,359.26 C474.51,367.82 474.19,377.3 474,386 C473.02,431 472.91,483.66 472.94,512.78 " fill="none" id="dai_mng&lt;-dai_init" style="stroke: #F05772; stroke-width: 1.0; stroke-dasharray: 7.0,7.0;"/><polygon fill="#F05772" points="475.03,354.06,470.6735,362.8929,474.8302,359.056,478.6671,363.2127,475.03,354.06" style="stroke: #F05772; stroke-width: 1.0;"/><text fill="#33335B" font-family="sans-serif" font-size="13" lengthAdjust="spacingAndGlyphs" textLength="51" x="475" y="399.0669">initialize</text><!--MD5=[e59508552e48a800ff672303b0b54b8f]
reverse link dma_mng to dma_init--><path d="M339.08,359.37 C340.68,400.02 343.66,475.56 345.13,512.92 " fill="none" id="dma_mng&lt;-dma_init" style="stroke: #F05772; stroke-width: 1.0; stroke-dasharray: 7.0,7.0;"/><polygon fill="#F05772" points="338.87,354.11,335.2329,363.2627,339.0698,359.106,343.2265,362.9429,338.87,354.11" style="stroke: #F05772; stroke-width: 1.0;"/><text fill="#33335B" font-family="sans-serif" font-size="13" lengthAdjust="spacingAndGlyphs" textLength="51" x="341" y="399.0669">initialize</text><!--MD5=[d34334b0e488663cb8d97c4cd77b09c3]
reverse link dma to drivers--><path d="M333.6,208.18 C342.2,214.17 353.78,221.44 365,226 C440.02,256.5 483.05,210.55 543,265 C616.64,331.89 628.23,461.33 629.85,512.96 " fill="none" id="dma&lt;-drivers" style="stroke: #F05772; stroke-width: 1.0; stroke-dasharray: 7.0,7.0;"/><polygon fill="#F05772" points="329.15,205,334.1599,213.4794,333.2225,207.9008,338.8012,206.9634,329.15,205" style="stroke: #F05772; stroke-width: 1.0;"/><text fill="#33335B" font-family="sans-serif" font-size="13" lengthAdjust="spacingAndGlyphs" textLength="30" x="609" y="335.5669">uses</text><!--MD5=[3f140bcaddd4cb0a20afcbc4025b5fd9]
link arch_cpu to platform--><path d="M678.37,354.09 C664.98,362.02 649.49,370.79 635,378 C600.93,394.94 577.6,379.67 556,411 C548.2975,422.17 544.1438,435.3519 542.2586,448.8789 C541.316,455.6424 540.9406,462.4922 540.9723,469.22 C540.9733,469.4302 540.9747,469.6403 540.9764,469.8503 " fill="none" id="arch_cpu-&gt;platform" style="stroke: #F05772; stroke-width: 1.0; stroke-dasharray: 7.0,7.0;"/><polygon fill="#F05772" points="540.9764,469.8503,544.9,460.8167,540.934,464.8505,536.9003,460.8846,540.9764,469.8503" style="stroke: #F05772; stroke-width: 1.0;"/><!--MD5=[826b2b537efbeffda580e51a7c99eec7]
link pm_runtime_impl to platform_pm_runtime--><path d="M170,354.11 C170,391.48 170,467.03 170,507.66 " fill="none" id="pm_runtime_impl-&gt;platform_pm_runtime" style="stroke: #F05772; stroke-width: 1.0; stroke-dasharray: 7.0,7.0;"/><polygon fill="#F05772" points="170,512.92,174,503.92,170,507.92,166,503.92,170,512.92" style="stroke: #F05772; stroke-width: 1.0;"/><!--MD5=[301e3cccf5766b3fecf87cdd301bdd04]
@startuml
hidefootbox
skinparam componentStyle uml2

skinparam defaultFontColor	#33335b

skinparam rectangle {
	color		#d6d6de
	backgroundColor	#ffffff
}

skinparam component {
	backgroundColor	#ffffff
	borderColor	#33335b
	arrowColor	#f05772
}

skinparam interface {
	backgroundColor	#ffffff
	borderColor	#f05772
}

skinparam class {
	backgroundColor	#ffffff
	borderColor	#33335b
	arrowColor	#f05772
}
skinparam stereotypeCBackgroundColor	#6fccdd

skinparam sequence {
	arrowColor		#4a4a86
	lifeLineBorderColor	#f05772
	groupBorderColor	#a1a1ca
	boxBorderColor		#a1a1ca
	dividerBorderColor	#d6d6de
	dividerBorderThickness	1
}
skinparam participant {
	borderColor		#33335b
	backgroundColor		#ffffff
}
skinparam actor {
	borderColor		#33335b
	backgroundColor		#ffffff
}

skinparam state {
	borderColor		#33335b
	backgroundColor		#ffffff
}

skinparam node {
	backgroundColor		#ffffff
}

skinparam note {
	backgroundColor 	#f6ed80
	borderColor		#d6d6de
}

skinparam activity {
	borderColor		#33335b
	backgroundColor		#ffffff
}

skinparam activityDiamond {
	borderColor		#33335b
	backgroundColor		#ffffff
}

skinparam arrowColor	#f05772
skinparam maxMessageSize 400
skinparam BoxPadding 4
component "app/mpp" as app

component lib <<sof_api>> {
	interface cpu
	interface dai
	interface dma
	interface pm_runtime

	component dai_mng
	dai_mng -up- dai
	component dma_mng
	dma_mng -up- dma
	component pm_runtime_impl
	pm_runtime_impl -up- pm_runtime
}

app .down.> dai : uses
app .down.> dma : uses
app .down.> pm_runtime : uses
app .down.> cpu : uses

component "arch/xtensa/lib" as arch_xtensa {
	component arch_cpu
}
arch_cpu -up- cpu

component <i>vendor</i> {
	component platform {
		component dai_init
		dai_init .up.> dai_mng : initialize
		component dma_init
		dma_init .up.> dma_mng : initialize
		component platform_pm_runtime
	}
	component drivers
	drivers .up.> dma : uses
}
arch_cpu .down.> platform
pm_runtime_impl .down.> platform_pm_runtime

@enduml

PlantUML version 1.2019.12(Sun Nov 03 10:24:54 UTC 2019)
(GPL source distribution)
Java Runtime: OpenJDK Runtime Environment
JVM: OpenJDK 64-Bit Server VM
Java Version: 11.0.20.1+1
Operating System: Linux
Default Encoding: UTF-8
Language: en
Country: null
--></g></svg>