<?xml version="1.0" encoding="UTF-8" standalone="no"?><svg xmlns="http://www.w3.org/2000/svg" xmlns:xlink="http://www.w3.org/1999/xlink" contentScriptType="application/ecmascript" contentStyleType="text/css" height="1307px" preserveAspectRatio="none" style="width:626px;height:1307px;" version="1.1" viewBox="0 0 626 1307" width="626px" zoomAndPan="magnify"><defs><filter height="300%" id="fpc9lbfg67o02" width="300%" x="-1" y="-1"><feGaussianBlur result="blurOut" stdDeviation="2.0"/><feColorMatrix in="blurOut" result="blurOut2" type="matrix" values="0 0 0 0 0 0 0 0 0 0 0 0 0 0 0 0 0 0 .4 0"/><feOffset dx="4.0" dy="4.0" in="blurOut2" result="blurOut3"/><feBlend in="SourceGraphic" in2="blurOut3" mode="normal"/></filter></defs><g><ellipse cx="206" cy="18" fill="#000000" filter="url(#fpc9lbfg67o02)" rx="10" ry="10" style="stroke: none; stroke-width: 1.0;"/><rect fill="#FFFFFF" filter="url(#fpc9lbfg67o02)" height="50" rx="12.5" ry="12.5" style="stroke: #33335B; stroke-width: 1.5;" width="126" x="143" y="105"/><line style="stroke: #33335B; stroke-width: 1.5;" x1="143" x2="269" y1="131.2969" y2="131.2969"/><text fill="#33335B" font-family="sans-serif" font-size="14" lengthAdjust="spacingAndGlyphs" textLength="106" x="153" y="122.9951">NewABIChange</text><rect fill="#FFFFFF" filter="url(#fpc9lbfg67o02)" height="50" rx="12.5" ry="12.5" style="stroke: #33335B; stroke-width: 1.5;" width="50" x="11" y="264.5"/><line style="stroke: #33335B; stroke-width: 1.5;" x1="11" x2="61" y1="290.7969" y2="290.7969"/><text fill="#33335B" font-family="sans-serif" font-size="14" lengthAdjust="spacingAndGlyphs" textLength="28" x="22" y="282.4951">RFC</text><path d="M96.5,262 L96.5,285.5 L61,289.5 L96.5,293.5 L96.5,317.3984 A0,0 0 0 0 96.5,317.3984 L321.5,317.3984 A0,0 0 0 0 321.5,317.3984 L321.5,272 L311.5,262 L96.5,262 A0,0 0 0 0 96.5,262 " fill="#F6ED80" filter="url(#fpc9lbfg67o02)" style="stroke: #D6D6DE; stroke-width: 1.0;"/><path d="M311.5,262 L311.5,272 L321.5,272 L311.5,262 " fill="#F6ED80" style="stroke: #D6D6DE; stroke-width: 1.0;"/><text fill="#33335B" font-family="sans-serif" font-size="13" lengthAdjust="spacingAndGlyphs" textLength="155" x="102.5" y="279.0669">RFC stage is intended to</text><text fill="#33335B" font-family="sans-serif" font-size="13" lengthAdjust="spacingAndGlyphs" textLength="178" x="102.5" y="294.1997">avoid wasted effort via early</text><text fill="#33335B" font-family="sans-serif" font-size="13" lengthAdjust="spacingAndGlyphs" textLength="200" x="106.5" y="309.3325">engagement with the ABI users</text><rect fill="#FFFFFF" filter="url(#fpc9lbfg67o02)" height="50" rx="12.5" ry="12.5" style="stroke: #33335B; stroke-width: 1.5;" width="114" x="6" y="424"/><line style="stroke: #33335B; stroke-width: 1.5;" x1="6" x2="120" y1="450.2969" y2="450.2969"/><text fill="#33335B" font-family="sans-serif" font-size="14" lengthAdjust="spacingAndGlyphs" textLength="94" x="16" y="441.9951">RFCApproved</text><rect fill="#FFFFFF" filter="url(#fpc9lbfg67o02)" height="50" rx="12.5" ry="12.5" style="stroke: #33335B; stroke-width: 1.5;" width="148" x="145" y="551"/><line style="stroke: #33335B; stroke-width: 1.5;" x1="145" x2="293" y1="577.2969" y2="577.2969"/><text fill="#33335B" font-family="sans-serif" font-size="14" lengthAdjust="spacingAndGlyphs" textLength="128" x="155" y="568.9951">FWImplementation</text><rect fill="#FFFFFF" filter="url(#fpc9lbfg67o02)" height="50" rx="12.5" ry="12.5" style="stroke: #33335B; stroke-width: 1.5;" width="131" x="153.5" y="678"/><line style="stroke: #33335B; stroke-width: 1.5;" x1="153.5" x2="284.5" y1="704.2969" y2="704.2969"/><text fill="#33335B" font-family="sans-serif" font-size="14" lengthAdjust="spacingAndGlyphs" textLength="111" x="163.5" y="695.9951">ABIClassification</text><rect fill="#FFFFFF" filter="url(#fpc9lbfg67o02)" height="50" rx="12.5" ry="12.5" style="stroke: #33335B; stroke-width: 1.5;" width="108" x="165" y="820"/><line style="stroke: #33335B; stroke-width: 1.5;" x1="165" x2="273" y1="846.2969" y2="846.2969"/><text fill="#33335B" font-family="sans-serif" font-size="14" lengthAdjust="spacingAndGlyphs" textLength="88" x="175" y="837.9951">ABIApproved</text><rect fill="#FFFFFF" filter="url(#fpc9lbfg67o02)" height="50" rx="12.5" ry="12.5" style="stroke: #33335B; stroke-width: 1.5;" width="123" x="157.5" y="962"/><line style="stroke: #33335B; stroke-width: 1.5;" x1="157.5" x2="280.5" y1="988.2969" y2="988.2969"/><text fill="#33335B" font-family="sans-serif" font-size="14" lengthAdjust="spacingAndGlyphs" textLength="103" x="167.5" y="979.9951">DriverPRCheck</text><rect fill="#FFFFFF" filter="url(#fpc9lbfg67o02)" height="50" rx="12.5" ry="12.5" style="stroke: #33335B; stroke-width: 1.5;" width="148" x="145" y="1246"/><line style="stroke: #33335B; stroke-width: 1.5;" x1="145" x2="293" y1="1272.2969" y2="1272.2969"/><text fill="#33335B" font-family="sans-serif" font-size="14" lengthAdjust="spacingAndGlyphs" textLength="128" x="155" y="1263.9951">FWChangeMerged</text><rect fill="#FFFFFF" filter="url(#fpc9lbfg67o02)" height="50" rx="12.5" ry="12.5" style="stroke: #33335B; stroke-width: 1.5;" width="150" x="464" y="1104"/><line style="stroke: #33335B; stroke-width: 1.5;" x1="464" x2="614" y1="1130.2969" y2="1130.2969"/><text fill="#33335B" font-family="sans-serif" font-size="14" lengthAdjust="spacingAndGlyphs" textLength="130" x="474" y="1121.9951">DrvChangeMerged</text><!--MD5=[d947f9ee9e8583f0175dac9ab25cc135]
link *start to NewABIChange--><path d="M206,28 C206,43.46 206,75.68 206,99.6 " fill="none" id="*start-&gt;NewABIChange" style="stroke: #F05772; stroke-width: 1.0;"/><polygon fill="#F05772" points="206,104.87,210,95.87,206,99.87,202,95.87,206,104.87" style="stroke: #F05772; stroke-width: 1.0;"/><text fill="#33335B" font-family="sans-serif" font-size="13" lengthAdjust="spacingAndGlyphs" textLength="270" x="207" y="71.0669">Firmware feature that requires ABI change</text><!--MD5=[6c0a702b064a08536bd5194c65a5e38e]
link NewABIChange to RFC--><path d="M179.81,155.26 C148.75,184.04 97.15,231.84 64.94,261.69 " fill="none" id="NewABIChange-&gt;RFC" style="stroke: #F05772; stroke-width: 1.0;"/><polygon fill="#F05772" points="61.11,265.24,70.4312,262.0596,64.7785,261.8427,64.9955,256.19,61.11,265.24" style="stroke: #F05772; stroke-width: 1.0;"/><text fill="#33335B" font-family="sans-serif" font-size="13" lengthAdjust="spacingAndGlyphs" textLength="143" x="169" y="198.0669">Send RFC Pull Request</text><text fill="#33335B" font-family="sans-serif" font-size="13" lengthAdjust="spacingAndGlyphs" textLength="172" x="154.5" y="213.1997">covering interface changes</text><text fill="#33335B" font-family="sans-serif" font-size="13" lengthAdjust="spacingAndGlyphs" textLength="181" x="152" y="228.3325">and rationale for the change</text><!--MD5=[d2ef43fa9d27348855ad0d434701d419]
link RFC to RFCApproved--><path d="M40.16,314.76 C44.97,342.82 52.88,388.99 58.02,418.94 " fill="none" id="RFC-&gt;RFCApproved" style="stroke: #F05772; stroke-width: 1.0;"/><polygon fill="#F05772" points="58.88,423.97,61.3057,414.4245,58.0372,419.0415,53.4201,415.7731,58.88,423.97" style="stroke: #F05772; stroke-width: 1.0;"/><text fill="#33335B" font-family="sans-serif" font-size="13" lengthAdjust="spacingAndGlyphs" textLength="175" x="103" y="360.0669">a) Approve+1 from at least</text><text fill="#33335B" font-family="sans-serif" font-size="13" lengthAdjust="spacingAndGlyphs" textLength="219" x="81" y="375.1997">one Driver and one FW Maintainer,</text><text fill="#33335B" font-family="sans-serif" font-size="13" lengthAdjust="spacingAndGlyphs" textLength="267" x="59" y="390.3325">b) Owners assigned for FW and driver impl</text><!--MD5=[d8266fd3bf4e4888e1b61a678ccf8c9d]
link NewABIChange to FWImplementation--><path d="M269.01,140.36 C296.02,147.79 325.18,161.12 342,185 C423.69,300.98 350.56,362.16 353,504 C353.13,511.55 357.23,514.74 353,521 C340.15,540.04 319.34,552.36 297.92,560.34 " fill="none" id="NewABIChange-&gt;FWImplementation" style="stroke: #F05772; stroke-width: 1.0;"/><polygon fill="#F05772" points="293.05,562.08,302.8713,562.8162,297.7581,560.3965,300.1777,555.2833,293.05,562.08" style="stroke: #F05772; stroke-width: 1.0;"/><text fill="#33335B" font-family="sans-serif" font-size="13" lengthAdjust="spacingAndGlyphs" textLength="165" x="379" y="367.5669">Fast path implementation</text><text fill="#33335B" font-family="sans-serif" font-size="13" lengthAdjust="spacingAndGlyphs" textLength="171" x="376" y="382.6997">only when no driver impact</text><!--MD5=[ebe142d97be07bcaa4b8d41406f3d04c]
link RFCApproved to FWImplementation--><path d="M55.93,474.18 C53.12,489.01 52.48,507.65 62,521 C79.96,546.17 110.45,559.73 139.8,566.99 " fill="none" id="RFCApproved-&gt;FWImplementation" style="stroke: #F05772; stroke-width: 1.0;"/><polygon fill="#F05772" points="144.88,568.19,137.052,562.2132,140.0161,567.0313,135.198,569.9954,144.88,568.19" style="stroke: #F05772; stroke-width: 1.0;"/><text fill="#33335B" font-family="sans-serif" font-size="13" lengthAdjust="spacingAndGlyphs" textLength="285" x="63" y="517.0669">Implementation done, submit as non-RFC PR</text><!--MD5=[035bb6c3b755ca9cb81c24f4bab9b2a0]
link FWImplementation to ABIClassification--><path d="M219,601.1 C219,621.59 219,651.08 219,672.88 " fill="none" id="FWImplementation-&gt;ABIClassification" style="stroke: #F05772; stroke-width: 1.0;"/><polygon fill="#F05772" points="219,677.97,223,668.97,219,672.97,215,668.97,219,677.97" style="stroke: #F05772; stroke-width: 1.0;"/><text fill="#33335B" font-family="sans-serif" font-size="13" lengthAdjust="spacingAndGlyphs" textLength="148" x="220" y="644.0669">Tag PR for ABI classifier</text><!--MD5=[f5ba36811c9701a18ca721fe6fc0bb7d]
link ABIClassification to ABIApproved--><path d="M219,728.07 C219,752.01 219,788.78 219,814.47 " fill="none" id="ABIClassification-&gt;ABIApproved" style="stroke: #F05772; stroke-width: 1.0;"/><polygon fill="#F05772" points="219,819.78,223,810.78,219,814.78,215,810.78,219,819.78" style="stroke: #F05772; stroke-width: 1.0;"/><text fill="#33335B" font-family="sans-serif" font-size="13" lengthAdjust="spacingAndGlyphs" textLength="171" x="251" y="771.0669">TSC member approval and</text><text fill="#33335B" font-family="sans-serif" font-size="13" lengthAdjust="spacingAndGlyphs" textLength="233" x="220" y="786.1997">ABI MAJOR.MINOR classification done</text><!--MD5=[b712fe514747f6d9b3539db6677702b6]
link ABIApproved to DriverPRCheck--><path d="M219,870.07 C219,894.01 219,930.78 219,956.47 " fill="none" id="ABIApproved-&gt;DriverPRCheck" style="stroke: #F05772; stroke-width: 1.0;"/><polygon fill="#F05772" points="219,961.78,223,952.78,219,956.78,215,952.78,219,961.78" style="stroke: #F05772; stroke-width: 1.0;"/><text fill="#33335B" font-family="sans-serif" font-size="13" lengthAdjust="spacingAndGlyphs" textLength="168" x="252.5" y="913.0669">If driver change is needed,</text><text fill="#33335B" font-family="sans-serif" font-size="13" lengthAdjust="spacingAndGlyphs" textLength="233" x="220" y="928.1997">wait until both sides ready for merge</text><!--MD5=[77b230be902b254ffa35a5507c24890b]
link DriverPRCheck to FWChangeMerged--><path d="M215.68,1012.18 C211.63,1044.48 205.61,1103.51 208,1154 C209.4,1183.49 212.78,1217.06 215.42,1240.48 " fill="none" id="DriverPRCheck-&gt;FWChangeMerged" style="stroke: #F05772; stroke-width: 1.0;"/><polygon fill="#F05772" points="216.01,1245.61,218.9561,1236.2121,215.439,1240.6427,211.0084,1237.1256,216.01,1245.61" style="stroke: #F05772; stroke-width: 1.0;"/><text fill="#33335B" font-family="sans-serif" font-size="13" lengthAdjust="spacingAndGlyphs" textLength="113" x="271" y="1126.0669">No driver change:</text><text fill="#33335B" font-family="sans-serif" font-size="13" lengthAdjust="spacingAndGlyphs" textLength="237" x="209" y="1141.1997">After review and validation ok, merge</text><!--MD5=[1f9bc16a16210cf46e79b5b37b6a649e]
link DriverPRCheck to DrvChangeMerged--><path d="M274.01,1012.07 C331.11,1037.05 420.14,1076 479.01,1101.76 " fill="none" id="DriverPRCheck-&gt;DrvChangeMerged" style="stroke: #F05772; stroke-width: 1.0;"/><polygon fill="#F05772" points="483.91,1103.9,477.2786,1096.6182,479.3322,1101.8892,474.0612,1103.9428,483.91,1103.9" style="stroke: #F05772; stroke-width: 1.0;"/><text fill="#33335B" font-family="sans-serif" font-size="13" lengthAdjust="spacingAndGlyphs" textLength="103" x="422.5" y="1055.0669">After review and</text><text fill="#33335B" font-family="sans-serif" font-size="13" lengthAdjust="spacingAndGlyphs" textLength="130" x="409" y="1070.1997">validation ok, merge</text><!--MD5=[bb2108a5d5655ec3bf608ccf9e037a4a]
link DrvChangeMerged to FWChangeMerged--><path d="M483.99,1154.07 C426.89,1179.05 337.86,1218 278.99,1243.76 " fill="none" id="DrvChangeMerged-&gt;FWChangeMerged" style="stroke: #F05772; stroke-width: 1.0;"/><polygon fill="#F05772" points="274.09,1245.9,283.9388,1245.9428,278.6678,1243.8892,280.7214,1238.6182,274.09,1245.9" style="stroke: #F05772; stroke-width: 1.0;"/><text fill="#33335B" font-family="sans-serif" font-size="13" lengthAdjust="spacingAndGlyphs" textLength="103" x="422.5" y="1197.0669">After review and</text><text fill="#33335B" font-family="sans-serif" font-size="13" lengthAdjust="spacingAndGlyphs" textLength="130" x="409" y="1212.1997">validation ok, merge</text><!--MD5=[405cfb7b3903a2c5446c5cc610d2f6b1]
@startuml
hidefootbox
skinparam componentStyle uml2

skinparam defaultFontColor	#33335b

skinparam rectangle {
	color		#d6d6de
	backgroundColor	#ffffff
}

skinparam component {
	backgroundColor	#ffffff
	borderColor	#33335b
	arrowColor	#f05772
}

skinparam interface {
	backgroundColor	#ffffff
	borderColor	#f05772
}

skinparam class {
	backgroundColor	#ffffff
	borderColor	#33335b
	arrowColor	#f05772
}
skinparam stereotypeCBackgroundColor	#6fccdd

skinparam sequence {
	arrowColor		#4a4a86
	lifeLineBorderColor	#f05772
	groupBorderColor	#a1a1ca
	boxBorderColor		#a1a1ca
	dividerBorderColor	#d6d6de
	dividerBorderThickness	1
}
skinparam participant {
	borderColor		#33335b
	backgroundColor		#ffffff
}
skinparam actor {
	borderColor		#33335b
	backgroundColor		#ffffff
}

skinparam state {
	borderColor		#33335b
	backgroundColor		#ffffff
}

skinparam node {
	backgroundColor		#ffffff
}

skinparam note {
	backgroundColor 	#f6ed80
	borderColor		#d6d6de
}

skinparam activity {
	borderColor		#33335b
	backgroundColor		#ffffff
}

skinparam activityDiamond {
	borderColor		#33335b
	backgroundColor		#ffffff
}

skinparam arrowColor	#f05772
skinparam maxMessageSize 400
skinparam BoxPadding 4
[*] - -> NewABIChange: Firmware feature that requires ABI change

NewABIChange - -> RFC: Send RFC Pull Request\ncovering interface changes\n and rationale for the change

note right of RFC : RFC stage is intended to\navoid wasted effort via early\n engagement with the ABI users

RFC - -> RFCApproved: a) Approve+1 from at least\none Driver and one FW Maintainer,\n b) Owners assigned for FW and driver impl

NewABIChange - -> FWImplementation: Fast path implementation\nonly when no driver impact

RFCApproved - -> FWImplementation: Implementation done, submit as non-RFC PR

FWImplementation - -> ABIClassification: Tag PR for ABI classifier

ABIClassification - -> ABIApproved: TSC member approval and\nABI MAJOR.MINOR classification done

ABIApproved - -> DriverPRCheck: If driver change is needed,\nwait until both sides ready for merge

DriverPRCheck - -> FWChangeMerged: No driver change:\nAfter review and validation ok, merge

DriverPRCheck - -> DrvChangeMerged: After review and\nvalidation ok, merge

DrvChangeMerged - -> FWChangeMerged: After review and\nvalidation ok, merge

@enduml

PlantUML version 1.2019.12(Sun Nov 03 10:24:54 UTC 2019)
(GPL source distribution)
Java Runtime: OpenJDK Runtime Environment
JVM: OpenJDK 64-Bit Server VM
Java Version: 11.0.23+9
Operating System: Linux
Default Encoding: UTF-8
Language: en
Country: null
--></g></svg>