<?xml version="1.0" encoding="UTF-8" standalone="no"?><svg xmlns="http://www.w3.org/2000/svg" xmlns:xlink="http://www.w3.org/1999/xlink" contentScriptType="application/ecmascript" contentStyleType="text/css" height="376px" preserveAspectRatio="none" style="width:525px;height:376px;" version="1.1" viewBox="0 0 525 376" width="525px" zoomAndPan="magnify"><defs><filter height="300%" id="f1b8flirsbrzsg" width="300%" x="-1" y="-1"><feGaussianBlur result="blurOut" stdDeviation="2.0"/><feColorMatrix in="blurOut" result="blurOut2" type="matrix" values="0 0 0 0 0 0 0 0 0 0 0 0 0 0 0 0 0 0 .4 0"/><feOffset dx="4.0" dy="4.0" in="blurOut2" result="blurOut3"/><feBlend in="SourceGraphic" in2="blurOut3" mode="normal"/></filter></defs><g><!--MD5=[ff658e621e4d039d232dc2816b4a8497]
cluster component--><polygon fill="#FFFFFF" filter="url(#f1b8flirsbrzsg)" points="22,24,107,24,114,47.6094,503,47.6094,503,364,22,364,22,24" style="stroke: #000000; stroke-width: 1.5;"/><line style="stroke: #000000; stroke-width: 1.5;" x1="22" x2="114" y1="47.6094" y2="47.6094"/><text fill="#33335B" font-family="sans-serif" font-size="14" font-weight="bold" lengthAdjust="spacingAndGlyphs" textLength="79" x="26" y="40.5332">component</text><!--MD5=[8c61665d9a482ae36487effce834807d]
class comp_driver--><rect fill="#FFFFFF" filter="url(#f1b8flirsbrzsg)" height="95.3438" id="comp_driver" style="stroke: #33335B; stroke-width: 1.5;" width="107" x="38.5" y="101.5"/><ellipse cx="56.65" cy="117.5" fill="#6FCCDD" rx="11" ry="11" style="stroke: #33335B; stroke-width: 1.0;"/><path d="M59.4156,113.375 Q59.5719,113.1563 59.7594,113.0469 Q59.9469,112.9375 60.1656,112.9375 Q60.5406,112.9375 60.775,113.2031 Q61.0094,113.4531 61.0094,114.0625 L61.0094,115.5156 Q61.0094,116.125 60.775,116.3906 Q60.5406,116.6563 60.1656,116.6563 Q59.8219,116.6563 59.6188,116.4531 Q59.4156,116.2656 59.3063,115.75 Q59.2594,115.3906 59.0719,115.2031 Q58.7438,114.8281 58.1344,114.6094 Q57.525,114.3906 56.9,114.3906 Q56.1344,114.3906 55.4938,114.7188 Q54.8688,115.0469 54.3688,115.7969 Q53.8844,116.5469 53.8844,117.5781 L53.8844,118.6719 Q53.8844,119.9063 54.775,120.7344 Q55.6656,121.5469 57.2594,121.5469 Q58.1969,121.5469 58.8531,121.2969 Q59.2438,121.1406 59.6656,120.7031 Q59.9313,120.4375 60.0719,120.3594 Q60.2281,120.2813 60.4313,120.2813 Q60.7594,120.2813 61.0094,120.5469 Q61.275,120.7969 61.275,121.1406 Q61.275,121.4844 60.9313,121.8906 Q60.4313,122.4688 59.6344,122.7969 Q58.5563,123.25 57.2594,123.25 Q55.7438,123.25 54.5406,122.625 Q53.5563,122.125 52.8688,121.0625 Q52.1813,119.9844 52.1813,118.7031 L52.1813,117.5469 Q52.1813,116.2188 52.7906,115.0781 Q53.4156,113.9219 54.5094,113.3125 Q55.6031,112.6875 56.8375,112.6875 Q57.5719,112.6875 58.2125,112.8594 Q58.8688,113.0156 59.4156,113.375 Z "/><text fill="#33335B" font-family="sans-serif" font-size="12" lengthAdjust="spacingAndGlyphs" textLength="68" x="71.35" y="122.4102">comp_driver</text><line style="stroke: #33335B; stroke-width: 1.5;" x1="39.5" x2="144.5" y1="133.5" y2="133.5"/><text fill="#33335B" font-family="sans-serif" font-size="11" lengthAdjust="spacingAndGlyphs" textLength="68" x="44.5" y="148.9189">type : uint32_t</text><text fill="#33335B" font-family="sans-serif" font-size="11" lengthAdjust="spacingAndGlyphs" textLength="61" x="44.5" y="162.7549">uid : uint32_t</text><text fill="#33335B" font-family="sans-serif" font-size="11" lengthAdjust="spacingAndGlyphs" textLength="95" x="44.5" y="176.5908">module_id : uint32_t</text><text fill="#33335B" font-family="sans-serif" font-size="11" lengthAdjust="spacingAndGlyphs" textLength="77" x="44.5" y="190.4268">ops : comp_ops</text><!--MD5=[ca01a630127841bc4a19e8cd9fad1d12]
class comp_ops--><rect fill="#FFFFFF" filter="url(#f1b8flirsbrzsg)" height="32" id="comp_ops" style="stroke: #33335B; stroke-width: 1.5;" width="91" x="46.5" y="316"/><ellipse cx="61.5" cy="332" fill="#6FCCDD" rx="11" ry="11" style="stroke: #33335B; stroke-width: 1.0;"/><path d="M64.2656,327.875 Q64.4219,327.6563 64.6094,327.5469 Q64.7969,327.4375 65.0156,327.4375 Q65.3906,327.4375 65.625,327.7031 Q65.8594,327.9531 65.8594,328.5625 L65.8594,330.0156 Q65.8594,330.625 65.625,330.8906 Q65.3906,331.1563 65.0156,331.1563 Q64.6719,331.1563 64.4688,330.9531 Q64.2656,330.7656 64.1563,330.25 Q64.1094,329.8906 63.9219,329.7031 Q63.5938,329.3281 62.9844,329.1094 Q62.375,328.8906 61.75,328.8906 Q60.9844,328.8906 60.3438,329.2188 Q59.7188,329.5469 59.2188,330.2969 Q58.7344,331.0469 58.7344,332.0781 L58.7344,333.1719 Q58.7344,334.4063 59.625,335.2344 Q60.5156,336.0469 62.1094,336.0469 Q63.0469,336.0469 63.7031,335.7969 Q64.0938,335.6406 64.5156,335.2031 Q64.7813,334.9375 64.9219,334.8594 Q65.0781,334.7813 65.2813,334.7813 Q65.6094,334.7813 65.8594,335.0469 Q66.125,335.2969 66.125,335.6406 Q66.125,335.9844 65.7813,336.3906 Q65.2813,336.9688 64.4844,337.2969 Q63.4063,337.75 62.1094,337.75 Q60.5938,337.75 59.3906,337.125 Q58.4063,336.625 57.7188,335.5625 Q57.0313,334.4844 57.0313,333.2031 L57.0313,332.0469 Q57.0313,330.7188 57.6406,329.5781 Q58.2656,328.4219 59.3594,327.8125 Q60.4531,327.1875 61.6875,327.1875 Q62.4219,327.1875 63.0625,327.3594 Q63.7188,327.5156 64.2656,327.875 Z "/><text fill="#33335B" font-family="sans-serif" font-size="12" lengthAdjust="spacingAndGlyphs" textLength="59" x="75.5" y="336.9102">comp_ops</text><!--MD5=[6b61d24a2f07ef25d3ad4d1e1b703523]
class comp_dev--><rect fill="#FFFFFF" filter="url(#f1b8flirsbrzsg)" height="178.3594" id="comp_dev" style="stroke: #33335B; stroke-width: 1.5;" width="174" x="313" y="60"/><ellipse cx="367.25" cy="76" fill="#6FCCDD" rx="11" ry="11" style="stroke: #33335B; stroke-width: 1.0;"/><path d="M370.0156,71.875 Q370.1719,71.6563 370.3594,71.5469 Q370.5469,71.4375 370.7656,71.4375 Q371.1406,71.4375 371.375,71.7031 Q371.6094,71.9531 371.6094,72.5625 L371.6094,74.0156 Q371.6094,74.625 371.375,74.8906 Q371.1406,75.1563 370.7656,75.1563 Q370.4219,75.1563 370.2188,74.9531 Q370.0156,74.7656 369.9063,74.25 Q369.8594,73.8906 369.6719,73.7031 Q369.3438,73.3281 368.7344,73.1094 Q368.125,72.8906 367.5,72.8906 Q366.7344,72.8906 366.0938,73.2188 Q365.4688,73.5469 364.9688,74.2969 Q364.4844,75.0469 364.4844,76.0781 L364.4844,77.1719 Q364.4844,78.4063 365.375,79.2344 Q366.2656,80.0469 367.8594,80.0469 Q368.7969,80.0469 369.4531,79.7969 Q369.8438,79.6406 370.2656,79.2031 Q370.5313,78.9375 370.6719,78.8594 Q370.8281,78.7813 371.0313,78.7813 Q371.3594,78.7813 371.6094,79.0469 Q371.875,79.2969 371.875,79.6406 Q371.875,79.9844 371.5313,80.3906 Q371.0313,80.9688 370.2344,81.2969 Q369.1563,81.75 367.8594,81.75 Q366.3438,81.75 365.1406,81.125 Q364.1563,80.625 363.4688,79.5625 Q362.7813,78.4844 362.7813,77.2031 L362.7813,76.0469 Q362.7813,74.7188 363.3906,73.5781 Q364.0156,72.4219 365.1094,71.8125 Q366.2031,71.1875 367.4375,71.1875 Q368.1719,71.1875 368.8125,71.3594 Q369.4688,71.5156 370.0156,71.875 Z "/><text fill="#33335B" font-family="sans-serif" font-size="12" lengthAdjust="spacingAndGlyphs" textLength="57" x="387.75" y="80.9102">comp_dev</text><line style="stroke: #33335B; stroke-width: 1.5;" x1="314" x2="486" y1="92" y2="92"/><text fill="#33335B" font-family="sans-serif" font-size="11" lengthAdjust="spacingAndGlyphs" textLength="89" x="319" y="107.4189">drv : comp_driver*</text><text fill="#33335B" font-family="sans-serif" font-size="11" lengthAdjust="spacingAndGlyphs" textLength="0" x="322" y="121.2549"/><text fill="#33335B" font-family="sans-serif" font-size="11" font-style="italic" lengthAdjust="spacingAndGlyphs" textLength="129" x="319" y="135.0908">more params goes here ...</text><text fill="#33335B" font-family="sans-serif" font-size="11" lengthAdjust="spacingAndGlyphs" textLength="0" x="322" y="148.9268"/><text fill="#33335B" font-family="sans-serif" font-size="11" lengthAdjust="spacingAndGlyphs" textLength="162" x="319" y="162.7627">params : sof_ipc_stream_params</text><text fill="#33335B" font-family="sans-serif" font-size="11" lengthAdjust="spacingAndGlyphs" textLength="0" x="322" y="176.5986"/><text fill="#33335B" font-family="sans-serif" font-size="11" lengthAdjust="spacingAndGlyphs" textLength="59" x="319" y="190.4346">bsource_list</text><text fill="#33335B" font-family="sans-serif" font-size="11" lengthAdjust="spacingAndGlyphs" textLength="44" x="319" y="204.2705">bsink_list</text><text fill="#33335B" font-family="sans-serif" font-size="11" lengthAdjust="spacingAndGlyphs" textLength="63" x="319" y="218.1064">private: void*</text><text fill="#33335B" font-family="sans-serif" font-size="11" lengthAdjust="spacingAndGlyphs" textLength="103" x="319" y="231.9424">comp : sof_ipc_comp</text><!--MD5=[77eaf3e41c79ea6e09654fb4afa917d1]
link comp_driver to comp_ops--><path d="M92,196.61 C92,233.53 92,283.32 92,310.75 " fill="none" id="comp_driver-&gt;comp_ops" style="stroke: #F05772; stroke-width: 1.0;"/><polygon fill="#F05772" points="92,315.93,96,306.93,92,310.93,88,306.93,92,315.93" style="stroke: #F05772; stroke-width: 1.0;"/><text fill="#33335B" font-family="sans-serif" font-size="13" lengthAdjust="spacingAndGlyphs" textLength="47" x="93" y="282.4951">provides</text><text fill="#33335B" font-family="sans-serif" font-size="13" lengthAdjust="spacingAndGlyphs" textLength="21" x="67.3906" y="305.2115">ops</text><!--MD5=[a5b5e72d9b0d4a48ef290bd53b21d5f1]
link comp_driver to comp_dev--><path d="M145.65,149 C190.31,149 254.92,149 307.85,149 " fill="none" id="comp_driver-&gt;comp_dev" style="stroke: #F05772; stroke-width: 1.0;"/><polygon fill="#F05772" points="312.93,149,303.93,145,307.93,149,303.93,153,312.93,149" style="stroke: #F05772; stroke-width: 1.0;"/><text fill="#33335B" font-family="sans-serif" font-size="13" lengthAdjust="spacingAndGlyphs" textLength="131" x="163.75" y="142.4951">creates in comp_new()</text><!--MD5=[1acc6cadc5e92e55af59e915380b8f29]
@startuml
hidefootbox
skinparam componentStyle uml2

skinparam defaultFontColor	#33335b

skinparam rectangle {
	color		#d6d6de
	backgroundColor	#ffffff
}

skinparam queue {
	color		#d6d6de
	backgroundColor	#ffffff
}

skinparam component {
	backgroundColor	#ffffff
	borderColor	#33335b
	arrowColor	#f05772
}

skinparam interface {
	backgroundColor	#ffffff
	borderColor	#f05772
}

skinparam class {
	backgroundColor	#ffffff
	borderColor	#33335b
	arrowColor	#f05772
}
skinparam stereotypeCBackgroundColor	#6fccdd

skinparam sequence {
	arrowColor		#4a4a86
	lifeLineBorderColor	#f05772
	groupBorderColor	#a1a1ca
	boxBorderColor		#a1a1ca
	dividerBorderColor	#d6d6de
	dividerBorderThickness	1
}
skinparam participant {
	borderColor		#33335b
	backgroundColor		#ffffff
}
skinparam actor {
	borderColor		#33335b
	backgroundColor		#ffffff
}

skinparam state {
	borderColor		#33335b
	backgroundColor		#ffffff
}

skinparam node {
	backgroundColor		#ffffff
}

skinparam note {
	backgroundColor 	#f6ed80
	borderColor		#d6d6de
}

skinparam activity {
	borderColor		#33335b
	backgroundColor		#ffffff
}

skinparam activityDiamond {
	borderColor		#33335b
	backgroundColor		#ffffff
}

skinparam arrowColor	#f05772
skinparam maxMessageSize 400
skinparam BoxPadding 4
package component {

   class comp_driver {
   	type : uint32_t
	uid : uint32_t
   	module_id : uint32_t
   	ops : comp_ops
   }
   hide comp_driver methods

   class comp_ops
   hide comp_ops methods
   hide comp_ops attributes

   class comp_dev {
   	drv : comp_driver*

   	<i>more params goes here ...</i>

   	params : sof_ipc_stream_params

   	bsource_list
   	bsink_list
   	private: void*
   	comp : sof_ipc_comp
   }
   hide comp_dev methods

   comp_driver - -> "ops" comp_ops : provides

   comp_driver -> comp_dev : creates in comp_new()
}

@enduml

PlantUML version 1.2019.12(Sun Nov 03 11:24:54 CET 2019)
(GPL source distribution)
Java Runtime: OpenJDK Runtime Environment
JVM: OpenJDK 64-Bit Server VM
Java Version: 1.8.0_302-b08
Operating System: Windows 10
Default Encoding: Cp1252
Language: en
Country: US
--></g></svg>