<?xml version="1.0" encoding="UTF-8" standalone="no"?><svg xmlns="http://www.w3.org/2000/svg" xmlns:xlink="http://www.w3.org/1999/xlink" contentScriptType="application/ecmascript" contentStyleType="text/css" height="225px" preserveAspectRatio="none" style="width:945px;height:225px;" version="1.1" viewBox="0 0 945 225" width="945px" zoomAndPan="magnify"><defs/><g><line style="stroke: #000000; stroke-width: 1.7;" x1="10" x2="10" y1="10" y2="186.375"/><line style="stroke: #000000; stroke-width: 1.7;" x1="923" x2="923" y1="10" y2="186.375"/><line style="stroke: #AAAAAA; stroke-width: 0.5; stroke-dasharray: 3.0,5.0;" x1="118" x2="118" y1="10" y2="186.375"/><line style="stroke: #AAAAAA; stroke-width: 0.5; stroke-dasharray: 3.0,5.0;" x1="168" x2="168" y1="10" y2="186.375"/><line style="stroke: #AAAAAA; stroke-width: 0.5; stroke-dasharray: 3.0,5.0;" x1="218" x2="218" y1="10" y2="186.375"/><line style="stroke: #AAAAAA; stroke-width: 0.5; stroke-dasharray: 3.0,5.0;" x1="268" x2="268" y1="10" y2="186.375"/><line style="stroke: #AAAAAA; stroke-width: 0.5; stroke-dasharray: 3.0,5.0;" x1="318" x2="318" y1="10" y2="186.375"/><line style="stroke: #AAAAAA; stroke-width: 0.5; stroke-dasharray: 3.0,5.0;" x1="368" x2="368" y1="10" y2="186.375"/><line style="stroke: #AAAAAA; stroke-width: 0.5; stroke-dasharray: 3.0,5.0;" x1="418" x2="418" y1="10" y2="186.375"/><line style="stroke: #AAAAAA; stroke-width: 0.5; stroke-dasharray: 3.0,5.0;" x1="468" x2="468" y1="10" y2="186.375"/><line style="stroke: #AAAAAA; stroke-width: 0.5; stroke-dasharray: 3.0,5.0;" x1="518" x2="518" y1="10" y2="186.375"/><line style="stroke: #AAAAAA; stroke-width: 0.5; stroke-dasharray: 3.0,5.0;" x1="568" x2="568" y1="10" y2="186.375"/><line style="stroke: #AAAAAA; stroke-width: 0.5; stroke-dasharray: 3.0,5.0;" x1="618" x2="618" y1="10" y2="186.375"/><line style="stroke: #AAAAAA; stroke-width: 0.5; stroke-dasharray: 3.0,5.0;" x1="668" x2="668" y1="10" y2="186.375"/><line style="stroke: #AAAAAA; stroke-width: 0.5; stroke-dasharray: 3.0,5.0;" x1="718" x2="718" y1="10" y2="186.375"/><line style="stroke: #AAAAAA; stroke-width: 0.5; stroke-dasharray: 3.0,5.0;" x1="768" x2="768" y1="10" y2="186.375"/><line style="stroke: #AAAAAA; stroke-width: 0.5; stroke-dasharray: 3.0,5.0;" x1="818" x2="818" y1="10" y2="186.375"/><line style="stroke: #AAAAAA; stroke-width: 0.5; stroke-dasharray: 3.0,5.0;" x1="868" x2="868" y1="10" y2="186.375"/><line style="stroke: #AAAAAA; stroke-width: 0.5; stroke-dasharray: 3.0,5.0;" x1="918" x2="918" y1="10" y2="186.375"/><text fill="#33335B" font-family="sans-serif" font-size="12" lengthAdjust="spacingAndGlyphs" textLength="105" x="15" y="22.457">Speech application</text><line style="stroke: #000000; stroke-width: 1.0;" x1="10" x2="121" y1="26.0938" y2="26.0938"/><line style="stroke: #000000; stroke-width: 1.0;" x1="121" x2="131" y1="26.0938" y2="10"/><line style="stroke: #038048; stroke-width: 1.5;" x1="78" x2="118" y1="60.1875" y2="60.1875"/><line style="stroke: #038048; stroke-width: 1.5;" x1="118" x2="568" y1="60.1875" y2="60.1875"/><line style="stroke: #038048; stroke-width: 1.5;" x1="568" x2="918" y1="40.1875" y2="40.1875"/><line style="stroke: #038048; stroke-width: 1.5;" x1="118" x2="118" y1="60.1875" y2="60.1875"/><line style="stroke: #038048; stroke-width: 1.5;" x1="568" x2="568" y1="40.1875" y2="60.1875"/><text fill="#33335B" font-family="sans-serif" font-size="12" lengthAdjust="spacingAndGlyphs" textLength="20" x="15" y="57.5508">idle</text><text fill="#33335B" font-family="sans-serif" font-size="12" lengthAdjust="spacingAndGlyphs" textLength="63" x="15" y="37.5508">Processing</text><line style="stroke: #000000; stroke-width: 1.7;" x1="10" x2="923" y1="10" y2="10"/><text fill="#33335B" font-family="sans-serif" font-size="12" lengthAdjust="spacingAndGlyphs" textLength="74" x="15" y="102.6445">Audio Stream</text><line style="stroke: #000000; stroke-width: 1.0;" x1="10" x2="90" y1="106.2813" y2="106.2813"/><line style="stroke: #000000; stroke-width: 1.0;" x1="90" x2="100" y1="106.2813" y2="90.1875"/><polygon fill="#D7E0F2" points="31,144.375,106,144.375,118,156.375,106,168.375,31,168.375" style="stroke: #D7E0F2; stroke-width: 1.5;"/><path d="M31,144.375 L106,144.375 L118,156.375 L106,168.375 L31,168.375 " fill="#D7E0F2" style="stroke: #038048; stroke-width: 1.5;"/><polygon fill="#D7E0F2" points="130,144.375,356,144.375,368,156.375,356,168.375,130,168.375,118,156.375" style="stroke: #038048; stroke-width: 1.5;"/><polygon fill="#D7E0F2" points="380,144.375,856,144.375,868,156.375,856,168.375,380,168.375,368,156.375" style="stroke: #038048; stroke-width: 1.5;"/><polygon fill="#D7E0F2" points="880,144.375,918,144.375,918,168.375,880,168.375,868,156.375" style="stroke: #D7E0F2; stroke-width: 1.5;"/><path d="M918,144.375 L880,144.375 L868,156.375 L880,168.375 L918,168.375 " fill="#D7E0F2" style="stroke: #038048; stroke-width: 1.5;"/><text fill="#33335B" font-family="sans-serif" font-size="12" lengthAdjust="spacingAndGlyphs" textLength="63" x="43" y="161.2852">Preceeding</text><text fill="#33335B" font-family="sans-serif" font-size="12" lengthAdjust="spacingAndGlyphs" textLength="59" x="213.5" y="161.2852">Keyphrase</text><text fill="#33335B" font-family="sans-serif" font-size="12" lengthAdjust="spacingAndGlyphs" textLength="59" x="588.5" y="161.2852">Command</text><text fill="#33335B" font-family="sans-serif" font-size="12" lengthAdjust="spacingAndGlyphs" textLength="53" x="880" y="161.2852">Following</text><line style="stroke: #FF0000; stroke-width: 1.0;" x1="118" x2="368" y1="135.375" y2="135.375"/><polygon fill="#FF0000" points="125.5175,132.6388,125.5175,138.1112,118,135.375" style="stroke: #FF0000; stroke-width: 1.0;"/><polygon fill="#FF0000" points="360.4825,138.1112,360.4825,132.6388,368,135.375" style="stroke: #FF0000; stroke-width: 1.0;"/><text fill="#000000" font-family="Serif" font-size="14" lengthAdjust="spacingAndGlyphs" textLength="123" x="181.5" y="127.2988">keyphrase length - L1</text><line style="stroke: #FF0000; stroke-width: 1.0;" x1="368" x2="568" y1="135.375" y2="135.375"/><polygon fill="#FF0000" points="375.5175,132.6388,375.5175,138.1112,368,135.375" style="stroke: #FF0000; stroke-width: 1.0;"/><polygon fill="#FF0000" points="560.4825,138.1112,560.4825,132.6388,568,135.375" style="stroke: #FF0000; stroke-width: 1.0;"/><text fill="#000000" font-family="Serif" font-size="14" lengthAdjust="spacingAndGlyphs" textLength="51" x="442" y="109.5527">detection</text><text fill="#000000" font-family="Serif" font-size="14" lengthAdjust="spacingAndGlyphs" textLength="52" x="442" y="127.2988">time - L2</text><line style="stroke: #FF0000; stroke-width: 1.0;" x1="568" x2="768" y1="135.375" y2="135.375"/><polygon fill="#FF0000" points="575.5175,132.6388,575.5175,138.1112,568,135.375" style="stroke: #FF0000; stroke-width: 1.0;"/><polygon fill="#FF0000" points="760.4825,138.1112,760.4825,132.6388,768,135.375" style="stroke: #FF0000; stroke-width: 1.0;"/><text fill="#000000" font-family="Serif" font-size="14" lengthAdjust="spacingAndGlyphs" textLength="29" x="604.5" y="109.5527">burst</text><text fill="#000000" font-family="Serif" font-size="14" lengthAdjust="spacingAndGlyphs" textLength="127" x="604.5" y="127.2988">transmission time - L3</text><line style="stroke: #FF0000; stroke-width: 1.0;" x1="768" x2="918" y1="135.375" y2="135.375"/><polygon fill="#FF0000" points="775.5175,132.6388,775.5175,138.1112,768,135.375" style="stroke: #FF0000; stroke-width: 1.0;"/><polygon fill="#FF0000" points="910.4825,138.1112,910.4825,132.6388,918,135.375" style="stroke: #FF0000; stroke-width: 1.0;"/><text fill="#000000" font-family="Serif" font-size="14" lengthAdjust="spacingAndGlyphs" textLength="34" x="809.5" y="109.5527">safety</text><text fill="#000000" font-family="Serif" font-size="14" lengthAdjust="spacingAndGlyphs" textLength="67" x="809.5" y="127.2988">margin - L4</text><line style="stroke: #000000; stroke-width: 1.7;" x1="10" x2="923" y1="90.1875" y2="90.1875"/><line style="stroke: #000000; stroke-width: 2.0;" x1="118" x2="118" y1="186.375" y2="191.375"/><line style="stroke: #000000; stroke-width: 2.0;" x1="168" x2="168" y1="186.375" y2="191.375"/><line style="stroke: #000000; stroke-width: 2.0;" x1="218" x2="218" y1="186.375" y2="191.375"/><line style="stroke: #000000; stroke-width: 2.0;" x1="268" x2="268" y1="186.375" y2="191.375"/><line style="stroke: #000000; stroke-width: 2.0;" x1="318" x2="318" y1="186.375" y2="191.375"/><line style="stroke: #000000; stroke-width: 2.0;" x1="368" x2="368" y1="186.375" y2="191.375"/><line style="stroke: #000000; stroke-width: 2.0;" x1="418" x2="418" y1="186.375" y2="191.375"/><line style="stroke: #000000; stroke-width: 2.0;" x1="468" x2="468" y1="186.375" y2="191.375"/><line style="stroke: #000000; stroke-width: 2.0;" x1="518" x2="518" y1="186.375" y2="191.375"/><line style="stroke: #000000; stroke-width: 2.0;" x1="568" x2="568" y1="186.375" y2="191.375"/><line style="stroke: #000000; stroke-width: 2.0;" x1="618" x2="618" y1="186.375" y2="191.375"/><line style="stroke: #000000; stroke-width: 2.0;" x1="668" x2="668" y1="186.375" y2="191.375"/><line style="stroke: #000000; stroke-width: 2.0;" x1="718" x2="718" y1="186.375" y2="191.375"/><line style="stroke: #000000; stroke-width: 2.0;" x1="768" x2="768" y1="186.375" y2="191.375"/><line style="stroke: #000000; stroke-width: 2.0;" x1="818" x2="818" y1="186.375" y2="191.375"/><line style="stroke: #000000; stroke-width: 2.0;" x1="868" x2="868" y1="186.375" y2="191.375"/><line style="stroke: #000000; stroke-width: 2.0;" x1="918" x2="918" y1="186.375" y2="191.375"/><line style="stroke: #000000; stroke-width: 2.0;" x1="118" x2="918" y1="186.375" y2="186.375"/><text fill="#33335B" font-family="sans-serif" font-size="12" lengthAdjust="spacingAndGlyphs" textLength="7" x="114.5" y="204.832">0</text><text fill="#33335B" font-family="sans-serif" font-size="12" lengthAdjust="spacingAndGlyphs" textLength="21" x="357.5" y="204.832">100</text><text fill="#33335B" font-family="sans-serif" font-size="12" lengthAdjust="spacingAndGlyphs" textLength="21" x="557.5" y="204.832">180</text><text fill="#33335B" font-family="sans-serif" font-size="12" lengthAdjust="spacingAndGlyphs" textLength="21" x="857.5" y="204.832">300</text><line style="stroke: #0000FF; stroke-width: 1.0;" x1="568" x2="568" y1="144.375" y2="60.1875"/><polygon fill="#0000FF" points="570.7362,67.705,565.2638,67.705,568,60.1875" style="stroke: #0000FF; stroke-width: 1.0;"/><text fill="#0000FF" font-family="Serif" font-size="14" lengthAdjust="spacingAndGlyphs" textLength="63" x="568" y="82.375">notification</text><text fill="#33335B" font-family="sans-serif" font-size="10" lengthAdjust="spacingAndGlyphs" textLength="97" x="418" y="211.8496">timeline not to scale</text><!--MD5=[b87c1c1d6b987ec327c2f4b3325005a9]
@startuml
hidefootbox
skinparam componentStyle uml2

skinparam defaultFontColor	#33335b

skinparam rectangle {
	color		#d6d6de
	backgroundColor	#ffffff
}

skinparam component {
	backgroundColor	#ffffff
	borderColor	#33335b
	arrowColor	#f05772
}

skinparam interface {
	backgroundColor	#ffffff
	borderColor	#f05772
}

skinparam class {
	backgroundColor	#ffffff
	borderColor	#33335b
	arrowColor	#f05772
}
skinparam stereotypeCBackgroundColor	#6fccdd

skinparam sequence {
	arrowColor		#4a4a86
	lifeLineBorderColor	#f05772
	groupBorderColor	#a1a1ca
	boxBorderColor		#a1a1ca
	dividerBorderColor	#d6d6de
	dividerBorderThickness	1
}
skinparam participant {
	borderColor		#33335b
	backgroundColor		#ffffff
}
skinparam actor {
	borderColor		#33335b
	backgroundColor		#ffffff
}

skinparam state {
	borderColor		#33335b
	backgroundColor		#ffffff
}

skinparam node {
	backgroundColor		#ffffff
}

skinparam note {
	backgroundColor 	#f6ed80
	borderColor		#d6d6de
}

scale max 1024 width

footer: timeline not to scale 
robust "Speech application" as App
concise "Audio Stream" as Audio

App is idle
Audio is "Preceeding"

@App
0 is idle
+180 is Processing

@Audio
0 is Keyphrase
@0 <-> @100 : keyphrase length - L1
@100 <-> @+80 : detection\ntime - L2
@180 <-> @+80 : burst \ntransmission time - L3
Audio@180 -> App@180 : notification
@260 <-> @+60 : safety \nmargin - L4
100 is Command
+200 is Following
@enduml

PlantUML version 1.2019.12(Sun Nov 03 11:24:54 CET 2019)
(GPL source distribution)
Java Runtime: OpenJDK Runtime Environment
JVM: OpenJDK 64-Bit Server VM
Java Version: 1.8.0_302-b08
Operating System: Windows 10
Default Encoding: Cp1252
Language: en
Country: US
--></g></svg>