<?xml version="1.0" encoding="UTF-8" standalone="no"?><svg xmlns="http://www.w3.org/2000/svg" xmlns:xlink="http://www.w3.org/1999/xlink" contentScriptType="application/ecmascript" contentStyleType="text/css" height="863px" preserveAspectRatio="none" style="width:655px;height:863px;" version="1.1" viewBox="0 0 655 863" width="655px" zoomAndPan="magnify"><defs><filter height="300%" id="fso2oqbd3lavm" width="300%" x="-1" y="-1"><feGaussianBlur result="blurOut" stdDeviation="2.0"/><feColorMatrix in="blurOut" result="blurOut2" type="matrix" values="0 0 0 0 0 0 0 0 0 0 0 0 0 0 0 0 0 0 .4 0"/><feOffset dx="4.0" dy="4.0" in="blurOut2" result="blurOut3"/><feBlend in="SourceGraphic" in2="blurOut3" mode="normal"/></filter></defs><g><rect fill="#FFFFFF" filter="url(#fso2oqbd3lavm)" height="118.0547" style="stroke: #F05772; stroke-width: 1.0;" width="10" x="188" y="71.9609"/><rect fill="#FFFFFF" filter="url(#fso2oqbd3lavm)" height="160.4063" style="stroke: #F05772; stroke-width: 1.0;" width="10" x="188" y="220.3672"/><rect fill="#FFFFFF" filter="url(#fso2oqbd3lavm)" height="84.7031" style="stroke: #F05772; stroke-width: 1.0;" width="10" x="193" y="258.7188"/><rect fill="#FFFFFF" filter="url(#fso2oqbd3lavm)" height="290.4609" style="stroke: #F05772; stroke-width: 1.0;" width="10" x="188" y="543.1797"/><rect fill="#FFFFFF" filter="url(#fso2oqbd3lavm)" height="84.7031" style="stroke: #F05772; stroke-width: 1.0;" width="10" x="193" y="581.5313"/><rect fill="#FFFFFF" filter="url(#fso2oqbd3lavm)" height="87.7031" style="stroke: #F05772; stroke-width: 1.0;" width="10" x="401" y="425.125"/><rect fill="#FFFFFF" filter="url(#fso2oqbd3lavm)" height="253.1094" style="stroke: #F05772; stroke-width: 1.0;" width="10" x="401" y="543.1797"/><rect fill="#FFFFFF" filter="url(#fso2oqbd3lavm)" height="84.7031" style="stroke: #F05772; stroke-width: 1.0;" width="10" x="406" y="711.5859"/><line style="stroke: #F05772; stroke-width: 1.0; stroke-dasharray: 5.0,5.0;" x1="26" x2="26" y1="39.6094" y2="851.6406"/><line style="stroke: #F05772; stroke-width: 1.0; stroke-dasharray: 5.0,5.0;" x1="193" x2="193" y1="39.6094" y2="851.6406"/><line style="stroke: #F05772; stroke-width: 1.0; stroke-dasharray: 5.0,5.0;" x1="406" x2="406" y1="39.6094" y2="851.6406"/><line style="stroke: #F05772; stroke-width: 1.0; stroke-dasharray: 5.0,5.0;" x1="619" x2="619" y1="39.6094" y2="851.6406"/><rect fill="#FFFFFF" filter="url(#fso2oqbd3lavm)" height="31.6094" style="stroke: #33335B; stroke-width: 1.5;" width="32" x="8" y="3"/><text fill="#33335B" font-family="sans-serif" font-size="14" lengthAdjust="spacingAndGlyphs" textLength="18" x="15" y="24.5332">ipc</text><rect fill="#FFFFFF" filter="url(#fso2oqbd3lavm)" height="31.6094" style="stroke: #33335B; stroke-width: 1.5;" width="54" x="164" y="3"/><text fill="#33335B" font-family="sans-serif" font-size="14" lengthAdjust="spacingAndGlyphs" textLength="40" x="171" y="24.5332">core 0</text><rect fill="#FFFFFF" filter="url(#fso2oqbd3lavm)" height="31.6094" style="stroke: #33335B; stroke-width: 1.5;" width="54" x="377" y="3"/><text fill="#33335B" font-family="sans-serif" font-size="14" lengthAdjust="spacingAndGlyphs" textLength="40" x="384" y="24.5332">core 1</text><rect fill="#FFFFFF" filter="url(#fso2oqbd3lavm)" height="31.6094" style="stroke: #33335B; stroke-width: 1.5;" width="54" x="590" y="3"/><text fill="#33335B" font-family="sans-serif" font-size="14" lengthAdjust="spacingAndGlyphs" textLength="40" x="597" y="24.5332">wallclk</text><rect fill="#FFFFFF" filter="url(#fso2oqbd3lavm)" height="118.0547" style="stroke: #F05772; stroke-width: 1.0;" width="10" x="188" y="71.9609"/><rect fill="#FFFFFF" filter="url(#fso2oqbd3lavm)" height="160.4063" style="stroke: #F05772; stroke-width: 1.0;" width="10" x="188" y="220.3672"/><rect fill="#FFFFFF" filter="url(#fso2oqbd3lavm)" height="84.7031" style="stroke: #F05772; stroke-width: 1.0;" width="10" x="193" y="258.7188"/><rect fill="#FFFFFF" filter="url(#fso2oqbd3lavm)" height="290.4609" style="stroke: #F05772; stroke-width: 1.0;" width="10" x="188" y="543.1797"/><rect fill="#FFFFFF" filter="url(#fso2oqbd3lavm)" height="84.7031" style="stroke: #F05772; stroke-width: 1.0;" width="10" x="193" y="581.5313"/><rect fill="#FFFFFF" filter="url(#fso2oqbd3lavm)" height="87.7031" style="stroke: #F05772; stroke-width: 1.0;" width="10" x="401" y="425.125"/><rect fill="#FFFFFF" filter="url(#fso2oqbd3lavm)" height="253.1094" style="stroke: #F05772; stroke-width: 1.0;" width="10" x="401" y="543.1797"/><rect fill="#FFFFFF" filter="url(#fso2oqbd3lavm)" height="84.7031" style="stroke: #F05772; stroke-width: 1.0;" width="10" x="406" y="711.5859"/><polygon fill="#4A4A86" points="176,67.9609,186,71.9609,176,75.9609,180,71.9609" style="stroke: #4A4A86; stroke-width: 1.0;"/><line style="stroke: #4A4A86; stroke-width: 1.0;" x1="26" x2="182" y1="71.9609" y2="71.9609"/><text fill="#33335B" font-family="sans-serif" font-size="13" lengthAdjust="spacingAndGlyphs" textLength="143" x="33" y="67.1045">new pipeline 0 (@core 0)</text><polygon fill="#4A4A86" points="607,98.3125,617,102.3125,607,106.3125,611,102.3125" style="stroke: #4A4A86; stroke-width: 1.0;"/><line style="stroke: #4A4A86; stroke-width: 1.0;" x1="198" x2="613" y1="102.3125" y2="102.3125"/><text fill="#33335B" font-family="sans-serif" font-size="13" lengthAdjust="spacingAndGlyphs" textLength="87" x="205" y="97.4561">timer_register()</text><line style="stroke: #4A4A86; stroke-width: 1.0;" x1="198" x2="240" y1="132.6641" y2="132.6641"/><line style="stroke: #4A4A86; stroke-width: 1.0;" x1="240" x2="240" y1="132.6641" y2="145.6641"/><line style="stroke: #4A4A86; stroke-width: 1.0;" x1="199" x2="240" y1="145.6641" y2="145.6641"/><polygon fill="#4A4A86" points="209,141.6641,199,145.6641,209,149.6641,205,145.6641" style="stroke: #4A4A86; stroke-width: 1.0;"/><text fill="#33335B" font-family="sans-serif" font-size="13" lengthAdjust="spacingAndGlyphs" textLength="184" x="205" y="127.8076">work_schedule(ppl 0 dai, +1ms)</text><polygon fill="#4A4A86" points="607,172.0156,617,176.0156,607,180.0156,611,176.0156" style="stroke: #4A4A86; stroke-width: 1.0;"/><line style="stroke: #4A4A86; stroke-width: 1.0;" x1="198" x2="613" y1="176.0156" y2="176.0156"/><text fill="#33335B" font-family="sans-serif" font-size="13" lengthAdjust="spacingAndGlyphs" textLength="180" x="205" y="171.1592">work_set_timer(period = +1ms)</text><polygon fill="#4A4A86" points="37,186.0156,27,190.0156,37,194.0156,33,190.0156" style="stroke: #4A4A86; stroke-width: 1.0;"/><line style="stroke: #4A4A86; stroke-width: 1.0; stroke-dasharray: 2.0,2.0;" x1="31" x2="192" y1="190.0156" y2="190.0156"/><polygon fill="#4A4A86" points="209,216.3672,199,220.3672,209,224.3672,205,220.3672" style="stroke: #4A4A86; stroke-width: 1.0;"/><line style="stroke: #4A4A86; stroke-width: 1.0;" x1="203" x2="618" y1="220.3672" y2="220.3672"/><text fill="#33335B" font-family="sans-serif" font-size="13" lengthAdjust="spacingAndGlyphs" textLength="90" x="215" y="215.5107">cb() @ next ms</text><line style="stroke: #4A4A86; stroke-width: 1.0;" x1="198" x2="245" y1="245.7188" y2="245.7188"/><line style="stroke: #4A4A86; stroke-width: 1.0;" x1="245" x2="245" y1="245.7188" y2="258.7188"/><line style="stroke: #4A4A86; stroke-width: 1.0;" x1="204" x2="245" y1="258.7188" y2="258.7188"/><polygon fill="#4A4A86" points="214,254.7188,204,258.7188,214,262.7188,210,258.7188" style="stroke: #4A4A86; stroke-width: 1.0;"/><text fill="#33335B" font-family="sans-serif" font-size="13" lengthAdjust="spacingAndGlyphs" textLength="75" x="210" y="240.8623">ppl 0 dai cb()</text><line style="stroke: #4A4A86; stroke-width: 1.0;" x1="203" x2="245" y1="294.0703" y2="294.0703"/><line style="stroke: #4A4A86; stroke-width: 1.0;" x1="245" x2="245" y1="294.0703" y2="307.0703"/><line style="stroke: #4A4A86; stroke-width: 1.0;" x1="204" x2="245" y1="307.0703" y2="307.0703"/><polygon fill="#4A4A86" points="214,303.0703,204,307.0703,214,311.0703,210,307.0703" style="stroke: #4A4A86; stroke-width: 1.0;"/><text fill="#33335B" font-family="sans-serif" font-size="13" lengthAdjust="spacingAndGlyphs" textLength="60" x="210" y="289.2139">ppl 0 copy</text><line style="stroke: #4A4A86; stroke-width: 1.0;" x1="203" x2="245" y1="342.4219" y2="342.4219"/><line style="stroke: #4A4A86; stroke-width: 1.0;" x1="245" x2="245" y1="342.4219" y2="355.4219"/><line style="stroke: #4A4A86; stroke-width: 1.0;" x1="198" x2="245" y1="355.4219" y2="355.4219"/><polygon fill="#4A4A86" points="208,351.4219,198,355.4219,208,359.4219,204,355.4219" style="stroke: #4A4A86; stroke-width: 1.0;"/><text fill="#33335B" font-family="sans-serif" font-size="13" lengthAdjust="spacingAndGlyphs" textLength="184" x="210" y="337.5654">work_schedule(ppl 0 dai, +1ms)</text><polygon fill="#4A4A86" points="607,376.7734,617,380.7734,607,384.7734,611,380.7734" style="stroke: #4A4A86; stroke-width: 1.0;"/><line style="stroke: #4A4A86; stroke-width: 1.0;" x1="193" x2="613" y1="380.7734" y2="380.7734"/><text fill="#33335B" font-family="sans-serif" font-size="13" lengthAdjust="spacingAndGlyphs" textLength="96" x="200" y="375.917">work_set_timer()</text><polygon fill="#4A4A86" points="181,407.125,191,411.125,181,415.125,185,411.125" style="stroke: #4A4A86; stroke-width: 1.0;"/><line style="stroke: #4A4A86; stroke-width: 1.0;" x1="26" x2="187" y1="411.125" y2="411.125"/><text fill="#33335B" font-family="sans-serif" font-size="13" lengthAdjust="spacingAndGlyphs" textLength="143" x="33" y="406.2686">new pipeline 1 (@core 1)</text><polygon fill="#4A4A86" points="389,421.125,399,425.125,389,429.125,393,425.125" style="stroke: #4A4A86; stroke-width: 1.0;"/><line style="stroke: #4A4A86; stroke-width: 1.0;" x1="193" x2="395" y1="425.125" y2="425.125"/><polygon fill="#4A4A86" points="607,451.4766,617,455.4766,607,459.4766,611,455.4766" style="stroke: #4A4A86; stroke-width: 1.0;"/><line style="stroke: #4A4A86; stroke-width: 1.0;" x1="411" x2="613" y1="455.4766" y2="455.4766"/><text fill="#33335B" font-family="sans-serif" font-size="13" lengthAdjust="spacingAndGlyphs" textLength="87" x="418" y="450.6201">timer_register()</text><line style="stroke: #4A4A86; stroke-width: 1.0;" x1="411" x2="453" y1="485.8281" y2="485.8281"/><line style="stroke: #4A4A86; stroke-width: 1.0;" x1="453" x2="453" y1="485.8281" y2="498.8281"/><line style="stroke: #4A4A86; stroke-width: 1.0;" x1="412" x2="453" y1="498.8281" y2="498.8281"/><polygon fill="#4A4A86" points="422,494.8281,412,498.8281,422,502.8281,418,498.8281" style="stroke: #4A4A86; stroke-width: 1.0;"/><text fill="#33335B" font-family="sans-serif" font-size="13" lengthAdjust="spacingAndGlyphs" textLength="143" x="418" y="480.9717">work_schedule(ppl 1 dai)</text><polygon fill="#4A4A86" points="204,508.8281,194,512.8281,204,516.8281,200,512.8281" style="stroke: #4A4A86; stroke-width: 1.0;"/><line style="stroke: #4A4A86; stroke-width: 1.0; stroke-dasharray: 2.0,2.0;" x1="198" x2="405" y1="512.8281" y2="512.8281"/><polygon fill="#4A4A86" points="209,539.1797,199,543.1797,209,547.1797,205,543.1797" style="stroke: #4A4A86; stroke-width: 1.0;"/><line style="stroke: #4A4A86; stroke-width: 1.0;" x1="203" x2="618" y1="543.1797" y2="543.1797"/><text fill="#33335B" font-family="sans-serif" font-size="13" lengthAdjust="spacingAndGlyphs" textLength="90" x="215" y="538.3232">cb() @ next ms</text><line style="stroke: #4A4A86; stroke-width: 1.0;" x1="198" x2="245" y1="568.5313" y2="568.5313"/><line style="stroke: #4A4A86; stroke-width: 1.0;" x1="245" x2="245" y1="568.5313" y2="581.5313"/><line style="stroke: #4A4A86; stroke-width: 1.0;" x1="204" x2="245" y1="581.5313" y2="581.5313"/><polygon fill="#4A4A86" points="214,577.5313,204,581.5313,214,585.5313,210,581.5313" style="stroke: #4A4A86; stroke-width: 1.0;"/><text fill="#33335B" font-family="sans-serif" font-size="13" lengthAdjust="spacingAndGlyphs" textLength="75" x="210" y="563.6748">ppl 0 dai cb()</text><line style="stroke: #4A4A86; stroke-width: 1.0;" x1="203" x2="245" y1="616.8828" y2="616.8828"/><line style="stroke: #4A4A86; stroke-width: 1.0;" x1="245" x2="245" y1="616.8828" y2="629.8828"/><line style="stroke: #4A4A86; stroke-width: 1.0;" x1="204" x2="245" y1="629.8828" y2="629.8828"/><polygon fill="#4A4A86" points="214,625.8828,204,629.8828,214,633.8828,210,629.8828" style="stroke: #4A4A86; stroke-width: 1.0;"/><text fill="#33335B" font-family="sans-serif" font-size="13" lengthAdjust="spacingAndGlyphs" textLength="60" x="210" y="612.0264">ppl 0 copy</text><line style="stroke: #4A4A86; stroke-width: 1.0;" x1="203" x2="245" y1="665.2344" y2="665.2344"/><line style="stroke: #4A4A86; stroke-width: 1.0;" x1="245" x2="245" y1="665.2344" y2="678.2344"/><line style="stroke: #4A4A86; stroke-width: 1.0;" x1="198" x2="245" y1="678.2344" y2="678.2344"/><polygon fill="#4A4A86" points="208,674.2344,198,678.2344,208,682.2344,204,678.2344" style="stroke: #4A4A86; stroke-width: 1.0;"/><text fill="#33335B" font-family="sans-serif" font-size="13" lengthAdjust="spacingAndGlyphs" textLength="184" x="210" y="660.3779">work_schedule(ppl 0 dai, +1ms)</text><line style="stroke: #4A4A86; stroke-width: 1.0;" x1="411" x2="458" y1="698.5859" y2="698.5859"/><line style="stroke: #4A4A86; stroke-width: 1.0;" x1="458" x2="458" y1="698.5859" y2="711.5859"/><line style="stroke: #4A4A86; stroke-width: 1.0;" x1="417" x2="458" y1="711.5859" y2="711.5859"/><polygon fill="#4A4A86" points="427,707.5859,417,711.5859,427,715.5859,423,711.5859" style="stroke: #4A4A86; stroke-width: 1.0;"/><text fill="#33335B" font-family="sans-serif" font-size="13" lengthAdjust="spacingAndGlyphs" textLength="75" x="423" y="693.7295">ppl 1 dai cb()</text><line style="stroke: #4A4A86; stroke-width: 1.0;" x1="416" x2="458" y1="746.9375" y2="746.9375"/><line style="stroke: #4A4A86; stroke-width: 1.0;" x1="458" x2="458" y1="746.9375" y2="759.9375"/><line style="stroke: #4A4A86; stroke-width: 1.0;" x1="417" x2="458" y1="759.9375" y2="759.9375"/><polygon fill="#4A4A86" points="427,755.9375,417,759.9375,427,763.9375,423,759.9375" style="stroke: #4A4A86; stroke-width: 1.0;"/><text fill="#33335B" font-family="sans-serif" font-size="13" lengthAdjust="spacingAndGlyphs" textLength="60" x="423" y="742.0811">ppl 1 copy</text><line style="stroke: #4A4A86; stroke-width: 1.0;" x1="416" x2="458" y1="795.2891" y2="795.2891"/><line style="stroke: #4A4A86; stroke-width: 1.0;" x1="458" x2="458" y1="795.2891" y2="808.2891"/><line style="stroke: #4A4A86; stroke-width: 1.0;" x1="411" x2="458" y1="808.2891" y2="808.2891"/><polygon fill="#4A4A86" points="421,804.2891,411,808.2891,421,812.2891,417,808.2891" style="stroke: #4A4A86; stroke-width: 1.0;"/><text fill="#33335B" font-family="sans-serif" font-size="13" lengthAdjust="spacingAndGlyphs" textLength="184" x="423" y="790.4326">work_schedule(ppl 1 dai, +1ms)</text><polygon fill="#4A4A86" points="607,829.6406,617,833.6406,607,837.6406,611,833.6406" style="stroke: #4A4A86; stroke-width: 1.0;"/><line style="stroke: #4A4A86; stroke-width: 1.0;" x1="193" x2="613" y1="833.6406" y2="833.6406"/><text fill="#33335B" font-family="sans-serif" font-size="13" lengthAdjust="spacingAndGlyphs" textLength="96" x="200" y="828.7842">work_set_timer()</text><!--MD5=[a0b11a7ef9f22f6a2d98a81f41cd393e]
@startuml
hidefootbox
skinparam componentStyle uml2

skinparam defaultFontColor	#33335b

skinparam rectangle {
	color		#d6d6de
	backgroundColor	#ffffff
}

skinparam component {
	backgroundColor	#ffffff
	borderColor	#33335b
	arrowColor	#f05772
}

skinparam interface {
	backgroundColor	#ffffff
	borderColor	#f05772
}

skinparam class {
	backgroundColor	#ffffff
	borderColor	#33335b
	arrowColor	#f05772
}
skinparam stereotypeCBackgroundColor	#6fccdd

skinparam sequence {
	arrowColor		#4a4a86
	lifeLineBorderColor	#f05772
	groupBorderColor	#a1a1ca
	boxBorderColor		#a1a1ca
	dividerBorderColor	#d6d6de
	dividerBorderThickness	1
}
skinparam participant {
	borderColor		#33335b
	backgroundColor		#ffffff
}
skinparam actor {
	borderColor		#33335b
	backgroundColor		#ffffff
}

skinparam state {
	borderColor		#33335b
	backgroundColor		#ffffff
}

skinparam node {
	backgroundColor		#ffffff
}

skinparam note {
	backgroundColor 	#f6ed80
	borderColor		#d6d6de
}
participant ipc
participant "core 0" as core_0
participant "core 1" as core_1
participant wallclk

ipc -> core_0 : new pipeline 0 (@core 0)
   activate core_0
   core_0 -> wallclk : timer_register()
   core_0 -> core_0 : work_schedule(ppl 0 dai, +1ms)
   core_0 -> wallclk : work_set_timer(period = +1ms)
ipc <- - core_0
deactivate core_0

wallclk -> core_0 : cb() @ next ms
   activate core_0
   core_0 -> core_0 : ppl 0 dai cb()
      activate core_0
         core_0 -> core_0 : ppl 0 copy
         core_0 -> core_0 : work_schedule(ppl 0 dai, +1ms)
      deactivate core_0
   core_0 -> wallclk : work_set_timer()
   deactivate core_0

ipc -> core_0 : new pipeline 1 (@core 1)
   core_0 -> core_1
   activate core_1
      core_1 -> wallclk : timer_register()
      core_1 -> core_1 : work_schedule(ppl 1 dai)
   core_0 <- - core_1
   deactivate core_1

wallclk -> core_0 : cb() @ next ms
   activate core_0
   activate core_1
   core_0 -> core_0 : ppl 0 dai cb()
      activate core_0
         core_0 -> core_0 : ppl 0 copy
         core_0 -> core_0 : work_schedule(ppl 0 dai, +1ms)
      deactivate core_0
   core_1 -> core_1 : ppl 1 dai cb()
      activate core_1
         core_1 -> core_1 : ppl 1 copy
         core_1 -> core_1 : work_schedule(ppl 1 dai, +1ms)
      deactivate core_1
   deactivate core_1
   core_0 -> wallclk : work_set_timer()
   deactivate core_0

@enduml

PlantUML version 1.2019.12(Sun Nov 03 11:24:54 CET 2019)
(GPL source distribution)
Java Runtime: OpenJDK Runtime Environment
JVM: OpenJDK 64-Bit Server VM
Java Version: 1.8.0_302-b08
Operating System: Windows 10
Default Encoding: Cp1252
Language: en
Country: US
--></g></svg>