<?xml version="1.0" encoding="UTF-8" standalone="no"?><svg xmlns="http://www.w3.org/2000/svg" xmlns:xlink="http://www.w3.org/1999/xlink" contentScriptType="application/ecmascript" contentStyleType="text/css" height="268.5392px" preserveAspectRatio="none" style="width:1273px;height:268px;" version="1.1" viewBox="0 0 1273 268" width="1273.342px" zoomAndPan="magnify"><defs><filter height="300%" id="f10pwiucznu0c2" width="300%" x="-1" y="-1"><feGaussianBlur result="blurOut" stdDeviation="1.1096662332032943"/><feColorMatrix in="blurOut" result="blurOut2" type="matrix" values="0 0 0 0 0 0 0 0 0 0 0 0 0 0 0 0 0 0 .4 0"/><feOffset dx="2.2193324664065885" dy="2.2193324664065885" in="blurOut2" result="blurOut3"/><feBlend in="SourceGraphic" in2="blurOut3" mode="normal"/></filter></defs><g><!--MD5=[1b9195384ad2c337b6f09a94b611cc0b]
cluster SOF--><polygon fill="#FFFFFF" filter="url(#f10pwiucznu0c2)" points="12.2063,13.316,31.6255,13.316,35.5093,26.4153,1261.1357,26.4153,1261.1357,261.8812,12.2063,261.8812,12.2063,13.316" style="stroke: #000000; stroke-width: 0.8322496749024707;"/><line style="stroke: #000000; stroke-width: 0.8322496749024707;" x1="12.2063" x2="35.5093" y1="26.4153" y2="26.4153"/><text fill="#33335B" font-family="sans-serif" font-size="7.7677" font-weight="bold" lengthAdjust="spacingAndGlyphs" textLength="16.0902" x="14.4257" y="22.4892">SOF</text><!--MD5=[79f97a33f3740cc557bf73188e2ba052]
cluster Kernel Infrastructure--><polygon fill="#FFFFFF" filter="url(#f10pwiucznu0c2)" points="25.5223,106.528,110.9666,106.528,114.8505,119.6272,554.2783,119.6272,554.2783,239.6879,25.5223,239.6879,25.5223,106.528" style="stroke: #000000; stroke-width: 0.8322496749024707;"/><line style="stroke: #000000; stroke-width: 0.8322496749024707;" x1="25.5223" x2="114.8505" y1="119.6272" y2="119.6272"/><text fill="#33335B" font-family="sans-serif" font-size="7.7677" font-weight="bold" lengthAdjust="spacingAndGlyphs" textLength="82.1153" x="27.7417" y="115.7011">Kernel Infrastructure</text><!--MD5=[cdfd548b3455e70392372b1f27091970]
cluster Services--><polygon fill="#FFFFFF" filter="url(#f10pwiucznu0c2)" points="38.8383,170.8886,76.567,170.8886,80.4508,183.9879,540.9623,183.9879,540.9623,226.3719,38.8383,226.3719,38.8383,170.8886" style="stroke: #000000; stroke-width: 0.8322496749024707;"/><line style="stroke: #000000; stroke-width: 0.8322496749024707;" x1="38.8383" x2="80.4508" y1="183.9879" y2="183.9879"/><text fill="#33335B" font-family="sans-serif" font-size="7.7677" font-weight="bold" lengthAdjust="spacingAndGlyphs" textLength="34.3997" x="41.0577" y="180.0618">Services</text><!--MD5=[5f9d185e86f90b74711749b50b171774]
cluster Kernel Extension--><polygon fill="#FFFFFF" filter="url(#f10pwiucznu0c2)" points="567.5943,106.528,638.0581,106.528,641.9419,119.6272,1247.8197,119.6272,1247.8197,248.5652,567.5943,248.5652,567.5943,106.528" style="stroke: #000000; stroke-width: 0.8322496749024707;"/><line style="stroke: #000000; stroke-width: 0.8322496749024707;" x1="567.5943" x2="641.9419" y1="119.6272" y2="119.6272"/><text fill="#33335B" font-family="sans-serif" font-size="7.7677" font-weight="bold" lengthAdjust="spacingAndGlyphs" textLength="67.1348" x="569.8136" y="115.7011">Kernel Extension</text><!--MD5=[7c575c1d2434ab974e400111dfc87b78]
cluster EXTENDED_SERVICES--><polygon fill="#FFFFFF" filter="url(#f10pwiucznu0c2)" points="585.3489,166.4499,662.4707,166.4499,666.3546,179.5492,1230.065,179.5492,1230.065,230.8106,585.3489,230.8106,585.3489,166.4499" style="stroke: #000000; stroke-width: 0.8322496749024707;"/><line style="stroke: #000000; stroke-width: 0.8322496749024707;" x1="585.3489" x2="666.3546" y1="179.5492" y2="179.5492"/><text fill="#33335B" font-family="sans-serif" font-size="7.7677" font-weight="bold" lengthAdjust="spacingAndGlyphs" textLength="73.7928" x="587.5683" y="175.6231">Extended Services</text><!--MD5=[51a80e08ee10645d74b2666b574130f5]
cluster Loadable modules--><polygon fill="#FFFFFF" filter="url(#f10pwiucznu0c2)" points="520.9883,37.7287,595.3359,37.7287,599.2198,50.8279,600.8843,50.8279,600.8843,93.212,520.9883,93.212,520.9883,37.7287" style="stroke: #000000; stroke-width: 0.8322496749024707;"/><line style="stroke: #000000; stroke-width: 0.8322496749024707;" x1="520.9883" x2="599.2198" y1="50.8279" y2="50.8279"/><text fill="#33335B" font-family="sans-serif" font-size="7.7677" font-weight="bold" lengthAdjust="spacingAndGlyphs" textLength="71.0186" x="523.2076" y="46.9018">Loadable modules</text><!--MD5=[84880ae5c3bf70711146fb4996ef4306]
class SS--><rect fill="#FFFFFF" filter="url(#f10pwiucznu0c2)" height="26.632" id="SS" style="stroke: #33335B; stroke-width: 0.8322496749024707;" width="90.9926" x="262.4361" y="126.502"/><ellipse cx="270.7586" cy="135.3793" fill="#B4A7E5" rx="6.1032" ry="6.1032" style="stroke: #33335B; stroke-width: 0.5548331166016471;"/><path d="M271.2874,133.5154 L271.2874,137.2085 L272.241,137.2085 Q272.5791,137.2085 272.7265,137.3385 Q272.8739,137.4686 272.8739,137.6853 Q272.8739,137.8934 272.7265,138.0234 Q272.5791,138.1534 272.241,138.1534 L269.3888,138.1534 Q269.0507,138.1534 268.9033,138.0234 Q268.756,137.8934 268.756,137.6766 Q268.756,137.4686 268.9033,137.3385 Q269.0507,137.2085 269.3888,137.2085 L270.3424,137.2085 L270.3424,133.5154 L269.3888,133.5154 Q269.0507,133.5154 268.9033,133.3853 Q268.756,133.2553 268.756,133.0386 Q268.756,132.8305 268.9033,132.7005 Q269.0507,132.5704 269.3888,132.5704 L272.241,132.5704 Q272.5791,132.5704 272.7265,132.7005 Q272.8739,132.8305 272.8739,133.0386 Q272.8739,133.2553 272.7265,133.3853 Q272.5791,133.5154 272.241,133.5154 L271.2874,133.5154 Z "/><text fill="#33335B" font-family="sans-serif" font-size="6.658" font-style="italic" lengthAdjust="spacingAndGlyphs" textLength="73.238" x="278.5262" y="138.1036">Zephyr System Services</text><line style="stroke: #33335B; stroke-width: 0.8322496749024707;" x1="262.9909" x2="352.8739" y1="144.2566" y2="144.2566"/><line style="stroke: #33335B; stroke-width: 0.8322496749024707;" x1="262.9909" x2="352.8739" y1="148.6953" y2="148.6953"/><!--MD5=[f8ae1d07f64e30eeb585397eee3f4cc1]
entity MEMORY_MANAGER--><rect fill="#FFFFFF" filter="url(#f10pwiucznu0c2)" height="26.4153" style="stroke: #33335B; stroke-width: 0.8322496749024707;" width="83.225" x="448.86" y="190.8626"/><rect fill="#FFFFFF" height="5.5483" style="stroke: #33335B; stroke-width: 0.8322496749024707;" width="8.3225" x="520.9883" y="193.6368"/><rect fill="#FFFFFF" height="1.1097" style="stroke: #33335B; stroke-width: 0.8322496749024707;" width="2.2193" x="519.8786" y="194.7464"/><rect fill="#FFFFFF" height="1.1097" style="stroke: #33335B; stroke-width: 0.8322496749024707;" width="2.2193" x="519.8786" y="196.9658"/><text fill="#33335B" font-family="sans-serif" font-size="7.7677" lengthAdjust="spacingAndGlyphs" textLength="61.0316" x="457.1825" y="210.0228">Memory Manager</text><!--MD5=[dd2f9e2a28f41f86fe57aaa75a27919d]
entity POWER_MANAGER--><rect fill="#FFFFFF" filter="url(#f10pwiucznu0c2)" height="26.4153" style="stroke: #33335B; stroke-width: 0.8322496749024707;" width="77.1218" x="352.0416" y="190.8626"/><rect fill="#FFFFFF" height="5.5483" style="stroke: #33335B; stroke-width: 0.8322496749024707;" width="8.3225" x="418.0668" y="193.6368"/><rect fill="#FFFFFF" height="1.1097" style="stroke: #33335B; stroke-width: 0.8322496749024707;" width="2.2193" x="416.9571" y="194.7464"/><rect fill="#FFFFFF" height="1.1097" style="stroke: #33335B; stroke-width: 0.8322496749024707;" width="2.2193" x="416.9571" y="196.9658"/><text fill="#33335B" font-family="sans-serif" font-size="7.7677" lengthAdjust="spacingAndGlyphs" textLength="54.9285" x="360.3641" y="210.0228">Power Manager</text><!--MD5=[6ce34c00986cb56298b185c636905981]
entity IXC--><rect fill="#FFFFFF" filter="url(#f10pwiucznu0c2)" height="26.4153" style="stroke: #33335B; stroke-width: 0.8322496749024707;" width="49.3801" x="283.2423" y="190.8626"/><rect fill="#FFFFFF" height="5.5483" style="stroke: #33335B; stroke-width: 0.8322496749024707;" width="8.3225" x="321.5258" y="193.6368"/><rect fill="#FFFFFF" height="1.1097" style="stroke: #33335B; stroke-width: 0.8322496749024707;" width="2.2193" x="320.4161" y="194.7464"/><rect fill="#FFFFFF" height="1.1097" style="stroke: #33335B; stroke-width: 0.8322496749024707;" width="2.2193" x="320.4161" y="196.9658"/><text fill="#33335B" font-family="sans-serif" font-size="7.7677" lengthAdjust="spacingAndGlyphs" textLength="27.1868" x="291.5648" y="210.0228">IPC/IDC</text><!--MD5=[6b1aa64a16185007b7a8758d6feada15]
entity LOGGING--><rect fill="#FFFFFF" filter="url(#f10pwiucznu0c2)" height="26.4153" style="stroke: #33335B; stroke-width: 0.8322496749024707;" width="50.4898" x="213.3333" y="190.8626"/><rect fill="#FFFFFF" height="5.5483" style="stroke: #33335B; stroke-width: 0.8322496749024707;" width="8.3225" x="252.7265" y="193.6368"/><rect fill="#FFFFFF" height="1.1097" style="stroke: #33335B; stroke-width: 0.8322496749024707;" width="2.2193" x="251.6168" y="194.7464"/><rect fill="#FFFFFF" height="1.1097" style="stroke: #33335B; stroke-width: 0.8322496749024707;" width="2.2193" x="251.6168" y="196.9658"/><text fill="#33335B" font-family="sans-serif" font-size="7.7677" lengthAdjust="spacingAndGlyphs" textLength="28.2965" x="221.6558" y="210.0228">Logging</text><!--MD5=[15f14eaed91ef592e7d5443e1632a622]
entity DEBUG--><rect fill="#FFFFFF" filter="url(#f10pwiucznu0c2)" height="26.4153" style="stroke: #33335B; stroke-width: 0.8322496749024707;" width="45.4963" x="148.1404" y="190.8626"/><rect fill="#FFFFFF" height="5.5483" style="stroke: #33335B; stroke-width: 0.8322496749024707;" width="8.3225" x="182.5401" y="193.6368"/><rect fill="#FFFFFF" height="1.1097" style="stroke: #33335B; stroke-width: 0.8322496749024707;" width="2.2193" x="181.4304" y="194.7464"/><rect fill="#FFFFFF" height="1.1097" style="stroke: #33335B; stroke-width: 0.8322496749024707;" width="2.2193" x="181.4304" y="196.9658"/><text fill="#33335B" font-family="sans-serif" font-size="7.7677" lengthAdjust="spacingAndGlyphs" textLength="23.303" x="156.4629" y="210.0228">Debug</text><!--MD5=[2a722b04db85f9bb7af1db2e2b11633d]
entity INTERRUPT_HANDLER--><rect fill="#FFFFFF" filter="url(#f10pwiucznu0c2)" height="26.4153" style="stroke: #33335B; stroke-width: 0.8322496749024707;" width="81.0056" x="47.7156" y="190.8626"/><rect fill="#FFFFFF" height="5.5483" style="stroke: #33335B; stroke-width: 0.8322496749024707;" width="8.3225" x="117.6246" y="193.6368"/><rect fill="#FFFFFF" height="1.1097" style="stroke: #33335B; stroke-width: 0.8322496749024707;" width="2.2193" x="116.515" y="194.7464"/><rect fill="#FFFFFF" height="1.1097" style="stroke: #33335B; stroke-width: 0.8322496749024707;" width="2.2193" x="116.515" y="196.9658"/><text fill="#33335B" font-family="sans-serif" font-size="7.7677" lengthAdjust="spacingAndGlyphs" textLength="58.8123" x="56.0381" y="210.0228">Interrupt Handler</text><!--MD5=[85a5c2340e3a05c0f9f192e3f7c61eab]
class ESS--><rect fill="#FFFFFF" filter="url(#f10pwiucznu0c2)" height="26.632" id="ESS" style="stroke: #33335B; stroke-width: 0.8322496749024707;" width="98.7603" x="832.8045" y="126.502"/><ellipse cx="841.127" cy="135.3793" fill="#B4A7E5" rx="6.1032" ry="6.1032" style="stroke: #33335B; stroke-width: 0.5548331166016471;"/><path d="M841.6558,133.5154 L841.6558,137.2085 L842.6094,137.2085 Q842.9476,137.2085 843.0949,137.3385 Q843.2423,137.4686 843.2423,137.6853 Q843.2423,137.8934 843.0949,138.0234 Q842.9476,138.1534 842.6094,138.1534 L839.7573,138.1534 Q839.4192,138.1534 839.2718,138.0234 Q839.1244,137.8934 839.1244,137.6766 Q839.1244,137.4686 839.2718,137.3385 Q839.4192,137.2085 839.7573,137.2085 L840.7109,137.2085 L840.7109,133.5154 L839.7573,133.5154 Q839.4192,133.5154 839.2718,133.3853 Q839.1244,133.2553 839.1244,133.0386 Q839.1244,132.8305 839.2718,132.7005 Q839.4192,132.5704 839.7573,132.5704 L842.6094,132.5704 Q842.9476,132.5704 843.0949,132.7005 Q843.2423,132.8305 843.2423,133.0386 Q843.2423,133.2553 843.0949,133.3853 Q842.9476,133.5154 842.6094,133.5154 L841.6558,133.5154 Z "/><text fill="#33335B" font-family="sans-serif" font-size="6.658" font-style="italic" lengthAdjust="spacingAndGlyphs" textLength="81.0056" x="848.8947" y="138.1036">Extended System Services</text><line style="stroke: #33335B; stroke-width: 0.8322496749024707;" x1="833.3593" x2="931.01" y1="144.2566" y2="144.2566"/><line style="stroke: #33335B; stroke-width: 0.8322496749024707;" x1="833.3593" x2="931.01" y1="148.6953" y2="148.6953"/><!--MD5=[cc3c6b47d6081c261272cc91a217c7da]
entity AVS_Scheduling--><rect fill="#FFFFFF" filter="url(#f10pwiucznu0c2)" height="26.4153" style="stroke: #33335B; stroke-width: 0.8322496749024707;" width="78.2315" x="576.749" y="126.502"/><rect fill="#FFFFFF" height="5.5483" style="stroke: #33335B; stroke-width: 0.8322496749024707;" width="8.3225" x="643.8838" y="129.2761"/><rect fill="#FFFFFF" height="1.1097" style="stroke: #33335B; stroke-width: 0.8322496749024707;" width="2.2193" x="642.7742" y="130.3858"/><rect fill="#FFFFFF" height="1.1097" style="stroke: #33335B; stroke-width: 0.8322496749024707;" width="2.2193" x="642.7742" y="132.6051"/><text fill="#33335B" font-family="sans-serif" font-size="7.7677" lengthAdjust="spacingAndGlyphs" textLength="56.0381" x="585.0715" y="145.6621">AVS Scheduling</text><!--MD5=[360efde40af8ced55711672a282abf59]
entity FIRMWARE_MANAGEMENT--><rect fill="#FFFFFF" filter="url(#f10pwiucznu0c2)" height="26.4153" style="stroke: #33335B; stroke-width: 0.8322496749024707;" width="87.6636" x="1129.0854" y="190.8626"/><rect fill="#FFFFFF" height="5.5483" style="stroke: #33335B; stroke-width: 0.8322496749024707;" width="8.3225" x="1205.6524" y="193.6368"/><rect fill="#FFFFFF" height="1.1097" style="stroke: #33335B; stroke-width: 0.8322496749024707;" width="2.2193" x="1204.5427" y="194.7464"/><rect fill="#FFFFFF" height="1.1097" style="stroke: #33335B; stroke-width: 0.8322496749024707;" width="2.2193" x="1204.5427" y="196.9658"/><text fill="#33335B" font-family="sans-serif" font-size="7.7677" lengthAdjust="spacingAndGlyphs" textLength="65.4703" x="1137.4079" y="210.0228">Firmware Manager</text><!--MD5=[57c5aea1578df5990031c1f854de3f60]
entity PIPELINE_MANAGEMENT--><rect fill="#FFFFFF" filter="url(#f10pwiucznu0c2)" height="26.4153" style="stroke: #33335B; stroke-width: 0.8322496749024707;" width="97.6506" x="1012.0156" y="190.8626"/><rect fill="#FFFFFF" height="5.5483" style="stroke: #33335B; stroke-width: 0.8322496749024707;" width="8.3225" x="1098.5696" y="193.6368"/><rect fill="#FFFFFF" height="1.1097" style="stroke: #33335B; stroke-width: 0.8322496749024707;" width="2.2193" x="1097.4599" y="194.7464"/><rect fill="#FFFFFF" height="1.1097" style="stroke: #33335B; stroke-width: 0.8322496749024707;" width="2.2193" x="1097.4599" y="196.9658"/><text fill="#33335B" font-family="sans-serif" font-size="7.7677" lengthAdjust="spacingAndGlyphs" textLength="75.4573" x="1020.3381" y="210.0228">Pipeline Management</text><!--MD5=[6c7a5eb55ef32b69e147a9ba7b4e0a2c]
entity ASYNC_MESSAGING--><rect fill="#FFFFFF" filter="url(#f10pwiucznu0c2)" height="26.4153" style="stroke: #33335B; stroke-width: 0.8322496749024707;" width="83.225" x="909.3715" y="190.8626"/><rect fill="#FFFFFF" height="5.5483" style="stroke: #33335B; stroke-width: 0.8322496749024707;" width="8.3225" x="981.4998" y="193.6368"/><rect fill="#FFFFFF" height="1.1097" style="stroke: #33335B; stroke-width: 0.8322496749024707;" width="2.2193" x="980.3901" y="194.7464"/><rect fill="#FFFFFF" height="1.1097" style="stroke: #33335B; stroke-width: 0.8322496749024707;" width="2.2193" x="980.3901" y="196.9658"/><text fill="#33335B" font-family="sans-serif" font-size="7.7677" lengthAdjust="spacingAndGlyphs" textLength="61.0316" x="917.694" y="210.0228">Async Messaging</text><!--MD5=[a7d4faf8f009d46b0ae1b29234e88653]
entity COMPONENT_MANAGEMENT--><rect fill="#FFFFFF" filter="url(#f10pwiucznu0c2)" height="26.4153" style="stroke: #33335B; stroke-width: 0.8322496749024707;" width="151.4694" x="738.2055" y="190.8626"/><rect fill="#FFFFFF" height="5.5483" style="stroke: #33335B; stroke-width: 0.8322496749024707;" width="8.3225" x="878.5782" y="193.6368"/><rect fill="#FFFFFF" height="1.1097" style="stroke: #33335B; stroke-width: 0.8322496749024707;" width="2.2193" x="877.4686" y="194.7464"/><rect fill="#FFFFFF" height="1.1097" style="stroke: #33335B; stroke-width: 0.8322496749024707;" width="2.2193" x="877.4686" y="196.9658"/><text fill="#33335B" font-family="sans-serif" font-size="7.7677" lengthAdjust="spacingAndGlyphs" textLength="129.2761" x="746.528" y="210.0228">Processing Component Management</text><!--MD5=[a0bd1d1b26c3aad20db2a4477ed262f0]
entity IPC_MESSAGE_PROCESSING--><rect fill="#FFFFFF" filter="url(#f10pwiucznu0c2)" height="26.4153" style="stroke: #33335B; stroke-width: 0.8322496749024707;" width="109.3021" x="609.4842" y="190.8626"/><rect fill="#FFFFFF" height="5.5483" style="stroke: #33335B; stroke-width: 0.8322496749024707;" width="8.3225" x="707.6896" y="193.6368"/><rect fill="#FFFFFF" height="1.1097" style="stroke: #33335B; stroke-width: 0.8322496749024707;" width="2.2193" x="706.58" y="194.7464"/><rect fill="#FFFFFF" height="1.1097" style="stroke: #33335B; stroke-width: 0.8322496749024707;" width="2.2193" x="706.58" y="196.9658"/><text fill="#33335B" font-family="sans-serif" font-size="7.7677" lengthAdjust="spacingAndGlyphs" textLength="87.1088" x="617.8067" y="210.0228">IPC Message Processing</text><!--MD5=[c27c279818fa7a8a9ea34f5bbce45519]
entity WOV--><rect fill="#FFFFFF" filter="url(#f10pwiucznu0c2)" height="26.4153" style="stroke: #33335B; stroke-width: 0.8322496749024707;" width="38.8383" x="541.5171" y="57.7026"/><rect fill="#FFFFFF" height="5.5483" style="stroke: #33335B; stroke-width: 0.8322496749024707;" width="8.3225" x="569.2588" y="60.4768"/><rect fill="#FFFFFF" height="1.1097" style="stroke: #33335B; stroke-width: 0.8322496749024707;" width="2.2193" x="568.1491" y="61.5865"/><rect fill="#FFFFFF" height="1.1097" style="stroke: #33335B; stroke-width: 0.8322496749024707;" width="2.2193" x="568.1491" y="63.8058"/><text fill="#33335B" font-family="sans-serif" font-size="7.7677" lengthAdjust="spacingAndGlyphs" textLength="16.645" x="549.8396" y="76.8628">WoV</text><!--MD5=[40938e4ff6a45232253a74a1f7034c59]
link SS to MEMORY_MANAGER--><path d="M353.5674,143.5076 C385.1319,146.2096 424.0201,150.7704 438.873,157.5726 C455.4625,165.1738 470.5429,179.9823 480.0583,190.7627 " fill="none" id="SS-MEMORY_MANAGER" style="stroke: #4A4A86; stroke-width: 0.5548331166016471; stroke-dasharray: 7.0,7.0;"/><!--MD5=[1ebdbc4dcc03c17621069cc347fdfde0]
link SS to POWER_MANAGER--><path d="M335.4077,153.1617 C337.8046,154.5599 340.146,156.0357 342.332,157.5726 C356.164,167.2988 369.9183,180.9089 379.1896,190.8127 " fill="none" id="SS-POWER_MANAGER" style="stroke: #4A4A86; stroke-width: 0.5548331166016471; stroke-dasharray: 7.0,7.0;"/><!--MD5=[9d722c3bc39f76c1741fd95fc7fc47bb]
link SS to IXC--><path d="M307.9324,153.1728 C307.9324,164.1474 307.9324,179.8769 307.9324,190.8404 " fill="none" id="SS-IXC" style="stroke: #4A4A86; stroke-width: 0.5548331166016471; stroke-dasharray: 7.0,7.0;"/><!--MD5=[cea4862d798bc8489b3e4ef18fa453ce]
link SS to LOGGING--><path d="M279.6525,153.1339 C277.5053,154.5155 275.4358,155.9969 273.5327,157.5726 C262.1753,166.9937 252.3381,180.7813 246.0186,190.8127 " fill="none" id="SS-LOGGING" style="stroke: #4A4A86; stroke-width: 0.5548331166016471; stroke-dasharray: 7.0,7.0;"/><!--MD5=[0ee0914bd346d021a9c74ef4b5fb44dd]
link SS to DEBUG--><path d="M262.4194,144.4064 C239.0554,147.1528 213.472,151.4251 203.6238,157.5726 C191.0623,165.4179 181.9298,180.0267 176.5534,190.6961 " fill="none" id="SS-DEBUG" style="stroke: #4A4A86; stroke-width: 0.5548331166016471; stroke-dasharray: 7.0,7.0;"/><!--MD5=[a8c2fc6133fc7ddfa79f32a96cb6a587]
link SS to INTERRUPT_HANDLER--><path d="M262.2863,141.7987 C219.8526,143.7018 160.0749,148.0239 138.7083,157.5726 C122.1354,164.9796 107.338,179.9823 98.1111,190.857 " fill="none" id="SS-INTERRUPT_HANDLER" style="stroke: #4A4A86; stroke-width: 0.5548331166016471; stroke-dasharray: 7.0,7.0;"/><!--MD5=[cb153951d2bf15167205cb1aeb3f242d]
link ESS to FIRMWARE_MANAGEMENT--><path d="M931.759,140.3228 C991.1816,140.8943 1086.857,143.9903 1119.6532,157.5726 C1136.9307,164.73 1152.5826,179.7826 1162.3809,190.735 " fill="none" id="ESS-FIRMWARE_MANAGEMENT" style="stroke: #4A4A86; stroke-width: 0.5548331166016471; stroke-dasharray: 7.0,7.0;"/><!--MD5=[aa5a24104b18c8a02b798750530e222b]
link ESS to PIPELINE_MANAGEMENT--><path d="M931.6591,141.6045 C954.0522,143.613 980.4179,148.0572 1002.5834,157.5726 C1020.5933,165.3014 1037.7543,180.0877 1048.7234,190.8238 " fill="none" id="ESS-PIPELINE_MANAGEMENT" style="stroke: #4A4A86; stroke-width: 0.5548331166016471; stroke-dasharray: 7.0,7.0;"/><!--MD5=[910178ca56a4fb2fed7578c33c6913e0]
link ESS to ASYNC_MESSAGING--><path d="M896.1054,153.1728 C908.0454,164.1474 925.1509,179.8769 937.0798,190.8404 " fill="none" id="ESS-ASYNC_MESSAGING" style="stroke: #4A4A86; stroke-width: 0.5548331166016471; stroke-dasharray: 7.0,7.0;"/><!--MD5=[85a2148aa93303751af8d562566b368a]
link ESS to IPC_MESSAGE_PROCESSING--><path d="M832.7268,143.2024 C795.1868,145.8545 746.9829,150.4818 728.4959,157.5726 C708.999,165.0518 689.9627,179.8824 677.7176,190.7017 " fill="none" id="ESS-IPC_MESSAGE_PROCESSING" style="stroke: #4A4A86; stroke-width: 0.5548331166016471; stroke-dasharray: 7.0,7.0;"/><!--MD5=[b4a0b9fe1c6a80f4077d1cca7fccfa76]
link ESS to COMPONENT_MANAGEMENT--><path d="M868.3749,153.1728 C856.5347,164.1474 839.5624,179.8769 827.7278,190.8404 " fill="none" id="ESS-COMPONENT_MANAGEMENT" style="stroke: #4A4A86; stroke-width: 0.5548331166016471; stroke-dasharray: 7.0,7.0;"/><!--MD5=[b85ffd5f532d801d21fc182b68239486]
link AVS_Scheduling to EXTENDED_SERVICES--><!--MD5=[d6344b96f5bc5f6e1cb44e60be3fec5e]
link WOV to SS--><path d="M541.506,76.7723 C501.5858,87.4528 409.4114,112.1151 353.5286,127.0623 " fill="none" id="WOV-SS" style="stroke: #4A4A86; stroke-width: 0.5548331166016471; stroke-dasharray: 7.0,7.0;"/><!--MD5=[c57d8ed818b5530ee11d083540f214e1]
link WOV to ESS--><path d="M580.5496,75.707 C629.9298,86.1101 760.5874,113.6409 832.6824,128.8322 " fill="none" id="WOV-ESS" style="stroke: #4A4A86; stroke-width: 0.5548331166016471; stroke-dasharray: 7.0,7.0;"/><!--MD5=[307434ec4c5abb1cefb6f3594e6305db]
@startuml
hidefootbox
skinparam componentStyle uml2

skinparam defaultFontColor	#33335b

skinparam rectangle {
	color		#d6d6de
	backgroundColor	#ffffff
}

skinparam component {
	backgroundColor	#ffffff
	borderColor	#33335b
	arrowColor	#f05772
}

skinparam interface {
	backgroundColor	#ffffff
	borderColor	#f05772
}

skinparam class {
	backgroundColor	#ffffff
	borderColor	#33335b
	arrowColor	#f05772
}
skinparam stereotypeCBackgroundColor	#6fccdd

skinparam sequence {
	arrowColor		#4a4a86
	lifeLineBorderColor	#f05772
	groupBorderColor	#a1a1ca
	boxBorderColor		#a1a1ca
	dividerBorderColor	#d6d6de
	dividerBorderThickness	1
}
skinparam participant {
	borderColor		#33335b
	backgroundColor		#ffffff
}
skinparam actor {
	borderColor		#33335b
	backgroundColor		#ffffff
}

skinparam state {
	borderColor		#33335b
	backgroundColor		#ffffff
}

skinparam node {
	backgroundColor		#ffffff
}

skinparam note {
	backgroundColor 	#f6ed80
	borderColor		#d6d6de
}
allowmixing

scale max 1280 width

package "SOF" {
  package "Kernel Infrastructure" {
    interface "Zephyr System Services" as SS

    package "Services" {
        component "Memory Manager" as MEMORY_MANAGER
        component "Power Manager" as POWER_MANAGER
        component "IPC/IDC" as IXC
        component "Logging" as LOGGING
        component "Debug" as DEBUG
        component "Interrupt Handler" as INTERRUPT_HANDLER
    }

    SS .down. MEMORY_MANAGER
    SS .down. POWER_MANAGER
    SS .down. IXC
    SS .down. LOGGING
    SS .down. DEBUG
    SS .down. INTERRUPT_HANDLER
  }

  package "Kernel Extension" {
    interface "Extended System Services" as ESS

    component "AVS Scheduling" as AVS_Scheduling

    package "Extended Services" as EXTENDED_SERVICES {
          component "Firmware Manager" as FIRMWARE_MANAGEMENT
          component "Pipeline Management" as PIPELINE_MANAGEMENT
          component "Async Messaging" as ASYNC_MESSAGING
          component "Processing Component Management" as COMPONENT_MANAGEMENT
          component "IPC Message Processing" as IPC_MESSAGE_PROCESSING
    }

    ESS .down. FIRMWARE_MANAGEMENT
    ESS .down. PIPELINE_MANAGEMENT
    ESS .down. ASYNC_MESSAGING
    ESS .down. IPC_MESSAGE_PROCESSING
    ESS .down. COMPONENT_MANAGEMENT

    AVS_Scheduling -[hidden]down- EXTENDED_SERVICES
  }

  package "Loadable modules" {
      component "WoV" as WOV

      WOV .down. SS
      WOV .down. ESS
  }
}

@enduml

PlantUML version 1.2019.12(Sun Nov 03 11:24:54 CET 2019)
(GPL source distribution)
Java Runtime: OpenJDK Runtime Environment
JVM: OpenJDK 64-Bit Server VM
Java Version: 1.8.0_302-b08
Operating System: Windows 10
Default Encoding: Cp1252
Language: en
Country: US
--></g></svg>