<?xml version="1.0" encoding="UTF-8" standalone="no"?><svg xmlns="http://www.w3.org/2000/svg" xmlns:xlink="http://www.w3.org/1999/xlink" contentScriptType="application/ecmascript" contentStyleType="text/css" height="552px" preserveAspectRatio="none" style="width:514px;height:552px;" version="1.1" viewBox="0 0 514 552" width="514px" zoomAndPan="magnify"><defs><filter height="300%" id="fodke2f7jhcvo" width="300%" x="-1" y="-1"><feGaussianBlur result="blurOut" stdDeviation="2.0"/><feColorMatrix in="blurOut" result="blurOut2" type="matrix" values="0 0 0 0 0 0 0 0 0 0 0 0 0 0 0 0 0 0 .4 0"/><feOffset dx="4.0" dy="4.0" in="blurOut2" result="blurOut3"/><feBlend in="SourceGraphic" in2="blurOut3" mode="normal"/></filter></defs><g><rect fill="#FFFFFF" filter="url(#fodke2f7jhcvo)" height="60.7031" style="stroke: #F05772; stroke-width: 1.0;" width="10" x="172.5" y="253.0156"/><rect fill="#FFFFFF" filter="url(#fodke2f7jhcvo)" height="136.4063" style="stroke: #F05772; stroke-width: 1.0;" width="10" x="172.5" y="386.0703"/><rect fill="#FFFFFF" filter="url(#fodke2f7jhcvo)" height="61.7031" style="stroke: #A1A1CA; stroke-width: 2.0;" width="246" x="120.5" y="431.4219"/><line style="stroke: #F05772; stroke-width: 1.0;" x1="27" x2="27" y1="87.6094" y2="202.6641"/><line style="stroke: #F05772; stroke-width: 1.0; stroke-dasharray: 1.0,4.0;" x1="27" x2="27" y1="202.6641" y2="230.6641"/><line style="stroke: #F05772; stroke-width: 1.0;" x1="27" x2="27" y1="230.6641" y2="335.7188"/><line style="stroke: #F05772; stroke-width: 1.0; stroke-dasharray: 1.0,4.0;" x1="27" x2="27" y1="335.7188" y2="363.7188"/><line style="stroke: #F05772; stroke-width: 1.0;" x1="27" x2="27" y1="363.7188" y2="540.4766"/><line style="stroke: #F05772; stroke-width: 1.0;" x1="177.5" x2="177.5" y1="87.6094" y2="202.6641"/><line style="stroke: #F05772; stroke-width: 1.0; stroke-dasharray: 1.0,4.0;" x1="177.5" x2="177.5" y1="202.6641" y2="230.6641"/><line style="stroke: #F05772; stroke-width: 1.0;" x1="177.5" x2="177.5" y1="230.6641" y2="335.7188"/><line style="stroke: #F05772; stroke-width: 1.0; stroke-dasharray: 1.0,4.0;" x1="177.5" x2="177.5" y1="335.7188" y2="363.7188"/><line style="stroke: #F05772; stroke-width: 1.0;" x1="177.5" x2="177.5" y1="363.7188" y2="540.4766"/><line style="stroke: #F05772; stroke-width: 1.0;" x1="435" x2="435" y1="87.6094" y2="202.6641"/><line style="stroke: #F05772; stroke-width: 1.0; stroke-dasharray: 1.0,4.0;" x1="435" x2="435" y1="202.6641" y2="230.6641"/><line style="stroke: #F05772; stroke-width: 1.0;" x1="435" x2="435" y1="230.6641" y2="335.7188"/><line style="stroke: #F05772; stroke-width: 1.0; stroke-dasharray: 1.0,4.0;" x1="435" x2="435" y1="335.7188" y2="363.7188"/><line style="stroke: #F05772; stroke-width: 1.0;" x1="435" x2="435" y1="363.7188" y2="540.4766"/><text fill="#33335B" font-family="sans-serif" font-size="14" lengthAdjust="spacingAndGlyphs" textLength="33" x="8" y="84.5332">client</text><ellipse cx="27.5" cy="13" fill="#FFFFFF" filter="url(#fodke2f7jhcvo)" rx="8" ry="8" style="stroke: #33335B; stroke-width: 2.0;"/><path d="M27.5,21 L27.5,48 M14.5,29 L40.5,29 M27.5,48 L14.5,63 M27.5,48 L40.5,63 " fill="none" filter="url(#fodke2f7jhcvo)" style="stroke: #33335B; stroke-width: 2.0;"/><rect fill="#FFFFFF" filter="url(#fodke2f7jhcvo)" height="31.6094" style="stroke: #33335B; stroke-width: 1.5;" width="90" x="130.5" y="51"/><text fill="#33335B" font-family="sans-serif" font-size="14" lengthAdjust="spacingAndGlyphs" textLength="76" x="137.5" y="72.5332">ll_scheduler</text><rect fill="#FFFFFF" filter="url(#fodke2f7jhcvo)" height="31.6094" style="stroke: #33335B; stroke-width: 1.5;" width="139" x="364" y="51"/><text fill="#33335B" font-family="sans-serif" font-size="14" lengthAdjust="spacingAndGlyphs" textLength="125" x="371" y="72.5332">ll_schedule_domain</text><rect fill="#FFFFFF" filter="url(#fodke2f7jhcvo)" height="60.7031" style="stroke: #F05772; stroke-width: 1.0;" width="10" x="172.5" y="253.0156"/><rect fill="#FFFFFF" filter="url(#fodke2f7jhcvo)" height="136.4063" style="stroke: #F05772; stroke-width: 1.0;" width="10" x="172.5" y="386.0703"/><polygon fill="#4A4A86" points="423.5,115.9609,433.5,119.9609,423.5,123.9609,427.5,119.9609" style="stroke: #4A4A86; stroke-width: 1.0;"/><line style="stroke: #4A4A86; stroke-width: 1.0;" x1="3" x2="429.5" y1="119.9609" y2="119.9609"/><text fill="#33335B" font-family="sans-serif" font-size="13" lengthAdjust="spacingAndGlyphs" textLength="66" x="10" y="115.1045">domain_init</text><polygon fill="#4A4A86" points="14,146.3125,4,150.3125,14,154.3125,10,150.3125" style="stroke: #4A4A86; stroke-width: 1.0;"/><line style="stroke: #4A4A86; stroke-width: 1.0; stroke-dasharray: 2.0,2.0;" x1="8" x2="434.5" y1="150.3125" y2="150.3125"/><text fill="#33335B" font-family="sans-serif" font-size="13" lengthAdjust="spacingAndGlyphs" textLength="42" x="20" y="145.4561">domain</text><polygon fill="#4A4A86" points="165.5,176.6641,175.5,180.6641,165.5,184.6641,169.5,180.6641" style="stroke: #4A4A86; stroke-width: 1.0;"/><line style="stroke: #4A4A86; stroke-width: 1.0;" x1="3" x2="171.5" y1="180.6641" y2="180.6641"/><text fill="#33335B" font-family="sans-serif" font-size="13" lengthAdjust="spacingAndGlyphs" textLength="139" x="10" y="175.8076">scheduler_init(&amp;domain)</text><polygon fill="#4A4A86" points="14,190.6641,4,194.6641,14,198.6641,10,194.6641" style="stroke: #4A4A86; stroke-width: 1.0;"/><line style="stroke: #4A4A86; stroke-width: 1.0; stroke-dasharray: 2.0,2.0;" x1="8" x2="176.5" y1="194.6641" y2="194.6641"/><polygon fill="#4A4A86" points="160.5,249.0156,170.5,253.0156,160.5,257.0156,164.5,253.0156" style="stroke: #4A4A86; stroke-width: 1.0;"/><line style="stroke: #4A4A86; stroke-width: 1.0;" x1="27.5" x2="166.5" y1="253.0156" y2="253.0156"/><text fill="#33335B" font-family="sans-serif" font-size="13" lengthAdjust="spacingAndGlyphs" textLength="126" x="34.5" y="248.1592">schedule_task(&amp;task)</text><polygon fill="#4A4A86" points="423.5,279.3672,433.5,283.3672,423.5,287.3672,427.5,283.3672" style="stroke: #4A4A86; stroke-width: 1.0;"/><line style="stroke: #4A4A86; stroke-width: 1.0;" x1="182.5" x2="429.5" y1="283.3672" y2="283.3672"/><text fill="#33335B" font-family="sans-serif" font-size="13" lengthAdjust="spacingAndGlyphs" textLength="229" x="189.5" y="278.5107">domain_register(schedule_ll_tasks_run)</text><polygon fill="#4A4A86" points="423.5,309.7188,433.5,313.7188,423.5,317.7188,427.5,313.7188" style="stroke: #4A4A86; stroke-width: 1.0;"/><line style="stroke: #4A4A86; stroke-width: 1.0;" x1="177.5" x2="429.5" y1="313.7188" y2="313.7188"/><text fill="#33335B" font-family="sans-serif" font-size="13" lengthAdjust="spacingAndGlyphs" textLength="95" x="184.5" y="308.8623">domain_enable()</text><polygon fill="#4A4A86" points="38.5,323.7188,28.5,327.7188,38.5,331.7188,34.5,327.7188" style="stroke: #4A4A86; stroke-width: 1.0;"/><line style="stroke: #4A4A86; stroke-width: 1.0; stroke-dasharray: 2.0,2.0;" x1="32.5" x2="176.5" y1="327.7188" y2="327.7188"/><polygon fill="#4A4A86" points="193.5,382.0703,183.5,386.0703,193.5,390.0703,189.5,386.0703" style="stroke: #4A4A86; stroke-width: 1.0;"/><line style="stroke: #4A4A86; stroke-width: 1.0;" x1="187.5" x2="434.5" y1="386.0703" y2="386.0703"/><text fill="#33335B" font-family="sans-serif" font-size="13" lengthAdjust="spacingAndGlyphs" textLength="137" x="199.5" y="381.2139">schedule_ll_tasks_run()</text><polygon fill="#4A4A86" points="423.5,412.4219,433.5,416.4219,423.5,420.4219,427.5,416.4219" style="stroke: #4A4A86; stroke-width: 1.0;"/><line style="stroke: #4A4A86; stroke-width: 1.0;" x1="182.5" x2="429.5" y1="416.4219" y2="416.4219"/><text fill="#33335B" font-family="sans-serif" font-size="13" lengthAdjust="spacingAndGlyphs" textLength="98" x="189.5" y="411.5654">domain_disable()</text><path d="M120.5,431.4219 L193.5,431.4219 L193.5,439.4219 L183.5,449.4219 L120.5,449.4219 L120.5,431.4219 " fill="#EEEEEE" style="stroke: #A1A1CA; stroke-width: 1.0;"/><rect fill="none" height="61.7031" style="stroke: #A1A1CA; stroke-width: 2.0;" width="246" x="120.5" y="431.4219"/><text fill="#33335B" font-family="sans-serif" font-size="13" font-weight="bold" lengthAdjust="spacingAndGlyphs" textLength="28" x="135.5" y="445.917">loop</text><text fill="#33335B" font-family="sans-serif" font-size="11" font-weight="bold" lengthAdjust="spacingAndGlyphs" textLength="146" x="208.5" y="444.8408">[schedule_ll_is_pending()]</text><line style="stroke: #4A4A86; stroke-width: 1.0;" x1="182.5" x2="224.5" y1="472.125" y2="472.125"/><line style="stroke: #4A4A86; stroke-width: 1.0;" x1="224.5" x2="224.5" y1="472.125" y2="485.125"/><line style="stroke: #4A4A86; stroke-width: 1.0;" x1="183.5" x2="224.5" y1="485.125" y2="485.125"/><polygon fill="#4A4A86" points="193.5,481.125,183.5,485.125,193.5,489.125,189.5,485.125" style="stroke: #4A4A86; stroke-width: 1.0;"/><text fill="#33335B" font-family="sans-serif" font-size="13" lengthAdjust="spacingAndGlyphs" textLength="165" x="189.5" y="467.2686">schedule_ll_tasks_execute()</text><polygon fill="#4A4A86" points="423.5,518.4766,433.5,522.4766,423.5,526.4766,427.5,522.4766" style="stroke: #4A4A86; stroke-width: 1.0;"/><line style="stroke: #4A4A86; stroke-width: 1.0;" x1="177.5" x2="429.5" y1="522.4766" y2="522.4766"/><text fill="#33335B" font-family="sans-serif" font-size="13" lengthAdjust="spacingAndGlyphs" textLength="95" x="184.5" y="517.6201">domain_enable()</text><!--MD5=[b82f7744bc74963b4b297671b255eba2]
@startuml
hidefootbox
skinparam componentStyle uml2

skinparam defaultFontColor	#33335b

skinparam rectangle {
	color		#d6d6de
	backgroundColor	#ffffff
}

skinparam component {
	backgroundColor	#ffffff
	borderColor	#33335b
	arrowColor	#f05772
}

skinparam interface {
	backgroundColor	#ffffff
	borderColor	#f05772
}

skinparam class {
	backgroundColor	#ffffff
	borderColor	#33335b
	arrowColor	#f05772
}
skinparam stereotypeCBackgroundColor	#6fccdd

skinparam sequence {
	arrowColor		#4a4a86
	lifeLineBorderColor	#f05772
	groupBorderColor	#a1a1ca
	boxBorderColor		#a1a1ca
	dividerBorderColor	#d6d6de
	dividerBorderThickness	1
}
skinparam participant {
	borderColor		#33335b
	backgroundColor		#ffffff
}
skinparam actor {
	borderColor		#33335b
	backgroundColor		#ffffff
}

skinparam state {
	borderColor		#33335b
	backgroundColor		#ffffff
}

skinparam node {
	backgroundColor		#ffffff
}

skinparam note {
	backgroundColor 	#f6ed80
	borderColor		#d6d6de
}
actor client as c

participant ll_scheduler as ls
participant ll_schedule_domain as lsd

-> lsd : domain_init
<- - lsd : domain

-> ls : scheduler_init(&domain)
<- - ls
...
c -> ls : schedule_task(&task)
    activate ls
    ls -> lsd : domain_register(schedule_ll_tasks_run)
    ls -> lsd : domain_enable()
    deactivate ls
c <- - ls
...
ls <- lsd : schedule_ll_tasks_run()
    activate ls
    ls -> lsd : domain_disable()
    loop schedule_ll_is_pending()
        ls -> ls : schedule_ll_tasks_execute()
    end loop
    ls -> lsd : domain_enable()
    deactivate ls

@enduml

PlantUML version 1.2019.12(Sun Nov 03 11:24:54 CET 2019)
(GPL source distribution)
Java Runtime: OpenJDK Runtime Environment
JVM: OpenJDK 64-Bit Server VM
Java Version: 1.8.0_302-b08
Operating System: Windows 10
Default Encoding: Cp1252
Language: en
Country: US
--></g></svg>