<?xml version="1.0" encoding="UTF-8" standalone="no"?><svg xmlns="http://www.w3.org/2000/svg" xmlns:xlink="http://www.w3.org/1999/xlink" contentScriptType="application/ecmascript" contentStyleType="text/css" height="482px" preserveAspectRatio="none" style="width:623px;height:482px;" version="1.1" viewBox="0 0 623 482" width="623px" zoomAndPan="magnify"><defs><filter height="300%" id="f6zt14iukauem" width="300%" x="-1" y="-1"><feGaussianBlur result="blurOut" stdDeviation="2.0"/><feColorMatrix in="blurOut" result="blurOut2" type="matrix" values="0 0 0 0 0 0 0 0 0 0 0 0 0 0 0 0 0 0 .4 0"/><feOffset dx="4.0" dy="4.0" in="blurOut2" result="blurOut3"/><feBlend in="SourceGraphic" in2="blurOut3" mode="normal"/></filter></defs><g><!--MD5=[09acfa745e828315b550bb1a630bf02b]
class lib--><rect fill="#FFFFFF" filter="url(#f6zt14iukauem)" height="67.6719" id="lib" style="stroke: #33335B; stroke-width: 1.5;" width="242" x="370.5" y="42.5"/><ellipse cx="480.75" cy="58.5" fill="#6FCCDD" rx="11" ry="11" style="stroke: #33335B; stroke-width: 1.0;"/><path d="M483.5156,54.375 Q483.6719,54.1563 483.8594,54.0469 Q484.0469,53.9375 484.2656,53.9375 Q484.6406,53.9375 484.875,54.2031 Q485.1094,54.4531 485.1094,55.0625 L485.1094,56.5156 Q485.1094,57.125 484.875,57.3906 Q484.6406,57.6563 484.2656,57.6563 Q483.9219,57.6563 483.7188,57.4531 Q483.5156,57.2656 483.4063,56.75 Q483.3594,56.3906 483.1719,56.2031 Q482.8438,55.8281 482.2344,55.6094 Q481.625,55.3906 481,55.3906 Q480.2344,55.3906 479.5938,55.7188 Q478.9688,56.0469 478.4688,56.7969 Q477.9844,57.5469 477.9844,58.5781 L477.9844,59.6719 Q477.9844,60.9063 478.875,61.7344 Q479.7656,62.5469 481.3594,62.5469 Q482.2969,62.5469 482.9531,62.2969 Q483.3438,62.1406 483.7656,61.7031 Q484.0313,61.4375 484.1719,61.3594 Q484.3281,61.2813 484.5313,61.2813 Q484.8594,61.2813 485.1094,61.5469 Q485.375,61.7969 485.375,62.1406 Q485.375,62.4844 485.0313,62.8906 Q484.5313,63.4688 483.7344,63.7969 Q482.6563,64.25 481.3594,64.25 Q479.8438,64.25 478.6406,63.625 Q477.6563,63.125 476.9688,62.0625 Q476.2813,60.9844 476.2813,59.7031 L476.2813,58.5469 Q476.2813,57.2188 476.8906,56.0781 Q477.5156,54.9219 478.6094,54.3125 Q479.7031,53.6875 480.9375,53.6875 Q481.6719,53.6875 482.3125,53.8594 Q482.9688,54.0156 483.5156,54.375 Z "/><text fill="#33335B" font-family="sans-serif" font-size="12" lengthAdjust="spacingAndGlyphs" textLength="13" x="501.25" y="63.4102">lib</text><line style="stroke: #33335B; stroke-width: 1.5;" x1="371.5" x2="611.5" y1="74.5" y2="74.5"/><text fill="#33335B" font-family="sans-serif" font-size="11" lengthAdjust="spacingAndGlyphs" textLength="230" x="376.5" y="89.9189">struct dai *dai_get(uint32_t type, uint32_t index)</text><text fill="#33335B" font-family="sans-serif" font-size="11" lengthAdjust="spacingAndGlyphs" textLength="92" x="376.5" y="103.7549">dai_put(struct dai*)</text><!--MD5=[570a1701eb5cfa26f256311848a0b50a]
class dai_ops--><rect fill="#FFFFFF" filter="url(#f6zt14iukauem)" height="136.8516" id="dai_ops" style="stroke: #33335B; stroke-width: 1.5;" width="117" x="6" y="8"/><ellipse cx="39" cy="24" fill="#6FCCDD" rx="11" ry="11" style="stroke: #33335B; stroke-width: 1.0;"/><path d="M41.7656,19.875 Q41.9219,19.6563 42.1094,19.5469 Q42.2969,19.4375 42.5156,19.4375 Q42.8906,19.4375 43.125,19.7031 Q43.3594,19.9531 43.3594,20.5625 L43.3594,22.0156 Q43.3594,22.625 43.125,22.8906 Q42.8906,23.1563 42.5156,23.1563 Q42.1719,23.1563 41.9688,22.9531 Q41.7656,22.7656 41.6563,22.25 Q41.6094,21.8906 41.4219,21.7031 Q41.0938,21.3281 40.4844,21.1094 Q39.875,20.8906 39.25,20.8906 Q38.4844,20.8906 37.8438,21.2188 Q37.2188,21.5469 36.7188,22.2969 Q36.2344,23.0469 36.2344,24.0781 L36.2344,25.1719 Q36.2344,26.4063 37.125,27.2344 Q38.0156,28.0469 39.6094,28.0469 Q40.5469,28.0469 41.2031,27.7969 Q41.5938,27.6406 42.0156,27.2031 Q42.2813,26.9375 42.4219,26.8594 Q42.5781,26.7813 42.7813,26.7813 Q43.1094,26.7813 43.3594,27.0469 Q43.625,27.2969 43.625,27.6406 Q43.625,27.9844 43.2813,28.3906 Q42.7813,28.9688 41.9844,29.2969 Q40.9063,29.75 39.6094,29.75 Q38.0938,29.75 36.8906,29.125 Q35.9063,28.625 35.2188,27.5625 Q34.5313,26.4844 34.5313,25.2031 L34.5313,24.0469 Q34.5313,22.7188 35.1406,21.5781 Q35.7656,20.4219 36.8594,19.8125 Q37.9531,19.1875 39.1875,19.1875 Q39.9219,19.1875 40.5625,19.3594 Q41.2188,19.5156 41.7656,19.875 Z "/><text fill="#33335B" font-family="sans-serif" font-size="12" lengthAdjust="spacingAndGlyphs" textLength="45" x="57" y="28.9102">dai_ops</text><line style="stroke: #33335B; stroke-width: 1.5;" x1="7" x2="122" y1="40" y2="40"/><text fill="#33335B" font-family="sans-serif" font-size="11" lengthAdjust="spacingAndGlyphs" textLength="59" x="12" y="55.4189">set_config()</text><text fill="#33335B" font-family="sans-serif" font-size="11" lengthAdjust="spacingAndGlyphs" textLength="39" x="12" y="69.2549">trigger()</text><text fill="#33335B" font-family="sans-serif" font-size="11" lengthAdjust="spacingAndGlyphs" textLength="105" x="12" y="83.0908">pm_context_restore()</text><text fill="#33335B" font-family="sans-serif" font-size="11" lengthAdjust="spacingAndGlyphs" textLength="95" x="12" y="96.9268">pm_context_store()</text><text fill="#33335B" font-family="sans-serif" font-size="11" lengthAdjust="spacingAndGlyphs" textLength="36" x="12" y="110.7627">probe()</text><text fill="#33335B" font-family="sans-serif" font-size="11" lengthAdjust="spacingAndGlyphs" textLength="44" x="12" y="124.5986">remove()</text><text fill="#33335B" font-family="sans-serif" font-size="11" lengthAdjust="spacingAndGlyphs" textLength="104" x="12" y="138.4346">set_loopback_mode()</text><!--MD5=[751252ede398c8a0e54cd79ea3766d55]
class s_dai--><rect fill="#FFFFFF" filter="url(#f6zt14iukauem)" height="109.1797" id="s_dai" style="stroke: #33335B; stroke-width: 1.5;" width="129" x="158" y="22"/><ellipse cx="194.15" cy="38" fill="#6FCCDD" rx="11" ry="11" style="stroke: #33335B; stroke-width: 1.0;"/><path d="M196.9156,33.875 Q197.0719,33.6563 197.2594,33.5469 Q197.4469,33.4375 197.6656,33.4375 Q198.0406,33.4375 198.275,33.7031 Q198.5094,33.9531 198.5094,34.5625 L198.5094,36.0156 Q198.5094,36.625 198.275,36.8906 Q198.0406,37.1563 197.6656,37.1563 Q197.3219,37.1563 197.1188,36.9531 Q196.9156,36.7656 196.8063,36.25 Q196.7594,35.8906 196.5719,35.7031 Q196.2438,35.3281 195.6344,35.1094 Q195.025,34.8906 194.4,34.8906 Q193.6344,34.8906 192.9938,35.2188 Q192.3688,35.5469 191.8688,36.2969 Q191.3844,37.0469 191.3844,38.0781 L191.3844,39.1719 Q191.3844,40.4063 192.275,41.2344 Q193.1656,42.0469 194.7594,42.0469 Q195.6969,42.0469 196.3531,41.7969 Q196.7438,41.6406 197.1656,41.2031 Q197.4313,40.9375 197.5719,40.8594 Q197.7281,40.7813 197.9313,40.7813 Q198.2594,40.7813 198.5094,41.0469 Q198.775,41.2969 198.775,41.6406 Q198.775,41.9844 198.4313,42.3906 Q197.9313,42.9688 197.1344,43.2969 Q196.0563,43.75 194.7594,43.75 Q193.2438,43.75 192.0406,43.125 Q191.0563,42.625 190.3688,41.5625 Q189.6813,40.4844 189.6813,39.2031 L189.6813,38.0469 Q189.6813,36.7188 190.2906,35.5781 Q190.9156,34.4219 192.0094,33.8125 Q193.1031,33.1875 194.3375,33.1875 Q195.0719,33.1875 195.7125,33.3594 Q196.3688,33.5156 196.9156,33.875 Z "/><text fill="#33335B" font-family="sans-serif" font-size="12" lengthAdjust="spacingAndGlyphs" textLength="50" x="212.85" y="42.9102">struct dai</text><line style="stroke: #33335B; stroke-width: 1.5;" x1="159" x2="286" y1="54" y2="54"/><text fill="#33335B" font-family="sans-serif" font-size="11" lengthAdjust="spacingAndGlyphs" textLength="68" x="164" y="69.4189">type : uint32_t</text><text fill="#33335B" font-family="sans-serif" font-size="11" lengthAdjust="spacingAndGlyphs" textLength="73" x="164" y="83.2549">index : uint32_t</text><text fill="#33335B" font-family="sans-serif" font-size="11" lengthAdjust="spacingAndGlyphs" textLength="117" x="164" y="97.0908">plat_data : dai_plat_data</text><text fill="#33335B" font-family="sans-serif" font-size="11" lengthAdjust="spacingAndGlyphs" textLength="102" x="164" y="110.9268">ops : const dai_ops *</text><text fill="#33335B" font-family="sans-serif" font-size="11" lengthAdjust="spacingAndGlyphs" textLength="69" x="164" y="124.7627">private : void *</text><!--MD5=[587096e0c81becf1c3c772256578bbb1]
class s_dai_plat_data--><rect fill="#FFFFFF" filter="url(#f6zt14iukauem)" height="95.3438" id="s_dai_plat_data" style="stroke: #33335B; stroke-width: 1.5;" width="166" x="139.5" y="206"/><ellipse cx="166.2" cy="222" fill="#6FCCDD" rx="11" ry="11" style="stroke: #33335B; stroke-width: 1.0;"/><path d="M168.9656,217.875 Q169.1219,217.6563 169.3094,217.5469 Q169.4969,217.4375 169.7156,217.4375 Q170.0906,217.4375 170.325,217.7031 Q170.5594,217.9531 170.5594,218.5625 L170.5594,220.0156 Q170.5594,220.625 170.325,220.8906 Q170.0906,221.1563 169.7156,221.1563 Q169.3719,221.1563 169.1688,220.9531 Q168.9656,220.7656 168.8563,220.25 Q168.8094,219.8906 168.6219,219.7031 Q168.2938,219.3281 167.6844,219.1094 Q167.075,218.8906 166.45,218.8906 Q165.6844,218.8906 165.0438,219.2188 Q164.4188,219.5469 163.9188,220.2969 Q163.4344,221.0469 163.4344,222.0781 L163.4344,223.1719 Q163.4344,224.4063 164.325,225.2344 Q165.2156,226.0469 166.8094,226.0469 Q167.7469,226.0469 168.4031,225.7969 Q168.7938,225.6406 169.2156,225.2031 Q169.4813,224.9375 169.6219,224.8594 Q169.7781,224.7813 169.9813,224.7813 Q170.3094,224.7813 170.5594,225.0469 Q170.825,225.2969 170.825,225.6406 Q170.825,225.9844 170.4813,226.3906 Q169.9813,226.9688 169.1844,227.2969 Q168.1063,227.75 166.8094,227.75 Q165.2938,227.75 164.0906,227.125 Q163.1063,226.625 162.4188,225.5625 Q161.7313,224.4844 161.7313,223.2031 L161.7313,222.0469 Q161.7313,220.7188 162.3406,219.5781 Q162.9656,218.4219 164.0594,217.8125 Q165.1531,217.1875 166.3875,217.1875 Q167.1219,217.1875 167.7625,217.3594 Q168.4188,217.5156 168.9656,217.875 Z "/><text fill="#33335B" font-family="sans-serif" font-size="12" lengthAdjust="spacingAndGlyphs" textLength="108" x="182.8" y="226.9102">struct dai_plat_data</text><line style="stroke: #33335B; stroke-width: 1.5;" x1="140.5" x2="304.5" y1="238" y2="238"/><text fill="#33335B" font-family="sans-serif" font-size="11" lengthAdjust="spacingAndGlyphs" textLength="71" x="145.5" y="253.4189">base : uint32_t</text><text fill="#33335B" font-family="sans-serif" font-size="11" lengthAdjust="spacingAndGlyphs" textLength="59" x="145.5" y="267.2549">irq : uint32_t</text><text fill="#33335B" font-family="sans-serif" font-size="11" lengthAdjust="spacingAndGlyphs" textLength="71" x="145.5" y="281.0908">flags : uint32_t</text><text fill="#33335B" font-family="sans-serif" font-size="11" lengthAdjust="spacingAndGlyphs" textLength="154" x="145.5" y="294.9268">fifo : struct dai_plat_fifo_data[2]</text><!--MD5=[416c15d8e20a93251a9cf90ec810b71c]
class s_dai_plat_fifo_data--><rect fill="#FFFFFF" filter="url(#f6zt14iukauem)" height="109.1797" id="s_dai_plat_fifo_data" style="stroke: #33335B; stroke-width: 1.5;" width="163" x="141" y="362"/><ellipse cx="156" cy="378" fill="#6FCCDD" rx="11" ry="11" style="stroke: #33335B; stroke-width: 1.0;"/><path d="M158.7656,373.875 Q158.9219,373.6563 159.1094,373.5469 Q159.2969,373.4375 159.5156,373.4375 Q159.8906,373.4375 160.125,373.7031 Q160.3594,373.9531 160.3594,374.5625 L160.3594,376.0156 Q160.3594,376.625 160.125,376.8906 Q159.8906,377.1563 159.5156,377.1563 Q159.1719,377.1563 158.9688,376.9531 Q158.7656,376.7656 158.6563,376.25 Q158.6094,375.8906 158.4219,375.7031 Q158.0938,375.3281 157.4844,375.1094 Q156.875,374.8906 156.25,374.8906 Q155.4844,374.8906 154.8438,375.2188 Q154.2188,375.5469 153.7188,376.2969 Q153.2344,377.0469 153.2344,378.0781 L153.2344,379.1719 Q153.2344,380.4063 154.125,381.2344 Q155.0156,382.0469 156.6094,382.0469 Q157.5469,382.0469 158.2031,381.7969 Q158.5938,381.6406 159.0156,381.2031 Q159.2813,380.9375 159.4219,380.8594 Q159.5781,380.7813 159.7813,380.7813 Q160.1094,380.7813 160.3594,381.0469 Q160.625,381.2969 160.625,381.6406 Q160.625,381.9844 160.2813,382.3906 Q159.7813,382.9688 158.9844,383.2969 Q157.9063,383.75 156.6094,383.75 Q155.0938,383.75 153.8906,383.125 Q152.9063,382.625 152.2188,381.5625 Q151.5313,380.4844 151.5313,379.2031 L151.5313,378.0469 Q151.5313,376.7188 152.1406,375.5781 Q152.7656,374.4219 153.8594,373.8125 Q154.9531,373.1875 156.1875,373.1875 Q156.9219,373.1875 157.5625,373.3594 Q158.2188,373.5156 158.7656,373.875 Z "/><text fill="#33335B" font-family="sans-serif" font-size="12" lengthAdjust="spacingAndGlyphs" textLength="131" x="170" y="382.9102">struct dai_plat_fifo_data</text><line style="stroke: #33335B; stroke-width: 1.5;" x1="142" x2="303" y1="394" y2="394"/><text fill="#33335B" font-family="sans-serif" font-size="11" lengthAdjust="spacingAndGlyphs" textLength="76" x="147" y="409.4189">offset : uint32_t</text><text fill="#33335B" font-family="sans-serif" font-size="11" lengthAdjust="spacingAndGlyphs" textLength="74" x="147" y="423.2549">width : uint32_t</text><text fill="#33335B" font-family="sans-serif" font-size="11" lengthAdjust="spacingAndGlyphs" textLength="74" x="147" y="437.0908">depth : uint32_t</text><text fill="#33335B" font-family="sans-serif" font-size="11" lengthAdjust="spacingAndGlyphs" textLength="99" x="147" y="450.9268">watermark : uint32_t</text><text fill="#33335B" font-family="sans-serif" font-size="11" lengthAdjust="spacingAndGlyphs" textLength="100" x="147" y="464.7627">handshake : uint32_t</text><!--MD5=[89617fca4412802b3d8579cdec6d967f]
link dai_ops to s_dai--><path d="M123.13,76.5 C134.65,76.5 146.16,76.5 157.68,76.5 " fill="none" id="dai_ops-s_dai" style="stroke: #4A4A86; stroke-width: 1.0;"/><!--MD5=[398ffa89781d162df80bb67ef42fac72]
link s_dai to s_dai_plat_data--><path d="M222.5,131.43 C222.5,155.24 222.5,182.94 222.5,205.84 " fill="none" id="s_dai-s_dai_plat_data" style="stroke: #4A4A86; stroke-width: 1.0;"/><!--MD5=[566e0bc63cdae3dabcd15db279e1fcfb]
link s_dai_plat_data to s_dai_plat_fifo_data--><path d="M222.5,301.07 C222.5,320.11 222.5,342.24 222.5,361.95 " fill="none" id="s_dai_plat_data-s_dai_plat_fifo_data" style="stroke: #4A4A86; stroke-width: 1.0;"/><!--MD5=[6198e08fb7de4ef2e367ec55191da5c6]
reverse link s_dai to lib--><path d="M292.32,76.5 C316.22,76.5 343.69,76.5 370.45,76.5 " fill="none" id="s_dai&lt;-lib" style="stroke: #4A4A86; stroke-width: 1.0;"/><polygon fill="#4A4A86" points="287.27,76.5,296.27,80.5,292.27,76.5,296.27,72.5,287.27,76.5" style="stroke: #4A4A86; stroke-width: 1.0;"/><text fill="#33335B" font-family="sans-serif" font-size="13" lengthAdjust="spacingAndGlyphs" textLength="47" x="305.25" y="69.9951">provides</text><!--MD5=[72cc54fee8ecb0179a6ca75b439398fa]
@startuml
hidefootbox
skinparam componentStyle uml2

skinparam defaultFontColor	#33335b

skinparam rectangle {
	color		#d6d6de
	backgroundColor	#ffffff
}

skinparam component {
	backgroundColor	#ffffff
	borderColor	#33335b
	arrowColor	#f05772
}

skinparam interface {
	backgroundColor	#ffffff
	borderColor	#f05772
}

skinparam class {
	backgroundColor	#ffffff
	borderColor	#33335b
	arrowColor	#f05772
}
skinparam stereotypeCBackgroundColor	#6fccdd

skinparam sequence {
	arrowColor		#4a4a86
	lifeLineBorderColor	#f05772
	groupBorderColor	#a1a1ca
	boxBorderColor		#a1a1ca
	dividerBorderColor	#d6d6de
	dividerBorderThickness	1
}
skinparam participant {
	borderColor		#33335b
	backgroundColor		#ffffff
}
skinparam actor {
	borderColor		#33335b
	backgroundColor		#ffffff
}

skinparam state {
	borderColor		#33335b
	backgroundColor		#ffffff
}

skinparam node {
	backgroundColor		#ffffff
}

skinparam note {
	backgroundColor 	#f6ed80
	borderColor		#d6d6de
}
class lib {
   struct dai *dai_get(uint32_t type, uint32_t index)
   dai_put(struct dai*)
}
hide lib attributes

class dai_ops {
   set_config()
   trigger()
   pm_context_restore()
   pm_context_store()
   probe()
   remove()
   set_loopback_mode()
}
hide dai_ops attributes

class "struct dai" as s_dai {
   type : uint32_t
   index : uint32_t
   plat_data : dai_plat_data
   ops : const dai_ops *
   private : void *
}
hide s_dai methods

class "struct dai_plat_data" as s_dai_plat_data {
   base : uint32_t
   irq : uint32_t
   flags : uint32_t
   fifo : struct dai_plat_fifo_data[2]
}
hide s_dai_plat_data methods

class "struct dai_plat_fifo_data" as s_dai_plat_fifo_data {
   offset : uint32_t
   width : uint32_t
   depth : uint32_t
   watermark : uint32_t
   handshake : uint32_t
}
hide s_dai_plat_fifo_data methods

dai_ops - s_dai
s_dai - - s_dai_plat_data
s_dai_plat_data - - s_dai_plat_fifo_data
s_dai <- lib : provides

@enduml

PlantUML version 1.2019.12(Sun Nov 03 11:24:54 CET 2019)
(GPL source distribution)
Java Runtime: OpenJDK Runtime Environment
JVM: OpenJDK 64-Bit Server VM
Java Version: 1.8.0_302-b08
Operating System: Windows 10
Default Encoding: Cp1252
Language: en
Country: US
--></g></svg>