<?xml version="1.0" encoding="UTF-8" standalone="no"?>
<!DOCTYPE svg PUBLIC "-//W3C//DTD SVG 1.1//EN"
 "http://www.w3.org/Graphics/SVG/1.1/DTD/svg11.dtd">
<!-- Generated by graphviz version 2.38.0 (20140413.2041)
 -->
<!-- Title: runtime_zone Pages: 1 -->
<svg width="180pt" height="135pt"
 viewBox="0.00 0.00 180.00 135.16" xmlns="http://www.w3.org/2000/svg" xmlns:xlink="http://www.w3.org/1999/xlink">
<g id="graph0" class="graph" transform="scale(0.640569 0.640569) rotate(0) translate(4 207)">
<title>runtime_zone</title>
<polygon fill="white" stroke="none" points="-4,4 -4,-207 277,-207 277,4 -4,4"/>
<g id="clust1" class="cluster"><title>cluster_rt_0</title>
<polygon fill="none" stroke="black" points="113,-8 113,-195 265,-195 265,-8 113,-8"/>
<text text-anchor="middle" x="189" y="-179.8" font-family="verdana" font-size="14.00">RUNTIME HEAP #0</text>
</g>
<g id="clust2" class="cluster"><title>cluster_core_0</title>
<polygon fill="#f0f0f0" stroke="#f0f0f0" points="8,-16 8,-180 93,-180 93,-16 8,-16"/>
</g>
<!-- map0 -->
<g id="node1" class="node"><title>map0</title>
<polygon fill="none" stroke="black" points="162,-127 162,-163 216,-163 216,-127 162,-127"/>
<text text-anchor="middle" x="189" y="-141.3" font-family="verdana" font-size="14.00">map</text>
</g>
<!-- rt0 -->
<g id="node2" class="node"><title>rt0</title>
<polygon fill="none" stroke="black" points="121,-16 121,-108 257,-108 257,-16 121,-16"/>
<text text-anchor="middle" x="146" y="-92.8" font-family="verdana" font-size="14.00">64B</text>
<polyline fill="none" stroke="black" points="171,-85 171,-108 "/>
<text text-anchor="middle" x="196" y="-92.8" font-family="verdana" font-size="14.00">64B</text>
<polyline fill="none" stroke="black" points="221,-85 221,-108 "/>
<text text-anchor="middle" x="239" y="-92.8" font-family="verdana" font-size="14.00">...</text>
<polyline fill="none" stroke="black" points="121,-85 257,-85 "/>
<text text-anchor="middle" x="147.5" y="-69.8" font-family="verdana" font-size="14.00">128B</text>
<polyline fill="none" stroke="black" points="174,-62 174,-85 "/>
<text text-anchor="middle" x="200.5" y="-69.8" font-family="verdana" font-size="14.00">128B</text>
<polyline fill="none" stroke="black" points="227,-62 227,-85 "/>
<text text-anchor="middle" x="242" y="-69.8" font-family="verdana" font-size="14.00">...</text>
<polyline fill="none" stroke="black" points="121,-62 257,-62 "/>
<text text-anchor="middle" x="147.5" y="-46.8" font-family="verdana" font-size="14.00">256B</text>
<polyline fill="none" stroke="black" points="174,-39 174,-62 "/>
<text text-anchor="middle" x="200.5" y="-46.8" font-family="verdana" font-size="14.00">256B</text>
<polyline fill="none" stroke="black" points="227,-39 227,-62 "/>
<text text-anchor="middle" x="242" y="-46.8" font-family="verdana" font-size="14.00">...</text>
<polyline fill="none" stroke="black" points="121,-39 257,-39 "/>
<text text-anchor="middle" x="189" y="-23.8" font-family="verdana" font-size="14.00">....</text>
</g>
<!-- comp_0 -->
<g id="node3" class="node"><title>comp_0</title>
<polygon fill="none" stroke="black" points="16,-80 16,-116 85,-116 85,-80 16,-80"/>
<text text-anchor="middle" x="50.5" y="-94.3" font-family="verdana" font-size="14.00">comp_0</text>
</g>
<!-- comp_0&#45;&gt;rt0 -->
<g id="edge1" class="edge"><title>comp_0&#45;&gt;rt0:2:nw</title>
<path fill="none" stroke="black" d="M85.2177,-106.652C110.713,-112.414 144.248,-118.159 161.921,-113.593"/>
<polygon fill="black" stroke="black" points="163.657,-116.637 171,-109 160.497,-110.391 163.657,-116.637"/>
</g>
<!-- comp_0&#45;&gt;rt0 -->
<g id="edge2" class="edge"><title>comp_0&#45;&gt;rt0:10:nw</title>
<path fill="none" stroke="black" d="M85.1484,-99.1854C94.3099,-98.2128 103.918,-95.9115 111.969,-91.1642"/>
<polygon fill="black" stroke="black" points="114.199,-93.8653 120,-85 109.936,-88.3125 114.199,-93.8653"/>
</g>
<!-- comp_1 -->
<g id="node4" class="node"><title>comp_1</title>
<polygon fill="none" stroke="black" points="16,-25 16,-61 85,-61 85,-25 16,-25"/>
<text text-anchor="middle" x="50.5" y="-39.3" font-family="verdana" font-size="14.00">comp_1</text>
</g>
<!-- comp_1&#45;&gt;rt0 -->
<g id="edge3" class="edge"><title>comp_1&#45;&gt;rt0:22:nw</title>
<path fill="none" stroke="black" d="M83.7263,-61.0597C108.578,-72.59 142.573,-82.8756 166.134,-68.2507"/>
<polygon fill="black" stroke="black" points="168.348,-70.9614 174,-62 163.993,-65.4809 168.348,-70.9614"/>
</g>
<!-- comp_2 -->
<g id="node5" class="node"><title>comp_2</title>
<polygon fill="none" stroke="black" points="16,-135 16,-171 85,-171 85,-135 16,-135"/>
<text text-anchor="middle" x="50.5" y="-149.3" font-family="verdana" font-size="14.00">comp_2</text>
</g>
<!-- comp_2&#45;&gt;rt0 -->
<g id="edge4" class="edge"><title>comp_2&#45;&gt;rt0:1:nw</title>
<path fill="none" stroke="black" d="M84.9006,-134.88C94.0872,-129.165 103.921,-122.35 112.653,-114.807"/>
<polygon fill="black" stroke="black" points="115.043,-117.364 120,-108 110.286,-112.229 115.043,-117.364"/>
</g>
</g>
</svg>
