<?xml version="1.0" encoding="UTF-8" standalone="no"?>
<!DOCTYPE svg PUBLIC "-//W3C//DTD SVG 1.1//EN"
 "http://www.w3.org/Graphics/SVG/1.1/DTD/svg11.dtd">
<!-- Generated by graphviz version 2.50.0 (20211204.2007)
 -->
<!-- Title: system_zone Pages: 1 -->
<svg width="286pt" height="453pt"
 viewBox="0.00 0.00 286.00 453.00" xmlns="http://www.w3.org/2000/svg" xmlns:xlink="http://www.w3.org/1999/xlink">
<g id="graph0" class="graph" transform="scale(1 1) rotate(0) translate(4 449)">
<title>system_zone</title>
<polygon fill="white" stroke="transparent" points="-4,4 -4,-449 282,-449 282,4 -4,4"/>
<g id="clust1" class="cluster">
<title>cluster_sys_0</title>
<polygon fill="none" stroke="black" points="148,-8 148,-253 270,-253 270,-8 148,-8"/>
<text text-anchor="middle" x="209" y="-237.8" font-family="verdana" font-size="14.00">SYS HEAP #0</text>
</g>
<g id="clust2" class="cluster">
<title>cluster_sys_1</title>
<polygon fill="none" stroke="black" points="148,-261 148,-402 270,-402 270,-261 148,-261"/>
<text text-anchor="middle" x="209" y="-386.8" font-family="verdana" font-size="14.00">SYS HEAP #1</text>
</g>
<g id="clust3" class="cluster">
<title>cluster_core_0</title>
<polygon fill="#f0f0f0" stroke="#f0f0f0" points="8,-84 8,-271 128,-271 128,-84 8,-84"/>
<text text-anchor="middle" x="68" y="-255.8" font-family="verdana" font-size="14.00">core #0</text>
</g>
<g id="clust4" class="cluster">
<title>cluster_core_1</title>
<polygon fill="#f0f0f0" stroke="#f0f0f0" points="8,-305 8,-437 128,-437 128,-305 8,-305"/>
<text text-anchor="middle" x="68" y="-421.8" font-family="verdana" font-size="14.00">core #1</text>
</g>
<!-- s0 -->
<g id="node1" class="node">
<title>s0</title>
<polygon fill="none" stroke="black" points="156,-17 156,-221 262,-221 262,-17 156,-17"/>
<text text-anchor="middle" x="209" y="-205.8" font-family="verdana" font-size="14.00">block</text>
<polyline fill="none" stroke="black" points="156,-166 262,-166 "/>
<text text-anchor="middle" x="209" y="-150.8" font-family="verdana" font-size="14.00">block</text>
<polyline fill="none" stroke="black" points="156,-143 262,-143 "/>
<text text-anchor="middle" x="209" y="-127.8" font-family="verdana" font-size="14.00">block</text>
<polyline fill="none" stroke="black" points="156,-104 262,-104 "/>
<text text-anchor="middle" x="209" y="-88.8" font-family="verdana" font-size="14.00">free space...</text>
</g>
<!-- s1 -->
<g id="node2" class="node">
<title>s1</title>
<polygon fill="none" stroke="black" points="156,-269.5 156,-370.5 262,-370.5 262,-269.5 156,-269.5"/>
<text text-anchor="middle" x="209" y="-355.3" font-family="verdana" font-size="14.00">block</text>
<polyline fill="none" stroke="black" points="156,-347.5 262,-347.5 "/>
<text text-anchor="middle" x="209" y="-332.3" font-family="verdana" font-size="14.00">block</text>
<polyline fill="none" stroke="black" points="156,-308.5 262,-308.5 "/>
<text text-anchor="middle" x="209" y="-293.3" font-family="verdana" font-size="14.00">free space...</text>
</g>
<!-- ipc -->
<g id="node3" class="node">
<title>ipc</title>
<polygon fill="none" stroke="black" points="41,-203 41,-239 95,-239 95,-203 41,-203"/>
<text text-anchor="middle" x="68" y="-217.3" font-family="verdana" font-size="14.00">ipc</text>
</g>
<!-- ipc&#45;&gt;s0 -->
<g id="edge1" class="edge">
<title>ipc&#45;&gt;s0:nw</title>
<path fill="none" stroke="black" d="M95.25,-229.73C111.33,-233.55 131.66,-235.51 146.77,-227.17"/>
<polygon fill="black" stroke="black" points="149.1,-229.8 155,-221 144.9,-224.2 149.1,-229.8"/>
</g>
<!-- scheduler_0 -->
<g id="node4" class="node">
<title>scheduler_0</title>
<polygon fill="none" stroke="black" points="16,-148 16,-184 120,-184 120,-148 16,-148"/>
<text text-anchor="middle" x="68" y="-162.3" font-family="verdana" font-size="14.00">scheduler_0</text>
</g>
<!-- scheduler_0&#45;&gt;s0 -->
<g id="edge2" class="edge">
<title>scheduler_0&#45;&gt;s0:nw</title>
<path fill="none" stroke="black" d="M120.39,-178.01C129.72,-178.05 138.97,-176.48 146.81,-172.14"/>
<polygon fill="black" stroke="black" points="149.1,-174.8 155,-166 144.9,-169.2 149.1,-174.8"/>
</g>
<!-- work_0 -->
<g id="node5" class="node">
<title>work_0</title>
<polygon fill="none" stroke="black" points="33,-93 33,-129 103,-129 103,-93 33,-93"/>
<text text-anchor="middle" x="68" y="-107.3" font-family="verdana" font-size="14.00">work_0</text>
</g>
<!-- work_0&#45;&gt;s0 -->
<g id="edge3" class="edge">
<title>work_0&#45;&gt;s0:nw</title>
<path fill="none" stroke="black" d="M103.07,-126.97C118.03,-133.62 134.54,-140.36 144.96,-142.87"/>
<polygon fill="black" stroke="black" points="144.95,-146.37 155,-143 145.05,-139.37 144.95,-146.37"/>
</g>
<!-- scheduler_1 -->
<g id="node6" class="node">
<title>scheduler_1</title>
<polygon fill="none" stroke="black" points="16,-369 16,-405 120,-405 120,-369 16,-369"/>
<text text-anchor="middle" x="68" y="-383.3" font-family="verdana" font-size="14.00">scheduler_1</text>
</g>
<!-- scheduler_1&#45;&gt;s1 -->
<g id="edge4" class="edge">
<title>scheduler_1&#45;&gt;s1:nw</title>
<path fill="none" stroke="black" d="M120.19,-387.42C129.72,-385.68 139.19,-382.56 147.22,-377.3"/>
<polygon fill="black" stroke="black" points="149.43,-380.01 155,-371 145.02,-374.57 149.43,-380.01"/>
</g>
<!-- work_1 -->
<g id="node7" class="node">
<title>work_1</title>
<polygon fill="none" stroke="black" points="33,-314 33,-350 103,-350 103,-314 33,-314"/>
<text text-anchor="middle" x="68" y="-328.3" font-family="verdana" font-size="14.00">work_1</text>
</g>
<!-- work_1&#45;&gt;s1 -->
<g id="edge5" class="edge">
<title>work_1&#45;&gt;s1:nw</title>
<path fill="none" stroke="black" d="M101.27,-350.13C116.16,-356.33 133.45,-360.24 146.84,-353.81"/>
<polygon fill="black" stroke="black" points="148.88,-356.65 155,-348 144.82,-350.94 148.88,-356.65"/>
</g>
</g>
</svg>
