<?xml version="1.0" encoding="UTF-8" standalone="no"?>
<!DOCTYPE svg PUBLIC "-//W3C//DTD SVG 1.1//EN"
 "http://www.w3.org/Graphics/SVG/1.1/DTD/svg11.dtd">
<!-- Generated by graphviz version 2.43.0 (0)
 -->
<!-- Title: build_proc_traces Pages: 1 -->
<svg width="480pt" height="147pt"
 viewBox="0.00 0.00 480.00 146.50" xmlns="http://www.w3.org/2000/svg" xmlns:xlink="http://www.w3.org/1999/xlink">
<g id="graph0" class="graph" transform="scale(1 1) rotate(0) translate(4 142.5)">
<title>build_proc_traces</title>
<polygon fill="white" stroke="transparent" points="-4,4 -4,-142.5 476,-142.5 476,4 -4,4"/>
<!-- src -->
<g id="node1" class="node">
<title>src</title>
<polygon fill="none" stroke="black" points="0,-26.5 0,-64.5 153,-64.5 153,-26.5 0,-26.5"/>
<text text-anchor="middle" x="76.5" y="-49.3" font-family="verdana" font-size="14.00">source files</text>
<text text-anchor="middle" x="76.5" y="-34.3" font-family="verdana" font-size="14.00"> { trace_event(...) }</text>
</g>
<!-- elf -->
<g id="node2" class="node">
<title>elf</title>
<polygon fill="none" stroke="black" points="229,-7 229,-138 370,-138 370,-7 229,-7"/>
<text text-anchor="middle" x="299.5" y="-122.8" font-family="verdana" font-size="14.00">ELF</text>
<polyline fill="none" stroke="black" points="229,-115 370,-115 "/>
<text text-anchor="middle" x="299.5" y="-99.8" font-family="verdana" font-size="14.00">.text</text>
<polyline fill="none" stroke="black" points="229,-92 370,-92 "/>
<text text-anchor="middle" x="299.5" y="-76.8" font-family="verdana" font-size="14.00">.data</text>
<polyline fill="none" stroke="black" points="229,-69 370,-69 "/>
<text text-anchor="middle" x="299.5" y="-53.8" font-family="verdana" font-size="14.00">...</text>
<polyline fill="none" stroke="black" points="229,-30 370,-30 "/>
<text text-anchor="middle" x="299.5" y="-14.8" font-family="verdana" font-size="14.00">.static_log_entries</text>
</g>
<!-- src&#45;&gt;elf -->
<g id="edge1" class="edge">
<title>src&#45;&gt;elf</title>
<path fill="none" stroke="black" d="M153.2,-59C159.21,-59.91 165.2,-60.76 171,-61.5 186.37,-63.47 202.82,-65.19 218.63,-66.64"/>
<polygon fill="black" stroke="black" points="218.64,-70.15 228.91,-67.55 219.26,-63.18 218.64,-70.15"/>
</g>
<!-- src&#45;&gt;elf -->
<g id="edge2" class="edge">
<title>src&#45;&gt;elf:sle</title>
<path fill="none" stroke="black" stroke-dasharray="1,5" d="M121.86,-26.39C137.13,-20.74 154.54,-15.32 171,-12.5 188.52,-9.5 193.45,-9.65 211,-12.5 214.64,-13.09 216.93,-14.31 219.05,-15.5"/>
<polygon fill="black" stroke="black" points="218.42,-18.96 229,-18.5 220.44,-12.26 218.42,-18.96"/>
<text text-anchor="middle" x="191" y="-46.3" font-family="verdana" font-size="14.00">trace</text>
<text text-anchor="middle" x="191" y="-31.3" font-family="verdana" font-size="14.00">event</text>
<text text-anchor="middle" x="191" y="-16.3" font-family="verdana" font-size="14.00">data</text>
</g>
<!-- ri -->
<g id="node3" class="node">
<title>ri</title>
<polygon fill="none" stroke="black" points="409,-60.5 409,-96.5 470,-96.5 470,-60.5 409,-60.5"/>
<text text-anchor="middle" x="439.5" y="-74.8" font-family="verdana" font-size="14.00">sof&#45; .ri</text>
</g>
<!-- elf&#45;&gt;ri -->
<g id="edge3" class="edge">
<title>elf:text&#45;&gt;ri</title>
<path fill="none" stroke="black" d="M370,-103.5C379.87,-103.5 390.07,-101.18 399.5,-97.96"/>
<polygon fill="black" stroke="black" points="400.9,-101.17 408.99,-94.33 398.4,-94.63 400.9,-101.17"/>
</g>
<!-- elf&#45;&gt;ri -->
<g id="edge4" class="edge">
<title>elf:data&#45;&gt;ri</title>
<path fill="none" stroke="black" d="M370,-80.5C379.25,-80.5 389.2,-80.32 398.57,-80.06"/>
<polygon fill="black" stroke="black" points="398.95,-83.55 408.83,-79.74 398.73,-76.55 398.95,-83.55"/>
</g>
<!-- elf&#45;&gt;ri -->
<g id="edge5" class="edge">
<title>elf:others&#45;&gt;ri</title>
<path fill="none" stroke="black" d="M370,-49.5C380.36,-49.5 390.96,-52.35 400.63,-56.26"/>
<polygon fill="black" stroke="black" points="399.39,-59.54 409.94,-60.46 402.26,-53.16 399.39,-59.54"/>
</g>
<!-- lcd_file -->
<g id="node4" class="node">
<title>lcd_file</title>
<polygon fill="none" stroke="black" points="407,-0.5 407,-36.5 472,-36.5 472,-0.5 407,-0.5"/>
<text text-anchor="middle" x="439.5" y="-14.8" font-family="verdana" font-size="14.00">lcd_file</text>
</g>
<!-- elf&#45;&gt;lcd_file -->
<g id="edge6" class="edge">
<title>elf:sle&#45;&gt;lcd_file</title>
<path fill="none" stroke="black" stroke-dasharray="1,5" d="M370,-18.5C378.63,-18.5 387.88,-18.5 396.69,-18.5"/>
<polygon fill="black" stroke="black" points="396.78,-22 406.78,-18.5 396.78,-15 396.78,-22"/>
</g>
</g>
</svg>
