<?xml version="1.0" encoding="UTF-8" standalone="no"?>
<!DOCTYPE svg PUBLIC "-//W3C//DTD SVG 1.1//EN"
 "http://www.w3.org/Graphics/SVG/1.1/DTD/svg11.dtd">
<!-- Generated by graphviz version 14.1.2 (0)
 -->
<!-- Title: simd_comparison Pages: 1 -->
<svg width="274pt" height="497pt"
 viewBox="0.00 0.00 274.00 497.00" xmlns="http://www.w3.org/2000/svg" xmlns:xlink="http://www.w3.org/1999/xlink">
<g id="graph0" class="graph" transform="scale(1 1) rotate(0) translate(4 493.1)">
<title>simd_comparison</title>
<g id="clust1" class="cluster">
<title>cluster_generic</title>
<path fill="#edf2f7" stroke="#cbd5e0" d="M31,-390.2C31,-390.2 235,-390.2 235,-390.2 241,-390.2 247,-396.2 247,-402.2 247,-402.2 247,-469.1 247,-469.1 247,-475.1 241,-481.1 235,-481.1 235,-481.1 31,-481.1 31,-481.1 25,-481.1 19,-475.1 19,-469.1 19,-469.1 19,-402.2 19,-402.2 19,-396.2 25,-390.2 31,-390.2"/>
<text xml:space="preserve" text-anchor="middle" x="133" y="-467.6" font-family="verdana" font-size="10.00">Generic C Implementation (volume_generic.c)</text>
</g>
<g id="clust2" class="cluster">
<title>cluster_hifi3</title>
<path fill="#ebf8ff" stroke="#bee3f8" d="M20,-271.3C20,-271.3 246,-271.3 246,-271.3 252,-271.3 258,-277.3 258,-283.3 258,-283.3 258,-350.2 258,-350.2 258,-356.2 252,-362.2 246,-362.2 246,-362.2 20,-362.2 20,-362.2 14,-362.2 8,-356.2 8,-350.2 8,-350.2 8,-283.3 8,-283.3 8,-277.3 14,-271.3 20,-271.3"/>
<text xml:space="preserve" text-anchor="middle" x="133" y="-348.7" font-family="verdana" font-size="10.00">Cadence Xtensa HiFi 3 (volume_hifi3.c)</text>
</g>
<g id="clust3" class="cluster">
<title>cluster_hifi4</title>
<path fill="#fefcbf" stroke="#d69e2e" d="M27,-139.65C27,-139.65 239,-139.65 239,-139.65 245,-139.65 251,-145.65 251,-151.65 251,-151.65 251,-231.3 251,-231.3 251,-237.3 245,-243.3 239,-243.3 239,-243.3 27,-243.3 27,-243.3 21,-243.3 15,-237.3 15,-231.3 15,-231.3 15,-151.65 15,-151.65 15,-145.65 21,-139.65 27,-139.65"/>
<text xml:space="preserve" text-anchor="middle" x="133" y="-229.8" font-family="verdana" font-size="10.00">Cadence Xtensa HiFi 4 (volume_hifi4.c)</text>
</g>
<g id="clust4" class="cluster">
<title>cluster_hifi5</title>
<path fill="#f0fff4" stroke="#c6f6d5" d="M33,-8C33,-8 233,-8 233,-8 239,-8 245,-14 245,-20 245,-20 245,-99.65 245,-99.65 245,-105.65 239,-111.65 233,-111.65 233,-111.65 33,-111.65 33,-111.65 27,-111.65 21,-105.65 21,-99.65 21,-99.65 21,-20 21,-20 21,-14 27,-8 33,-8"/>
<text xml:space="preserve" text-anchor="middle" x="133" y="-98.15" font-family="verdana" font-size="10.00">Cadence Xtensa HiFi 5 (volume_hifi5.c)</text>
</g>
<!-- gen_desc -->
<g id="node1" class="node">
<title>gen_desc</title>
<path fill="#ffffff" stroke="#cbd5e0" d="M227.43,-450.85C227.43,-450.85 38.57,-450.85 38.57,-450.85 32.57,-450.85 26.58,-444.85 26.58,-438.85 26.58,-438.85 26.58,-410.2 26.58,-410.2 26.58,-404.2 32.58,-398.2 38.58,-398.2 38.58,-398.2 227.43,-398.2 227.43,-398.2 233.43,-398.2 239.43,-404.2 239.43,-410.2 239.43,-410.2 239.43,-438.85 239.43,-438.85 239.43,-444.85 233.43,-450.85 227.43,-450.85"/>
<text xml:space="preserve" text-anchor="middle" x="133" y="-435.1" font-family="verdana" font-size="9.00">Portable Scalar C Code</text>
<text xml:space="preserve" text-anchor="middle" x="133" y="-422.35" font-family="verdana" font-size="9.00">1 sample processed per loop iteration</text>
<text xml:space="preserve" text-anchor="middle" x="133" y="-409.6" font-family="verdana" font-size="9.00">Target: ARM Cortex&#45;M, RISC&#45;V, Host Simulator</text>
</g>
<!-- h3_desc -->
<g id="node2" class="node">
<title>h3_desc</title>
<path fill="#bee3f8" stroke="#3182ce" d="M237.55,-331.95C237.55,-331.95 28.45,-331.95 28.45,-331.95 22.45,-331.95 16.45,-325.95 16.45,-319.95 16.45,-319.95 16.45,-291.3 16.45,-291.3 16.45,-285.3 22.45,-279.3 28.45,-279.3 28.45,-279.3 237.55,-279.3 237.55,-279.3 243.55,-279.3 249.55,-285.3 249.55,-291.3 249.55,-291.3 249.55,-319.95 249.55,-319.95 249.55,-325.95 243.55,-331.95 237.55,-331.95"/>
<text xml:space="preserve" text-anchor="middle" x="133" y="-316.2" font-family="verdana" font-size="9.00">Dual 32&#45;bit SIMD Registers (ae_p24x2s / ae_s32x2)</text>
<text xml:space="preserve" text-anchor="middle" x="133" y="-303.45" font-family="verdana" font-size="9.00">2 samples processed per cycle</text>
<text xml:space="preserve" text-anchor="middle" x="133" y="-290.7" font-family="verdana" font-size="9.00">Dual 64&#45;bit load/store memory operations</text>
</g>
<!-- gen_desc&#45;&gt;h3_desc -->
<g id="edge1" class="edge">
<title>gen_desc&#45;&gt;h3_desc</title>
<path fill="none" stroke="#3182ce" d="M133,-397.87C133,-381.96 133,-361.25 133,-343.59"/>
<polygon fill="#3182ce" stroke="#3182ce" points="136.5,-343.73 133,-333.73 129.5,-343.73 136.5,-343.73"/>
<text xml:space="preserve" text-anchor="middle" x="174.62" y="-374.6" font-family="verdana" font-size="8.00" fill="#2d3748">2x Vector Throughput</text>
</g>
<!-- h4_desc -->
<g id="node3" class="node">
<title>h4_desc</title>
<path fill="#faf089" stroke="#b7791f" d="M231.18,-213.05C231.18,-213.05 34.82,-213.05 34.82,-213.05 28.82,-213.05 22.82,-207.05 22.82,-201.05 22.82,-201.05 22.82,-159.65 22.82,-159.65 22.82,-153.65 28.82,-147.65 34.82,-147.65 34.82,-147.65 231.18,-147.65 231.18,-147.65 237.18,-147.65 243.18,-153.65 243.18,-159.65 243.18,-159.65 243.18,-201.05 243.18,-201.05 243.18,-207.05 237.18,-213.05 231.18,-213.05"/>
<text xml:space="preserve" text-anchor="middle" x="133" y="-197.3" font-family="verdana" font-size="9.00">Quad 32&#45;bit Vector Units (ae_int32x4)</text>
<text xml:space="preserve" text-anchor="middle" x="133" y="-184.55" font-family="verdana" font-size="9.00">4 samples processed per instruction cycle</text>
<text xml:space="preserve" text-anchor="middle" x="133" y="-171.8" font-family="verdana" font-size="9.00">128&#45;bit aligned vector load/store operations</text>
<text xml:space="preserve" text-anchor="middle" x="133" y="-159.05" font-family="verdana" font-size="9.00">Hardware saturation &amp; vector peak comparison</text>
</g>
<!-- h3_desc&#45;&gt;h4_desc -->
<g id="edge2" class="edge">
<title>h3_desc&#45;&gt;h4_desc</title>
<path fill="none" stroke="#b7791f" d="M133,-279.08C133,-263.46 133,-243.07 133,-224.95"/>
<polygon fill="#b7791f" stroke="#b7791f" points="136.5,-224.96 133,-214.96 129.5,-224.96 136.5,-224.96"/>
<text xml:space="preserve" text-anchor="middle" x="192.62" y="-255.7" font-family="verdana" font-size="8.00" fill="#2d3748">2x Vector Throughput (4x Total)</text>
</g>
<!-- h5_desc -->
<g id="node4" class="node">
<title>h5_desc</title>
<path fill="#c6f6d5" stroke="#38a169" d="M225.18,-81.4C225.18,-81.4 40.82,-81.4 40.82,-81.4 34.82,-81.4 28.83,-75.4 28.83,-69.4 28.83,-69.4 28.83,-28 28.83,-28 28.83,-22 34.83,-16 40.83,-16 40.83,-16 225.18,-16 225.18,-16 231.18,-16 237.18,-22 237.18,-28 237.18,-28 237.18,-69.4 237.18,-69.4 237.18,-75.4 231.18,-81.4 225.18,-81.4"/>
<text xml:space="preserve" text-anchor="middle" x="133" y="-65.65" font-family="verdana" font-size="9.00" fill="#22543d">Octa 32&#45;bit Vector Engine</text>
<text xml:space="preserve" text-anchor="middle" x="133" y="-52.9" font-family="verdana" font-size="9.00" fill="#22543d">8 samples processed concurrently</text>
<text xml:space="preserve" text-anchor="middle" x="133" y="-40.15" font-family="verdana" font-size="9.00" fill="#22543d">Dual 128&#45;bit memory buses (256 bits/cycle)</text>
<text xml:space="preserve" text-anchor="middle" x="133" y="-27.4" font-family="verdana" font-size="9.00" fill="#22543d">Maximum throughput for multi&#45;channel TDM</text>
</g>
<!-- h4_desc&#45;&gt;h5_desc -->
<g id="edge3" class="edge">
<title>h4_desc&#45;&gt;h5_desc</title>
<path fill="none" stroke="#38a169" stroke-width="2" d="M133,-147.3C133,-131.02 133,-110.99 133,-93.32"/>
<polygon fill="#38a169" stroke="#38a169" stroke-width="2" points="136.5,-94.86 133,-84.86 129.5,-94.86 136.5,-94.86"/>
<text xml:space="preserve" text-anchor="middle" x="192.62" y="-124.05" font-family="verdana" font-size="8.00" fill="#2d3748">2x Vector Throughput (8x Total)</text>
</g>
</g>
</svg>
