<?xml version="1.0" encoding="UTF-8" standalone="no"?>
<!DOCTYPE svg PUBLIC "-//W3C//DTD SVG 1.1//EN"
 "http://www.w3.org/Graphics/SVG/1.1/DTD/svg11.dtd">
<!-- Generated by graphviz version 2.43.0 (0)
 -->
<!-- Title: G Pages: 1 -->
<svg width="594pt" height="463pt"
 viewBox="0.00 0.00 594.00 463.00" xmlns="http://www.w3.org/2000/svg" xmlns:xlink="http://www.w3.org/1999/xlink">
<g id="graph0" class="graph" transform="scale(1 1) rotate(0) translate(4 459)">
<title>G</title>
<polygon fill="white" stroke="transparent" points="-4,4 -4,-459 590,-459 590,4 -4,4"/>
<g id="clust1" class="cluster">
<title>clusterDsp</title>
<polygon fill="none" stroke="grey" points="8,-8 8,-447 78,-447 78,-8 8,-8"/>
</g>
<g id="clust2" class="cluster">
<title>clusterL1</title>
<polygon fill="none" stroke="grey" points="170.5,-228 170.5,-447 240.5,-447 240.5,-228 170.5,-228"/>
</g>
<g id="clust3" class="cluster">
<title>clusterImr</title>
<polygon fill="none" stroke="grey" points="508,-167 508,-386 578,-386 578,-167 508,-167"/>
</g>
<!-- dsp_1 -->
<g id="node1" class="node">
<title>dsp_1</title>
<polygon fill="#f0f0f0" stroke="#f0f0f0" points="16,-402 16,-438 70,-438 70,-402 16,-402"/>
<text text-anchor="middle" x="43" y="-417.5" font-family="verdana" font-size="10.00">DSP</text>
</g>
<!-- l1_1 -->
<g id="node9" class="node">
<title>l1_1</title>
<polygon fill="#e0e0e0" stroke="#e0e0e0" points="178.5,-402 178.5,-438 232.5,-438 232.5,-402 178.5,-402"/>
<text text-anchor="middle" x="205.5" y="-417.5" font-family="verdana" font-size="10.00">L1</text>
</g>
<!-- dsp_1&#45;&gt;l1_1 -->
<g id="edge1" class="edge">
<title>dsp_1&#45;&gt;l1_1</title>
<path fill="none" stroke="black" d="M70.2,-420C70.2,-420 168.48,-420 168.48,-420"/>
<polygon fill="black" stroke="black" points="168.48,-423.5 178.48,-420 168.48,-416.5 168.48,-423.5"/>
</g>
<!-- dsp_2 -->
<g id="node2" class="node">
<title>dsp_2</title>
<polygon fill="#f0f0f0" stroke="#f0f0f0" points="16,-347 16,-383 70,-383 70,-347 16,-347"/>
<text text-anchor="middle" x="43" y="-362.5" font-family="verdana" font-size="10.00">DSP</text>
</g>
<!-- l1_2 -->
<g id="node10" class="node">
<title>l1_2</title>
<polygon fill="#e0e0e0" stroke="#e0e0e0" points="178.5,-347 178.5,-383 232.5,-383 232.5,-347 178.5,-347"/>
<text text-anchor="middle" x="205.5" y="-362.5" font-family="verdana" font-size="10.00">L1</text>
</g>
<!-- dsp_2&#45;&gt;l1_2 -->
<g id="edge4" class="edge">
<title>dsp_2&#45;&gt;l1_2</title>
<path fill="none" stroke="black" d="M70.2,-365C70.2,-365 168.48,-365 168.48,-365"/>
<polygon fill="black" stroke="black" points="168.48,-368.5 178.48,-365 168.48,-361.5 168.48,-368.5"/>
</g>
<!-- dsp_3 -->
<g id="node3" class="node">
<title>dsp_3</title>
<polygon fill="#f0f0f0" stroke="#f0f0f0" points="16,-182 16,-218 70,-218 70,-182 16,-182"/>
<text text-anchor="middle" x="43" y="-197.5" font-family="verdana" font-size="10.00">DSP</text>
</g>
<!-- hpsram_l2_3 -->
<g id="node14" class="node">
<title>hpsram_l2_3</title>
<polygon fill="#d0d0d0" stroke="#d0d0d0" points="342,-182 342,-218 415,-218 415,-182 342,-182"/>
<text text-anchor="middle" x="378.5" y="-197.5" font-family="verdana" font-size="10.00">HPSRAM L2</text>
</g>
<!-- dsp_3&#45;&gt;hpsram_l2_3 -->
<g id="edge6" class="edge">
<title>dsp_3&#45;&gt;hpsram_l2_3</title>
<path fill="none" stroke="black" d="M70.17,-200C70.17,-200 331.82,-200 331.82,-200"/>
<polygon fill="black" stroke="black" points="331.82,-203.5 341.82,-200 331.82,-196.5 331.82,-203.5"/>
</g>
<!-- dsp_4 -->
<g id="node4" class="node">
<title>dsp_4</title>
<polygon fill="#f0f0f0" stroke="#f0f0f0" points="16,-127 16,-163 70,-163 70,-127 16,-127"/>
<text text-anchor="middle" x="43" y="-142.5" font-family="verdana" font-size="10.00">DSP</text>
</g>
<!-- imr_4 -->
<g id="node21" class="node">
<title>imr_4</title>
<polygon fill="#c0c0c0" stroke="#c0c0c0" points="516,-176 516,-212 570,-212 570,-176 516,-176"/>
<text text-anchor="middle" x="543" y="-191.5" font-family="verdana" font-size="10.00">IMR</text>
</g>
<!-- dsp_4&#45;&gt;imr_4 -->
<g id="edge8" class="edge">
<title>dsp_4&#45;&gt;imr_4</title>
<path fill="none" stroke="black" d="M70.24,-145C174.58,-145 543,-145 543,-145 543,-145 543,-165.75 543,-165.75"/>
<polygon fill="black" stroke="black" points="539.5,-165.75 543,-175.75 546.5,-165.75 539.5,-165.75"/>
<text text-anchor="middle" x="291.5" y="-152" font-family="verdana" font-size="10.00">@ 9000 0000</text>
</g>
<!-- dsp_5 -->
<g id="node5" class="node">
<title>dsp_5</title>
<polygon fill="#f0f0f0" stroke="#f0f0f0" points="16,-292 16,-328 70,-328 70,-292 16,-292"/>
<text text-anchor="middle" x="43" y="-307.5" font-family="verdana" font-size="10.00">DSP</text>
</g>
<!-- l1_5 -->
<g id="node11" class="node">
<title>l1_5</title>
<polygon fill="#e0e0e0" stroke="#e0e0e0" points="178.5,-292 178.5,-328 232.5,-328 232.5,-292 178.5,-292"/>
<text text-anchor="middle" x="205.5" y="-307.5" font-family="verdana" font-size="10.00">L1</text>
</g>
<!-- dsp_5&#45;&gt;l1_5 -->
<g id="edge9" class="edge">
<title>dsp_5&#45;&gt;l1_5</title>
<path fill="none" stroke="black" d="M70.2,-310C70.2,-310 168.48,-310 168.48,-310"/>
<polygon fill="black" stroke="black" points="168.48,-313.5 178.48,-310 168.48,-306.5 168.48,-313.5"/>
</g>
<!-- dsp_6 -->
<g id="node6" class="node">
<title>dsp_6</title>
<polygon fill="#f0f0f0" stroke="#f0f0f0" points="16,-72 16,-108 70,-108 70,-72 16,-72"/>
<text text-anchor="middle" x="43" y="-87.5" font-family="verdana" font-size="10.00">DSP</text>
</g>
<!-- hpsram_local_6 -->
<g id="node16" class="node">
<title>hpsram_local_6</title>
<polygon fill="#d0d0d0" stroke="#d0d0d0" points="170,-72 170,-108 241,-108 241,-72 170,-72"/>
<text text-anchor="middle" x="205.5" y="-93" font-family="verdana" font-size="10.00">HPSRAM</text>
<text text-anchor="middle" x="205.5" y="-82" font-family="verdana" font-size="10.00">Local mem</text>
</g>
<!-- dsp_6&#45;&gt;hpsram_local_6 -->
<g id="edge11" class="edge">
<title>dsp_6&#45;&gt;hpsram_local_6</title>
<path fill="none" stroke="black" d="M70.2,-90C70.2,-90 159.96,-90 159.96,-90"/>
<polygon fill="black" stroke="black" points="159.96,-93.5 169.96,-90 159.96,-86.5 159.96,-93.5"/>
<text text-anchor="middle" x="120" y="-93" font-family="verdana" font-size="10.00">@ 9E00 0000</text>
</g>
<!-- dsp_7 -->
<g id="node7" class="node">
<title>dsp_7</title>
<polygon fill="#f0f0f0" stroke="#f0f0f0" points="16,-237 16,-273 70,-273 70,-237 16,-237"/>
<text text-anchor="middle" x="43" y="-252.5" font-family="verdana" font-size="10.00">DSP</text>
</g>
<!-- l1_7 -->
<g id="node12" class="node">
<title>l1_7</title>
<polygon fill="#e0e0e0" stroke="#e0e0e0" points="178.5,-237 178.5,-273 232.5,-273 232.5,-237 178.5,-237"/>
<text text-anchor="middle" x="205.5" y="-252.5" font-family="verdana" font-size="10.00">L1</text>
</g>
<!-- dsp_7&#45;&gt;l1_7 -->
<g id="edge12" class="edge">
<title>dsp_7&#45;&gt;l1_7</title>
<path fill="none" stroke="black" d="M70.2,-255C70.2,-255 168.48,-255 168.48,-255"/>
<polygon fill="black" stroke="black" points="168.48,-258.5 178.48,-255 168.48,-251.5 168.48,-258.5"/>
</g>
<!-- dsp_8 -->
<g id="node8" class="node">
<title>dsp_8</title>
<polygon fill="#f0f0f0" stroke="#f0f0f0" points="16,-17 16,-53 70,-53 70,-17 16,-17"/>
<text text-anchor="middle" x="43" y="-32.5" font-family="verdana" font-size="10.00">DSP</text>
</g>
<!-- lpsram_local_8 -->
<g id="node18" class="node">
<title>lpsram_local_8</title>
<polygon fill="#d0d0d0" stroke="#d0d0d0" points="170,-17 170,-53 241,-53 241,-17 170,-17"/>
<text text-anchor="middle" x="205.5" y="-38" font-family="verdana" font-size="10.00">LPSRAM</text>
<text text-anchor="middle" x="205.5" y="-27" font-family="verdana" font-size="10.00">Local mem</text>
</g>
<!-- dsp_8&#45;&gt;lpsram_local_8 -->
<g id="edge14" class="edge">
<title>dsp_8&#45;&gt;lpsram_local_8</title>
<path fill="none" stroke="black" d="M70.2,-35C70.2,-35 159.96,-35 159.96,-35"/>
<polygon fill="black" stroke="black" points="159.96,-38.5 169.96,-35 159.96,-31.5 159.96,-38.5"/>
<text text-anchor="middle" x="120" y="-38" font-family="verdana" font-size="10.00">@9E80 0000</text>
</g>
<!-- hpsram_l2_1 -->
<g id="node13" class="node">
<title>hpsram_l2_1</title>
<polygon fill="#d0d0d0" stroke="#d0d0d0" points="342,-398 342,-434 415,-434 415,-398 342,-398"/>
<text text-anchor="middle" x="378.5" y="-413.5" font-family="verdana" font-size="10.00">HPSRAM L2</text>
</g>
<!-- l1_1&#45;&gt;hpsram_l2_1 -->
<g id="edge2" class="edge">
<title>l1_1&#45;&gt;hpsram_l2_1</title>
<path fill="none" stroke="black" d="M232.53,-418C232.53,-418 331.71,-418 331.71,-418"/>
<polygon fill="black" stroke="black" points="331.71,-421.5 341.71,-418 331.71,-414.5 331.71,-421.5"/>
</g>
<!-- imr_2 -->
<g id="node20" class="node">
<title>imr_2</title>
<polygon fill="#c0c0c0" stroke="#c0c0c0" points="516,-286 516,-322 570,-322 570,-286 516,-286"/>
<text text-anchor="middle" x="543" y="-301.5" font-family="verdana" font-size="10.00">IMR</text>
</g>
<!-- l1_2&#45;&gt;imr_2 -->
<g id="edge5" class="edge">
<title>l1_2&#45;&gt;imr_2</title>
<path fill="none" stroke="black" d="M232.96,-362C296.64,-362 449,-362 449,-362 449,-362 449,-307 449,-307 449,-307 505.81,-307 505.81,-307"/>
<polygon fill="black" stroke="black" points="505.81,-310.5 515.81,-307 505.81,-303.5 505.81,-310.5"/>
<text text-anchor="middle" x="378.5" y="-368" font-family="verdana" font-size="10.00">@ B000 0000</text>
</g>
<!-- hpsram_local_5 -->
<g id="node15" class="node">
<title>hpsram_local_5</title>
<polygon fill="#d0d0d0" stroke="#d0d0d0" points="343,-292 343,-328 414,-328 414,-292 343,-292"/>
<text text-anchor="middle" x="378.5" y="-313" font-family="verdana" font-size="10.00">HPSRAM</text>
<text text-anchor="middle" x="378.5" y="-302" font-family="verdana" font-size="10.00">Local mem</text>
</g>
<!-- l1_5&#45;&gt;hpsram_local_5 -->
<g id="edge10" class="edge">
<title>l1_5&#45;&gt;hpsram_local_5</title>
<path fill="none" stroke="black" d="M232.53,-310C232.53,-310 332.97,-310 332.97,-310"/>
<polygon fill="black" stroke="black" points="332.97,-313.5 342.97,-310 332.97,-306.5 332.97,-313.5"/>
<text text-anchor="middle" x="291.5" y="-313" font-family="verdana" font-size="10.00">@ BE00 0000</text>
</g>
<!-- lpsram_local_7 -->
<g id="node17" class="node">
<title>lpsram_local_7</title>
<polygon fill="#d0d0d0" stroke="#d0d0d0" points="343,-237 343,-273 414,-273 414,-237 343,-237"/>
<text text-anchor="middle" x="378.5" y="-258" font-family="verdana" font-size="10.00">LPSRAM</text>
<text text-anchor="middle" x="378.5" y="-247" font-family="verdana" font-size="10.00">Local mem</text>
</g>
<!-- l1_7&#45;&gt;lpsram_local_7 -->
<g id="edge13" class="edge">
<title>l1_7&#45;&gt;lpsram_local_7</title>
<path fill="none" stroke="black" d="M232.53,-255C232.53,-255 332.97,-255 332.97,-255"/>
<polygon fill="black" stroke="black" points="332.97,-258.5 342.97,-255 332.97,-251.5 332.97,-258.5"/>
<text text-anchor="middle" x="291.5" y="-258" font-family="verdana" font-size="10.00">@BE80 0000</text>
</g>
<!-- imr_1 -->
<g id="node19" class="node">
<title>imr_1</title>
<polygon fill="#c0c0c0" stroke="#c0c0c0" points="516,-341 516,-377 570,-377 570,-341 516,-341"/>
<text text-anchor="middle" x="543" y="-356.5" font-family="verdana" font-size="10.00">IMR</text>
</g>
<!-- hpsram_l2_1&#45;&gt;imr_1 -->
<g id="edge3" class="edge">
<title>hpsram_l2_1&#45;&gt;imr_1</title>
<path fill="none" stroke="black" d="M415.01,-416C463.47,-416 543,-416 543,-416 543,-416 543,-387.04 543,-387.04"/>
<polygon fill="black" stroke="black" points="546.5,-387.04 543,-377.04 539.5,-387.04 546.5,-387.04"/>
<text text-anchor="middle" x="465.5" y="-408" font-family="verdana" font-size="10.00">@ A000 0000</text>
</g>
<!-- imr_3 -->
<g id="node22" class="node">
<title>imr_3</title>
<polygon fill="#c0c0c0" stroke="#c0c0c0" points="516,-231 516,-267 570,-267 570,-231 516,-231"/>
<text text-anchor="middle" x="543" y="-246.5" font-family="verdana" font-size="10.00">IMR</text>
</g>
<!-- hpsram_l2_3&#45;&gt;imr_3 -->
<g id="edge7" class="edge">
<title>hpsram_l2_3&#45;&gt;imr_3</title>
<path fill="none" stroke="black" d="M415.05,-197C445.18,-197 483,-197 483,-197 483,-197 483,-252 483,-252 483,-252 505.81,-252 505.81,-252"/>
<polygon fill="black" stroke="black" points="505.81,-255.5 515.81,-252 505.81,-248.5 505.81,-255.5"/>
<text text-anchor="middle" x="465.5" y="-205" font-family="verdana" font-size="10.00">@ 8000 0000</text>
</g>
</g>
</svg>
