<?xml version="1.0" encoding="UTF-8" standalone="no"?>
<!DOCTYPE svg PUBLIC "-//W3C//DTD SVG 1.1//EN"
 "http://www.w3.org/Graphics/SVG/1.1/DTD/svg11.dtd">
<!-- Generated by graphviz version 2.50.0 (20211204.2007)
 -->
<!-- Title: G Pages: 1 -->
<svg width="250pt" height="214pt"
 viewBox="0.00 0.00 250.00 214.00" xmlns="http://www.w3.org/2000/svg" xmlns:xlink="http://www.w3.org/1999/xlink">
<g id="graph0" class="graph" transform="scale(1 1) rotate(0) translate(4 210)">
<title>G</title>
<polygon fill="white" stroke="transparent" points="-4,4 -4,-210 246,-210 246,4 -4,4"/>
<!-- dsp -->
<g id="node1" class="node">
<title>dsp</title>
<polygon fill="none" stroke="black" points="10,-76.5 10,-112.5 64,-112.5 64,-76.5 10,-76.5"/>
<text text-anchor="middle" x="37" y="-92" font-family="verdana" font-size="10.00">DSP</text>
</g>
<!-- mem_alias -->
<g id="node3" class="node">
<title>mem_alias</title>
<polygon fill="none" stroke="black" points="174,-169.5 174,-205.5 242,-205.5 242,-169.5 174,-169.5"/>
<text text-anchor="middle" x="208" y="-190.5" font-family="verdana" font-size="10.00">Alias</text>
<text text-anchor="middle" x="208" y="-179.5" font-family="verdana" font-size="10.00">8000 0000</text>
</g>
<!-- dsp&#45;&gt;mem_alias -->
<g id="edge1" class="edge">
<title>dsp&#45;&gt;mem_alias:a</title>
<path fill="none" stroke="black" d="M64.19,-108.83C91.32,-123.67 134.12,-147.08 165.98,-164.51"/>
<polygon fill="black" stroke="black" points="164.62,-167.76 175.07,-169.49 167.98,-161.62 164.62,-167.76"/>
<text text-anchor="middle" x="124" y="-171.5" font-family="verdana" font-size="10.00">L1 uncached</text>
</g>
<!-- mem -->
<g id="node4" class="node">
<title>mem</title>
<polygon fill="none" stroke="black" points="174,-0.5 174,-150.5 242,-150.5 242,-0.5 174,-0.5"/>
<text text-anchor="middle" x="208" y="-138.5" font-family="verdana" font-size="10.00">IMR</text>
<text text-anchor="middle" x="208" y="-127.5" font-family="verdana" font-size="10.00">B000 0000</text>
<polyline fill="none" stroke="black" points="174,-120.5 242,-120.5 "/>
<text text-anchor="middle" x="208" y="-108.5" font-family="verdana" font-size="10.00">HPSRAM</text>
<text text-anchor="middle" x="208" y="-97.5" font-family="verdana" font-size="10.00">BE00 0000</text>
<polyline fill="none" stroke="black" points="174,-90.5 242,-90.5 "/>
<text text-anchor="middle" x="208" y="-78.5" font-family="verdana" font-size="10.00">LPSRAM</text>
<text text-anchor="middle" x="208" y="-67.5" font-family="verdana" font-size="10.00">BE80 0000</text>
<polyline fill="none" stroke="black" points="174,-60.5 242,-60.5 "/>
<text text-anchor="middle" x="208" y="-48.5" font-family="verdana" font-size="10.00">L1DSRAM</text>
<text text-anchor="middle" x="208" y="-37.5" font-family="verdana" font-size="10.00">9F10 000</text>
<polyline fill="none" stroke="black" points="174,-30.5 242,-30.5 "/>
<text text-anchor="middle" x="208" y="-18.5" font-family="verdana" font-size="10.00">L1ISRAM</text>
<text text-anchor="middle" x="208" y="-7.5" font-family="verdana" font-size="10.00">9F18 0000</text>
</g>
<!-- dsp&#45;&gt;mem -->
<g id="edge2" class="edge">
<title>dsp&#45;&gt;mem:imr</title>
<path fill="none" stroke="black" d="M64.22,-102.41C94.79,-111.62 143.74,-126.38 164.36,-132.59"/>
<polygon fill="black" stroke="black" points="163.42,-135.96 174,-135.5 165.44,-129.26 163.42,-135.96"/>
<text text-anchor="middle" x="124" y="-135.5" font-family="verdana" font-size="10.00">L1 cached</text>
</g>
<!-- dsp&#45;&gt;mem -->
<g id="edge3" class="edge">
<title>dsp&#45;&gt;mem:hpsram</title>
<path fill="none" stroke="black" d="M64.22,-96.62C94.48,-99.07 142.76,-102.97 163.72,-104.67"/>
<polygon fill="black" stroke="black" points="163.75,-108.18 174,-105.5 164.31,-101.21 163.75,-108.18"/>
<text text-anchor="middle" x="124" y="-106.5" font-family="verdana" font-size="10.00">L1 cached</text>
</g>
<!-- dsp&#45;&gt;mem -->
<g id="edge4" class="edge">
<title>dsp&#45;&gt;mem:lpsram</title>
<path fill="none" stroke="black" d="M64.22,-90.84C94.63,-86.59 143.25,-79.8 164.04,-76.89"/>
<polygon fill="black" stroke="black" points="164.58,-80.35 174,-75.5 163.61,-73.42 164.58,-80.35"/>
<text text-anchor="middle" x="124" y="-86.5" font-family="verdana" font-size="10.00">L1 cached</text>
</g>
<!-- dsp&#45;&gt;mem -->
<g id="edge5" class="edge">
<title>dsp&#45;&gt;mem:l1dsram</title>
<path fill="none" stroke="black" d="M64.22,-85.05C94.79,-74.04 143.74,-56.4 164.36,-48.97"/>
<polygon fill="black" stroke="black" points="165.78,-52.18 174,-45.5 163.41,-45.6 165.78,-52.18"/>
<text text-anchor="middle" x="124" y="-64.5" font-family="verdana" font-size="10.00">L1 local</text>
</g>
<!-- dsp&#45;&gt;mem -->
<g id="edge6" class="edge">
<title>dsp&#45;&gt;mem:l1isram</title>
<path fill="none" stroke="black" d="M64.22,-79.27C95.25,-61.24 145.23,-32.21 165.27,-20.57"/>
<polygon fill="black" stroke="black" points="167.11,-23.55 174,-15.5 163.59,-17.5 167.11,-23.55"/>
<text text-anchor="middle" x="124" y="-36.5" font-family="verdana" font-size="10.00">L1 local</text>
</g>
<!-- mem_rom -->
<g id="node2" class="node">
<title>mem_rom</title>
<polygon fill="none" stroke="black" points="0,-132 0,-173 74,-173 74,-132 0,-132"/>
<text text-anchor="middle" x="37" y="-161" font-family="verdana" font-size="10.00">ROM</text>
<text text-anchor="middle" x="37" y="-150" font-family="verdana" font-size="10.00">9F18 00000</text>
<text text-anchor="middle" x="37" y="-139" font-family="verdana" font-size="10.00">(512KB)</text>
</g>
</g>
</svg>
