<?xml version="1.0" encoding="UTF-8" standalone="no"?>
<!DOCTYPE svg PUBLIC "-//W3C//DTD SVG 1.1//EN"
 "http://www.w3.org/Graphics/SVG/1.1/DTD/svg11.dtd">
<!-- Generated by graphviz version 2.38.0 (20140413.2041)
 -->
<!-- Title: build_proc_traces Pages: 1 -->
<svg width="686pt" height="109pt"
 viewBox="0.00 0.00 686.00 108.50" xmlns="http://www.w3.org/2000/svg" xmlns:xlink="http://www.w3.org/1999/xlink">
<g id="graph0" class="graph" transform="scale(1 1) rotate(0) translate(4 104.5)">
<title>build_proc_traces</title>
<polygon fill="white" stroke="none" points="-4,4 -4,-104.5 682,-104.5 682,4 -4,4"/>
<!-- ri -->
<g id="node1" class="node"><title>ri</title>
<polygon fill="none" stroke="black" points="2,-55.5 2,-91.5 61,-91.5 61,-55.5 2,-55.5"/>
<text text-anchor="middle" x="31.5" y="-69.8" font-family="verdana" font-size="14.00">sof&#45; .ri</text>
</g>
<!-- dsp -->
<g id="node3" class="node"><title>dsp</title>
<polygon fill="#92d050" stroke="#92d050" points="100,-53.5 100,-91.5 165,-91.5 165,-53.5 100,-53.5"/>
<text text-anchor="middle" x="132.5" y="-76.3" font-family="verdana" font-size="14.00">FW</text>
<text text-anchor="middle" x="132.5" y="-61.3" font-family="verdana" font-size="14.00">@ DSP</text>
</g>
<!-- ri&#45;&gt;dsp -->
<g id="edge1" class="edge"><title>ri&#45;&gt;dsp</title>
<path fill="none" stroke="black" d="M61.1349,-73.2108C70.0257,-73.121 80.0156,-73.02 89.6142,-72.9231"/>
<polygon fill="black" stroke="black" points="89.8415,-76.4211 99.8056,-72.8201 89.7708,-69.4214 89.8415,-76.4211"/>
</g>
<!-- lcd_file -->
<g id="node2" class="node"><title>lcd_file</title>
<polygon fill="none" stroke="black" points="0,-0.5 0,-36.5 63,-36.5 63,-0.5 0,-0.5"/>
<text text-anchor="middle" x="31.5" y="-14.8" font-family="verdana" font-size="14.00">lcd_file</text>
</g>
<!-- logger -->
<g id="node6" class="node"><title>logger</title>
<polygon fill="none" stroke="black" points="479,-18.5 479,-54.5 538,-54.5 538,-18.5 479,-18.5"/>
<text text-anchor="middle" x="508.5" y="-32.8" font-family="verdana" font-size="14.00">logger</text>
</g>
<!-- lcd_file&#45;&gt;logger -->
<g id="edge5" class="edge"><title>lcd_file&#45;&gt;logger</title>
<path fill="none" stroke="black" stroke-dasharray="1,5" d="M63.2698,-18.5C82.8122,-18.5 108.641,-18.5 131.5,-18.5 131.5,-18.5 131.5,-18.5 412.5,-18.5 431.128,-18.5 451.457,-21.8822 468.512,-25.7143"/>
<polygon fill="black" stroke="black" points="468.124,-29.22 478.663,-28.1323 469.746,-22.4105 468.124,-29.22"/>
</g>
<!-- drv -->
<g id="node4" class="node"><title>drv</title>
<polygon fill="#92d050" stroke="#92d050" points="279,-48.5 279,-86.5 344,-86.5 344,-48.5 279,-48.5"/>
<text text-anchor="middle" x="311.5" y="-71.3" font-family="verdana" font-size="14.00">Driver</text>
<text text-anchor="middle" x="311.5" y="-56.3" font-family="verdana" font-size="14.00">@ host</text>
</g>
<!-- dsp&#45;&gt;drv -->
<g id="edge2" class="edge"><title>dsp&#45;&gt;drv</title>
<path fill="none" stroke="black" stroke-dasharray="5,2" d="M165.144,-71.6061C194,-70.791 236.841,-69.5808 268.544,-68.6852"/>
<polygon fill="black" stroke="black" points="268.935,-72.1756 278.832,-68.3946 268.737,-65.1784 268.935,-72.1756"/>
<text text-anchor="middle" x="222" y="-89.3" font-family="verdana" font-size="14.00">&lt;&lt;dma&gt;&gt;</text>
<text text-anchor="middle" x="222" y="-74.3" font-family="verdana" font-size="14.00">traces...</text>
</g>
<!-- log -->
<g id="node5" class="node"><title>log</title>
<polygon fill="none" stroke="black" points="381,-47.5 381,-83.5 442,-83.5 442,-47.5 381,-47.5"/>
<text text-anchor="middle" x="411.5" y="-61.8" font-family="verdana" font-size="14.00">/sys/...</text>
</g>
<!-- drv&#45;&gt;log -->
<g id="edge3" class="edge"><title>drv&#45;&gt;log</title>
<path fill="none" stroke="black" stroke-dasharray="5,2" d="M344.047,-66.8562C352.493,-66.6838 361.734,-66.4952 370.568,-66.3149"/>
<polygon fill="black" stroke="black" points="370.752,-69.812 380.679,-66.1086 370.61,-62.8135 370.752,-69.812"/>
</g>
<!-- log&#45;&gt;logger -->
<g id="edge4" class="edge"><title>log&#45;&gt;logger</title>
<path fill="none" stroke="black" stroke-dasharray="5,2" d="M442.038,-56.4832C450.678,-53.8457 460.248,-50.9244 469.342,-48.1483"/>
<polygon fill="black" stroke="black" points="470.414,-51.4804 478.957,-45.2132 468.37,-44.7854 470.414,-51.4804"/>
</g>
<!-- tty -->
<g id="node7" class="node"><title>tty</title>
<polygon fill="none" stroke="black" points="624,-18.5 624,-54.5 678,-54.5 678,-18.5 624,-18.5"/>
<text text-anchor="middle" x="651" y="-32.8" font-family="verdana" font-size="14.00">tty</text>
</g>
<!-- logger&#45;&gt;tty -->
<g id="edge6" class="edge"><title>logger&#45;&gt;tty</title>
<path fill="none" stroke="black" d="M538.271,-36.5C559.993,-36.5 589.958,-36.5 613.388,-36.5"/>
<polygon fill="black" stroke="black" points="613.64,-40.0001 623.64,-36.5 613.64,-33.0001 613.64,-40.0001"/>
<text text-anchor="middle" x="581" y="-70.3" font-family="verdana" font-size="14.00">pretty</text>
<text text-anchor="middle" x="581" y="-55.3" font-family="verdana" font-size="14.00">printed</text>
<text text-anchor="middle" x="581" y="-40.3" font-family="verdana" font-size="14.00">traces</text>
</g>
</g>
</svg>
