<?xml version="1.0" encoding="UTF-8" standalone="no"?>
<!DOCTYPE svg PUBLIC "-//W3C//DTD SVG 1.1//EN"
 "http://www.w3.org/Graphics/SVG/1.1/DTD/svg11.dtd">
<!-- Generated by graphviz version 2.50.0 (20211204.2007)
 -->
<!-- Title: G Pages: 1 -->
<svg width="595pt" height="463pt"
 viewBox="0.00 0.00 595.00 463.00" xmlns="http://www.w3.org/2000/svg" xmlns:xlink="http://www.w3.org/1999/xlink">
<g id="graph0" class="graph" transform="scale(1 1) rotate(0) translate(4 459)">
<title>G</title>
<polygon fill="white" stroke="transparent" points="-4,4 -4,-459 591,-459 591,4 -4,4"/>
<g id="clust1" class="cluster">
<title>clusterDsp</title>
<polygon fill="none" stroke="grey" points="8,-8 8,-447 78,-447 78,-8 8,-8"/>
</g>
<g id="clust3" class="cluster">
<title>clusterImr</title>
<polygon fill="none" stroke="grey" points="509,-167 509,-386 579,-386 579,-167 509,-167"/>
</g>
<g id="clust2" class="cluster">
<title>clusterL1</title>
<polygon fill="none" stroke="grey" points="171,-228 171,-447 241,-447 241,-228 171,-228"/>
</g>
<!-- dsp_1 -->
<g id="node1" class="node">
<title>dsp_1</title>
<polygon fill="#f0f0f0" stroke="#f0f0f0" points="16,-402 16,-438 70,-438 70,-402 16,-402"/>
<text text-anchor="middle" x="43" y="-417.5" font-family="verdana" font-size="10.00">DSP</text>
</g>
<!-- l1_1 -->
<g id="node9" class="node">
<title>l1_1</title>
<polygon fill="#e0e0e0" stroke="#e0e0e0" points="179,-402 179,-438 233,-438 233,-402 179,-402"/>
<text text-anchor="middle" x="206" y="-417.5" font-family="verdana" font-size="10.00">L1</text>
</g>
<!-- dsp_1&#45;&gt;l1_1 -->
<g id="edge1" class="edge">
<title>dsp_1&#45;&gt;l1_1</title>
<path fill="none" stroke="black" d="M70.28,-420C70.28,-420 168.9,-420 168.9,-420"/>
<polygon fill="black" stroke="black" points="168.9,-423.5 178.9,-420 168.9,-416.5 168.9,-423.5"/>
</g>
<!-- dsp_2 -->
<g id="node2" class="node">
<title>dsp_2</title>
<polygon fill="#f0f0f0" stroke="#f0f0f0" points="16,-347 16,-383 70,-383 70,-347 16,-347"/>
<text text-anchor="middle" x="43" y="-362.5" font-family="verdana" font-size="10.00">DSP</text>
</g>
<!-- l1_2 -->
<g id="node10" class="node">
<title>l1_2</title>
<polygon fill="#e0e0e0" stroke="#e0e0e0" points="179,-347 179,-383 233,-383 233,-347 179,-347"/>
<text text-anchor="middle" x="206" y="-362.5" font-family="verdana" font-size="10.00">L1</text>
</g>
<!-- dsp_2&#45;&gt;l1_2 -->
<g id="edge4" class="edge">
<title>dsp_2&#45;&gt;l1_2</title>
<path fill="none" stroke="black" d="M70.28,-365C70.28,-365 168.9,-365 168.9,-365"/>
<polygon fill="black" stroke="black" points="168.9,-368.5 178.9,-365 168.9,-361.5 168.9,-368.5"/>
</g>
<!-- dsp_3 -->
<g id="node3" class="node">
<title>dsp_3</title>
<polygon fill="#f0f0f0" stroke="#f0f0f0" points="16,-182 16,-218 70,-218 70,-182 16,-182"/>
<text text-anchor="middle" x="43" y="-197.5" font-family="verdana" font-size="10.00">DSP</text>
</g>
<!-- hpsram_l2_3 -->
<g id="node14" class="node">
<title>hpsram_l2_3</title>
<polygon fill="#d0d0d0" stroke="#d0d0d0" points="342,-182 342,-218 414,-218 414,-182 342,-182"/>
<text text-anchor="middle" x="378" y="-197.5" font-family="verdana" font-size="10.00">HPSRAM L2</text>
</g>
<!-- dsp_3&#45;&gt;hpsram_l2_3 -->
<g id="edge6" class="edge">
<title>dsp_3&#45;&gt;hpsram_l2_3</title>
<path fill="none" stroke="black" d="M70.13,-200C70.13,-200 331.9,-200 331.9,-200"/>
<polygon fill="black" stroke="black" points="331.9,-203.5 341.9,-200 331.9,-196.5 331.9,-203.5"/>
</g>
<!-- dsp_4 -->
<g id="node4" class="node">
<title>dsp_4</title>
<polygon fill="#f0f0f0" stroke="#f0f0f0" points="16,-127 16,-163 70,-163 70,-127 16,-127"/>
<text text-anchor="middle" x="43" y="-142.5" font-family="verdana" font-size="10.00">DSP</text>
</g>
<!-- imr_4 -->
<g id="node21" class="node">
<title>imr_4</title>
<polygon fill="#c0c0c0" stroke="#c0c0c0" points="517,-176 517,-212 571,-212 571,-176 517,-176"/>
<text text-anchor="middle" x="544" y="-191.5" font-family="verdana" font-size="10.00">IMR</text>
</g>
<!-- dsp_4&#45;&gt;imr_4 -->
<g id="edge8" class="edge">
<title>dsp_4&#45;&gt;imr_4</title>
<path fill="none" stroke="black" d="M70.29,-145C174.84,-145 544,-145 544,-145 544,-145 544,-165.75 544,-165.75"/>
<polygon fill="black" stroke="black" points="540.5,-165.75 544,-175.75 547.5,-165.75 540.5,-165.75"/>
<text text-anchor="middle" x="291" y="-152" font-family="verdana" font-size="10.00">@ 9000 0000</text>
</g>
<!-- dsp_5 -->
<g id="node5" class="node">
<title>dsp_5</title>
<polygon fill="#f0f0f0" stroke="#f0f0f0" points="16,-292 16,-328 70,-328 70,-292 16,-292"/>
<text text-anchor="middle" x="43" y="-307.5" font-family="verdana" font-size="10.00">DSP</text>
</g>
<!-- l1_5 -->
<g id="node11" class="node">
<title>l1_5</title>
<polygon fill="#e0e0e0" stroke="#e0e0e0" points="179,-292 179,-328 233,-328 233,-292 179,-292"/>
<text text-anchor="middle" x="206" y="-307.5" font-family="verdana" font-size="10.00">L1</text>
</g>
<!-- dsp_5&#45;&gt;l1_5 -->
<g id="edge9" class="edge">
<title>dsp_5&#45;&gt;l1_5</title>
<path fill="none" stroke="black" d="M70.28,-310C70.28,-310 168.9,-310 168.9,-310"/>
<polygon fill="black" stroke="black" points="168.9,-313.5 178.9,-310 168.9,-306.5 168.9,-313.5"/>
</g>
<!-- dsp_6 -->
<g id="node6" class="node">
<title>dsp_6</title>
<polygon fill="#f0f0f0" stroke="#f0f0f0" points="16,-72 16,-108 70,-108 70,-72 16,-72"/>
<text text-anchor="middle" x="43" y="-87.5" font-family="verdana" font-size="10.00">DSP</text>
</g>
<!-- hpsram_local_6 -->
<g id="node16" class="node">
<title>hpsram_local_6</title>
<polygon fill="#d0d0d0" stroke="#d0d0d0" points="172,-72 172,-108 240,-108 240,-72 172,-72"/>
<text text-anchor="middle" x="206" y="-93" font-family="verdana" font-size="10.00">HPSRAM</text>
<text text-anchor="middle" x="206" y="-82" font-family="verdana" font-size="10.00">Local mem</text>
</g>
<!-- dsp_6&#45;&gt;hpsram_local_6 -->
<g id="edge11" class="edge">
<title>dsp_6&#45;&gt;hpsram_local_6</title>
<path fill="none" stroke="black" d="M70.28,-90C70.28,-90 161.83,-90 161.83,-90"/>
<polygon fill="black" stroke="black" points="161.83,-93.5 171.83,-90 161.83,-86.5 161.83,-93.5"/>
<text text-anchor="middle" x="121" y="-93" font-family="verdana" font-size="10.00">@ 9E00 0000</text>
</g>
<!-- dsp_7 -->
<g id="node7" class="node">
<title>dsp_7</title>
<polygon fill="#f0f0f0" stroke="#f0f0f0" points="16,-237 16,-273 70,-273 70,-237 16,-237"/>
<text text-anchor="middle" x="43" y="-252.5" font-family="verdana" font-size="10.00">DSP</text>
</g>
<!-- l1_7 -->
<g id="node12" class="node">
<title>l1_7</title>
<polygon fill="#e0e0e0" stroke="#e0e0e0" points="179,-237 179,-273 233,-273 233,-237 179,-237"/>
<text text-anchor="middle" x="206" y="-252.5" font-family="verdana" font-size="10.00">L1</text>
</g>
<!-- dsp_7&#45;&gt;l1_7 -->
<g id="edge12" class="edge">
<title>dsp_7&#45;&gt;l1_7</title>
<path fill="none" stroke="black" d="M70.28,-255C70.28,-255 168.9,-255 168.9,-255"/>
<polygon fill="black" stroke="black" points="168.9,-258.5 178.9,-255 168.9,-251.5 168.9,-258.5"/>
</g>
<!-- dsp_8 -->
<g id="node8" class="node">
<title>dsp_8</title>
<polygon fill="#f0f0f0" stroke="#f0f0f0" points="16,-17 16,-53 70,-53 70,-17 16,-17"/>
<text text-anchor="middle" x="43" y="-32.5" font-family="verdana" font-size="10.00">DSP</text>
</g>
<!-- lpsram_local_8 -->
<g id="node18" class="node">
<title>lpsram_local_8</title>
<polygon fill="#d0d0d0" stroke="#d0d0d0" points="172,-17 172,-53 240,-53 240,-17 172,-17"/>
<text text-anchor="middle" x="206" y="-38" font-family="verdana" font-size="10.00">LPSRAM</text>
<text text-anchor="middle" x="206" y="-27" font-family="verdana" font-size="10.00">Local mem</text>
</g>
<!-- dsp_8&#45;&gt;lpsram_local_8 -->
<g id="edge14" class="edge">
<title>dsp_8&#45;&gt;lpsram_local_8</title>
<path fill="none" stroke="black" d="M70.28,-35C70.28,-35 161.83,-35 161.83,-35"/>
<polygon fill="black" stroke="black" points="161.83,-38.5 171.83,-35 161.83,-31.5 161.83,-38.5"/>
<text text-anchor="middle" x="121" y="-38" font-family="verdana" font-size="10.00">@9E80 0000</text>
</g>
<!-- hpsram_l2_1 -->
<g id="node13" class="node">
<title>hpsram_l2_1</title>
<polygon fill="#d0d0d0" stroke="#d0d0d0" points="342,-398 342,-434 414,-434 414,-398 342,-398"/>
<text text-anchor="middle" x="378" y="-413.5" font-family="verdana" font-size="10.00">HPSRAM L2</text>
</g>
<!-- l1_1&#45;&gt;hpsram_l2_1 -->
<g id="edge2" class="edge">
<title>l1_1&#45;&gt;hpsram_l2_1</title>
<path fill="none" stroke="black" d="M233.25,-418C233.25,-418 331.9,-418 331.9,-418"/>
<polygon fill="black" stroke="black" points="331.9,-421.5 341.9,-418 331.9,-414.5 331.9,-421.5"/>
</g>
<!-- imr_2 -->
<g id="node20" class="node">
<title>imr_2</title>
<polygon fill="#c0c0c0" stroke="#c0c0c0" points="517,-286 517,-322 571,-322 571,-286 517,-286"/>
<text text-anchor="middle" x="544" y="-301.5" font-family="verdana" font-size="10.00">IMR</text>
</g>
<!-- l1_2&#45;&gt;imr_2 -->
<g id="edge5" class="edge">
<title>l1_2&#45;&gt;imr_2</title>
<path fill="none" stroke="black" d="M233.4,-362C296.95,-362 449,-362 449,-362 449,-362 449,-307 449,-307 449,-307 506.78,-307 506.78,-307"/>
<polygon fill="black" stroke="black" points="506.78,-310.5 516.78,-307 506.78,-303.5 506.78,-310.5"/>
<text text-anchor="middle" x="378" y="-368" font-family="verdana" font-size="10.00">@ B000 0000</text>
</g>
<!-- hpsram_local_5 -->
<g id="node15" class="node">
<title>hpsram_local_5</title>
<polygon fill="#d0d0d0" stroke="#d0d0d0" points="344,-292 344,-328 412,-328 412,-292 344,-292"/>
<text text-anchor="middle" x="378" y="-313" font-family="verdana" font-size="10.00">HPSRAM</text>
<text text-anchor="middle" x="378" y="-302" font-family="verdana" font-size="10.00">Local mem</text>
</g>
<!-- l1_5&#45;&gt;hpsram_local_5 -->
<g id="edge10" class="edge">
<title>l1_5&#45;&gt;hpsram_local_5</title>
<path fill="none" stroke="black" d="M233.25,-310C233.25,-310 333.76,-310 333.76,-310"/>
<polygon fill="black" stroke="black" points="333.76,-313.5 343.76,-310 333.76,-306.5 333.76,-313.5"/>
<text text-anchor="middle" x="291" y="-313" font-family="verdana" font-size="10.00">@ BE00 0000</text>
</g>
<!-- lpsram_local_7 -->
<g id="node17" class="node">
<title>lpsram_local_7</title>
<polygon fill="#d0d0d0" stroke="#d0d0d0" points="344,-237 344,-273 412,-273 412,-237 344,-237"/>
<text text-anchor="middle" x="378" y="-258" font-family="verdana" font-size="10.00">LPSRAM</text>
<text text-anchor="middle" x="378" y="-247" font-family="verdana" font-size="10.00">Local mem</text>
</g>
<!-- l1_7&#45;&gt;lpsram_local_7 -->
<g id="edge13" class="edge">
<title>l1_7&#45;&gt;lpsram_local_7</title>
<path fill="none" stroke="black" d="M233.25,-255C233.25,-255 333.76,-255 333.76,-255"/>
<polygon fill="black" stroke="black" points="333.76,-258.5 343.76,-255 333.76,-251.5 333.76,-258.5"/>
<text text-anchor="middle" x="291" y="-258" font-family="verdana" font-size="10.00">@BE80 0000</text>
</g>
<!-- imr_1 -->
<g id="node19" class="node">
<title>imr_1</title>
<polygon fill="#c0c0c0" stroke="#c0c0c0" points="517,-341 517,-377 571,-377 571,-341 517,-341"/>
<text text-anchor="middle" x="544" y="-356.5" font-family="verdana" font-size="10.00">IMR</text>
</g>
<!-- hpsram_l2_1&#45;&gt;imr_1 -->
<g id="edge3" class="edge">
<title>hpsram_l2_1&#45;&gt;imr_1</title>
<path fill="none" stroke="black" d="M414.02,-416C462.84,-416 544,-416 544,-416 544,-416 544,-387.04 544,-387.04"/>
<polygon fill="black" stroke="black" points="547.5,-387.04 544,-377.04 540.5,-387.04 547.5,-387.04"/>
<text text-anchor="middle" x="465.5" y="-408" font-family="verdana" font-size="10.00">@ A000 0000</text>
</g>
<!-- imr_3 -->
<g id="node22" class="node">
<title>imr_3</title>
<polygon fill="#c0c0c0" stroke="#c0c0c0" points="517,-231 517,-267 571,-267 571,-231 517,-231"/>
<text text-anchor="middle" x="544" y="-246.5" font-family="verdana" font-size="10.00">IMR</text>
</g>
<!-- hpsram_l2_3&#45;&gt;imr_3 -->
<g id="edge7" class="edge">
<title>hpsram_l2_3&#45;&gt;imr_3</title>
<path fill="none" stroke="black" d="M414.14,-197C444.51,-197 483,-197 483,-197 483,-197 483,-252 483,-252 483,-252 506.71,-252 506.71,-252"/>
<polygon fill="black" stroke="black" points="506.71,-255.5 516.71,-252 506.71,-248.5 506.71,-255.5"/>
<text text-anchor="middle" x="465.5" y="-205" font-family="verdana" font-size="10.00">@ 8000 0000</text>
</g>
</g>
</svg>
