<?xml version="1.0" encoding="UTF-8" standalone="no"?>
<!DOCTYPE svg PUBLIC "-//W3C//DTD SVG 1.1//EN"
 "http://www.w3.org/Graphics/SVG/1.1/DTD/svg11.dtd">
<!-- Generated by graphviz version 2.50.0 (20211204.2007)
 -->
<!-- Title: build_proc_traces Pages: 1 -->
<svg width="708pt" height="110pt"
 viewBox="0.00 0.00 708.00 109.50" xmlns="http://www.w3.org/2000/svg" xmlns:xlink="http://www.w3.org/1999/xlink">
<g id="graph0" class="graph" transform="scale(1 1) rotate(0) translate(4 105.5)">
<title>build_proc_traces</title>
<polygon fill="white" stroke="transparent" points="-4,4 -4,-105.5 704,-105.5 704,4 -4,4"/>
<!-- ri -->
<g id="node1" class="node">
<title>ri</title>
<polygon fill="none" stroke="black" points="1.5,-55.5 1.5,-91.5 67.5,-91.5 67.5,-55.5 1.5,-55.5"/>
<text text-anchor="middle" x="34.5" y="-69.8" font-family="verdana" font-size="14.00">sof&#45; .ri</text>
</g>
<!-- dsp -->
<g id="node3" class="node">
<title>dsp</title>
<polygon fill="#92d050" stroke="#92d050" points="106,-53.5 106,-91.5 171,-91.5 171,-53.5 106,-53.5"/>
<text text-anchor="middle" x="138.5" y="-76.3" font-family="verdana" font-size="14.00">FW</text>
<text text-anchor="middle" x="138.5" y="-61.3" font-family="verdana" font-size="14.00">@ DSP</text>
</g>
<!-- ri&#45;&gt;dsp -->
<g id="edge1" class="edge">
<title>ri&#45;&gt;dsp</title>
<path fill="none" stroke="black" d="M67.77,-73.18C76.59,-73.1 86.28,-73 95.56,-72.91"/>
<polygon fill="black" stroke="black" points="95.82,-76.41 105.79,-72.81 95.75,-69.41 95.82,-76.41"/>
</g>
<!-- lcd_file -->
<g id="node2" class="node">
<title>lcd_file</title>
<polygon fill="none" stroke="black" points="0,-0.5 0,-36.5 69,-36.5 69,-0.5 0,-0.5"/>
<text text-anchor="middle" x="34.5" y="-14.8" font-family="verdana" font-size="14.00">lcd_file</text>
</g>
<!-- logger -->
<g id="node6" class="node">
<title>logger</title>
<polygon fill="none" stroke="black" points="496,-12.5 496,-48.5 558,-48.5 558,-12.5 496,-12.5"/>
<text text-anchor="middle" x="527" y="-26.8" font-family="verdana" font-size="14.00">logger</text>
</g>
<!-- lcd_file&#45;&gt;logger -->
<g id="edge5" class="edge">
<title>lcd_file&#45;&gt;logger</title>
<path fill="none" stroke="black" stroke-dasharray="1,5" d="M69.04,-18.5C88.93,-18.5 114.66,-18.5 137.5,-18.5 137.5,-18.5 137.5,-18.5 425.5,-18.5 445.42,-18.5 467.41,-20.85 485.73,-23.48"/>
<polygon fill="black" stroke="black" points="485.36,-26.96 495.77,-24.99 486.4,-20.04 485.36,-26.96"/>
</g>
<!-- drv -->
<g id="node4" class="node">
<title>drv</title>
<polygon fill="#92d050" stroke="#92d050" points="286,-51.5 286,-89.5 353,-89.5 353,-51.5 286,-51.5"/>
<text text-anchor="middle" x="319.5" y="-74.3" font-family="verdana" font-size="14.00">Driver</text>
<text text-anchor="middle" x="319.5" y="-59.3" font-family="verdana" font-size="14.00">@ host</text>
</g>
<!-- dsp&#45;&gt;drv -->
<g id="edge2" class="edge">
<title>dsp&#45;&gt;drv</title>
<path fill="none" stroke="black" stroke-dasharray="5,2" d="M171.09,-72.15C200.16,-71.82 243.52,-71.34 275.69,-70.98"/>
<polygon fill="black" stroke="black" points="275.75,-74.48 285.71,-70.87 275.67,-67.48 275.75,-74.48"/>
<text text-anchor="middle" x="228.5" y="-90.3" font-family="verdana" font-size="14.00">&lt;&lt;dma&gt;&gt;</text>
<text text-anchor="middle" x="228.5" y="-75.3" font-family="verdana" font-size="14.00">traces...</text>
</g>
<!-- log -->
<g id="node5" class="node">
<title>log</title>
<polygon fill="none" stroke="black" points="390,-51.5 390,-87.5 459,-87.5 459,-51.5 390,-51.5"/>
<text text-anchor="middle" x="424.5" y="-65.8" font-family="verdana" font-size="14.00">/sys/...</text>
</g>
<!-- drv&#45;&gt;log -->
<g id="edge3" class="edge">
<title>drv&#45;&gt;log</title>
<path fill="none" stroke="black" stroke-dasharray="5,2" d="M353.09,-70.18C361.48,-70.1 370.64,-70.01 379.5,-69.93"/>
<polygon fill="black" stroke="black" points="379.74,-73.43 389.7,-69.83 379.67,-66.43 379.74,-73.43"/>
</g>
<!-- log&#45;&gt;logger -->
<g id="edge4" class="edge">
<title>log&#45;&gt;logger</title>
<path fill="none" stroke="black" stroke-dasharray="5,2" d="M459.24,-56.41C467.96,-53.02 477.41,-49.36 486.39,-45.87"/>
<polygon fill="black" stroke="black" points="487.83,-49.07 495.89,-42.18 485.3,-42.54 487.83,-49.07"/>
</g>
<!-- tty -->
<g id="node7" class="node">
<title>tty</title>
<polygon fill="none" stroke="black" points="646,-12.5 646,-48.5 700,-48.5 700,-12.5 646,-12.5"/>
<text text-anchor="middle" x="673" y="-26.8" font-family="verdana" font-size="14.00">tty</text>
</g>
<!-- logger&#45;&gt;tty -->
<g id="edge6" class="edge">
<title>logger&#45;&gt;tty</title>
<path fill="none" stroke="black" d="M558.19,-30.5C580.75,-30.5 611.68,-30.5 635.61,-30.5"/>
<polygon fill="black" stroke="black" points="635.72,-34 645.72,-30.5 635.72,-27 635.72,-34"/>
<text text-anchor="middle" x="602" y="-64.3" font-family="verdana" font-size="14.00">pretty</text>
<text text-anchor="middle" x="602" y="-49.3" font-family="verdana" font-size="14.00">printed</text>
<text text-anchor="middle" x="602" y="-34.3" font-family="verdana" font-size="14.00">traces</text>
</g>
</g>
</svg>
