<?xml version="1.0" encoding="UTF-8" standalone="no"?>
<!DOCTYPE svg PUBLIC "-//W3C//DTD SVG 1.1//EN"
 "http://www.w3.org/Graphics/SVG/1.1/DTD/svg11.dtd">
<!-- Generated by graphviz version 2.38.0 (20140413.2041)
 -->
<!-- Title: system_zone Pages: 1 -->
<svg width="175pt" height="288pt"
 viewBox="0.00 0.00 175.22 288.00" xmlns="http://www.w3.org/2000/svg" xmlns:xlink="http://www.w3.org/1999/xlink">
<g id="graph0" class="graph" transform="scale(0.637168 0.637168) rotate(0) translate(4 448)">
<title>system_zone</title>
<polygon fill="white" stroke="none" points="-4,4 -4,-448 271,-448 271,4 -4,4"/>
<g id="clust1" class="cluster"><title>cluster_sys_0</title>
<polygon fill="none" stroke="black" points="143,-8 143,-252 259,-252 259,-8 143,-8"/>
<text text-anchor="middle" x="201" y="-236.8" font-family="verdana" font-size="14.00">SYS HEAP #0</text>
</g>
<g id="clust2" class="cluster"><title>cluster_sys_1</title>
<polygon fill="none" stroke="black" points="143,-260 143,-401 259,-401 259,-260 143,-260"/>
<text text-anchor="middle" x="201" y="-385.8" font-family="verdana" font-size="14.00">SYS HEAP #1</text>
</g>
<g id="clust3" class="cluster"><title>cluster_core_0</title>
<polygon fill="#f0f0f0" stroke="#f0f0f0" points="8,-83 8,-270 123,-270 123,-83 8,-83"/>
<text text-anchor="middle" x="65.5" y="-254.8" font-family="verdana" font-size="14.00">core #0</text>
</g>
<g id="clust4" class="cluster"><title>cluster_core_1</title>
<polygon fill="#f0f0f0" stroke="#f0f0f0" points="8,-304 8,-436 123,-436 123,-304 8,-304"/>
<text text-anchor="middle" x="65.5" y="-420.8" font-family="verdana" font-size="14.00">core #1</text>
</g>
<!-- s0 -->
<g id="node1" class="node"><title>s0</title>
<polygon fill="none" stroke="black" points="151,-16 151,-220 251,-220 251,-16 151,-16"/>
<text text-anchor="middle" x="201" y="-204.8" font-family="verdana" font-size="14.00">block</text>
<polyline fill="none" stroke="black" points="151,-165 251,-165 "/>
<text text-anchor="middle" x="201" y="-149.8" font-family="verdana" font-size="14.00">block</text>
<polyline fill="none" stroke="black" points="151,-142 251,-142 "/>
<text text-anchor="middle" x="201" y="-126.8" font-family="verdana" font-size="14.00">block</text>
<polyline fill="none" stroke="black" points="151,-103 251,-103 "/>
<text text-anchor="middle" x="201" y="-87.8" font-family="verdana" font-size="14.00">free space...</text>
</g>
<!-- s1 -->
<g id="node2" class="node"><title>s1</title>
<polygon fill="none" stroke="black" points="151,-268.5 151,-369.5 251,-369.5 251,-268.5 151,-268.5"/>
<text text-anchor="middle" x="201" y="-354.3" font-family="verdana" font-size="14.00">block</text>
<polyline fill="none" stroke="black" points="151,-346.5 251,-346.5 "/>
<text text-anchor="middle" x="201" y="-331.3" font-family="verdana" font-size="14.00">block</text>
<polyline fill="none" stroke="black" points="151,-307.5 251,-307.5 "/>
<text text-anchor="middle" x="201" y="-292.3" font-family="verdana" font-size="14.00">free space...</text>
</g>
<!-- ipc -->
<g id="node3" class="node"><title>ipc</title>
<polygon fill="none" stroke="black" points="38.5,-202 38.5,-238 92.5,-238 92.5,-202 38.5,-202"/>
<text text-anchor="middle" x="65.5" y="-216.3" font-family="verdana" font-size="14.00">ipc</text>
</g>
<!-- ipc&#45;&gt;s0 -->
<g id="edge1" class="edge"><title>ipc&#45;&gt;s0:b0:nw</title>
<path fill="none" stroke="black" d="M92.7683,-228.659C108.152,-232.224 127.323,-233.928 141.725,-226.142"/>
<polygon fill="black" stroke="black" points="144.057,-228.771 150,-220 139.884,-223.15 144.057,-228.771"/>
</g>
<!-- scheduler_0 -->
<g id="node4" class="node"><title>scheduler_0</title>
<polygon fill="none" stroke="black" points="16,-147 16,-183 115,-183 115,-147 16,-147"/>
<text text-anchor="middle" x="65.5" y="-161.3" font-family="verdana" font-size="14.00">scheduler_0</text>
</g>
<!-- scheduler_0&#45;&gt;s0 -->
<g id="edge2" class="edge"><title>scheduler_0&#45;&gt;s0:b1:nw</title>
<path fill="none" stroke="black" d="M115.094,-176.647C124.475,-176.833 133.835,-175.416 141.751,-171.129"/>
<polygon fill="black" stroke="black" points="144.06,-173.773 150,-165 139.886,-168.154 144.06,-173.773"/>
</g>
<!-- work_0 -->
<g id="node5" class="node"><title>work_0</title>
<polygon fill="none" stroke="black" points="31.5,-92 31.5,-128 99.5,-128 99.5,-92 31.5,-92"/>
<text text-anchor="middle" x="65.5" y="-106.3" font-family="verdana" font-size="14.00">work_0</text>
</g>
<!-- work_0&#45;&gt;s0 -->
<g id="edge3" class="edge"><title>work_0&#45;&gt;s0:b2:nw</title>
<path fill="none" stroke="black" d="M99.5689,-125.914C113.929,-132.458 129.749,-139.111 139.892,-141.709"/>
<polygon fill="black" stroke="black" points="139.903,-145.211 150,-142 140.105,-138.214 139.903,-145.211"/>
</g>
<!-- scheduler_1 -->
<g id="node6" class="node"><title>scheduler_1</title>
<polygon fill="none" stroke="black" points="16,-368 16,-404 115,-404 115,-368 16,-368"/>
<text text-anchor="middle" x="65.5" y="-382.3" font-family="verdana" font-size="14.00">scheduler_1</text>
</g>
<!-- scheduler_1&#45;&gt;s1 -->
<g id="edge4" class="edge"><title>scheduler_1&#45;&gt;s1:b0:nw</title>
<path fill="none" stroke="black" d="M115.317,-386.239C124.689,-384.555 134.047,-381.54 141.995,-376.419"/>
<polygon fill="black" stroke="black" points="144.388,-378.987 150,-370 140.009,-373.526 144.388,-378.987"/>
</g>
<!-- work_1 -->
<g id="node7" class="node"><title>work_1</title>
<polygon fill="none" stroke="black" points="31.5,-313 31.5,-349 99.5,-349 99.5,-313 31.5,-313"/>
<text text-anchor="middle" x="65.5" y="-327.3" font-family="verdana" font-size="14.00">work_1</text>
</g>
<!-- work_1&#45;&gt;s1 -->
<g id="edge5" class="edge"><title>work_1&#45;&gt;s1:b1:nw</title>
<path fill="none" stroke="black" d="M98.2304,-349.02C112.478,-354.983 128.93,-358.742 141.764,-352.776"/>
<polygon fill="black" stroke="black" points="143.823,-355.608 150,-347 139.803,-349.877 143.823,-355.608"/>
</g>
</g>
</svg>
