<?xml version="1.0" encoding="UTF-8" standalone="no"?>
<!DOCTYPE svg PUBLIC "-//W3C//DTD SVG 1.1//EN"
 "http://www.w3.org/Graphics/SVG/1.1/DTD/svg11.dtd">
<!-- Generated by graphviz version 2.50.0 (20211204.2007)
 -->
<!-- Title: G Pages: 1 -->
<svg width="250pt" height="154pt"
 viewBox="0.00 0.00 250.00 154.00" xmlns="http://www.w3.org/2000/svg" xmlns:xlink="http://www.w3.org/1999/xlink">
<g id="graph0" class="graph" transform="scale(1 1) rotate(0) translate(4 150)">
<title>G</title>
<polygon fill="white" stroke="transparent" points="-4,4 -4,-150 246,-150 246,4 -4,4"/>
<!-- dsp -->
<g id="node1" class="node">
<title>dsp</title>
<polygon fill="none" stroke="black" points="10,-46.5 10,-82.5 64,-82.5 64,-46.5 10,-46.5"/>
<text text-anchor="middle" x="37" y="-62" font-family="verdana" font-size="10.00">DSP</text>
</g>
<!-- mem_alias -->
<g id="node3" class="node">
<title>mem_alias</title>
<polygon fill="none" stroke="black" points="174,-109.5 174,-145.5 242,-145.5 242,-109.5 174,-109.5"/>
<text text-anchor="middle" x="208" y="-130.5" font-family="verdana" font-size="10.00">Alias</text>
<text text-anchor="middle" x="208" y="-119.5" font-family="verdana" font-size="10.00">8000 0000</text>
</g>
<!-- dsp&#45;&gt;mem_alias -->
<g id="edge1" class="edge">
<title>dsp&#45;&gt;mem_alias:a</title>
<path fill="none" stroke="black" d="M64.19,-74.21C90.86,-84.09 132.69,-99.59 164.37,-111.33"/>
<polygon fill="black" stroke="black" points="163.26,-114.65 173.85,-114.84 165.69,-108.09 163.26,-114.65"/>
<text text-anchor="middle" x="124" y="-111.5" font-family="verdana" font-size="10.00">L1 uncached</text>
</g>
<!-- mem -->
<g id="node4" class="node">
<title>mem</title>
<polygon fill="none" stroke="black" points="174,-0.5 174,-90.5 242,-90.5 242,-0.5 174,-0.5"/>
<text text-anchor="middle" x="208" y="-78.5" font-family="verdana" font-size="10.00">IMR</text>
<text text-anchor="middle" x="208" y="-67.5" font-family="verdana" font-size="10.00">B000 0000</text>
<polyline fill="none" stroke="black" points="174,-60.5 242,-60.5 "/>
<text text-anchor="middle" x="208" y="-48.5" font-family="verdana" font-size="10.00">HPSRAM</text>
<text text-anchor="middle" x="208" y="-37.5" font-family="verdana" font-size="10.00">BE00 0000</text>
<polyline fill="none" stroke="black" points="174,-30.5 242,-30.5 "/>
<text text-anchor="middle" x="208" y="-18.5" font-family="verdana" font-size="10.00">LPSRAM</text>
<text text-anchor="middle" x="208" y="-7.5" font-family="verdana" font-size="10.00">BE80 0000</text>
</g>
<!-- dsp&#45;&gt;mem -->
<g id="edge2" class="edge">
<title>dsp&#45;&gt;mem:imr</title>
<path fill="none" stroke="black" d="M64.22,-66.62C94.48,-69.07 142.76,-72.97 163.72,-74.67"/>
<polygon fill="black" stroke="black" points="163.75,-78.18 174,-75.5 164.31,-71.21 163.75,-78.18"/>
<text text-anchor="middle" x="124" y="-76.5" font-family="verdana" font-size="10.00">L1 cached</text>
</g>
<!-- dsp&#45;&gt;mem -->
<g id="edge3" class="edge">
<title>dsp&#45;&gt;mem:hpsram</title>
<path fill="none" stroke="black" d="M64.22,-60.84C94.63,-56.59 143.25,-49.8 164.04,-46.89"/>
<polygon fill="black" stroke="black" points="164.58,-50.35 174,-45.5 163.61,-43.42 164.58,-50.35"/>
<text text-anchor="middle" x="124" y="-56.5" font-family="verdana" font-size="10.00">L1 cached</text>
</g>
<!-- dsp&#45;&gt;mem -->
<g id="edge4" class="edge">
<title>dsp&#45;&gt;mem:lpsram</title>
<path fill="none" stroke="black" d="M64.22,-55.05C94.79,-44.04 143.74,-26.4 164.36,-18.97"/>
<polygon fill="black" stroke="black" points="165.78,-22.18 174,-15.5 163.41,-15.6 165.78,-22.18"/>
<text text-anchor="middle" x="124" y="-34.5" font-family="verdana" font-size="10.00">L1 cached</text>
</g>
<!-- mem_rom -->
<g id="node2" class="node">
<title>mem_rom</title>
<polygon fill="none" stroke="black" points="0,-102 0,-143 74,-143 74,-102 0,-102"/>
<text text-anchor="middle" x="37" y="-131" font-family="verdana" font-size="10.00">ROM</text>
<text text-anchor="middle" x="37" y="-120" font-family="verdana" font-size="10.00">BEFE 00000</text>
<text text-anchor="middle" x="37" y="-109" font-family="verdana" font-size="10.00">(128K)</text>
</g>
</g>
</svg>
