<?xml version="1.0" encoding="UTF-8" standalone="no"?>
<!DOCTYPE svg PUBLIC "-//W3C//DTD SVG 1.1//EN"
 "http://www.w3.org/Graphics/SVG/1.1/DTD/svg11.dtd">
<!-- Generated by graphviz version 2.50.0 (20211204.2007)
 -->
<!-- Title: memory_zones Pages: 1 -->
<svg width="317pt" height="113pt"
 viewBox="0.00 0.00 317.00 113.27" xmlns="http://www.w3.org/2000/svg" xmlns:xlink="http://www.w3.org/1999/xlink">
<g id="graph0" class="graph" transform="scale(1 1) rotate(0) translate(4 109.27)">
<title>memory_zones</title>
<polygon fill="white" stroke="transparent" points="-4,4 -4,-109.27 313,-109.27 313,4 -4,4"/>
<!-- clients -->
<g id="node1" class="node">
<title>clients</title>
<polygon fill="none" stroke="black" points="0,-24.77 0,-93.77 103,-93.77 103,-24.77 0,-24.77"/>
<text text-anchor="middle" x="51.5" y="-78.57" font-family="verdana" font-size="14.00">applications</text>
<polyline fill="none" stroke="black" points="0,-70.77 103,-70.77 "/>
<text text-anchor="middle" x="51.5" y="-55.57" font-family="verdana" font-size="14.00">kernel</text>
<polyline fill="none" stroke="black" points="0,-47.77 103,-47.77 "/>
<text text-anchor="middle" x="51.5" y="-32.57" font-family="verdana" font-size="14.00">drivers</text>
</g>
<!-- zones -->
<g id="node2" class="node">
<title>zones</title>
<polygon fill="none" stroke="black" points="139,-35.77 139,-104.77 309,-104.77 309,-35.77 139,-35.77"/>
<text text-anchor="middle" x="224" y="-89.57" font-family="verdana" font-size="14.00">runtime zone</text>
<polyline fill="none" stroke="black" points="139,-81.77 309,-81.77 "/>
<text text-anchor="middle" x="224" y="-66.57" font-family="verdana" font-size="14.00">buffer zone</text>
<polyline fill="none" stroke="black" points="139,-58.77 309,-58.77 "/>
<text text-anchor="middle" x="192" y="-43.57" font-family="verdana" font-size="14.00">system zone</text>
<polyline fill="none" stroke="black" points="245,-35.77 245,-58.77 "/>
<text text-anchor="middle" x="277" y="-43.57" font-family="verdana" font-size="14.00">sys rt?</text>
</g>
<!-- clients&#45;&gt;zones -->
<g id="edge1" class="edge">
<title>clients:apps&#45;&gt;zones:rt</title>
<path fill="none" stroke="black" d="M103,-82.27C115.68,-82.27 120.21,-88.58 128.94,-91.64"/>
<polygon fill="black" stroke="black" points="128.57,-95.13 139,-93.27 129.69,-88.22 128.57,-95.13"/>
</g>
<!-- clients&#45;&gt;zones -->
<g id="edge2" class="edge">
<title>clients:apps&#45;&gt;zones:buf</title>
<path fill="none" stroke="black" d="M103,-82.27C115.78,-82.27 120.18,-75.37 128.9,-72.04"/>
<polygon fill="black" stroke="black" points="129.75,-75.44 139,-70.27 128.55,-68.55 129.75,-75.44"/>
</g>
<!-- clients&#45;&gt;zones -->
<g id="edge3" class="edge">
<title>clients:kernel&#45;&gt;zones:sys</title>
<path fill="none" stroke="black" d="M103.16,-49.81C111.51,-48.75 120.21,-47.91 128.73,-47.52"/>
<polygon fill="black" stroke="black" points="129.09,-51.01 139,-47.27 128.92,-44.01 129.09,-51.01"/>
</g>
<!-- clients&#45;&gt;zones -->
<g id="edge4" class="edge">
<title>clients:drv&#45;&gt;zones:sys_rt</title>
<path fill="none" stroke="black" stroke-dasharray="1,5" d="M103,-36.27C176.56,-36.27 267.61,35.51 276.32,-24.03"/>
<polygon fill="black" stroke="black" points="272.85,-24.52 277,-34.27 279.83,-24.06 272.85,-24.52"/>
</g>
</g>
</svg>
