<?xml version="1.0" encoding="UTF-8" standalone="no"?>
<!DOCTYPE svg PUBLIC "-//W3C//DTD SVG 1.1//EN"
 "http://www.w3.org/Graphics/SVG/1.1/DTD/svg11.dtd">
<!-- Generated by graphviz version 14.1.2 (0)
 -->
<!-- Title: tone_system_overview Pages: 1 -->
<svg width="2279pt" height="178pt"
 viewBox="0.00 0.00 2279.00 178.00" xmlns="http://www.w3.org/2000/svg" xmlns:xlink="http://www.w3.org/1999/xlink">
<g id="graph0" class="graph" transform="scale(1 1) rotate(0) translate(4 174)">
<title>tone_system_overview</title>
<g id="clust1" class="cluster">
<title>cluster_control</title>
<path fill="#f7fafc" stroke="#cbd5e0" d="M20,-18C20,-18 349.2,-18 349.2,-18 355.2,-18 361.2,-24 361.2,-30 361.2,-30 361.2,-118 361.2,-118 361.2,-124 355.2,-130 349.2,-130 349.2,-130 20,-130 20,-130 14,-130 8,-124 8,-118 8,-118 8,-30 8,-30 8,-24 14,-18 20,-18"/>
<text xml:space="preserve" text-anchor="middle" x="184.6" y="-112.7" font-family="verdana" font-size="14.00">Host &amp; Topology Controls</text>
</g>
<g id="clust2" class="cluster">
<title>cluster_tone_core</title>
<path fill="#ffffff" stroke="#bee3f8" d="M440.7,-8C440.7,-8 1797.15,-8 1797.15,-8 1803.15,-8 1809.15,-14 1809.15,-20 1809.15,-20 1809.15,-150 1809.15,-150 1809.15,-156 1803.15,-162 1797.15,-162 1797.15,-162 440.7,-162 440.7,-162 434.7,-162 428.7,-156 428.7,-150 428.7,-150 428.7,-20 428.7,-20 428.7,-14 434.7,-8 440.7,-8"/>
<text xml:space="preserve" text-anchor="middle" x="1118.93" y="-144.7" font-family="verdana" font-size="14.00">Tone Component Core (src/audio/tone/)</text>
</g>
<g id="clust3" class="cluster">
<title>cluster_synthesis</title>
<path fill="#f0fff4" stroke="#c6f6d5" d="M1052,-16C1052,-16 1548.3,-16 1548.3,-16 1554.3,-16 1560.3,-22 1560.3,-28 1560.3,-28 1560.3,-102 1560.3,-102 1560.3,-108 1554.3,-114 1548.3,-114 1548.3,-114 1052,-114 1052,-114 1046,-114 1040,-108 1040,-102 1040,-102 1040,-28 1040,-28 1040,-22 1046,-16 1052,-16"/>
<text xml:space="preserve" text-anchor="middle" x="1300.15" y="-96.7" font-family="verdana" font-size="14.00">Synthesis Engine (tonegen)</text>
</g>
<g id="clust4" class="cluster">
<title>cluster_envelope</title>
<path fill="#fffff0" stroke="#fefcbf" d="M448.7,-25C448.7,-25 972,-25 972,-25 978,-25 984,-31 984,-37 984,-37 984,-111 984,-111 984,-117 978,-123 972,-123 972,-123 448.7,-123 448.7,-123 442.7,-123 436.7,-117 436.7,-111 436.7,-111 436.7,-37 436.7,-37 436.7,-31 442.7,-25 448.7,-25"/>
<text xml:space="preserve" text-anchor="middle" x="710.35" y="-105.7" font-family="verdana" font-size="14.00">Temporal Control (tonegen_control)</text>
</g>
<g id="clust5" class="cluster">
<title>cluster_output</title>
<path fill="#f7fafc" stroke="#e9d8fd" d="M1902.65,-16C1902.65,-16 2251.35,-16 2251.35,-16 2257.35,-16 2263.35,-22 2263.35,-28 2263.35,-28 2263.35,-102 2263.35,-102 2263.35,-108 2257.35,-114 2251.35,-114 2251.35,-114 1902.65,-114 1902.65,-114 1896.65,-114 1890.65,-108 1890.65,-102 1890.65,-102 1890.65,-28 1890.65,-28 1890.65,-22 1896.65,-16 1902.65,-16"/>
<text xml:space="preserve" text-anchor="middle" x="2077" y="-96.7" font-family="verdana" font-size="14.00">Pipeline Destinations</text>
</g>
<!-- ipc_ctrl -->
<g id="node1" class="node">
<title>ipc_ctrl</title>
<path fill="#e2e8f0" stroke="#4a5568" stroke-width="1.5" d="M341.2,-94.26C341.2,-94.26 223.6,-94.26 223.6,-94.26 217.6,-94.26 211.6,-88.26 211.6,-82.26 211.6,-82.26 211.6,-37.74 211.6,-37.74 211.6,-31.74 217.6,-25.74 223.6,-25.74 223.6,-25.74 341.2,-25.74 341.2,-25.74 347.2,-25.74 353.2,-31.74 353.2,-37.74 353.2,-37.74 353.2,-82.26 353.2,-82.26 353.2,-88.26 347.2,-94.26 341.2,-94.26"/>
<text xml:space="preserve" text-anchor="middle" x="282.4" y="-79" font-family="verdana" font-size="10.00">IPC3 Control / IPC4 Config</text>
<text xml:space="preserve" text-anchor="middle" x="282.4" y="-64.75" font-family="verdana" font-size="10.00">Frequency (Q16.16)</text>
<text xml:space="preserve" text-anchor="middle" x="282.4" y="-50.5" font-family="verdana" font-size="10.00">Amplitude (Q1.31)</text>
<text xml:space="preserve" text-anchor="middle" x="282.4" y="-36.25" font-family="verdana" font-size="10.00">Ramp Step / Repeats</text>
</g>
<!-- blk_quant -->
<g id="node6" class="node">
<title>blk_quant</title>
<path fill="#fefcbf" stroke="#b7791f" stroke-width="1.4" d="M541.3,-87.13C541.3,-87.13 456.7,-87.13 456.7,-87.13 450.7,-87.13 444.7,-81.13 444.7,-75.13 444.7,-75.13 444.7,-44.87 444.7,-44.87 444.7,-38.87 450.7,-32.87 456.7,-32.87 456.7,-32.87 541.3,-32.87 541.3,-32.87 547.3,-32.87 553.3,-38.87 553.3,-44.87 553.3,-44.87 553.3,-75.13 553.3,-75.13 553.3,-81.13 547.3,-87.13 541.3,-87.13"/>
<text xml:space="preserve" text-anchor="middle" x="499" y="-71.88" font-family="verdana" font-size="10.00">125 us Time Blocks</text>
<text xml:space="preserve" text-anchor="middle" x="499" y="-57.62" font-family="verdana" font-size="10.00">samples_in_block</text>
<text xml:space="preserve" text-anchor="middle" x="499" y="-43.38" font-family="verdana" font-size="10.00">Cadence Tracker</text>
</g>
<!-- ipc_ctrl&#45;&gt;blk_quant -->
<g id="edge5" class="edge">
<title>ipc_ctrl&#45;&gt;blk_quant</title>
<path fill="none" stroke="#4a5568" d="M353.67,-60C379.22,-60 407.95,-60 433.02,-60"/>
<polygon fill="#4a5568" stroke="#4a5568" points="432.74,-63.5 442.74,-60 432.74,-56.5 432.74,-63.5"/>
<text xml:space="preserve" text-anchor="middle" x="395.95" y="-64.2" font-family="verdana" font-size="9.00">Parameters</text>
</g>
<!-- alsa_kctrl -->
<g id="node2" class="node">
<title>alsa_kctrl</title>
<path fill="#edf2f7" stroke="#4a5568" stroke-width="1.2" d="M134.35,-87.13C134.35,-87.13 28,-87.13 28,-87.13 22,-87.13 16,-81.13 16,-75.13 16,-75.13 16,-44.87 16,-44.87 16,-38.87 22,-32.87 28,-32.87 28,-32.87 134.35,-32.87 134.35,-32.87 140.35,-32.87 146.35,-38.87 146.35,-44.87 146.35,-44.87 146.35,-75.13 146.35,-75.13 146.35,-81.13 140.35,-87.13 134.35,-87.13"/>
<text xml:space="preserve" text-anchor="middle" x="81.18" y="-71.88" font-family="verdana" font-size="10.00">ALSA Mixer Controls</text>
<text xml:space="preserve" text-anchor="middle" x="81.18" y="-57.62" font-family="verdana" font-size="10.00">Enum &amp; Value Kcontrols</text>
<text xml:space="preserve" text-anchor="middle" x="81.18" y="-43.38" font-family="verdana" font-size="10.00">Interactive Tuning</text>
</g>
<!-- alsa_kctrl&#45;&gt;ipc_ctrl -->
<g id="edge6" class="edge">
<title>alsa_kctrl&#45;&gt;ipc_ctrl</title>
<path fill="none" stroke="#4a5568" d="M146.86,-60C163.73,-60 182.13,-60 199.75,-60"/>
<polygon fill="#4a5568" stroke="#4a5568" points="199.68,-63.5 209.68,-60 199.68,-56.5 199.68,-63.5"/>
<text xml:space="preserve" text-anchor="middle" x="178.98" y="-64.2" font-family="verdana" font-size="9.00">amixer</text>
</g>
<!-- phase_acc -->
<g id="node3" class="node">
<title>phase_acc</title>
<path fill="#9ae6b4" stroke="#22543d" stroke-width="1.8" d="M1146.1,-78.13C1146.1,-78.13 1060,-78.13 1060,-78.13 1054,-78.13 1048,-72.13 1048,-66.13 1048,-66.13 1048,-35.87 1048,-35.87 1048,-29.87 1054,-23.87 1060,-23.87 1060,-23.87 1146.1,-23.87 1146.1,-23.87 1152.1,-23.87 1158.1,-29.87 1158.1,-35.87 1158.1,-35.87 1158.1,-66.13 1158.1,-66.13 1158.1,-72.13 1152.1,-78.13 1146.1,-78.13"/>
<text xml:space="preserve" text-anchor="middle" x="1103.05" y="-62.88" font-family="verdana" font-size="10.00">Phase Accumulator</text>
<text xml:space="preserve" text-anchor="middle" x="1103.05" y="-48.62" font-family="verdana" font-size="10.00">w_step = 2*pi*f/Fs</text>
<text xml:space="preserve" text-anchor="middle" x="1103.05" y="-34.38" font-family="verdana" font-size="10.00">w in Q4.28 Radians</text>
</g>
<!-- cordic_sin -->
<g id="node4" class="node">
<title>cordic_sin</title>
<path fill="#9ae6b4" stroke="#22543d" stroke-width="2" d="M1338.7,-78.13C1338.7,-78.13 1239.1,-78.13 1239.1,-78.13 1233.1,-78.13 1227.1,-72.13 1227.1,-66.13 1227.1,-66.13 1227.1,-35.87 1227.1,-35.87 1227.1,-29.87 1233.1,-23.87 1239.1,-23.87 1239.1,-23.87 1338.7,-23.87 1338.7,-23.87 1344.7,-23.87 1350.7,-29.87 1350.7,-35.87 1350.7,-35.87 1350.7,-66.13 1350.7,-66.13 1350.7,-72.13 1344.7,-78.13 1338.7,-78.13"/>
<text xml:space="preserve" text-anchor="middle" x="1288.9" y="-62.88" font-family="verdana" font-size="10.00">Fixed&#45;Point CORDIC</text>
<text xml:space="preserve" text-anchor="middle" x="1288.9" y="-48.62" font-family="verdana" font-size="10.00">sin_fixed_32b(w)</text>
<text xml:space="preserve" text-anchor="middle" x="1288.9" y="-34.38" font-family="verdana" font-size="10.00">31&#45;Bit Vector Rotation</text>
</g>
<!-- phase_acc&#45;&gt;cordic_sin -->
<g id="edge1" class="edge">
<title>phase_acc&#45;&gt;cordic_sin</title>
<path fill="none" stroke="#22543d" d="M1158.71,-51C1176.33,-51 1196.15,-51 1214.87,-51"/>
<polygon fill="#22543d" stroke="#22543d" points="1214.85,-54.5 1224.85,-51 1214.85,-47.5 1214.85,-54.5"/>
<text xml:space="preserve" text-anchor="middle" x="1192.6" y="-55.2" font-family="verdana" font-size="9.00">Angle w</text>
</g>
<!-- ampl_scale -->
<g id="node5" class="node">
<title>ampl_scale</title>
<path fill="#c6f6d5" stroke="#276749" stroke-width="1.5" d="M1540.3,-78.13C1540.3,-78.13 1423.45,-78.13 1423.45,-78.13 1417.45,-78.13 1411.45,-72.13 1411.45,-66.13 1411.45,-66.13 1411.45,-35.87 1411.45,-35.87 1411.45,-29.87 1417.45,-23.87 1423.45,-23.87 1423.45,-23.87 1540.3,-23.87 1540.3,-23.87 1546.3,-23.87 1552.3,-29.87 1552.3,-35.87 1552.3,-35.87 1552.3,-66.13 1552.3,-66.13 1552.3,-72.13 1546.3,-78.13 1540.3,-78.13"/>
<text xml:space="preserve" text-anchor="middle" x="1481.88" y="-62.88" font-family="verdana" font-size="10.00">Amplitude Scaling</text>
<text xml:space="preserve" text-anchor="middle" x="1481.88" y="-48.62" font-family="verdana" font-size="10.00">q_mults_32x32(sin, a)</text>
<text xml:space="preserve" text-anchor="middle" x="1481.88" y="-34.38" font-family="verdana" font-size="10.00">Q1.31 Normalized Output</text>
</g>
<!-- cordic_sin&#45;&gt;ampl_scale -->
<g id="edge2" class="edge">
<title>cordic_sin&#45;&gt;ampl_scale</title>
<path fill="none" stroke="#22543d" d="M1351.64,-51C1366.81,-51 1383.29,-51 1399.23,-51"/>
<polygon fill="#22543d" stroke="#22543d" points="1399.21,-54.5 1409.21,-51 1399.21,-47.5 1399.21,-54.5"/>
<text xml:space="preserve" text-anchor="middle" x="1381.08" y="-55.2" font-family="verdana" font-size="9.00">sin(w)</text>
</g>
<!-- mode_mux -->
<g id="node9" class="node">
<title>mode_mux</title>
<path fill="#ebf8ff" stroke="#3182ce" stroke-width="2" d="M1789.15,-85.26C1789.15,-85.26 1672.3,-85.26 1672.3,-85.26 1666.3,-85.26 1660.3,-79.26 1660.3,-73.26 1660.3,-73.26 1660.3,-28.74 1660.3,-28.74 1660.3,-22.74 1666.3,-16.74 1672.3,-16.74 1672.3,-16.74 1789.15,-16.74 1789.15,-16.74 1795.15,-16.74 1801.15,-22.74 1801.15,-28.74 1801.15,-28.74 1801.15,-73.26 1801.15,-73.26 1801.15,-79.26 1795.15,-85.26 1789.15,-85.26"/>
<text xml:space="preserve" text-anchor="middle" x="1730.72" y="-70" font-family="verdana" font-size="10.00">Tri&#45;Mode Execution Mux</text>
<text xml:space="preserve" text-anchor="middle" x="1730.72" y="-55.75" font-family="verdana" font-size="10.00">&#45; TONEGEN (Autonomous)</text>
<text xml:space="preserve" text-anchor="middle" x="1730.72" y="-41.5" font-family="verdana" font-size="10.00">&#45; PASSTHROUGH (Bound)</text>
<text xml:space="preserve" text-anchor="middle" x="1730.72" y="-27.25" font-family="verdana" font-size="10.00">&#45; SILENCE (AEC Ref Zero)</text>
</g>
<!-- ampl_scale&#45;&gt;mode_mux -->
<g id="edge9" class="edge">
<title>ampl_scale&#45;&gt;mode_mux</title>
<path fill="none" stroke="#22543d" stroke-width="1.8" d="M1552.95,-51C1582.27,-51 1616.55,-51 1647.09,-51"/>
<polygon fill="#22543d" stroke="#22543d" stroke-width="1.8" points="1646.75,-54.5 1656.75,-51 1646.75,-47.5 1646.75,-54.5"/>
<text xml:space="preserve" text-anchor="middle" x="1606.3" y="-55.2" font-family="verdana" font-size="9.00">Synthesized PCM</text>
</g>
<!-- ramp_eng -->
<g id="node7" class="node">
<title>ramp_eng</title>
<path fill="#feebc8" stroke="#c05621" stroke-width="1.6" d="M745.9,-87.13C745.9,-87.13 647.8,-87.13 647.8,-87.13 641.8,-87.13 635.8,-81.13 635.8,-75.13 635.8,-75.13 635.8,-44.87 635.8,-44.87 635.8,-38.87 641.8,-32.87 647.8,-32.87 647.8,-32.87 745.9,-32.87 745.9,-32.87 751.9,-32.87 757.9,-38.87 757.9,-44.87 757.9,-44.87 757.9,-75.13 757.9,-75.13 757.9,-81.13 751.9,-87.13 745.9,-87.13"/>
<text xml:space="preserve" text-anchor="middle" x="696.85" y="-71.88" font-family="verdana" font-size="10.00">Linear Ramping</text>
<text xml:space="preserve" text-anchor="middle" x="696.85" y="-57.62" font-family="verdana" font-size="10.00">Attack &amp; Decay Ramp</text>
<text xml:space="preserve" text-anchor="middle" x="696.85" y="-43.38" font-family="verdana" font-size="10.00">Anti&#45;Click Phase Reset</text>
</g>
<!-- blk_quant&#45;&gt;ramp_eng -->
<g id="edge3" class="edge">
<title>blk_quant&#45;&gt;ramp_eng</title>
<path fill="none" stroke="#b7791f" d="M553.78,-60C575.48,-60 600.84,-60 624.08,-60"/>
<polygon fill="#b7791f" stroke="#b7791f" points="623.78,-63.5 633.78,-60 623.78,-56.5 623.78,-63.5"/>
<text xml:space="preserve" text-anchor="middle" x="594.55" y="-64.2" font-family="verdana" font-size="9.00">125 us Tick</text>
</g>
<!-- ramp_eng&#45;&gt;ampl_scale -->
<g id="edge7" class="edge">
<title>ramp_eng&#45;&gt;ampl_scale</title>
<path fill="none" stroke="#c05621" stroke-dasharray="5,2" d="M758.59,-83.84C800.84,-98.31 858.86,-114 911.7,-114 911.7,-114 911.7,-114 1289.9,-114 1333.75,-114 1380.54,-98.83 1416.84,-83.39"/>
<polygon fill="#c05621" stroke="#c05621" points="1418.12,-86.64 1425.88,-79.42 1415.31,-80.23 1418.12,-86.64"/>
<text xml:space="preserve" text-anchor="middle" x="1103.05" y="-118.2" font-family="verdana" font-size="9.00">Target a</text>
</g>
<!-- sweep_eng -->
<g id="node8" class="node">
<title>sweep_eng</title>
<path fill="#feebc8" stroke="#c05621" stroke-width="1.6" d="M964,-87.13C964,-87.13 861.4,-87.13 861.4,-87.13 855.4,-87.13 849.4,-81.13 849.4,-75.13 849.4,-75.13 849.4,-44.87 849.4,-44.87 849.4,-38.87 855.4,-32.87 861.4,-32.87 861.4,-32.87 964,-32.87 964,-32.87 970,-32.87 976,-38.87 976,-44.87 976,-44.87 976,-75.13 976,-75.13 976,-81.13 970,-87.13 964,-87.13"/>
<text xml:space="preserve" text-anchor="middle" x="912.7" y="-71.88" font-family="verdana" font-size="10.00">Chirp &amp; Sweep Engine</text>
<text xml:space="preserve" text-anchor="middle" x="912.7" y="-57.62" font-family="verdana" font-size="10.00">Logarithmic Freq Coef</text>
<text xml:space="preserve" text-anchor="middle" x="912.7" y="-43.38" font-family="verdana" font-size="10.00">Logarithmic Ampl Coef</text>
</g>
<!-- ramp_eng&#45;&gt;sweep_eng -->
<g id="edge4" class="edge">
<title>ramp_eng&#45;&gt;sweep_eng</title>
<path fill="none" stroke="#c05621" d="M758.56,-60C783.08,-60 811.63,-60 837.38,-60"/>
<polygon fill="#c05621" stroke="#c05621" points="837.09,-63.5 847.09,-60 837.09,-56.5 837.09,-63.5"/>
<text xml:space="preserve" text-anchor="middle" x="803.65" y="-64.2" font-family="verdana" font-size="9.00">Period Expire</text>
</g>
<!-- sweep_eng&#45;&gt;phase_acc -->
<g id="edge8" class="edge">
<title>sweep_eng&#45;&gt;phase_acc</title>
<path fill="none" stroke="#c05621" stroke-dasharray="5,2" d="M976.68,-56.99C995.72,-56.08 1016.68,-55.08 1035.92,-54.16"/>
<polygon fill="#c05621" stroke="#c05621" points="1036,-57.66 1045.82,-53.69 1035.67,-50.67 1036,-57.66"/>
<text xml:space="preserve" text-anchor="middle" x="1012" y="-60.24" font-family="verdana" font-size="9.00">Update f</text>
</g>
<!-- sink_buf -->
<g id="node10" class="node">
<title>sink_buf</title>
<path fill="#faf5ff" stroke="#6b46c1" stroke-width="1.8" d="M2023.75,-78.13C2023.75,-78.13 1910.65,-78.13 1910.65,-78.13 1904.65,-78.13 1898.65,-72.13 1898.65,-66.13 1898.65,-66.13 1898.65,-35.87 1898.65,-35.87 1898.65,-29.87 1904.65,-23.87 1910.65,-23.87 1910.65,-23.87 2023.75,-23.87 2023.75,-23.87 2029.75,-23.87 2035.75,-29.87 2035.75,-35.87 2035.75,-35.87 2035.75,-66.13 2035.75,-66.13 2035.75,-72.13 2029.75,-78.13 2023.75,-78.13"/>
<text xml:space="preserve" text-anchor="middle" x="1967.2" y="-62.88" font-family="verdana" font-size="10.00">Output Sink Buffer</text>
<text xml:space="preserve" text-anchor="middle" x="1967.2" y="-48.62" font-family="verdana" font-size="10.00">S32_LE Stream Container</text>
<text xml:space="preserve" text-anchor="middle" x="1967.2" y="-34.38" font-family="verdana" font-size="10.00">Multi&#45;Channel (1 to 8 Ch)</text>
</g>
<!-- mode_mux&#45;&gt;sink_buf -->
<g id="edge10" class="edge">
<title>mode_mux&#45;&gt;sink_buf</title>
<path fill="none" stroke="#3182ce" stroke-width="2" d="M1802.08,-51C1828.16,-51 1857.95,-51 1884.93,-51"/>
<polygon fill="#3182ce" stroke="#3182ce" stroke-width="2" points="1884.89,-54.5 1894.89,-51 1884.89,-47.5 1884.89,-54.5"/>
<text xml:space="preserve" text-anchor="middle" x="1849.9" y="-55.2" font-family="verdana" font-size="9.00">Commit Buffer</text>
</g>
<!-- dai_out -->
<g id="node11" class="node">
<title>dai_out</title>
<path fill="#ebf8ff" stroke="#3182ce" stroke-width="1.5" d="M2243.35,-78.13C2243.35,-78.13 2137.75,-78.13 2137.75,-78.13 2131.75,-78.13 2125.75,-72.13 2125.75,-66.13 2125.75,-66.13 2125.75,-35.87 2125.75,-35.87 2125.75,-29.87 2131.75,-23.87 2137.75,-23.87 2137.75,-23.87 2243.35,-23.87 2243.35,-23.87 2249.35,-23.87 2255.35,-29.87 2255.35,-35.87 2255.35,-35.87 2255.35,-66.13 2255.35,-66.13 2255.35,-72.13 2249.35,-78.13 2243.35,-78.13"/>
<text xml:space="preserve" text-anchor="middle" x="2190.55" y="-62.88" font-family="verdana" font-size="10.00">DAI Copier / Endpoint</text>
<text xml:space="preserve" text-anchor="middle" x="2190.55" y="-48.62" font-family="verdana" font-size="10.00">I2S / SoundWire / HDA</text>
<text xml:space="preserve" text-anchor="middle" x="2190.55" y="-34.38" font-family="verdana" font-size="10.00">Factory / Test Loopback</text>
</g>
<!-- sink_buf&#45;&gt;dai_out -->
<g id="edge11" class="edge">
<title>sink_buf&#45;&gt;dai_out</title>
<path fill="none" stroke="#6b46c1" stroke-width="1.8" d="M2036.42,-51C2060.54,-51 2087.83,-51 2112.63,-51"/>
<polygon fill="#6b46c1" stroke="#6b46c1" stroke-width="1.8" points="2112.61,-54.5 2122.61,-51 2112.61,-47.5 2112.61,-54.5"/>
<text xml:space="preserve" text-anchor="middle" x="2080.75" y="-55.2" font-family="verdana" font-size="9.00">DMA Stream</text>
</g>
</g>
</svg>
