<?xml version="1.0" encoding="UTF-8" standalone="no"?>
<!DOCTYPE svg PUBLIC "-//W3C//DTD SVG 1.1//EN"
 "http://www.w3.org/Graphics/SVG/1.1/DTD/svg11.dtd">
<!-- Generated by graphviz version 14.1.2 (0)
 -->
<!-- Title: smart_amp_iv Pages: 1 -->
<svg width="1789pt" height="169pt"
 viewBox="0.00 0.00 1789.00 169.00" xmlns="http://www.w3.org/2000/svg" xmlns:xlink="http://www.w3.org/1999/xlink">
<g id="graph0" class="graph" transform="scale(1 1) rotate(0) translate(4 165)">
<title>smart_amp_iv</title>
<g id="clust1" class="cluster">
<title>cluster_hw</title>
<path fill="#edf2f7" stroke="#4a5568" d="M20,-19C20,-19 719.5,-19 719.5,-19 725.5,-19 731.5,-25 731.5,-31 731.5,-31 731.5,-138 731.5,-138 731.5,-144 725.5,-150 719.5,-150 719.5,-150 20,-150 20,-150 14,-150 8,-144 8,-138 8,-138 8,-31 8,-31 8,-25 14,-19 20,-19"/>
<text xml:space="preserve" text-anchor="middle" x="369.75" y="-135.55" font-family="verdana" font-size="11.00">Hardware Smart Amplifier IC</text>
</g>
<g id="clust2" class="cluster">
<title>cluster_dsp</title>
<path fill="#ebf8ff" stroke="#2b6cb0" d="M830.25,-8C830.25,-8 1760.75,-8 1760.75,-8 1766.75,-8 1772.75,-14 1772.75,-20 1772.75,-20 1772.75,-141 1772.75,-141 1772.75,-147 1766.75,-153 1760.75,-153 1760.75,-153 830.25,-153 830.25,-153 824.25,-153 818.25,-147 818.25,-141 818.25,-141 818.25,-20 818.25,-20 818.25,-14 824.25,-8 830.25,-8"/>
<text xml:space="preserve" text-anchor="middle" x="1295.5" y="-138.55" font-family="verdana" font-size="11.00">Sound Open Firmware (SOF) Smart Amp Engine</text>
</g>
<!-- hw_dac -->
<g id="node1" class="node">
<title>hw_dac</title>
<path fill="#cbd5e0" stroke="#4a5568" stroke-width="1.5" d="M124.25,-90.25C124.25,-90.25 28,-90.25 28,-90.25 22,-90.25 16,-84.25 16,-78.25 16,-78.25 16,-65.75 16,-65.75 16,-59.75 22,-53.75 28,-53.75 28,-53.75 124.25,-53.75 124.25,-53.75 130.25,-53.75 136.25,-59.75 136.25,-65.75 136.25,-65.75 136.25,-78.25 136.25,-78.25 136.25,-84.25 130.25,-90.25 124.25,-90.25"/>
<text xml:space="preserve" text-anchor="middle" x="76.12" y="-76.75" font-family="verdana" font-size="10.00">Class&#45;D Power Amp</text>
<text xml:space="preserve" text-anchor="middle" x="76.12" y="-62.5" font-family="verdana" font-size="10.00">Bridge&#45;Tied Load (BTL)</text>
</g>
<!-- hw_spk -->
<g id="node2" class="node">
<title>hw_spk</title>
<path fill="#feb2b2" stroke="#c53030" stroke-width="1.5" d="M308.25,-90.25C308.25,-90.25 236.75,-90.25 236.75,-90.25 230.75,-90.25 224.75,-84.25 224.75,-78.25 224.75,-78.25 224.75,-65.75 224.75,-65.75 224.75,-59.75 230.75,-53.75 236.75,-53.75 236.75,-53.75 308.25,-53.75 308.25,-53.75 314.25,-53.75 320.25,-59.75 320.25,-65.75 320.25,-65.75 320.25,-78.25 320.25,-78.25 320.25,-84.25 314.25,-90.25 308.25,-90.25"/>
<text xml:space="preserve" text-anchor="middle" x="272.5" y="-76.75" font-family="verdana" font-size="10.00">Micro&#45;Speaker</text>
<text xml:space="preserve" text-anchor="middle" x="272.5" y="-62.5" font-family="verdana" font-size="10.00">Voice Coil &amp; Cone</text>
</g>
<!-- hw_dac&#45;&gt;hw_spk -->
<g id="edge1" class="edge">
<title>hw_dac&#45;&gt;hw_spk</title>
<path fill="none" stroke="black" stroke-width="1.2" d="M136.76,-72C160.82,-72 188.51,-72 212.5,-72"/>
<polygon fill="black" stroke="black" stroke-width="1.2" points="212.49,-75.5 222.49,-72 212.49,-68.5 212.49,-75.5"/>
<text xml:space="preserve" text-anchor="middle" x="180.5" y="-76.2" font-family="verdana" font-size="9.00">Drives audio</text>
</g>
<!-- hw_vsense -->
<g id="node3" class="node">
<title>hw_vsense</title>
<path fill="#bee3f8" stroke="#2b6cb0" stroke-width="1.5" d="M514.75,-63.25C514.75,-63.25 427.5,-63.25 427.5,-63.25 421.5,-63.25 415.5,-57.25 415.5,-51.25 415.5,-51.25 415.5,-38.75 415.5,-38.75 415.5,-32.75 421.5,-26.75 427.5,-26.75 427.5,-26.75 514.75,-26.75 514.75,-26.75 520.75,-26.75 526.75,-32.75 526.75,-38.75 526.75,-38.75 526.75,-51.25 526.75,-51.25 526.75,-57.25 520.75,-63.25 514.75,-63.25"/>
<text xml:space="preserve" text-anchor="middle" x="471.12" y="-49.75" font-family="verdana" font-size="10.00">V&#45;Sense ADC</text>
<text xml:space="preserve" text-anchor="middle" x="471.12" y="-35.5" font-family="verdana" font-size="10.00">Terminal Voltage V(t)</text>
</g>
<!-- hw_spk&#45;&gt;hw_vsense -->
<g id="edge2" class="edge">
<title>hw_spk&#45;&gt;hw_vsense</title>
<path fill="none" stroke="black" stroke-width="1.2" d="M320.83,-63.05C326.69,-62.05 332.6,-61.09 338.25,-60.25 359.31,-57.12 382.35,-54.27 403.19,-51.9"/>
<polygon fill="black" stroke="black" stroke-width="1.2" points="403.49,-55.38 413.04,-50.79 402.71,-48.43 403.49,-55.38"/>
<text xml:space="preserve" text-anchor="middle" x="367.88" y="-64.45" font-family="verdana" font-size="9.00">Terminal tap</text>
</g>
<!-- hw_isense -->
<g id="node4" class="node">
<title>hw_isense</title>
<path fill="#bee3f8" stroke="#2b6cb0" stroke-width="1.5" d="M502.38,-118.25C502.38,-118.25 439.88,-118.25 439.88,-118.25 433.88,-118.25 427.88,-112.25 427.88,-106.25 427.88,-106.25 427.88,-93.75 427.88,-93.75 427.88,-87.75 433.88,-81.75 439.88,-81.75 439.88,-81.75 502.38,-81.75 502.38,-81.75 508.38,-81.75 514.38,-87.75 514.38,-93.75 514.38,-93.75 514.38,-106.25 514.38,-106.25 514.38,-112.25 508.38,-118.25 502.38,-118.25"/>
<text xml:space="preserve" text-anchor="middle" x="471.12" y="-104.75" font-family="verdana" font-size="10.00">I&#45;Sense ADC</text>
<text xml:space="preserve" text-anchor="middle" x="471.12" y="-90.5" font-family="verdana" font-size="10.00">Coil Current I(t)</text>
</g>
<!-- hw_spk&#45;&gt;hw_isense -->
<g id="edge3" class="edge">
<title>hw_spk&#45;&gt;hw_isense</title>
<path fill="none" stroke="black" stroke-width="1.2" d="M320.6,-78.71C349.28,-82.79 386.04,-88.03 415.93,-92.28"/>
<polygon fill="black" stroke="black" stroke-width="1.2" points="415.24,-95.72 425.64,-93.66 416.23,-88.79 415.24,-95.72"/>
<text xml:space="preserve" text-anchor="middle" x="367.88" y="-93.53" font-family="verdana" font-size="9.00">Current sense</text>
</g>
<!-- hw_tdm -->
<g id="node5" class="node">
<title>hw_tdm</title>
<path fill="#cbd5e0" stroke="#4a5568" stroke-width="1.5" d="M711.5,-67.25C711.5,-67.25 617.5,-67.25 617.5,-67.25 611.5,-67.25 605.5,-61.25 605.5,-55.25 605.5,-55.25 605.5,-42.75 605.5,-42.75 605.5,-36.75 611.5,-30.75 617.5,-30.75 617.5,-30.75 711.5,-30.75 711.5,-30.75 717.5,-30.75 723.5,-36.75 723.5,-42.75 723.5,-42.75 723.5,-55.25 723.5,-55.25 723.5,-61.25 717.5,-67.25 711.5,-67.25"/>
<text xml:space="preserve" text-anchor="middle" x="664.5" y="-53.75" font-family="verdana" font-size="10.00">Upstream Transmitter</text>
<text xml:space="preserve" text-anchor="middle" x="664.5" y="-39.5" font-family="verdana" font-size="10.00">SoundWire / TDM DAI</text>
</g>
<!-- hw_vsense&#45;&gt;hw_tdm -->
<g id="edge4" class="edge">
<title>hw_vsense&#45;&gt;hw_tdm</title>
<path fill="none" stroke="black" stroke-width="1.2" d="M527.48,-46.16C547.97,-46.59 571.48,-47.08 593.13,-47.53"/>
<polygon fill="black" stroke="black" stroke-width="1.2" points="593.05,-51.03 603.12,-47.74 593.19,-44.03 593.05,-51.03"/>
<text xml:space="preserve" text-anchor="middle" x="566.12" y="-51.56" font-family="verdana" font-size="9.00">V samples</text>
</g>
<!-- hw_isense&#45;&gt;hw_tdm -->
<g id="edge5" class="edge">
<title>hw_isense&#45;&gt;hw_tdm</title>
<path fill="none" stroke="black" stroke-width="1.2" d="M515.07,-88.55C538.31,-82.36 567.59,-74.56 593.98,-67.53"/>
<polygon fill="black" stroke="black" stroke-width="1.2" points="594.58,-70.99 603.34,-65.03 592.77,-64.23 594.58,-70.99"/>
<text xml:space="preserve" text-anchor="middle" x="566.12" y="-84.77" font-family="verdana" font-size="9.00">I samples</text>
</g>
<!-- dsp_rx -->
<g id="node6" class="node">
<title>dsp_rx</title>
<path fill="#ffffff" stroke="#2b6cb0" stroke-width="1.5" d="M922.5,-67.25C922.5,-67.25 838.25,-67.25 838.25,-67.25 832.25,-67.25 826.25,-61.25 826.25,-55.25 826.25,-55.25 826.25,-42.75 826.25,-42.75 826.25,-36.75 832.25,-30.75 838.25,-30.75 838.25,-30.75 922.5,-30.75 922.5,-30.75 928.5,-30.75 934.5,-36.75 934.5,-42.75 934.5,-42.75 934.5,-55.25 934.5,-55.25 934.5,-61.25 928.5,-67.25 922.5,-67.25"/>
<text xml:space="preserve" text-anchor="middle" x="880.38" y="-53.75" font-family="verdana" font-size="10.00">Capture DAI Copier</text>
<text xml:space="preserve" text-anchor="middle" x="880.38" y="-39.5" font-family="verdana" font-size="10.00">I/V Ingestion Buffer</text>
</g>
<!-- hw_tdm&#45;&gt;dsp_rx -->
<g id="edge6" class="edge">
<title>hw_tdm&#45;&gt;dsp_rx</title>
<path fill="none" stroke="#2b6cb0" stroke-width="1.8" d="M724.23,-49C751.68,-49 784.49,-49 812.86,-49"/>
<polygon fill="#2b6cb0" stroke="#2b6cb0" stroke-width="1.8" points="812.82,-52.5 822.82,-49 812.82,-45.5 812.82,-52.5"/>
<text xml:space="preserve" text-anchor="middle" x="774.88" y="-53.2" font-family="verdana" font-size="9.00">SoundWire / I2S</text>
</g>
<!-- dsp_est_r -->
<g id="node7" class="node">
<title>dsp_est_r</title>
<path fill="#bee3f8" stroke="#2b6cb0" stroke-width="1.5" d="M1183.75,-60.25C1183.75,-60.25 1050,-60.25 1050,-60.25 1044,-60.25 1038,-54.25 1038,-48.25 1038,-48.25 1038,-35.75 1038,-35.75 1038,-29.75 1044,-23.75 1050,-23.75 1050,-23.75 1183.75,-23.75 1183.75,-23.75 1189.75,-23.75 1195.75,-29.75 1195.75,-35.75 1195.75,-35.75 1195.75,-48.25 1195.75,-48.25 1195.75,-54.25 1189.75,-60.25 1183.75,-60.25"/>
<text xml:space="preserve" text-anchor="middle" x="1116.88" y="-46.75" font-family="verdana" font-size="10.00">Resistance Tracking</text>
<text xml:space="preserve" text-anchor="middle" x="1116.88" y="-32.5" font-family="verdana" font-size="10.00">Re(t) = LowFreq(V) / LowFreq(I)</text>
</g>
<!-- dsp_rx&#45;&gt;dsp_est_r -->
<g id="edge7" class="edge">
<title>dsp_rx&#45;&gt;dsp_est_r</title>
<path fill="none" stroke="black" stroke-width="1.2" d="M935.17,-47.39C962.03,-46.59 995.25,-45.6 1025.84,-44.69"/>
<polygon fill="black" stroke="black" stroke-width="1.2" points="1025.72,-48.19 1035.61,-44.4 1025.51,-41.2 1025.72,-48.19"/>
<text xml:space="preserve" text-anchor="middle" x="986.25" y="-50.94" font-family="verdana" font-size="9.00">Synchronous I/V</text>
</g>
<!-- dsp_est_x -->
<g id="node9" class="node">
<title>dsp_est_x</title>
<path fill="#b2f5ea" stroke="#2c7a7b" stroke-width="1.5" d="M1447.62,-121.38C1447.62,-121.38 1333.38,-121.38 1333.38,-121.38 1327.38,-121.38 1321.38,-115.38 1321.38,-109.38 1321.38,-109.38 1321.38,-82.62 1321.38,-82.62 1321.38,-76.62 1327.38,-70.62 1333.38,-70.62 1333.38,-70.62 1447.62,-70.62 1447.62,-70.62 1453.62,-70.62 1459.62,-76.62 1459.62,-82.62 1459.62,-82.62 1459.62,-109.38 1459.62,-109.38 1459.62,-115.38 1453.62,-121.38 1447.62,-121.38"/>
<text xml:space="preserve" text-anchor="middle" x="1390.5" y="-107.88" font-family="verdana" font-size="10.00">Back&#45;EMF &amp; Excursion</text>
<text xml:space="preserve" text-anchor="middle" x="1390.5" y="-93.62" font-family="verdana" font-size="10.00">e_emf = V &#45; I*Re &#45; Le(dI/dt)</text>
<text xml:space="preserve" text-anchor="middle" x="1390.5" y="-79.38" font-family="verdana" font-size="10.00">x(t) = integral(e_emf / Bl)</text>
</g>
<!-- dsp_rx&#45;&gt;dsp_est_x -->
<g id="edge9" class="edge">
<title>dsp_rx&#45;&gt;dsp_est_x</title>
<path fill="none" stroke="black" stroke-width="1.2" d="M934.88,-60.05C940.81,-61.12 946.78,-62.13 952.5,-63 1067.96,-80.52 1097.24,-83.11 1213.75,-91 1244.94,-93.11 1279.3,-94.33 1309.3,-95.04"/>
<polygon fill="black" stroke="black" stroke-width="1.2" points="1309.11,-98.54 1319.18,-95.26 1309.26,-91.54 1309.11,-98.54"/>
<text xml:space="preserve" text-anchor="middle" x="1116.88" y="-93.93" font-family="verdana" font-size="9.00">High&#45;speed I/V</text>
</g>
<!-- dsp_est_t -->
<g id="node8" class="node">
<title>dsp_est_t</title>
<path fill="#fed7d7" stroke="#c53030" stroke-width="1.5" d="M1457,-52.25C1457,-52.25 1324,-52.25 1324,-52.25 1318,-52.25 1312,-46.25 1312,-40.25 1312,-40.25 1312,-27.75 1312,-27.75 1312,-21.75 1318,-15.75 1324,-15.75 1324,-15.75 1457,-15.75 1457,-15.75 1463,-15.75 1469,-21.75 1469,-27.75 1469,-27.75 1469,-40.25 1469,-40.25 1469,-46.25 1463,-52.25 1457,-52.25"/>
<text xml:space="preserve" text-anchor="middle" x="1390.5" y="-38.75" font-family="verdana" font-size="10.00">Thermal Estimator</text>
<text xml:space="preserve" text-anchor="middle" x="1390.5" y="-24.5" font-family="verdana" font-size="10.00">Delta T = (Re &#45; R0) / (alpha * R0)</text>
</g>
<!-- dsp_est_r&#45;&gt;dsp_est_t -->
<g id="edge8" class="edge">
<title>dsp_est_r&#45;&gt;dsp_est_t</title>
<path fill="none" stroke="black" stroke-width="1.2" d="M1196.44,-39.69C1228.82,-38.73 1266.51,-37.62 1299.95,-36.64"/>
<polygon fill="black" stroke="black" stroke-width="1.2" points="1299.87,-40.14 1309.77,-36.35 1299.67,-33.14 1299.87,-40.14"/>
<text xml:space="preserve" text-anchor="middle" x="1253.88" y="-43.15" font-family="verdana" font-size="9.00">Voice coil Re(t)</text>
</g>
<!-- dsp_est_r&#45;&gt;dsp_est_x -->
<g id="edge10" class="edge">
<title>dsp_est_r&#45;&gt;dsp_est_x</title>
<path fill="none" stroke="black" stroke-width="1.2" d="M1196.44,-57.62C1231.93,-64.67 1273.8,-73 1309.46,-80.09"/>
<polygon fill="black" stroke="black" stroke-width="1.2" points="1308.53,-83.47 1319.02,-81.99 1309.89,-76.61 1308.53,-83.47"/>
<text xml:space="preserve" text-anchor="middle" x="1253.88" y="-81.19" font-family="verdana" font-size="9.00">Compensated Re(t)</text>
</g>
<!-- dsp_ctrl -->
<g id="node10" class="node">
<title>dsp_ctrl</title>
<path fill="#fefcbf" stroke="#b7791f" stroke-width="1.5" d="M1752.75,-76.25C1752.75,-76.25 1597.25,-76.25 1597.25,-76.25 1591.25,-76.25 1585.25,-70.25 1585.25,-64.25 1585.25,-64.25 1585.25,-51.75 1585.25,-51.75 1585.25,-45.75 1591.25,-39.75 1597.25,-39.75 1597.25,-39.75 1752.75,-39.75 1752.75,-39.75 1758.75,-39.75 1764.75,-45.75 1764.75,-51.75 1764.75,-51.75 1764.75,-64.25 1764.75,-64.25 1764.75,-70.25 1758.75,-76.25 1752.75,-76.25"/>
<text xml:space="preserve" text-anchor="middle" x="1675" y="-62.75" font-family="verdana" font-size="10.00">Dynamic Protection Core</text>
<text xml:space="preserve" text-anchor="middle" x="1675" y="-48.5" font-family="verdana" font-size="10.00">Excursion Limiter + Thermal Limiter</text>
</g>
<!-- dsp_est_t&#45;&gt;dsp_ctrl -->
<g id="edge11" class="edge">
<title>dsp_est_t&#45;&gt;dsp_ctrl</title>
<path fill="none" stroke="#c53030" stroke-width="1.2" d="M1469.38,-40.14C1499.91,-42.6 1535.23,-45.49 1567.25,-48.25 1569.11,-48.41 1570.98,-48.57 1572.87,-48.74"/>
<polygon fill="#c53030" stroke="#c53030" stroke-width="1.2" points="1572.52,-52.22 1582.79,-49.61 1573.13,-45.25 1572.52,-52.22"/>
<text xml:space="preserve" text-anchor="middle" x="1527.12" y="-52.45" font-family="verdana" font-size="9.00">Temperature T_coil</text>
</g>
<!-- dsp_est_x&#45;&gt;dsp_ctrl -->
<g id="edge12" class="edge">
<title>dsp_est_x&#45;&gt;dsp_ctrl</title>
<path fill="none" stroke="#2c7a7b" stroke-width="1.2" d="M1460.25,-86.75C1494.14,-82.19 1535.68,-76.61 1573.09,-71.57"/>
<polygon fill="#2c7a7b" stroke="#2c7a7b" stroke-width="1.2" points="1573.31,-75.08 1582.76,-70.27 1572.38,-68.14 1573.31,-75.08"/>
<text xml:space="preserve" text-anchor="middle" x="1527.12" y="-86.82" font-family="verdana" font-size="9.00">Displacement x(t)</text>
</g>
</g>
</svg>
