<?xml version="1.0" encoding="UTF-8" standalone="no"?>
<!DOCTYPE svg PUBLIC "-//W3C//DTD SVG 1.1//EN"
 "http://www.w3.org/Graphics/SVG/1.1/DTD/svg11.dtd">
<!-- Generated by graphviz version 2.43.0 (0)
 -->
<!-- Title: G Pages: 1 -->
<svg width="247pt" height="214pt"
 viewBox="0.00 0.00 247.00 214.00" xmlns="http://www.w3.org/2000/svg" xmlns:xlink="http://www.w3.org/1999/xlink">
<g id="graph0" class="graph" transform="scale(1 1) rotate(0) translate(4 210)">
<title>G</title>
<polygon fill="white" stroke="transparent" points="-4,4 -4,-210 243,-210 243,4 -4,4"/>
<!-- dsp -->
<g id="node1" class="node">
<title>dsp</title>
<polygon fill="none" stroke="black" points="10,-76.5 10,-112.5 64,-112.5 64,-76.5 10,-76.5"/>
<text text-anchor="middle" x="37" y="-92" font-family="verdana" font-size="10.00">DSP</text>
</g>
<!-- mem_alias -->
<g id="node3" class="node">
<title>mem_alias</title>
<polygon fill="none" stroke="black" points="171,-169.5 171,-205.5 239,-205.5 239,-169.5 171,-169.5"/>
<text text-anchor="middle" x="205" y="-190.5" font-family="verdana" font-size="10.00">Alias</text>
<text text-anchor="middle" x="205" y="-179.5" font-family="verdana" font-size="10.00">8000 0000</text>
</g>
<!-- dsp&#45;&gt;mem_alias -->
<g id="edge1" class="edge">
<title>dsp&#45;&gt;mem_alias:a</title>
<path fill="none" stroke="black" d="M64.09,-109.03C90.73,-123.86 132.47,-147.11 163.61,-164.45"/>
<polygon fill="black" stroke="black" points="162.06,-167.6 172.5,-169.4 165.47,-161.48 162.06,-167.6"/>
<text text-anchor="middle" x="122.5" y="-171.5" font-family="verdana" font-size="10.00">L1 uncached</text>
</g>
<!-- mem -->
<g id="node4" class="node">
<title>mem</title>
<polygon fill="none" stroke="black" points="171,-0.5 171,-150.5 239,-150.5 239,-0.5 171,-0.5"/>
<text text-anchor="middle" x="205" y="-138.5" font-family="verdana" font-size="10.00">IMR</text>
<text text-anchor="middle" x="205" y="-127.5" font-family="verdana" font-size="10.00">B000 0000</text>
<polyline fill="none" stroke="black" points="171,-120.5 239,-120.5 "/>
<text text-anchor="middle" x="205" y="-108.5" font-family="verdana" font-size="10.00">HPSRAM</text>
<text text-anchor="middle" x="205" y="-97.5" font-family="verdana" font-size="10.00">BE00 0000</text>
<polyline fill="none" stroke="black" points="171,-90.5 239,-90.5 "/>
<text text-anchor="middle" x="205" y="-78.5" font-family="verdana" font-size="10.00">LPSRAM</text>
<text text-anchor="middle" x="205" y="-67.5" font-family="verdana" font-size="10.00">BE80 0000</text>
<polyline fill="none" stroke="black" points="171,-60.5 239,-60.5 "/>
<text text-anchor="middle" x="205" y="-48.5" font-family="verdana" font-size="10.00">L1DSRAM</text>
<text text-anchor="middle" x="205" y="-37.5" font-family="verdana" font-size="10.00">9F10 000</text>
<polyline fill="none" stroke="black" points="171,-30.5 239,-30.5 "/>
<text text-anchor="middle" x="205" y="-18.5" font-family="verdana" font-size="10.00">L1ISRAM</text>
<text text-anchor="middle" x="205" y="-7.5" font-family="verdana" font-size="10.00">9F18 0000</text>
</g>
<!-- dsp&#45;&gt;mem -->
<g id="edge2" class="edge">
<title>dsp&#45;&gt;mem:imr</title>
<path fill="none" stroke="black" d="M64.28,-102.6C94.1,-111.8 141.22,-126.32 161.36,-132.53"/>
<polygon fill="black" stroke="black" points="160.41,-135.9 171,-135.5 162.47,-129.21 160.41,-135.9"/>
<text text-anchor="middle" x="122.5" y="-135.5" font-family="verdana" font-size="10.00">L1 cached</text>
</g>
<!-- dsp&#45;&gt;mem -->
<g id="edge3" class="edge">
<title>dsp&#45;&gt;mem:hpsram</title>
<path fill="none" stroke="black" d="M64.28,-96.67C93.8,-99.12 140.27,-102.96 160.74,-104.65"/>
<polygon fill="black" stroke="black" points="160.75,-108.16 171,-105.5 161.32,-101.19 160.75,-108.16"/>
<text text-anchor="middle" x="122.5" y="-106.5" font-family="verdana" font-size="10.00">L1 cached</text>
</g>
<!-- dsp&#45;&gt;mem -->
<g id="edge4" class="edge">
<title>dsp&#45;&gt;mem:lpsram</title>
<path fill="none" stroke="black" d="M64.28,-90.75C93.95,-86.51 140.75,-79.82 161.05,-76.92"/>
<polygon fill="black" stroke="black" points="161.6,-80.38 171,-75.5 160.61,-73.45 161.6,-80.38"/>
<text text-anchor="middle" x="122.5" y="-86.5" font-family="verdana" font-size="10.00">L1 cached</text>
</g>
<!-- dsp&#45;&gt;mem -->
<g id="edge5" class="edge">
<title>dsp&#45;&gt;mem:l1dsram</title>
<path fill="none" stroke="black" d="M64.28,-84.82C94.1,-73.83 141.22,-56.47 161.36,-49.05"/>
<polygon fill="black" stroke="black" points="162.83,-52.24 171,-45.5 160.41,-45.67 162.83,-52.24"/>
<text text-anchor="middle" x="122.5" y="-64.5" font-family="verdana" font-size="10.00">L1 local</text>
</g>
<!-- dsp&#45;&gt;mem -->
<g id="edge6" class="edge">
<title>dsp&#45;&gt;mem:l1isram</title>
<path fill="none" stroke="black" d="M64.28,-78.89C94.56,-60.91 142.66,-32.33 162.26,-20.69"/>
<polygon fill="black" stroke="black" points="164.19,-23.62 171,-15.5 160.61,-17.6 164.19,-23.62"/>
<text text-anchor="middle" x="122.5" y="-36.5" font-family="verdana" font-size="10.00">L1 local</text>
</g>
<!-- mem_rom -->
<g id="node2" class="node">
<title>mem_rom</title>
<polygon fill="none" stroke="black" points="0,-132 0,-173 74,-173 74,-132 0,-132"/>
<text text-anchor="middle" x="37" y="-161" font-family="verdana" font-size="10.00">ROM</text>
<text text-anchor="middle" x="37" y="-150" font-family="verdana" font-size="10.00">9F18 00000</text>
<text text-anchor="middle" x="37" y="-139" font-family="verdana" font-size="10.00">(512KB)</text>
</g>
</g>
</svg>
