<?xml version="1.0" encoding="UTF-8" standalone="no"?>
<!DOCTYPE svg PUBLIC "-//W3C//DTD SVG 1.1//EN"
 "http://www.w3.org/Graphics/SVG/1.1/DTD/svg11.dtd">
<!-- Generated by graphviz version 14.1.2 (0)
 -->
<!-- Title: drc_architecture Pages: 1 -->
<svg width="1276pt" height="214pt"
 viewBox="0.00 0.00 1276.00 214.00" xmlns="http://www.w3.org/2000/svg" xmlns:xlink="http://www.w3.org/1999/xlink">
<g id="graph0" class="graph" transform="scale(1 1) rotate(0) translate(4 210)">
<title>drc_architecture</title>
<g id="clust1" class="cluster">
<title>cluster_sidechain</title>
<path fill="#fefcbf" stroke="#d69e2e" d="M173.97,-107C173.97,-107 817.15,-107 817.15,-107 823.15,-107 829.15,-113 829.15,-119 829.15,-119 829.15,-186 829.15,-186 829.15,-192 823.15,-198 817.15,-198 817.15,-198 173.97,-198 173.97,-198 167.97,-198 161.97,-192 161.97,-186 161.97,-186 161.97,-119 161.97,-119 161.97,-113 167.97,-107 173.97,-107"/>
<text xml:space="preserve" text-anchor="middle" x="495.56" y="-184.5" font-family="verdana" font-size="10.00">Sidechain Detector &amp; Gain Computer Path</text>
</g>
<g id="clust2" class="cluster">
<title>cluster_signal</title>
<path fill="#ebf8ff" stroke="#bee3f8" d="M154.1,-8C154.1,-8 337.2,-8 337.2,-8 343.2,-8 349.2,-14 349.2,-20 349.2,-20 349.2,-87 349.2,-87 349.2,-93 343.2,-99 337.2,-99 337.2,-99 154.1,-99 154.1,-99 148.1,-99 142.1,-93 142.1,-87 142.1,-87 142.1,-20 142.1,-20 142.1,-14 148.1,-8 154.1,-8"/>
<text xml:space="preserve" text-anchor="middle" x="245.65" y="-85.5" font-family="verdana" font-size="10.00">Delayed Audio Signal Path</text>
</g>
<!-- in_pcm -->
<g id="node1" class="node">
<title>in_pcm</title>
<path fill="#edf2f7" stroke="#cbd5e0" d="M101.1,-110.95C101.1,-110.95 12,-110.95 12,-110.95 6,-110.95 0,-104.95 0,-98.95 0,-98.95 0,-83.05 0,-83.05 0,-77.05 6,-71.05 12,-71.05 12,-71.05 101.1,-71.05 101.1,-71.05 107.1,-71.05 113.1,-77.05 113.1,-83.05 113.1,-83.05 113.1,-98.95 113.1,-98.95 113.1,-104.95 107.1,-110.95 101.1,-110.95"/>
<text xml:space="preserve" text-anchor="middle" x="56.55" y="-95.2" font-family="verdana" font-size="9.00">Input Audio x[n]</text>
<text xml:space="preserve" text-anchor="middle" x="56.55" y="-82.45" font-family="verdana" font-size="9.00">(From Pipeline Buffer)</text>
</g>
<!-- det_peak -->
<g id="node2" class="node">
<title>det_peak</title>
<path fill="#faf089" stroke="#b7791f" d="M309.32,-167.32C309.32,-167.32 181.97,-167.32 181.97,-167.32 175.97,-167.32 169.97,-161.32 169.97,-155.32 169.97,-155.32 169.97,-126.67 169.97,-126.67 169.97,-120.67 175.97,-114.67 181.97,-114.67 181.97,-114.67 309.32,-114.67 309.32,-114.67 315.32,-114.67 321.32,-120.67 321.32,-126.67 321.32,-126.67 321.32,-155.32 321.32,-155.32 321.32,-161.32 315.32,-167.32 309.32,-167.32"/>
<text xml:space="preserve" text-anchor="middle" x="245.65" y="-151.57" font-family="verdana" font-size="9.00">Peak / Envelope Detector</text>
<text xml:space="preserve" text-anchor="middle" x="245.65" y="-138.82" font-family="verdana" font-size="9.00">drc_update_detector_average()</text>
<text xml:space="preserve" text-anchor="middle" x="245.65" y="-126.08" font-family="verdana" font-size="9.00">Evaluates signal energy in dB</text>
</g>
<!-- in_pcm&#45;&gt;det_peak -->
<g id="edge4" class="edge">
<title>in_pcm&#45;&gt;det_peak</title>
<path fill="none" stroke="#4a5568" d="M113.43,-105.93C127.64,-109.73 143.25,-113.9 158.58,-118"/>
<polygon fill="#4a5568" stroke="#4a5568" points="157.64,-121.37 168.21,-120.57 159.45,-114.61 157.64,-121.37"/>
</g>
<!-- p_delay -->
<g id="node5" class="node">
<title>p_delay</title>
<path fill="#bee3f8" stroke="#3182ce" d="M329.2,-68.33C329.2,-68.33 162.1,-68.33 162.1,-68.33 156.1,-68.33 150.1,-62.33 150.1,-56.33 150.1,-56.33 150.1,-27.67 150.1,-27.67 150.1,-21.67 156.1,-15.68 162.1,-15.68 162.1,-15.68 329.2,-15.68 329.2,-15.68 335.2,-15.68 341.2,-21.68 341.2,-27.68 341.2,-27.68 341.2,-56.33 341.2,-56.33 341.2,-62.33 335.2,-68.33 329.2,-68.33"/>
<text xml:space="preserve" text-anchor="middle" x="245.65" y="-52.58" font-family="verdana" font-size="9.00">Lookahead Pre&#45;Delay Buffer</text>
<text xml:space="preserve" text-anchor="middle" x="245.65" y="-39.83" font-family="verdana" font-size="9.00">pre_delay_buffers[ch] (up to 512 frames)</text>
<text xml:space="preserve" text-anchor="middle" x="245.65" y="-27.07" font-family="verdana" font-size="9.00">Anticipates incoming transients</text>
</g>
<!-- in_pcm&#45;&gt;p_delay -->
<g id="edge3" class="edge">
<title>in_pcm&#45;&gt;p_delay</title>
<path fill="none" stroke="#4a5568" d="M113.43,-76.36C121.53,-74.24 130.09,-72 138.79,-69.72"/>
<polygon fill="#4a5568" stroke="#4a5568" points="139.61,-73.13 148.39,-67.21 137.83,-66.36 139.61,-73.13"/>
</g>
<!-- det_calc -->
<g id="node3" class="node">
<title>det_calc</title>
<path fill="#faf089" stroke="#b7791f" d="M523.55,-167.32C523.55,-167.32 390.2,-167.32 390.2,-167.32 384.2,-167.32 378.2,-161.32 378.2,-155.32 378.2,-155.32 378.2,-126.67 378.2,-126.67 378.2,-120.67 384.2,-114.67 390.2,-114.67 390.2,-114.67 523.55,-114.67 523.55,-114.67 529.55,-114.67 535.55,-120.67 535.55,-126.67 535.55,-126.67 535.55,-155.32 535.55,-155.32 535.55,-161.32 529.55,-167.32 523.55,-167.32"/>
<text xml:space="preserve" text-anchor="middle" x="456.87" y="-151.57" font-family="verdana" font-size="9.00">Compression Curve &amp; Knee</text>
<text xml:space="preserve" text-anchor="middle" x="456.87" y="-138.82" font-family="verdana" font-size="9.00">Evaluates Threshold, Knee, Ratio</text>
<text xml:space="preserve" text-anchor="middle" x="456.87" y="-126.08" font-family="verdana" font-size="9.00">Determines Target Gain (Q2.30)</text>
</g>
<!-- det_peak&#45;&gt;det_calc -->
<g id="edge1" class="edge">
<title>det_peak&#45;&gt;det_calc</title>
<path fill="none" stroke="#4a5568" d="M321.59,-141C336.17,-141 351.58,-141 366.57,-141"/>
<polygon fill="#4a5568" stroke="#4a5568" points="366.41,-144.5 376.41,-141 366.41,-137.5 366.41,-144.5"/>
</g>
<!-- det_ball -->
<g id="node4" class="node">
<title>det_ball</title>
<path fill="#faf089" stroke="#b7791f" d="M809.15,-167.32C809.15,-167.32 639.05,-167.32 639.05,-167.32 633.05,-167.32 627.05,-161.32 627.05,-155.32 627.05,-155.32 627.05,-126.67 627.05,-126.67 627.05,-120.67 633.05,-114.67 639.05,-114.67 639.05,-114.67 809.15,-114.67 809.15,-114.67 815.15,-114.67 821.15,-120.67 821.15,-126.67 821.15,-126.67 821.15,-155.32 821.15,-155.32 821.15,-161.32 815.15,-167.32 809.15,-167.32"/>
<text xml:space="preserve" text-anchor="middle" x="724.1" y="-151.57" font-family="verdana" font-size="9.00">Ballistics Generator (Division)</text>
<text xml:space="preserve" text-anchor="middle" x="724.1" y="-138.82" font-family="verdana" font-size="9.00">drc_update_envelope() (Every 32 Frames)</text>
<text xml:space="preserve" text-anchor="middle" x="724.1" y="-126.08" font-family="verdana" font-size="9.00">Computes Attack / Adaptive Release Rate</text>
</g>
<!-- det_calc&#45;&gt;det_ball -->
<g id="edge2" class="edge">
<title>det_calc&#45;&gt;det_ball</title>
<path fill="none" stroke="#4a5568" d="M536.02,-141C560.89,-141 588.85,-141 615.42,-141"/>
<polygon fill="#4a5568" stroke="#4a5568" points="615.2,-144.5 625.2,-141 615.2,-137.5 615.2,-144.5"/>
</g>
<!-- vca_gain -->
<g id="node6" class="node">
<title>vca_gain</title>
<path fill="#c6f6d5" stroke="#38a169" d="M1085,-106.33C1085,-106.33 937.4,-106.33 937.4,-106.33 931.4,-106.33 925.4,-100.33 925.4,-94.33 925.4,-94.33 925.4,-65.67 925.4,-65.67 925.4,-59.67 931.4,-53.67 937.4,-53.67 937.4,-53.67 1085,-53.67 1085,-53.67 1091,-53.67 1097,-59.67 1097,-65.67 1097,-65.67 1097,-94.33 1097,-94.33 1097,-100.33 1091,-106.33 1085,-106.33"/>
<text xml:space="preserve" text-anchor="middle" x="1011.2" y="-90.58" font-family="verdana" font-size="9.00" fill="#22543d">Gain Multiplier (VCA)</text>
<text xml:space="preserve" text-anchor="middle" x="1011.2" y="-77.83" font-family="verdana" font-size="9.00" fill="#22543d">drc_compress_output()</text>
<text xml:space="preserve" text-anchor="middle" x="1011.2" y="-65.08" font-family="verdana" font-size="9.00" fill="#22543d">Smooth interpolated sample scaling</text>
</g>
<!-- det_ball&#45;&gt;vca_gain -->
<g id="edge5" class="edge">
<title>det_ball&#45;&gt;vca_gain</title>
<path fill="none" stroke="#d69e2e" stroke-width="2" d="M821.62,-120.35C851.42,-113.97 884.22,-106.96 913.99,-100.59"/>
<polygon fill="#d69e2e" stroke="#d69e2e" stroke-width="2" points="913.23,-104.33 922.28,-98.81 911.77,-97.48 913.23,-104.33"/>
<text xml:space="preserve" text-anchor="middle" x="873.27" y="-120.36" font-family="verdana" font-size="8.00" fill="#2d3748">Interpolated Gain</text>
</g>
<!-- p_delay&#45;&gt;vca_gain -->
<g id="edge6" class="edge">
<title>p_delay&#45;&gt;vca_gain</title>
<path fill="none" stroke="#4a5568" d="M341.43,-46.72C487.59,-53.99 766.48,-67.87 913.69,-75.2"/>
<polygon fill="#4a5568" stroke="#4a5568" points="913.25,-78.68 923.41,-75.68 913.6,-71.69 913.25,-78.68"/>
<text xml:space="preserve" text-anchor="middle" x="581.3" y="-64.3" font-family="verdana" font-size="8.00" fill="#2d3748">Delayed Audio</text>
</g>
<!-- out_pcm -->
<g id="node7" class="node">
<title>out_pcm</title>
<path fill="#68d391" stroke="#276749" d="M1256.1,-99.95C1256.1,-99.95 1146,-99.95 1146,-99.95 1140,-99.95 1134,-93.95 1134,-87.95 1134,-87.95 1134,-72.05 1134,-72.05 1134,-66.05 1140,-60.05 1146,-60.05 1146,-60.05 1256.1,-60.05 1256.1,-60.05 1262.1,-60.05 1268.1,-66.05 1268.1,-72.05 1268.1,-72.05 1268.1,-87.95 1268.1,-87.95 1268.1,-93.95 1262.1,-99.95 1256.1,-99.95"/>
<text xml:space="preserve" text-anchor="middle" x="1201.05" y="-84.2" font-family="verdana" font-size="9.00" fill="#1c4532">Compressed Audio y[n]</text>
<text xml:space="preserve" text-anchor="middle" x="1201.05" y="-71.45" font-family="verdana" font-size="9.00" fill="#1c4532">(Zero Transient Overshoot)</text>
</g>
<!-- vca_gain&#45;&gt;out_pcm -->
<g id="edge7" class="edge">
<title>vca_gain&#45;&gt;out_pcm</title>
<path fill="none" stroke="#4a5568" d="M1097.33,-80C1105.58,-80 1113.92,-80 1122.09,-80"/>
<polygon fill="#4a5568" stroke="#4a5568" points="1121.99,-83.5 1131.99,-80 1121.99,-76.5 1121.99,-83.5"/>
</g>
</g>
</svg>
