<?xml version="1.0" encoding="UTF-8" standalone="no"?>
<!DOCTYPE svg PUBLIC "-//W3C//DTD SVG 1.1//EN"
 "http://www.w3.org/Graphics/SVG/1.1/DTD/svg11.dtd">
<!-- Generated by graphviz version 2.43.0 (0)
 -->
<!-- Title: system_zone Pages: 1 -->
<svg width="279pt" height="452pt"
 viewBox="0.00 0.00 279.00 452.00" xmlns="http://www.w3.org/2000/svg" xmlns:xlink="http://www.w3.org/1999/xlink">
<g id="graph0" class="graph" transform="scale(1 1) rotate(0) translate(4 448)">
<title>system_zone</title>
<polygon fill="white" stroke="transparent" points="-4,4 -4,-448 275,-448 275,4 -4,4"/>
<g id="clust1" class="cluster">
<title>cluster_sys_0</title>
<polygon fill="none" stroke="black" points="145,-8 145,-252 263,-252 263,-8 145,-8"/>
<text text-anchor="middle" x="204" y="-236.8" font-family="verdana" font-size="14.00">SYS HEAP #0</text>
</g>
<g id="clust2" class="cluster">
<title>cluster_sys_1</title>
<polygon fill="none" stroke="black" points="145,-260 145,-401 263,-401 263,-260 145,-260"/>
<text text-anchor="middle" x="204" y="-385.8" font-family="verdana" font-size="14.00">SYS HEAP #1</text>
</g>
<g id="clust3" class="cluster">
<title>cluster_core_0</title>
<polygon fill="#f0f0f0" stroke="#f0f0f0" points="8,-83 8,-270 125,-270 125,-83 8,-83"/>
<text text-anchor="middle" x="66.5" y="-254.8" font-family="verdana" font-size="14.00">core #0</text>
</g>
<g id="clust4" class="cluster">
<title>cluster_core_1</title>
<polygon fill="#f0f0f0" stroke="#f0f0f0" points="8,-304 8,-436 125,-436 125,-304 8,-304"/>
<text text-anchor="middle" x="66.5" y="-420.8" font-family="verdana" font-size="14.00">core #1</text>
</g>
<!-- s0 -->
<g id="node1" class="node">
<title>s0</title>
<polygon fill="none" stroke="black" points="153,-16 153,-220 255,-220 255,-16 153,-16"/>
<text text-anchor="middle" x="204" y="-204.8" font-family="verdana" font-size="14.00">block</text>
<polyline fill="none" stroke="black" points="153,-165 255,-165 "/>
<text text-anchor="middle" x="204" y="-149.8" font-family="verdana" font-size="14.00">block</text>
<polyline fill="none" stroke="black" points="153,-142 255,-142 "/>
<text text-anchor="middle" x="204" y="-126.8" font-family="verdana" font-size="14.00">block</text>
<polyline fill="none" stroke="black" points="153,-103 255,-103 "/>
<text text-anchor="middle" x="204" y="-87.8" font-family="verdana" font-size="14.00">free space...</text>
</g>
<!-- s1 -->
<g id="node2" class="node">
<title>s1</title>
<polygon fill="none" stroke="black" points="153,-268.5 153,-369.5 255,-369.5 255,-268.5 153,-268.5"/>
<text text-anchor="middle" x="204" y="-354.3" font-family="verdana" font-size="14.00">block</text>
<polyline fill="none" stroke="black" points="153,-346.5 255,-346.5 "/>
<text text-anchor="middle" x="204" y="-331.3" font-family="verdana" font-size="14.00">block</text>
<polyline fill="none" stroke="black" points="153,-307.5 255,-307.5 "/>
<text text-anchor="middle" x="204" y="-292.3" font-family="verdana" font-size="14.00">free space...</text>
</g>
<!-- ipc -->
<g id="node3" class="node">
<title>ipc</title>
<polygon fill="none" stroke="black" points="39.5,-202 39.5,-238 93.5,-238 93.5,-202 39.5,-202"/>
<text text-anchor="middle" x="66.5" y="-216.3" font-family="verdana" font-size="14.00">ipc</text>
</g>
<!-- ipc&#45;&gt;s0 -->
<g id="edge1" class="edge">
<title>ipc&#45;&gt;s0:nw</title>
<path fill="none" stroke="black" d="M93.69,-228.67C109.45,-232.37 129.24,-234.19 143.98,-226.02"/>
<polygon fill="black" stroke="black" points="146.1,-228.8 152,-220 141.9,-223.21 146.1,-228.8"/>
</g>
<!-- scheduler_0 -->
<g id="node4" class="node">
<title>scheduler_0</title>
<polygon fill="none" stroke="black" points="16,-147 16,-183 117,-183 117,-147 16,-147"/>
<text text-anchor="middle" x="66.5" y="-161.3" font-family="verdana" font-size="14.00">scheduler_0</text>
</g>
<!-- scheduler_0&#45;&gt;s0 -->
<g id="edge2" class="edge">
<title>scheduler_0&#45;&gt;s0:nw</title>
<path fill="none" stroke="black" d="M117.12,-176.79C126.5,-176.93 135.84,-175.46 143.75,-171.15"/>
<polygon fill="black" stroke="black" points="146.07,-173.78 152,-165 141.89,-168.17 146.07,-173.78"/>
</g>
<!-- work_0 -->
<g id="node5" class="node">
<title>work_0</title>
<polygon fill="none" stroke="black" points="33.5,-92 33.5,-128 99.5,-128 99.5,-92 33.5,-92"/>
<text text-anchor="middle" x="66.5" y="-106.3" font-family="verdana" font-size="14.00">work_0</text>
</g>
<!-- work_0&#45;&gt;s0 -->
<g id="edge3" class="edge">
<title>work_0&#45;&gt;s0:nw</title>
<path fill="none" stroke="black" d="M99.58,-125.31C114.49,-132.07 131.22,-139.08 141.81,-141.75"/>
<polygon fill="black" stroke="black" points="141.92,-145.25 152,-142 142.09,-138.25 141.92,-145.25"/>
</g>
<!-- scheduler_1 -->
<g id="node6" class="node">
<title>scheduler_1</title>
<polygon fill="none" stroke="black" points="16,-368 16,-404 117,-404 117,-368 16,-368"/>
<text text-anchor="middle" x="66.5" y="-382.3" font-family="verdana" font-size="14.00">scheduler_1</text>
</g>
<!-- scheduler_1&#45;&gt;s1 -->
<g id="edge4" class="edge">
<title>scheduler_1&#45;&gt;s1:nw</title>
<path fill="none" stroke="black" d="M117.35,-386.3C126.72,-384.59 136.06,-381.56 144,-376.43"/>
<polygon fill="black" stroke="black" points="146.4,-378.99 152,-370 142.01,-373.53 146.4,-378.99"/>
</g>
<!-- work_1 -->
<g id="node7" class="node">
<title>work_1</title>
<polygon fill="none" stroke="black" points="33.5,-313 33.5,-349 99.5,-349 99.5,-313 33.5,-313"/>
<text text-anchor="middle" x="66.5" y="-327.3" font-family="verdana" font-size="14.00">work_1</text>
</g>
<!-- work_1&#45;&gt;s1 -->
<g id="edge5" class="edge">
<title>work_1&#45;&gt;s1:nw</title>
<path fill="none" stroke="black" d="M99.61,-349.14C114.03,-355.13 130.68,-358.9 143.67,-352.85"/>
<polygon fill="black" stroke="black" points="145.83,-355.61 152,-347 141.8,-349.88 145.83,-355.61"/>
</g>
</g>
</svg>
