<?xml version="1.0" encoding="UTF-8" standalone="no"?>
<!DOCTYPE svg PUBLIC "-//W3C//DTD SVG 1.1//EN"
 "http://www.w3.org/Graphics/SVG/1.1/DTD/svg11.dtd">
<!-- Generated by graphviz version 2.50.0 (20211204.2007)
 -->
<!-- Title: G Pages: 1 -->
<svg width="578pt" height="140pt"
 viewBox="0.00 0.00 578.00 140.00" xmlns="http://www.w3.org/2000/svg" xmlns:xlink="http://www.w3.org/1999/xlink">
<g id="graph0" class="graph" transform="scale(1 1) rotate(0) translate(4 136)">
<title>G</title>
<polygon fill="white" stroke="transparent" points="-4,4 -4,-136 574,-136 574,4 -4,4"/>
<g id="clust2" class="cluster">
<title>clusterStr0</title>
<polygon fill="none" stroke="#c4d600" points="8,-48 8,-103 291,-103 291,-48 8,-48"/>
<text text-anchor="middle" x="149.5" y="-91" font-family="verdana" font-size="10.00">Stream 0</text>
</g>
<g id="clust3" class="cluster">
<title>clusterStr1</title>
<polygon fill="none" stroke="#ffa300" points="299,-48 299,-103 562,-103 562,-48 299,-48"/>
<text text-anchor="middle" x="430.5" y="-91" font-family="verdana" font-size="10.00">Stream 1</text>
</g>
<!-- tdm_acpi -->
<g id="node1" class="node">
<title>tdm_acpi</title>
<polygon fill="none" stroke="black" points="275,-112.5 275,-131.5 433,-131.5 433,-112.5 275,-112.5"/>
<text text-anchor="middle" x="307.5" y="-119.5" font-family="verdana" font-size="10.00">FFFFFF43</text>
<polyline fill="none" stroke="black" points="340,-112.5 340,-131.5 "/>
<text text-anchor="middle" x="372.5" y="-119.5" font-family="verdana" font-size="10.00">FFFFFF01</text>
<polyline fill="none" stroke="black" points="405,-112.5 405,-131.5 "/>
<text text-anchor="middle" x="419" y="-119.5" font-family="verdana" font-size="10.00">...</text>
</g>
<!-- str0_cfg -->
<g id="node2" class="node">
<title>str0_cfg</title>
<polygon fill="none" stroke="black" points="127.5,-56.5 127.5,-75.5 282.5,-75.5 282.5,-56.5 127.5,-56.5"/>
<text text-anchor="middle" x="205" y="-63.5" font-family="verdana" font-size="10.00">{ time_slot_group_index=1}</text>
</g>
<!-- str0_cfg&#45;&gt;tdm_acpi -->
<g id="edge1" class="edge">
<title>str0_cfg&#45;&gt;tdm_acpi:acpi1</title>
<path fill="none" stroke="black" stroke-dasharray="1,5" d="M236.99,-75.57C275.84,-85.97 339.14,-102.93 363.25,-109.39"/>
<polygon fill="black" stroke="black" points="362.43,-112.79 373,-112 364.25,-106.03 362.43,-112.79"/>
</g>
<!-- str0 -->
<g id="node3" class="node">
<title>str0</title>
<polygon fill="none" stroke="#c4d600" points="16.5,-56.5 16.5,-75.5 109.5,-75.5 109.5,-56.5 16.5,-56.5"/>
<text text-anchor="middle" x="27.5" y="-63.5" font-family="verdana" font-size="10.00">L</text>
<polyline fill="none" stroke="#c4d600" points="38.5,-56.5 38.5,-75.5 "/>
<text text-anchor="middle" x="50" y="-63.5" font-family="verdana" font-size="10.00">R</text>
<polyline fill="none" stroke="#c4d600" points="61.5,-56.5 61.5,-75.5 "/>
<text text-anchor="middle" x="75.5" y="-63.5" font-family="verdana" font-size="10.00">...</text>
<polyline fill="none" stroke="#c4d600" points="89.5,-56.5 89.5,-75.5 "/>
<text text-anchor="middle" x="99.5" y="-63.5" font-family="verdana" font-size="10.00"> </text>
</g>
<!-- str -->
<g id="node6" class="node">
<title>str</title>
<polygon fill="none" stroke="black" points="140,-0.5 140,-19.5 310,-19.5 310,-0.5 140,-0.5"/>
<text text-anchor="middle" x="151.5" y="-7.5" font-family="verdana" font-size="10.00">R</text>
<polyline fill="none" stroke="black" points="163,-0.5 163,-19.5 "/>
<text text-anchor="middle" x="174" y="-7.5" font-family="verdana" font-size="10.00">L</text>
<polyline fill="none" stroke="black" points="185,-0.5 185,-19.5 "/>
<text text-anchor="middle" x="195" y="-7.5" font-family="verdana" font-size="10.00"> </text>
<polyline fill="none" stroke="black" points="205,-0.5 205,-19.5 "/>
<text text-anchor="middle" x="216" y="-7.5" font-family="verdana" font-size="10.00">L</text>
<polyline fill="none" stroke="black" points="227,-0.5 227,-19.5 "/>
<text text-anchor="middle" x="238.5" y="-7.5" font-family="verdana" font-size="10.00">R</text>
<polyline fill="none" stroke="black" points="250,-0.5 250,-19.5 "/>
<text text-anchor="middle" x="260" y="-7.5" font-family="verdana" font-size="10.00"> </text>
<polyline fill="none" stroke="black" points="270,-0.5 270,-19.5 "/>
<text text-anchor="middle" x="280" y="-7.5" font-family="verdana" font-size="10.00"> </text>
<polyline fill="none" stroke="black" points="290,-0.5 290,-19.5 "/>
<text text-anchor="middle" x="300" y="-7.5" font-family="verdana" font-size="10.00"> </text>
</g>
<!-- str0&#45;&gt;str -->
<g id="edge3" class="edge">
<title>str0:l&#45;&gt;str:1</title>
<path fill="none" stroke="black" d="M27,-55C27,-55 130.68,-30.31 163.9,-22.41"/>
<polygon fill="black" stroke="black" points="165.08,-25.72 174,-20 163.46,-18.91 165.08,-25.72"/>
</g>
<!-- str0&#45;&gt;str -->
<g id="edge4" class="edge">
<title>str0:r&#45;&gt;str:0</title>
<path fill="none" stroke="black" d="M50,-55C50,-55 107.07,-26.14 129.81,-14.65"/>
<polygon fill="black" stroke="black" points="131.66,-17.64 139,-10 128.5,-11.39 131.66,-17.64"/>
</g>
<!-- str1_cfg -->
<g id="node4" class="node">
<title>str1_cfg</title>
<polygon fill="none" stroke="black" points="398.5,-56.5 398.5,-75.5 553.5,-75.5 553.5,-56.5 398.5,-56.5"/>
<text text-anchor="middle" x="476" y="-63.5" font-family="verdana" font-size="10.00">{ time_slot_group_index=0}</text>
</g>
<!-- str1_cfg&#45;&gt;tdm_acpi -->
<g id="edge2" class="edge">
<title>str1_cfg&#45;&gt;tdm_acpi:acpi0</title>
<path fill="none" stroke="black" stroke-dasharray="1,5" d="M443.81,-75.57C404.74,-85.97 341.06,-102.93 316.81,-109.39"/>
<polygon fill="black" stroke="black" points="315.76,-106.04 307,-112 317.56,-112.81 315.76,-106.04"/>
</g>
<!-- str1 -->
<g id="node5" class="node">
<title>str1</title>
<polygon fill="none" stroke="#ffa300" points="307.5,-56.5 307.5,-75.5 380.5,-75.5 380.5,-56.5 307.5,-56.5"/>
<text text-anchor="middle" x="318.5" y="-63.5" font-family="verdana" font-size="10.00">L</text>
<polyline fill="none" stroke="#ffa300" points="329.5,-56.5 329.5,-75.5 "/>
<text text-anchor="middle" x="341" y="-63.5" font-family="verdana" font-size="10.00">R</text>
<polyline fill="none" stroke="#ffa300" points="352.5,-56.5 352.5,-75.5 "/>
<text text-anchor="middle" x="366.5" y="-63.5" font-family="verdana" font-size="10.00">...</text>
</g>
<!-- str1&#45;&gt;str -->
<g id="edge5" class="edge">
<title>str1:l&#45;&gt;str:3</title>
<path fill="none" stroke="black" d="M306,-66C306,-66 247.72,-36.21 224.96,-24.58"/>
<polygon fill="black" stroke="black" points="226.5,-21.43 216,-20 223.31,-27.67 226.5,-21.43"/>
</g>
<!-- str1&#45;&gt;str -->
<g id="edge6" class="edge">
<title>str1:r&#45;&gt;str:4</title>
<path fill="none" stroke="black" d="M341,-55C341,-55 274.31,-32.12 248.78,-23.36"/>
<polygon fill="black" stroke="black" points="249.59,-19.94 239,-20 247.32,-26.56 249.59,-19.94"/>
</g>
</g>
</svg>
