<?xml version="1.0" encoding="UTF-8" standalone="no"?>
<!DOCTYPE svg PUBLIC "-//W3C//DTD SVG 1.1//EN"
 "http://www.w3.org/Graphics/SVG/1.1/DTD/svg11.dtd">
<!-- Generated by graphviz version 14.1.2 (0)
 -->
<!-- Title: cache_coherency Pages: 1 -->
<svg width="1013pt" height="109pt"
 viewBox="0.00 0.00 1013.00 109.00" xmlns="http://www.w3.org/2000/svg" xmlns:xlink="http://www.w3.org/1999/xlink">
<g id="graph0" class="graph" transform="scale(1 1) rotate(0) translate(4 105)">
<title>cache_coherency</title>
<polygon fill="white" stroke="none" points="-4,4 -4,-105 1008.9,-105 1008.9,4 -4,4"/>
<g id="clust1" class="cluster">
<title>cluster_c0</title>
<path fill="#ebf5fb" stroke="#2980b9" d="M20,-8C20,-8 300.31,-8 300.31,-8 306.31,-8 312.31,-14 312.31,-20 312.31,-20 312.31,-81 312.31,-81 312.31,-87 306.31,-93 300.31,-93 300.31,-93 20,-93 20,-93 14,-93 8,-87 8,-81 8,-81 8,-20 8,-20 8,-14 14,-8 20,-8"/>
<text xml:space="preserve" text-anchor="middle" x="160.15" y="-79.5" font-family="Verdana-Bold" font-size="10.00" fill="#1b4f72">DSP Core 0 (Producer Core)</text>
</g>
<g id="clust2" class="cluster">
<title>cluster_sram</title>
<path fill="#fef5e7" stroke="#d35400" d="M404.06,-8C404.06,-8 555.09,-8 555.09,-8 561.09,-8 567.09,-14 567.09,-20 567.09,-20 567.09,-81 567.09,-81 567.09,-87 561.09,-93 555.09,-93 555.09,-93 404.06,-93 404.06,-93 398.06,-93 392.06,-87 392.06,-81 392.06,-81 392.06,-20 392.06,-20 392.06,-14 398.06,-8 404.06,-8"/>
<text xml:space="preserve" text-anchor="middle" x="479.57" y="-79.5" font-family="Verdana-Bold" font-size="10.00" fill="#a04000">Shared L2 HP&#45;SRAM</text>
</g>
<g id="clust3" class="cluster">
<title>cluster_c1</title>
<path fill="#f4ecf7" stroke="#8e44ad" d="M683.59,-8C683.59,-8 984.9,-8 984.9,-8 990.9,-8 996.9,-14 996.9,-20 996.9,-20 996.9,-81 996.9,-81 996.9,-87 990.9,-93 984.9,-93 984.9,-93 683.59,-93 683.59,-93 677.59,-93 671.59,-87 671.59,-81 671.59,-81 671.59,-20 671.59,-20 671.59,-14 677.59,-8 683.59,-8"/>
<text xml:space="preserve" text-anchor="middle" x="834.25" y="-79.5" font-family="Verdana-Bold" font-size="10.00" fill="#512e5f">DSP Core 1 (Consumer Core)</text>
</g>
<!-- c0_write -->
<g id="node1" class="node">
<title>c0_write</title>
<path fill="#aed6f1" stroke="black" d="M126.28,-57C126.28,-57 28,-57 28,-57 22,-57 16,-51 16,-45 16,-45 16,-33 16,-33 16,-27 22,-21 28,-21 28,-21 126.28,-21 126.28,-21 132.28,-21 138.28,-27 138.28,-33 138.28,-33 138.28,-45 138.28,-45 138.28,-51 132.28,-57 126.28,-57"/>
<text xml:space="preserve" text-anchor="middle" x="77.14" y="-43.2" font-family="verdana" font-size="9.00">1. Render Samples</text>
<text xml:space="preserve" text-anchor="middle" x="77.14" y="-30.45" font-family="verdana" font-size="9.00">(Write audio to L1 Cache)</text>
</g>
<!-- c0_wb -->
<g id="node2" class="node">
<title>c0_wb</title>
<polygon fill="#aed6f1" stroke="black" stroke-width="2" points="304.31,-62.45 169.28,-62.45 169.28,-15.55 304.31,-15.55 304.31,-62.45"/>
<text xml:space="preserve" text-anchor="middle" x="236.79" y="-49.58" font-family="verdana" font-size="9.00">2. Write&#45;Back Cache</text>
<text xml:space="preserve" text-anchor="middle" x="236.79" y="-36.83" font-family="verdana" font-size="9.00">dcache_writeback_region()</text>
<text xml:space="preserve" text-anchor="middle" x="236.79" y="-24.07" font-family="verdana" font-size="9.00">(Flushes dirty lines to SRAM)</text>
</g>
<!-- c0_write&#45;&gt;c0_wb -->
<g id="edge1" class="edge">
<title>c0_write&#45;&gt;c0_wb</title>
<path fill="none" stroke="#333333" d="M138.64,-39C144.83,-39 151.18,-39 157.52,-39"/>
<polygon fill="#333333" stroke="#333333" points="157.38,-42.5 167.38,-39 157.38,-35.5 157.38,-42.5"/>
</g>
<!-- shared_mem -->
<g id="node3" class="node">
<title>shared_mem</title>
<path fill="#fad7a0" stroke="black" d="M559.09,-58.2C559.09,-60.56 523.45,-62.47 479.57,-62.47 435.7,-62.47 400.06,-60.56 400.06,-58.2 400.06,-58.2 400.06,-19.8 400.06,-19.8 400.06,-17.44 435.7,-15.53 479.57,-15.53 523.45,-15.53 559.09,-17.44 559.09,-19.8 559.09,-19.8 559.09,-58.2 559.09,-58.2"/>
<path fill="none" stroke="black" d="M559.09,-58.2C559.09,-55.85 523.45,-53.94 479.57,-53.94 435.7,-53.94 400.06,-55.85 400.06,-58.2"/>
<text xml:space="preserve" text-anchor="middle" x="479.57" y="-43.2" font-family="verdana" font-size="9.00">Physical Shared Ring Buffer</text>
<text xml:space="preserve" text-anchor="middle" x="479.57" y="-30.45" font-family="verdana" font-size="9.00">(Audio Samples + Modulo Offsets)</text>
</g>
<!-- c0_wb&#45;&gt;shared_mem -->
<g id="edge3" class="edge">
<title>c0_wb&#45;&gt;shared_mem</title>
<path fill="none" stroke="#2980b9" stroke-width="1.5" d="M304.55,-39C330.25,-39 360.05,-39 387.65,-39"/>
<polygon fill="#2980b9" stroke="#2980b9" stroke-width="1.5" points="387.47,-42.5 397.47,-39 387.47,-35.5 387.47,-42.5"/>
<text xml:space="preserve" text-anchor="middle" x="352.18" y="-43.4" font-family="verdana" font-size="8.00">Flush Dirty Lines</text>
</g>
<!-- c1_inv -->
<g id="node4" class="node">
<title>c1_inv</title>
<polygon fill="#d7bde2" stroke="black" stroke-width="2" points="807.87,-62.45 679.59,-62.45 679.59,-15.55 807.87,-15.55 807.87,-62.45"/>
<text xml:space="preserve" text-anchor="middle" x="743.73" y="-49.58" font-family="verdana" font-size="9.00">3. Invalidate Cache</text>
<text xml:space="preserve" text-anchor="middle" x="743.73" y="-36.83" font-family="verdana" font-size="9.00">dcache_invalidate_region()</text>
<text xml:space="preserve" text-anchor="middle" x="743.73" y="-24.07" font-family="verdana" font-size="9.00">(Discards stale L1 lines)</text>
</g>
<!-- shared_mem&#45;&gt;c1_inv -->
<g id="edge4" class="edge">
<title>shared_mem&#45;&gt;c1_inv</title>
<path fill="none" stroke="#8e44ad" stroke-width="1.5" d="M559.59,-39C593.69,-39 633.41,-39 667.13,-39"/>
<polygon fill="#8e44ad" stroke="#8e44ad" stroke-width="1.5" points="666.98,-42.5 676.98,-39 666.98,-35.5 666.98,-42.5"/>
<text xml:space="preserve" text-anchor="middle" x="619.34" y="-43.4" font-family="verdana" font-size="8.00">Read Updated Memory</text>
</g>
<!-- c1_read -->
<g id="node5" class="node">
<title>c1_read</title>
<path fill="#d7bde2" stroke="black" d="M976.9,-57C976.9,-57 850.87,-57 850.87,-57 844.87,-57 838.87,-51 838.87,-45 838.87,-45 838.87,-33 838.87,-33 838.87,-27 844.87,-21 850.87,-21 850.87,-21 976.9,-21 976.9,-21 982.9,-21 988.9,-27 988.9,-33 988.9,-33 988.9,-45 988.9,-45 988.9,-51 982.9,-57 976.9,-57"/>
<text xml:space="preserve" text-anchor="middle" x="913.88" y="-43.2" font-family="verdana" font-size="9.00">4. Consume Samples</text>
<text xml:space="preserve" text-anchor="middle" x="913.88" y="-30.45" font-family="verdana" font-size="9.00">(Fetches fresh data from SRAM)</text>
</g>
<!-- c1_inv&#45;&gt;c1_read -->
<g id="edge2" class="edge">
<title>c1_inv&#45;&gt;c1_read</title>
<path fill="none" stroke="#333333" d="M808.3,-39C814.46,-39 820.78,-39 827.11,-39"/>
<polygon fill="#333333" stroke="#333333" points="826.98,-42.5 836.98,-39 826.98,-35.5 826.98,-42.5"/>
</g>
</g>
</svg>
