<?xml version="1.0" encoding="UTF-8" standalone="no"?>
<!DOCTYPE svg PUBLIC "-//W3C//DTD SVG 1.1//EN"
 "http://www.w3.org/Graphics/SVG/1.1/DTD/svg11.dtd">
<!-- Generated by graphviz version 2.43.0 (0)
 -->
<!-- Title: memory_zones Pages: 1 -->
<svg width="216pt" height="78pt"
 viewBox="0.00 0.00 216.00 78.32" xmlns="http://www.w3.org/2000/svg" xmlns:xlink="http://www.w3.org/1999/xlink">
<g id="graph0" class="graph" transform="scale(1.44 1.44) rotate(0) translate(4 108.77)">
<title>memory_zones</title>
<polygon fill="white" stroke="transparent" points="-4,4 -4,-108.77 307,-108.77 307,4 -4,4"/>
<!-- clients -->
<g id="node1" class="node">
<title>clients</title>
<polygon fill="none" stroke="black" points="0,-24.27 0,-93.27 100,-93.27 100,-24.27 0,-24.27"/>
<text text-anchor="middle" x="50" y="-78.07" font-family="verdana" font-size="14.00">applications</text>
<polyline fill="none" stroke="black" points="0,-70.27 100,-70.27 "/>
<text text-anchor="middle" x="50" y="-55.07" font-family="verdana" font-size="14.00">kernel</text>
<polyline fill="none" stroke="black" points="0,-47.27 100,-47.27 "/>
<text text-anchor="middle" x="50" y="-32.07" font-family="verdana" font-size="14.00">drivers</text>
</g>
<!-- zones -->
<g id="node2" class="node">
<title>zones</title>
<polygon fill="none" stroke="black" points="136,-35.27 136,-104.27 303,-104.27 303,-35.27 136,-35.27"/>
<text text-anchor="middle" x="219.5" y="-89.07" font-family="verdana" font-size="14.00">runtime zone</text>
<polyline fill="none" stroke="black" points="136,-81.27 303,-81.27 "/>
<text text-anchor="middle" x="219.5" y="-66.07" font-family="verdana" font-size="14.00">buffer zone</text>
<polyline fill="none" stroke="black" points="136,-58.27 303,-58.27 "/>
<text text-anchor="middle" x="188" y="-43.07" font-family="verdana" font-size="14.00">system zone</text>
<polyline fill="none" stroke="black" points="240,-35.27 240,-58.27 "/>
<text text-anchor="middle" x="271.5" y="-43.07" font-family="verdana" font-size="14.00">sys rt?</text>
</g>
<!-- clients&#45;&gt;zones -->
<g id="edge1" class="edge">
<title>clients:apps&#45;&gt;zones:rt</title>
<path fill="none" stroke="black" d="M100,-81.77C112.68,-81.77 117.21,-88.08 125.94,-91.14"/>
<polygon fill="black" stroke="black" points="125.57,-94.63 136,-92.77 126.69,-87.72 125.57,-94.63"/>
</g>
<!-- clients&#45;&gt;zones -->
<g id="edge2" class="edge">
<title>clients:apps&#45;&gt;zones:buf</title>
<path fill="none" stroke="black" d="M100,-81.77C112.78,-81.77 117.18,-74.88 125.9,-71.54"/>
<polygon fill="black" stroke="black" points="126.75,-74.94 136,-69.77 125.55,-68.05 126.75,-74.94"/>
</g>
<!-- clients&#45;&gt;zones -->
<g id="edge3" class="edge">
<title>clients:kernel&#45;&gt;zones:sys</title>
<path fill="none" stroke="black" d="M100.31,-49.37C108.61,-48.29 117.28,-47.43 125.77,-47.02"/>
<polygon fill="black" stroke="black" points="126.09,-50.52 136,-46.77 125.92,-43.52 126.09,-50.52"/>
</g>
<!-- clients&#45;&gt;zones -->
<g id="edge4" class="edge">
<title>clients:drv&#45;&gt;zones:sys_rt</title>
<path fill="none" stroke="black" stroke-dasharray="1,5" d="M100,-35.77C172.51,-35.77 262.24,35.01 270.83,-23.68"/>
<polygon fill="black" stroke="black" points="267.35,-24.02 271.5,-33.77 274.33,-23.56 267.35,-24.02"/>
</g>
</g>
</svg>
