<?xml version="1.0" encoding="UTF-8" standalone="no"?>
<!DOCTYPE svg PUBLIC "-//W3C//DTD SVG 1.1//EN"
 "http://www.w3.org/Graphics/SVG/1.1/DTD/svg11.dtd">
<!-- Generated by graphviz version 2.38.0 (20140413.2041)
 -->
<!-- Title: G Pages: 1 -->
<svg width="591pt" height="463pt"
 viewBox="0.00 0.00 591.00 463.00" xmlns="http://www.w3.org/2000/svg" xmlns:xlink="http://www.w3.org/1999/xlink">
<g id="graph0" class="graph" transform="scale(1 1) rotate(0) translate(4 459)">
<title>G</title>
<polygon fill="white" stroke="none" points="-4,4 -4,-459 587,-459 587,4 -4,4"/>
<g id="clust1" class="cluster"><title>clusterDsp</title>
<polygon fill="none" stroke="grey" points="8,-8 8,-447 78,-447 78,-8 8,-8"/>
</g>
<g id="clust2" class="cluster"><title>clusterL1</title>
<polygon fill="none" stroke="grey" points="170,-228 170,-447 240,-447 240,-228 170,-228"/>
</g>
<g id="clust3" class="cluster"><title>clusterImr</title>
<polygon fill="none" stroke="grey" points="505,-124 505,-343 575,-343 575,-124 505,-124"/>
</g>
<!-- dsp_1 -->
<g id="node1" class="node"><title>dsp_1</title>
<polygon fill="#f0f0f0" stroke="#f0f0f0" points="16,-402 16,-438 70,-438 70,-402 16,-402"/>
<text text-anchor="middle" x="43" y="-417.5" font-family="verdana" font-size="10.00">DSP</text>
</g>
<!-- l1_1 -->
<g id="node9" class="node"><title>l1_1</title>
<polygon fill="#e0e0e0" stroke="#e0e0e0" points="178,-402 178,-438 232,-438 232,-402 178,-402"/>
<text text-anchor="middle" x="205" y="-417.5" font-family="verdana" font-size="10.00">L1</text>
</g>
<!-- dsp_1&#45;&gt;l1_1 -->
<g id="edge1" class="edge"><title>dsp_1&#45;&gt;l1_1</title>
<path fill="none" stroke="black" d="M70.1152,-420C70.1152,-420 167.796,-420 167.796,-420"/>
<polygon fill="black" stroke="black" points="167.796,-423.5 177.796,-420 167.796,-416.5 167.796,-423.5"/>
</g>
<!-- dsp_2 -->
<g id="node2" class="node"><title>dsp_2</title>
<polygon fill="#f0f0f0" stroke="#f0f0f0" points="16,-347 16,-383 70,-383 70,-347 16,-347"/>
<text text-anchor="middle" x="43" y="-362.5" font-family="verdana" font-size="10.00">DSP</text>
</g>
<!-- l1_2 -->
<g id="node10" class="node"><title>l1_2</title>
<polygon fill="#e0e0e0" stroke="#e0e0e0" points="178,-347 178,-383 232,-383 232,-347 178,-347"/>
<text text-anchor="middle" x="205" y="-362.5" font-family="verdana" font-size="10.00">L1</text>
</g>
<!-- dsp_2&#45;&gt;l1_2 -->
<g id="edge4" class="edge"><title>dsp_2&#45;&gt;l1_2</title>
<path fill="none" stroke="black" d="M70.1152,-365C70.1152,-365 167.796,-365 167.796,-365"/>
<polygon fill="black" stroke="black" points="167.796,-368.5 177.796,-365 167.796,-361.5 167.796,-368.5"/>
</g>
<!-- dsp_3 -->
<g id="node3" class="node"><title>dsp_3</title>
<polygon fill="#f0f0f0" stroke="#f0f0f0" points="16,-182 16,-218 70,-218 70,-182 16,-182"/>
<text text-anchor="middle" x="43" y="-197.5" font-family="verdana" font-size="10.00">DSP</text>
</g>
<!-- hpsram_l2_3 -->
<g id="node14" class="node"><title>hpsram_l2_3</title>
<polygon fill="#d0d0d0" stroke="#d0d0d0" points="341,-182 341,-218 412,-218 412,-182 341,-182"/>
<text text-anchor="middle" x="376.5" y="-197.5" font-family="verdana" font-size="10.00">HPSRAM L2</text>
</g>
<!-- dsp_3&#45;&gt;hpsram_l2_3 -->
<g id="edge6" class="edge"><title>dsp_3&#45;&gt;hpsram_l2_3</title>
<path fill="none" stroke="black" d="M70.0092,-200C70.0092,-200 330.826,-200 330.826,-200"/>
<polygon fill="black" stroke="black" points="330.826,-203.5 340.826,-200 330.826,-196.5 330.826,-203.5"/>
</g>
<!-- dsp_4 -->
<g id="node4" class="node"><title>dsp_4</title>
<polygon fill="#f0f0f0" stroke="#f0f0f0" points="16,-127 16,-163 70,-163 70,-127 16,-127"/>
<text text-anchor="middle" x="43" y="-142.5" font-family="verdana" font-size="10.00">DSP</text>
</g>
<!-- imr_4 -->
<g id="node21" class="node"><title>imr_4</title>
<polygon fill="#c0c0c0" stroke="#c0c0c0" points="513,-133 513,-169 567,-169 567,-133 513,-133"/>
<text text-anchor="middle" x="540" y="-148.5" font-family="verdana" font-size="10.00">IMR</text>
</g>
<!-- dsp_4&#45;&gt;imr_4 -->
<g id="edge8" class="edge"><title>dsp_4&#45;&gt;imr_4</title>
<path fill="none" stroke="black" d="M70.0738,-148C70.0738,-148 502.902,-148 502.902,-148"/>
<polygon fill="black" stroke="black" points="502.902,-151.5 512.902,-148 502.902,-144.5 502.902,-151.5"/>
<text text-anchor="middle" x="290.5" y="-154" font-family="verdana" font-size="10.00">@ 9000 0000</text>
</g>
<!-- dsp_5 -->
<g id="node5" class="node"><title>dsp_5</title>
<polygon fill="#f0f0f0" stroke="#f0f0f0" points="16,-292 16,-328 70,-328 70,-292 16,-292"/>
<text text-anchor="middle" x="43" y="-307.5" font-family="verdana" font-size="10.00">DSP</text>
</g>
<!-- l1_5 -->
<g id="node11" class="node"><title>l1_5</title>
<polygon fill="#e0e0e0" stroke="#e0e0e0" points="178,-292 178,-328 232,-328 232,-292 178,-292"/>
<text text-anchor="middle" x="205" y="-307.5" font-family="verdana" font-size="10.00">L1</text>
</g>
<!-- dsp_5&#45;&gt;l1_5 -->
<g id="edge9" class="edge"><title>dsp_5&#45;&gt;l1_5</title>
<path fill="none" stroke="black" d="M70.1152,-310C70.1152,-310 167.796,-310 167.796,-310"/>
<polygon fill="black" stroke="black" points="167.796,-313.5 177.796,-310 167.796,-306.5 167.796,-313.5"/>
</g>
<!-- dsp_6 -->
<g id="node6" class="node"><title>dsp_6</title>
<polygon fill="#f0f0f0" stroke="#f0f0f0" points="16,-72 16,-108 70,-108 70,-72 16,-72"/>
<text text-anchor="middle" x="43" y="-87.5" font-family="verdana" font-size="10.00">DSP</text>
</g>
<!-- hpsram_local_6 -->
<g id="node16" class="node"><title>hpsram_local_6</title>
<polygon fill="#d0d0d0" stroke="#d0d0d0" points="170,-72 170,-108 240,-108 240,-72 170,-72"/>
<text text-anchor="middle" x="205" y="-93" font-family="verdana" font-size="10.00">HPSRAM</text>
<text text-anchor="middle" x="205" y="-82" font-family="verdana" font-size="10.00">Local mem</text>
</g>
<!-- dsp_6&#45;&gt;hpsram_local_6 -->
<g id="edge11" class="edge"><title>dsp_6&#45;&gt;hpsram_local_6</title>
<path fill="none" stroke="black" d="M70.1152,-90C70.1152,-90 159.861,-90 159.861,-90"/>
<polygon fill="black" stroke="black" points="159.861,-93.5001 169.861,-90 159.861,-86.5001 159.861,-93.5001"/>
<text text-anchor="middle" x="120" y="-93" font-family="verdana" font-size="10.00">@ 9E00 0000</text>
</g>
<!-- dsp_7 -->
<g id="node7" class="node"><title>dsp_7</title>
<polygon fill="#f0f0f0" stroke="#f0f0f0" points="16,-237 16,-273 70,-273 70,-237 16,-237"/>
<text text-anchor="middle" x="43" y="-252.5" font-family="verdana" font-size="10.00">DSP</text>
</g>
<!-- l1_7 -->
<g id="node12" class="node"><title>l1_7</title>
<polygon fill="#e0e0e0" stroke="#e0e0e0" points="178,-237 178,-273 232,-273 232,-237 178,-237"/>
<text text-anchor="middle" x="205" y="-252.5" font-family="verdana" font-size="10.00">L1</text>
</g>
<!-- dsp_7&#45;&gt;l1_7 -->
<g id="edge12" class="edge"><title>dsp_7&#45;&gt;l1_7</title>
<path fill="none" stroke="black" d="M70.1152,-255C70.1152,-255 167.796,-255 167.796,-255"/>
<polygon fill="black" stroke="black" points="167.796,-258.5 177.796,-255 167.796,-251.5 167.796,-258.5"/>
</g>
<!-- dsp_8 -->
<g id="node8" class="node"><title>dsp_8</title>
<polygon fill="#f0f0f0" stroke="#f0f0f0" points="16,-17 16,-53 70,-53 70,-17 16,-17"/>
<text text-anchor="middle" x="43" y="-32.5" font-family="verdana" font-size="10.00">DSP</text>
</g>
<!-- lpsram_local_8 -->
<g id="node18" class="node"><title>lpsram_local_8</title>
<polygon fill="#d0d0d0" stroke="#d0d0d0" points="170,-17 170,-53 240,-53 240,-17 170,-17"/>
<text text-anchor="middle" x="205" y="-38" font-family="verdana" font-size="10.00">LPSRAM</text>
<text text-anchor="middle" x="205" y="-27" font-family="verdana" font-size="10.00">Local mem</text>
</g>
<!-- dsp_8&#45;&gt;lpsram_local_8 -->
<g id="edge14" class="edge"><title>dsp_8&#45;&gt;lpsram_local_8</title>
<path fill="none" stroke="black" d="M70.1152,-35C70.1152,-35 159.861,-35 159.861,-35"/>
<polygon fill="black" stroke="black" points="159.861,-38.5001 169.861,-35 159.861,-31.5001 159.861,-38.5001"/>
<text text-anchor="middle" x="120" y="-38" font-family="verdana" font-size="10.00">@9E80 0000</text>
</g>
<!-- hpsram_l2_1 -->
<g id="node13" class="node"><title>hpsram_l2_1</title>
<polygon fill="#d0d0d0" stroke="#d0d0d0" points="341,-398 341,-434 412,-434 412,-398 341,-398"/>
<text text-anchor="middle" x="376.5" y="-413.5" font-family="verdana" font-size="10.00">HPSRAM L2</text>
</g>
<!-- l1_1&#45;&gt;hpsram_l2_1 -->
<g id="edge2" class="edge"><title>l1_1&#45;&gt;hpsram_l2_1</title>
<path fill="none" stroke="black" d="M232.175,-418C232.175,-418 330.816,-418 330.816,-418"/>
<polygon fill="black" stroke="black" points="330.816,-421.5 340.816,-418 330.816,-414.5 330.816,-421.5"/>
</g>
<!-- imr_2 -->
<g id="node20" class="node"><title>imr_2</title>
<polygon fill="#c0c0c0" stroke="#c0c0c0" points="513,-243 513,-279 567,-279 567,-243 513,-243"/>
<text text-anchor="middle" x="540" y="-258.5" font-family="verdana" font-size="10.00">IMR</text>
</g>
<!-- l1_2&#45;&gt;imr_2 -->
<g id="edge5" class="edge"><title>l1_2&#45;&gt;imr_2</title>
<path fill="none" stroke="black" d="M232.123,-365C298.363,-365 463,-365 463,-365 463,-365 463,-258 463,-258 463,-258 502.636,-258 502.636,-258"/>
<polygon fill="black" stroke="black" points="502.636,-261.5 512.636,-258 502.636,-254.5 502.636,-261.5"/>
<text text-anchor="middle" x="376.5" y="-368" font-family="verdana" font-size="10.00">@ B000 0000</text>
</g>
<!-- hpsram_local_5 -->
<g id="node15" class="node"><title>hpsram_local_5</title>
<polygon fill="#d0d0d0" stroke="#d0d0d0" points="341.5,-292 341.5,-328 411.5,-328 411.5,-292 341.5,-292"/>
<text text-anchor="middle" x="376.5" y="-313" font-family="verdana" font-size="10.00">HPSRAM</text>
<text text-anchor="middle" x="376.5" y="-302" font-family="verdana" font-size="10.00">Local mem</text>
</g>
<!-- l1_5&#45;&gt;hpsram_local_5 -->
<g id="edge10" class="edge"><title>l1_5&#45;&gt;hpsram_local_5</title>
<path fill="none" stroke="black" d="M232.175,-310C232.175,-310 331.438,-310 331.438,-310"/>
<polygon fill="black" stroke="black" points="331.438,-313.5 341.438,-310 331.438,-306.5 331.438,-313.5"/>
<text text-anchor="middle" x="290.5" y="-313" font-family="verdana" font-size="10.00">@ BE00 0000</text>
</g>
<!-- lpsram_local_7 -->
<g id="node17" class="node"><title>lpsram_local_7</title>
<polygon fill="#d0d0d0" stroke="#d0d0d0" points="341.5,-237 341.5,-273 411.5,-273 411.5,-237 341.5,-237"/>
<text text-anchor="middle" x="376.5" y="-258" font-family="verdana" font-size="10.00">LPSRAM</text>
<text text-anchor="middle" x="376.5" y="-247" font-family="verdana" font-size="10.00">Local mem</text>
</g>
<!-- l1_7&#45;&gt;lpsram_local_7 -->
<g id="edge13" class="edge"><title>l1_7&#45;&gt;lpsram_local_7</title>
<path fill="none" stroke="black" d="M232.175,-255C232.175,-255 331.438,-255 331.438,-255"/>
<polygon fill="black" stroke="black" points="331.438,-258.5 341.438,-255 331.438,-251.5 331.438,-258.5"/>
<text text-anchor="middle" x="290.5" y="-258" font-family="verdana" font-size="10.00">@BE80 0000</text>
</g>
<!-- imr_1 -->
<g id="node19" class="node"><title>imr_1</title>
<polygon fill="#c0c0c0" stroke="#c0c0c0" points="513,-298 513,-334 567,-334 567,-298 513,-298"/>
<text text-anchor="middle" x="540" y="-313.5" font-family="verdana" font-size="10.00">IMR</text>
</g>
<!-- hpsram_l2_1&#45;&gt;imr_1 -->
<g id="edge3" class="edge"><title>hpsram_l2_1&#45;&gt;imr_1</title>
<path fill="none" stroke="black" d="M412.381,-416C460.51,-416 540,-416 540,-416 540,-416 540,-344.342 540,-344.342"/>
<polygon fill="black" stroke="black" points="543.5,-344.342 540,-334.342 536.5,-344.342 543.5,-344.342"/>
<text text-anchor="middle" x="462.5" y="-408" font-family="verdana" font-size="10.00">@ A000 0000</text>
</g>
<!-- imr_3 -->
<g id="node22" class="node"><title>imr_3</title>
<polygon fill="#c0c0c0" stroke="#c0c0c0" points="513,-188 513,-224 567,-224 567,-188 513,-188"/>
<text text-anchor="middle" x="540" y="-203.5" font-family="verdana" font-size="10.00">IMR</text>
</g>
<!-- hpsram_l2_3&#45;&gt;imr_3 -->
<g id="edge7" class="edge"><title>hpsram_l2_3&#45;&gt;imr_3</title>
<path fill="none" stroke="black" d="M412.381,-203C412.381,-203 502.825,-203 502.825,-203"/>
<polygon fill="black" stroke="black" points="502.825,-206.5 512.825,-203 502.825,-199.5 502.825,-206.5"/>
<text text-anchor="middle" x="462.5" y="-207" font-family="verdana" font-size="10.00">@ 8000 0000</text>
</g>
</g>
</svg>
