<?xml version="1.0" encoding="UTF-8" standalone="no"?>
<!DOCTYPE svg PUBLIC "-//W3C//DTD SVG 1.1//EN"
 "http://www.w3.org/Graphics/SVG/1.1/DTD/svg11.dtd">
<!-- Generated by graphviz version 2.43.0 (0)
 -->
<!-- Title: runtime_zone Pages: 1 -->
<svg width="283pt" height="211pt"
 viewBox="0.00 0.00 283.00 211.00" xmlns="http://www.w3.org/2000/svg" xmlns:xlink="http://www.w3.org/1999/xlink">
<g id="graph0" class="graph" transform="scale(1 1) rotate(0) translate(4 207)">
<title>runtime_zone</title>
<polygon fill="white" stroke="transparent" points="-4,4 -4,-207 279,-207 279,4 -4,4"/>
<g id="clust1" class="cluster">
<title>cluster_rt_0</title>
<polygon fill="none" stroke="black" points="115,-8 115,-195 267,-195 267,-8 115,-8"/>
<text text-anchor="middle" x="191" y="-179.8" font-family="verdana" font-size="14.00">RUNTIME HEAP #0</text>
</g>
<g id="clust2" class="cluster">
<title>cluster_core_0</title>
<polygon fill="#f0f0f0" stroke="#f0f0f0" points="8,-16 8,-180 95,-180 95,-16 8,-16"/>
</g>
<!-- map0 -->
<g id="node1" class="node">
<title>map0</title>
<polygon fill="none" stroke="black" points="164,-127 164,-163 218,-163 218,-127 164,-127"/>
<text text-anchor="middle" x="191" y="-141.3" font-family="verdana" font-size="14.00">map</text>
</g>
<!-- rt0 -->
<g id="node2" class="node">
<title>rt0</title>
<polygon fill="none" stroke="black" points="123,-16 123,-108 259,-108 259,-16 123,-16"/>
<text text-anchor="middle" x="148" y="-92.8" font-family="verdana" font-size="14.00">64B</text>
<polyline fill="none" stroke="black" points="173,-85 173,-108 "/>
<text text-anchor="middle" x="198" y="-92.8" font-family="verdana" font-size="14.00">64B</text>
<polyline fill="none" stroke="black" points="223,-85 223,-108 "/>
<text text-anchor="middle" x="241" y="-92.8" font-family="verdana" font-size="14.00">...</text>
<polyline fill="none" stroke="black" points="123,-85 259,-85 "/>
<text text-anchor="middle" x="149.5" y="-69.8" font-family="verdana" font-size="14.00">128B</text>
<polyline fill="none" stroke="black" points="176,-62 176,-85 "/>
<text text-anchor="middle" x="202.5" y="-69.8" font-family="verdana" font-size="14.00">128B</text>
<polyline fill="none" stroke="black" points="229,-62 229,-85 "/>
<text text-anchor="middle" x="244" y="-69.8" font-family="verdana" font-size="14.00">...</text>
<polyline fill="none" stroke="black" points="123,-62 259,-62 "/>
<text text-anchor="middle" x="149.5" y="-46.8" font-family="verdana" font-size="14.00">256B</text>
<polyline fill="none" stroke="black" points="176,-39 176,-62 "/>
<text text-anchor="middle" x="202.5" y="-46.8" font-family="verdana" font-size="14.00">256B</text>
<polyline fill="none" stroke="black" points="229,-39 229,-62 "/>
<text text-anchor="middle" x="244" y="-46.8" font-family="verdana" font-size="14.00">...</text>
<polyline fill="none" stroke="black" points="123,-39 259,-39 "/>
<text text-anchor="middle" x="191" y="-23.8" font-family="verdana" font-size="14.00">....</text>
</g>
<!-- comp_0 -->
<g id="node3" class="node">
<title>comp_0</title>
<polygon fill="none" stroke="black" points="16,-80 16,-116 87,-116 87,-80 16,-80"/>
<text text-anchor="middle" x="51.5" y="-94.3" font-family="verdana" font-size="14.00">comp_0</text>
</g>
<!-- comp_0&#45;&gt;rt0 -->
<g id="edge1" class="edge">
<title>comp_0&#45;&gt;rt0:nw</title>
<path fill="none" stroke="black" d="M87.09,-106.83C112.76,-112.58 146.25,-118.23 163.92,-113.62"/>
<polygon fill="black" stroke="black" points="165.67,-116.65 173,-109 162.5,-110.41 165.67,-116.65"/>
</g>
<!-- comp_0&#45;&gt;rt0 -->
<g id="edge2" class="edge">
<title>comp_0&#45;&gt;rt0:nw</title>
<path fill="none" stroke="black" d="M87,-99.28C96.22,-98.29 105.86,-95.97 113.94,-91.2"/>
<polygon fill="black" stroke="black" points="116.2,-93.87 122,-85 111.94,-88.32 116.2,-93.87"/>
</g>
<!-- comp_1 -->
<g id="node4" class="node">
<title>comp_1</title>
<polygon fill="none" stroke="black" points="16,-25 16,-61 87,-61 87,-25 16,-25"/>
<text text-anchor="middle" x="51.5" y="-39.3" font-family="verdana" font-size="14.00">comp_1</text>
</g>
<!-- comp_1&#45;&gt;rt0 -->
<g id="edge3" class="edge">
<title>comp_1&#45;&gt;rt0:nw</title>
<path fill="none" stroke="black" d="M84.72,-61.02C109.79,-72.65 144.21,-83.1 168.04,-68.32"/>
<polygon fill="black" stroke="black" points="170.35,-70.96 176,-62 165.99,-65.48 170.35,-70.96"/>
</g>
<!-- comp_2 -->
<g id="node5" class="node">
<title>comp_2</title>
<polygon fill="none" stroke="black" points="16,-135 16,-171 87,-171 87,-135 16,-135"/>
<text text-anchor="middle" x="51.5" y="-149.3" font-family="verdana" font-size="14.00">comp_2</text>
</g>
<!-- comp_2&#45;&gt;rt0 -->
<g id="edge4" class="edge">
<title>comp_2&#45;&gt;rt0:nw</title>
<path fill="none" stroke="black" d="M86.44,-134.99C95.76,-129.29 105.73,-122.46 114.57,-114.87"/>
<polygon fill="black" stroke="black" points="117.03,-117.36 122,-108 112.28,-112.22 117.03,-117.36"/>
</g>
</g>
</svg>
