<?xml version="1.0" encoding="UTF-8" standalone="no"?>
<!DOCTYPE svg PUBLIC "-//W3C//DTD SVG 1.1//EN"
 "http://www.w3.org/Graphics/SVG/1.1/DTD/svg11.dtd">
<!-- Generated by graphviz version 14.1.2 (0)
 -->
<!-- Title: xrun_recovery Pages: 1 -->
<svg width="429pt" height="401pt"
 viewBox="0.00 0.00 429.00 401.00" xmlns="http://www.w3.org/2000/svg" xmlns:xlink="http://www.w3.org/1999/xlink">
<g id="graph0" class="graph" transform="scale(1 1) rotate(0) translate(4 397)">
<title>xrun_recovery</title>
<polygon fill="white" stroke="none" points="-4,4 -4,-397 425.15,-397 425.15,4 -4,4"/>
<!-- s1 -->
<g id="node1" class="node">
<title>s1</title>
<path fill="#abebc6" stroke="black" d="M409.15,-393C409.15,-393 142.12,-393 142.12,-393 136.12,-393 130.12,-387 130.12,-381 130.12,-381 130.12,-369 130.12,-369 130.12,-363 136.12,-357 142.12,-357 142.12,-357 409.15,-357 409.15,-357 415.15,-357 421.15,-363 421.15,-369 421.15,-369 421.15,-381 421.15,-381 421.15,-387 415.15,-393 409.15,-393"/>
<text xml:space="preserve" text-anchor="middle" x="275.64" y="-379.2" font-family="verdana" font-size="9.00">1. Normal Streaming State</text>
<text xml:space="preserve" text-anchor="middle" x="275.64" y="-366.45" font-family="verdana" font-size="9.00">(Periodic read and write operations maintain safe latency margin)</text>
</g>
<!-- s2 -->
<g id="node2" class="node">
<title>s2</title>
<polygon fill="#fadbd8" stroke="black" stroke-width="2" points="326.9,-315 40.38,-315 40.38,-279 326.9,-279 326.9,-315"/>
<text xml:space="preserve" text-anchor="middle" x="183.64" y="-301.2" font-family="verdana" font-size="9.00">2. XRUN Event Triggered</text>
<text xml:space="preserve" text-anchor="middle" x="183.64" y="-288.45" font-family="verdana" font-size="9.00">(Hardware DMA starvation or queue space exhaustion detected)</text>
</g>
<!-- s1&#45;&gt;s2 -->
<g id="edge1" class="edge">
<title>s1&#45;&gt;s2</title>
<path fill="none" stroke="#c0392b" stroke-width="1.5" d="M254.76,-356.75C242.73,-346.82 227.4,-334.15 214.05,-323.12"/>
<polygon fill="#c0392b" stroke="#c0392b" stroke-width="1.5" points="216.44,-320.56 206.5,-316.89 211.98,-325.95 216.44,-320.56"/>
<text xml:space="preserve" text-anchor="middle" x="261.4" y="-334.4" font-family="verdana" font-size="8.00">Latency Spike</text>
</g>
<!-- s3 -->
<g id="node3" class="node">
<title>s3</title>
<path fill="#f5b7b1" stroke="black" d="M315.15,-248C315.15,-248 30.12,-248 30.12,-248 24.12,-248 18.12,-242 18.12,-236 18.12,-236 18.12,-224 18.12,-224 18.12,-218 24.12,-212 30.12,-212 30.12,-212 315.15,-212 315.15,-212 321.15,-212 327.15,-218 327.15,-224 327.15,-224 327.15,-236 327.15,-236 327.15,-242 321.15,-248 315.15,-248"/>
<text xml:space="preserve" text-anchor="middle" x="172.64" y="-234.2" font-family="verdana" font-size="9.00">3. Pipeline Enters XRUN_PAUSED</text>
<text xml:space="preserve" text-anchor="middle" x="172.64" y="-221.45" font-family="verdana" font-size="9.00">(Processing temporarily halted to prevent reading corrupted memory)</text>
</g>
<!-- s2&#45;&gt;s3 -->
<g id="edge2" class="edge">
<title>s2&#45;&gt;s3</title>
<path fill="none" stroke="#333333" d="M180.69,-278.58C179.71,-272.75 178.58,-266.09 177.49,-259.64"/>
<polygon fill="#333333" stroke="#333333" points="180.97,-259.23 175.85,-249.96 174.07,-260.4 180.97,-259.23"/>
</g>
<!-- s4 -->
<g id="node4" class="node">
<title>s4</title>
<polygon fill="#f5b7b1" stroke="black" stroke-width="2" points="329.28,-170 0,-170 0,-134 329.28,-134 329.28,-170"/>
<text xml:space="preserve" text-anchor="middle" x="164.64" y="-156.2" font-family="verdana" font-size="9.00">4. Buffer Flush &amp; Pointer Resynchronization</text>
<text xml:space="preserve" text-anchor="middle" x="164.64" y="-143.45" font-family="verdana" font-size="9.00">(Stale samples cleared; _read_offset and _write_offset reset to initial offset)</text>
</g>
<!-- s3&#45;&gt;s4 -->
<g id="edge3" class="edge">
<title>s3&#45;&gt;s4</title>
<path fill="none" stroke="#333333" d="M170.82,-211.75C169.89,-202.88 168.73,-191.82 167.66,-181.7"/>
<polygon fill="#333333" stroke="#333333" points="171.16,-181.52 166.63,-171.95 164.2,-182.26 171.16,-181.52"/>
</g>
<!-- s5 -->
<g id="node5" class="node">
<title>s5</title>
<path fill="#d4e6f1" stroke="black" d="M305.78,-103C305.78,-103 93.5,-103 93.5,-103 87.5,-103 81.5,-97 81.5,-91 81.5,-91 81.5,-79 81.5,-79 81.5,-73 87.5,-67 93.5,-67 93.5,-67 305.78,-67 305.78,-67 311.78,-67 317.78,-73 317.78,-79 317.78,-79 317.78,-91 317.78,-91 317.78,-97 311.78,-103 305.78,-103"/>
<text xml:space="preserve" text-anchor="middle" x="199.64" y="-89.2" font-family="verdana" font-size="9.00">5. Component Re&#45;Preparation</text>
<text xml:space="preserve" text-anchor="middle" x="199.64" y="-76.45" font-family="verdana" font-size="9.00">(Filter delay lines and stream parameters refreshed)</text>
</g>
<!-- s4&#45;&gt;s5 -->
<g id="edge4" class="edge">
<title>s4&#45;&gt;s5</title>
<path fill="none" stroke="#333333" d="M174.02,-133.58C177.39,-127.32 181.28,-120.09 185,-113.19"/>
<polygon fill="#333333" stroke="#333333" points="187.86,-115.26 189.52,-104.8 181.69,-111.94 187.86,-115.26"/>
</g>
<!-- s6 -->
<g id="node6" class="node">
<title>s6</title>
<path fill="#aed6f1" stroke="black" d="M397.15,-36C397.15,-36 166.12,-36 166.12,-36 160.12,-36 154.12,-30 154.12,-24 154.12,-24 154.12,-12 154.12,-12 154.12,-6 160.12,0 166.12,0 166.12,0 397.15,0 397.15,0 403.15,0 409.15,-6 409.15,-12 409.15,-12 409.15,-24 409.15,-24 409.15,-30 403.15,-36 397.15,-36"/>
<text xml:space="preserve" text-anchor="middle" x="281.64" y="-22.2" font-family="verdana" font-size="9.00">6. Automatic Stream Resumption</text>
<text xml:space="preserve" text-anchor="middle" x="281.64" y="-9.45" font-family="verdana" font-size="9.00">(Pipeline triggers START; streaming seamlessly recovers)</text>
</g>
<!-- s5&#45;&gt;s6 -->
<g id="edge5" class="edge">
<title>s5&#45;&gt;s6</title>
<path fill="none" stroke="#333333" d="M221.61,-66.58C230.53,-59.51 240.99,-51.22 250.66,-43.56"/>
<polygon fill="#333333" stroke="#333333" points="252.76,-46.36 258.42,-37.41 248.41,-40.88 252.76,-46.36"/>
</g>
<!-- s6&#45;&gt;s1 -->
<g id="edge6" class="edge">
<title>s6&#45;&gt;s1</title>
<path fill="none" stroke="#27ae60" stroke-width="1.5" d="M326.96,-36.35C345.92,-46.82 363.64,-62.38 363.64,-84 363.64,-298 363.64,-298 363.64,-298 363.64,-320.59 346.83,-337.95 327.9,-350.34"/>
<polygon fill="#27ae60" stroke="#27ae60" stroke-width="1.5" points="326.3,-347.22 319.52,-355.37 329.9,-353.22 326.3,-347.22"/>
<text xml:space="preserve" text-anchor="middle" x="388.01" y="-189.4" font-family="verdana" font-size="8.00">Stable Audio</text>
</g>
</g>
</svg>
