<?xml version="1.0" encoding="UTF-8" standalone="no"?>
<!DOCTYPE svg PUBLIC "-//W3C//DTD SVG 1.1//EN"
 "http://www.w3.org/Graphics/SVG/1.1/DTD/svg11.dtd">
<!-- Generated by graphviz version 2.50.0 (20211204.2007)
 -->
<!-- Title: runtime_zone Pages: 1 -->
<svg width="288pt" height="212pt"
 viewBox="0.00 0.00 288.00 212.00" xmlns="http://www.w3.org/2000/svg" xmlns:xlink="http://www.w3.org/1999/xlink">
<g id="graph0" class="graph" transform="scale(1 1) rotate(0) translate(4 208)">
<title>runtime_zone</title>
<polygon fill="white" stroke="transparent" points="-4,4 -4,-208 284,-208 284,4 -4,4"/>
<g id="clust1" class="cluster">
<title>cluster_rt_0</title>
<polygon fill="none" stroke="black" points="118,-8 118,-196 272,-196 272,-8 118,-8"/>
<text text-anchor="middle" x="195" y="-180.8" font-family="verdana" font-size="14.00">RUNTIME HEAP #0</text>
</g>
<g id="clust2" class="cluster">
<title>cluster_core_0</title>
<polygon fill="#f0f0f0" stroke="#f0f0f0" points="8,-16 8,-180 98,-180 98,-16 8,-16"/>
</g>
<!-- map0 -->
<g id="node1" class="node">
<title>map0</title>
<polygon fill="none" stroke="black" points="168,-128 168,-164 222,-164 222,-128 168,-128"/>
<text text-anchor="middle" x="195" y="-142.3" font-family="verdana" font-size="14.00">map</text>
</g>
<!-- rt0 -->
<g id="node2" class="node">
<title>rt0</title>
<polygon fill="none" stroke="black" points="126,-17 126,-109 264,-109 264,-17 126,-17"/>
<text text-anchor="middle" x="151" y="-93.8" font-family="verdana" font-size="14.00">64B</text>
<polyline fill="none" stroke="black" points="176,-86 176,-109 "/>
<text text-anchor="middle" x="201" y="-93.8" font-family="verdana" font-size="14.00">64B</text>
<polyline fill="none" stroke="black" points="226,-86 226,-109 "/>
<text text-anchor="middle" x="245" y="-93.8" font-family="verdana" font-size="14.00">...</text>
<polyline fill="none" stroke="black" points="126,-86 264,-86 "/>
<text text-anchor="middle" x="152.5" y="-70.8" font-family="verdana" font-size="14.00">128B</text>
<polyline fill="none" stroke="black" points="179,-63 179,-86 "/>
<text text-anchor="middle" x="205.5" y="-70.8" font-family="verdana" font-size="14.00">128B</text>
<polyline fill="none" stroke="black" points="232,-63 232,-86 "/>
<text text-anchor="middle" x="248" y="-70.8" font-family="verdana" font-size="14.00">...</text>
<polyline fill="none" stroke="black" points="126,-63 264,-63 "/>
<text text-anchor="middle" x="152.5" y="-47.8" font-family="verdana" font-size="14.00">256B</text>
<polyline fill="none" stroke="black" points="179,-40 179,-63 "/>
<text text-anchor="middle" x="205.5" y="-47.8" font-family="verdana" font-size="14.00">256B</text>
<polyline fill="none" stroke="black" points="232,-40 232,-63 "/>
<text text-anchor="middle" x="248" y="-47.8" font-family="verdana" font-size="14.00">...</text>
<polyline fill="none" stroke="black" points="126,-40 264,-40 "/>
<text text-anchor="middle" x="195" y="-24.8" font-family="verdana" font-size="14.00">....</text>
</g>
<!-- comp_0 -->
<g id="node3" class="node">
<title>comp_0</title>
<polygon fill="none" stroke="black" points="16,-80 16,-116 90,-116 90,-80 16,-80"/>
<text text-anchor="middle" x="53" y="-94.3" font-family="verdana" font-size="14.00">comp_0</text>
</g>
<!-- comp_0&#45;&gt;rt0 -->
<g id="edge1" class="edge">
<title>comp_0&#45;&gt;rt0:nw</title>
<path fill="none" stroke="black" d="M90.23,-107.51C116.13,-113.46 149.38,-119.2 166.95,-114.61"/>
<polygon fill="black" stroke="black" points="168.68,-117.66 176,-110 165.5,-111.42 168.68,-117.66"/>
</g>
<!-- comp_0&#45;&gt;rt0 -->
<g id="edge2" class="edge">
<title>comp_0&#45;&gt;rt0:nw</title>
<path fill="none" stroke="black" d="M90.01,-100.02C99.27,-99.14 108.89,-96.9 116.95,-92.17"/>
<polygon fill="black" stroke="black" points="119.19,-94.86 125,-86 114.93,-89.31 119.19,-94.86"/>
</g>
<!-- comp_1 -->
<g id="node4" class="node">
<title>comp_1</title>
<polygon fill="none" stroke="black" points="16,-25 16,-61 90,-61 90,-25 16,-25"/>
<text text-anchor="middle" x="53" y="-39.3" font-family="verdana" font-size="14.00">comp_1</text>
</g>
<!-- comp_1&#45;&gt;rt0 -->
<g id="edge3" class="edge">
<title>comp_1&#45;&gt;rt0:nw</title>
<path fill="none" stroke="black" d="M85.77,-61.13C111.29,-73.3 146.76,-84.55 171.18,-69.25"/>
<polygon fill="black" stroke="black" points="173.37,-71.97 179,-63 169,-66.5 173.37,-71.97"/>
</g>
<!-- comp_2 -->
<g id="node5" class="node">
<title>comp_2</title>
<polygon fill="none" stroke="black" points="16,-135 16,-171 90,-171 90,-135 16,-135"/>
<text text-anchor="middle" x="53" y="-149.3" font-family="verdana" font-size="14.00">comp_2</text>
</g>
<!-- comp_2&#45;&gt;rt0 -->
<g id="edge4" class="edge">
<title>comp_2&#45;&gt;rt0:nw</title>
<path fill="none" stroke="black" d="M90.27,-134.89C99.4,-129.5 109.02,-123.08 117.53,-115.85"/>
<polygon fill="black" stroke="black" points="120,-118.34 125,-109 115.27,-113.18 120,-118.34"/>
</g>
</g>
</svg>
