<?xml version="1.0" encoding="UTF-8" standalone="no"?>
<!DOCTYPE svg PUBLIC "-//W3C//DTD SVG 1.1//EN"
 "http://www.w3.org/Graphics/SVG/1.1/DTD/svg11.dtd">
<!-- Generated by graphviz version 14.1.2 (0)
 -->
<!-- Title: module_architecture Pages: 1 -->
<svg width="1272pt" height="303pt"
 viewBox="0.00 0.00 1272.00 303.00" xmlns="http://www.w3.org/2000/svg" xmlns:xlink="http://www.w3.org/1999/xlink">
<g id="graph0" class="graph" transform="scale(1 1) rotate(0) translate(4 298.75)">
<title>module_architecture</title>
<polygon fill="white" stroke="none" points="-4,4 -4,-298.75 1268,-298.75 1268,4 -4,4"/>
<g id="clust1" class="cluster">
<title>cluster_sched</title>
<path fill="#ebf5fb" stroke="#2980b9" d="M20,-212.5C20,-212.5 394,-212.5 394,-212.5 400,-212.5 406,-218.5 406,-224.5 406,-224.5 406,-274.75 406,-274.75 406,-280.75 400,-286.75 394,-286.75 394,-286.75 20,-286.75 20,-286.75 14,-286.75 8,-280.75 8,-274.75 8,-274.75 8,-224.5 8,-224.5 8,-218.5 14,-212.5 20,-212.5"/>
<text xml:space="preserve" text-anchor="middle" x="207" y="-273.25" font-family="Verdana-Bold" font-size="10.00" fill="#1b4f72">Tier 1: SOF Core Pipeline Schedulers</text>
</g>
<g id="clust2" class="cluster">
<title>cluster_adapter</title>
<path fill="#eafaf1" stroke="#27ae60" d="M426,-8C426,-8 676,-8 676,-8 682,-8 688,-14 688,-20 688,-20 688,-274.75 688,-274.75 688,-280.75 682,-286.75 676,-286.75 676,-286.75 426,-286.75 426,-286.75 420,-286.75 414,-280.75 414,-274.75 414,-274.75 414,-20 414,-20 414,-14 420,-8 426,-8"/>
<text xml:space="preserve" text-anchor="middle" x="551" y="-273.25" font-family="Verdana-Bold" font-size="10.00" fill="#1e8449">Tier 2: Module Adapter System Layer (Sandbox &amp; Proxy)</text>
</g>
<g id="clust3" class="cluster">
<title>cluster_interface</title>
<path fill="#f4ecf7" stroke="#8e44ad" d="M804,-8C804,-8 1244,-8 1244,-8 1250,-8 1256,-14 1256,-20 1256,-20 1256,-70.25 1256,-70.25 1256,-76.25 1250,-82.25 1244,-82.25 1244,-82.25 804,-82.25 804,-82.25 798,-82.25 792,-76.25 792,-70.25 792,-70.25 792,-20 792,-20 792,-14 798,-8 804,-8"/>
<text xml:space="preserve" text-anchor="middle" x="1024" y="-68.75" font-family="Verdana-Bold" font-size="10.00" fill="#512e5f">Tier 3: Standardized Module Framework &amp; Processing APIs</text>
</g>
<g id="clust4" class="cluster">
<title>cluster_modules</title>
<path fill="#fef5e7" stroke="#d35400" d="M708,-110.25C708,-110.25 1178,-110.25 1178,-110.25 1184,-110.25 1190,-116.25 1190,-122.25 1190,-122.25 1190,-172.5 1190,-172.5 1190,-178.5 1184,-184.5 1178,-184.5 1178,-184.5 708,-184.5 708,-184.5 702,-184.5 696,-178.5 696,-172.5 696,-172.5 696,-122.25 696,-122.25 696,-116.25 702,-110.25 708,-110.25"/>
<text xml:space="preserve" text-anchor="middle" x="943" y="-171" font-family="Verdana-Bold" font-size="10.00" fill="#a04000">Concrete Audio Processing Modules</text>
</g>
<!-- ll_sched -->
<g id="node1" class="node">
<title>ll_sched</title>
<path fill="#aed6f1" stroke="black" d="M189.64,-256.5C189.64,-256.5 28.36,-256.5 28.36,-256.5 22.36,-256.5 16.36,-250.5 16.36,-244.5 16.36,-244.5 16.36,-232.5 16.36,-232.5 16.36,-226.5 22.36,-220.5 28.36,-220.5 28.36,-220.5 189.64,-220.5 189.64,-220.5 195.64,-220.5 201.64,-226.5 201.64,-232.5 201.64,-232.5 201.64,-244.5 201.64,-244.5 201.64,-250.5 195.64,-256.5 189.64,-256.5"/>
<text xml:space="preserve" text-anchor="middle" x="109" y="-242.7" font-family="verdana" font-size="9.00">Low&#45;Latency (LL) Scheduler</text>
<text xml:space="preserve" text-anchor="middle" x="109" y="-229.95" font-family="verdana" font-size="9.00">(1ms Hardware Timer / DMA Interrupts)</text>
</g>
<!-- ma_proxy -->
<g id="node3" class="node">
<title>ma_proxy</title>
<path fill="#a9dfbf" stroke="black" d="M594.51,-154.25C594.51,-154.25 441.49,-154.25 441.49,-154.25 435.49,-154.25 429.49,-148.25 429.49,-142.25 429.49,-142.25 429.49,-130.25 429.49,-130.25 429.49,-124.25 435.49,-118.25 441.49,-118.25 441.49,-118.25 594.51,-118.25 594.51,-118.25 600.51,-118.25 606.51,-124.25 606.51,-130.25 606.51,-130.25 606.51,-142.25 606.51,-142.25 606.51,-148.25 600.51,-154.25 594.51,-154.25"/>
<text xml:space="preserve" text-anchor="middle" x="518" y="-140.45" font-family="verdana" font-size="9.00">Module Adapter Component Proxy</text>
<text xml:space="preserve" text-anchor="middle" x="518" y="-127.7" font-family="verdana" font-size="9.00">(Masquerades as standard comp_dev)</text>
</g>
<!-- ll_sched&#45;&gt;ma_proxy -->
<g id="edge1" class="edge">
<title>ll_sched&#45;&gt;ma_proxy</title>
<path fill="none" stroke="#333333" d="M180.24,-220.04C251.57,-202.55 361.22,-175.68 436.1,-157.32"/>
<polygon fill="#333333" stroke="#333333" points="436.54,-160.82 445.42,-155.04 434.87,-154.02 436.54,-160.82"/>
<text xml:space="preserve" text-anchor="middle" x="315.26" y="-196.9" font-family="verdana" font-size="8.00">Trigger / Copy</text>
</g>
<!-- dp_sched -->
<g id="node2" class="node">
<title>dp_sched</title>
<path fill="#aed6f1" stroke="black" d="M386.39,-256.5C386.39,-256.5 235.61,-256.5 235.61,-256.5 229.61,-256.5 223.61,-250.5 223.61,-244.5 223.61,-244.5 223.61,-232.5 223.61,-232.5 223.61,-226.5 229.61,-220.5 235.61,-220.5 235.61,-220.5 386.39,-220.5 386.39,-220.5 392.39,-220.5 398.39,-226.5 398.39,-232.5 398.39,-232.5 398.39,-244.5 398.39,-244.5 398.39,-250.5 392.39,-256.5 386.39,-256.5"/>
<text xml:space="preserve" text-anchor="middle" x="311" y="-242.7" font-family="verdana" font-size="9.00">Data Processing (DP) Scheduler</text>
<text xml:space="preserve" text-anchor="middle" x="311" y="-229.95" font-family="verdana" font-size="9.00">(Asynchronous Zephyr RTOS Threads)</text>
</g>
<!-- dp_sched&#45;&gt;ma_proxy -->
<g id="edge2" class="edge">
<title>dp_sched&#45;&gt;ma_proxy</title>
<path fill="none" stroke="#333333" d="M347.06,-220.04C381.68,-203.27 434.14,-177.87 471.8,-159.62"/>
<polygon fill="#333333" stroke="#333333" points="473.17,-162.85 480.65,-155.34 470.12,-156.55 473.17,-162.85"/>
<text xml:space="preserve" text-anchor="middle" x="424.98" y="-196.9" font-family="verdana" font-size="8.00">Thread Exec</text>
</g>
<!-- ma_mem -->
<g id="node5" class="node">
<title>ma_mem</title>
<path fill="#a9dfbf" stroke="black" d="M602.39,-52C602.39,-52 433.61,-52 433.61,-52 427.61,-52 421.61,-46 421.61,-40 421.61,-40 421.61,-28 421.61,-28 421.61,-22 427.61,-16 433.61,-16 433.61,-16 602.39,-16 602.39,-16 608.39,-16 614.39,-22 614.39,-28 614.39,-28 614.39,-40 614.39,-40 614.39,-46 608.39,-52 602.39,-52"/>
<text xml:space="preserve" text-anchor="middle" x="518" y="-38.2" font-family="verdana" font-size="9.00">Memory Sandbox Manager</text>
<text xml:space="preserve" text-anchor="middle" x="518" y="-25.45" font-family="verdana" font-size="9.00">(Component Heap &amp; Object Pool Tracking)</text>
</g>
<!-- ma_proxy&#45;&gt;ma_mem -->
<g id="edge4" class="edge">
<title>ma_proxy&#45;&gt;ma_mem</title>
<path fill="none" stroke="#333333" d="M518,-117.79C518,-102.84 518,-81.02 518,-63.54"/>
<polygon fill="#333333" stroke="#333333" points="521.5,-63.78 518,-53.78 514.5,-63.78 521.5,-63.78"/>
<text xml:space="preserve" text-anchor="middle" x="535.62" y="-94.65" font-family="verdana" font-size="8.00">Manages</text>
</g>
<!-- mod_ops -->
<g id="node6" class="node">
<title>mod_ops</title>
<path fill="#d7bde2" stroke="black" d="M947.89,-52C947.89,-52 812.11,-52 812.11,-52 806.11,-52 800.11,-46 800.11,-40 800.11,-40 800.11,-28 800.11,-28 800.11,-22 806.11,-16 812.11,-16 812.11,-16 947.89,-16 947.89,-16 953.89,-16 959.89,-22 959.89,-28 959.89,-28 959.89,-40 959.89,-40 959.89,-46 953.89,-52 947.89,-52"/>
<text xml:space="preserve" text-anchor="middle" x="880" y="-38.2" font-family="verdana" font-size="9.00">Standardized Operations</text>
<text xml:space="preserve" text-anchor="middle" x="880" y="-25.45" font-family="verdana" font-size="9.00">(init, prepare, process, reset, free)</text>
</g>
<!-- ma_proxy&#45;&gt;mod_ops -->
<g id="edge3" class="edge">
<title>ma_proxy&#45;&gt;mod_ops</title>
<path fill="none" stroke="#333333" d="M581.06,-117.79C643.8,-100.41 740.04,-73.76 806.29,-55.41"/>
<polygon fill="#333333" stroke="#333333" points="806.9,-58.88 815.6,-52.83 805.03,-52.13 806.9,-58.88"/>
<text xml:space="preserve" text-anchor="middle" x="691.95" y="-94.65" font-family="verdana" font-size="8.00">Invokes</text>
</g>
<!-- ma_ipc -->
<g id="node4" class="node">
<title>ma_ipc</title>
<path fill="#a9dfbf" stroke="black" d="M603.76,-256.5C603.76,-256.5 434.24,-256.5 434.24,-256.5 428.24,-256.5 422.24,-250.5 422.24,-244.5 422.24,-244.5 422.24,-232.5 422.24,-232.5 422.24,-226.5 428.24,-220.5 434.24,-220.5 434.24,-220.5 603.76,-220.5 603.76,-220.5 609.76,-220.5 615.76,-226.5 615.76,-232.5 615.76,-232.5 615.76,-244.5 615.76,-244.5 615.76,-250.5 609.76,-256.5 603.76,-256.5"/>
<text xml:space="preserve" text-anchor="middle" x="519" y="-242.7" font-family="verdana" font-size="9.00">IPC Parameter &amp; Config Dispatcher</text>
<text xml:space="preserve" text-anchor="middle" x="519" y="-229.95" font-family="verdana" font-size="9.00">(Decodes Set/Get Value and Set/Get Data)</text>
</g>
<!-- ma_ipc&#45;&gt;ma_proxy -->
<g id="edge5" class="edge">
<title>ma_ipc&#45;&gt;ma_proxy</title>
<path fill="none" stroke="#333333" d="M518.83,-220.04C518.68,-205.09 518.46,-183.27 518.28,-165.79"/>
<polygon fill="#333333" stroke="#333333" points="521.79,-165.99 518.19,-156.03 514.79,-166.06 521.79,-165.99"/>
<text xml:space="preserve" text-anchor="middle" x="538.52" y="-196.9" font-family="verdana" font-size="8.00">IPC Events</text>
</g>
<!-- mod_vol -->
<g id="node9" class="node">
<title>mod_vol</title>
<path fill="#fad7a0" stroke="black" d="M1065.89,-154.25C1065.89,-154.25 990.11,-154.25 990.11,-154.25 984.11,-154.25 978.11,-148.25 978.11,-142.25 978.11,-142.25 978.11,-130.25 978.11,-130.25 978.11,-124.25 984.11,-118.25 990.11,-118.25 990.11,-118.25 1065.89,-118.25 1065.89,-118.25 1071.89,-118.25 1077.89,-124.25 1077.89,-130.25 1077.89,-130.25 1077.89,-142.25 1077.89,-142.25 1077.89,-148.25 1071.89,-154.25 1065.89,-154.25"/>
<text xml:space="preserve" text-anchor="middle" x="1028" y="-140.45" font-family="verdana" font-size="9.00">Volume / Mute</text>
<text xml:space="preserve" text-anchor="middle" x="1028" y="-127.7" font-family="verdana" font-size="9.00">(SIMD Vector Math)</text>
</g>
<!-- mod_ops&#45;&gt;mod_vol -->
<g id="edge6" class="edge">
<title>mod_ops&#45;&gt;mod_vol</title>
<path fill="none" stroke="#333333" d="M905.48,-52.26C929.58,-68.58 965.94,-93.21 992.8,-111.4"/>
<polygon fill="#333333" stroke="#333333" points="990.72,-114.23 1000.97,-116.94 994.65,-108.43 990.72,-114.23"/>
</g>
<!-- mod_eq -->
<g id="node10" class="node">
<title>mod_eq</title>
<path fill="#fad7a0" stroke="black" d="M1170.27,-154.25C1170.27,-154.25 1111.73,-154.25 1111.73,-154.25 1105.73,-154.25 1099.73,-148.25 1099.73,-142.25 1099.73,-142.25 1099.73,-130.25 1099.73,-130.25 1099.73,-124.25 1105.73,-118.25 1111.73,-118.25 1111.73,-118.25 1170.27,-118.25 1170.27,-118.25 1176.27,-118.25 1182.27,-124.25 1182.27,-130.25 1182.27,-130.25 1182.27,-142.25 1182.27,-142.25 1182.27,-148.25 1176.27,-154.25 1170.27,-154.25"/>
<text xml:space="preserve" text-anchor="middle" x="1141" y="-140.45" font-family="verdana" font-size="9.00">Parametric EQ</text>
<text xml:space="preserve" text-anchor="middle" x="1141" y="-127.7" font-family="verdana" font-size="9.00">(FIR / IIR Filters)</text>
</g>
<!-- mod_ops&#45;&gt;mod_eq -->
<g id="edge7" class="edge">
<title>mod_ops&#45;&gt;mod_eq</title>
<path fill="none" stroke="#333333" d="M906.27,-52.33C923.82,-62.96 947.87,-75.74 971,-82.25 1020.32,-96.12 1038.37,-71.36 1086,-90.25 1097.35,-94.75 1108.15,-102.5 1117.12,-110.32"/>
<polygon fill="#333333" stroke="#333333" points="1114.62,-112.77 1124.33,-117 1119.38,-107.63 1114.62,-112.77"/>
</g>
<!-- mod_aec -->
<g id="node11" class="node">
<title>mod_aec</title>
<path fill="#fad7a0" stroke="black" d="M794.01,-154.25C794.01,-154.25 715.99,-154.25 715.99,-154.25 709.99,-154.25 703.99,-148.25 703.99,-142.25 703.99,-142.25 703.99,-130.25 703.99,-130.25 703.99,-124.25 709.99,-118.25 715.99,-118.25 715.99,-118.25 794.01,-118.25 794.01,-118.25 800.01,-118.25 806.01,-124.25 806.01,-130.25 806.01,-130.25 806.01,-142.25 806.01,-142.25 806.01,-148.25 800.01,-154.25 794.01,-154.25"/>
<text xml:space="preserve" text-anchor="middle" x="755" y="-140.45" font-family="verdana" font-size="9.00">Echo Cancellation</text>
<text xml:space="preserve" text-anchor="middle" x="755" y="-127.7" font-family="verdana" font-size="9.00">(AEC / Beamformer)</text>
</g>
<!-- mod_ops&#45;&gt;mod_aec -->
<g id="edge8" class="edge">
<title>mod_ops&#45;&gt;mod_aec</title>
<path fill="none" stroke="#333333" d="M858.48,-52.26C838.39,-68.37 808.22,-92.57 785.63,-110.68"/>
<polygon fill="#333333" stroke="#333333" points="783.57,-107.85 777.95,-116.84 787.94,-113.31 783.57,-107.85"/>
</g>
<!-- mod_dyn -->
<g id="node12" class="node">
<title>mod_dyn</title>
<polygon fill="#f5b041" stroke="black" stroke-width="2" points="956.14,-154.25 827.86,-154.25 827.86,-118.25 956.14,-118.25 956.14,-154.25"/>
<text xml:space="preserve" text-anchor="middle" x="892" y="-140.45" font-family="verdana" font-size="9.00">Loadable Dynamic Module</text>
<text xml:space="preserve" text-anchor="middle" x="892" y="-127.7" font-family="verdana" font-size="9.00">(Zephyr LLEXT / Vendor IP)</text>
</g>
<!-- mod_ops&#45;&gt;mod_dyn -->
<g id="edge9" class="edge">
<title>mod_ops&#45;&gt;mod_dyn</title>
<path fill="none" stroke="#333333" d="M882.07,-52.26C883.85,-67.15 886.46,-88.96 888.56,-106.48"/>
<polygon fill="#333333" stroke="#333333" points="885.07,-106.77 889.73,-116.28 892.02,-105.94 885.07,-106.77"/>
</g>
<!-- src_api -->
<g id="node7" class="node">
<title>src_api</title>
<path fill="#d7bde2" stroke="black" d="M1094.27,-52C1094.27,-52 993.74,-52 993.74,-52 987.74,-52 981.74,-46 981.74,-40 981.74,-40 981.74,-28 981.74,-28 981.74,-22 987.74,-16 993.74,-16 993.74,-16 1094.27,-16 1094.27,-16 1100.27,-16 1106.27,-22 1106.27,-28 1106.27,-28 1106.27,-40 1106.27,-40 1106.27,-46 1100.27,-52 1094.27,-52"/>
<text xml:space="preserve" text-anchor="middle" x="1044" y="-38.2" font-family="verdana" font-size="9.00">Source API (Inputs)</text>
<text xml:space="preserve" text-anchor="middle" x="1044" y="-25.45" font-family="verdana" font-size="9.00">source_get_data / release</text>
</g>
<!-- snk_api -->
<g id="node8" class="node">
<title>snk_api</title>
<path fill="#d7bde2" stroke="black" d="M1235.64,-52C1235.64,-52 1140.36,-52 1140.36,-52 1134.36,-52 1128.36,-46 1128.36,-40 1128.36,-40 1128.36,-28 1128.36,-28 1128.36,-22 1134.36,-16 1140.36,-16 1140.36,-16 1235.64,-16 1235.64,-16 1241.64,-16 1247.64,-22 1247.64,-28 1247.64,-28 1247.64,-40 1247.64,-40 1247.64,-46 1241.64,-52 1235.64,-52"/>
<text xml:space="preserve" text-anchor="middle" x="1188" y="-38.2" font-family="verdana" font-size="9.00">Sink API (Outputs)</text>
<text xml:space="preserve" text-anchor="middle" x="1188" y="-25.45" font-family="verdana" font-size="9.00">sink_get_buffer / commit</text>
</g>
<!-- mod_vol&#45;&gt;src_api -->
<g id="edge10" class="edge">
<title>mod_vol&#45;&gt;src_api</title>
<path fill="none" stroke="#333333" stroke-dasharray="5,2" d="M1020.93,-118.14C1018.34,-109.73 1016.48,-99.45 1018.5,-90.25 1020.57,-80.82 1024.41,-71.08 1028.5,-62.45"/>
<polygon fill="#333333" stroke="#333333" points="1031.6,-64.08 1033,-53.58 1025.36,-60.91 1031.6,-64.08"/>
<text xml:space="preserve" text-anchor="middle" x="1028.25" y="-94.65" font-family="verdana" font-size="8.00">Read</text>
</g>
<!-- mod_vol&#45;&gt;snk_api -->
<g id="edge11" class="edge">
<title>mod_vol&#45;&gt;snk_api</title>
<path fill="none" stroke="#333333" stroke-dasharray="5,2" d="M1048,-117.94C1059.56,-108.65 1074.76,-97.64 1089.75,-90.25 1101.07,-84.67 1105.56,-87.58 1117,-82.25 1130.66,-75.88 1144.68,-67.11 1156.62,-58.85"/>
<polygon fill="#333333" stroke="#333333" points="1158.34,-61.91 1164.46,-53.27 1154.29,-56.21 1158.34,-61.91"/>
<text xml:space="preserve" text-anchor="middle" x="1099.88" y="-94.65" font-family="verdana" font-size="8.00">Write</text>
</g>
<!-- mod_eq&#45;&gt;src_api -->
<g id="edge12" class="edge">
<title>mod_eq&#45;&gt;src_api</title>
<path fill="none" stroke="#333333" stroke-dasharray="5,2" d="M1133.03,-117.99C1128.47,-109.16 1122.23,-98.55 1115,-90.25 1104.96,-78.73 1092.22,-67.94 1080.32,-59.01"/>
<polygon fill="#333333" stroke="#333333" points="1082.39,-56.19 1072.24,-53.16 1078.29,-61.86 1082.39,-56.19"/>
<text xml:space="preserve" text-anchor="middle" x="1133.28" y="-94.65" font-family="verdana" font-size="8.00">Read</text>
</g>
<!-- mod_eq&#45;&gt;snk_api -->
<g id="edge13" class="edge">
<title>mod_eq&#45;&gt;snk_api</title>
<path fill="none" stroke="#333333" stroke-dasharray="5,2" d="M1153,-117.82C1156.13,-112.9 1159.37,-107.46 1162,-102.25 1168.35,-89.68 1174.15,-75.16 1178.64,-62.84"/>
<polygon fill="#333333" stroke="#333333" points="1181.84,-64.28 1181.88,-53.69 1175.24,-61.95 1181.84,-64.28"/>
<text xml:space="preserve" text-anchor="middle" x="1177.19" y="-94.65" font-family="verdana" font-size="8.00">Write</text>
</g>
</g>
</svg>
