<?xml version="1.0" encoding="UTF-8" standalone="no"?>
<!DOCTYPE svg PUBLIC "-//W3C//DTD SVG 1.1//EN"
 "http://www.w3.org/Graphics/SVG/1.1/DTD/svg11.dtd">
<!-- Generated by graphviz version 2.38.0 (20140413.2041)
 -->
<!-- Title: build_proc_traces Pages: 1 -->
<svg width="481pt" height="147pt"
 viewBox="0.00 0.00 481.00 146.50" xmlns="http://www.w3.org/2000/svg" xmlns:xlink="http://www.w3.org/1999/xlink">
<g id="graph0" class="graph" transform="scale(1 1) rotate(0) translate(4 142.5)">
<title>build_proc_traces</title>
<polygon fill="white" stroke="none" points="-4,4 -4,-142.5 477,-142.5 477,4 -4,4"/>
<!-- src -->
<g id="node1" class="node"><title>src</title>
<polygon fill="none" stroke="black" points="0,-26.5 0,-64.5 155,-64.5 155,-26.5 0,-26.5"/>
<text text-anchor="middle" x="77.5" y="-49.3" font-family="verdana" font-size="14.00">source files</text>
<text text-anchor="middle" x="77.5" y="-34.3" font-family="verdana" font-size="14.00"> { trace_event(...) }</text>
</g>
<!-- elf -->
<g id="node2" class="node"><title>elf</title>
<polygon fill="none" stroke="black" points="231,-7 231,-138 373,-138 373,-7 231,-7"/>
<text text-anchor="middle" x="302" y="-122.8" font-family="verdana" font-size="14.00">ELF</text>
<polyline fill="none" stroke="black" points="231,-115 373,-115 "/>
<text text-anchor="middle" x="302" y="-99.8" font-family="verdana" font-size="14.00">.text</text>
<polyline fill="none" stroke="black" points="231,-92 373,-92 "/>
<text text-anchor="middle" x="302" y="-76.8" font-family="verdana" font-size="14.00">.data</text>
<polyline fill="none" stroke="black" points="231,-69 373,-69 "/>
<text text-anchor="middle" x="302" y="-53.8" font-family="verdana" font-size="14.00">...</text>
<polyline fill="none" stroke="black" points="231,-30 373,-30 "/>
<text text-anchor="middle" x="302" y="-14.8" font-family="verdana" font-size="14.00">.static_log_entries</text>
</g>
<!-- src&#45;&gt;elf -->
<g id="edge1" class="edge"><title>src&#45;&gt;elf</title>
<path fill="none" stroke="black" d="M155.011,-59.0007C161.088,-59.9062 167.14,-60.7534 173,-61.5 188.336,-63.454 204.752,-65.1563 220.538,-66.5999"/>
<polygon fill="black" stroke="black" points="220.532,-70.1131 230.803,-67.5113 221.152,-63.1405 220.532,-70.1131"/>
</g>
<!-- src&#45;&gt;elf -->
<g id="edge2" class="edge"><title>src&#45;&gt;elf:sle</title>
<path fill="none" stroke="black" stroke-dasharray="1,5" d="M123.346,-26.3846C138.788,-20.7387 156.381,-15.3183 173,-12.5 190.528,-9.52765 195.452,-9.65232 213,-12.5 216.642,-13.091 218.928,-14.3133 221.054,-15.5014"/>
<polygon fill="black" stroke="black" points="220.415,-18.9643 231,-18.5 222.436,-12.2623 220.415,-18.9643"/>
<text text-anchor="middle" x="193" y="-46.3" font-family="verdana" font-size="14.00">trace</text>
<text text-anchor="middle" x="193" y="-31.3" font-family="verdana" font-size="14.00">event</text>
<text text-anchor="middle" x="193" y="-16.3" font-family="verdana" font-size="14.00">data</text>
</g>
<!-- ri -->
<g id="node3" class="node"><title>ri</title>
<polygon fill="none" stroke="black" points="412,-60.5 412,-96.5 471,-96.5 471,-60.5 412,-60.5"/>
<text text-anchor="middle" x="441.5" y="-74.8" font-family="verdana" font-size="14.00">sof&#45; .ri</text>
</g>
<!-- elf&#45;&gt;ri -->
<g id="edge3" class="edge"><title>elf:text&#45;&gt;ri</title>
<path fill="none" stroke="black" d="M373,-103.5C382.831,-103.5 392.995,-101.139 402.358,-97.8681"/>
<polygon fill="black" stroke="black" points="403.735,-101.088 411.778,-94.1909 401.19,-94.5669 403.735,-101.088"/>
</g>
<!-- elf&#45;&gt;ri -->
<g id="edge4" class="edge"><title>elf:data&#45;&gt;ri</title>
<path fill="none" stroke="black" d="M373,-80.5C382.285,-80.5 392.285,-80.3086 401.669,-80.0442"/>
<polygon fill="black" stroke="black" points="402.046,-83.5342 411.931,-79.721 401.826,-76.5376 402.046,-83.5342"/>
</g>
<!-- elf&#45;&gt;ri -->
<g id="edge5" class="edge"><title>elf:others&#45;&gt;ri</title>
<path fill="none" stroke="black" d="M373,-49.5C383.235,-49.5 393.687,-52.3498 403.213,-56.2626"/>
<polygon fill="black" stroke="black" points="401.839,-59.4829 412.388,-60.4637 404.753,-53.1183 401.839,-59.4829"/>
</g>
<!-- lcd_file -->
<g id="node4" class="node"><title>lcd_file</title>
<polygon fill="none" stroke="black" points="410,-0.5 410,-36.5 473,-36.5 473,-0.5 410,-0.5"/>
<text text-anchor="middle" x="441.5" y="-14.8" font-family="verdana" font-size="14.00">lcd_file</text>
</g>
<!-- elf&#45;&gt;lcd_file -->
<g id="edge6" class="edge"><title>elf:sle&#45;&gt;lcd_file</title>
<path fill="none" stroke="black" stroke-dasharray="1,5" d="M373,-18.5C381.676,-18.5 390.978,-18.5 399.82,-18.5"/>
<polygon fill="black" stroke="black" points="399.922,-22.0001 409.922,-18.5 399.922,-15.0001 399.922,-22.0001"/>
</g>
</g>
</svg>
