<?xml version="1.0" encoding="UTF-8" standalone="no"?>
<!DOCTYPE svg PUBLIC "-//W3C//DTD SVG 1.1//EN"
 "http://www.w3.org/Graphics/SVG/1.1/DTD/svg11.dtd">
<!-- Generated by graphviz version 2.38.0 (20140413.2041)
 -->
<!-- Title: memory_zones Pages: 1 -->
<svg width="216pt" height="79pt"
 viewBox="0.00 0.00 216.00 79.01" xmlns="http://www.w3.org/2000/svg" xmlns:xlink="http://www.w3.org/1999/xlink">
<g id="graph0" class="graph" transform="scale(0.701299 0.701299) rotate(0) translate(4 108.667)">
<title>memory_zones</title>
<polygon fill="white" stroke="none" points="-4,4 -4,-108.667 304,-108.667 304,4 -4,4"/>
<!-- clients -->
<g id="node1" class="node"><title>clients</title>
<polygon fill="none" stroke="black" points="0,-24.1668 0,-93.1668 98,-93.1668 98,-24.1668 0,-24.1668"/>
<text text-anchor="middle" x="49" y="-77.9668" font-family="verdana" font-size="14.00">applications</text>
<polyline fill="none" stroke="black" points="0,-70.1668 98,-70.1668 "/>
<text text-anchor="middle" x="49" y="-54.9668" font-family="verdana" font-size="14.00">kernel</text>
<polyline fill="none" stroke="black" points="0,-47.1668 98,-47.1668 "/>
<text text-anchor="middle" x="49" y="-31.9668" font-family="verdana" font-size="14.00">drivers</text>
</g>
<!-- zones -->
<g id="node2" class="node"><title>zones</title>
<polygon fill="none" stroke="black" points="134,-35.1668 134,-104.167 300,-104.167 300,-35.1668 134,-35.1668"/>
<text text-anchor="middle" x="217" y="-88.9668" font-family="verdana" font-size="14.00">runtime zone</text>
<polyline fill="none" stroke="black" points="134,-81.1668 300,-81.1668 "/>
<text text-anchor="middle" x="217" y="-65.9668" font-family="verdana" font-size="14.00">buffer zone</text>
<polyline fill="none" stroke="black" points="134,-58.1668 300,-58.1668 "/>
<text text-anchor="middle" x="186" y="-42.9668" font-family="verdana" font-size="14.00">system zone</text>
<polyline fill="none" stroke="black" points="238,-35.1668 238,-58.1668 "/>
<text text-anchor="middle" x="269" y="-42.9668" font-family="verdana" font-size="14.00">sys rt?</text>
</g>
<!-- clients&#45;&gt;zones -->
<g id="edge1" class="edge"><title>clients:apps&#45;&gt;zones:rt</title>
<path fill="none" stroke="black" d="M98,-81.6668C110.678,-81.6668 115.207,-87.9838 123.938,-91.0437"/>
<polygon fill="black" stroke="black" points="123.57,-94.5294 134,-92.6668 124.685,-87.6188 123.57,-94.5294"/>
</g>
<!-- clients&#45;&gt;zones -->
<g id="edge2" class="edge"><title>clients:apps&#45;&gt;zones:buf</title>
<path fill="none" stroke="black" d="M98,-81.6668C110.781,-81.6668 115.179,-74.7754 123.9,-71.4374"/>
<polygon fill="black" stroke="black" points="124.755,-74.841 134,-69.6668 123.546,-67.9462 124.755,-74.841"/>
</g>
<!-- clients&#45;&gt;zones -->
<g id="edge3" class="edge"><title>clients:kernel&#45;&gt;zones:sys</title>
<path fill="none" stroke="black" d="M98.2757,-49.3299C106.571,-48.2286 115.252,-47.3472 123.755,-46.9296"/>
<polygon fill="black" stroke="black" points="124.093,-50.4222 134,-46.6668 123.913,-43.4245 124.093,-50.4222"/>
</g>
<!-- clients&#45;&gt;zones -->
<g id="edge4" class="edge"><title>clients:drv&#45;&gt;zones:sys_rt</title>
<path fill="none" stroke="black" stroke-dasharray="1,5" d="M98,-35.6668C170.294,-35.6668 259.768,34.9067 268.334,-23.6077"/>
<polygon fill="black" stroke="black" points="264.847,-23.9199 269,-33.6668 271.831,-23.4573 264.847,-23.9199"/>
</g>
</g>
</svg>
