<?xml version="1.0" encoding="UTF-8" standalone="no"?>
<!DOCTYPE svg PUBLIC "-//W3C//DTD SVG 1.1//EN"
 "http://www.w3.org/Graphics/SVG/1.1/DTD/svg11.dtd">
<!-- Generated by graphviz version 2.50.0 (20211204.2007)
 -->
<!-- Title: build_proc_traces Pages: 1 -->
<svg width="502pt" height="147pt"
 viewBox="0.00 0.00 502.00 146.50" xmlns="http://www.w3.org/2000/svg" xmlns:xlink="http://www.w3.org/1999/xlink">
<g id="graph0" class="graph" transform="scale(1 1) rotate(0) translate(4 142.5)">
<title>build_proc_traces</title>
<polygon fill="white" stroke="transparent" points="-4,4 -4,-142.5 498,-142.5 498,4 -4,4"/>
<!-- src -->
<g id="node1" class="node">
<title>src</title>
<polygon fill="none" stroke="black" points="0,-26.5 0,-64.5 163,-64.5 163,-26.5 0,-26.5"/>
<text text-anchor="middle" x="81.5" y="-49.3" font-family="verdana" font-size="14.00">source files</text>
<text text-anchor="middle" x="81.5" y="-34.3" font-family="verdana" font-size="14.00"> { trace_event(...) }</text>
</g>
<!-- elf -->
<g id="node2" class="node">
<title>elf</title>
<polygon fill="none" stroke="black" points="239,-7 239,-138 388,-138 388,-7 239,-7"/>
<text text-anchor="middle" x="313.5" y="-122.8" font-family="verdana" font-size="14.00">ELF</text>
<polyline fill="none" stroke="black" points="239,-115 388,-115 "/>
<text text-anchor="middle" x="313.5" y="-99.8" font-family="verdana" font-size="14.00">.text</text>
<polyline fill="none" stroke="black" points="239,-92 388,-92 "/>
<text text-anchor="middle" x="313.5" y="-76.8" font-family="verdana" font-size="14.00">.data</text>
<polyline fill="none" stroke="black" points="239,-69 388,-69 "/>
<text text-anchor="middle" x="313.5" y="-53.8" font-family="verdana" font-size="14.00">...</text>
<polyline fill="none" stroke="black" points="239,-30 388,-30 "/>
<text text-anchor="middle" x="313.5" y="-14.8" font-family="verdana" font-size="14.00">.static_log_entries</text>
</g>
<!-- src&#45;&gt;elf -->
<g id="edge1" class="edge">
<title>src&#45;&gt;elf</title>
<path fill="none" stroke="black" d="M163.06,-59.11C169.12,-59.97 175.15,-60.78 181,-61.5 196.3,-63.38 212.63,-65.03 228.41,-66.44"/>
<polygon fill="black" stroke="black" points="228.41,-69.96 238.67,-67.34 229.02,-62.98 228.41,-69.96"/>
</g>
<!-- src&#45;&gt;elf -->
<g id="edge2" class="edge">
<title>src&#45;&gt;elf:sle</title>
<path fill="none" stroke="black" stroke-dasharray="1,5" d="M129.31,-26.38C145.41,-20.73 163.73,-15.32 181,-12.5 198.55,-9.64 203.45,-9.65 221,-12.5 224.64,-13.09 226.93,-14.31 229.05,-15.5"/>
<polygon fill="black" stroke="black" points="228.42,-18.96 239,-18.5 230.44,-12.26 228.42,-18.96"/>
<text text-anchor="middle" x="201" y="-46.3" font-family="verdana" font-size="14.00">trace</text>
<text text-anchor="middle" x="201" y="-31.3" font-family="verdana" font-size="14.00">event</text>
<text text-anchor="middle" x="201" y="-16.3" font-family="verdana" font-size="14.00">data</text>
</g>
<!-- ri -->
<g id="node3" class="node">
<title>ri</title>
<polygon fill="none" stroke="black" points="426.5,-60.5 426.5,-96.5 492.5,-96.5 492.5,-60.5 426.5,-60.5"/>
<text text-anchor="middle" x="459.5" y="-74.8" font-family="verdana" font-size="14.00">sof&#45; .ri</text>
</g>
<!-- elf&#45;&gt;ri -->
<g id="edge3" class="edge">
<title>elf:text&#45;&gt;ri</title>
<path fill="none" stroke="black" d="M388,-103.5C397.64,-103.5 407.61,-101.4 416.92,-98.41"/>
<polygon fill="black" stroke="black" points="418.1,-101.71 426.34,-95.04 415.74,-95.12 418.1,-101.71"/>
</g>
<!-- elf&#45;&gt;ri -->
<g id="edge4" class="edge">
<title>elf:data&#45;&gt;ri</title>
<path fill="none" stroke="black" d="M388,-80.5C397.07,-80.5 406.8,-80.33 416.05,-80.09"/>
<polygon fill="black" stroke="black" points="416.32,-83.59 426.22,-79.8 416.12,-76.59 416.32,-83.59"/>
</g>
<!-- elf&#45;&gt;ri -->
<g id="edge5" class="edge">
<title>elf:others&#45;&gt;ri</title>
<path fill="none" stroke="black" d="M388,-49.5C398.73,-49.5 409.74,-52.41 419.77,-56.39"/>
<polygon fill="black" stroke="black" points="418.48,-59.64 429.04,-60.46 421.3,-53.23 418.48,-59.64"/>
</g>
<!-- lcd_file -->
<g id="node4" class="node">
<title>lcd_file</title>
<polygon fill="none" stroke="black" points="425,-0.5 425,-36.5 494,-36.5 494,-0.5 425,-0.5"/>
<text text-anchor="middle" x="459.5" y="-14.8" font-family="verdana" font-size="14.00">lcd_file</text>
</g>
<!-- elf&#45;&gt;lcd_file -->
<g id="edge6" class="edge">
<title>elf:sle&#45;&gt;lcd_file</title>
<path fill="none" stroke="black" stroke-dasharray="1,5" d="M388,-18.5C396.62,-18.5 405.84,-18.5 414.66,-18.5"/>
<polygon fill="black" stroke="black" points="414.79,-22 424.79,-18.5 414.79,-15 414.79,-22"/>
</g>
</g>
</svg>
