<?xml version="1.0" encoding="UTF-8" standalone="no"?>
<!DOCTYPE svg PUBLIC "-//W3C//DTD SVG 1.1//EN"
 "http://www.w3.org/Graphics/SVG/1.1/DTD/svg11.dtd">
<!-- Generated by graphviz version 2.43.0 (0)
 -->
<!-- Title: G Pages: 1 -->
<svg width="247pt" height="154pt"
 viewBox="0.00 0.00 247.00 154.00" xmlns="http://www.w3.org/2000/svg" xmlns:xlink="http://www.w3.org/1999/xlink">
<g id="graph0" class="graph" transform="scale(1 1) rotate(0) translate(4 150)">
<title>G</title>
<polygon fill="white" stroke="transparent" points="-4,4 -4,-150 243,-150 243,4 -4,4"/>
<!-- dsp -->
<g id="node1" class="node">
<title>dsp</title>
<polygon fill="none" stroke="black" points="10,-46.5 10,-82.5 64,-82.5 64,-46.5 10,-46.5"/>
<text text-anchor="middle" x="37" y="-62" font-family="verdana" font-size="10.00">DSP</text>
</g>
<!-- mem_alias -->
<g id="node3" class="node">
<title>mem_alias</title>
<polygon fill="none" stroke="black" points="171,-109.5 171,-145.5 239,-145.5 239,-109.5 171,-109.5"/>
<text text-anchor="middle" x="205" y="-130.5" font-family="verdana" font-size="10.00">Alias</text>
<text text-anchor="middle" x="205" y="-119.5" font-family="verdana" font-size="10.00">8000 0000</text>
</g>
<!-- dsp&#45;&gt;mem_alias -->
<g id="edge1" class="edge">
<title>dsp&#45;&gt;mem_alias:a</title>
<path fill="none" stroke="black" d="M64.09,-74.34C90,-84.12 130.2,-99.28 161.05,-110.92"/>
<polygon fill="black" stroke="black" points="160.11,-114.31 170.7,-114.56 162.58,-107.76 160.11,-114.31"/>
<text text-anchor="middle" x="122.5" y="-111.5" font-family="verdana" font-size="10.00">L1 uncached</text>
</g>
<!-- mem -->
<g id="node4" class="node">
<title>mem</title>
<polygon fill="none" stroke="black" points="171,-0.5 171,-90.5 239,-90.5 239,-0.5 171,-0.5"/>
<text text-anchor="middle" x="205" y="-78.5" font-family="verdana" font-size="10.00">IMR</text>
<text text-anchor="middle" x="205" y="-67.5" font-family="verdana" font-size="10.00">B000 0000</text>
<polyline fill="none" stroke="black" points="171,-60.5 239,-60.5 "/>
<text text-anchor="middle" x="205" y="-48.5" font-family="verdana" font-size="10.00">HPSRAM</text>
<text text-anchor="middle" x="205" y="-37.5" font-family="verdana" font-size="10.00">BE00 0000</text>
<polyline fill="none" stroke="black" points="171,-30.5 239,-30.5 "/>
<text text-anchor="middle" x="205" y="-18.5" font-family="verdana" font-size="10.00">LPSRAM</text>
<text text-anchor="middle" x="205" y="-7.5" font-family="verdana" font-size="10.00">BE80 0000</text>
</g>
<!-- dsp&#45;&gt;mem -->
<g id="edge2" class="edge">
<title>dsp&#45;&gt;mem:imr</title>
<path fill="none" stroke="black" d="M64.28,-66.67C93.8,-69.12 140.27,-72.96 160.74,-74.65"/>
<polygon fill="black" stroke="black" points="160.75,-78.16 171,-75.5 161.32,-71.19 160.75,-78.16"/>
<text text-anchor="middle" x="122.5" y="-76.5" font-family="verdana" font-size="10.00">L1 cached</text>
</g>
<!-- dsp&#45;&gt;mem -->
<g id="edge3" class="edge">
<title>dsp&#45;&gt;mem:hpsram</title>
<path fill="none" stroke="black" d="M64.28,-60.75C93.95,-56.51 140.75,-49.82 161.05,-46.92"/>
<polygon fill="black" stroke="black" points="161.6,-50.38 171,-45.5 160.61,-43.45 161.6,-50.38"/>
<text text-anchor="middle" x="122.5" y="-56.5" font-family="verdana" font-size="10.00">L1 cached</text>
</g>
<!-- dsp&#45;&gt;mem -->
<g id="edge4" class="edge">
<title>dsp&#45;&gt;mem:lpsram</title>
<path fill="none" stroke="black" d="M64.28,-54.82C94.1,-43.83 141.22,-26.47 161.36,-19.05"/>
<polygon fill="black" stroke="black" points="162.83,-22.24 171,-15.5 160.41,-15.67 162.83,-22.24"/>
<text text-anchor="middle" x="122.5" y="-34.5" font-family="verdana" font-size="10.00">L1 cached</text>
</g>
<!-- mem_rom -->
<g id="node2" class="node">
<title>mem_rom</title>
<polygon fill="none" stroke="black" points="0,-102 0,-143 74,-143 74,-102 0,-102"/>
<text text-anchor="middle" x="37" y="-131" font-family="verdana" font-size="10.00">ROM</text>
<text text-anchor="middle" x="37" y="-120" font-family="verdana" font-size="10.00">BEFE 00000</text>
<text text-anchor="middle" x="37" y="-109" font-family="verdana" font-size="10.00">(128K)</text>
</g>
</g>
</svg>
