<?xml version="1.0" encoding="UTF-8" standalone="no"?>
<!DOCTYPE svg PUBLIC "-//W3C//DTD SVG 1.1//EN"
 "http://www.w3.org/Graphics/SVG/1.1/DTD/svg11.dtd">
<!-- Generated by graphviz version 2.43.0 (0)
 -->
<!-- Title: build_proc_traces Pages: 1 -->
<svg width="691pt" height="110pt"
 viewBox="0.00 0.00 691.00 109.50" xmlns="http://www.w3.org/2000/svg" xmlns:xlink="http://www.w3.org/1999/xlink">
<g id="graph0" class="graph" transform="scale(1 1) rotate(0) translate(4 105.5)">
<title>build_proc_traces</title>
<polygon fill="white" stroke="transparent" points="-4,4 -4,-105.5 687,-105.5 687,4 -4,4"/>
<!-- ri -->
<g id="node1" class="node">
<title>ri</title>
<polygon fill="none" stroke="black" points="2,-55.5 2,-91.5 63,-91.5 63,-55.5 2,-55.5"/>
<text text-anchor="middle" x="32.5" y="-69.8" font-family="verdana" font-size="14.00">sof&#45; .ri</text>
</g>
<!-- dsp -->
<g id="node3" class="node">
<title>dsp</title>
<polygon fill="#92d050" stroke="#92d050" points="102,-53.5 102,-91.5 165,-91.5 165,-53.5 102,-53.5"/>
<text text-anchor="middle" x="133.5" y="-76.3" font-family="verdana" font-size="14.00">FW</text>
<text text-anchor="middle" x="133.5" y="-61.3" font-family="verdana" font-size="14.00">@ DSP</text>
</g>
<!-- ri&#45;&gt;dsp -->
<g id="edge1" class="edge">
<title>ri&#45;&gt;dsp</title>
<path fill="none" stroke="black" d="M63.2,-73.2C72.15,-73.11 82.14,-73.01 91.68,-72.91"/>
<polygon fill="black" stroke="black" points="91.82,-76.41 101.79,-72.81 91.75,-69.41 91.82,-76.41"/>
</g>
<!-- lcd_file -->
<g id="node2" class="node">
<title>lcd_file</title>
<polygon fill="none" stroke="black" points="0,-0.5 0,-36.5 65,-36.5 65,-0.5 0,-0.5"/>
<text text-anchor="middle" x="32.5" y="-14.8" font-family="verdana" font-size="14.00">lcd_file</text>
</g>
<!-- logger -->
<g id="node6" class="node">
<title>logger</title>
<polygon fill="none" stroke="black" points="481,-12.5 481,-48.5 542,-48.5 542,-12.5 481,-12.5"/>
<text text-anchor="middle" x="511.5" y="-26.8" font-family="verdana" font-size="14.00">logger</text>
</g>
<!-- lcd_file&#45;&gt;logger -->
<g id="edge5" class="edge">
<title>lcd_file&#45;&gt;logger</title>
<path fill="none" stroke="black" stroke-dasharray="1,5" d="M65.16,-18.5C84.59,-18.5 109.98,-18.5 132.5,-18.5 132.5,-18.5 132.5,-18.5 414,-18.5 432.59,-18.5 453.05,-20.72 470.33,-23.25"/>
<polygon fill="black" stroke="black" points="470.21,-26.78 480.63,-24.85 471.28,-19.86 470.21,-26.78"/>
</g>
<!-- drv -->
<g id="node4" class="node">
<title>drv</title>
<polygon fill="#92d050" stroke="#92d050" points="280,-51.5 280,-89.5 345,-89.5 345,-51.5 280,-51.5"/>
<text text-anchor="middle" x="312.5" y="-74.3" font-family="verdana" font-size="14.00">Driver</text>
<text text-anchor="middle" x="312.5" y="-59.3" font-family="verdana" font-size="14.00">@ host</text>
</g>
<!-- dsp&#45;&gt;drv -->
<g id="edge2" class="edge">
<title>dsp&#45;&gt;drv</title>
<path fill="none" stroke="black" stroke-dasharray="5,2" d="M165.33,-72.15C194.16,-71.83 237.46,-71.34 269.45,-70.98"/>
<polygon fill="black" stroke="black" points="269.87,-74.47 279.83,-70.86 269.79,-67.47 269.87,-74.47"/>
<text text-anchor="middle" x="222.5" y="-90.3" font-family="verdana" font-size="14.00">&lt;&lt;dma&gt;&gt;</text>
<text text-anchor="middle" x="222.5" y="-75.3" font-family="verdana" font-size="14.00">traces...</text>
</g>
<!-- log -->
<g id="node5" class="node">
<title>log</title>
<polygon fill="none" stroke="black" points="382,-51.5 382,-87.5 444,-87.5 444,-51.5 382,-51.5"/>
<text text-anchor="middle" x="413" y="-65.8" font-family="verdana" font-size="14.00">/sys/...</text>
</g>
<!-- drv&#45;&gt;log -->
<g id="edge3" class="edge">
<title>drv&#45;&gt;log</title>
<path fill="none" stroke="black" stroke-dasharray="5,2" d="M345.21,-70.18C353.62,-70.09 362.81,-70 371.61,-69.91"/>
<polygon fill="black" stroke="black" points="371.73,-73.41 381.69,-69.81 371.66,-66.41 371.73,-73.41"/>
</g>
<!-- log&#45;&gt;logger -->
<g id="edge4" class="edge">
<title>log&#45;&gt;logger</title>
<path fill="none" stroke="black" stroke-dasharray="5,2" d="M444,-57.37C452.71,-53.86 462.34,-49.96 471.52,-46.26"/>
<polygon fill="black" stroke="black" points="472.89,-49.48 480.85,-42.48 470.26,-42.99 472.89,-49.48"/>
</g>
<!-- tty -->
<g id="node7" class="node">
<title>tty</title>
<polygon fill="none" stroke="black" points="629,-12.5 629,-48.5 683,-48.5 683,-12.5 629,-12.5"/>
<text text-anchor="middle" x="656" y="-26.8" font-family="verdana" font-size="14.00">tty</text>
</g>
<!-- logger&#45;&gt;tty -->
<g id="edge6" class="edge">
<title>logger&#45;&gt;tty</title>
<path fill="none" stroke="black" d="M542.03,-30.5C564.32,-30.5 595.04,-30.5 618.82,-30.5"/>
<polygon fill="black" stroke="black" points="618.87,-34 628.87,-30.5 618.87,-27 618.87,-34"/>
<text text-anchor="middle" x="585.5" y="-64.3" font-family="verdana" font-size="14.00">pretty</text>
<text text-anchor="middle" x="585.5" y="-49.3" font-family="verdana" font-size="14.00">printed</text>
<text text-anchor="middle" x="585.5" y="-34.3" font-family="verdana" font-size="14.00">traces</text>
</g>
</g>
</svg>
