<?xml version="1.0" encoding="UTF-8" standalone="no"?><svg xmlns="http://www.w3.org/2000/svg" xmlns:xlink="http://www.w3.org/1999/xlink" contentScriptType="application/ecmascript" contentStyleType="text/css" height="410px" preserveAspectRatio="none" style="width:419px;height:410px;" version="1.1" viewBox="0 0 419 410" width="419px" zoomAndPan="magnify"><defs><filter height="300%" id="f1cvotn2raf1sa" width="300%" x="-1" y="-1"><feGaussianBlur result="blurOut" stdDeviation="2.0"/><feColorMatrix in="blurOut" result="blurOut2" type="matrix" values="0 0 0 0 0 0 0 0 0 0 0 0 0 0 0 0 0 0 .4 0"/><feOffset dx="4.0" dy="4.0" in="blurOut2" result="blurOut3"/><feBlend in="SourceGraphic" in2="blurOut3" mode="normal"/></filter></defs><g><!--MD5=[17d0b563c0e93745e6a54635713a3c57]
class I2sSink--><rect fill="#FFFFFF" filter="url(#f1cvotn2raf1sa)" height="32" id="I2sSink" style="stroke: #33335B; stroke-width: 1.5;" width="76" x="55" y="8"/><ellipse cx="70" cy="24" fill="#6FCCDD" rx="11" ry="11" style="stroke: #33335B; stroke-width: 1.0;"/><path d="M72.9688,29.6406 Q72.3906,29.9375 71.75,30.0781 Q71.1094,30.2344 70.4063,30.2344 Q67.9063,30.2344 66.5781,28.5938 Q65.2656,26.9375 65.2656,23.8125 Q65.2656,20.6875 66.5781,19.0313 Q67.9063,17.375 70.4063,17.375 Q71.1094,17.375 71.75,17.5313 Q72.4063,17.6875 72.9688,17.9844 L72.9688,20.7031 Q72.3438,20.125 71.75,19.8594 Q71.1563,19.5781 70.5313,19.5781 Q69.1875,19.5781 68.5,20.6563 Q67.8125,21.7188 67.8125,23.8125 Q67.8125,25.9063 68.5,26.9844 Q69.1875,28.0469 70.5313,28.0469 Q71.1563,28.0469 71.75,27.7813 Q72.3438,27.5 72.9688,26.9219 L72.9688,29.6406 Z "/><text fill="#33335B" font-family="sans-serif" font-size="12" lengthAdjust="spacingAndGlyphs" textLength="44" x="84" y="28.1543">I2sSink</text><ellipse cx="11" cy="116" fill="#FFFFFF" filter="url(#f1cvotn2raf1sa)" rx="5" ry="5" style="stroke: #33335B; stroke-width: 1.5;"/><text fill="#33335B" font-family="sans-serif" font-size="12" lengthAdjust="spacingAndGlyphs" textLength="53" x="-15.5" y="132.1387">Gateway</text><!--MD5=[e01a7672484d3e616544d830eb68da95]
class I2sSource--><rect fill="#FFFFFF" filter="url(#f1cvotn2raf1sa)" height="32" id="I2sSource" style="stroke: #33335B; stroke-width: 1.5;" width="94" x="218" y="8"/><ellipse cx="233" cy="24" fill="#6FCCDD" rx="11" ry="11" style="stroke: #33335B; stroke-width: 1.0;"/><path d="M235.9688,29.6406 Q235.3906,29.9375 234.75,30.0781 Q234.1094,30.2344 233.4063,30.2344 Q230.9063,30.2344 229.5781,28.5938 Q228.2656,26.9375 228.2656,23.8125 Q228.2656,20.6875 229.5781,19.0313 Q230.9063,17.375 233.4063,17.375 Q234.1094,17.375 234.75,17.5313 Q235.4063,17.6875 235.9688,17.9844 L235.9688,20.7031 Q235.3438,20.125 234.75,19.8594 Q234.1563,19.5781 233.5313,19.5781 Q232.1875,19.5781 231.5,20.6563 Q230.8125,21.7188 230.8125,23.8125 Q230.8125,25.9063 231.5,26.9844 Q232.1875,28.0469 233.5313,28.0469 Q234.1563,28.0469 234.75,27.7813 Q235.3438,27.5 235.9688,26.9219 L235.9688,29.6406 Z "/><text fill="#33335B" font-family="sans-serif" font-size="12" lengthAdjust="spacingAndGlyphs" textLength="62" x="247" y="28.1543">I2sSource</text><ellipse cx="235" cy="116" fill="#FFFFFF" filter="url(#f1cvotn2raf1sa)" rx="5" ry="5" style="stroke: #33335B; stroke-width: 1.5;"/><text fill="#33335B" font-family="sans-serif" font-size="12" lengthAdjust="spacingAndGlyphs" textLength="53" x="208.5" y="132.1387">Gateway</text><!--MD5=[6403403b5343eae07c5d253cd602df0f]
class I2sDriver--><rect fill="#FFFFFF" filter="url(#f1cvotn2raf1sa)" height="32" id="I2sDriver" style="stroke: #33335B; stroke-width: 1.5;" width="86" x="189" y="284"/><ellipse cx="204" cy="300" fill="#6FCCDD" rx="11" ry="11" style="stroke: #33335B; stroke-width: 1.0;"/><path d="M206.9688,305.6406 Q206.3906,305.9375 205.75,306.0781 Q205.1094,306.2344 204.4063,306.2344 Q201.9063,306.2344 200.5781,304.5938 Q199.2656,302.9375 199.2656,299.8125 Q199.2656,296.6875 200.5781,295.0313 Q201.9063,293.375 204.4063,293.375 Q205.1094,293.375 205.75,293.5313 Q206.4063,293.6875 206.9688,293.9844 L206.9688,296.7031 Q206.3438,296.125 205.75,295.8594 Q205.1563,295.5781 204.5313,295.5781 Q203.1875,295.5781 202.5,296.6563 Q201.8125,297.7188 201.8125,299.8125 Q201.8125,301.9063 202.5,302.9844 Q203.1875,304.0469 204.5313,304.0469 Q205.1563,304.0469 205.75,303.7813 Q206.3438,303.5 206.9688,302.9219 L206.9688,305.6406 Z "/><text fill="#33335B" font-family="sans-serif" font-size="12" lengthAdjust="spacingAndGlyphs" textLength="54" x="218" y="304.1543">I2sDriver</text><ellipse cx="232" cy="381" fill="#FFFFFF" filter="url(#f1cvotn2raf1sa)" rx="5" ry="5" style="stroke: #33335B; stroke-width: 1.5;"/><text fill="#33335B" font-family="sans-serif" font-size="12" lengthAdjust="spacingAndGlyphs" textLength="47" x="208.5" y="397.1387">IoDriver</text><!--MD5=[66d06afbc10f91918a520d7972789c35]
class I2sChannel--><rect fill="#FFFFFF" filter="url(#f1cvotn2raf1sa)" height="32" id="I2sChannel" style="stroke: #33335B; stroke-width: 1.5;" width="101" x="181.5" y="192"/><ellipse cx="196.5" cy="208" fill="#6FCCDD" rx="11" ry="11" style="stroke: #33335B; stroke-width: 1.0;"/><path d="M199.4688,213.6406 Q198.8906,213.9375 198.25,214.0781 Q197.6094,214.2344 196.9063,214.2344 Q194.4063,214.2344 193.0781,212.5938 Q191.7656,210.9375 191.7656,207.8125 Q191.7656,204.6875 193.0781,203.0313 Q194.4063,201.375 196.9063,201.375 Q197.6094,201.375 198.25,201.5313 Q198.9063,201.6875 199.4688,201.9844 L199.4688,204.7031 Q198.8438,204.125 198.25,203.8594 Q197.6563,203.5781 197.0313,203.5781 Q195.6875,203.5781 195,204.6563 Q194.3125,205.7188 194.3125,207.8125 Q194.3125,209.9063 195,210.9844 Q195.6875,212.0469 197.0313,212.0469 Q197.6563,212.0469 198.25,211.7813 Q198.8438,211.5 199.4688,210.9219 L199.4688,213.6406 Z "/><text fill="#33335B" font-family="sans-serif" font-size="12" lengthAdjust="spacingAndGlyphs" textLength="69" x="210.5" y="212.1543">I2sChannel</text><!--MD5=[1c27ba5b11ad7e324e1984559723bee9]
class I2sInputChannel--><rect fill="#FFFFFF" filter="url(#f1cvotn2raf1sa)" height="32" id="I2sInputChannel" style="stroke: #33335B; stroke-width: 1.5;" width="133" x="275.5" y="100"/><ellipse cx="290.5" cy="116" fill="#6FCCDD" rx="11" ry="11" style="stroke: #33335B; stroke-width: 1.0;"/><path d="M293.4688,121.6406 Q292.8906,121.9375 292.25,122.0781 Q291.6094,122.2344 290.9063,122.2344 Q288.4063,122.2344 287.0781,120.5938 Q285.7656,118.9375 285.7656,115.8125 Q285.7656,112.6875 287.0781,111.0313 Q288.4063,109.375 290.9063,109.375 Q291.6094,109.375 292.25,109.5313 Q292.9063,109.6875 293.4688,109.9844 L293.4688,112.7031 Q292.8438,112.125 292.25,111.8594 Q291.6563,111.5781 291.0313,111.5781 Q289.6875,111.5781 289,112.6563 Q288.3125,113.7188 288.3125,115.8125 Q288.3125,117.9063 289,118.9844 Q289.6875,120.0469 291.0313,120.0469 Q291.6563,120.0469 292.25,119.7813 Q292.8438,119.5 293.4688,118.9219 L293.4688,121.6406 Z "/><text fill="#33335B" font-family="sans-serif" font-size="12" lengthAdjust="spacingAndGlyphs" textLength="101" x="304.5" y="120.1543">I2sInputChannel</text><!--MD5=[06e2ccf33d2112491ddf1a125baa722b]
class I2sOutputChannel--><rect fill="#FFFFFF" filter="url(#f1cvotn2raf1sa)" height="32" id="I2sOutputChannel" style="stroke: #33335B; stroke-width: 1.5;" width="144" x="51" y="100"/><ellipse cx="66" cy="116" fill="#6FCCDD" rx="11" ry="11" style="stroke: #33335B; stroke-width: 1.0;"/><path d="M68.9688,121.6406 Q68.3906,121.9375 67.75,122.0781 Q67.1094,122.2344 66.4063,122.2344 Q63.9063,122.2344 62.5781,120.5938 Q61.2656,118.9375 61.2656,115.8125 Q61.2656,112.6875 62.5781,111.0313 Q63.9063,109.375 66.4063,109.375 Q67.1094,109.375 67.75,109.5313 Q68.4063,109.6875 68.9688,109.9844 L68.9688,112.7031 Q68.3438,112.125 67.75,111.8594 Q67.1563,111.5781 66.5313,111.5781 Q65.1875,111.5781 64.5,112.6563 Q63.8125,113.7188 63.8125,115.8125 Q63.8125,117.9063 64.5,118.9844 Q65.1875,120.0469 66.5313,120.0469 Q67.1563,120.0469 67.75,119.7813 Q68.3438,119.5 68.9688,118.9219 L68.9688,121.6406 Z "/><text fill="#33335B" font-family="sans-serif" font-size="12" lengthAdjust="spacingAndGlyphs" textLength="112" x="80" y="120.1543">I2sOutputChannel</text><!--MD5=[55f1390297f1efaf706740f09cd672dc]
link I2sSink to I2sSinklol2--><path d="M79.09,40.27 C59.35,61.93 24.45,100.24 14.02,111.68 " fill="none" id="I2sSink-I2sSinklol2" style="stroke: #F05772; stroke-width: 1.0;"/><!--MD5=[ec802aa9384e4c6f9330427ce35aab4e]
link I2sSource to I2sSourcelol6--><path d="M259.91,40.27 C252.82,61.53 240.39,98.83 236.33,111.02 " fill="none" id="I2sSource-I2sSourcelol6" style="stroke: #F05772; stroke-width: 1.0;"/><!--MD5=[53c3c9428a7763bbbee035c3440b39b7]
link I2sDriver to I2sDriverlol10--><path d="M232,316.23 C232,334.7 232,364.74 232,375.77 " fill="none" id="I2sDriver-I2sDriverlol10" style="stroke: #F05772; stroke-width: 1.0;"/><!--MD5=[2fb71fb1a4878cd639e12d6e83415a7c]
link I2sChannel to I2sDriver--><path d="M232,224.27 C232,237.02 232,255.52 232,270.93 " fill="none" id="I2sChannel-&gt;I2sDriver" style="stroke: #F05772; stroke-width: 1.0;"/><polygon fill="#F05772" points="232,283.96,236,277.96,232,271.96,228,277.96,232,283.96" style="stroke: #F05772; stroke-width: 1.0;"/><!--MD5=[c517d5f5f0fdb07877671f24846b872b]
link I2sInputChannel to I2sChannel--><path d="M323.34,132.27 C307.68,145.08 284.91,163.71 266.02,179.17 " fill="none" id="I2sInputChannel-&gt;I2sChannel" style="stroke: #F05772; stroke-width: 1.0;"/><polygon fill="none" points="270.3,184.71,250.38,191.96,261.43,173.88,270.3,184.71" style="stroke: #F05772; stroke-width: 1.0;"/><!--MD5=[d6e79fa8189de920940049b4e2fb6e89]
link I2sOutputChannel to I2sChannel--><path d="M141.49,132.27 C157.01,145.08 179.58,163.71 198.29,179.17 " fill="none" id="I2sOutputChannel-&gt;I2sChannel" style="stroke: #F05772; stroke-width: 1.0;"/><polygon fill="none" points="202.82,173.83,213.78,191.96,193.9,184.62,202.82,173.83" style="stroke: #F05772; stroke-width: 1.0;"/><!--MD5=[18a000bd9b956a64afd9b4760ac8925e]
link I2sSink to I2sOutputChannel--><path d="M98.09,40.27 C102.38,53.15 108.63,71.9 113.8,87.4 " fill="none" id="I2sSink-&gt;I2sOutputChannel" style="stroke: #F05772; stroke-width: 1.0;"/><polygon fill="#FFFFFF" points="117.99,99.96,119.8922,93.0043,114.2032,88.5732,112.301,95.5289,117.99,99.96" style="stroke: #F05772; stroke-width: 1.0;"/><!--MD5=[a30ddf5608418d43b9885801c6b95cb5]
link I2sSource to I2sInputChannel--><path d="M278.06,40.27 C289.64,53.8 306.76,73.81 320.38,89.73 " fill="none" id="I2sSource-&gt;I2sInputChannel" style="stroke: #F05772; stroke-width: 1.0;"/><polygon fill="#FFFFFF" points="329.13,99.96,328.2691,92.8005,321.3292,90.8415,322.1901,98.001,329.13,99.96" style="stroke: #F05772; stroke-width: 1.0;"/><!--MD5=[83fc5a6108154a667280314b11e1aa0a]
@startuml
hidefootbox
skinparam componentStyle uml2

skinparam defaultFontColor	#33335b

skinparam rectangle {
	color		#d6d6de
	backgroundColor	#ffffff
}

skinparam component {
	backgroundColor	#ffffff
	borderColor	#33335b
	arrowColor	#f05772
}

skinparam interface {
	backgroundColor	#ffffff
	borderColor	#f05772
}

skinparam class {
	backgroundColor	#ffffff
	borderColor	#33335b
	arrowColor	#f05772
}
skinparam stereotypeCBackgroundColor	#6fccdd

skinparam sequence {
	arrowColor		#4a4a86
	lifeLineBorderColor	#f05772
	groupBorderColor	#a1a1ca
	boxBorderColor		#a1a1ca
	dividerBorderColor	#d6d6de
	dividerBorderThickness	1
}
skinparam participant {
	borderColor		#33335b
	backgroundColor		#ffffff
}
skinparam actor {
	borderColor		#33335b
	backgroundColor		#ffffff
}

skinparam state {
	borderColor		#33335b
	backgroundColor		#ffffff
}

skinparam node {
	backgroundColor		#ffffff
}

skinparam note {
	backgroundColor 	#f6ed80
	borderColor		#d6d6de
}

skinparam activity {
	borderColor		#33335b
	backgroundColor		#ffffff
}

skinparam activityDiamond {
	borderColor		#33335b
	backgroundColor		#ffffff
}

skinparam arrowColor	#f05772
skinparam maxMessageSize 400
skinparam BoxPadding 4

hide methods
hide attributes

class I2sSink - -() Gateway
class I2sSource - -() Gateway
class I2sDriver - -() IoDriver
class I2sChannel
class I2sInputChannel

I2sChannel  - -* I2sDriver
I2sInputChannel  - -|> I2sChannel
I2sOutputChannel - -|> I2sChannel
I2sSink - -o I2sOutputChannel
I2sSource - -o I2sInputChannel

@enduml

PlantUML version 1.2019.12(Sun Nov 03 10:24:54 UTC 2019)
(GPL source distribution)
Java Runtime: OpenJDK Runtime Environment
JVM: OpenJDK 64-Bit Server VM
Java Version: 11.0.19+7
Operating System: Linux
Default Encoding: UTF-8
Language: en
Country: null
--></g></svg>