<?xml version="1.0" encoding="UTF-8" standalone="no"?><svg xmlns="http://www.w3.org/2000/svg" xmlns:xlink="http://www.w3.org/1999/xlink" contentScriptType="application/ecmascript" contentStyleType="text/css" height="384px" preserveAspectRatio="none" style="width:577px;height:384px;" version="1.1" viewBox="0 0 577 384" width="577px" zoomAndPan="magnify"><defs><filter height="300%" id="f2tu479mxmrje" width="300%" x="-1" y="-1"><feGaussianBlur result="blurOut" stdDeviation="2.0"/><feColorMatrix in="blurOut" result="blurOut2" type="matrix" values="0 0 0 0 0 0 0 0 0 0 0 0 0 0 0 0 0 0 .4 0"/><feOffset dx="4.0" dy="4.0" in="blurOut2" result="blurOut3"/><feBlend in="SourceGraphic" in2="blurOut3" mode="normal"/></filter></defs><g><!--MD5=[7710054a08d622d2d960c555d61d76fb]
cluster cavs--><polygon fill="#FFFFFF" filter="url(#f2tu479mxmrje)" points="107,148,146,148,153,171.6094,484,171.6094,484,248,107,248,107,148" style="stroke: #000000; stroke-width: 1.5;"/><line style="stroke: #000000; stroke-width: 1.5;" x1="107" x2="153" y1="171.6094" y2="171.6094"/><text fill="#33335B" font-family="sans-serif" font-size="14" font-weight="bold" lengthAdjust="spacingAndGlyphs" textLength="33" x="111" y="164.5332">cavs</text><!--MD5=[c28c1df5c2d2e22d07a1cfff56ab0919]
cluster arch--><polygon fill="#FFFFFF" filter="url(#f2tu479mxmrje)" points="181,272,218,272,225,295.6094,547,295.6094,547,372,181,372,181,272" style="stroke: #000000; stroke-width: 1.5;"/><line style="stroke: #000000; stroke-width: 1.5;" x1="181" x2="225" y1="295.6094" y2="295.6094"/><text fill="#33335B" font-family="sans-serif" font-size="14" font-weight="bold" lengthAdjust="spacingAndGlyphs" textLength="31" x="185" y="288.5332">arch</text><!--MD5=[d841c4c2f84d4e18d352f800547f43fc]
cluster platform--><polygon fill="#FFFFFF" filter="url(#f2tu479mxmrje)" points="22,24,86,24,93,47.6094,555,47.6094,555,124,22,124,22,24" style="stroke: #000000; stroke-width: 1.5;"/><line style="stroke: #000000; stroke-width: 1.5;" x1="22" x2="93" y1="47.6094" y2="47.6094"/><text fill="#33335B" font-family="sans-serif" font-size="14" font-weight="bold" lengthAdjust="spacingAndGlyphs" textLength="58" x="26" y="40.5332">platform</text><!--MD5=[4b4cb74f92c39c2893536ba1b2722bf8]
entity 2.5--><rect fill="#FFFFFF" filter="url(#f2tu479mxmrje)" height="47.6094" style="stroke: #33335B; stroke-width: 1.5;" width="60" x="408" y="184"/><rect fill="#FFFFFF" height="10" style="stroke: #33335B; stroke-width: 1.5;" width="15" x="448" y="189"/><rect fill="#FFFFFF" height="2" style="stroke: #33335B; stroke-width: 1.5;" width="4" x="446" y="191"/><rect fill="#FFFFFF" height="2" style="stroke: #33335B; stroke-width: 1.5;" width="4" x="446" y="195"/><text fill="#33335B" font-family="sans-serif" font-size="14" lengthAdjust="spacingAndGlyphs" textLength="20" x="423" y="218.5332">2.5</text><!--MD5=[1ba81da61a18b9bf0c34ef1c680c4179]
entity 2.0--><rect fill="#FFFFFF" filter="url(#f2tu479mxmrje)" height="47.6094" style="stroke: #33335B; stroke-width: 1.5;" width="60" x="313" y="184"/><rect fill="#FFFFFF" height="10" style="stroke: #33335B; stroke-width: 1.5;" width="15" x="353" y="189"/><rect fill="#FFFFFF" height="2" style="stroke: #33335B; stroke-width: 1.5;" width="4" x="351" y="191"/><rect fill="#FFFFFF" height="2" style="stroke: #33335B; stroke-width: 1.5;" width="4" x="351" y="195"/><text fill="#33335B" font-family="sans-serif" font-size="14" lengthAdjust="spacingAndGlyphs" textLength="20" x="328" y="218.5332">2.0</text><!--MD5=[b251ce038e8502df1be41958e247dc26]
entity 1.8--><rect fill="#FFFFFF" filter="url(#f2tu479mxmrje)" height="47.6094" style="stroke: #33335B; stroke-width: 1.5;" width="60" x="218" y="184"/><rect fill="#FFFFFF" height="10" style="stroke: #33335B; stroke-width: 1.5;" width="15" x="258" y="189"/><rect fill="#FFFFFF" height="2" style="stroke: #33335B; stroke-width: 1.5;" width="4" x="256" y="191"/><rect fill="#FFFFFF" height="2" style="stroke: #33335B; stroke-width: 1.5;" width="4" x="256" y="195"/><text fill="#33335B" font-family="sans-serif" font-size="14" lengthAdjust="spacingAndGlyphs" textLength="20" x="233" y="218.5332">1.8</text><!--MD5=[2ddb27eb383b8221de435c42be08e929]
entity 1.5--><rect fill="#FFFFFF" filter="url(#f2tu479mxmrje)" height="47.6094" style="stroke: #33335B; stroke-width: 1.5;" width="60" x="123" y="184"/><rect fill="#FFFFFF" height="10" style="stroke: #33335B; stroke-width: 1.5;" width="15" x="163" y="189"/><rect fill="#FFFFFF" height="2" style="stroke: #33335B; stroke-width: 1.5;" width="4" x="161" y="191"/><rect fill="#FFFFFF" height="2" style="stroke: #33335B; stroke-width: 1.5;" width="4" x="161" y="195"/><text fill="#33335B" font-family="sans-serif" font-size="14" lengthAdjust="spacingAndGlyphs" textLength="20" x="138" y="218.5332">1.5</text><!--MD5=[da9746410650acf9fab14ea35e32d13b]
entity host--><rect fill="#FFFFFF" filter="url(#f2tu479mxmrje)" height="47.6094" style="stroke: #33335B; stroke-width: 1.5;" width="67" x="463.5" y="308"/><rect fill="#FFFFFF" height="10" style="stroke: #33335B; stroke-width: 1.5;" width="15" x="510.5" y="313"/><rect fill="#FFFFFF" height="2" style="stroke: #33335B; stroke-width: 1.5;" width="4" x="508.5" y="315"/><rect fill="#FFFFFF" height="2" style="stroke: #33335B; stroke-width: 1.5;" width="4" x="508.5" y="319"/><text fill="#33335B" font-family="sans-serif" font-size="14" lengthAdjust="spacingAndGlyphs" textLength="27" x="478.5" y="342.5332">host</text><!--MD5=[82e10e2039fd868936cd3cab7ef705de]
entity xtensa--><rect fill="#FFFFFF" filter="url(#f2tu479mxmrje)" height="47.6094" style="stroke: #33335B; stroke-width: 1.5;" width="81" x="347.5" y="308"/><rect fill="#FFFFFF" height="10" style="stroke: #33335B; stroke-width: 1.5;" width="15" x="408.5" y="313"/><rect fill="#FFFFFF" height="2" style="stroke: #33335B; stroke-width: 1.5;" width="4" x="406.5" y="315"/><rect fill="#FFFFFF" height="2" style="stroke: #33335B; stroke-width: 1.5;" width="4" x="406.5" y="319"/><text fill="#33335B" font-family="sans-serif" font-size="14" lengthAdjust="spacingAndGlyphs" textLength="41" x="362.5" y="342.5332">xtensa</text><!--MD5=[2bf5899885793984c006f54fe433e3b8]
entity xtensa_smp--><rect fill="#FFFFFF" filter="url(#f2tu479mxmrje)" height="47.6094" style="stroke: #33335B; stroke-width: 1.5;" width="115" x="197.5" y="308"/><rect fill="#FFFFFF" height="10" style="stroke: #33335B; stroke-width: 1.5;" width="15" x="292.5" y="313"/><rect fill="#FFFFFF" height="2" style="stroke: #33335B; stroke-width: 1.5;" width="4" x="290.5" y="315"/><rect fill="#FFFFFF" height="2" style="stroke: #33335B; stroke-width: 1.5;" width="4" x="290.5" y="319"/><text fill="#33335B" font-family="sans-serif" font-size="14" lengthAdjust="spacingAndGlyphs" textLength="75" x="212.5" y="342.5332">xtensa_smp</text><!--MD5=[e4fdad6f09f493e63cd1f36b4552aac6]
entity icelake--><rect fill="#FFFFFF" filter="url(#f2tu479mxmrje)" height="47.6094" style="stroke: #33335B; stroke-width: 1.5;" width="84" x="326" y="60"/><rect fill="#FFFFFF" height="10" style="stroke: #33335B; stroke-width: 1.5;" width="15" x="390" y="65"/><rect fill="#FFFFFF" height="2" style="stroke: #33335B; stroke-width: 1.5;" width="4" x="388" y="67"/><rect fill="#FFFFFF" height="2" style="stroke: #33335B; stroke-width: 1.5;" width="4" x="388" y="71"/><text fill="#33335B" font-family="sans-serif" font-size="14" lengthAdjust="spacingAndGlyphs" textLength="44" x="341" y="94.5332">icelake</text><!--MD5=[a77ba404f372e50c6ca54c70f07c1e86]
entity cannonlake--><rect fill="#FFFFFF" filter="url(#f2tu479mxmrje)" height="47.6094" style="stroke: #33335B; stroke-width: 1.5;" width="113" x="177.5" y="60"/><rect fill="#FFFFFF" height="10" style="stroke: #33335B; stroke-width: 1.5;" width="15" x="270.5" y="65"/><rect fill="#FFFFFF" height="2" style="stroke: #33335B; stroke-width: 1.5;" width="4" x="268.5" y="67"/><rect fill="#FFFFFF" height="2" style="stroke: #33335B; stroke-width: 1.5;" width="4" x="268.5" y="71"/><text fill="#33335B" font-family="sans-serif" font-size="14" lengthAdjust="spacingAndGlyphs" textLength="73" x="192.5" y="94.5332">cannonlake</text><!--MD5=[339039aa269ecd27246307fee785ba3d]
entity apollolake--><rect fill="#FFFFFF" filter="url(#f2tu479mxmrje)" height="47.6094" style="stroke: #33335B; stroke-width: 1.5;" width="104" x="38" y="60"/><rect fill="#FFFFFF" height="10" style="stroke: #33335B; stroke-width: 1.5;" width="15" x="122" y="65"/><rect fill="#FFFFFF" height="2" style="stroke: #33335B; stroke-width: 1.5;" width="4" x="120" y="67"/><rect fill="#FFFFFF" height="2" style="stroke: #33335B; stroke-width: 1.5;" width="4" x="120" y="71"/><text fill="#33335B" font-family="sans-serif" font-size="14" lengthAdjust="spacingAndGlyphs" textLength="64" x="53" y="94.5332">apollolake</text><!--MD5=[eb8f7afab1235d6679b317442525ea3c]
entity tigerlake--><rect fill="#FFFFFF" filter="url(#f2tu479mxmrje)" height="47.6094" style="stroke: #33335B; stroke-width: 1.5;" width="94" x="445" y="60"/><rect fill="#FFFFFF" height="10" style="stroke: #33335B; stroke-width: 1.5;" width="15" x="519" y="65"/><rect fill="#FFFFFF" height="2" style="stroke: #33335B; stroke-width: 1.5;" width="4" x="517" y="67"/><rect fill="#FFFFFF" height="2" style="stroke: #33335B; stroke-width: 1.5;" width="4" x="517" y="71"/><text fill="#33335B" font-family="sans-serif" font-size="14" lengthAdjust="spacingAndGlyphs" textLength="54" x="460" y="94.5332">tigerlake</text><!--MD5=[95d821f9d01255520bb84241872ab5a0]
link 1.5 to xtensa_smp--><path d="M172.43,232.23 C189.51,252.67 214.39,282.43 232.37,303.94 " fill="none" id="1.5-&gt;xtensa_smp" style="stroke: #4A4A86; stroke-width: 1.0; stroke-dasharray: 7.0,7.0;"/><polygon fill="#4A4A86" points="235.65,307.85,232.9266,298.3852,232.435,304.0206,226.7996,303.5291,235.65,307.85" style="stroke: #4A4A86; stroke-width: 1.0;"/><!--MD5=[7f4ddfe3515eca5bee11dd8b1a3cb757]
link 1.8 to xtensa_smp--><path d="M249.33,232.23 C250.49,252.33 252.16,281.45 253.39,302.86 " fill="none" id="1.8-&gt;xtensa_smp" style="stroke: #4A4A86; stroke-width: 1.0; stroke-dasharray: 7.0,7.0;"/><polygon fill="#4A4A86" points="253.67,307.85,257.1485,298.6359,253.3839,302.8582,249.1616,299.0936,253.67,307.85" style="stroke: #4A4A86; stroke-width: 1.0;"/><!--MD5=[828bc279fd72de2a3591debc3315d373]
link 2.0 to xtensa_smp--><path d="M326.24,232.23 C311.56,252.59 290.21,282.18 274.71,303.67 " fill="none" id="2.0-&gt;xtensa_smp" style="stroke: #4A4A86; stroke-width: 1.0; stroke-dasharray: 7.0,7.0;"/><polygon fill="#4A4A86" points="271.7,307.85,280.2109,302.8937,274.6264,303.7959,273.7242,298.2114,271.7,307.85" style="stroke: #4A4A86; stroke-width: 1.0;"/><!--MD5=[4fae1bbede267e14a46deb01672f1f13]
link 2.5 to xtensa_smp--><path d="M420.25,232.44 C412.29,241.26 402.18,250.49 391,256 C366.47,268.09 354.86,252.61 330,264 C309.98,273.18 291.48,289.58 277.86,303.85 " fill="none" id="2.5-&gt;xtensa_smp" style="stroke: #4A4A86; stroke-width: 1.0; stroke-dasharray: 7.0,7.0;"/><polygon fill="#4A4A86" points="274.15,307.82,283.2156,303.971,277.5621,304.1652,277.3679,298.5117,274.15,307.82" style="stroke: #4A4A86; stroke-width: 1.0;"/><!--MD5=[d8df1a70dad104bcb78d1d6113c761c3]
link apollolake to 1.5--><path d="M102,108.23 C112.46,128.5 127.66,157.94 138.75,179.4 " fill="none" id="apollolake-&gt;1.5" style="stroke: #4A4A86; stroke-width: 1.0; stroke-dasharray: 7.0,7.0;"/><polygon fill="#4A4A86" points="141.05,183.85,140.4896,174.0171,138.7626,179.4039,133.3758,177.6769,141.05,183.85" style="stroke: #4A4A86; stroke-width: 1.0;"/><!--MD5=[d4b7e3b18c673c0a6fe5f1302ce4546d]
link cannonlake to 1.8--><path d="M236.67,108.23 C238.97,128.33 242.31,157.45 244.77,178.86 " fill="none" id="cannonlake-&gt;1.8" style="stroke: #4A4A86; stroke-width: 1.0; stroke-dasharray: 7.0,7.0;"/><polygon fill="#4A4A86" points="245.34,183.85,248.3128,174.4605,244.7831,178.8811,240.3625,175.3515,245.34,183.85" style="stroke: #4A4A86; stroke-width: 1.0;"/><!--MD5=[7fe60b91c1da7593fd2fb257f3c5ddc4]
link icelake to 2.0--><path d="M363.24,108.23 C359.12,128.33 353.15,157.45 348.77,178.86 " fill="none" id="icelake-&gt;2.0" style="stroke: #4A4A86; stroke-width: 1.0; stroke-dasharray: 7.0,7.0;"/><polygon fill="#4A4A86" points="347.74,183.85,353.4813,175.8476,348.7535,178.9538,345.6473,174.226,347.74,183.85" style="stroke: #4A4A86; stroke-width: 1.0;"/><!--MD5=[7451302f9f814caedc7d71e0b650e79a]
link tigerlake to 2.5--><path d="M481.72,108.23 C472.78,128.42 459.83,157.69 450.34,179.13 " fill="none" id="tigerlake-&gt;2.5" style="stroke: #4A4A86; stroke-width: 1.0; stroke-dasharray: 7.0,7.0;"/><polygon fill="#4A4A86" points="448.25,183.85,455.5567,177.246,450.278,179.2798,448.2443,174.0011,448.25,183.85" style="stroke: #4A4A86; stroke-width: 1.0;"/><!--MD5=[83939b632432631915f1479d069ca82b]
@startuml
hidefootbox
skinparam componentStyle uml2

skinparam defaultFontColor	#33335b

skinparam rectangle {
	color		#d6d6de
	backgroundColor	#ffffff
}

skinparam component {
	backgroundColor	#ffffff
	borderColor	#33335b
	arrowColor	#f05772
}

skinparam interface {
	backgroundColor	#ffffff
	borderColor	#f05772
}

skinparam class {
	backgroundColor	#ffffff
	borderColor	#33335b
	arrowColor	#f05772
}
skinparam stereotypeCBackgroundColor	#6fccdd

skinparam sequence {
	arrowColor		#4a4a86
	lifeLineBorderColor	#f05772
	groupBorderColor	#a1a1ca
	boxBorderColor		#a1a1ca
	dividerBorderColor	#d6d6de
	dividerBorderThickness	1
}
skinparam participant {
	borderColor		#33335b
	backgroundColor		#ffffff
}
skinparam actor {
	borderColor		#33335b
	backgroundColor		#ffffff
}

skinparam state {
	borderColor		#33335b
	backgroundColor		#ffffff
}

skinparam node {
	backgroundColor		#ffffff
}

skinparam note {
	backgroundColor 	#f6ed80
	borderColor		#d6d6de
}
package cavs {
   component 2.5
   component 2.0
   component 1.8
   component 1.5
}

package arch {
   component host
   component xtensa
   component xtensa_smp
}

1.5 ..> xtensa_smp
1.8 ..> xtensa_smp
2.0 ..> xtensa_smp
2.5 ..> xtensa_smp

package platform {
   component icelake
   component cannonlake
   component apollolake
   component tigerlake
}

apollolake ..> 1.5
cannonlake ..> 1.8
icelake ..> 2.0
tigerlake ..> 2.5

@enduml

PlantUML version 1.2019.12(Sun Nov 03 11:24:54 CET 2019)
(GPL source distribution)
Java Runtime: OpenJDK Runtime Environment
JVM: OpenJDK 64-Bit Server VM
Java Version: 1.8.0_302-b08
Operating System: Windows 10
Default Encoding: Cp1252
Language: en
Country: US
--></g></svg>