<?xml version="1.0" encoding="UTF-8" standalone="no"?><svg xmlns="http://www.w3.org/2000/svg" xmlns:xlink="http://www.w3.org/1999/xlink" contentScriptType="application/ecmascript" contentStyleType="text/css" height="623.9196px" preserveAspectRatio="none" style="width:1009px;height:623px;" version="1.1" viewBox="0 0 1009 623" width="1009.206px" zoomAndPan="magnify"><defs><filter height="300%" id="f3z6dvy7jz8ub" width="300%" x="-1" y="-1"><feGaussianBlur result="blurOut" stdDeviation="1.2864321608040201"/><feColorMatrix in="blurOut" result="blurOut2" type="matrix" values="0 0 0 0 0 0 0 0 0 0 0 0 0 0 0 0 0 0 .4 0"/><feOffset dx="2.5728643216080402" dy="2.5728643216080402" in="blurOut2" result="blurOut3"/><feBlend in="SourceGraphic" in2="blurOut3" mode="normal"/></filter></defs><g><!--MD5=[a1a11d38f6e058b6809017927de9ff65]
cluster pipelines--><rect fill="#FFFFFF" filter="url(#f3z6dvy7jz8ub)" height="53.3869" style="stroke: #33335B; stroke-width: 0.964824120603015;" width="73.3266" x="492.0603" y="96.1608"/><rect fill="#FFFFFF" height="6.4322" style="stroke: #33335B; stroke-width: 0.964824120603015;" width="9.6482" x="552.5226" y="99.3769"/><rect fill="#FFFFFF" height="1.2864" style="stroke: #33335B; stroke-width: 0.964824120603015;" width="2.5729" x="551.2362" y="100.6633"/><rect fill="#FFFFFF" height="1.2864" style="stroke: #33335B; stroke-width: 0.964824120603015;" width="2.5729" x="551.2362" y="103.2362"/><text fill="#33335B" font-family="sans-serif" font-size="9.005" font-weight="bold" lengthAdjust="spacingAndGlyphs" textLength="45.6683" x="505.8894" y="112.8813">pipelines</text><!--MD5=[ff658e621e4d039d232dc2816b4a8497]
cluster component--><rect fill="#FFFFFF" filter="url(#f3z6dvy7jz8ub)" height="214.8342" style="stroke: #33335B; stroke-width: 0.964824120603015;" width="457.3266" x="14.1508" y="15.4372"/><rect fill="#FFFFFF" height="6.4322" style="stroke: #33335B; stroke-width: 0.964824120603015;" width="9.6482" x="458.6131" y="18.6533"/><rect fill="#FFFFFF" height="1.2864" style="stroke: #33335B; stroke-width: 0.964824120603015;" width="2.5729" x="457.3266" y="19.9397"/><rect fill="#FFFFFF" height="1.2864" style="stroke: #33335B; stroke-width: 0.964824120603015;" width="2.5729" x="457.3266" y="22.5126"/><text fill="#33335B" font-family="sans-serif" font-size="9.005" font-weight="bold" lengthAdjust="spacingAndGlyphs" textLength="57.2462" x="214.191" y="32.1577">component</text><!--MD5=[9cf1b14f3eb555d48984a829b276a5e5]
cluster module_adapter--><rect fill="#FFFFFF" filter="url(#f3z6dvy7jz8ub)" height="141.5075" style="stroke: #33335B; stroke-width: 0.964824120603015;" width="475.9799" x="151.799" y="251.4975"/><rect fill="#FFFFFF" height="6.4322" style="stroke: #33335B; stroke-width: 0.964824120603015;" width="9.6482" x="614.9146" y="254.7136"/><rect fill="#FFFFFF" height="1.2864" style="stroke: #33335B; stroke-width: 0.964824120603015;" width="2.5729" x="613.6281" y="256"/><rect fill="#FFFFFF" height="1.2864" style="stroke: #33335B; stroke-width: 0.964824120603015;" width="2.5729" x="613.6281" y="258.5729"/><text fill="#33335B" font-family="sans-serif" font-size="9.005" font-weight="bold" lengthAdjust="spacingAndGlyphs" textLength="81.0452" x="349.2663" y="268.218">module_adapter</text><!--MD5=[83124def8c0b9e1f5380567e315d2414]
cluster cadence adapter--><rect fill="#FFFFFF" filter="url(#f3z6dvy7jz8ub)" height="108.0603" style="stroke: #33335B; stroke-width: 0.964824120603015;" width="295.8794" x="301.0251" y="424.201"/><rect fill="#FFFFFF" height="6.4322" style="stroke: #33335B; stroke-width: 0.964824120603015;" width="9.6482" x="584.0402" y="427.4171"/><rect fill="#FFFFFF" height="1.2864" style="stroke: #33335B; stroke-width: 0.964824120603015;" width="2.5729" x="582.7538" y="428.7035"/><rect fill="#FFFFFF" height="1.2864" style="stroke: #33335B; stroke-width: 0.964824120603015;" width="2.5729" x="582.7538" y="431.2764"/><text fill="#33335B" font-family="sans-serif" font-size="9.005" font-weight="bold" lengthAdjust="spacingAndGlyphs" textLength="85.5477" x="406.191" y="440.9215">cadence adapter</text><!--MD5=[ed9209f5199499afc407bc2268bb9dfa]
cluster custom extensions--><rect fill="#FFFFFF" filter="url(#f3z6dvy7jz8ub)" height="53.3869" style="stroke: #33335B; stroke-width: 0.964824120603015;" width="170.4523" x="443.8191" y="563.4573"/><rect fill="#FFFFFF" height="6.4322" style="stroke: #33335B; stroke-width: 0.964824120603015;" width="9.6482" x="601.407" y="566.6734"/><rect fill="#FFFFFF" height="1.2864" style="stroke: #33335B; stroke-width: 0.964824120603015;" width="2.5729" x="600.1206" y="567.9598"/><rect fill="#FFFFFF" height="1.2864" style="stroke: #33335B; stroke-width: 0.964824120603015;" width="2.5729" x="600.1206" y="570.5327"/><text fill="#33335B" font-family="sans-serif" font-size="9.005" font-weight="bold" lengthAdjust="spacingAndGlyphs" textLength="96.4824" x="480.804" y="580.1778">custom extensions</text><!--MD5=[228a531319c91f891ae8298b1c50abce]
cluster IADK adapter--><rect fill="#FFFFFF" filter="url(#f3z6dvy7jz8ub)" height="128" style="stroke: #33335B; stroke-width: 0.964824120603015;" width="389.7889" x="612.3417" y="414.2312"/><rect fill="#FFFFFF" height="6.4322" style="stroke: #33335B; stroke-width: 0.964824120603015;" width="9.6482" x="989.2663" y="417.4472"/><rect fill="#FFFFFF" height="1.2864" style="stroke: #33335B; stroke-width: 0.964824120603015;" width="2.5729" x="987.9799" y="418.7337"/><rect fill="#FFFFFF" height="1.2864" style="stroke: #33335B; stroke-width: 0.964824120603015;" width="2.5729" x="987.9799" y="421.3065"/><text fill="#33335B" font-family="sans-serif" font-size="9.005" font-weight="bold" lengthAdjust="spacingAndGlyphs" textLength="66.2513" x="774.1106" y="430.9516">IADK adapter</text><!--MD5=[ab55af83c6f8e96805fa81b05d6a69db]
class pipeline--><rect fill="#FFFFFF" filter="url(#f3z6dvy7jz8ub)" height="20.5829" id="pipeline" style="stroke: #33335B; stroke-width: 0.964824120603015;" width="52.1005" x="502.6734" y="118.6734"/><ellipse cx="512.3216" cy="128.9648" fill="#6FCCDD" rx="7.0754" ry="7.0754" style="stroke: #33335B; stroke-width: 0.6432160804020101;"/><path d="M514.2312,132.593 Q513.8593,132.7839 513.4472,132.8744 Q513.0352,132.9749 512.5829,132.9749 Q510.9749,132.9749 510.1206,131.9196 Q509.2764,130.8543 509.2764,128.8442 Q509.2764,126.8342 510.1206,125.7688 Q510.9749,124.7035 512.5829,124.7035 Q513.0352,124.7035 513.4472,124.804 Q513.8693,124.9045 514.2312,125.0955 L514.2312,126.8442 Q513.8291,126.4724 513.4472,126.3015 Q513.0653,126.1206 512.6633,126.1206 Q511.799,126.1206 511.3568,126.8141 Q510.9146,127.4975 510.9146,128.8442 Q510.9146,130.191 511.3568,130.8844 Q511.799,131.5678 512.6633,131.5678 Q513.0653,131.5678 513.4472,131.397 Q513.8291,131.2161 514.2312,130.8442 L514.2312,132.593 Z "/><text fill="#33335B" font-family="sans-serif" font-size="7.7186" lengthAdjust="spacingAndGlyphs" textLength="31.5176" x="521.3266" y="131.6369">pipeline</text><!--MD5=[8c61665d9a482ae36487effce834807d]
class comp_driver--><rect fill="#FFFFFF" filter="url(#f3z6dvy7jz8ub)" height="24.402" id="comp_driver" style="stroke: #33335B; stroke-width: 0.964824120603015;" width="68.8241" x="91.6583" y="116.7437"/><ellipse cx="101.3065" cy="128.9447" fill="#6FCCDD" rx="7.0754" ry="7.0754" style="stroke: #33335B; stroke-width: 0.6432160804020101;"/><path d="M103.2161,132.5729 Q102.8442,132.7638 102.4322,132.8543 Q102.0201,132.9548 101.5678,132.9548 Q99.9598,132.9548 99.1055,131.8995 Q98.2613,130.8342 98.2613,128.8241 Q98.2613,126.8141 99.1055,125.7487 Q99.9598,124.6834 101.5678,124.6834 Q102.0201,124.6834 102.4322,124.7839 Q102.8543,124.8844 103.2161,125.0754 L103.2161,126.8241 Q102.8141,126.4523 102.4322,126.2814 Q102.0503,126.1005 101.6482,126.1005 Q100.7839,126.1005 100.3417,126.794 Q99.8995,127.4774 99.8995,128.8241 Q99.8995,130.1709 100.3417,130.8643 Q100.7839,131.5477 101.6482,131.5477 Q102.0503,131.5477 102.4322,131.3769 Q102.8141,131.196 103.2161,130.8241 L103.2161,132.5729 Z "/><text fill="#33335B" font-family="sans-serif" font-size="7.7186" font-style="italic" lengthAdjust="spacingAndGlyphs" textLength="32.1608" x="118.3518" y="127.1244">«struct»</text><text fill="#33335B" font-family="sans-serif" font-size="7.7186" lengthAdjust="spacingAndGlyphs" textLength="48.2412" x="110.3116" y="136.1093">comp_driver</text><!--MD5=[6b61d24a2f07ef25d3ad4d1e1b703523]
class comp_dev--><rect fill="#FFFFFF" filter="url(#f3z6dvy7jz8ub)" height="111.9095" id="comp_dev" style="stroke: #33335B; stroke-width: 0.964824120603015;" width="73.9698" x="215.1558" y="73.005"/><ellipse cx="230.8824" cy="85.206" fill="#6FCCDD" rx="7.0754" ry="7.0754" style="stroke: #33335B; stroke-width: 0.6432160804020101;"/><path d="M232.792,88.8342 Q232.4201,89.0251 232.008,89.1156 Q231.596,89.2161 231.1437,89.2161 Q229.5357,89.2161 228.6814,88.1608 Q227.8372,87.0955 227.8372,85.0854 Q227.8372,83.0754 228.6814,82.0101 Q229.5357,80.9447 231.1437,80.9447 Q231.596,80.9447 232.008,81.0452 Q232.4302,81.1457 232.792,81.3367 L232.792,83.0854 Q232.3899,82.7136 232.008,82.5427 Q231.6261,82.3618 231.2241,82.3618 Q230.3598,82.3618 229.9176,83.0553 Q229.4754,83.7387 229.4754,85.0854 Q229.4754,86.4322 229.9176,87.1256 Q230.3598,87.809 231.2241,87.809 Q231.6261,87.809 232.008,87.6382 Q232.3899,87.4573 232.792,87.0854 L232.792,88.8342 Z "/><text fill="#33335B" font-family="sans-serif" font-size="7.7186" font-style="italic" lengthAdjust="spacingAndGlyphs" textLength="32.1608" x="245.0975" y="83.3857">«struct»</text><text fill="#33335B" font-family="sans-serif" font-size="7.7186" lengthAdjust="spacingAndGlyphs" textLength="39.8794" x="241.2382" y="92.3706">comp_dev</text><line style="stroke: #33335B; stroke-width: 0.964824120603015;" x1="215.799" x2="288.4824" y1="97.407" y2="97.407"/><text fill="#33335B" font-family="sans-serif" font-size="7.0754" lengthAdjust="spacingAndGlyphs" textLength="18.6533" x="219.0151" y="106.5474">state</text><text fill="#33335B" font-family="sans-serif" font-size="7.0754" lengthAdjust="spacingAndGlyphs" textLength="28.9447" x="219.0151" y="114.7836">position</text><text fill="#33335B" font-family="sans-serif" font-size="7.0754" lengthAdjust="spacingAndGlyphs" textLength="26.3719" x="219.0151" y="123.0198">frames</text><text fill="#33335B" font-family="sans-serif" font-size="7.0754" lengthAdjust="spacingAndGlyphs" textLength="28.3015" x="219.0151" y="131.256">pipeline</text><text fill="#33335B" font-family="sans-serif" font-size="7.0754" lengthAdjust="spacingAndGlyphs" textLength="55.9598" x="219.0151" y="139.4921">min_sink_bytes</text><text fill="#33335B" font-family="sans-serif" font-size="7.0754" lengthAdjust="spacingAndGlyphs" textLength="66.2513" x="219.0151" y="147.7283">min_source_bytes</text><text fill="#33335B" font-family="sans-serif" font-size="7.0754" lengthAdjust="spacingAndGlyphs" textLength="15.4372" x="219.0151" y="155.9645">task</text><text fill="#33335B" font-family="sans-serif" font-size="7.0754" lengthAdjust="spacingAndGlyphs" textLength="14.1508" x="219.0151" y="164.2007">size</text><text fill="#33335B" font-family="sans-serif" font-size="7.0754" lengthAdjust="spacingAndGlyphs" textLength="23.1558" x="219.0151" y="172.4369">period</text><text fill="#33335B" font-family="sans-serif" font-size="7.0754" lengthAdjust="spacingAndGlyphs" textLength="7.7186" x="219.0151" y="180.6731">...</text><!--MD5=[26eb10492eb090482a3cc54b27f54819]
class buffer--><rect fill="#FFFFFF" filter="url(#f3z6dvy7jz8ub)" height="20.5829" id="buffer" style="stroke: #33335B; stroke-width: 0.964824120603015;" width="44.3819" x="24.7638" y="118.6734"/><ellipse cx="34.4121" cy="128.9648" fill="#B4A7E5" rx="7.0754" ry="7.0754" style="stroke: #33335B; stroke-width: 0.6432160804020101;"/><path d="M31.7889,126.2412 L31.7889,124.8543 L36.5427,124.8543 L36.5427,126.2412 L34.9548,126.2412 L34.9548,131.4372 L36.5427,131.4372 L36.5427,132.8241 L31.7889,132.8241 L31.7889,131.4372 L33.3769,131.4372 L33.3769,126.2412 L31.7889,126.2412 Z "/><text fill="#33335B" font-family="sans-serif" font-size="7.7186" font-style="italic" lengthAdjust="spacingAndGlyphs" textLength="23.799" x="43.4171" y="131.6369">buffer</text><!--MD5=[ca01a630127841bc4a19e8cd9fad1d12]
class comp_ops--><rect fill="#FFFFFF" filter="url(#f3z6dvy7jz8ub)" height="182.2161" id="comp_ops" style="stroke: #33335B; stroke-width: 0.964824120603015;" width="149.2261" x="311.9598" y="37.9497"/><ellipse cx="363.8995" cy="48.2412" fill="#B4A7E5" rx="7.0754" ry="7.0754" style="stroke: #33335B; stroke-width: 0.6432160804020101;"/><path d="M361.2764,45.5176 L361.2764,44.1307 L366.0302,44.1307 L366.0302,45.5176 L364.4422,45.5176 L364.4422,50.7136 L366.0302,50.7136 L366.0302,52.1005 L361.2764,52.1005 L361.2764,50.7136 L362.8643,50.7136 L362.8643,45.5176 L361.2764,45.5176 Z "/><text fill="#33335B" font-family="sans-serif" font-size="7.7186" font-style="italic" lengthAdjust="spacingAndGlyphs" textLength="39.8794" x="377.0854" y="50.9133">comp_ops</text><line style="stroke: #33335B; stroke-width: 0.964824120603015;" x1="312.603" x2="460.5427" y1="58.5327" y2="58.5327"/><text fill="#33335B" font-family="sans-serif" font-size="7.0754" lengthAdjust="spacingAndGlyphs" textLength="76.5427" x="315.8191" y="67.6731">create() : comp_dev*</text><text fill="#33335B" font-family="sans-serif" font-size="7.0754" lengthAdjust="spacingAndGlyphs" textLength="60.4623" x="315.8191" y="75.9092">free(comp_dev*)</text><text fill="#33335B" font-family="sans-serif" font-size="7.0754" lengthAdjust="spacingAndGlyphs" textLength="61.7487" x="315.8191" y="84.1454">params(params)</text><text fill="#33335B" font-family="sans-serif" font-size="7.0754" lengthAdjust="spacingAndGlyphs" textLength="120.9246" x="315.8191" y="92.3816">dai_get_hw_params(params, dir)</text><text fill="#33335B" font-family="sans-serif" font-size="7.0754" lengthAdjust="spacingAndGlyphs" textLength="141.5075" x="315.8191" y="100.6178">dai_config(dai_config, dai_spec_config)</text><text fill="#33335B" font-family="sans-serif" font-size="7.0754" lengthAdjust="spacingAndGlyphs" textLength="90.0503" x="315.8191" y="108.854">cmd(int cmd, void *data)</text><text fill="#33335B" font-family="sans-serif" font-size="7.0754" lengthAdjust="spacingAndGlyphs" textLength="56.603" x="315.8191" y="117.0901">trigger(int cmd)</text><text fill="#33335B" font-family="sans-serif" font-size="7.0754" lengthAdjust="spacingAndGlyphs" textLength="34.0905" x="315.8191" y="125.3263">prepare()</text><text fill="#33335B" font-family="sans-serif" font-size="7.0754" lengthAdjust="spacingAndGlyphs" textLength="24.4422" x="315.8191" y="133.5625">reset()</text><text fill="#33335B" font-family="sans-serif" font-size="7.0754" lengthAdjust="spacingAndGlyphs" textLength="21.8693" x="315.8191" y="141.7987">copy()</text><text fill="#33335B" font-family="sans-serif" font-size="7.0754" lengthAdjust="spacingAndGlyphs" textLength="34.0905" x="315.8191" y="150.0349">position()</text><text fill="#33335B" font-family="sans-serif" font-size="7.0754" lengthAdjust="spacingAndGlyphs" textLength="51.4573" x="315.8191" y="158.271">get_attribute()</text><text fill="#33335B" font-family="sans-serif" font-size="7.0754" lengthAdjust="spacingAndGlyphs" textLength="51.4573" x="315.8191" y="166.5072">set_attribute()</text><text fill="#33335B" font-family="sans-serif" font-size="7.0754" lengthAdjust="spacingAndGlyphs" textLength="52.7437" x="315.8191" y="174.7434">dai_ts_config()</text><text fill="#33335B" font-family="sans-serif" font-size="7.0754" lengthAdjust="spacingAndGlyphs" textLength="48.2412" x="315.8191" y="182.9796">dai_ts_start()</text><text fill="#33335B" font-family="sans-serif" font-size="7.0754" lengthAdjust="spacingAndGlyphs" textLength="46.9548" x="315.8191" y="191.2158">dai_ts_stop()</text><text fill="#33335B" font-family="sans-serif" font-size="7.0754" lengthAdjust="spacingAndGlyphs" textLength="29.5879" x="315.8191" y="199.4519">unbind()</text><text fill="#33335B" font-family="sans-serif" font-size="7.0754" lengthAdjust="spacingAndGlyphs" textLength="64.9648" x="315.8191" y="207.6881">get_large_config()</text><text fill="#33335B" font-family="sans-serif" font-size="7.0754" lengthAdjust="spacingAndGlyphs" textLength="64.9648" x="315.8191" y="215.9243">set_large_config()</text><!--MD5=[5b9f604750d83b1945427c13bb281bfe]
class module_adapter--><rect fill="#FFFFFF" filter="url(#f3z6dvy7jz8ub)" height="108.8191" id="module_adapter" style="stroke: #33335B; stroke-width: 0.964824120603015;" width="142.1508" x="315.4975" y="274.0101"/><ellipse cx="351.0352" cy="286.2111" fill="#6FCCDD" rx="7.0754" ry="7.0754" style="stroke: #33335B; stroke-width: 0.6432160804020101;"/><path d="M352.9447,289.8392 Q352.5729,290.0302 352.1608,290.1206 Q351.7487,290.2211 351.2965,290.2211 Q349.6884,290.2211 348.8342,289.1658 Q347.9899,288.1005 347.9899,286.0905 Q347.9899,284.0804 348.8342,283.0151 Q349.6884,281.9497 351.2965,281.9497 Q351.7487,281.9497 352.1608,282.0503 Q352.5829,282.1508 352.9447,282.3417 L352.9447,284.0905 Q352.5427,283.7186 352.1608,283.5477 Q351.7789,283.3668 351.3769,283.3668 Q350.5126,283.3668 350.0704,284.0603 Q349.6281,284.7437 349.6281,286.0905 Q349.6281,287.4372 350.0704,288.1307 Q350.5126,288.8141 351.3769,288.8141 Q351.7789,288.8141 352.1608,288.6432 Q352.5427,288.4623 352.9447,288.0905 L352.9447,289.8392 Z "/><text fill="#33335B" font-family="sans-serif" font-size="7.7186" font-style="italic" lengthAdjust="spacingAndGlyphs" textLength="32.1608" x="380.9447" y="284.3907">«struct»</text><text fill="#33335B" font-family="sans-serif" font-size="7.7186" lengthAdjust="spacingAndGlyphs" textLength="65.608" x="364.2211" y="293.3756">module_adapter</text><line style="stroke: #33335B; stroke-width: 0.964824120603015;" x1="316.1407" x2="457.005" y1="298.4121" y2="298.4121"/><text fill="#33335B" font-family="sans-serif" font-size="7.0754" lengthAdjust="spacingAndGlyphs" textLength="66.8945" x="319.3568" y="307.5524">ops : comp_ops =</text><text fill="#33335B" font-family="sans-serif" font-size="7.0754" lengthAdjust="spacingAndGlyphs" textLength="105.4874" x="319.3568" y="315.7886">.create = adapter_shim_new</text><text fill="#33335B" font-family="sans-serif" font-size="7.0754" lengthAdjust="spacingAndGlyphs" textLength="134.4322" x="319.3568" y="324.0248">.prepare = module_adapter_prepare</text><text fill="#33335B" font-family="sans-serif" font-size="7.0754" lengthAdjust="spacingAndGlyphs" textLength="133.1457" x="319.3568" y="332.261">.params = module_adapter_params</text><text fill="#33335B" font-family="sans-serif" font-size="7.0754" lengthAdjust="spacingAndGlyphs" textLength="109.9899" x="319.3568" y="340.4972">.copy = module_adapter_copy</text><line style="stroke: #33335B; stroke-width: 0.964824120603015;" x1="316.1407" x2="457.005" y1="344.7387" y2="344.7387"/><text fill="#33335B" font-family="sans-serif" font-size="7.0754" lengthAdjust="spacingAndGlyphs" textLength="73.9698" x="319.3568" y="353.8791">adapter_shim_new()</text><text fill="#33335B" font-family="sans-serif" font-size="7.0754" lengthAdjust="spacingAndGlyphs" textLength="97.1256" x="319.3568" y="362.1153">module_adapter_prepare()</text><text fill="#33335B" font-family="sans-serif" font-size="7.0754" lengthAdjust="spacingAndGlyphs" textLength="96.4824" x="319.3568" y="370.3514">module_adapter_params()</text><text fill="#33335B" font-family="sans-serif" font-size="7.0754" lengthAdjust="spacingAndGlyphs" textLength="84.9045" x="319.3568" y="378.5876">module_adapter_copy()</text><!--MD5=[bec103932c5f68fab4e06c506df891f3]
class module_interface--><rect fill="#FFFFFF" filter="url(#f3z6dvy7jz8ub)" height="99.8543" id="module_interface" style="stroke: #33335B; stroke-width: 0.964824120603015;" width="117.7085" x="499.4573" y="278.5126"/><ellipse cx="521.5518" cy="288.804" fill="#B4A7E5" rx="7.0754" ry="7.0754" style="stroke: #33335B; stroke-width: 0.6432160804020101;"/><path d="M518.9286,286.0804 L518.9286,284.6935 L523.6824,284.6935 L523.6824,286.0804 L522.0945,286.0804 L522.0945,291.2764 L523.6824,291.2764 L523.6824,292.6633 L518.9286,292.6633 L518.9286,291.2764 L520.5166,291.2764 L520.5166,286.0804 L518.9286,286.0804 Z "/><text fill="#33335B" font-family="sans-serif" font-size="7.7186" font-style="italic" lengthAdjust="spacingAndGlyphs" textLength="69.4673" x="533.3226" y="291.4761">module_interface</text><line style="stroke: #33335B; stroke-width: 0.964824120603015;" x1="500.1005" x2="616.5226" y1="299.0955" y2="299.0955"/><text fill="#33335B" font-family="sans-serif" font-size="7.0754" lengthAdjust="spacingAndGlyphs" textLength="91.3367" x="503.3166" y="308.2359">init(processing_module*)</text><text fill="#33335B" font-family="sans-serif" font-size="7.0754" lengthAdjust="spacingAndGlyphs" textLength="109.3467" x="503.3166" y="316.472">prepare(processing_module*)</text><text fill="#33335B" font-family="sans-serif" font-size="7.0754" lengthAdjust="spacingAndGlyphs" textLength="109.9899" x="503.3166" y="324.7082">process(processing_module*)</text><text fill="#33335B" font-family="sans-serif" font-size="7.0754" lengthAdjust="spacingAndGlyphs" textLength="68.1809" x="503.3166" y="332.9444">set_configuration()</text><text fill="#33335B" font-family="sans-serif" font-size="7.0754" lengthAdjust="spacingAndGlyphs" textLength="68.1809" x="503.3166" y="341.1806">get_configuration()</text><text fill="#33335B" font-family="sans-serif" font-size="7.0754" lengthAdjust="spacingAndGlyphs" textLength="85.5477" x="503.3166" y="349.4168">set_processing_mode()</text><text fill="#33335B" font-family="sans-serif" font-size="7.0754" lengthAdjust="spacingAndGlyphs" textLength="85.5477" x="503.3166" y="357.653">get_processing_mode()</text><text fill="#33335B" font-family="sans-serif" font-size="7.0754" lengthAdjust="spacingAndGlyphs" textLength="24.4422" x="503.3166" y="365.8891">reset()</text><text fill="#33335B" font-family="sans-serif" font-size="7.0754" lengthAdjust="spacingAndGlyphs" textLength="19.9397" x="503.3166" y="374.1253">free()</text><!--MD5=[b0280707e05c65c35cde1c9841fa0ea9]
class processing_module--><rect fill="#FFFFFF" filter="url(#f3z6dvy7jz8ub)" height="87.201" id="processing_module" style="stroke: #33335B; stroke-width: 0.964824120603015;" width="98.4121" x="162.4121" y="284.6231"/><ellipse cx="172.0603" cy="296.8241" fill="#6FCCDD" rx="7.0754" ry="7.0754" style="stroke: #33335B; stroke-width: 0.6432160804020101;"/><path d="M173.9698,300.4523 Q173.598,300.6432 173.1859,300.7337 Q172.7739,300.8342 172.3216,300.8342 Q170.7136,300.8342 169.8593,299.7789 Q169.0151,298.7136 169.0151,296.7035 Q169.0151,294.6935 169.8593,293.6281 Q170.7136,292.5628 172.3216,292.5628 Q172.7739,292.5628 173.1859,292.6633 Q173.608,292.7638 173.9698,292.9548 L173.9698,294.7035 Q173.5678,294.3317 173.1859,294.1608 Q172.804,293.9799 172.402,293.9799 Q171.5377,293.9799 171.0955,294.6734 Q170.6533,295.3568 170.6533,296.7035 Q170.6533,298.0503 171.0955,298.7437 Q171.5377,299.4271 172.402,299.4271 Q172.804,299.4271 173.1859,299.2563 Q173.5678,299.0754 173.9698,298.7035 L173.9698,300.4523 Z "/><text fill="#33335B" font-family="sans-serif" font-size="7.7186" font-style="italic" lengthAdjust="spacingAndGlyphs" textLength="32.1608" x="203.8995" y="295.0038">«struct»</text><text fill="#33335B" font-family="sans-serif" font-size="7.7186" lengthAdjust="spacingAndGlyphs" textLength="77.8291" x="181.0653" y="303.9887">processing_module</text><line style="stroke: #33335B; stroke-width: 0.964824120603015;" x1="163.0553" x2="260.1809" y1="309.0251" y2="309.0251"/><text fill="#33335B" font-family="sans-serif" font-size="7.0754" lengthAdjust="spacingAndGlyphs" textLength="58.5327" x="166.2714" y="318.1655">stream_params</text><text fill="#33335B" font-family="sans-serif" font-size="7.0754" lengthAdjust="spacingAndGlyphs" textLength="55.3166" x="166.2714" y="326.4017">sink_buffer_list</text><text fill="#33335B" font-family="sans-serif" font-size="7.0754" lengthAdjust="spacingAndGlyphs" textLength="46.9548" x="166.2714" y="334.6379">period_bytes</text><text fill="#33335B" font-family="sans-serif" font-size="7.0754" lengthAdjust="spacingAndGlyphs" textLength="59.8191" x="166.2714" y="342.8741">deep_buff_bytes</text><text fill="#33335B" font-family="sans-serif" font-size="7.0754" lengthAdjust="spacingAndGlyphs" textLength="66.8945" x="166.2714" y="351.1102">output_buffer_size</text><text fill="#33335B" font-family="sans-serif" font-size="7.0754" lengthAdjust="spacingAndGlyphs" textLength="53.3869" x="166.2714" y="359.3464">input_buffers[]</text><text fill="#33335B" font-family="sans-serif" font-size="7.0754" lengthAdjust="spacingAndGlyphs" textLength="58.5327" x="166.2714" y="367.5826">output_buffers[]</text><!--MD5=[954e307aa4875e2547e5d60c7f6a7b34]
class cadence_codec--><rect fill="#FFFFFF" filter="url(#f3z6dvy7jz8ub)" height="75.1457" id="cadence_codec" style="stroke: #33335B; stroke-width: 0.964824120603015;" width="135.0754" x="311.3166" y="446.7136"/><ellipse cx="344.603" cy="457.005" fill="#6FCCDD" rx="7.0754" ry="7.0754" style="stroke: #33335B; stroke-width: 0.6432160804020101;"/><path d="M346.5126,460.6332 Q346.1407,460.8241 345.7286,460.9146 Q345.3166,461.0151 344.8643,461.0151 Q343.2563,461.0151 342.402,459.9598 Q341.5578,458.8945 341.5578,456.8844 Q341.5578,454.8744 342.402,453.809 Q343.2563,452.7437 344.8643,452.7437 Q345.3166,452.7437 345.7286,452.8442 Q346.1508,452.9447 346.5126,453.1357 L346.5126,454.8844 Q346.1106,454.5126 345.7286,454.3417 Q345.3467,454.1608 344.9447,454.1608 Q344.0804,454.1608 343.6382,454.8543 Q343.196,455.5377 343.196,456.8844 Q343.196,458.2312 343.6382,458.9246 Q344.0804,459.608 344.9447,459.608 Q345.3467,459.608 345.7286,459.4372 Q346.1106,459.2563 346.5126,458.8844 L346.5126,460.6332 Z "/><text fill="#33335B" font-family="sans-serif" font-size="7.7186" lengthAdjust="spacingAndGlyphs" textLength="63.0352" x="357.7889" y="459.6771">cadence_codec</text><line style="stroke: #33335B; stroke-width: 0.964824120603015;" x1="311.9598" x2="445.7487" y1="467.2965" y2="467.2965"/><text fill="#33335B" font-family="sans-serif" font-size="7.0754" lengthAdjust="spacingAndGlyphs" textLength="75.2563" x="315.1759" y="476.4369">cadence_codec_init()</text><text fill="#33335B" font-family="sans-serif" font-size="7.0754" lengthAdjust="spacingAndGlyphs" textLength="93.2663" x="315.1759" y="484.6731">cadence_codec_prepare()</text><text fill="#33335B" font-family="sans-serif" font-size="7.0754" lengthAdjust="spacingAndGlyphs" textLength="93.9095" x="315.1759" y="492.9092">cadence_codec_process()</text><text fill="#33335B" font-family="sans-serif" font-size="7.0754" lengthAdjust="spacingAndGlyphs" textLength="127.3568" x="315.1759" y="501.1454">cadence_codec_set_configuration()</text><text fill="#33335B" font-family="sans-serif" font-size="7.0754" lengthAdjust="spacingAndGlyphs" textLength="83.6181" x="315.1759" y="509.3816">cadence_codec_reset()</text><text fill="#33335B" font-family="sans-serif" font-size="7.0754" lengthAdjust="spacingAndGlyphs" textLength="79.1156" x="315.1759" y="517.6178">cadence_codec_free()</text><!--MD5=[cff658074283d53f291ec3d05093c2d3]
class cadence_codec_api--><rect fill="#FFFFFF" filter="url(#f3z6dvy7jz8ub)" height="20.5829" id="cadence_codec_api" style="stroke: #33335B; stroke-width: 0.964824120603015;" width="98.4121" x="487.8794" y="474.0503"/><ellipse cx="497.5276" cy="484.3417" fill="#B4A7E5" rx="7.0754" ry="7.0754" style="stroke: #33335B; stroke-width: 0.6432160804020101;"/><path d="M494.9045,481.6181 L494.9045,480.2312 L499.6583,480.2312 L499.6583,481.6181 L498.0704,481.6181 L498.0704,486.8141 L499.6583,486.8141 L499.6583,488.201 L494.9045,488.201 L494.9045,486.8141 L496.4925,486.8141 L496.4925,481.6181 L494.9045,481.6181 Z "/><text fill="#33335B" font-family="sans-serif" font-size="7.7186" font-style="italic" lengthAdjust="spacingAndGlyphs" textLength="77.8291" x="506.5327" y="487.0138">Cadence Codec API</text><!--MD5=[91e7e3f1b5ef35a4c762cea977515a72]
class mp3_codec--><rect fill="#FFFFFF" filter="url(#f3z6dvy7jz8ub)" height="20.5829" id="mp3_codec" style="stroke: #33335B; stroke-width: 0.964824120603015;" width="64.9648" x="454.4322" y="585.9698"/><ellipse cx="464.0804" cy="596.2613" fill="#6FCCDD" rx="7.0754" ry="7.0754" style="stroke: #33335B; stroke-width: 0.6432160804020101;"/><path d="M465.9899,599.8894 Q465.6181,600.0804 465.206,600.1709 Q464.794,600.2714 464.3417,600.2714 Q462.7337,600.2714 461.8794,599.2161 Q461.0352,598.1508 461.0352,596.1407 Q461.0352,594.1307 461.8794,593.0653 Q462.7337,592 464.3417,592 Q464.794,592 465.206,592.1005 Q465.6281,592.201 465.9899,592.392 L465.9899,594.1407 Q465.5879,593.7688 465.206,593.598 Q464.8241,593.4171 464.4221,593.4171 Q463.5578,593.4171 463.1156,594.1106 Q462.6734,594.794 462.6734,596.1407 Q462.6734,597.4874 463.1156,598.1809 Q463.5578,598.8643 464.4221,598.8643 Q464.8241,598.8643 465.206,598.6935 Q465.5879,598.5126 465.9899,598.1407 L465.9899,599.8894 Z "/><text fill="#33335B" font-family="sans-serif" font-size="7.7186" lengthAdjust="spacingAndGlyphs" textLength="44.3819" x="473.0854" y="598.9334">mp3 codec</text><!--MD5=[082d41bd7cc6dd1de244530051b3029d]
class aac_codec--><rect fill="#FFFFFF" filter="url(#f3z6dvy7jz8ub)" height="20.5829" id="aac_codec" style="stroke: #33335B; stroke-width: 0.964824120603015;" width="62.392" x="541.9095" y="585.9698"/><ellipse cx="551.5578" cy="596.2613" fill="#6FCCDD" rx="7.0754" ry="7.0754" style="stroke: #33335B; stroke-width: 0.6432160804020101;"/><path d="M553.4673,599.8894 Q553.0955,600.0804 552.6834,600.1709 Q552.2714,600.2714 551.8191,600.2714 Q550.2111,600.2714 549.3568,599.2161 Q548.5126,598.1508 548.5126,596.1407 Q548.5126,594.1307 549.3568,593.0653 Q550.2111,592 551.8191,592 Q552.2714,592 552.6834,592.1005 Q553.1055,592.201 553.4673,592.392 L553.4673,594.1407 Q553.0653,593.7688 552.6834,593.598 Q552.3015,593.4171 551.8995,593.4171 Q551.0352,593.4171 550.593,594.1106 Q550.1508,594.794 550.1508,596.1407 Q550.1508,597.4874 550.593,598.1809 Q551.0352,598.8643 551.8995,598.8643 Q552.3015,598.8643 552.6834,598.6935 Q553.0653,598.5126 553.4673,598.1407 L553.4673,599.8894 Z "/><text fill="#33335B" font-family="sans-serif" font-size="7.7186" lengthAdjust="spacingAndGlyphs" textLength="41.809" x="560.5628" y="598.9334">aac codec</text><!--MD5=[d76e75ea89c3d04afdc6e1ba0021ec57]
class adp_interface--><rect fill="#FFFFFF" filter="url(#f3z6dvy7jz8ub)" height="50.4372" id="adp_interface" style="stroke: #33335B; stroke-width: 0.964824120603015;" width="97.1256" x="622.9548" y="459.2563"/><ellipse cx="642.1548" cy="469.5477" fill="#6FCCDD" rx="7.0754" ry="7.0754" style="stroke: #33335B; stroke-width: 0.6432160804020101;"/><path d="M644.0643,473.1759 Q643.6925,473.3668 643.2804,473.4573 Q642.8683,473.5578 642.4161,473.5578 Q640.808,473.5578 639.9538,472.5025 Q639.1095,471.4372 639.1095,469.4271 Q639.1095,467.4171 639.9538,466.3518 Q640.808,465.2864 642.4161,465.2864 Q642.8683,465.2864 643.2804,465.3869 Q643.7025,465.4874 644.0643,465.6784 L644.0643,467.4271 Q643.6623,467.0553 643.2804,466.8844 Q642.8985,466.7035 642.4965,466.7035 Q641.6322,466.7035 641.1899,467.397 Q640.7477,468.0804 640.7477,469.4271 Q640.7477,470.7739 641.1899,471.4673 Q641.6322,472.1508 642.4965,472.1508 Q642.8985,472.1508 643.2804,471.9799 Q643.6623,471.799 644.0643,471.4271 L644.0643,473.1759 Z "/><text fill="#33335B" font-family="sans-serif" font-size="7.7186" lengthAdjust="spacingAndGlyphs" textLength="55.3166" x="653.2824" y="472.2198">adp_interface</text><line style="stroke: #33335B; stroke-width: 0.964824120603015;" x1="623.598" x2="719.4372" y1="479.8392" y2="479.8392"/><text fill="#33335B" font-family="sans-serif" font-size="7.0754" lengthAdjust="spacingAndGlyphs" textLength="70.7538" x="626.8141" y="488.9796">intel_modules_init()</text><text fill="#33335B" font-family="sans-serif" font-size="7.0754" lengthAdjust="spacingAndGlyphs" textLength="88.7638" x="626.8141" y="497.2158">intel_modules_prepare()</text><text fill="#33335B" font-family="sans-serif" font-size="7.0754" lengthAdjust="spacingAndGlyphs" textLength="89.407" x="626.8141" y="505.4519">intel_modules_process()</text><!--MD5=[2266107fe48bdb9bbfb1652e8ae09970]
class ProcessingModuleInterface--><rect fill="#FFFFFF" filter="url(#f3z6dvy7jz8ub)" height="95.4372" id="ProcessingModuleInterface" style="stroke: #33335B; stroke-width: 0.964824120603015;" width="230.2714" x="761.5678" y="436.7437"/><ellipse cx="819.9397" cy="448.9447" fill="#B4A7E5" rx="7.0754" ry="7.0754" style="stroke: #33335B; stroke-width: 0.6432160804020101;"/><path d="M817.3166,446.2211 L817.3166,444.8342 L822.0704,444.8342 L822.0704,446.2211 L820.4824,446.2211 L820.4824,451.4171 L822.0704,451.4171 L822.0704,452.804 L817.3166,452.804 L817.3166,451.4171 L818.9045,451.4171 L818.9045,446.2211 L817.3166,446.2211 Z "/><text fill="#33335B" font-family="sans-serif" font-size="7.7186" font-style="italic" lengthAdjust="spacingAndGlyphs" textLength="27.0151" x="873.6482" y="447.1244">«C++»</text><text fill="#33335B" font-family="sans-serif" font-size="7.7186" font-style="italic" lengthAdjust="spacingAndGlyphs" textLength="108.0603" x="833.1256" y="456.1093">ProcessingModuleInterface</text><line style="stroke: #33335B; stroke-width: 0.964824120603015;" x1="762.2111" x2="991.196" y1="461.1457" y2="461.1457"/><text fill="#33335B" font-family="sans-serif" font-size="7.0754" lengthAdjust="spacingAndGlyphs" textLength="16.0804" x="765.4271" y="470.2861">Init()</text><text fill="#33335B" font-family="sans-serif" font-size="7.0754" lengthAdjust="spacingAndGlyphs" textLength="28.3015" x="765.4271" y="478.5223">Delete()</text><text fill="#33335B" font-family="sans-serif" font-size="7.0754" lengthAdjust="spacingAndGlyphs" textLength="34.7337" x="765.4271" y="486.7585">Process()</text><text fill="#33335B" font-family="sans-serif" font-size="7.0754" lengthAdjust="spacingAndGlyphs" textLength="25.7286" x="765.4271" y="494.9947">Reset()</text><text fill="#33335B" font-family="sans-serif" font-size="7.0754" lengthAdjust="spacingAndGlyphs" textLength="77.1859" x="765.4271" y="503.2308">SetProcessingMode()</text><text fill="#33335B" font-family="sans-serif" font-size="7.0754" lengthAdjust="spacingAndGlyphs" textLength="77.8291" x="765.4271" y="511.467">GetProcessingMode()</text><text fill="#33335B" font-family="sans-serif" font-size="7.0754" lengthAdjust="spacingAndGlyphs" textLength="222.5528" x="765.4271" y="519.7032">SetConfiguration(config_id, fragment_pos, data_in, data_out)</text><text fill="#33335B" font-family="sans-serif" font-size="7.0754" lengthAdjust="spacingAndGlyphs" textLength="191.6784" x="765.4271" y="527.9394">GetConfiguration(config_id, fragment_pos, data_out)</text><!--MD5=[a5b5e72d9b0d4a48ef290bd53b21d5f1]
link comp_driver to comp_dev--><path d="M160.521,128.9648 C176.3763,128.9648 195.2933,128.9648 211.8111,128.9648 " fill="none" id="comp_driver-&gt;comp_dev" style="stroke: #F05772; stroke-width: 0.6432160804020101;"/><polygon fill="#F05772" points="215.085,128.9648,209.2961,126.392,211.8689,128.9648,209.2961,131.5377,215.085,128.9648" style="stroke: #F05772; stroke-width: 0.6432160804020101;"/><text fill="#33335B" font-family="sans-serif" font-size="8.3618" lengthAdjust="spacingAndGlyphs" textLength="30.8744" x="172.3819" y="124.5053">creates</text><!--MD5=[d98c2d10834ee5d2d229e296494bed2b]
reverse link comp_dev to comp_ops--><path d="M297.6547,128.9648 C302.3694,128.9648 307.0842,128.9648 311.8054,128.9648 " fill="none" id="comp_dev&lt;-comp_ops" style="stroke: #F05772; stroke-width: 0.6432160804020101;"/><polygon fill="#F05772" points="289.1642,128.9648,293.0235,131.5377,296.8828,128.9648,293.0235,126.392,289.1642,128.9648" style="stroke: #F05772; stroke-width: 0.6432160804020101;"/><!--MD5=[52ba4d6b47ea823d65d575a46fa3b5b9]
link pipeline to comp_ops--><path d="M502.5897,128.9648 C491.6229,128.9648 478.2312,128.9648 464.4985,128.9648 " fill="none" id="pipeline-&gt;comp_ops" style="stroke: #F05772; stroke-width: 0.6432160804020101;"/><polygon fill="#F05772" points="461.1859,128.9648,466.9749,131.5377,464.402,128.9648,466.9749,126.392,461.1859,128.9648" style="stroke: #F05772; stroke-width: 0.6432160804020101;"/><text fill="#33335B" font-family="sans-serif" font-size="8.3618" lengthAdjust="spacingAndGlyphs" textLength="18.0101" x="472.9246" y="124.5053">calls</text><!--MD5=[aaabccfb16714fc9340c47e71ad2c16e]
reverse link processing_module to module_adapter--><path d="M264.4454,328.3618 C280.4744,328.3618 298.3558,328.3618 315.3881,328.3618 " fill="none" id="processing_module&lt;-module_adapter" style="stroke: #F05772; stroke-width: 0.6432160804020101;"/><polygon fill="#F05772" points="261.0492,328.3618,266.8382,330.9347,264.2653,328.3618,266.8382,325.7889,261.0492,328.3618" style="stroke: #F05772; stroke-width: 0.6432160804020101;"/><text fill="#33335B" font-family="sans-serif" font-size="8.3618" lengthAdjust="spacingAndGlyphs" textLength="30.8744" x="272.7236" y="323.9023">creates</text><!--MD5=[1e4f0d6cf73b9b985768413b6326e71f]
link module_adapter to module_interface--><path d="M457.6675,328.3618 C470.3196,328.3618 483.409,328.3618 495.8038,328.3618 " fill="none" id="module_adapter-&gt;module_interface" style="stroke: #F05772; stroke-width: 0.6432160804020101;"/><polygon fill="#F05772" points="499.2772,328.3618,493.4882,325.7889,496.0611,328.3618,493.4882,330.9347,499.2772,328.3618" style="stroke: #F05772; stroke-width: 0.6432160804020101;"/><text fill="#33335B" font-family="sans-serif" font-size="8.3618" lengthAdjust="spacingAndGlyphs" textLength="18.0101" x="469.5477" y="323.9023">calls</text><!--MD5=[fbc0d752f7770596b07bf34a6692c77b]
reverse link comp_ops to module_adapter--><path d="M386.5729,233.1851 C386.5729,247.2587 386.5729,261.2036 386.5729,273.8943 " fill="none" id="comp_ops&lt;-module_adapter" style="stroke: #F05772; stroke-width: 0.6432160804020101;"/><polygon fill="none" points="382.0704,233.1208,386.5729,220.2565,391.0754,233.1208,382.0704,233.1208" style="stroke: #F05772; stroke-width: 0.6432160804020101;"/><!--MD5=[ae77626a2b5b5cf743df543cb40f5131]
link cadence_codec to cadence_codec_api--><path d="M446.4177,484.3417 C459.089,484.3417 472.1592,484.3417 484.2967,484.3417 " fill="none" id="cadence_codec-&gt;cadence_codec_api" style="stroke: #F05772; stroke-width: 0.6432160804020101;"/><polygon fill="#F05772" points="487.6929,484.3417,481.9039,481.7688,484.4768,484.3417,481.9039,486.9146,487.6929,484.3417" style="stroke: #F05772; stroke-width: 0.6432160804020101;"/><text fill="#33335B" font-family="sans-serif" font-size="8.3618" lengthAdjust="spacingAndGlyphs" textLength="18.0101" x="458.1307" y="479.8822">calls</text><!--MD5=[5aaaf9e70492d39994b10af25e5d3c36]
reverse link module_interface to cadence_codec--><path d="M491.2498,386.8109 C468.0555,406.8084 442.6999,428.6649 421.9497,446.5528 " fill="none" id="module_interface&lt;-cadence_codec" style="stroke: #F05772; stroke-width: 0.6432160804020101;"/><polygon fill="none" points="488.3554,383.3632,501.0396,378.3783,494.2344,390.1877,488.3554,383.3632" style="stroke: #F05772; stroke-width: 0.6432160804020101;"/><!--MD5=[1312bfc48e74975ad2ad06bd0f55c332]
reverse link cadence_codec_api to mp3_codec--><path d="M527.2764,506.6163 C516.4446,530.5053 499.4702,567.9341 491.4299,585.6611 " fill="none" id="cadence_codec_api&lt;-mp3_codec" style="stroke: #F05772; stroke-width: 0.6432160804020101;"/><polygon fill="none" points="523.2177,504.6609,532.6344,494.8004,531.4187,508.3787,523.2177,504.6609" style="stroke: #F05772; stroke-width: 0.6432160804020101;"/><!--MD5=[7eb0f2c5f41cddb886c270a8ab13e614]
reverse link cadence_codec_api to aac_codec--><path d="M544.2894,507.118 C552.0788,531.0263 564.1327,568.0563 569.8637,585.6611 " fill="none" id="cadence_codec_api&lt;-aac_codec" style="stroke: #F05772; stroke-width: 0.6432160804020101;"/><polygon fill="none" points="539.9863,508.4302,540.2822,494.8004,548.5475,505.6386,539.9863,508.4302" style="stroke: #F05772; stroke-width: 0.6432160804020101;"/><!--MD5=[39d00a9c51610789d50e93c4790eb473]
link adp_interface to ProcessingModuleInterface--><path d="M720.1447,484.3417 C731.8255,484.3417 744.8185,484.3417 758.1781,484.3417 " fill="none" id="adp_interface-&gt;ProcessingModuleInterface" style="stroke: #F05772; stroke-width: 0.6432160804020101;"/><polygon fill="#F05772" points="761.3942,484.3417,755.6052,481.7688,758.1781,484.3417,755.6052,486.9146,761.3942,484.3417" style="stroke: #F05772; stroke-width: 0.6432160804020101;"/><text fill="#33335B" font-family="sans-serif" font-size="8.3618" lengthAdjust="spacingAndGlyphs" textLength="18.0101" x="731.8191" y="479.8822">calls</text><!--MD5=[5f580d4c12dbd68cdf348c7d51a06f56]
reverse link module_interface to adp_interface--><path d="M602.121,388.8691 C620.041,413.3564 639.762,440.3071 653.5847,459.1984 " fill="none" id="module_interface&lt;-adp_interface" style="stroke: #F05772; stroke-width: 0.6432160804020101;"/><polygon fill="none" points="598.4032,391.4163,594.441,378.3783,605.6716,386.0969,598.4032,391.4163" style="stroke: #F05772; stroke-width: 0.6432160804020101;"/><!--MD5=[949bb37956ee771c80bccdc23f51fa4e]
@startuml
hidefootbox
skinparam componentStyle uml2

skinparam defaultFontColor	#33335b

skinparam rectangle {
	color		#d6d6de
	backgroundColor	#ffffff
}

skinparam component {
	backgroundColor	#ffffff
	borderColor	#33335b
	arrowColor	#f05772
}

skinparam interface {
	backgroundColor	#ffffff
	borderColor	#f05772
}

skinparam class {
	backgroundColor	#ffffff
	borderColor	#33335b
	arrowColor	#f05772
}
skinparam stereotypeCBackgroundColor	#6fccdd

skinparam sequence {
	arrowColor		#4a4a86
	lifeLineBorderColor	#f05772
	groupBorderColor	#a1a1ca
	boxBorderColor		#a1a1ca
	dividerBorderColor	#d6d6de
	dividerBorderThickness	1
}
skinparam participant {
	borderColor		#33335b
	backgroundColor		#ffffff
}
skinparam actor {
	borderColor		#33335b
	backgroundColor		#ffffff
}

skinparam state {
	borderColor		#33335b
	backgroundColor		#ffffff
}

skinparam node {
	backgroundColor		#ffffff
}

skinparam note {
	backgroundColor 	#f6ed80
	borderColor		#d6d6de
}

skinparam activity {
	borderColor		#33335b
	backgroundColor		#ffffff
}

skinparam activityDiamond {
	borderColor		#33335b
	backgroundColor		#ffffff
}

skinparam arrowColor	#f05772
skinparam maxMessageSize 400
skinparam BoxPadding 4
scale 1024 width

component "pipelines" {
	class pipeline
	hide pipeline methods
	hide pipeline attributes
}
component "component" {

	class comp_driver <<struct>> {
	}
	hide comp_driver methods
	hide comp_driver attributes

	class comp_dev <<struct>> {
		state
		position
		frames
		pipeline
		min_sink_bytes
		min_source_bytes
		task
		size
		period
		...
	}
	hide comp_dev methods

	interface buffer
	hide buffer methods
	hide buffer attributes

	interface comp_ops {
		create() : comp_dev*
		free(comp_dev*)
		params(params)
		dai_get_hw_params(params, dir)
		dai_config(dai_config, dai_spec_config)
		cmd(int cmd, void *data)
		trigger(int cmd)
		prepare()
		reset()
		copy()
		position()
		get_attribute()
		set_attribute()
		dai_ts_config()
		dai_ts_start()
		dai_ts_stop()
		unbind()
		get_large_config()
		set_large_config()
	}
	hide comp_ops attributes


	comp_driver -> comp_dev : creates
	comp_dev *-right- comp_ops
}
pipeline -> comp_ops : calls

component "module_adapter" {

	class module_adapter <<struct>> {
		ops : comp_ops =
			.create = adapter_shim_new
			.prepare = module_adapter_prepare
			.params = module_adapter_params
			.copy = module_adapter_copy

		adapter_shim_new()
		module_adapter_prepare()
		module_adapter_params()
		module_adapter_copy()
	}

	interface module_interface {
		init(processing_module*)
		prepare(processing_module*)
		process(processing_module*)
		set_configuration()
		get_configuration()
		set_processing_mode()
		get_processing_mode()
		reset()
		free()
	}
	hide module_interface attributes

	class processing_module <<struct>> {
		stream_params
		sink_buffer_list
		period_bytes
		deep_buff_bytes
		output_buffer_size
		input_buffers[]
		output_buffers[]
	}
	hide processing_module methods

	module_adapter -left-> processing_module : creates
	module_adapter -> module_interface : calls

}
module_adapter -up-|> comp_ops

component "cadence adapter" {
	class cadence_codec {
		cadence_codec_init()
		cadence_codec_prepare()
		cadence_codec_process()
		cadence_codec_set_configuration()
		cadence_codec_reset()
		cadence_codec_free()
	}
	hide cadence_codec attributes

	interface "Cadence Codec API" as cadence_codec_api
	hide cadence_codec_api methods
	hide cadence_codec_api attributes

	cadence_codec -> cadence_codec_api : calls
}
cadence_codec -up-|> module_interface

component "custom extensions" {
	class "mp3 codec" as mp3_codec
	hide mp3_codec methods
	hide mp3_codec attributes

	class "aac codec" as aac_codec
	hide aac_codec methods
	hide aac_codec attributes
}
mp3_codec -up-|> cadence_codec_api
aac_codec -up-|> cadence_codec_api

component "IADK adapter" {
	class adp_interface {
		intel_modules_init()
		intel_modules_prepare()
		intel_modules_process()
	}
	hide adp_interface attributes

	interface ProcessingModuleInterface <<C++>> {
		Init()
		Delete()
		Process()
		Reset()
		SetProcessingMode()
		GetProcessingMode()
		SetConfiguration(config_id, fragment_pos, data_in, data_out)
		GetConfiguration(config_id, fragment_pos, data_out)
	}
	hide ProcessingModuleInterface attributes

	adp_interface -> ProcessingModuleInterface : calls
}
adp_interface -up-|> module_interface

@enduml

PlantUML version 1.2019.12(Sun Nov 03 10:24:54 UTC 2019)
(GPL source distribution)
Java Runtime: OpenJDK Runtime Environment
JVM: OpenJDK 64-Bit Server VM
Java Version: 11.0.24+8
Operating System: Linux
Default Encoding: UTF-8
Language: en
Country: null
--></g></svg>