<?xml version="1.0" encoding="UTF-8" standalone="no"?><svg xmlns="http://www.w3.org/2000/svg" xmlns:xlink="http://www.w3.org/1999/xlink" contentScriptType="application/ecmascript" contentStyleType="text/css" height="537px" preserveAspectRatio="none" style="width:558px;height:537px;" version="1.1" viewBox="0 0 558 537" width="558px" zoomAndPan="magnify"><defs><filter height="300%" id="fodke2f7jhcvo" width="300%" x="-1" y="-1"><feGaussianBlur result="blurOut" stdDeviation="2.0"/><feColorMatrix in="blurOut" result="blurOut2" type="matrix" values="0 0 0 0 0 0 0 0 0 0 0 0 0 0 0 0 0 0 .4 0"/><feOffset dx="4.0" dy="4.0" in="blurOut2" result="blurOut3"/><feBlend in="SourceGraphic" in2="blurOut3" mode="normal"/></filter></defs><g><rect fill="#FFFFFF" filter="url(#fodke2f7jhcvo)" height="58.2656" style="stroke: #F05772; stroke-width: 1.0;" width="10" x="187.5" y="246.8281"/><rect fill="#FFFFFF" filter="url(#fodke2f7jhcvo)" height="131.5313" style="stroke: #F05772; stroke-width: 1.0;" width="10" x="187.5" y="376.2266"/><rect fill="#FFFFFF" filter="url(#fodke2f7jhcvo)" height="59.2656" style="stroke: #A1A1CA; stroke-width: 2.0;" width="264" x="132.5" y="420.3594"/><line style="stroke: #F05772; stroke-width: 1.0;" x1="29" x2="29" y1="86.2969" y2="197.6953"/><line style="stroke: #F05772; stroke-width: 1.0; stroke-dasharray: 1.0,4.0;" x1="29" x2="29" y1="197.6953" y2="225.6953"/><line style="stroke: #F05772; stroke-width: 1.0;" x1="29" x2="29" y1="225.6953" y2="327.0938"/><line style="stroke: #F05772; stroke-width: 1.0; stroke-dasharray: 1.0,4.0;" x1="29" x2="29" y1="327.0938" y2="355.0938"/><line style="stroke: #F05772; stroke-width: 1.0;" x1="29" x2="29" y1="355.0938" y2="525.7578"/><line style="stroke: #F05772; stroke-width: 1.0;" x1="192.5" x2="192.5" y1="86.2969" y2="197.6953"/><line style="stroke: #F05772; stroke-width: 1.0; stroke-dasharray: 1.0,4.0;" x1="192.5" x2="192.5" y1="197.6953" y2="225.6953"/><line style="stroke: #F05772; stroke-width: 1.0;" x1="192.5" x2="192.5" y1="225.6953" y2="327.0938"/><line style="stroke: #F05772; stroke-width: 1.0; stroke-dasharray: 1.0,4.0;" x1="192.5" x2="192.5" y1="327.0938" y2="355.0938"/><line style="stroke: #F05772; stroke-width: 1.0;" x1="192.5" x2="192.5" y1="355.0938" y2="525.7578"/><line style="stroke: #F05772; stroke-width: 1.0;" x1="474" x2="474" y1="86.2969" y2="197.6953"/><line style="stroke: #F05772; stroke-width: 1.0; stroke-dasharray: 1.0,4.0;" x1="474" x2="474" y1="197.6953" y2="225.6953"/><line style="stroke: #F05772; stroke-width: 1.0;" x1="474" x2="474" y1="225.6953" y2="327.0938"/><line style="stroke: #F05772; stroke-width: 1.0; stroke-dasharray: 1.0,4.0;" x1="474" x2="474" y1="327.0938" y2="355.0938"/><line style="stroke: #F05772; stroke-width: 1.0;" x1="474" x2="474" y1="355.0938" y2="525.7578"/><text fill="#33335B" font-family="sans-serif" font-size="14" lengthAdjust="spacingAndGlyphs" textLength="37" x="8" y="82.9951">client</text><ellipse cx="29.5" cy="13" fill="#FFFFFF" filter="url(#fodke2f7jhcvo)" rx="8" ry="8" style="stroke: #33335B; stroke-width: 2.0;"/><path d="M29.5,21 L29.5,48 M16.5,29 L42.5,29 M29.5,48 L16.5,63 M29.5,48 L42.5,63 " fill="none" filter="url(#fodke2f7jhcvo)" style="stroke: #33335B; stroke-width: 2.0;"/><rect fill="#FFFFFF" filter="url(#fodke2f7jhcvo)" height="30.2969" style="stroke: #33335B; stroke-width: 1.5;" width="96" x="142.5" y="51"/><text fill="#33335B" font-family="sans-serif" font-size="14" lengthAdjust="spacingAndGlyphs" textLength="82" x="149.5" y="70.9951">ll_scheduler</text><rect fill="#FFFFFF" filter="url(#fodke2f7jhcvo)" height="30.2969" style="stroke: #33335B; stroke-width: 1.5;" width="149" x="398" y="51"/><text fill="#33335B" font-family="sans-serif" font-size="14" lengthAdjust="spacingAndGlyphs" textLength="135" x="405" y="70.9951">ll_schedule_domain</text><rect fill="#FFFFFF" filter="url(#fodke2f7jhcvo)" height="58.2656" style="stroke: #F05772; stroke-width: 1.0;" width="10" x="187.5" y="246.8281"/><rect fill="#FFFFFF" filter="url(#fodke2f7jhcvo)" height="131.5313" style="stroke: #F05772; stroke-width: 1.0;" width="10" x="187.5" y="376.2266"/><polygon fill="#4A4A86" points="462.5,113.4297,472.5,117.4297,462.5,121.4297,466.5,117.4297" style="stroke: #4A4A86; stroke-width: 1.0;"/><line style="stroke: #4A4A86; stroke-width: 1.0;" x1="3" x2="468.5" y1="117.4297" y2="117.4297"/><text fill="#33335B" font-family="sans-serif" font-size="13" lengthAdjust="spacingAndGlyphs" textLength="74" x="10" y="112.3638">domain_init</text><polygon fill="#4A4A86" points="14,142.5625,4,146.5625,14,150.5625,10,146.5625" style="stroke: #4A4A86; stroke-width: 1.0;"/><line style="stroke: #4A4A86; stroke-width: 1.0; stroke-dasharray: 2.0,2.0;" x1="8" x2="473.5" y1="146.5625" y2="146.5625"/><text fill="#33335B" font-family="sans-serif" font-size="13" lengthAdjust="spacingAndGlyphs" textLength="48" x="20" y="141.4966">domain</text><polygon fill="#4A4A86" points="180.5,171.6953,190.5,175.6953,180.5,179.6953,184.5,175.6953" style="stroke: #4A4A86; stroke-width: 1.0;"/><line style="stroke: #4A4A86; stroke-width: 1.0;" x1="3" x2="186.5" y1="175.6953" y2="175.6953"/><text fill="#33335B" font-family="sans-serif" font-size="13" lengthAdjust="spacingAndGlyphs" textLength="157" x="10" y="170.6294">scheduler_init(&amp;domain)</text><polygon fill="#4A4A86" points="14,185.6953,4,189.6953,14,193.6953,10,189.6953" style="stroke: #4A4A86; stroke-width: 1.0;"/><line style="stroke: #4A4A86; stroke-width: 1.0; stroke-dasharray: 2.0,2.0;" x1="8" x2="191.5" y1="189.6953" y2="189.6953"/><polygon fill="#4A4A86" points="175.5,242.8281,185.5,246.8281,175.5,250.8281,179.5,246.8281" style="stroke: #4A4A86; stroke-width: 1.0;"/><line style="stroke: #4A4A86; stroke-width: 1.0;" x1="29.5" x2="181.5" y1="246.8281" y2="246.8281"/><text fill="#33335B" font-family="sans-serif" font-size="13" lengthAdjust="spacingAndGlyphs" textLength="139" x="36.5" y="241.7622">schedule_task(&amp;task)</text><polygon fill="#4A4A86" points="462.5,271.9609,472.5,275.9609,462.5,279.9609,466.5,275.9609" style="stroke: #4A4A86; stroke-width: 1.0;"/><line style="stroke: #4A4A86; stroke-width: 1.0;" x1="197.5" x2="468.5" y1="275.9609" y2="275.9609"/><text fill="#33335B" font-family="sans-serif" font-size="13" lengthAdjust="spacingAndGlyphs" textLength="253" x="204.5" y="270.895">domain_register(schedule_ll_tasks_run)</text><polygon fill="#4A4A86" points="462.5,301.0938,472.5,305.0938,462.5,309.0938,466.5,305.0938" style="stroke: #4A4A86; stroke-width: 1.0;"/><line style="stroke: #4A4A86; stroke-width: 1.0;" x1="192.5" x2="468.5" y1="305.0938" y2="305.0938"/><text fill="#33335B" font-family="sans-serif" font-size="13" lengthAdjust="spacingAndGlyphs" textLength="108" x="199.5" y="300.0278">domain_enable()</text><polygon fill="#4A4A86" points="40.5,315.0938,30.5,319.0938,40.5,323.0938,36.5,319.0938" style="stroke: #4A4A86; stroke-width: 1.0;"/><line style="stroke: #4A4A86; stroke-width: 1.0; stroke-dasharray: 2.0,2.0;" x1="34.5" x2="191.5" y1="319.0938" y2="319.0938"/><polygon fill="#4A4A86" points="208.5,372.2266,198.5,376.2266,208.5,380.2266,204.5,376.2266" style="stroke: #4A4A86; stroke-width: 1.0;"/><line style="stroke: #4A4A86; stroke-width: 1.0;" x1="202.5" x2="473.5" y1="376.2266" y2="376.2266"/><text fill="#33335B" font-family="sans-serif" font-size="13" lengthAdjust="spacingAndGlyphs" textLength="149" x="214.5" y="371.1606">schedule_ll_tasks_run()</text><polygon fill="#4A4A86" points="462.5,401.3594,472.5,405.3594,462.5,409.3594,466.5,405.3594" style="stroke: #4A4A86; stroke-width: 1.0;"/><line style="stroke: #4A4A86; stroke-width: 1.0;" x1="197.5" x2="468.5" y1="405.3594" y2="405.3594"/><text fill="#33335B" font-family="sans-serif" font-size="13" lengthAdjust="spacingAndGlyphs" textLength="110" x="204.5" y="400.2935">domain_disable()</text><path d="M132.5,420.3594 L209.5,420.3594 L209.5,427.3594 L199.5,437.3594 L132.5,437.3594 L132.5,420.3594 " fill="#EEEEEE" style="stroke: #A1A1CA; stroke-width: 1.0;"/><rect fill="none" height="59.2656" style="stroke: #A1A1CA; stroke-width: 2.0;" width="264" x="132.5" y="420.3594"/><text fill="#33335B" font-family="sans-serif" font-size="13" font-weight="bold" lengthAdjust="spacingAndGlyphs" textLength="32" x="147.5" y="433.4263">loop</text><text fill="#33335B" font-family="sans-serif" font-size="11" font-weight="bold" lengthAdjust="spacingAndGlyphs" textLength="167" x="224.5" y="432.5698">[schedule_ll_is_pending()]</text><line style="stroke: #4A4A86; stroke-width: 1.0;" x1="197.5" x2="239.5" y1="458.625" y2="458.625"/><line style="stroke: #4A4A86; stroke-width: 1.0;" x1="239.5" x2="239.5" y1="458.625" y2="471.625"/><line style="stroke: #4A4A86; stroke-width: 1.0;" x1="198.5" x2="239.5" y1="471.625" y2="471.625"/><polygon fill="#4A4A86" points="208.5,467.625,198.5,471.625,208.5,475.625,204.5,471.625" style="stroke: #4A4A86; stroke-width: 1.0;"/><text fill="#33335B" font-family="sans-serif" font-size="13" lengthAdjust="spacingAndGlyphs" textLength="179" x="204.5" y="453.5591">schedule_ll_tasks_execute()</text><polygon fill="#4A4A86" points="462.5,503.7578,472.5,507.7578,462.5,511.7578,466.5,507.7578" style="stroke: #4A4A86; stroke-width: 1.0;"/><line style="stroke: #4A4A86; stroke-width: 1.0;" x1="192.5" x2="468.5" y1="507.7578" y2="507.7578"/><text fill="#33335B" font-family="sans-serif" font-size="13" lengthAdjust="spacingAndGlyphs" textLength="108" x="199.5" y="502.6919">domain_enable()</text><!--MD5=[af6fa90be5aca29537f490be7fbf0b99]
@startuml
hidefootbox
skinparam componentStyle uml2

skinparam defaultFontColor	#33335b

skinparam rectangle {
	color		#d6d6de
	backgroundColor	#ffffff
}

skinparam component {
	backgroundColor	#ffffff
	borderColor	#33335b
	arrowColor	#f05772
}

skinparam interface {
	backgroundColor	#ffffff
	borderColor	#f05772
}

skinparam class {
	backgroundColor	#ffffff
	borderColor	#33335b
	arrowColor	#f05772
}
skinparam stereotypeCBackgroundColor	#6fccdd

skinparam sequence {
	arrowColor		#4a4a86
	lifeLineBorderColor	#f05772
	groupBorderColor	#a1a1ca
	boxBorderColor		#a1a1ca
	dividerBorderColor	#d6d6de
	dividerBorderThickness	1
}
skinparam participant {
	borderColor		#33335b
	backgroundColor		#ffffff
}
skinparam actor {
	borderColor		#33335b
	backgroundColor		#ffffff
}

skinparam state {
	borderColor		#33335b
	backgroundColor		#ffffff
}

skinparam node {
	backgroundColor		#ffffff
}

skinparam note {
	backgroundColor 	#f6ed80
	borderColor		#d6d6de
}
actor client as c

participant ll_scheduler as ls
participant ll_schedule_domain as lsd

-> lsd : domain_init
<- - lsd : domain

-> ls : scheduler_init(&domain)
<- - ls
...
c -> ls : schedule_task(&task)
    activate ls
    ls -> lsd : domain_register(schedule_ll_tasks_run)
    ls -> lsd : domain_enable()
    deactivate ls
c <- - ls
...
ls <- lsd : schedule_ll_tasks_run()
    activate ls
    ls -> lsd : domain_disable()
    loop schedule_ll_is_pending()
        ls -> ls : schedule_ll_tasks_execute()
    end loop
    ls -> lsd : domain_enable()
    deactivate ls

@enduml

PlantUML version 1.2019.12(Sun Nov 03 10:24:54 UTC 2019)
(GPL source distribution)
Java Runtime: OpenJDK Runtime Environment
JVM: OpenJDK 64-Bit Server VM
Java Version: 11.0.10+9
Operating System: Linux
Default Encoding: UTF-8
Language: en
Country: null
--></g></svg>