<?xml version="1.0" encoding="UTF-8" standalone="no"?><svg xmlns="http://www.w3.org/2000/svg" xmlns:xlink="http://www.w3.org/1999/xlink" contentScriptType="application/ecmascript" contentStyleType="text/css" height="466px" preserveAspectRatio="none" style="width:712px;height:466px;" version="1.1" viewBox="0 0 712 466" width="712px" zoomAndPan="magnify"><defs><filter height="300%" id="f6zt14iukauem" width="300%" x="-1" y="-1"><feGaussianBlur result="blurOut" stdDeviation="2.0"/><feColorMatrix in="blurOut" result="blurOut2" type="matrix" values="0 0 0 0 0 0 0 0 0 0 0 0 0 0 0 0 0 0 .4 0"/><feOffset dx="4.0" dy="4.0" in="blurOut2" result="blurOut3"/><feBlend in="SourceGraphic" in2="blurOut3" mode="normal"/></filter></defs><g><!--MD5=[09acfa745e828315b550bb1a630bf02b]
class lib--><rect fill="#FFFFFF" filter="url(#f6zt14iukauem)" height="65.6094" id="lib" style="stroke: #33335B; stroke-width: 1.5;" width="285" x="416" y="40"/><ellipse cx="547.25" cy="56" fill="#6FCCDD" rx="11" ry="11" style="stroke: #33335B; stroke-width: 1.0;"/><path d="M550.2188,61.6406 Q549.6406,61.9375 549,62.0781 Q548.3594,62.2344 547.6563,62.2344 Q545.1563,62.2344 543.8281,60.5938 Q542.5156,58.9375 542.5156,55.8125 Q542.5156,52.6875 543.8281,51.0313 Q545.1563,49.375 547.6563,49.375 Q548.3594,49.375 549,49.5313 Q549.6563,49.6875 550.2188,49.9844 L550.2188,52.7031 Q549.5938,52.125 549,51.8594 Q548.4063,51.5781 547.7813,51.5781 Q546.4375,51.5781 545.75,52.6563 Q545.0625,53.7188 545.0625,55.8125 Q545.0625,57.9063 545.75,58.9844 Q546.4375,60.0469 547.7813,60.0469 Q548.4063,60.0469 549,59.7813 Q549.5938,59.5 550.2188,58.9219 L550.2188,61.6406 Z "/><text fill="#33335B" font-family="sans-serif" font-size="12" lengthAdjust="spacingAndGlyphs" textLength="14" x="567.75" y="60.1543">lib</text><line style="stroke: #33335B; stroke-width: 1.5;" x1="417" x2="700" y1="72" y2="72"/><text fill="#33335B" font-family="sans-serif" font-size="11" lengthAdjust="spacingAndGlyphs" textLength="273" x="422" y="86.2104">struct dai *dai_get(uint32_t type, uint32_t index)</text><text fill="#33335B" font-family="sans-serif" font-size="11" lengthAdjust="spacingAndGlyphs" textLength="109" x="422" y="99.0151">dai_put(struct dai*)</text><!--MD5=[570a1701eb5cfa26f256311848a0b50a]
class dai_ops--><rect fill="#FFFFFF" filter="url(#f6zt14iukauem)" height="129.6328" id="dai_ops" style="stroke: #33335B; stroke-width: 1.5;" width="133" x="6" y="8"/><ellipse cx="44.85" cy="24" fill="#6FCCDD" rx="11" ry="11" style="stroke: #33335B; stroke-width: 1.0;"/><path d="M47.8188,29.6406 Q47.2406,29.9375 46.6,30.0781 Q45.9594,30.2344 45.2563,30.2344 Q42.7563,30.2344 41.4281,28.5938 Q40.1156,26.9375 40.1156,23.8125 Q40.1156,20.6875 41.4281,19.0313 Q42.7563,17.375 45.2563,17.375 Q45.9594,17.375 46.6,17.5313 Q47.2563,17.6875 47.8188,17.9844 L47.8188,20.7031 Q47.1938,20.125 46.6,19.8594 Q46.0063,19.5781 45.3813,19.5781 Q44.0375,19.5781 43.35,20.6563 Q42.6625,21.7188 42.6625,23.8125 Q42.6625,25.9063 43.35,26.9844 Q44.0375,28.0469 45.3813,28.0469 Q46.0063,28.0469 46.6,27.7813 Q47.1938,27.5 47.8188,26.9219 L47.8188,29.6406 Z "/><text fill="#33335B" font-family="sans-serif" font-size="12" lengthAdjust="spacingAndGlyphs" textLength="48" x="64.15" y="28.1543">dai_ops</text><line style="stroke: #33335B; stroke-width: 1.5;" x1="7" x2="138" y1="40" y2="40"/><text fill="#33335B" font-family="sans-serif" font-size="11" lengthAdjust="spacingAndGlyphs" textLength="66" x="12" y="54.2104">set_config()</text><text fill="#33335B" font-family="sans-serif" font-size="11" lengthAdjust="spacingAndGlyphs" textLength="46" x="12" y="67.0151">trigger()</text><text fill="#33335B" font-family="sans-serif" font-size="11" lengthAdjust="spacingAndGlyphs" textLength="121" x="12" y="79.8198">pm_context_restore()</text><text fill="#33335B" font-family="sans-serif" font-size="11" lengthAdjust="spacingAndGlyphs" textLength="109" x="12" y="92.6245">pm_context_store()</text><text fill="#33335B" font-family="sans-serif" font-size="11" lengthAdjust="spacingAndGlyphs" textLength="41" x="12" y="105.4292">probe()</text><text fill="#33335B" font-family="sans-serif" font-size="11" lengthAdjust="spacingAndGlyphs" textLength="51" x="12" y="118.2339">remove()</text><text fill="#33335B" font-family="sans-serif" font-size="11" lengthAdjust="spacingAndGlyphs" textLength="120" x="12" y="131.0386">set_loopback_mode()</text><!--MD5=[751252ede398c8a0e54cd79ea3766d55]
class s_dai--><rect fill="#FFFFFF" filter="url(#f6zt14iukauem)" height="104.0234" id="s_dai" style="stroke: #33335B; stroke-width: 1.5;" width="151" x="174" y="21"/><ellipse cx="215.55" cy="37" fill="#6FCCDD" rx="11" ry="11" style="stroke: #33335B; stroke-width: 1.0;"/><path d="M218.5188,42.6406 Q217.9406,42.9375 217.3,43.0781 Q216.6594,43.2344 215.9563,43.2344 Q213.4563,43.2344 212.1281,41.5938 Q210.8156,39.9375 210.8156,36.8125 Q210.8156,33.6875 212.1281,32.0313 Q213.4563,30.375 215.9563,30.375 Q216.6594,30.375 217.3,30.5313 Q217.9563,30.6875 218.5188,30.9844 L218.5188,33.7031 Q217.8938,33.125 217.3,32.8594 Q216.7063,32.5781 216.0813,32.5781 Q214.7375,32.5781 214.05,33.6563 Q213.3625,34.7188 213.3625,36.8125 Q213.3625,38.9063 214.05,39.9844 Q214.7375,41.0469 216.0813,41.0469 Q216.7063,41.0469 217.3,40.7813 Q217.8938,40.5 218.5188,39.9219 L218.5188,42.6406 Z "/><text fill="#33335B" font-family="sans-serif" font-size="12" lengthAdjust="spacingAndGlyphs" textLength="60" x="235.45" y="41.1543">struct dai</text><line style="stroke: #33335B; stroke-width: 1.5;" x1="175" x2="324" y1="53" y2="53"/><text fill="#33335B" font-family="sans-serif" font-size="11" lengthAdjust="spacingAndGlyphs" textLength="81" x="180" y="67.2104">type : uint32_t</text><text fill="#33335B" font-family="sans-serif" font-size="11" lengthAdjust="spacingAndGlyphs" textLength="87" x="180" y="80.0151">index : uint32_t</text><text fill="#33335B" font-family="sans-serif" font-size="11" lengthAdjust="spacingAndGlyphs" textLength="139" x="180" y="92.8198">plat_data : dai_plat_data</text><text fill="#33335B" font-family="sans-serif" font-size="11" lengthAdjust="spacingAndGlyphs" textLength="122" x="180" y="105.6245">ops : const dai_ops *</text><text fill="#33335B" font-family="sans-serif" font-size="11" lengthAdjust="spacingAndGlyphs" textLength="84" x="180" y="118.4292">private : void *</text><!--MD5=[587096e0c81becf1c3c772256578bbb1]
class s_dai_plat_data--><rect fill="#FFFFFF" filter="url(#f6zt14iukauem)" height="91.2188" id="s_dai_plat_data" style="stroke: #33335B; stroke-width: 1.5;" width="193" x="153" y="199"/><ellipse cx="184.2" cy="215" fill="#6FCCDD" rx="11" ry="11" style="stroke: #33335B; stroke-width: 1.0;"/><path d="M187.1688,220.6406 Q186.5906,220.9375 185.95,221.0781 Q185.3094,221.2344 184.6063,221.2344 Q182.1063,221.2344 180.7781,219.5938 Q179.4656,217.9375 179.4656,214.8125 Q179.4656,211.6875 180.7781,210.0313 Q182.1063,208.375 184.6063,208.375 Q185.3094,208.375 185.95,208.5313 Q186.6063,208.6875 187.1688,208.9844 L187.1688,211.7031 Q186.5438,211.125 185.95,210.8594 Q185.3563,210.5781 184.7313,210.5781 Q183.3875,210.5781 182.7,211.6563 Q182.0125,212.7188 182.0125,214.8125 Q182.0125,216.9063 182.7,217.9844 Q183.3875,219.0469 184.7313,219.0469 Q185.3563,219.0469 185.95,218.7813 Q186.5438,218.5 187.1688,217.9219 L187.1688,220.6406 Z "/><text fill="#33335B" font-family="sans-serif" font-size="12" lengthAdjust="spacingAndGlyphs" textLength="125" x="201.8" y="219.1543">struct dai_plat_data</text><line style="stroke: #33335B; stroke-width: 1.5;" x1="154" x2="345" y1="231" y2="231"/><text fill="#33335B" font-family="sans-serif" font-size="11" lengthAdjust="spacingAndGlyphs" textLength="85" x="159" y="245.2104">base : uint32_t</text><text fill="#33335B" font-family="sans-serif" font-size="11" lengthAdjust="spacingAndGlyphs" textLength="72" x="159" y="258.0151">irq : uint32_t</text><text fill="#33335B" font-family="sans-serif" font-size="11" lengthAdjust="spacingAndGlyphs" textLength="85" x="159" y="270.8198">flags : uint32_t</text><text fill="#33335B" font-family="sans-serif" font-size="11" lengthAdjust="spacingAndGlyphs" textLength="181" x="159" y="283.6245">fifo : struct dai_plat_fifo_data[2]</text><!--MD5=[416c15d8e20a93251a9cf90ec810b71c]
class s_dai_plat_fifo_data--><rect fill="#FFFFFF" filter="url(#f6zt14iukauem)" height="104.0234" id="s_dai_plat_fifo_data" style="stroke: #33335B; stroke-width: 1.5;" width="182" x="158.5" y="351"/><ellipse cx="173.5" cy="367" fill="#6FCCDD" rx="11" ry="11" style="stroke: #33335B; stroke-width: 1.0;"/><path d="M176.4688,372.6406 Q175.8906,372.9375 175.25,373.0781 Q174.6094,373.2344 173.9063,373.2344 Q171.4063,373.2344 170.0781,371.5938 Q168.7656,369.9375 168.7656,366.8125 Q168.7656,363.6875 170.0781,362.0313 Q171.4063,360.375 173.9063,360.375 Q174.6094,360.375 175.25,360.5313 Q175.9063,360.6875 176.4688,360.9844 L176.4688,363.7031 Q175.8438,363.125 175.25,362.8594 Q174.6563,362.5781 174.0313,362.5781 Q172.6875,362.5781 172,363.6563 Q171.3125,364.7188 171.3125,366.8125 Q171.3125,368.9063 172,369.9844 Q172.6875,371.0469 174.0313,371.0469 Q174.6563,371.0469 175.25,370.7813 Q175.8438,370.5 176.4688,369.9219 L176.4688,372.6406 Z "/><text fill="#33335B" font-family="sans-serif" font-size="12" lengthAdjust="spacingAndGlyphs" textLength="150" x="187.5" y="371.1543">struct dai_plat_fifo_data</text><line style="stroke: #33335B; stroke-width: 1.5;" x1="159.5" x2="339.5" y1="383" y2="383"/><text fill="#33335B" font-family="sans-serif" font-size="11" lengthAdjust="spacingAndGlyphs" textLength="90" x="164.5" y="397.2104">offset : uint32_t</text><text fill="#33335B" font-family="sans-serif" font-size="11" lengthAdjust="spacingAndGlyphs" textLength="87" x="164.5" y="410.0151">width : uint32_t</text><text fill="#33335B" font-family="sans-serif" font-size="11" lengthAdjust="spacingAndGlyphs" textLength="89" x="164.5" y="422.8198">depth : uint32_t</text><text fill="#33335B" font-family="sans-serif" font-size="11" lengthAdjust="spacingAndGlyphs" textLength="118" x="164.5" y="435.6245">watermark : uint32_t</text><text fill="#33335B" font-family="sans-serif" font-size="11" lengthAdjust="spacingAndGlyphs" textLength="119" x="164.5" y="448.4292">handshake : uint32_t</text><!--MD5=[89617fca4412802b3d8579cdec6d967f]
link dai_ops to s_dai--><path d="M139.22,73 C150.71,73 162.2,73 173.68,73 " fill="none" id="dai_ops-s_dai" style="stroke: #4A4A86; stroke-width: 1.0;"/><!--MD5=[398ffa89781d162df80bb67ef42fac72]
link s_dai to s_dai_plat_data--><path d="M249.5,125.32 C249.5,148.8 249.5,176.36 249.5,198.96 " fill="none" id="s_dai-s_dai_plat_data" style="stroke: #4A4A86; stroke-width: 1.0;"/><!--MD5=[566e0bc63cdae3dabcd15db279e1fcfb]
link s_dai_plat_data to s_dai_plat_fifo_data--><path d="M249.5,290.35 C249.5,309.22 249.5,331.29 249.5,350.81 " fill="none" id="s_dai_plat_data-s_dai_plat_fifo_data" style="stroke: #4A4A86; stroke-width: 1.0;"/><!--MD5=[6198e08fb7de4ef2e367ec55191da5c6]
reverse link s_dai to lib--><path d="M330.28,73 C356.51,73 386.43,73 415.79,73 " fill="none" id="s_dai&lt;-lib" style="stroke: #4A4A86; stroke-width: 1.0;"/><polygon fill="#4A4A86" points="325.09,73,334.09,77,330.09,73,334.09,69,325.09,73" style="stroke: #4A4A86; stroke-width: 1.0;"/><text fill="#33335B" font-family="sans-serif" font-size="13" lengthAdjust="spacingAndGlyphs" textLength="54" x="343.5" y="66.0669">provides</text><!--MD5=[313515865f60f30cf8f00952a1e2db76]
@startuml
hidefootbox
skinparam componentStyle uml2

skinparam defaultFontColor	#33335b

skinparam rectangle {
	color		#d6d6de
	backgroundColor	#ffffff
}

skinparam component {
	backgroundColor	#ffffff
	borderColor	#33335b
	arrowColor	#f05772
}

skinparam interface {
	backgroundColor	#ffffff
	borderColor	#f05772
}

skinparam class {
	backgroundColor	#ffffff
	borderColor	#33335b
	arrowColor	#f05772
}
skinparam stereotypeCBackgroundColor	#6fccdd

skinparam sequence {
	arrowColor		#4a4a86
	lifeLineBorderColor	#f05772
	groupBorderColor	#a1a1ca
	boxBorderColor		#a1a1ca
	dividerBorderColor	#d6d6de
	dividerBorderThickness	1
}
skinparam participant {
	borderColor		#33335b
	backgroundColor		#ffffff
}
skinparam actor {
	borderColor		#33335b
	backgroundColor		#ffffff
}

skinparam state {
	borderColor		#33335b
	backgroundColor		#ffffff
}

skinparam node {
	backgroundColor		#ffffff
}

skinparam note {
	backgroundColor 	#f6ed80
	borderColor		#d6d6de
}
class lib {
   struct dai *dai_get(uint32_t type, uint32_t index)
   dai_put(struct dai*)
}
hide lib attributes

class dai_ops {
   set_config()
   trigger()
   pm_context_restore()
   pm_context_store()
   probe()
   remove()
   set_loopback_mode()
}
hide dai_ops attributes

class "struct dai" as s_dai {
   type : uint32_t
   index : uint32_t
   plat_data : dai_plat_data
   ops : const dai_ops *
   private : void *
}
hide s_dai methods

class "struct dai_plat_data" as s_dai_plat_data {
   base : uint32_t
   irq : uint32_t
   flags : uint32_t
   fifo : struct dai_plat_fifo_data[2]
}
hide s_dai_plat_data methods

class "struct dai_plat_fifo_data" as s_dai_plat_fifo_data {
   offset : uint32_t
   width : uint32_t
   depth : uint32_t
   watermark : uint32_t
   handshake : uint32_t
}
hide s_dai_plat_fifo_data methods

dai_ops - s_dai
s_dai - - s_dai_plat_data
s_dai_plat_data - - s_dai_plat_fifo_data
s_dai <- lib : provides

@enduml

PlantUML version 1.2019.12(Sun Nov 03 10:24:54 UTC 2019)
(GPL source distribution)
Java Runtime: OpenJDK Runtime Environment
JVM: OpenJDK 64-Bit Server VM
Java Version: 11.0.14.1+1
Operating System: Linux
Default Encoding: UTF-8
Language: en
Country: null
--></g></svg>