<?xml version="1.0" encoding="UTF-8" standalone="no"?><svg xmlns="http://www.w3.org/2000/svg" xmlns:xlink="http://www.w3.org/1999/xlink" contentScriptType="application/ecmascript" contentStyleType="text/css" height="410px" preserveAspectRatio="none" style="width:341px;height:410px;" version="1.1" viewBox="0 0 341 410" width="341px" zoomAndPan="magnify"><defs><filter height="300%" id="f13ig5hrccghf6" width="300%" x="-1" y="-1"><feGaussianBlur result="blurOut" stdDeviation="2.0"/><feColorMatrix in="blurOut" result="blurOut2" type="matrix" values="0 0 0 0 0 0 0 0 0 0 0 0 0 0 0 0 0 0 .4 0"/><feOffset dx="4.0" dy="4.0" in="blurOut2" result="blurOut3"/><feBlend in="SourceGraphic" in2="blurOut3" mode="normal"/></filter></defs><g><ellipse cx="16" cy="28" fill="#000000" filter="url(#f13ig5hrccghf6)" rx="10" ry="10" style="stroke: none; stroke-width: 1.0;"/><rect fill="#FFFFFF" filter="url(#f13ig5hrccghf6)" height="40" rx="12.5" ry="12.5" style="stroke: #33335B; stroke-width: 1.5;" width="58" x="185" y="8"/><text fill="#33335B" font-family="sans-serif" font-size="14" lengthAdjust="spacingAndGlyphs" textLength="48" x="190" y="32.8467">READY</text><rect fill="#FFFFFF" filter="url(#f13ig5hrccghf6)" height="40" rx="12.5" ry="12.5" style="stroke: #33335B; stroke-width: 1.5;" width="75" x="175.5" y="125"/><text fill="#33335B" font-family="sans-serif" font-size="14" lengthAdjust="spacingAndGlyphs" textLength="65" x="180.5" y="149.8467">PREPARE</text><rect fill="#FFFFFF" filter="url(#f13ig5hrccghf6)" height="40" rx="12.5" ry="12.5" style="stroke: #33335B; stroke-width: 1.5;" width="59" x="128.5" y="242"/><text fill="#33335B" font-family="sans-serif" font-size="14" lengthAdjust="spacingAndGlyphs" textLength="49" x="133.5" y="266.8467">ACTIVE</text><rect fill="#FFFFFF" filter="url(#f13ig5hrccghf6)" height="40" rx="12.5" ry="12.5" style="stroke: #33335B; stroke-width: 1.5;" width="67" x="160.5" y="359"/><text fill="#33335B" font-family="sans-serif" font-size="14" lengthAdjust="spacingAndGlyphs" textLength="57" x="165.5" y="383.8467">PAUSED</text><!--link *start to READY--><path d="M26.0911,28 C54.0154,28 133.291,28 179.465,28 " fill="none" id="*start-READY" style="stroke: #4A4A86; stroke-width: 1.0;"/><polygon fill="#4A4A86" points="184.651,28,175.651,24,179.651,28,175.651,32,184.651,28" style="stroke: #4A4A86; stroke-width: 1.0;"/><text fill="#33335B" font-family="sans-serif" font-size="13" font-weight="bold" lengthAdjust="spacingAndGlyphs" textLength="122" x="44.5" y="21.0669">comp_ops.new()</text><!--link READY to PREPARE--><path d="M184.849,47.811 C175.053,55.817 165.281,66.078 160,78 C152.874,94.089 164.01,109.567 177.883,121.485 " fill="none" id="READY-PREPARE" style="stroke: #4A4A86; stroke-width: 1.0;"/><polygon fill="#4A4A86" points="181.855,124.75,177.4411,115.9456,177.992,121.5756,172.362,122.1265,181.855,124.75" style="stroke: #4A4A86; stroke-width: 1.0;"/><text fill="#33335B" font-family="sans-serif" font-size="13" font-weight="bold" lengthAdjust="spacingAndGlyphs" textLength="59" x="161" y="91.0669">prepare</text><!--link PREPARE to READY--><path d="M218.876,124.646 C221.293,115.714 223.804,104.913 225,95 C226.668,81.175 224.362,65.826 221.438,53.411 " fill="none" id="PREPARE-READY" style="stroke: #4A4A86; stroke-width: 1.0;"/><polygon fill="#4A4A86" points="220.157,48.283,218.4566,57.984,221.3683,53.134,226.2182,56.0458,220.157,48.283" style="stroke: #4A4A86; stroke-width: 1.0;"/><text fill="#33335B" font-family="sans-serif" font-size="13" lengthAdjust="spacingAndGlyphs" textLength="33" x="226" y="91.0669">reset</text><!--link PREPARE to ACTIVE--><path d="M175.258,159.348 C159.227,167.111 142.154,178.659 133,195 C125.468,208.446 131.373,224.612 139.329,237.579 " fill="none" id="PREPARE-ACTIVE" style="stroke: #4A4A86; stroke-width: 1.0;"/><polygon fill="#4A4A86" points="142.089,241.845,140.5597,232.1156,139.3735,237.6467,133.8424,236.4605,142.089,241.845" style="stroke: #4A4A86; stroke-width: 1.0;"/><text fill="#33335B" font-family="sans-serif" font-size="13" font-weight="bold" lengthAdjust="spacingAndGlyphs" textLength="35" x="134" y="208.0669">start</text><!--link ACTIVE to PREPARE--><path d="M167.236,241.689 C176.686,221.93 191.388,191.189 201.567,169.906 " fill="none" id="ACTIVE-PREPARE" style="stroke: #4A4A86; stroke-width: 1.0;"/><polygon fill="#4A4A86" points="203.794,165.248,196.3029,171.6421,201.6371,169.7589,203.5203,175.0931,203.794,165.248" style="stroke: #4A4A86; stroke-width: 1.0;"/><text fill="#33335B" font-family="sans-serif" font-size="13" lengthAdjust="spacingAndGlyphs" textLength="64" x="189" y="208.0669">stop, xrun</text><!--link PAUSED to ACTIVE--><path d="M173.85,358.9196 C166.419,350.5383 158.873,340.0853 155,329 C150.366,315.7353 150.853,300.0529 152.622,287.304 " fill="none" id="PAUSED-ACTIVE" style="stroke: #4A4A86; stroke-width: 1.0;"/><polygon fill="#4A4A86" points="153.448,282.035,148.1026,290.3071,152.6738,286.9747,156.0061,291.5458,153.448,282.035" style="stroke: #4A4A86; stroke-width: 1.0;"/><text fill="#33335B" font-family="sans-serif" font-size="13" lengthAdjust="spacingAndGlyphs" textLength="30" x="156" y="325.0669">start</text><!--link ACTIVE to PAUSED--><path d="M128.339,272.063 C97.7369,283.038 56.7279,303.2907 74,329 C92.0161,355.8168 127.565,367.9662 155.316,373.4654 " fill="none" id="ACTIVE-PAUSED" style="stroke: #4A4A86; stroke-width: 1.0;"/><polygon fill="#4A4A86" points="160.401,374.4168,152.2906,368.8291,155.4864,373.4968,150.8187,376.6925,160.401,374.4168" style="stroke: #4A4A86; stroke-width: 1.0;"/><text fill="#33335B" font-family="sans-serif" font-size="13" lengthAdjust="spacingAndGlyphs" textLength="39" x="75" y="325.0669">pause</text><!--link PAUSED to ACTIVE--><path d="M195.827,358.7299 C196.456,345.2957 196.001,327.1389 191,312 C188.014,302.9613 182.856,294.036 177.493,286.33 " fill="none" id="PAUSED-ACTIVE-1" style="stroke: #4A4A86; stroke-width: 1.0;"/><polygon fill="#4A4A86" points="174.504,282.181,176.5193,291.8215,177.4267,286.2379,183.0103,287.1452,174.504,282.181" style="stroke: #4A4A86; stroke-width: 1.0;"/><text fill="#33335B" font-family="sans-serif" font-size="13" lengthAdjust="spacingAndGlyphs" textLength="47" x="195" y="325.0669">release</text><!--link PAUSED to PREPARE--><path d="M224.427,358.9738 C234.595,351.004 244.886,340.8235 251,329 C274.99,282.606 259.553,264.172 262,212 C262.354,204.453 264.891,201.98 262,195 C257.885,185.066 250.671,176.096 243.023,168.628 " fill="none" id="PAUSED-PREPARE" style="stroke: #4A4A86; stroke-width: 1.0;"/><polygon fill="#4A4A86" points="239.246,165.084,243.0713,174.1596,242.8919,168.5056,248.5459,168.3262,239.246,165.084" style="stroke: #4A4A86; stroke-width: 1.0;"/><text fill="#33335B" font-family="sans-serif" font-size="13" lengthAdjust="spacingAndGlyphs" textLength="64" x="265" y="266.5669">stop, xrun</text><!--
@startuml
hidefootbox
skinparam componentStyle uml2

skinparam defaultFontColor	#33335b

skinparam rectangle {
	color		#d6d6de
	backgroundColor	#ffffff
}

skinparam component {
	backgroundColor	#ffffff
	borderColor	#33335b
	arrowColor	#f05772
}

skinparam interface {
	backgroundColor	#ffffff
	borderColor	#f05772
}

skinparam class {
	backgroundColor	#ffffff
	borderColor	#33335b
	arrowColor	#f05772
}
skinparam stereotypeCBackgroundColor	#6fccdd

skinparam sequence {
	arrowColor		#4a4a86
	lifeLineBorderColor	#f05772
	groupBorderColor	#a1a1ca
	boxBorderColor		#a1a1ca
	dividerBorderColor	#d6d6de
	dividerBorderThickness	1
}
skinparam participant {
	borderColor		#33335b
	backgroundColor		#ffffff
}
skinparam actor {
	borderColor		#33335b
	backgroundColor		#ffffff
}

skinparam state {
	borderColor		#33335b
	backgroundColor		#ffffff
}

skinparam node {
	backgroundColor		#ffffff
}

skinparam note {
	backgroundColor 	#f6ed80
	borderColor		#d6d6de
}
hide empty description
[*] -right-> READY : <b>comp_ops.new()</b>

READY -right-> PREPARE : <b>prepare</b>

PREPARE - -> ACTIVE : <b>start</b>
PAUSED - -> ACTIVE : start

ACTIVE - -> PREPARE : stop, xrun
PAUSED - -> PREPARE : stop, xrun

ACTIVE -> PAUSED : pause

PAUSED - -> ACTIVE : release

PREPARE - -> READY : reset

@enduml

PlantUML version 1.2019.06(Fri May 24 17:10:25 UTC 2019)
(GPL source distribution)
Java Runtime: OpenJDK Runtime Environment
JVM: OpenJDK 64-Bit Server VM
Java Version: 11.0.2+9
Operating System: Linux
OS Version: 4.15.0-1028-gcp
Default Encoding: UTF-8
Language: en
Country: US
--></g></svg>