<?xml version="1.0" encoding="UTF-8" standalone="no"?><svg xmlns="http://www.w3.org/2000/svg" xmlns:xlink="http://www.w3.org/1999/xlink" contentScriptType="application/ecmascript" contentStyleType="text/css" height="404px" preserveAspectRatio="none" style="width:462px;height:404px;" version="1.1" viewBox="0 0 462 404" width="462px" zoomAndPan="magnify"><defs><filter height="300%" id="f1okjiiu14f7e3" width="300%" x="-1" y="-1"><feGaussianBlur result="blurOut" stdDeviation="2.0"/><feColorMatrix in="blurOut" result="blurOut2" type="matrix" values="0 0 0 0 0 0 0 0 0 0 0 0 0 0 0 0 0 0 .4 0"/><feOffset dx="4.0" dy="4.0" in="blurOut2" result="blurOut3"/><feBlend in="SourceGraphic" in2="blurOut3" mode="normal"/></filter></defs><g><ellipse cx="200.62" cy="18" fill="#000000" filter="url(#f1okjiiu14f7e3)" rx="10" ry="10" style="stroke: none; stroke-width: 1.0;"/><rect fill="#FFFFFF" filter="url(#f1okjiiu14f7e3)" height="50" rx="12.5" ry="12.5" style="stroke: #33335B; stroke-width: 1.5;" width="50" x="175.62" y="89"/><line style="stroke: #33335B; stroke-width: 1.5;" x1="175.62" x2="225.62" y1="115.2969" y2="115.2969"/><text fill="#33335B" font-family="sans-serif" font-size="14" lengthAdjust="spacingAndGlyphs" textLength="20" x="190.62" y="106.9951">D3</text><rect fill="#FFFFFF" filter="url(#f1okjiiu14f7e3)" height="50" rx="12.5" ry="12.5" style="stroke: #33335B; stroke-width: 1.5;" width="50" x="138.62" y="216"/><line style="stroke: #33335B; stroke-width: 1.5;" x1="138.62" x2="188.62" y1="242.2969" y2="242.2969"/><text fill="#33335B" font-family="sans-serif" font-size="14" lengthAdjust="spacingAndGlyphs" textLength="20" x="153.62" y="233.9951">D0</text><rect fill="#FFFFFF" filter="url(#f1okjiiu14f7e3)" height="50" rx="12.5" ry="12.5" style="stroke: #33335B; stroke-width: 1.5;" width="50" x="160.62" y="343"/><line style="stroke: #33335B; stroke-width: 1.5;" x1="160.62" x2="210.62" y1="369.2969" y2="369.2969"/><text fill="#33335B" font-family="sans-serif" font-size="14" lengthAdjust="spacingAndGlyphs" textLength="30" x="170.62" y="360.9951">D0ix</text><!--MD5=[577218286b268e42f2a41e0bb8ce3108]
link *start to D3--><path d="M200.62,28.01 C200.62,40.7 200.62,64.41 200.62,83.57 " fill="none" id="*start-&gt;D3" style="stroke: #F05772; stroke-width: 1.0;"/><polygon fill="#F05772" points="200.62,88.84,204.62,79.84,200.62,83.84,196.62,79.84,200.62,88.84" style="stroke: #F05772; stroke-width: 1.0;"/><!--MD5=[b93cd9e3ad53497e51f57f8255362e6d]
link D3 to D0--><path d="M180.15,139.27 C173.94,148.07 167.89,158.45 164.62,169 C160.49,182.3 159.81,197.7 160.34,210.74 " fill="none" id="D3-&gt;D0" style="stroke: #F05772; stroke-width: 1.0;"/><polygon fill="#F05772" points="160.61,215.8,164.1411,206.6059,160.3525,210.8066,156.1517,207.018,160.61,215.8" style="stroke: #F05772; stroke-width: 1.0;"/><!--MD5=[1b5eb6f376b1a753e946da829931ed1a]
link D0 to D3--><path d="M170.73,215.97 C176.82,195.42 185.59,165.77 192.06,143.92 " fill="none" id="D0-&gt;D3" style="stroke: #F05772; stroke-width: 1.0;"/><polygon fill="#F05772" points="193.49,139.1,187.1033,146.5974,192.073,143.895,194.7753,148.8646,193.49,139.1" style="stroke: #F05772; stroke-width: 1.0;"/><text fill="#33335B" font-family="sans-serif" font-size="13" lengthAdjust="spacingAndGlyphs" textLength="113" x="184.62" y="182.0669">ENTER_DX_STATE</text><!--MD5=[1d08acdeed21ddbf910fb82ea4047454]
link D0 to D0ix--><path d="M138.26,244.21 C87,249.68 -21.28,266.91 12.62,313 C45.45,357.63 114.97,366.41 155.17,367.55 " fill="none" id="D0-&gt;D0ix" style="stroke: #F05772; stroke-width: 1.0;"/><polygon fill="#F05772" points="160.4,367.66,151.4818,363.4808,155.401,367.56,151.3218,371.4792,160.4,367.66" style="stroke: #F05772; stroke-width: 1.0;"/><text fill="#33335B" font-family="sans-serif" font-size="13" lengthAdjust="spacingAndGlyphs" textLength="128" x="13.62" y="309.0669">SET_D0ix(wake = 0)</text><!--MD5=[e3bd36d24657ce72ab570e1684219660]
link D0ix to D0--><path d="M181.39,342.97 C177.79,322.5 172.6,293.02 168.76,271.19 " fill="none" id="D0ix-&gt;D0" style="stroke: #F05772; stroke-width: 1.0;"/><polygon fill="#F05772" points="167.86,266.1,165.4881,275.659,168.7306,271.0236,173.3659,274.2661,167.86,266.1" style="stroke: #F05772; stroke-width: 1.0;"/><text fill="#33335B" font-family="sans-serif" font-size="13" lengthAdjust="spacingAndGlyphs" textLength="128" x="176.62" y="309.0669">SET_D0ix(wake = 1)</text><!--MD5=[9474056a87171acd7a63b73f291ee610]
link D0ix to D3--><path d="M210.78,364.5 C241.08,359.99 290.75,347.47 313.62,313 C349.04,259.61 341.59,222.69 306.62,169 C289.6,142.88 255.81,128.79 230.93,121.62 " fill="none" id="D0ix-&gt;D3" style="stroke: #F05772; stroke-width: 1.0;"/><polygon fill="#F05772" points="226.08,120.28,233.6744,126.551,230.8962,121.6234,235.8238,118.8452,226.08,120.28" style="stroke: #F05772; stroke-width: 1.0;"/><text fill="#33335B" font-family="sans-serif" font-size="13" lengthAdjust="spacingAndGlyphs" textLength="113" x="337.62" y="245.5669">ENTER_DX_STATE</text><!--MD5=[8b93747838fd67aab2482bbc28e5a66e]
@startuml
hidefootbox
skinparam componentStyle uml2

skinparam defaultFontColor	#33335b

skinparam rectangle {
	color		#d6d6de
	backgroundColor	#ffffff
}

skinparam component {
	backgroundColor	#ffffff
	borderColor	#33335b
	arrowColor	#f05772
}

skinparam interface {
	backgroundColor	#ffffff
	borderColor	#f05772
}

skinparam class {
	backgroundColor	#ffffff
	borderColor	#33335b
	arrowColor	#f05772
}
skinparam stereotypeCBackgroundColor	#6fccdd

skinparam sequence {
	arrowColor		#4a4a86
	lifeLineBorderColor	#f05772
	groupBorderColor	#a1a1ca
	boxBorderColor		#a1a1ca
	dividerBorderColor	#d6d6de
	dividerBorderThickness	1
}
skinparam participant {
	borderColor		#33335b
	backgroundColor		#ffffff
}
skinparam actor {
	borderColor		#33335b
	backgroundColor		#ffffff
}

skinparam state {
	borderColor		#33335b
	backgroundColor		#ffffff
}

skinparam node {
	backgroundColor		#ffffff
}

skinparam note {
	backgroundColor 	#f6ed80
	borderColor		#d6d6de
}

skinparam activity {
	borderColor		#33335b
	backgroundColor		#ffffff
}

skinparam activityDiamond {
	borderColor		#33335b
	backgroundColor		#ffffff
}

skinparam arrowColor	#f05772
skinparam maxMessageSize 400
skinparam BoxPadding 4

[*] - -> D3
D3 - -> D0
D0 - -> D0ix: SET_D0ix(wake = 0)
D0ix - -> D0: SET_D0ix(wake = 1)
D0ix - -> D3: ENTER_DX_STATE
D0 - -> D3: ENTER_DX_STATE

@enduml

PlantUML version 1.2019.12(Sun Nov 03 10:24:54 UTC 2019)
(GPL source distribution)
Java Runtime: OpenJDK Runtime Environment
JVM: OpenJDK 64-Bit Server VM
Java Version: 11.0.24+8
Operating System: Linux
Default Encoding: UTF-8
Language: en
Country: null
--></g></svg>