<?xml version="1.0" encoding="UTF-8" standalone="no"?><svg xmlns="http://www.w3.org/2000/svg" xmlns:xlink="http://www.w3.org/1999/xlink" contentScriptType="application/ecmascript" contentStyleType="text/css" height="411px" preserveAspectRatio="none" style="width:397px;height:411px;" version="1.1" viewBox="0 0 397 411" width="397px" zoomAndPan="magnify"><defs><filter height="300%" id="fkf388od35ft8" width="300%" x="-1" y="-1"><feGaussianBlur result="blurOut" stdDeviation="2.0"/><feColorMatrix in="blurOut" result="blurOut2" type="matrix" values="0 0 0 0 0 0 0 0 0 0 0 0 0 0 0 0 0 0 .4 0"/><feOffset dx="4.0" dy="4.0" in="blurOut2" result="blurOut3"/><feBlend in="SourceGraphic" in2="blurOut3" mode="normal"/></filter></defs><g><!--MD5=[17d0b563c0e93745e6a54635713a3c57]
class I2sSink--><rect fill="#FFFFFF" filter="url(#fkf388od35ft8)" height="32" id="I2sSink" style="stroke: #33335B; stroke-width: 1.5;" width="73" x="51.5" y="8"/><ellipse cx="66.5" cy="24" fill="#6FCCDD" rx="11" ry="11" style="stroke: #33335B; stroke-width: 1.0;"/><path d="M69.2656,19.875 Q69.4219,19.6563 69.6094,19.5469 Q69.7969,19.4375 70.0156,19.4375 Q70.3906,19.4375 70.625,19.7031 Q70.8594,19.9531 70.8594,20.5625 L70.8594,22.0156 Q70.8594,22.625 70.625,22.8906 Q70.3906,23.1563 70.0156,23.1563 Q69.6719,23.1563 69.4688,22.9531 Q69.2656,22.7656 69.1563,22.25 Q69.1094,21.8906 68.9219,21.7031 Q68.5938,21.3281 67.9844,21.1094 Q67.375,20.8906 66.75,20.8906 Q65.9844,20.8906 65.3438,21.2188 Q64.7188,21.5469 64.2188,22.2969 Q63.7344,23.0469 63.7344,24.0781 L63.7344,25.1719 Q63.7344,26.4063 64.625,27.2344 Q65.5156,28.0469 67.1094,28.0469 Q68.0469,28.0469 68.7031,27.7969 Q69.0938,27.6406 69.5156,27.2031 Q69.7813,26.9375 69.9219,26.8594 Q70.0781,26.7813 70.2813,26.7813 Q70.6094,26.7813 70.8594,27.0469 Q71.125,27.2969 71.125,27.6406 Q71.125,27.9844 70.7813,28.3906 Q70.2813,28.9688 69.4844,29.2969 Q68.4063,29.75 67.1094,29.75 Q65.5938,29.75 64.3906,29.125 Q63.4063,28.625 62.7188,27.5625 Q62.0313,26.4844 62.0313,25.2031 L62.0313,24.0469 Q62.0313,22.7188 62.6406,21.5781 Q63.2656,20.4219 64.3594,19.8125 Q65.4531,19.1875 66.6875,19.1875 Q67.4219,19.1875 68.0625,19.3594 Q68.7188,19.5156 69.2656,19.875 Z "/><text fill="#33335B" font-family="sans-serif" font-size="12" lengthAdjust="spacingAndGlyphs" textLength="41" x="80.5" y="28.9102">I2sSink</text><ellipse cx="11" cy="116" fill="#FFFFFF" filter="url(#fkf388od35ft8)" rx="5" ry="5" style="stroke: #33335B; stroke-width: 1.5;"/><text fill="#33335B" font-family="sans-serif" font-size="12" lengthAdjust="spacingAndGlyphs" textLength="47" x="-12.5" y="133.457">Gateway</text><!--MD5=[e01a7672484d3e616544d830eb68da95]
class I2sSource--><rect fill="#FFFFFF" filter="url(#fkf388od35ft8)" height="32" id="I2sSource" style="stroke: #33335B; stroke-width: 1.5;" width="88" x="208" y="8"/><ellipse cx="223" cy="24" fill="#6FCCDD" rx="11" ry="11" style="stroke: #33335B; stroke-width: 1.0;"/><path d="M225.7656,19.875 Q225.9219,19.6563 226.1094,19.5469 Q226.2969,19.4375 226.5156,19.4375 Q226.8906,19.4375 227.125,19.7031 Q227.3594,19.9531 227.3594,20.5625 L227.3594,22.0156 Q227.3594,22.625 227.125,22.8906 Q226.8906,23.1563 226.5156,23.1563 Q226.1719,23.1563 225.9688,22.9531 Q225.7656,22.7656 225.6563,22.25 Q225.6094,21.8906 225.4219,21.7031 Q225.0938,21.3281 224.4844,21.1094 Q223.875,20.8906 223.25,20.8906 Q222.4844,20.8906 221.8438,21.2188 Q221.2188,21.5469 220.7188,22.2969 Q220.2344,23.0469 220.2344,24.0781 L220.2344,25.1719 Q220.2344,26.4063 221.125,27.2344 Q222.0156,28.0469 223.6094,28.0469 Q224.5469,28.0469 225.2031,27.7969 Q225.5938,27.6406 226.0156,27.2031 Q226.2813,26.9375 226.4219,26.8594 Q226.5781,26.7813 226.7813,26.7813 Q227.1094,26.7813 227.3594,27.0469 Q227.625,27.2969 227.625,27.6406 Q227.625,27.9844 227.2813,28.3906 Q226.7813,28.9688 225.9844,29.2969 Q224.9063,29.75 223.6094,29.75 Q222.0938,29.75 220.8906,29.125 Q219.9063,28.625 219.2188,27.5625 Q218.5313,26.4844 218.5313,25.2031 L218.5313,24.0469 Q218.5313,22.7188 219.1406,21.5781 Q219.7656,20.4219 220.8594,19.8125 Q221.9531,19.1875 223.1875,19.1875 Q223.9219,19.1875 224.5625,19.3594 Q225.2188,19.5156 225.7656,19.875 Z "/><text fill="#33335B" font-family="sans-serif" font-size="12" lengthAdjust="spacingAndGlyphs" textLength="56" x="237" y="28.9102">I2sSource</text><ellipse cx="223" cy="116" fill="#FFFFFF" filter="url(#fkf388od35ft8)" rx="5" ry="5" style="stroke: #33335B; stroke-width: 1.5;"/><text fill="#33335B" font-family="sans-serif" font-size="12" lengthAdjust="spacingAndGlyphs" textLength="47" x="199.5" y="133.457">Gateway</text><!--MD5=[6403403b5343eae07c5d253cd602df0f]
class I2sDriver--><rect fill="#FFFFFF" filter="url(#fkf388od35ft8)" height="32" id="I2sDriver" style="stroke: #33335B; stroke-width: 1.5;" width="81" x="180.5" y="284"/><ellipse cx="195.5" cy="300" fill="#6FCCDD" rx="11" ry="11" style="stroke: #33335B; stroke-width: 1.0;"/><path d="M198.2656,295.875 Q198.4219,295.6563 198.6094,295.5469 Q198.7969,295.4375 199.0156,295.4375 Q199.3906,295.4375 199.625,295.7031 Q199.8594,295.9531 199.8594,296.5625 L199.8594,298.0156 Q199.8594,298.625 199.625,298.8906 Q199.3906,299.1563 199.0156,299.1563 Q198.6719,299.1563 198.4688,298.9531 Q198.2656,298.7656 198.1563,298.25 Q198.1094,297.8906 197.9219,297.7031 Q197.5938,297.3281 196.9844,297.1094 Q196.375,296.8906 195.75,296.8906 Q194.9844,296.8906 194.3438,297.2188 Q193.7188,297.5469 193.2188,298.2969 Q192.7344,299.0469 192.7344,300.0781 L192.7344,301.1719 Q192.7344,302.4063 193.625,303.2344 Q194.5156,304.0469 196.1094,304.0469 Q197.0469,304.0469 197.7031,303.7969 Q198.0938,303.6406 198.5156,303.2031 Q198.7813,302.9375 198.9219,302.8594 Q199.0781,302.7813 199.2813,302.7813 Q199.6094,302.7813 199.8594,303.0469 Q200.125,303.2969 200.125,303.6406 Q200.125,303.9844 199.7813,304.3906 Q199.2813,304.9688 198.4844,305.2969 Q197.4063,305.75 196.1094,305.75 Q194.5938,305.75 193.3906,305.125 Q192.4063,304.625 191.7188,303.5625 Q191.0313,302.4844 191.0313,301.2031 L191.0313,300.0469 Q191.0313,298.7188 191.6406,297.5781 Q192.2656,296.4219 193.3594,295.8125 Q194.4531,295.1875 195.6875,295.1875 Q196.4219,295.1875 197.0625,295.3594 Q197.7188,295.5156 198.2656,295.875 Z "/><text fill="#33335B" font-family="sans-serif" font-size="12" lengthAdjust="spacingAndGlyphs" textLength="49" x="209.5" y="304.9102">I2sDriver</text><ellipse cx="221" cy="381" fill="#FFFFFF" filter="url(#fkf388od35ft8)" rx="5" ry="5" style="stroke: #33335B; stroke-width: 1.5;"/><text fill="#33335B" font-family="sans-serif" font-size="12" lengthAdjust="spacingAndGlyphs" textLength="42" x="200" y="398.457">IoDriver</text><!--MD5=[66d06afbc10f91918a520d7972789c35]
class I2sChannel--><rect fill="#FFFFFF" filter="url(#fkf388od35ft8)" height="32" id="I2sChannel" style="stroke: #33335B; stroke-width: 1.5;" width="96" x="173" y="192"/><ellipse cx="188" cy="208" fill="#6FCCDD" rx="11" ry="11" style="stroke: #33335B; stroke-width: 1.0;"/><path d="M190.7656,203.875 Q190.9219,203.6563 191.1094,203.5469 Q191.2969,203.4375 191.5156,203.4375 Q191.8906,203.4375 192.125,203.7031 Q192.3594,203.9531 192.3594,204.5625 L192.3594,206.0156 Q192.3594,206.625 192.125,206.8906 Q191.8906,207.1563 191.5156,207.1563 Q191.1719,207.1563 190.9688,206.9531 Q190.7656,206.7656 190.6563,206.25 Q190.6094,205.8906 190.4219,205.7031 Q190.0938,205.3281 189.4844,205.1094 Q188.875,204.8906 188.25,204.8906 Q187.4844,204.8906 186.8438,205.2188 Q186.2188,205.5469 185.7188,206.2969 Q185.2344,207.0469 185.2344,208.0781 L185.2344,209.1719 Q185.2344,210.4063 186.125,211.2344 Q187.0156,212.0469 188.6094,212.0469 Q189.5469,212.0469 190.2031,211.7969 Q190.5938,211.6406 191.0156,211.2031 Q191.2813,210.9375 191.4219,210.8594 Q191.5781,210.7813 191.7813,210.7813 Q192.1094,210.7813 192.3594,211.0469 Q192.625,211.2969 192.625,211.6406 Q192.625,211.9844 192.2813,212.3906 Q191.7813,212.9688 190.9844,213.2969 Q189.9063,213.75 188.6094,213.75 Q187.0938,213.75 185.8906,213.125 Q184.9063,212.625 184.2188,211.5625 Q183.5313,210.4844 183.5313,209.2031 L183.5313,208.0469 Q183.5313,206.7188 184.1406,205.5781 Q184.7656,204.4219 185.8594,203.8125 Q186.9531,203.1875 188.1875,203.1875 Q188.9219,203.1875 189.5625,203.3594 Q190.2188,203.5156 190.7656,203.875 Z "/><text fill="#33335B" font-family="sans-serif" font-size="12" lengthAdjust="spacingAndGlyphs" textLength="64" x="202" y="212.9102">I2sChannel</text><!--MD5=[1c27ba5b11ad7e324e1984559723bee9]
class I2sInputChannel--><rect fill="#FFFFFF" filter="url(#fkf388od35ft8)" height="32" id="I2sInputChannel" style="stroke: #33335B; stroke-width: 1.5;" width="123" x="263.5" y="100"/><ellipse cx="278.5" cy="116" fill="#6FCCDD" rx="11" ry="11" style="stroke: #33335B; stroke-width: 1.0;"/><path d="M281.2656,111.875 Q281.4219,111.6563 281.6094,111.5469 Q281.7969,111.4375 282.0156,111.4375 Q282.3906,111.4375 282.625,111.7031 Q282.8594,111.9531 282.8594,112.5625 L282.8594,114.0156 Q282.8594,114.625 282.625,114.8906 Q282.3906,115.1563 282.0156,115.1563 Q281.6719,115.1563 281.4688,114.9531 Q281.2656,114.7656 281.1563,114.25 Q281.1094,113.8906 280.9219,113.7031 Q280.5938,113.3281 279.9844,113.1094 Q279.375,112.8906 278.75,112.8906 Q277.9844,112.8906 277.3438,113.2188 Q276.7188,113.5469 276.2188,114.2969 Q275.7344,115.0469 275.7344,116.0781 L275.7344,117.1719 Q275.7344,118.4063 276.625,119.2344 Q277.5156,120.0469 279.1094,120.0469 Q280.0469,120.0469 280.7031,119.7969 Q281.0938,119.6406 281.5156,119.2031 Q281.7813,118.9375 281.9219,118.8594 Q282.0781,118.7813 282.2813,118.7813 Q282.6094,118.7813 282.8594,119.0469 Q283.125,119.2969 283.125,119.6406 Q283.125,119.9844 282.7813,120.3906 Q282.2813,120.9688 281.4844,121.2969 Q280.4063,121.75 279.1094,121.75 Q277.5938,121.75 276.3906,121.125 Q275.4063,120.625 274.7188,119.5625 Q274.0313,118.4844 274.0313,117.2031 L274.0313,116.0469 Q274.0313,114.7188 274.6406,113.5781 Q275.2656,112.4219 276.3594,111.8125 Q277.4531,111.1875 278.6875,111.1875 Q279.4219,111.1875 280.0625,111.3594 Q280.7188,111.5156 281.2656,111.875 Z "/><text fill="#33335B" font-family="sans-serif" font-size="12" lengthAdjust="spacingAndGlyphs" textLength="91" x="292.5" y="120.9102">I2sInputChannel</text><!--MD5=[06e2ccf33d2112491ddf1a125baa722b]
class I2sOutputChannel--><rect fill="#FFFFFF" filter="url(#fkf388od35ft8)" height="32" id="I2sOutputChannel" style="stroke: #33335B; stroke-width: 1.5;" width="132" x="51" y="100"/><ellipse cx="66" cy="116" fill="#6FCCDD" rx="11" ry="11" style="stroke: #33335B; stroke-width: 1.0;"/><path d="M68.7656,111.875 Q68.9219,111.6563 69.1094,111.5469 Q69.2969,111.4375 69.5156,111.4375 Q69.8906,111.4375 70.125,111.7031 Q70.3594,111.9531 70.3594,112.5625 L70.3594,114.0156 Q70.3594,114.625 70.125,114.8906 Q69.8906,115.1563 69.5156,115.1563 Q69.1719,115.1563 68.9688,114.9531 Q68.7656,114.7656 68.6563,114.25 Q68.6094,113.8906 68.4219,113.7031 Q68.0938,113.3281 67.4844,113.1094 Q66.875,112.8906 66.25,112.8906 Q65.4844,112.8906 64.8438,113.2188 Q64.2188,113.5469 63.7188,114.2969 Q63.2344,115.0469 63.2344,116.0781 L63.2344,117.1719 Q63.2344,118.4063 64.125,119.2344 Q65.0156,120.0469 66.6094,120.0469 Q67.5469,120.0469 68.2031,119.7969 Q68.5938,119.6406 69.0156,119.2031 Q69.2813,118.9375 69.4219,118.8594 Q69.5781,118.7813 69.7813,118.7813 Q70.1094,118.7813 70.3594,119.0469 Q70.625,119.2969 70.625,119.6406 Q70.625,119.9844 70.2813,120.3906 Q69.7813,120.9688 68.9844,121.2969 Q67.9063,121.75 66.6094,121.75 Q65.0938,121.75 63.8906,121.125 Q62.9063,120.625 62.2188,119.5625 Q61.5313,118.4844 61.5313,117.2031 L61.5313,116.0469 Q61.5313,114.7188 62.1406,113.5781 Q62.7656,112.4219 63.8594,111.8125 Q64.9531,111.1875 66.1875,111.1875 Q66.9219,111.1875 67.5625,111.3594 Q68.2188,111.5156 68.7656,111.875 Z "/><text fill="#33335B" font-family="sans-serif" font-size="12" lengthAdjust="spacingAndGlyphs" textLength="100" x="80" y="120.9102">I2sOutputChannel</text><!--MD5=[55f1390297f1efaf706740f09cd672dc]
link I2sSink to I2sSinklol2--><path d="M74.94,40.27 C56.4,61.93 23.63,100.24 13.84,111.68 " fill="none" id="I2sSink-I2sSinklol2" style="stroke: #F05772; stroke-width: 1.0;"/><!--MD5=[ec802aa9384e4c6f9330427ce35aab4e]
link I2sSource to I2sSourcelol6--><path d="M247.08,40.27 C240.23,61.53 228.21,98.83 224.28,111.02 " fill="none" id="I2sSource-I2sSourcelol6" style="stroke: #F05772; stroke-width: 1.0;"/><!--MD5=[53c3c9428a7763bbbee035c3440b39b7]
link I2sDriver to I2sDriverlol10--><path d="M221,316.23 C221,334.7 221,364.74 221,375.77 " fill="none" id="I2sDriver-I2sDriverlol10" style="stroke: #F05772; stroke-width: 1.0;"/><!--MD5=[2fb71fb1a4878cd639e12d6e83415a7c]
link I2sChannel to I2sDriver--><path d="M221,224.27 C221,237.02 221,255.52 221,270.93 " fill="none" id="I2sChannel-&gt;I2sDriver" style="stroke: #F05772; stroke-width: 1.0;"/><polygon fill="#F05772" points="221,283.96,225,277.96,221,271.96,217,277.96,221,283.96" style="stroke: #F05772; stroke-width: 1.0;"/><!--MD5=[c517d5f5f0fdb07877671f24846b872b]
link I2sInputChannel to I2sChannel--><path d="M307.36,132.27 C292.7,144.95 271.46,163.34 253.71,178.7 " fill="none" id="I2sInputChannel-&gt;I2sChannel" style="stroke: #F05772; stroke-width: 1.0;"/><polygon fill="none" points="258.09,184.16,238.38,191.96,248.92,173.58,258.09,184.16" style="stroke: #F05772; stroke-width: 1.0;"/><!--MD5=[d6e79fa8189de920940049b4e2fb6e89]
link I2sOutputChannel to I2sChannel--><path d="M134.64,132.27 C149.3,144.95 170.54,163.34 188.29,178.7 " fill="none" id="I2sOutputChannel-&gt;I2sChannel" style="stroke: #F05772; stroke-width: 1.0;"/><polygon fill="none" points="193.08,173.58,203.62,191.96,183.91,184.16,193.08,173.58" style="stroke: #F05772; stroke-width: 1.0;"/><!--MD5=[18a000bd9b956a64afd9b4760ac8925e]
link I2sSink to I2sOutputChannel--><path d="M92.92,40.27 C97.07,53.15 103.11,71.9 108.11,87.4 " fill="none" id="I2sSink-&gt;I2sOutputChannel" style="stroke: #F05772; stroke-width: 1.0;"/><polygon fill="#FFFFFF" points="112.15,99.96,114.1174,93.0225,108.4702,88.5381,106.5028,95.4757,112.15,99.96" style="stroke: #F05772; stroke-width: 1.0;"/><!--MD5=[a30ddf5608418d43b9885801c6b95cb5]
link I2sSource to I2sInputChannel--><path d="M264.38,40.27 C275.36,53.8 291.59,73.81 304.5,89.73 " fill="none" id="I2sSource-&gt;I2sInputChannel" style="stroke: #F05772; stroke-width: 1.0;"/><polygon fill="#FFFFFF" points="312.8,99.96,312.1247,92.7806,305.2379,90.6426,305.9131,97.822,312.8,99.96" style="stroke: #F05772; stroke-width: 1.0;"/><!--MD5=[963eece0acce62d8cf2bde0b664d734f]
@startuml
hidefootbox
skinparam componentStyle uml2

skinparam defaultFontColor	#33335b

skinparam rectangle {
	color		#d6d6de
	backgroundColor	#ffffff
}

skinparam queue {
	color		#d6d6de
	backgroundColor	#ffffff
}

skinparam component {
	backgroundColor	#ffffff
	borderColor	#33335b
	arrowColor	#f05772
}

skinparam interface {
	backgroundColor	#ffffff
	borderColor	#f05772
}

skinparam class {
	backgroundColor	#ffffff
	borderColor	#33335b
	arrowColor	#f05772
}
skinparam stereotypeCBackgroundColor	#6fccdd

skinparam sequence {
	arrowColor		#4a4a86
	lifeLineBorderColor	#f05772
	groupBorderColor	#a1a1ca
	boxBorderColor		#a1a1ca
	dividerBorderColor	#d6d6de
	dividerBorderThickness	1
}
skinparam participant {
	borderColor		#33335b
	backgroundColor		#ffffff
}
skinparam actor {
	borderColor		#33335b
	backgroundColor		#ffffff
}

skinparam state {
	borderColor		#33335b
	backgroundColor		#ffffff
}

skinparam node {
	backgroundColor		#ffffff
}

skinparam note {
	backgroundColor 	#f6ed80
	borderColor		#d6d6de
}

skinparam activity {
	borderColor		#33335b
	backgroundColor		#ffffff
}

skinparam activityDiamond {
	borderColor		#33335b
	backgroundColor		#ffffff
}

skinparam arrowColor	#f05772
skinparam maxMessageSize 400
skinparam BoxPadding 4

hide methods
hide attributes

class I2sSink - -() Gateway
class I2sSource - -() Gateway
class I2sDriver - -() IoDriver
class I2sChannel
class I2sInputChannel

I2sChannel  - -* I2sDriver
I2sInputChannel  - -|> I2sChannel
I2sOutputChannel - -|> I2sChannel
I2sSink - -o I2sOutputChannel
I2sSource - -o I2sInputChannel

@enduml

PlantUML version 1.2019.12(Sun Nov 03 11:24:54 CET 2019)
(GPL source distribution)
Java Runtime: OpenJDK Runtime Environment
JVM: OpenJDK 64-Bit Server VM
Java Version: 1.8.0_302-b08
Operating System: Windows 10
Default Encoding: Cp1252
Language: en
Country: US
--></g></svg>