<?xml version="1.0" encoding="UTF-8" standalone="no"?><svg xmlns="http://www.w3.org/2000/svg" xmlns:xlink="http://www.w3.org/1999/xlink" contentScriptType="application/ecmascript" contentStyleType="text/css" height="465px" preserveAspectRatio="none" style="width:170px;height:465px;" version="1.1" viewBox="0 0 170 465" width="170px" zoomAndPan="magnify"><defs><filter height="300%" id="f17yrc0t8dwoqn" width="300%" x="-1" y="-1"><feGaussianBlur result="blurOut" stdDeviation="2.0"/><feColorMatrix in="blurOut" result="blurOut2" type="matrix" values="0 0 0 0 0 0 0 0 0 0 0 0 0 0 0 0 0 0 .4 0"/><feOffset dx="4.0" dy="4.0" in="blurOut2" result="blurOut3"/><feBlend in="SourceGraphic" in2="blurOut3" mode="normal"/></filter></defs><g><!--MD5=[5174bcca1b4ebfd73c4eb390d7997b86]
class lsd--><rect fill="#FFFFFF" filter="url(#f17yrc0t8dwoqn)" height="91.2188" id="lsd" style="stroke: #33335B; stroke-width: 1.5;" width="136" x="14.5" y="8"/><ellipse cx="29.5" cy="24" fill="#6FCCDD" rx="11" ry="11" style="stroke: #33335B; stroke-width: 1.0;"/><path d="M32.4688,29.6406 Q31.8906,29.9375 31.25,30.0781 Q30.6094,30.2344 29.9063,30.2344 Q27.4063,30.2344 26.0781,28.5938 Q24.7656,26.9375 24.7656,23.8125 Q24.7656,20.6875 26.0781,19.0313 Q27.4063,17.375 29.9063,17.375 Q30.6094,17.375 31.25,17.5313 Q31.9063,17.6875 32.4688,17.9844 L32.4688,20.7031 Q31.8438,20.125 31.25,19.8594 Q30.6563,19.5781 30.0313,19.5781 Q28.6875,19.5781 28,20.6563 Q27.3125,21.7188 27.3125,23.8125 Q27.3125,25.9063 28,26.9844 Q28.6875,28.0469 30.0313,28.0469 Q30.6563,28.0469 31.25,27.7813 Q31.8438,27.5 32.4688,26.9219 L32.4688,29.6406 Z "/><text fill="#33335B" font-family="sans-serif" font-size="12" lengthAdjust="spacingAndGlyphs" textLength="104" x="43.5" y="28.1543">ll_schedule_data</text><line style="stroke: #33335B; stroke-width: 1.5;" x1="15.5" x2="149.5" y1="40" y2="40"/><rect fill="none" height="6" style="stroke: #C82930; stroke-width: 1.0;" width="6" x="22.5" y="48"/><text fill="#33335B" font-family="sans-serif" font-size="11" lengthAdjust="spacingAndGlyphs" textLength="60" x="34.5" y="54.2104">tasks : list</text><rect fill="none" height="6" style="stroke: #C82930; stroke-width: 1.0;" width="6" x="22.5" y="60.8047"/><text fill="#33335B" font-family="sans-serif" font-size="11" lengthAdjust="spacingAndGlyphs" textLength="62" x="34.5" y="67.0151">num_tasks</text><rect fill="none" height="6" style="stroke: #C82930; stroke-width: 1.0;" width="6" x="22.5" y="73.6094"/><text fill="#33335B" font-family="sans-serif" font-size="11" lengthAdjust="spacingAndGlyphs" textLength="20" x="34.5" y="79.8198">pcd</text><rect fill="none" height="6" style="stroke: #C82930; stroke-width: 1.0;" width="6" x="22.5" y="86.4141"/><text fill="#33335B" font-family="sans-serif" font-size="11" lengthAdjust="spacingAndGlyphs" textLength="42" x="34.5" y="92.6245">domain</text><!--MD5=[f88fbe2a60644cdf1f58f90e11b0acf5]
class lsdom--><rect fill="#FFFFFF" filter="url(#f17yrc0t8dwoqn)" height="278.4844" id="lsdom" style="stroke: #33335B; stroke-width: 1.5;" width="153" x="6" y="176"/><ellipse cx="21" cy="192" fill="#6FCCDD" rx="11" ry="11" style="stroke: #33335B; stroke-width: 1.0;"/><path d="M23.9688,197.6406 Q23.3906,197.9375 22.75,198.0781 Q22.1094,198.2344 21.4063,198.2344 Q18.9063,198.2344 17.5781,196.5938 Q16.2656,194.9375 16.2656,191.8125 Q16.2656,188.6875 17.5781,187.0313 Q18.9063,185.375 21.4063,185.375 Q22.1094,185.375 22.75,185.5313 Q23.4063,185.6875 23.9688,185.9844 L23.9688,188.7031 Q23.3438,188.125 22.75,187.8594 Q22.1563,187.5781 21.5313,187.5781 Q20.1875,187.5781 19.5,188.6563 Q18.8125,189.7188 18.8125,191.8125 Q18.8125,193.9063 19.5,194.9844 Q20.1875,196.0469 21.5313,196.0469 Q22.1563,196.0469 22.75,195.7813 Q23.3438,195.5 23.9688,194.9219 L23.9688,197.6406 Z "/><text fill="#33335B" font-family="sans-serif" font-size="12" lengthAdjust="spacingAndGlyphs" textLength="121" x="35" y="196.1543">ll_schedule_domain</text><line style="stroke: #33335B; stroke-width: 1.5;" x1="7" x2="158" y1="208" y2="208"/><rect fill="none" height="6" style="stroke: #C82930; stroke-width: 1.0;" width="6" x="14" y="216"/><text fill="#33335B" font-family="sans-serif" font-size="11" lengthAdjust="spacingAndGlyphs" textLength="46" x="26" y="222.2104">last_tick</text><rect fill="none" height="6" style="stroke: #C82930; stroke-width: 1.0;" width="6" x="14" y="228.8047"/><text fill="#33335B" font-family="sans-serif" font-size="11" lengthAdjust="spacingAndGlyphs" textLength="22" x="26" y="235.0151">lock</text><rect fill="none" height="6" style="stroke: #C82930; stroke-width: 1.0;" width="6" x="14" y="241.6094"/><text fill="#33335B" font-family="sans-serif" font-size="11" lengthAdjust="spacingAndGlyphs" textLength="93" x="26" y="247.8198">total_num_tasks</text><rect fill="none" height="6" style="stroke: #C82930; stroke-width: 1.0;" width="6" x="14" y="254.4141"/><text fill="#33335B" font-family="sans-serif" font-size="11" lengthAdjust="spacingAndGlyphs" textLength="68" x="26" y="260.6245">num_clients</text><rect fill="none" height="6" style="stroke: #C82930; stroke-width: 1.0;" width="6" x="14" y="267.2188"/><text fill="#33335B" font-family="sans-serif" font-size="11" lengthAdjust="spacingAndGlyphs" textLength="75" x="26" y="273.4292">ticks_per_ms</text><rect fill="none" height="6" style="stroke: #C82930; stroke-width: 1.0;" width="6" x="14" y="280.0234"/><text fill="#33335B" font-family="sans-serif" font-size="11" lengthAdjust="spacingAndGlyphs" textLength="24" x="26" y="286.2339">type</text><rect fill="none" height="6" style="stroke: #C82930; stroke-width: 1.0;" width="6" x="14" y="292.8281"/><text fill="#33335B" font-family="sans-serif" font-size="11" lengthAdjust="spacingAndGlyphs" textLength="15" x="26" y="299.0386">clk</text><rect fill="none" height="6" style="stroke: #C82930; stroke-width: 1.0;" width="6" x="14" y="305.6328"/><text fill="#33335B" font-family="sans-serif" font-size="11" lengthAdjust="spacingAndGlyphs" textLength="73" x="26" y="311.8433">synchronous</text><rect fill="none" height="6" style="stroke: #C82930; stroke-width: 1.0;" width="6" x="14" y="318.4375"/><text fill="#33335B" font-family="sans-serif" font-size="11" lengthAdjust="spacingAndGlyphs" textLength="52" x="26" y="324.6479">priv_data</text><rect fill="none" height="6" style="stroke: #C82930; stroke-width: 1.0;" width="6" x="14" y="331.2422"/><text fill="#33335B" font-family="sans-serif" font-size="11" lengthAdjust="spacingAndGlyphs" textLength="101" x="26" y="337.4526">registered : array</text><rect fill="none" height="6" style="stroke: #C82930; stroke-width: 1.0;" width="6" x="14" y="344.0469"/><text fill="#33335B" font-family="sans-serif" font-size="11" lengthAdjust="spacingAndGlyphs" textLength="87" x="26" y="350.2573">enabled : array</text><line style="stroke: #33335B; stroke-width: 1.5;" x1="7" x2="158" y1="356.8516" y2="356.8516"/><ellipse cx="17" cy="367.8516" fill="#84BE84" rx="3" ry="3" style="stroke: #038048; stroke-width: 1.0;"/><text fill="#33335B" font-family="sans-serif" font-size="11" lengthAdjust="spacingAndGlyphs" textLength="101" x="26" y="371.062">domain_register()</text><ellipse cx="17" cy="380.6563" fill="#84BE84" rx="3" ry="3" style="stroke: #038048; stroke-width: 1.0;"/><text fill="#33335B" font-family="sans-serif" font-size="11" lengthAdjust="spacingAndGlyphs" textLength="115" x="26" y="383.8667">domain_unregister()</text><ellipse cx="17" cy="393.4609" fill="#84BE84" rx="3" ry="3" style="stroke: #038048; stroke-width: 1.0;"/><text fill="#33335B" font-family="sans-serif" font-size="11" lengthAdjust="spacingAndGlyphs" textLength="94" x="26" y="396.6714">domain_enable()</text><ellipse cx="17" cy="406.2656" fill="#84BE84" rx="3" ry="3" style="stroke: #038048; stroke-width: 1.0;"/><text fill="#33335B" font-family="sans-serif" font-size="11" lengthAdjust="spacingAndGlyphs" textLength="97" x="26" y="409.4761">domain_disable()</text><ellipse cx="17" cy="419.0703" fill="#84BE84" rx="3" ry="3" style="stroke: #038048; stroke-width: 1.0;"/><text fill="#33335B" font-family="sans-serif" font-size="11" lengthAdjust="spacingAndGlyphs" textLength="74" x="26" y="422.2808">domain_set()</text><ellipse cx="17" cy="431.875" fill="#84BE84" rx="3" ry="3" style="stroke: #038048; stroke-width: 1.0;"/><text fill="#33335B" font-family="sans-serif" font-size="11" lengthAdjust="spacingAndGlyphs" textLength="84" x="26" y="435.0854">domain_clear()</text><ellipse cx="17" cy="444.6797" fill="#84BE84" rx="3" ry="3" style="stroke: #038048; stroke-width: 1.0;"/><text fill="#33335B" font-family="sans-serif" font-size="11" lengthAdjust="spacingAndGlyphs" textLength="117" x="26" y="447.8901">domain_is_pending()</text><!--MD5=[f33f936c6d8667e964f510f4938e47b6]
reverse link lsd to lsdom--><path d="M82.5,112.14 C82.5,131.26 82.5,153.44 82.5,175.95 " fill="none" id="lsd&lt;-lsdom" style="stroke: #4A4A86; stroke-width: 1.0;"/><polygon fill="#4A4A86" points="82.5,99.11,78.5,105.11,82.5,111.11,86.5,105.11,82.5,99.11" style="stroke: #4A4A86; stroke-width: 1.0;"/><text fill="#33335B" font-family="sans-serif" font-size="13" lengthAdjust="spacingAndGlyphs" textLength="54" x="83.5" y="142.0669">contains</text><!--MD5=[6628c2a30707c3c3db2585ca31b14e53]
@startuml
hidefootbox
skinparam componentStyle uml2

skinparam defaultFontColor	#33335b

skinparam rectangle {
	color		#d6d6de
	backgroundColor	#ffffff
}

skinparam component {
	backgroundColor	#ffffff
	borderColor	#33335b
	arrowColor	#f05772
}

skinparam interface {
	backgroundColor	#ffffff
	borderColor	#f05772
}

skinparam class {
	backgroundColor	#ffffff
	borderColor	#33335b
	arrowColor	#f05772
}
skinparam stereotypeCBackgroundColor	#6fccdd

skinparam sequence {
	arrowColor		#4a4a86
	lifeLineBorderColor	#f05772
	groupBorderColor	#a1a1ca
	boxBorderColor		#a1a1ca
	dividerBorderColor	#d6d6de
	dividerBorderThickness	1
}
skinparam participant {
	borderColor		#33335b
	backgroundColor		#ffffff
}
skinparam actor {
	borderColor		#33335b
	backgroundColor		#ffffff
}

skinparam state {
	borderColor		#33335b
	backgroundColor		#ffffff
}

skinparam node {
	backgroundColor		#ffffff
}

skinparam note {
	backgroundColor 	#f6ed80
	borderColor		#d6d6de
}
class "ll_schedule_data" as lsd {
   - tasks : list
   - num_tasks
   - pcd
   - domain
}
hide lsd methods

class "ll_schedule_domain" as lsdom {
   - last_tick
   - lock
   - total_num_tasks
   - num_clients
   - ticks_per_ms
   - type
   - clk
   - synchronous
   - priv_data
   - registered : array
   - enabled : array
   + domain_register()
   + domain_unregister()
   + domain_enable()
   + domain_disable()
   + domain_set()
   + domain_clear()
   + domain_is_pending()
}

lsd *- - lsdom : contains

@enduml

PlantUML version 1.2019.12(Sun Nov 03 10:24:54 UTC 2019)
(GPL source distribution)
Java Runtime: OpenJDK Runtime Environment
JVM: OpenJDK 64-Bit Server VM
Java Version: 11.0.16.1+1
Operating System: Linux
Default Encoding: UTF-8
Language: en
Country: null
--></g></svg>