<?xml version="1.0" encoding="UTF-8" standalone="no"?><svg xmlns="http://www.w3.org/2000/svg" xmlns:xlink="http://www.w3.org/1999/xlink" contentScriptType="application/ecmascript" contentStyleType="text/css" height="1133px" preserveAspectRatio="none" style="width:480px;height:1133px;" version="1.1" viewBox="0 0 480 1133" width="480px" zoomAndPan="magnify"><defs><filter height="300%" id="f1h86rtcw6zm2b" width="300%" x="-1" y="-1"><feGaussianBlur result="blurOut" stdDeviation="2.0"/><feColorMatrix in="blurOut" result="blurOut2" type="matrix" values="0 0 0 0 0 0 0 0 0 0 0 0 0 0 0 0 0 0 .4 0"/><feOffset dx="4.0" dy="4.0" in="blurOut2" result="blurOut3"/><feBlend in="SourceGraphic" in2="blurOut3" mode="normal"/></filter></defs><g><text fill="#33335B" font-family="sans-serif" font-size="18" lengthAdjust="spacingAndGlyphs" textLength="128" x="179.5" y="18.6855">image build flow</text><!--MD5=[9e0a7e62d5f2161e5902d10e50a2a44a]
class bootloader_elf_file--><rect fill="#FFFFFF" filter="url(#f1h86rtcw6zm2b)" height="71.6719" id="bootloader_elf_file" style="stroke: #33335B; stroke-width: 1.5;" width="161" x="59.5" y="30.6406"/><ellipse cx="86.65" cy="46.6406" fill="#DA70D6" rx="11" ry="11" style="stroke: #33335B; stroke-width: 1.0;"/><path d="M86.0875,47.4531 L86.0875,49.9375 L87.8219,49.9375 Q88.4469,49.9375 88.6969,50.1719 Q88.9625,50.4063 88.9625,50.7969 Q88.9625,51.1719 88.6969,51.4063 Q88.4469,51.6406 87.8219,51.6406 L84.1188,51.6406 Q83.5094,51.6406 83.2438,51.4063 Q82.9781,51.1719 82.9781,50.7813 Q82.9781,50.4063 83.2438,50.1719 Q83.5094,49.9375 84.1188,49.9375 L84.3844,49.9375 L84.3844,43.2813 L84.1188,43.2813 Q83.5094,43.2813 83.2438,43.0469 Q82.9781,42.8125 82.9781,42.4219 Q82.9781,42.0469 83.2438,41.8125 Q83.5094,41.5781 84.1188,41.5781 L92.1344,41.5781 L92.1344,44.1719 Q92.1344,44.7813 91.8844,45.0469 Q91.65,45.3125 91.275,45.3125 Q90.9,45.3125 90.6656,45.0625 Q90.4313,44.7969 90.4313,44.1719 L90.4313,43.2813 L86.0875,43.2813 L86.0875,45.75 L87.5719,45.75 Q87.5719,45.0781 87.6969,44.8906 Q87.9625,44.4844 88.4313,44.4844 Q88.8063,44.4844 89.0406,44.75 Q89.275,45.0156 89.275,45.625 L89.275,47.5781 Q89.275,48.2031 89.0406,48.4688 Q88.8063,48.7188 88.4313,48.7188 Q87.9625,48.7188 87.6969,48.3125 Q87.5719,48.125 87.5719,47.4531 L86.0875,47.4531 Z "/><text fill="#33335B" font-family="sans-serif" font-size="12" lengthAdjust="spacingAndGlyphs" textLength="102" x="103.35" y="51.5508">bootloader_elf_file</text><line style="stroke: #33335B; stroke-width: 1.5;" x1="60.5" x2="219.5" y1="62.6406" y2="62.6406"/><text fill="#33335B" font-family="sans-serif" font-size="11" lengthAdjust="spacingAndGlyphs" textLength="149" x="65.5" y="95.8955">Used for CAVS 1.5 and newer</text><line style="stroke: #33335B; stroke-width: 1.0;" x1="60.5" x2="129.5" y1="77.5586" y2="77.5586"/><text fill="#33335B" font-family="sans-serif" font-size="11" lengthAdjust="spacingAndGlyphs" textLength="21" x="129.5" y="81.5596">note</text><line style="stroke: #33335B; stroke-width: 1.0;" x1="150.5" x2="219.5" y1="77.5586" y2="77.5586"/><!--MD5=[5c970644e5b7143556414cadba97c378]
class firmware_elf_file--><rect fill="#FFFFFF" filter="url(#f1h86rtcw6zm2b)" height="48" id="firmware_elf_file" style="stroke: #33335B; stroke-width: 1.5;" width="123" x="255.5" y="42.6406"/><ellipse cx="270.5" cy="58.6406" fill="#DA70D6" rx="11" ry="11" style="stroke: #33335B; stroke-width: 1.0;"/><path d="M269.9375,59.4531 L269.9375,61.9375 L271.6719,61.9375 Q272.2969,61.9375 272.5469,62.1719 Q272.8125,62.4063 272.8125,62.7969 Q272.8125,63.1719 272.5469,63.4063 Q272.2969,63.6406 271.6719,63.6406 L267.9688,63.6406 Q267.3594,63.6406 267.0938,63.4063 Q266.8281,63.1719 266.8281,62.7813 Q266.8281,62.4063 267.0938,62.1719 Q267.3594,61.9375 267.9688,61.9375 L268.2344,61.9375 L268.2344,55.2813 L267.9688,55.2813 Q267.3594,55.2813 267.0938,55.0469 Q266.8281,54.8125 266.8281,54.4219 Q266.8281,54.0469 267.0938,53.8125 Q267.3594,53.5781 267.9688,53.5781 L275.9844,53.5781 L275.9844,56.1719 Q275.9844,56.7813 275.7344,57.0469 Q275.5,57.3125 275.125,57.3125 Q274.75,57.3125 274.5156,57.0625 Q274.2813,56.7969 274.2813,56.1719 L274.2813,55.2813 L269.9375,55.2813 L269.9375,57.75 L271.4219,57.75 Q271.4219,57.0781 271.5469,56.8906 Q271.8125,56.4844 272.2813,56.4844 Q272.6563,56.4844 272.8906,56.75 Q273.125,57.0156 273.125,57.625 L273.125,59.5781 Q273.125,60.2031 272.8906,60.4688 Q272.6563,60.7188 272.2813,60.7188 Q271.8125,60.7188 271.5469,60.3125 Q271.4219,60.125 271.4219,59.4531 L269.9375,59.4531 Z "/><text fill="#33335B" font-family="sans-serif" font-size="12" lengthAdjust="spacingAndGlyphs" textLength="91" x="284.5" y="63.5508">firmware_elf_file</text><line style="stroke: #33335B; stroke-width: 1.5;" x1="256.5" x2="377.5" y1="74.6406" y2="74.6406"/><line style="stroke: #33335B; stroke-width: 1.5;" x1="256.5" x2="377.5" y1="82.6406" y2="82.6406"/><!--MD5=[759b83eeaa614abeac43c954de736d9c]
class rimage--><rect fill="#FFFFFF" filter="url(#f1h86rtcw6zm2b)" height="89.5078" id="rimage" style="stroke: #33335B; stroke-width: 1.5;" width="135" x="160.5" y="163.6406"/><ellipse cx="204.3" cy="179.6406" fill="#6FCCDD" rx="11" ry="11" style="stroke: #33335B; stroke-width: 1.0;"/><path d="M207.0656,175.5156 Q207.2219,175.2969 207.4094,175.1875 Q207.5969,175.0781 207.8156,175.0781 Q208.1906,175.0781 208.425,175.3438 Q208.6594,175.5938 208.6594,176.2031 L208.6594,177.6563 Q208.6594,178.2656 208.425,178.5313 Q208.1906,178.7969 207.8156,178.7969 Q207.4719,178.7969 207.2688,178.5938 Q207.0656,178.4063 206.9563,177.8906 Q206.9094,177.5313 206.7219,177.3438 Q206.3938,176.9688 205.7844,176.75 Q205.175,176.5313 204.55,176.5313 Q203.7844,176.5313 203.1438,176.8594 Q202.5188,177.1875 202.0188,177.9375 Q201.5344,178.6875 201.5344,179.7188 L201.5344,180.8125 Q201.5344,182.0469 202.425,182.875 Q203.3156,183.6875 204.9094,183.6875 Q205.8469,183.6875 206.5031,183.4375 Q206.8938,183.2813 207.3156,182.8438 Q207.5813,182.5781 207.7219,182.5 Q207.8781,182.4219 208.0813,182.4219 Q208.4094,182.4219 208.6594,182.6875 Q208.925,182.9375 208.925,183.2813 Q208.925,183.625 208.5813,184.0313 Q208.0813,184.6094 207.2844,184.9375 Q206.2063,185.3906 204.9094,185.3906 Q203.3938,185.3906 202.1906,184.7656 Q201.2063,184.2656 200.5188,183.2031 Q199.8313,182.125 199.8313,180.8438 L199.8313,179.6875 Q199.8313,178.3594 200.4406,177.2188 Q201.0656,176.0625 202.1594,175.4531 Q203.2531,174.8281 204.4875,174.8281 Q205.2219,174.8281 205.8625,175 Q206.5188,175.1563 207.0656,175.5156 Z "/><text fill="#33335B" font-family="sans-serif" font-size="12" lengthAdjust="spacingAndGlyphs" textLength="39" x="224.7" y="184.5508">rimage</text><line style="stroke: #33335B; stroke-width: 1.5;" x1="161.5" x2="294.5" y1="195.6406" y2="195.6406"/><line style="stroke: #33335B; stroke-width: 1.5;" x1="161.5" x2="294.5" y1="203.6406" y2="203.6406"/><ellipse cx="171.5" cy="214.6406" fill="#84BE84" rx="3" ry="3" style="stroke: #038048; stroke-width: 1.0;"/><text fill="#33335B" font-family="sans-serif" font-size="11" lengthAdjust="spacingAndGlyphs" textLength="83" x="180.5" y="219.0596">write_firmware()</text><ellipse cx="171.5" cy="228.4766" fill="#84BE84" rx="3" ry="3" style="stroke: #038048; stroke-width: 1.0;"/><text fill="#33335B" font-family="sans-serif" font-size="11" lengthAdjust="spacingAndGlyphs" textLength="109" x="180.5" y="232.8955">write_firmware_meu()</text><ellipse cx="171.5" cy="242.3125" fill="#84BE84" rx="3" ry="3" style="stroke: #038048; stroke-width: 1.0;"/><text fill="#33335B" font-family="sans-serif" font-size="11" lengthAdjust="spacingAndGlyphs" textLength="80" x="180.5" y="246.7314">ext_man_write()</text><!--MD5=[2b8f868b3e7ef29862ca687d258a0faa]
class adsp_manifest_file--><rect fill="#FFFFFF" filter="url(#f1h86rtcw6zm2b)" height="61.8359" id="adsp_manifest_file" style="stroke: #33335B; stroke-width: 1.5;" width="138" x="6" y="476.6406"/><ellipse cx="21" cy="492.6406" fill="#DA70D6" rx="11" ry="11" style="stroke: #33335B; stroke-width: 1.0;"/><path d="M20.4375,493.4531 L20.4375,495.9375 L22.1719,495.9375 Q22.7969,495.9375 23.0469,496.1719 Q23.3125,496.4063 23.3125,496.7969 Q23.3125,497.1719 23.0469,497.4063 Q22.7969,497.6406 22.1719,497.6406 L18.4688,497.6406 Q17.8594,497.6406 17.5938,497.4063 Q17.3281,497.1719 17.3281,496.7813 Q17.3281,496.4063 17.5938,496.1719 Q17.8594,495.9375 18.4688,495.9375 L18.7344,495.9375 L18.7344,489.2813 L18.4688,489.2813 Q17.8594,489.2813 17.5938,489.0469 Q17.3281,488.8125 17.3281,488.4219 Q17.3281,488.0469 17.5938,487.8125 Q17.8594,487.5781 18.4688,487.5781 L26.4844,487.5781 L26.4844,490.1719 Q26.4844,490.7813 26.2344,491.0469 Q26,491.3125 25.625,491.3125 Q25.25,491.3125 25.0156,491.0625 Q24.7813,490.7969 24.7813,490.1719 L24.7813,489.2813 L20.4375,489.2813 L20.4375,491.75 L21.9219,491.75 Q21.9219,491.0781 22.0469,490.8906 Q22.3125,490.4844 22.7813,490.4844 Q23.1563,490.4844 23.3906,490.75 Q23.625,491.0156 23.625,491.625 L23.625,493.5781 Q23.625,494.2031 23.3906,494.4688 Q23.1563,494.7188 22.7813,494.7188 Q22.3125,494.7188 22.0469,494.3125 Q21.9219,494.125 21.9219,493.4531 L20.4375,493.4531 Z "/><text fill="#33335B" font-family="sans-serif" font-size="12" lengthAdjust="spacingAndGlyphs" textLength="106" x="35" y="497.5508">adsp_manifest_file</text><line style="stroke: #33335B; stroke-width: 1.5;" x1="7" x2="143" y1="508.6406" y2="508.6406"/><text fill="#33335B" font-family="sans-serif" font-size="11" lengthAdjust="spacingAndGlyphs" textLength="63" x="12" y="524.0596">suffix: .ri.met</text><line style="stroke: #33335B; stroke-width: 1.5;" x1="7" x2="143" y1="530.4766" y2="530.4766"/><!--MD5=[448a08719e7bd68494804755628afe01]
class image_file--><rect fill="#FFFFFF" filter="url(#f1h86rtcw6zm2b)" height="127.0156" id="image_file" style="stroke: #33335B; stroke-width: 1.5;" width="98" x="202" y="677.6406"/><ellipse cx="220.6" cy="693.6406" fill="#DA70D6" rx="11" ry="11" style="stroke: #33335B; stroke-width: 1.0;"/><path d="M220.0375,694.4531 L220.0375,696.9375 L221.7719,696.9375 Q222.3969,696.9375 222.6469,697.1719 Q222.9125,697.4063 222.9125,697.7969 Q222.9125,698.1719 222.6469,698.4063 Q222.3969,698.6406 221.7719,698.6406 L218.0688,698.6406 Q217.4594,698.6406 217.1938,698.4063 Q216.9281,698.1719 216.9281,697.7813 Q216.9281,697.4063 217.1938,697.1719 Q217.4594,696.9375 218.0688,696.9375 L218.3344,696.9375 L218.3344,690.2813 L218.0688,690.2813 Q217.4594,690.2813 217.1938,690.0469 Q216.9281,689.8125 216.9281,689.4219 Q216.9281,689.0469 217.1938,688.8125 Q217.4594,688.5781 218.0688,688.5781 L226.0844,688.5781 L226.0844,691.1719 Q226.0844,691.7813 225.8344,692.0469 Q225.6,692.3125 225.225,692.3125 Q224.85,692.3125 224.6156,692.0625 Q224.3813,691.7969 224.3813,691.1719 L224.3813,690.2813 L220.0375,690.2813 L220.0375,692.75 L221.5219,692.75 Q221.5219,692.0781 221.6469,691.8906 Q221.9125,691.4844 222.3813,691.4844 Q222.7563,691.4844 222.9906,691.75 Q223.225,692.0156 223.225,692.625 L223.225,694.5781 Q223.225,695.2031 222.9906,695.4688 Q222.7563,695.7188 222.3813,695.7188 Q221.9125,695.7188 221.6469,695.3125 Q221.5219,695.125 221.5219,694.4531 L220.0375,694.4531 Z "/><text fill="#33335B" font-family="sans-serif" font-size="12" lengthAdjust="spacingAndGlyphs" textLength="58" x="235.4" y="698.5508">image_file</text><line style="stroke: #33335B; stroke-width: 1.5;" x1="203" x2="299" y1="709.6406" y2="709.6406"/><text fill="#33335B" font-family="sans-serif" font-size="11" lengthAdjust="spacingAndGlyphs" textLength="43" x="208" y="725.0596">suffix: .ri</text><ellipse cx="213" cy="752.3125" fill="none" rx="3" ry="3" style="stroke: #038048; stroke-width: 1.0;"/><text fill="#33335B" font-family="sans-serif" font-size="11" lengthAdjust="spacingAndGlyphs" textLength="64" x="222" y="756.7314">CSE manifest</text><ellipse cx="213" cy="766.1484" fill="none" rx="3" ry="3" style="stroke: #038048; stroke-width: 1.0;"/><text fill="#33335B" font-family="sans-serif" font-size="11" lengthAdjust="spacingAndGlyphs" textLength="65" x="222" y="770.5674">CSS manifest</text><ellipse cx="213" cy="779.9844" fill="none" rx="3" ry="3" style="stroke: #038048; stroke-width: 1.0;"/><text fill="#33335B" font-family="sans-serif" font-size="11" lengthAdjust="spacingAndGlyphs" textLength="72" x="222" y="784.4033">ADSP manifest</text><ellipse cx="213" cy="793.8203" fill="none" rx="3" ry="3" style="stroke: #038048; stroke-width: 1.0;"/><text fill="#33335B" font-family="sans-serif" font-size="11" lengthAdjust="spacingAndGlyphs" textLength="62" x="222" y="798.2393">runtime code</text><line style="stroke: #33335B; stroke-width: 1.0;" x1="203" x2="232.5" y1="738.3945" y2="738.3945"/><text fill="#33335B" font-family="sans-serif" font-size="11" lengthAdjust="spacingAndGlyphs" textLength="37" x="232.5" y="742.3955">Content</text><line style="stroke: #33335B; stroke-width: 1.0;" x1="269.5" x2="299" y1="738.3945" y2="738.3945"/><!--MD5=[4e768ebb13fcf4c654a352fc010d5e54]
class unsigned_image_file--><rect fill="#FFFFFF" filter="url(#f1h86rtcw6zm2b)" height="99.3438" id="unsigned_image_file" style="stroke: #33335B; stroke-width: 1.5;" width="149" x="237.5" y="347.6406"/><ellipse cx="252.5" cy="363.6406" fill="#DA70D6" rx="11" ry="11" style="stroke: #33335B; stroke-width: 1.0;"/><path d="M251.9375,364.4531 L251.9375,366.9375 L253.6719,366.9375 Q254.2969,366.9375 254.5469,367.1719 Q254.8125,367.4063 254.8125,367.7969 Q254.8125,368.1719 254.5469,368.4063 Q254.2969,368.6406 253.6719,368.6406 L249.9688,368.6406 Q249.3594,368.6406 249.0938,368.4063 Q248.8281,368.1719 248.8281,367.7813 Q248.8281,367.4063 249.0938,367.1719 Q249.3594,366.9375 249.9688,366.9375 L250.2344,366.9375 L250.2344,360.2813 L249.9688,360.2813 Q249.3594,360.2813 249.0938,360.0469 Q248.8281,359.8125 248.8281,359.4219 Q248.8281,359.0469 249.0938,358.8125 Q249.3594,358.5781 249.9688,358.5781 L257.9844,358.5781 L257.9844,361.1719 Q257.9844,361.7813 257.7344,362.0469 Q257.5,362.3125 257.125,362.3125 Q256.75,362.3125 256.5156,362.0625 Q256.2813,361.7969 256.2813,361.1719 L256.2813,360.2813 L251.9375,360.2813 L251.9375,362.75 L253.4219,362.75 Q253.4219,362.0781 253.5469,361.8906 Q253.8125,361.4844 254.2813,361.4844 Q254.6563,361.4844 254.8906,361.75 Q255.125,362.0156 255.125,362.625 L255.125,364.5781 Q255.125,365.2031 254.8906,365.4688 Q254.6563,365.7188 254.2813,365.7188 Q253.8125,365.7188 253.5469,365.3125 Q253.4219,365.125 253.4219,364.4531 L251.9375,364.4531 Z "/><text fill="#33335B" font-family="sans-serif" font-size="12" lengthAdjust="spacingAndGlyphs" textLength="117" x="266.5" y="368.5508">unsigned_image_file</text><line style="stroke: #33335B; stroke-width: 1.5;" x1="238.5" x2="385.5" y1="379.6406" y2="379.6406"/><text fill="#33335B" font-family="sans-serif" font-size="11" lengthAdjust="spacingAndGlyphs" textLength="64" x="243.5" y="395.0596">suffix: .ri.uns</text><ellipse cx="248.5" cy="422.3125" fill="none" rx="3" ry="3" style="stroke: #038048; stroke-width: 1.0;"/><text fill="#33335B" font-family="sans-serif" font-size="11" lengthAdjust="spacingAndGlyphs" textLength="72" x="257.5" y="426.7314">ADSP manifest</text><ellipse cx="248.5" cy="436.1484" fill="none" rx="3" ry="3" style="stroke: #038048; stroke-width: 1.0;"/><text fill="#33335B" font-family="sans-serif" font-size="11" lengthAdjust="spacingAndGlyphs" textLength="62" x="257.5" y="440.5674">runtime code</text><line style="stroke: #33335B; stroke-width: 1.0;" x1="238.5" x2="293.5" y1="408.3945" y2="408.3945"/><text fill="#33335B" font-family="sans-serif" font-size="11" lengthAdjust="spacingAndGlyphs" textLength="37" x="293.5" y="412.3955">Content</text><line style="stroke: #33335B; stroke-width: 1.0;" x1="330.5" x2="385.5" y1="408.3945" y2="408.3945"/><!--MD5=[d9fc180130ed2022e7c2981ad5d1b604]
class ext_man_file--><rect fill="#FFFFFF" filter="url(#f1h86rtcw6zm2b)" height="61.8359" id="ext_man_file" style="stroke: #33335B; stroke-width: 1.5;" width="102" x="367" y="476.6406"/><ellipse cx="382" cy="492.6406" fill="#DA70D6" rx="11" ry="11" style="stroke: #33335B; stroke-width: 1.0;"/><path d="M381.4375,493.4531 L381.4375,495.9375 L383.1719,495.9375 Q383.7969,495.9375 384.0469,496.1719 Q384.3125,496.4063 384.3125,496.7969 Q384.3125,497.1719 384.0469,497.4063 Q383.7969,497.6406 383.1719,497.6406 L379.4688,497.6406 Q378.8594,497.6406 378.5938,497.4063 Q378.3281,497.1719 378.3281,496.7813 Q378.3281,496.4063 378.5938,496.1719 Q378.8594,495.9375 379.4688,495.9375 L379.7344,495.9375 L379.7344,489.2813 L379.4688,489.2813 Q378.8594,489.2813 378.5938,489.0469 Q378.3281,488.8125 378.3281,488.4219 Q378.3281,488.0469 378.5938,487.8125 Q378.8594,487.5781 379.4688,487.5781 L387.4844,487.5781 L387.4844,490.1719 Q387.4844,490.7813 387.2344,491.0469 Q387,491.3125 386.625,491.3125 Q386.25,491.3125 386.0156,491.0625 Q385.7813,490.7969 385.7813,490.1719 L385.7813,489.2813 L381.4375,489.2813 L381.4375,491.75 L382.9219,491.75 Q382.9219,491.0781 383.0469,490.8906 Q383.3125,490.4844 383.7813,490.4844 Q384.1563,490.4844 384.3906,490.75 Q384.625,491.0156 384.625,491.625 L384.625,493.5781 Q384.625,494.2031 384.3906,494.4688 Q384.1563,494.7188 383.7813,494.7188 Q383.3125,494.7188 383.0469,494.3125 Q382.9219,494.125 382.9219,493.4531 L381.4375,493.4531 Z "/><text fill="#33335B" font-family="sans-serif" font-size="12" lengthAdjust="spacingAndGlyphs" textLength="70" x="396" y="497.5508">ext_man_file</text><line style="stroke: #33335B; stroke-width: 1.5;" x1="368" x2="468" y1="508.6406" y2="508.6406"/><text fill="#33335B" font-family="sans-serif" font-size="11" lengthAdjust="spacingAndGlyphs" textLength="72" x="373" y="524.0596">suffix: .ri.xman</text><line style="stroke: #33335B; stroke-width: 1.5;" x1="368" x2="468" y1="530.4766" y2="530.4766"/><!--MD5=[feadd63be3ba81d0be5f2cf6da2328b0]
class build_step--><rect fill="#FFFFFF" filter="url(#f1h86rtcw6zm2b)" height="54.9297" id="build_step" style="stroke: #33335B; stroke-width: 1.5;" width="110" x="278" y="865.6406"/><text fill="#33335B" font-family="sans-serif" font-size="12" lengthAdjust="spacingAndGlyphs" textLength="58" x="304" y="883.0977">build_step</text><line style="stroke: #33335B; stroke-width: 1.5;" x1="279" x2="387" y1="890.7344" y2="890.7344"/><line style="stroke: #33335B; stroke-width: 1.5;" x1="279" x2="387" y1="898.7344" y2="898.7344"/><ellipse cx="289" cy="909.7344" fill="#84BE84" rx="3" ry="3" style="stroke: #038048; stroke-width: 1.0;"/><text fill="#33335B" font-family="sans-serif" font-size="11" lengthAdjust="spacingAndGlyphs" textLength="84" x="298" y="914.1533">glue binary files()</text><!--MD5=[61f913ddb0380a8b7cb2e0b8ec9032aa]
class final_image_file--><rect fill="#FFFFFF" filter="url(#f1h86rtcw6zm2b)" height="140.8516" id="final_image_file" style="stroke: #33335B; stroke-width: 1.5;" width="120" x="273" y="981.6406"/><ellipse cx="288" cy="997.6406" fill="#DA70D6" rx="11" ry="11" style="stroke: #33335B; stroke-width: 1.0;"/><path d="M287.4375,998.4531 L287.4375,1000.9375 L289.1719,1000.9375 Q289.7969,1000.9375 290.0469,1001.1719 Q290.3125,1001.4063 290.3125,1001.7969 Q290.3125,1002.1719 290.0469,1002.4063 Q289.7969,1002.6406 289.1719,1002.6406 L285.4688,1002.6406 Q284.8594,1002.6406 284.5938,1002.4063 Q284.3281,1002.1719 284.3281,1001.7813 Q284.3281,1001.4063 284.5938,1001.1719 Q284.8594,1000.9375 285.4688,1000.9375 L285.7344,1000.9375 L285.7344,994.2813 L285.4688,994.2813 Q284.8594,994.2813 284.5938,994.0469 Q284.3281,993.8125 284.3281,993.4219 Q284.3281,993.0469 284.5938,992.8125 Q284.8594,992.5781 285.4688,992.5781 L293.4844,992.5781 L293.4844,995.1719 Q293.4844,995.7813 293.2344,996.0469 Q293,996.3125 292.625,996.3125 Q292.25,996.3125 292.0156,996.0625 Q291.7813,995.7969 291.7813,995.1719 L291.7813,994.2813 L287.4375,994.2813 L287.4375,996.75 L288.9219,996.75 Q288.9219,996.0781 289.0469,995.8906 Q289.3125,995.4844 289.7813,995.4844 Q290.1563,995.4844 290.3906,995.75 Q290.625,996.0156 290.625,996.625 L290.625,998.5781 Q290.625,999.2031 290.3906,999.4688 Q290.1563,999.7188 289.7813,999.7188 Q289.3125,999.7188 289.0469,999.3125 Q288.9219,999.125 288.9219,998.4531 L287.4375,998.4531 Z "/><text fill="#33335B" font-family="sans-serif" font-size="12" lengthAdjust="spacingAndGlyphs" textLength="88" x="302" y="1002.5508">final_image_file</text><line style="stroke: #33335B; stroke-width: 1.5;" x1="274" x2="392" y1="1013.6406" y2="1013.6406"/><text fill="#33335B" font-family="sans-serif" font-size="11" lengthAdjust="spacingAndGlyphs" textLength="43" x="279" y="1029.0596">suffix: .ri</text><ellipse cx="284" cy="1056.3125" fill="none" rx="3" ry="3" style="stroke: #038048; stroke-width: 1.0;"/><text fill="#33335B" font-family="sans-serif" font-size="11" lengthAdjust="spacingAndGlyphs" textLength="89" x="293" y="1060.7314">Extended manifest</text><ellipse cx="284" cy="1070.1484" fill="none" rx="3" ry="3" style="stroke: #038048; stroke-width: 1.0;"/><text fill="#33335B" font-family="sans-serif" font-size="11" lengthAdjust="spacingAndGlyphs" textLength="64" x="293" y="1074.5674">CSE manifest</text><ellipse cx="284" cy="1083.9844" fill="none" rx="3" ry="3" style="stroke: #038048; stroke-width: 1.0;"/><text fill="#33335B" font-family="sans-serif" font-size="11" lengthAdjust="spacingAndGlyphs" textLength="65" x="293" y="1088.4033">CSS manifest</text><ellipse cx="284" cy="1097.8203" fill="none" rx="3" ry="3" style="stroke: #038048; stroke-width: 1.0;"/><text fill="#33335B" font-family="sans-serif" font-size="11" lengthAdjust="spacingAndGlyphs" textLength="72" x="293" y="1102.2393">ADSP manifest</text><ellipse cx="284" cy="1111.6563" fill="none" rx="3" ry="3" style="stroke: #038048; stroke-width: 1.0;"/><text fill="#33335B" font-family="sans-serif" font-size="11" lengthAdjust="spacingAndGlyphs" textLength="62" x="293" y="1116.0752">runtime code</text><line style="stroke: #33335B; stroke-width: 1.0;" x1="274" x2="314.5" y1="1042.3945" y2="1042.3945"/><text fill="#33335B" font-family="sans-serif" font-size="11" lengthAdjust="spacingAndGlyphs" textLength="37" x="314.5" y="1046.3955">Content</text><line style="stroke: #33335B; stroke-width: 1.0;" x1="351.5" x2="392" y1="1042.3945" y2="1042.3945"/><!--MD5=[dfdf12dbb17e691a01e1d6356fac9a6e]
class MEU--><rect fill="#FFFFFF" filter="url(#f1h86rtcw6zm2b)" height="48" id="MEU" style="stroke: #33335B; stroke-width: 1.5;" width="58" x="261" y="568.6406"/><ellipse cx="276" cy="584.6406" fill="#6FCCDD" rx="11" ry="11" style="stroke: #33335B; stroke-width: 1.0;"/><path d="M278.7656,580.5156 Q278.9219,580.2969 279.1094,580.1875 Q279.2969,580.0781 279.5156,580.0781 Q279.8906,580.0781 280.125,580.3438 Q280.3594,580.5938 280.3594,581.2031 L280.3594,582.6563 Q280.3594,583.2656 280.125,583.5313 Q279.8906,583.7969 279.5156,583.7969 Q279.1719,583.7969 278.9688,583.5938 Q278.7656,583.4063 278.6563,582.8906 Q278.6094,582.5313 278.4219,582.3438 Q278.0938,581.9688 277.4844,581.75 Q276.875,581.5313 276.25,581.5313 Q275.4844,581.5313 274.8438,581.8594 Q274.2188,582.1875 273.7188,582.9375 Q273.2344,583.6875 273.2344,584.7188 L273.2344,585.8125 Q273.2344,587.0469 274.125,587.875 Q275.0156,588.6875 276.6094,588.6875 Q277.5469,588.6875 278.2031,588.4375 Q278.5938,588.2813 279.0156,587.8438 Q279.2813,587.5781 279.4219,587.5 Q279.5781,587.4219 279.7813,587.4219 Q280.1094,587.4219 280.3594,587.6875 Q280.625,587.9375 280.625,588.2813 Q280.625,588.625 280.2813,589.0313 Q279.7813,589.6094 278.9844,589.9375 Q277.9063,590.3906 276.6094,590.3906 Q275.0938,590.3906 273.8906,589.7656 Q272.9063,589.2656 272.2188,588.2031 Q271.5313,587.125 271.5313,585.8438 L271.5313,584.6875 Q271.5313,583.3594 272.1406,582.2188 Q272.7656,581.0625 273.8594,580.4531 Q274.9531,579.8281 276.1875,579.8281 Q276.9219,579.8281 277.5625,580 Q278.2188,580.1563 278.7656,580.5156 Z "/><text fill="#33335B" font-family="sans-serif" font-size="12" lengthAdjust="spacingAndGlyphs" textLength="26" x="290" y="589.5508">MEU</text><line style="stroke: #33335B; stroke-width: 1.5;" x1="262" x2="318" y1="600.6406" y2="600.6406"/><line style="stroke: #33335B; stroke-width: 1.5;" x1="262" x2="318" y1="608.6406" y2="608.6406"/><!--MD5=[9f164c5e8a206d118f532443bb44e19a]
link firmware_elf_file to rimage--><path d="M302.3,90.7606 C290.5,109.3306 273.51,136.0506 258.76,159.2506 " fill="none" id="firmware_elf_file-&gt;rimage" style="stroke: #4A4A86; stroke-width: 1.0;"/><polygon fill="#4A4A86" points="256.03,163.5406,264.2401,158.1006,258.7172,159.3241,257.4936,153.8011,256.03,163.5406" style="stroke: #4A4A86; stroke-width: 1.0;"/><!--MD5=[8aa184c494ca7b091c4423651a8a00a1]
link bootloader_elf_file to rimage--><path d="M162.21,102.9706 C172.86,119.9206 185.8,140.5006 197.37,158.9106 " fill="none" id="bootloader_elf_file-&gt;rimage" style="stroke: #4A4A86; stroke-width: 1.0;"/><polygon fill="#4A4A86" points="200.28,163.5406,198.8784,153.792,197.6197,159.3071,192.1047,158.0485,200.28,163.5406" style="stroke: #4A4A86; stroke-width: 1.0;"/><!--MD5=[e121641ecc5db650c1585999a253913c]
link rimage to ext_man_file--><path d="M295.85,229.4506 C325.41,241.0706 358.4,258.5206 381,283.6406 C427.6,335.4306 427.36,422.6406 422.84,471.2306 " fill="none" id="rimage-&gt;ext_man_file" style="stroke: #4A4A86; stroke-width: 1.0;"/><polygon fill="#4A4A86" points="422.33,476.3806,427.2106,467.8261,422.8303,471.4057,419.2507,467.0255,422.33,476.3806" style="stroke: #4A4A86; stroke-width: 1.0;"/><text fill="#33335B" font-family="sans-serif" font-size="13" lengthAdjust="spacingAndGlyphs" textLength="62" x="403" y="306.1357">with -e flag</text><!--MD5=[3d74be91c6596303381cfe4bdfe57612]
link ext_man_file to build_step--><path d="M411.33,538.7306 C395.58,609.7806 356.21,787.4006 340.07,860.2306 " fill="none" id="ext_man_file-&gt;build_step" style="stroke: #4A4A86; stroke-width: 1.0;"/><polygon fill="#4A4A86" points="338.95,865.2906,344.7899,857.3599,340.024,860.4073,336.9766,855.6415,338.95,865.2906" style="stroke: #4A4A86; stroke-width: 1.0;"/><!--MD5=[0ecfa9a817a07359882269f7d48069ca]
link rimage to adsp_manifest_file--><path d="M180.84,253.8306 C172.51,263.1306 164.45,273.2806 158,283.6406 C119.97,344.7106 95.27,425.8906 83.36,471.5606 " fill="none" id="rimage-&gt;adsp_manifest_file" style="stroke: #4A4A86; stroke-width: 1.0;"/><polygon fill="#4A4A86" points="82.11,476.4106,88.2217,468.6875,83.3529,471.5676,80.4728,466.6988,82.11,476.4106" style="stroke: #4A4A86; stroke-width: 1.0;"/><!--MD5=[d5d5fa582c6141b6399fc3197b6a9e93]
link rimage to image_file--><path d="M211.93,253.6506 C190.95,316.8506 158.91,436.9206 177,538.6406 C185.21,584.8306 203.24,634.3106 219.45,672.6906 " fill="none" id="rimage-&gt;image_file" style="stroke: #4A4A86; stroke-width: 1.0;"/><polygon fill="#4A4A86" points="221.41,677.3106,221.5672,667.463,219.4525,672.7097,214.2058,670.5951,221.41,677.3106" style="stroke: #4A4A86; stroke-width: 1.0;"/><text fill="#33335B" font-family="sans-serif" font-size="13" lengthAdjust="spacingAndGlyphs" textLength="74" x="198" y="505.1357">without MEU</text><text fill="#33335B" font-family="sans-serif" font-size="13" lengthAdjust="spacingAndGlyphs" textLength="114" x="178" y="521.4873">without -s argument</text><!--MD5=[96676d2f6fc44b6ee7a5006f490c58bd]
link rimage to unsigned_image_file--><path d="M247.91,253.8406 C259.88,280.4106 275.19,314.4206 287.85,342.5306 " fill="none" id="rimage-&gt;unsigned_image_file" style="stroke: #4A4A86; stroke-width: 1.0;"/><polygon fill="#4A4A86" points="290.02,347.3406,289.9885,337.4918,287.9747,342.7781,282.6885,340.7643,290.02,347.3406" style="stroke: #4A4A86; stroke-width: 1.0;"/><text fill="#33335B" font-family="sans-serif" font-size="13" lengthAdjust="spacingAndGlyphs" textLength="56" x="294" y="298.1357">with MEU</text><text fill="#33335B" font-family="sans-serif" font-size="13" lengthAdjust="spacingAndGlyphs" textLength="96" x="276" y="314.4873">with -s argument</text><!--MD5=[3f98dffc21ba7ca92fb0a8f4891208ec]
link unsigned_image_file to MEU--><path d="M309.71,446.7506 C308.06,473.8806 305.33,508.2406 301,538.6406 C299.84,546.8106 298.18,555.6006 296.5,563.6406 " fill="none" id="unsigned_image_file-&gt;MEU" style="stroke: #4A4A86; stroke-width: 1.0;"/><polygon fill="#4A4A86" points="295.46,568.5306,301.2506,560.5639,296.5037,563.6408,293.4269,558.8939,295.46,568.5306" style="stroke: #4A4A86; stroke-width: 1.0;"/><!--MD5=[a247dd4ef82881fe4b21a9db735565e5]
link MEU to image_file--><path d="M283.82,616.8506 C279.8,631.9506 274.33,652.4806 269.02,672.4606 " fill="none" id="MEU-&gt;image_file" style="stroke: #4A4A86; stroke-width: 1.0;"/><polygon fill="#4A4A86" points="267.67,677.5206,273.8455,669.8484,268.953,672.688,266.1133,667.7956,267.67,677.5206" style="stroke: #4A4A86; stroke-width: 1.0;"/><!--MD5=[bab3313d51e292a29d933f0a6fae518f]
link adsp_manifest_file to image_file--><path d="M90.16,538.7706 C105.45,567.9006 130.66,612.6406 158,647.6406 C169.92,662.8906 184.18,678.2206 197.9,691.8806 " fill="none" id="adsp_manifest_file-&gt;image_file" style="stroke: #4A4A86; stroke-width: 1.0;"/><polygon fill="#4A4A86" points="201.76,695.6906,198.1688,686.5198,198.2031,692.1766,192.5464,692.2109,201.76,695.6906" style="stroke: #4A4A86; stroke-width: 1.0;"/><!--MD5=[641eaf0602c64cdd821f1fc86092ecd5]
link image_file to build_step--><path d="M285.3,804.8806 C295.89,824.2606 307.09,844.7506 315.98,861.0106 " fill="none" id="image_file-&gt;build_step" style="stroke: #4A4A86; stroke-width: 1.0;"/><polygon fill="#4A4A86" points="318.42,865.4706,317.6085,855.6553,316.0197,861.0844,310.5906,859.4957,318.42,865.4706" style="stroke: #4A4A86; stroke-width: 1.0;"/><!--MD5=[03f02b53c00fd529b0c3ec70fe53a131]
link build_step to final_image_file--><path d="M333,920.7706 C333,936.1806 333,956.4006 333,976.3206 " fill="none" id="build_step-&gt;final_image_file" style="stroke: #4A4A86; stroke-width: 1.0;"/><polygon fill="#4A4A86" points="333,981.3706,337,972.3706,333,976.3706,329,972.3706,333,981.3706" style="stroke: #4A4A86; stroke-width: 1.0;"/><!--MD5=[193609d538fd0db6957d3635609e029f]
@startuml
hidefootbox
skinparam componentStyle uml2

skinparam defaultFontColor	#33335b

skinparam rectangle {
	color		#d6d6de
	backgroundColor	#ffffff
}

skinparam component {
	backgroundColor	#ffffff
	borderColor	#33335b
	arrowColor	#f05772
}

skinparam interface {
	backgroundColor	#ffffff
	borderColor	#f05772
}

skinparam class {
	backgroundColor	#ffffff
	borderColor	#33335b
	arrowColor	#f05772
}
skinparam stereotypeCBackgroundColor	#6fccdd

skinparam sequence {
	arrowColor		#4a4a86
	lifeLineBorderColor	#f05772
	groupBorderColor	#a1a1ca
	boxBorderColor		#a1a1ca
	dividerBorderColor	#d6d6de
	dividerBorderThickness	1
}
skinparam participant {
	borderColor		#33335b
	backgroundColor		#ffffff
}
skinparam actor {
	borderColor		#33335b
	backgroundColor		#ffffff
}

skinparam state {
	borderColor		#33335b
	backgroundColor		#ffffff
}

skinparam node {
	backgroundColor		#ffffff
}

skinparam note {
	backgroundColor 	#f6ed80
	borderColor		#d6d6de
}

title image build flow

class bootloader_elf_file << (F, orchid) >> {
  - - note - -
  Used for CAVS 1.5 and newer
}
class firmware_elf_file << (F, orchid) >> {
}

class rimage {
   +write_firmware()
   +write_firmware_meu()
   +ext_man_write()
}

class adsp_manifest_file << (F, orchid) >> {
   suffix: .ri.met
}

class image_file << (F, orchid) >> {
   suffix: .ri
   - - Content - -
   +CSE manifest
   +CSS manifest
   +ADSP manifest
   +runtime code
}

class unsigned_image_file << (F, orchid) >> {
   suffix: .ri.uns
  - - Content - -
   +ADSP manifest
   +runtime code
}

class ext_man_file << (F, orchid) >> {
   suffix: .ri.xman
}

class build_step {
   + glue binary files()
}
hide build_step circle

class final_image_file << (F, orchid) >> {
   suffix: .ri
   - - Content - -
   +Extended manifest
   +CSE manifest
   +CSS manifest
   +ADSP manifest
   +runtime code
}

firmware_elf_file -down-> rimage
bootloader_elf_file -down-> rimage
rimage -down-> ext_man_file : with -e flag
ext_man_file -down-> build_step
rimage -down-> adsp_manifest_file
rimage -down-> image_file : without MEU\nwithout -s argument
rimage -down-> unsigned_image_file : with MEU \nwith -s argument
unsigned_image_file -down-> MEU
MEU -down-> image_file
adsp_manifest_file -down-> image_file
image_file -down-> build_step
build_step -down-> final_image_file

@enduml

PlantUML version 1.2019.12(Sun Nov 03 11:24:54 CET 2019)
(GPL source distribution)
Java Runtime: OpenJDK Runtime Environment
JVM: OpenJDK 64-Bit Server VM
Java Version: 1.8.0_302-b08
Operating System: Windows 10
Default Encoding: Cp1252
Language: en
Country: US
--></g></svg>