<?xml version="1.0" encoding="UTF-8" standalone="no"?><svg xmlns="http://www.w3.org/2000/svg" xmlns:xlink="http://www.w3.org/1999/xlink" contentScriptType="application/ecmascript" contentStyleType="text/css" height="144px" preserveAspectRatio="none" style="width:782px;height:144px;" version="1.1" viewBox="0 0 782 144" width="782px" zoomAndPan="magnify"><defs><filter height="300%" id="f1guo8rhewz7cl" width="300%" x="-1" y="-1"><feGaussianBlur result="blurOut" stdDeviation="2.0"/><feColorMatrix in="blurOut" result="blurOut2" type="matrix" values="0 0 0 0 0 0 0 0 0 0 0 0 0 0 0 0 0 0 .4 0"/><feOffset dx="4.0" dy="4.0" in="blurOut2" result="blurOut3"/><feBlend in="SourceGraphic" in2="blurOut3" mode="normal"/></filter></defs><g><!--MD5=[c249f364d83a401275c0ae35335e5f45]
entity source--><path d="M11,57 L64,57 C69,57 69,70.8047 69,70.8047 C69,70.8047 69,84.6094 64,84.6094 L11,84.6094 C6,84.6094 6,70.8047 6,70.8047 C6,70.8047 6,57 11,57 " fill="#FFFFFF" filter="url(#f1guo8rhewz7cl)" style="stroke: #A80036; stroke-width: 1.5;"/><path d="M64,57 C59,57 59,70.8047 59,70.8047 C59,84.6094 64,84.6094 64,84.6094 " fill="none" style="stroke: #A80036; stroke-width: 1.5;"/><text fill="#33335B" font-family="sans-serif" font-size="14" lengthAdjust="spacingAndGlyphs" textLength="43" x="11" y="76.5332">source</text><!--MD5=[e6f1be0f644a9726ce22ddab15d63ed5]
entity dp_module--><rect fill="#FFFFFF" filter="url(#f1guo8rhewz7cl)" height="125.6563" style="stroke: #000000; stroke-width: 1.5;" width="435" x="104" y="8"/><text fill="#33335B" font-family="sans-serif" font-size="14" font-weight="bold" lengthAdjust="spacingAndGlyphs" textLength="415" x="114" y="32.5332">&lt;- Tx + total GNA cycles / GNA frequency x DSP frequency -&gt;</text><text fill="#33335B" font-family="sans-serif" font-size="14" lengthAdjust="spacingAndGlyphs" textLength="0" x="118" y="50.1426"/><text fill="#33335B" font-family="sans-serif" font-size="14" font-weight="bold" lengthAdjust="spacingAndGlyphs" textLength="94" x="114" y="67.752">Component X</text><text fill="#33335B" font-family="sans-serif" font-size="14" lengthAdjust="spacingAndGlyphs" textLength="122" x="114" y="85.3613">* processing period</text><text fill="#33335B" font-family="sans-serif" font-size="14" lengthAdjust="spacingAndGlyphs" textLength="175" x="114" y="102.9707">* DSP compute requirement</text><text fill="#33335B" font-family="sans-serif" font-size="14" lengthAdjust="spacingAndGlyphs" textLength="5" x="114" y="120.5801">*</text><text fill="#33335B" font-family="sans-serif" font-size="14" font-style="italic" lengthAdjust="spacingAndGlyphs" textLength="168" x="123" y="120.5801">GNA compute requirement</text><!--MD5=[8f7f012ba5c8ae4ed0c9f9f0927cca3e]
entity sink--><path d="M730,57 L765,57 C770,57 770,70.8047 770,70.8047 C770,70.8047 770,84.6094 765,84.6094 L730,84.6094 C725,84.6094 725,70.8047 725,70.8047 C725,70.8047 725,57 730,57 " fill="#FFFFFF" filter="url(#f1guo8rhewz7cl)" style="stroke: #A80036; stroke-width: 1.5;"/><path d="M765,57 C760,57 760,70.8047 760,70.8047 C760,84.6094 765,84.6094 765,84.6094 " fill="none" style="stroke: #A80036; stroke-width: 1.5;"/><text fill="#33335B" font-family="sans-serif" font-size="14" lengthAdjust="spacingAndGlyphs" textLength="25" x="730" y="76.5332">sink</text><!--MD5=[bbbb7e1a12c77c1b184a26702cc584b8]
link source to dp_module--><path d="M69.12,71 C78.91,71 88.71,71 98.5,71 " fill="none" id="source-&gt;dp_module" style="stroke: #F05772; stroke-width: 1.0;"/><polygon fill="#F05772" points="103.62,71,94.62,67,98.62,71,94.62,75,103.62,71" style="stroke: #F05772; stroke-width: 1.0;"/><!--MD5=[5d8a26598676c21af50573ee7b7028b6]
link dp_module to sink--><path d="M539.18,71 C610.86,71 681.83,71 719.61,71 " fill="none" id="dp_module-&gt;sink" style="stroke: #F05772; stroke-width: 1.0;"/><polygon fill="#F05772" points="724.93,71,715.93,67,719.93,71,715.93,75,724.93,71" style="stroke: #F05772; stroke-width: 1.0;"/><text fill="#33335B" font-family="sans-serif" font-size="13" lengthAdjust="spacingAndGlyphs" textLength="131" x="566.5" y="48.4951">DP X to deliver data let</text><text fill="#33335B" font-family="sans-serif" font-size="13" lengthAdjust="spacingAndGlyphs" textLength="149" x="557.5" y="64.8467">DP X+1 meet its objective</text><!--MD5=[34158966af58ac54ff28de14dd0b2de7]
@startuml
hidefootbox
skinparam componentStyle uml2

skinparam defaultFontColor	#33335b

skinparam rectangle {
	color		#d6d6de
	backgroundColor	#ffffff
}

skinparam queue {
	color		#d6d6de
	backgroundColor	#ffffff
}

skinparam component {
	backgroundColor	#ffffff
	borderColor	#33335b
	arrowColor	#f05772
}

skinparam interface {
	backgroundColor	#ffffff
	borderColor	#f05772
}

skinparam class {
	backgroundColor	#ffffff
	borderColor	#33335b
	arrowColor	#f05772
}
skinparam stereotypeCBackgroundColor	#6fccdd

skinparam sequence {
	arrowColor		#4a4a86
	lifeLineBorderColor	#f05772
	groupBorderColor	#a1a1ca
	boxBorderColor		#a1a1ca
	dividerBorderColor	#d6d6de
	dividerBorderThickness	1
}
skinparam participant {
	borderColor		#33335b
	backgroundColor		#ffffff
}
skinparam actor {
	borderColor		#33335b
	backgroundColor		#ffffff
}

skinparam state {
	borderColor		#33335b
	backgroundColor		#ffffff
}

skinparam node {
	backgroundColor		#ffffff
}

skinparam note {
	backgroundColor 	#f6ed80
	borderColor		#d6d6de
}

skinparam activity {
	borderColor		#33335b
	backgroundColor		#ffffff
}

skinparam activityDiamond {
	borderColor		#33335b
	backgroundColor		#ffffff
}

skinparam arrowColor	#f05772
skinparam maxMessageSize 400
skinparam BoxPadding 4
queue source
rectangle dp_module [
		<b><- Tx + total GNA cycles / GNA frequency x DSP frequency -></b>

		<b>Component X</b>
		* processing period
		* DSP compute requirement
		* <i>GNA compute requirement</i>
]
queue sink

source -right-> dp_module
dp_module -right-> sink : DP X to deliver data let\nDP X+1 meet its objective

@enduml

PlantUML version 1.2019.12(Sun Nov 03 11:24:54 CET 2019)
(GPL source distribution)
Java Runtime: OpenJDK Runtime Environment
JVM: OpenJDK 64-Bit Server VM
Java Version: 1.8.0_302-b08
Operating System: Windows 10
Default Encoding: Cp1252
Language: en
Country: US
--></g></svg>