<?xml version="1.0" encoding="UTF-8" standalone="no"?><svg xmlns="http://www.w3.org/2000/svg" xmlns:xlink="http://www.w3.org/1999/xlink" contentScriptType="application/ecmascript" contentStyleType="text/css" height="375px" preserveAspectRatio="none" style="width:599px;height:375px;" version="1.1" viewBox="0 0 599 375" width="599px" zoomAndPan="magnify"><defs><filter height="300%" id="f1xuw7x8g8b11" width="300%" x="-1" y="-1"><feGaussianBlur result="blurOut" stdDeviation="2.0"/><feColorMatrix in="blurOut" result="blurOut2" type="matrix" values="0 0 0 0 0 0 0 0 0 0 0 0 0 0 0 0 0 0 .4 0"/><feOffset dx="4.0" dy="4.0" in="blurOut2" result="blurOut3"/><feBlend in="SourceGraphic" in2="blurOut3" mode="normal"/></filter></defs><g><!--MD5=[7710054a08d622d2d960c555d61d76fb]
cluster cavs--><polygon fill="#FFFFFF" filter="url(#f1xuw7x8g8b11)" points="113,145,155,145,162,167.2969,498,167.2969,498,242,113,242,113,145" style="stroke: #000000; stroke-width: 1.5;"/><line style="stroke: #000000; stroke-width: 1.5;" x1="113" x2="162" y1="167.2969" y2="167.2969"/><text fill="#33335B" font-family="sans-serif" font-size="14" font-weight="bold" lengthAdjust="spacingAndGlyphs" textLength="36" x="117" y="159.9951">cavs</text><!--MD5=[c28c1df5c2d2e22d07a1cfff56ab0919]
cluster arch--><polygon fill="#FFFFFF" filter="url(#f1xuw7x8g8b11)" points="186,266,227,266,234,288.2969,570,288.2969,570,363,186,363,186,266" style="stroke: #000000; stroke-width: 1.5;"/><line style="stroke: #000000; stroke-width: 1.5;" x1="186" x2="234" y1="288.2969" y2="288.2969"/><text fill="#33335B" font-family="sans-serif" font-size="14" font-weight="bold" lengthAdjust="spacingAndGlyphs" textLength="35" x="190" y="280.9951">arch</text><!--MD5=[d841c4c2f84d4e18d352f800547f43fc]
cluster platform--><polygon fill="#FFFFFF" filter="url(#f1xuw7x8g8b11)" points="22,24,94,24,101,46.2969,577,46.2969,577,121,22,121,22,24" style="stroke: #000000; stroke-width: 1.5;"/><line style="stroke: #000000; stroke-width: 1.5;" x1="22" x2="101" y1="46.2969" y2="46.2969"/><text fill="#33335B" font-family="sans-serif" font-size="14" font-weight="bold" lengthAdjust="spacingAndGlyphs" textLength="66" x="26" y="38.9951">platform</text><!--MD5=[4b4cb74f92c39c2893536ba1b2722bf8]
entity 2.5--><rect fill="#FFFFFF" filter="url(#f1xuw7x8g8b11)" height="46.2969" style="stroke: #33335B; stroke-width: 1.5;" width="62" x="420" y="180"/><rect fill="#FFFFFF" height="10" style="stroke: #33335B; stroke-width: 1.5;" width="15" x="462" y="185"/><rect fill="#FFFFFF" height="2" style="stroke: #33335B; stroke-width: 1.5;" width="4" x="460" y="187"/><rect fill="#FFFFFF" height="2" style="stroke: #33335B; stroke-width: 1.5;" width="4" x="460" y="191"/><text fill="#33335B" font-family="sans-serif" font-size="14" lengthAdjust="spacingAndGlyphs" textLength="22" x="435" y="212.9951">2.5</text><!--MD5=[1ba81da61a18b9bf0c34ef1c680c4179]
entity 2.0--><rect fill="#FFFFFF" filter="url(#f1xuw7x8g8b11)" height="46.2969" style="stroke: #33335B; stroke-width: 1.5;" width="62" x="323" y="180"/><rect fill="#FFFFFF" height="10" style="stroke: #33335B; stroke-width: 1.5;" width="15" x="365" y="185"/><rect fill="#FFFFFF" height="2" style="stroke: #33335B; stroke-width: 1.5;" width="4" x="363" y="187"/><rect fill="#FFFFFF" height="2" style="stroke: #33335B; stroke-width: 1.5;" width="4" x="363" y="191"/><text fill="#33335B" font-family="sans-serif" font-size="14" lengthAdjust="spacingAndGlyphs" textLength="22" x="338" y="212.9951">2.0</text><!--MD5=[b251ce038e8502df1be41958e247dc26]
entity 1.8--><rect fill="#FFFFFF" filter="url(#f1xuw7x8g8b11)" height="46.2969" style="stroke: #33335B; stroke-width: 1.5;" width="62" x="226" y="180"/><rect fill="#FFFFFF" height="10" style="stroke: #33335B; stroke-width: 1.5;" width="15" x="268" y="185"/><rect fill="#FFFFFF" height="2" style="stroke: #33335B; stroke-width: 1.5;" width="4" x="266" y="187"/><rect fill="#FFFFFF" height="2" style="stroke: #33335B; stroke-width: 1.5;" width="4" x="266" y="191"/><text fill="#33335B" font-family="sans-serif" font-size="14" lengthAdjust="spacingAndGlyphs" textLength="22" x="241" y="212.9951">1.8</text><!--MD5=[2ddb27eb383b8221de435c42be08e929]
entity 1.5--><rect fill="#FFFFFF" filter="url(#f1xuw7x8g8b11)" height="46.2969" style="stroke: #33335B; stroke-width: 1.5;" width="62" x="129" y="180"/><rect fill="#FFFFFF" height="10" style="stroke: #33335B; stroke-width: 1.5;" width="15" x="171" y="185"/><rect fill="#FFFFFF" height="2" style="stroke: #33335B; stroke-width: 1.5;" width="4" x="169" y="187"/><rect fill="#FFFFFF" height="2" style="stroke: #33335B; stroke-width: 1.5;" width="4" x="169" y="191"/><text fill="#33335B" font-family="sans-serif" font-size="14" lengthAdjust="spacingAndGlyphs" textLength="22" x="144" y="212.9951">1.5</text><!--MD5=[da9746410650acf9fab14ea35e32d13b]
entity host--><rect fill="#FFFFFF" filter="url(#f1xuw7x8g8b11)" height="46.2969" style="stroke: #33335B; stroke-width: 1.5;" width="71" x="482.5" y="301"/><rect fill="#FFFFFF" height="10" style="stroke: #33335B; stroke-width: 1.5;" width="15" x="533.5" y="306"/><rect fill="#FFFFFF" height="2" style="stroke: #33335B; stroke-width: 1.5;" width="4" x="531.5" y="308"/><rect fill="#FFFFFF" height="2" style="stroke: #33335B; stroke-width: 1.5;" width="4" x="531.5" y="312"/><text fill="#33335B" font-family="sans-serif" font-size="14" lengthAdjust="spacingAndGlyphs" textLength="31" x="497.5" y="333.9951">host</text><!--MD5=[82e10e2039fd868936cd3cab7ef705de]
entity xtensa--><rect fill="#FFFFFF" filter="url(#f1xuw7x8g8b11)" height="46.2969" style="stroke: #33335B; stroke-width: 1.5;" width="86" x="361" y="301"/><rect fill="#FFFFFF" height="10" style="stroke: #33335B; stroke-width: 1.5;" width="15" x="427" y="306"/><rect fill="#FFFFFF" height="2" style="stroke: #33335B; stroke-width: 1.5;" width="4" x="425" y="308"/><rect fill="#FFFFFF" height="2" style="stroke: #33335B; stroke-width: 1.5;" width="4" x="425" y="312"/><text fill="#33335B" font-family="sans-serif" font-size="14" lengthAdjust="spacingAndGlyphs" textLength="46" x="376" y="333.9951">xtensa</text><!--MD5=[2bf5899885793984c006f54fe433e3b8]
entity xtensa_smp--><rect fill="#FFFFFF" filter="url(#f1xuw7x8g8b11)" height="46.2969" style="stroke: #33335B; stroke-width: 1.5;" width="123" x="202.5" y="301"/><rect fill="#FFFFFF" height="10" style="stroke: #33335B; stroke-width: 1.5;" width="15" x="305.5" y="306"/><rect fill="#FFFFFF" height="2" style="stroke: #33335B; stroke-width: 1.5;" width="4" x="303.5" y="308"/><rect fill="#FFFFFF" height="2" style="stroke: #33335B; stroke-width: 1.5;" width="4" x="303.5" y="312"/><text fill="#33335B" font-family="sans-serif" font-size="14" lengthAdjust="spacingAndGlyphs" textLength="83" x="217.5" y="333.9951">xtensa_smp</text><!--MD5=[e4fdad6f09f493e63cd1f36b4552aac6]
entity icelake--><rect fill="#FFFFFF" filter="url(#f1xuw7x8g8b11)" height="46.2969" style="stroke: #33335B; stroke-width: 1.5;" width="88" x="338" y="59"/><rect fill="#FFFFFF" height="10" style="stroke: #33335B; stroke-width: 1.5;" width="15" x="406" y="64"/><rect fill="#FFFFFF" height="2" style="stroke: #33335B; stroke-width: 1.5;" width="4" x="404" y="66"/><rect fill="#FFFFFF" height="2" style="stroke: #33335B; stroke-width: 1.5;" width="4" x="404" y="70"/><text fill="#33335B" font-family="sans-serif" font-size="14" lengthAdjust="spacingAndGlyphs" textLength="48" x="353" y="91.9951">icelake</text><!--MD5=[a77ba404f372e50c6ca54c70f07c1e86]
entity cannonlake--><rect fill="#FFFFFF" filter="url(#f1xuw7x8g8b11)" height="46.2969" style="stroke: #33335B; stroke-width: 1.5;" width="120" x="183" y="59"/><rect fill="#FFFFFF" height="10" style="stroke: #33335B; stroke-width: 1.5;" width="15" x="283" y="64"/><rect fill="#FFFFFF" height="2" style="stroke: #33335B; stroke-width: 1.5;" width="4" x="281" y="66"/><rect fill="#FFFFFF" height="2" style="stroke: #33335B; stroke-width: 1.5;" width="4" x="281" y="70"/><text fill="#33335B" font-family="sans-serif" font-size="14" lengthAdjust="spacingAndGlyphs" textLength="80" x="198" y="91.9951">cannonlake</text><!--MD5=[339039aa269ecd27246307fee785ba3d]
entity apollolake--><rect fill="#FFFFFF" filter="url(#f1xuw7x8g8b11)" height="46.2969" style="stroke: #33335B; stroke-width: 1.5;" width="109" x="38.5" y="59"/><rect fill="#FFFFFF" height="10" style="stroke: #33335B; stroke-width: 1.5;" width="15" x="127.5" y="64"/><rect fill="#FFFFFF" height="2" style="stroke: #33335B; stroke-width: 1.5;" width="4" x="125.5" y="66"/><rect fill="#FFFFFF" height="2" style="stroke: #33335B; stroke-width: 1.5;" width="4" x="125.5" y="70"/><text fill="#33335B" font-family="sans-serif" font-size="14" lengthAdjust="spacingAndGlyphs" textLength="69" x="53.5" y="91.9951">apollolake</text><!--MD5=[eb8f7afab1235d6679b317442525ea3c]
entity tigerlake--><rect fill="#FFFFFF" filter="url(#f1xuw7x8g8b11)" height="46.2969" style="stroke: #33335B; stroke-width: 1.5;" width="99" x="461.5" y="59"/><rect fill="#FFFFFF" height="10" style="stroke: #33335B; stroke-width: 1.5;" width="15" x="540.5" y="64"/><rect fill="#FFFFFF" height="2" style="stroke: #33335B; stroke-width: 1.5;" width="4" x="538.5" y="66"/><rect fill="#FFFFFF" height="2" style="stroke: #33335B; stroke-width: 1.5;" width="4" x="538.5" y="70"/><text fill="#33335B" font-family="sans-serif" font-size="14" lengthAdjust="spacingAndGlyphs" textLength="59" x="476.5" y="91.9951">tigerlake</text><!--MD5=[95d821f9d01255520bb84241872ab5a0]
link 1.5 to xtensa_smp--><path d="M179.32,226.1 C196.79,246.1 222.55,275.57 241.06,296.76 " fill="none" id="1.5-&gt;xtensa_smp" style="stroke: #F05772; stroke-width: 1.0; stroke-dasharray: 7.0,7.0;"/><polygon fill="#F05772" points="244.43,300.61,241.5138,291.2028,241.1375,296.8471,235.4932,296.4708,244.43,300.61" style="stroke: #F05772; stroke-width: 1.0;"/><!--MD5=[7f4ddfe3515eca5bee11dd8b1a3cb757]
link 1.8 to xtensa_smp--><path d="M258.3,226.1 C259.45,245.68 261.14,274.35 262.38,295.43 " fill="none" id="1.8-&gt;xtensa_smp" style="stroke: #F05772; stroke-width: 1.0; stroke-dasharray: 7.0,7.0;"/><polygon fill="#F05772" points="262.68,300.61,266.16,291.3965,262.3948,295.6181,258.1731,291.8529,262.68,300.61" style="stroke: #F05772; stroke-width: 1.0;"/><!--MD5=[828bc279fd72de2a3591debc3315d373]
link 2.0 to xtensa_smp--><path d="M337.28,226.1 C322.22,246.02 300.06,275.33 284.05,296.49 " fill="none" id="2.0-&gt;xtensa_smp" style="stroke: #F05772; stroke-width: 1.0; stroke-dasharray: 7.0,7.0;"/><polygon fill="#F05772" points="280.93,300.61,289.5409,295.8296,283.9391,296.6169,283.1519,291.015,280.93,300.61" style="stroke: #F05772; stroke-width: 1.0;"/><!--MD5=[4fae1bbede267e14a46deb01672f1f13]
link 2.5 to xtensa_smp--><path d="M433.13,226.44 C424.91,235.22 414.44,244.48 403,250 C379.17,261.5 368.28,247.49 344,258 C322.96,267.11 302.94,283.39 288.19,297.37 " fill="none" id="2.5-&gt;xtensa_smp" style="stroke: #F05772; stroke-width: 1.0; stroke-dasharray: 7.0,7.0;"/><polygon fill="#F05772" points="284.55,300.87,293.8051,297.5022,288.1492,297.3993,288.2521,291.7434,284.55,300.87" style="stroke: #F05772; stroke-width: 1.0;"/><!--MD5=[d8df1a70dad104bcb78d1d6113c761c3]
link apollolake to 1.5--><path d="M105.45,105.1 C116.61,124.93 133.02,154.08 144.93,175.23 " fill="none" id="apollolake-&gt;1.5" style="stroke: #F05772; stroke-width: 1.0; stroke-dasharray: 7.0,7.0;"/><polygon fill="#F05772" points="147.39,179.61,146.4533,169.8058,144.9339,175.2548,139.4849,173.7355,147.39,179.61" style="stroke: #F05772; stroke-width: 1.0;"/><!--MD5=[d4b7e3b18c673c0a6fe5f1302ce4546d]
link cannonlake to 1.8--><path d="M245.6,105.1 C247.9,124.68 251.28,153.35 253.76,174.43 " fill="none" id="cannonlake-&gt;1.8" style="stroke: #F05772; stroke-width: 1.0; stroke-dasharray: 7.0,7.0;"/><polygon fill="#F05772" points="254.37,179.61,257.2895,170.2038,253.785,174.6443,249.3444,171.1398,254.37,179.61" style="stroke: #F05772; stroke-width: 1.0;"/><!--MD5=[7fe60b91c1da7593fd2fb257f3c5ddc4]
link icelake to 2.0--><path d="M376.8,105.1 C372.17,124.77 365.39,153.59 360.43,174.69 " fill="none" id="icelake-&gt;2.0" style="stroke: #F05772; stroke-width: 1.0; stroke-dasharray: 7.0,7.0;"/><polygon fill="#F05772" points="359.27,179.61,365.2199,171.7615,360.412,174.7422,357.4314,169.9343,359.27,179.61" style="stroke: #F05772; stroke-width: 1.0;"/><!--MD5=[7451302f9f814caedc7d71e0b650e79a]
link tigerlake to 2.5--><path d="M499.86,105.1 C489.9,124.85 475.28,153.84 464.63,174.96 " fill="none" id="tigerlake-&gt;2.5" style="stroke: #F05772; stroke-width: 1.0; stroke-dasharray: 7.0,7.0;"/><polygon fill="#F05772" points="462.29,179.61,469.9086,173.3685,464.5375,175.1436,462.7624,169.7725,462.29,179.61" style="stroke: #F05772; stroke-width: 1.0;"/><!--MD5=[01aae4deaa7218483da130ef260d15a0]
@startuml
hidefootbox
skinparam componentStyle uml2

skinparam defaultFontColor	#33335b

skinparam rectangle {
	color		#d6d6de
	backgroundColor	#ffffff
}

skinparam component {
	backgroundColor	#ffffff
	borderColor	#33335b
	arrowColor	#f05772
}

skinparam interface {
	backgroundColor	#ffffff
	borderColor	#f05772
}

skinparam class {
	backgroundColor	#ffffff
	borderColor	#33335b
	arrowColor	#f05772
}
skinparam stereotypeCBackgroundColor	#6fccdd

skinparam sequence {
	arrowColor		#4a4a86
	lifeLineBorderColor	#f05772
	groupBorderColor	#a1a1ca
	boxBorderColor		#a1a1ca
	dividerBorderColor	#d6d6de
	dividerBorderThickness	1
}
skinparam participant {
	borderColor		#33335b
	backgroundColor		#ffffff
}
skinparam actor {
	borderColor		#33335b
	backgroundColor		#ffffff
}

skinparam state {
	borderColor		#33335b
	backgroundColor		#ffffff
}

skinparam node {
	backgroundColor		#ffffff
}

skinparam note {
	backgroundColor 	#f6ed80
	borderColor		#d6d6de
}

skinparam activity {
	borderColor		#33335b
	backgroundColor		#ffffff
}

skinparam activityDiamond {
	borderColor		#33335b
	backgroundColor		#ffffff
}

skinparam arrowColor	#f05772
skinparam maxMessageSize 400
skinparam BoxPadding 4
package cavs {
   component 2.5
   component 2.0
   component 1.8
   component 1.5
}

package arch {
   component host
   component xtensa
   component xtensa_smp
}

1.5 ..> xtensa_smp
1.8 ..> xtensa_smp
2.0 ..> xtensa_smp
2.5 ..> xtensa_smp

package platform {
   component icelake
   component cannonlake
   component apollolake
   component tigerlake
}

apollolake ..> 1.5
cannonlake ..> 1.8
icelake ..> 2.0
tigerlake ..> 2.5

@enduml

PlantUML version 1.2019.12(Sun Nov 03 10:24:54 UTC 2019)
(GPL source distribution)
Java Runtime: OpenJDK Runtime Environment
JVM: OpenJDK 64-Bit Server VM
Java Version: 11.0.17+8
Operating System: Linux
Default Encoding: UTF-8
Language: en
Country: null
--></g></svg>