<?xml version="1.0" encoding="UTF-8" standalone="no"?><svg xmlns="http://www.w3.org/2000/svg" xmlns:xlink="http://www.w3.org/1999/xlink" contentScriptType="application/ecmascript" contentStyleType="text/css" height="414px" preserveAspectRatio="none" style="width:481px;height:414px;" version="1.1" viewBox="0 0 481 414" width="481px" zoomAndPan="magnify"><defs><filter height="300%" id="fxv95qqntqt0h" width="300%" x="-1" y="-1"><feGaussianBlur result="blurOut" stdDeviation="2.0"/><feColorMatrix in="blurOut" result="blurOut2" type="matrix" values="0 0 0 0 0 0 0 0 0 0 0 0 0 0 0 0 0 0 .4 0"/><feOffset dx="4.0" dy="4.0" in="blurOut2" result="blurOut3"/><feBlend in="SourceGraphic" in2="blurOut3" mode="normal"/></filter></defs><g><rect fill="#FFFFFF" filter="url(#fxv95qqntqt0h)" height="30.3516" style="stroke: #F05772; stroke-width: 1.0;" width="10" x="172.5" y="119.9609"/><rect fill="#FFFFFF" filter="url(#fxv95qqntqt0h)" height="30.3516" style="stroke: #F05772; stroke-width: 1.0;" width="10" x="172.5" y="222.6641"/><rect fill="#FFFFFF" filter="url(#fxv95qqntqt0h)" height="95.7031" style="stroke: #F05772; stroke-width: 1.0;" width="10" x="172.5" y="297.3672"/><line style="stroke: #F05772; stroke-width: 1.0;" x1="27" x2="27" y1="87.6094" y2="172.3125"/><line style="stroke: #F05772; stroke-width: 1.0; stroke-dasharray: 1.0,4.0;" x1="27" x2="27" y1="172.3125" y2="200.3125"/><line style="stroke: #F05772; stroke-width: 1.0;" x1="27" x2="27" y1="200.3125" y2="402.0703"/><line style="stroke: #F05772; stroke-width: 1.0;" x1="177.5" x2="177.5" y1="87.6094" y2="172.3125"/><line style="stroke: #F05772; stroke-width: 1.0; stroke-dasharray: 1.0,4.0;" x1="177.5" x2="177.5" y1="172.3125" y2="200.3125"/><line style="stroke: #F05772; stroke-width: 1.0;" x1="177.5" x2="177.5" y1="200.3125" y2="402.0703"/><line style="stroke: #F05772; stroke-width: 1.0;" x1="416" x2="416" y1="87.6094" y2="172.3125"/><line style="stroke: #F05772; stroke-width: 1.0; stroke-dasharray: 1.0,4.0;" x1="416" x2="416" y1="172.3125" y2="200.3125"/><line style="stroke: #F05772; stroke-width: 1.0;" x1="416" x2="416" y1="200.3125" y2="402.0703"/><text fill="#33335B" font-family="sans-serif" font-size="14" lengthAdjust="spacingAndGlyphs" textLength="33" x="8" y="84.5332">client</text><ellipse cx="27.5" cy="13" fill="#FFFFFF" filter="url(#fxv95qqntqt0h)" rx="8" ry="8" style="stroke: #33335B; stroke-width: 2.0;"/><path d="M27.5,21 L27.5,48 M14.5,29 L40.5,29 M27.5,48 L14.5,63 M27.5,48 L40.5,63 " fill="none" filter="url(#fxv95qqntqt0h)" style="stroke: #33335B; stroke-width: 2.0;"/><rect fill="#FFFFFF" filter="url(#fxv95qqntqt0h)" height="31.6094" style="stroke: #33335B; stroke-width: 1.5;" width="104" x="123.5" y="51"/><text fill="#33335B" font-family="sans-serif" font-size="14" lengthAdjust="spacingAndGlyphs" textLength="90" x="130.5" y="72.5332">edf_scheduler</text><rect fill="#FFFFFF" filter="url(#fxv95qqntqt0h)" height="31.6094" style="stroke: #33335B; stroke-width: 1.5;" width="111" x="359" y="51"/><text fill="#33335B" font-family="sans-serif" font-size="14" lengthAdjust="spacingAndGlyphs" textLength="97" x="366" y="72.5332">interrupt_driver</text><rect fill="#FFFFFF" filter="url(#fxv95qqntqt0h)" height="30.3516" style="stroke: #F05772; stroke-width: 1.0;" width="10" x="172.5" y="119.9609"/><rect fill="#FFFFFF" filter="url(#fxv95qqntqt0h)" height="30.3516" style="stroke: #F05772; stroke-width: 1.0;" width="10" x="172.5" y="222.6641"/><rect fill="#FFFFFF" filter="url(#fxv95qqntqt0h)" height="95.7031" style="stroke: #F05772; stroke-width: 1.0;" width="10" x="172.5" y="297.3672"/><polygon fill="#4A4A86" points="160.5,115.9609,170.5,119.9609,160.5,123.9609,164.5,119.9609" style="stroke: #4A4A86; stroke-width: 1.0;"/><line style="stroke: #4A4A86; stroke-width: 1.0;" x1="3" x2="166.5" y1="119.9609" y2="119.9609"/><text fill="#33335B" font-family="sans-serif" font-size="13" lengthAdjust="spacingAndGlyphs" textLength="88" x="10" y="115.1045">scheduler_init()</text><polygon fill="#4A4A86" points="404.5,146.3125,414.5,150.3125,404.5,154.3125,408.5,150.3125" style="stroke: #4A4A86; stroke-width: 1.0;"/><line style="stroke: #4A4A86; stroke-width: 1.0;" x1="177.5" x2="410.5" y1="150.3125" y2="150.3125"/><text fill="#33335B" font-family="sans-serif" font-size="13" lengthAdjust="spacingAndGlyphs" textLength="210" x="184.5" y="145.4561">interrupt_register(edf_scheduler_run)</text><polygon fill="#4A4A86" points="14,160.3125,4,164.3125,14,168.3125,10,164.3125" style="stroke: #4A4A86; stroke-width: 1.0;"/><line style="stroke: #4A4A86; stroke-width: 1.0; stroke-dasharray: 2.0,2.0;" x1="8" x2="176.5" y1="164.3125" y2="164.3125"/><polygon fill="#4A4A86" points="160.5,218.6641,170.5,222.6641,160.5,226.6641,164.5,222.6641" style="stroke: #4A4A86; stroke-width: 1.0;"/><line style="stroke: #4A4A86; stroke-width: 1.0;" x1="27.5" x2="166.5" y1="222.6641" y2="222.6641"/><text fill="#33335B" font-family="sans-serif" font-size="13" lengthAdjust="spacingAndGlyphs" textLength="126" x="34.5" y="217.8076">schedule_task(&amp;task)</text><polygon fill="#4A4A86" points="404.5,249.0156,414.5,253.0156,404.5,257.0156,408.5,253.0156" style="stroke: #4A4A86; stroke-width: 1.0;"/><line style="stroke: #4A4A86; stroke-width: 1.0;" x1="177.5" x2="410.5" y1="253.0156" y2="253.0156"/><text fill="#33335B" font-family="sans-serif" font-size="13" lengthAdjust="spacingAndGlyphs" textLength="80" x="184.5" y="248.1592">interrupt_set()</text><polygon fill="#4A4A86" points="38.5,263.0156,28.5,267.0156,38.5,271.0156,34.5,267.0156" style="stroke: #4A4A86; stroke-width: 1.0;"/><line style="stroke: #4A4A86; stroke-width: 1.0; stroke-dasharray: 2.0,2.0;" x1="32.5" x2="176.5" y1="267.0156" y2="267.0156"/><polygon fill="#4A4A86" points="193.5,293.3672,183.5,297.3672,193.5,301.3672,189.5,297.3672" style="stroke: #4A4A86; stroke-width: 1.0;"/><line style="stroke: #4A4A86; stroke-width: 1.0;" x1="187.5" x2="415.5" y1="297.3672" y2="297.3672"/><text fill="#33335B" font-family="sans-serif" font-size="13" lengthAdjust="spacingAndGlyphs" textLength="113" x="199.5" y="292.5107">edf_scheduler_run()</text><line style="stroke: #4A4A86; stroke-width: 1.0;" x1="182.5" x2="224.5" y1="327.7188" y2="327.7188"/><line style="stroke: #4A4A86; stroke-width: 1.0;" x1="224.5" x2="224.5" y1="327.7188" y2="340.7188"/><line style="stroke: #4A4A86; stroke-width: 1.0;" x1="183.5" x2="224.5" y1="340.7188" y2="340.7188"/><polygon fill="#4A4A86" points="193.5,336.7188,183.5,340.7188,193.5,344.7188,189.5,340.7188" style="stroke: #4A4A86; stroke-width: 1.0;"/><text fill="#33335B" font-family="sans-serif" font-size="13" lengthAdjust="spacingAndGlyphs" textLength="141" x="189.5" y="322.8623">schedule_task_running()</text><line style="stroke: #4A4A86; stroke-width: 1.0;" x1="182.5" x2="224.5" y1="371.0703" y2="371.0703"/><line style="stroke: #4A4A86; stroke-width: 1.0;" x1="224.5" x2="224.5" y1="371.0703" y2="384.0703"/><line style="stroke: #4A4A86; stroke-width: 1.0;" x1="183.5" x2="224.5" y1="384.0703" y2="384.0703"/><polygon fill="#4A4A86" points="193.5,380.0703,183.5,384.0703,193.5,388.0703,189.5,384.0703" style="stroke: #4A4A86; stroke-width: 1.0;"/><text fill="#33335B" font-family="sans-serif" font-size="13" lengthAdjust="spacingAndGlyphs" textLength="152" x="189.5" y="366.2139">schedule_task_complete()</text><!--MD5=[4ea50f4675955004eccf510b52c2f5fa]
@startuml
hidefootbox
skinparam componentStyle uml2

skinparam defaultFontColor	#33335b

skinparam rectangle {
	color		#d6d6de
	backgroundColor	#ffffff
}

skinparam component {
	backgroundColor	#ffffff
	borderColor	#33335b
	arrowColor	#f05772
}

skinparam interface {
	backgroundColor	#ffffff
	borderColor	#f05772
}

skinparam class {
	backgroundColor	#ffffff
	borderColor	#33335b
	arrowColor	#f05772
}
skinparam stereotypeCBackgroundColor	#6fccdd

skinparam sequence {
	arrowColor		#4a4a86
	lifeLineBorderColor	#f05772
	groupBorderColor	#a1a1ca
	boxBorderColor		#a1a1ca
	dividerBorderColor	#d6d6de
	dividerBorderThickness	1
}
skinparam participant {
	borderColor		#33335b
	backgroundColor		#ffffff
}
skinparam actor {
	borderColor		#33335b
	backgroundColor		#ffffff
}

skinparam state {
	borderColor		#33335b
	backgroundColor		#ffffff
}

skinparam node {
	backgroundColor		#ffffff
}

skinparam note {
	backgroundColor 	#f6ed80
	borderColor		#d6d6de
}
actor client as c

participant edf_scheduler as edf
participant interrupt_driver as int

-> edf : scheduler_init()
    activate edf
    edf -> int : interrupt_register(edf_scheduler_run)
    deactivate edf
<- - edf
...
c -> edf : schedule_task(&task)
    activate edf
    edf -> int : interrupt_set()
    deactivate edf
c <- - edf

edf <- int : edf_scheduler_run()
    activate edf
    edf -> edf : schedule_task_running()
    edf -> edf : schedule_task_complete()

@enduml

PlantUML version 1.2019.12(Sun Nov 03 11:24:54 CET 2019)
(GPL source distribution)
Java Runtime: OpenJDK Runtime Environment
JVM: OpenJDK 64-Bit Server VM
Java Version: 1.8.0_302-b08
Operating System: Windows 10
Default Encoding: Cp1252
Language: en
Country: US
--></g></svg>