<?xml version="1.0" encoding="UTF-8" standalone="no"?><svg xmlns="http://www.w3.org/2000/svg" xmlns:xlink="http://www.w3.org/1999/xlink" contentScriptType="application/ecmascript" contentStyleType="text/css" height="401px" preserveAspectRatio="none" style="width:1006px;height:401px;" version="1.1" viewBox="0 0 1006 401" width="1006px" zoomAndPan="magnify"><defs><filter height="300%" id="f85g8y08alehm" width="300%" x="-1" y="-1"><feGaussianBlur result="blurOut" stdDeviation="2.0"/><feColorMatrix in="blurOut" result="blurOut2" type="matrix" values="0 0 0 0 0 0 0 0 0 0 0 0 0 0 0 0 0 0 .4 0"/><feOffset dx="4.0" dy="4.0" in="blurOut2" result="blurOut3"/><feBlend in="SourceGraphic" in2="blurOut3" mode="normal"/></filter></defs><g><!--cluster ppl_1--><rect fill="#FFFFFF" filter="url(#f85g8y08alehm)" height="155" style="stroke: #000000; stroke-width: 1.5;" width="533" x="129" y="235"/><text fill="#33335B" font-family="sans-serif" font-size="14" font-style="italic" lengthAdjust="spacingAndGlyphs" textLength="97" x="347" y="249.9951">«FW pipeline»</text><text fill="#33335B" font-family="sans-serif" font-size="14" font-weight="bold" lengthAdjust="spacingAndGlyphs" textLength="194" x="298.5" y="266.292">Speech Capture Pipeline</text><!--cluster ppl_2--><rect fill="#FFFFFF" filter="url(#f85g8y08alehm)" height="138" style="stroke: #000000; stroke-width: 1.5;" width="540" x="130" y="24"/><text fill="#33335B" font-family="sans-serif" font-size="14" font-style="italic" lengthAdjust="spacingAndGlyphs" textLength="97" x="351.5" y="38.9951">«FW pipeline»</text><text fill="#33335B" font-family="sans-serif" font-size="14" font-weight="bold" lengthAdjust="spacingAndGlyphs" textLength="226" x="287" y="55.292">Keyphrase Detector Pipeline</text><!--cluster hsys--><rect fill="#FFFFFF" filter="url(#f85g8y08alehm)" height="122" style="stroke: #000000; stroke-width: 1.5;" width="178" x="817" y="267.5"/><text fill="#33335B" font-family="sans-serif" font-size="14" font-weight="bold" lengthAdjust="spacingAndGlyphs" textLength="99" x="856.5" y="282.4951">Host System</text><!--entity dmic--><rect fill="#DDDDDD" filter="url(#f85g8y08alehm)" height="36.2969" style="stroke: #000000; stroke-width: 1.5;" width="72" x="38" y="329.5"/><text fill="#33335B" font-family="sans-serif" font-size="14" lengthAdjust="spacingAndGlyphs" textLength="52" x="48" y="352.4951">MIC HW</text><!--entity dai_1--><rect fill="#6FCCDD" filter="url(#f85g8y08alehm)" height="52.5938" style="stroke: #000000; stroke-width: 1.5;" width="72" x="145" y="321"/><text fill="#33335B" font-family="sans-serif" font-size="14" font-style="italic" lengthAdjust="spacingAndGlyphs" textLength="38" x="162" y="343.9951">«dai»</text><text fill="#33335B" font-family="sans-serif" font-size="14" lengthAdjust="spacingAndGlyphs" textLength="52" x="155" y="360.292">MIC DAI</text><!--entity kpb--><rect fill="#FFFFFF" filter="url(#f85g8y08alehm)" height="36.2969" style="stroke: #000000; stroke-width: 1.5;" width="202" x="357" y="329.5"/><text fill="#33335B" font-family="sans-serif" font-size="14" lengthAdjust="spacingAndGlyphs" textLength="182" x="367" y="352.4951">Keyphrase Buffer Manager</text><!--entity host--><rect fill="#FFFFFF" filter="url(#f85g8y08alehm)" height="36.2969" style="stroke: #000000; stroke-width: 1.5;" width="52" x="594" y="329.5"/><text fill="#33335B" font-family="sans-serif" font-size="14" lengthAdjust="spacingAndGlyphs" textLength="32" x="604" y="352.4951">Host</text><!--entity sel--><rect fill="#FFFFFF" filter="url(#f85g8y08alehm)" height="36.2969" style="stroke: #000000; stroke-width: 1.5;" width="137" x="146.5" y="110"/><text fill="#33335B" font-family="sans-serif" font-size="14" lengthAdjust="spacingAndGlyphs" textLength="117" x="156.5" y="132.9951">Channel selector</text><!--entity wov--><rect fill="#FFFFFF" filter="url(#f85g8y08alehm)" height="36.2969" style="stroke: #000000; stroke-width: 1.5;" width="231" x="423.5" y="110"/><text fill="#33335B" font-family="sans-serif" font-size="14" lengthAdjust="spacingAndGlyphs" textLength="211" x="433.5" y="132.9951">Keyphrase detection algorithm</text><!--entity hmem--><rect fill="#DDDDDD" filter="url(#f85g8y08alehm)" height="36.2969" style="stroke: #000000; stroke-width: 1.5;" width="111" x="860.5" y="329.5"/><text fill="#33335B" font-family="sans-serif" font-size="14" lengthAdjust="spacingAndGlyphs" textLength="91" x="870.5" y="352.4951">Host Memory</text><!--link dai_1 to kpb--><path d="M217.213,347.5 C251.313,347.5 304.103,347.5 351.574,347.5 " fill="none" id="dai_1-kpb" style="stroke: #4A4A86; stroke-width: 1.0;"/><polygon fill="#4A4A86" points="356.741,347.5,347.741,343.5,351.741,347.5,347.741,351.5,356.741,347.5" style="stroke: #4A4A86; stroke-width: 1.0;"/><text fill="#33335B" font-family="sans-serif" font-size="13" lengthAdjust="spacingAndGlyphs" textLength="103" x="235.5" y="340.5669">2ch/16kHz/16bit</text><!--link sel to wov--><path d="M283.712,128 C322.704,128 372.634,128 417.979,128 " fill="none" id="sel-wov" style="stroke: #4A4A86; stroke-width: 1.0;"/><polygon fill="#4A4A86" points="423.201,128,414.201,124,418.201,128,414.201,132,423.201,128" style="stroke: #4A4A86; stroke-width: 1.0;"/><text fill="#33335B" font-family="sans-serif" font-size="13" lengthAdjust="spacingAndGlyphs" textLength="103" x="302" y="121.0669">1ch/16kHz/16bit</text><!--link dmic to dai_1--><path d="M110.363,347.5 C120.154,347.5 129.944,347.5 139.734,347.5 " fill="none" id="dmic-dai_1" style="stroke: #4A4A86; stroke-width: 1.0;"/><polygon fill="#4A4A86" points="144.854,347.5,135.854,343.5,139.854,347.5,135.854,351.5,144.854,347.5" style="stroke: #4A4A86; stroke-width: 1.0;"/><!--link kpb to host--><path d="M559.25,347.5 C569.085,347.5 578.919,347.5 588.754,347.5 " fill="none" id="kpb-host" style="stroke: #4A4A86; stroke-width: 1.0;"/><polygon fill="#4A4A86" points="593.896,347.5,584.896,343.5,588.896,347.5,584.896,351.5,593.896,347.5" style="stroke: #4A4A86; stroke-width: 1.0;"/><!--link kpb to sel--><path d="M438.685,329.211 C394.369,289.546 285.55,192.147 237.936,149.529 " fill="none" id="kpb-sel" style="stroke: #4A4A86; stroke-width: 1.0;"/><polygon fill="#4A4A86" points="234.068,146.067,238.1051,155.0504,237.7931,149.4022,243.4414,149.0902,234.068,146.067" style="stroke: #4A4A86; stroke-width: 1.0;"/><text fill="#33335B" font-family="sans-serif" font-size="13" lengthAdjust="spacingAndGlyphs" textLength="103" x="288" y="191.0669">2ch/16kHz/16bit</text><!--link host to hmem--><path d="M637.743,329.355 C668.978,298.867 737.295,238.491 809,216 C829.356,209.615 839.092,204.407 857,216 C893.933,239.909 907.965,293.008 913.132,323.922 " fill="none" id="host-hmem" style="stroke: #4A4A86; stroke-width: 1.0;"/><polygon fill="#4A4A86" points="913.942,329.054,916.4894,319.5403,913.1622,324.1152,908.5873,320.788,913.942,329.054" style="stroke: #4A4A86; stroke-width: 1.0;"/><text fill="#33335B" font-family="sans-serif" font-size="13" lengthAdjust="spacingAndGlyphs" textLength="103" x="756.5" y="191.0669">2ch/16kHz/16bit</text><!--link wov to kpb--><path d="M468.851,146.08 C453.155,153.303 438.392,163.534 429,178 C399.419,223.56 426.949,290.087 445.054,324.324 " fill="none" id="wov-kpb" style="stroke: #4A4A86; stroke-width: 1.0; stroke-dasharray: 7.0,7.0;"/><polygon fill="#4A4A86" points="447.65,329.135,446.8976,319.3149,445.2762,324.7344,439.8567,323.113,447.65,329.135" style="stroke: #4A4A86; stroke-width: 1.0;"/><text fill="#33335B" font-family="sans-serif" font-size="13" lengthAdjust="spacingAndGlyphs" textLength="65" x="430" y="191.0669">FW events</text><!--link wov to hsys--><path d="M532.101,146.241 C527.408,161.128 523.99,182.204 536,195 C545.6,205.229 649.039,197.632 662,203 C705.89,221.1765 746.0623,256.2232 775.5441,287.1302 C790.2851,302.5837 802.3534,317.0023 810.8776,327.7598 C813.0086,330.4492 814.9182,332.9097 816.5926,335.1004 C816.6972,335.2373 816.8009,335.3732 816.9037,335.508 " fill="none" id="wov-hsys" style="stroke: #4A4A86; stroke-width: 1.0; stroke-dasharray: 7.0,7.0;"/><polygon fill="#4A4A86" points="816.9037,335.508,814.6264,325.9261,813.8716,331.5323,808.2653,330.7776,816.9037,335.508" style="stroke: #4A4A86; stroke-width: 1.0;"/><text fill="#33335B" font-family="sans-serif" font-size="13" lengthAdjust="spacingAndGlyphs" textLength="99" x="537" y="191.0669">FW notifications</text><!--
@startuml
hidefootbox
skinparam componentStyle uml2

skinparam defaultFontColor	#33335b

skinparam rectangle {
	color		#d6d6de
	backgroundColor	#ffffff
}

skinparam component {
	backgroundColor	#ffffff
	borderColor	#33335b
	arrowColor	#f05772
}

skinparam interface {
	backgroundColor	#ffffff
	borderColor	#f05772
}

skinparam class {
	backgroundColor	#ffffff
	borderColor	#33335b
	arrowColor	#f05772
}
skinparam stereotypeCBackgroundColor	#6fccdd

skinparam sequence {
	arrowColor		#4a4a86
	lifeLineBorderColor	#f05772
	groupBorderColor	#a1a1ca
	boxBorderColor		#a1a1ca
	dividerBorderColor	#d6d6de
	dividerBorderThickness	1
}
skinparam participant {
	borderColor		#33335b
	backgroundColor		#ffffff
}
skinparam actor {
	borderColor		#33335b
	backgroundColor		#ffffff
}

skinparam state {
	borderColor		#33335b
	backgroundColor		#ffffff
}

skinparam node {
	backgroundColor		#ffffff
}

skinparam note {
	backgroundColor 	#f6ed80
	borderColor		#d6d6de
}


skinparam rectangle {
   backgroundColor<<dai>> #6fccdd
   backgroundColor<<dma>> #f6ed80
   backgroundColor<<stream>> #d6d6de
   borderColor<<stream>> #d6d6de
   borderColor<<ppl>> #a1a1ca

   backgroundColor<<event>> #f05772
   stereotypeFontColor<<event>> #ffffff
   fontColor<<event>> #ffffff

   backgroundColor<<cpu>> #f0f0f0
}


together {
rectangle "MIC HW" as dmic #DDDDDD

rectangle "Speech Capture Pipeline" as ppl_1 <<FW pipeline >>{
 rectangle "MIC DAI" as dai_1 <<dai>>
 rectangle "Keyphrase Buffer Manager" as kpb
 dai_1 -> kpb : 2ch/16kHz/16bit
 rectangle "Host" as host
 }

}

rectangle "Keyphrase Detector Pipeline" as ppl_2 <<FW pipeline >>{
 rectangle "Channel selector" as sel
 rectangle "Keyphrase detection algorithm" as wov
 sel -> wov : 1ch/16kHz/16bit
}

rectangle "Host System" as hsys {
 rectangle "Host Memory" as hmem #DDDDDD
}

dmic -> dai_1
kpb -> host
kpb -> sel : 2ch/16kHz/16bit
host -> hmem : 2ch/16kHz/16bit
wov ..> kpb : FW events
wov ..> hsys : FW notifications
@enduml

PlantUML version 1.2019.06(Fri May 24 17:10:25 UTC 2019)
(GPL source distribution)
Java Runtime: OpenJDK Runtime Environment
JVM: OpenJDK 64-Bit Server VM
Java Version: 11.0.2+9
Operating System: Linux
OS Version: 4.15.0-1028-gcp
Default Encoding: UTF-8
Language: en
Country: US
--></g></svg>