<?xml version="1.0" encoding="UTF-8" standalone="no"?><svg xmlns="http://www.w3.org/2000/svg" xmlns:xlink="http://www.w3.org/1999/xlink" contentScriptType="application/ecmascript" contentStyleType="text/css" height="804px" preserveAspectRatio="none" style="width:1104px;height:804px;" version="1.1" viewBox="0 0 1104 804" width="1104px" zoomAndPan="magnify"><defs><filter height="300%" id="f1psca902cbsth" width="300%" x="-1" y="-1"><feGaussianBlur result="blurOut" stdDeviation="2.0"/><feColorMatrix in="blurOut" result="blurOut2" type="matrix" values="0 0 0 0 0 0 0 0 0 0 0 0 0 0 0 0 0 0 .4 0"/><feOffset dx="4.0" dy="4.0" in="blurOut2" result="blurOut3"/><feBlend in="SourceGraphic" in2="blurOut3" mode="normal"/></filter></defs><g><!--MD5=[1b9195384ad2c337b6f09a94b611cc0b]
cluster SOF--><polygon fill="#FFFFFF" filter="url(#f1psca902cbsth)" points="22,24,57,24,64,47.6094,1082,47.6094,1082,792,22,792,22,24" style="stroke: #000000; stroke-width: 1.5;"/><line style="stroke: #000000; stroke-width: 1.5;" x1="22" x2="64" y1="47.6094" y2="47.6094"/><text fill="#33335B" font-family="sans-serif" font-size="14" font-weight="bold" lengthAdjust="spacingAndGlyphs" textLength="29" x="26" y="40.5332">SOF</text><!--MD5=[b02aba72c0933d018b660826330fcf9c]
cluster APP_CUSTOMIZATION--><polygon fill="#FFFFFF" filter="url(#f1psca902cbsth)" points="288,76,410,76,417,99.6094,1049,99.6094,1049,448,288,448,288,76" style="stroke: #000000; stroke-width: 1.5;"/><line style="stroke: #000000; stroke-width: 1.5;" x1="288" x2="417" y1="99.6094" y2="99.6094"/><text fill="#33335B" font-family="sans-serif" font-size="14" font-weight="bold" lengthAdjust="spacingAndGlyphs" textLength="116" x="292" y="92.5332">Application layer</text><!--MD5=[8dd59d9059f43f034e9da7383b2ff2b1]
cluster LOADABLE_COMPONENTS--><polygon fill="#FFFFFF" filter="url(#f1psca902cbsth)" points="328,292,554,292,561,315.6094,978,315.6094,978,408,328,408,328,292" style="stroke: #000000; stroke-width: 1.5;"/><line style="stroke: #000000; stroke-width: 1.5;" x1="328" x2="561" y1="315.6094" y2="315.6094"/><text fill="#33335B" font-family="sans-serif" font-size="14" font-weight="bold" lengthAdjust="spacingAndGlyphs" textLength="220" x="332" y="308.5332">Example Loadable Components</text><!--MD5=[e8f8f252cc58b567d9fe76f26176f4de]
cluster BUILTIN_COMPONENTS--><polygon fill="#FFFFFF" filter="url(#f1psca902cbsth)" points="328,136,477,136,484,159.6094,1001,159.6094,1001,252,328,252,328,136" style="stroke: #000000; stroke-width: 1.5;"/><line style="stroke: #000000; stroke-width: 1.5;" x1="328" x2="484" y1="159.6094" y2="159.6094"/><text fill="#33335B" font-family="sans-serif" font-size="14" font-weight="bold" lengthAdjust="spacingAndGlyphs" textLength="143" x="332" y="152.5332">Built-in Components</text><!--MD5=[484229c70bef6a5a40380a30effb1339]
cluster SYS_SERVICES--><polygon fill="#FFFFFF" filter="url(#f1psca902cbsth)" points="54,488,176,488,183,511.6094,1050,511.6094,1050,760,54,760,54,488" style="stroke: #000000; stroke-width: 1.5;"/><line style="stroke: #000000; stroke-width: 1.5;" x1="54" x2="183" y1="511.6094" y2="511.6094"/><text fill="#33335B" font-family="sans-serif" font-size="14" font-weight="bold" lengthAdjust="spacingAndGlyphs" textLength="116" x="58" y="504.5332">System Services</text><!--MD5=[108947d34363f80ddfb22322db30bdf0]
cluster KERNEL_EXTENSION--><polygon fill="#FFFFFF" filter="url(#f1psca902cbsth)" points="94,604,435,604,442,627.6094,801,627.6094,801,720,94,720,94,604" style="stroke: #000000; stroke-width: 1.5;"/><line style="stroke: #000000; stroke-width: 1.5;" x1="94" x2="442" y1="627.6094" y2="627.6094"/><text fill="#33335B" font-family="sans-serif" font-size="14" font-weight="bold" lengthAdjust="spacingAndGlyphs" textLength="335" x="98" y="620.5332">Media Processing Pipelines Services extension</text><!--MD5=[db5f58e19a5a8a766cfd90fc428bd153]
cluster ZEPHYR--><polygon fill="#FFFFFF" filter="url(#f1psca902cbsth)" points="841,604,895,604,902,627.6094,1002,627.6094,1002,720,841,720,841,604" style="stroke: #000000; stroke-width: 1.5;"/><line style="stroke: #000000; stroke-width: 1.5;" x1="841" x2="902" y1="627.6094" y2="627.6094"/><text fill="#33335B" font-family="sans-serif" font-size="14" font-weight="bold" lengthAdjust="spacingAndGlyphs" textLength="48" x="845" y="620.5332">Zephyr</text><!--MD5=[eed1985b5621964b193996eeb3c499e4]
entity PROCESSING_3RD_PARTY--><rect fill="#FFFFFF" filter="url(#f1psca902cbsth)" height="47.6094" style="stroke: #33335B; stroke-width: 1.5;" width="205" x="371.5" y="336"/><rect fill="#FFFFFF" height="10" style="stroke: #33335B; stroke-width: 1.5;" width="15" x="556.5" y="341"/><rect fill="#FFFFFF" height="2" style="stroke: #33335B; stroke-width: 1.5;" width="4" x="554.5" y="343"/><rect fill="#FFFFFF" height="2" style="stroke: #33335B; stroke-width: 1.5;" width="4" x="554.5" y="347"/><text fill="#33335B" font-family="sans-serif" font-size="14" lengthAdjust="spacingAndGlyphs" textLength="165" x="386.5" y="370.5332">3rd Party Post-Processing</text><!--MD5=[de1eef77fb44cb0c2b8d482f48ed3665]
entity WOV_MODULE--><rect fill="#FFFFFF" filter="url(#f1psca902cbsth)" height="47.6094" style="stroke: #33335B; stroke-width: 1.5;" width="70" x="612" y="336"/><rect fill="#FFFFFF" height="10" style="stroke: #33335B; stroke-width: 1.5;" width="15" x="662" y="341"/><rect fill="#FFFFFF" height="2" style="stroke: #33335B; stroke-width: 1.5;" width="4" x="660" y="343"/><rect fill="#FFFFFF" height="2" style="stroke: #33335B; stroke-width: 1.5;" width="4" x="660" y="347"/><text fill="#33335B" font-family="sans-serif" font-size="14" lengthAdjust="spacingAndGlyphs" textLength="30" x="627" y="370.5332">WoV</text><!--MD5=[0e425364f4832be5f144410b2d33b074]
entity ACA_MODULE--><rect fill="#FFFFFF" filter="url(#f1psca902cbsth)" height="47.6094" style="stroke: #33335B; stroke-width: 1.5;" width="68" x="717" y="336"/><rect fill="#FFFFFF" height="10" style="stroke: #33335B; stroke-width: 1.5;" width="15" x="765" y="341"/><rect fill="#FFFFFF" height="2" style="stroke: #33335B; stroke-width: 1.5;" width="4" x="763" y="343"/><rect fill="#FFFFFF" height="2" style="stroke: #33335B; stroke-width: 1.5;" width="4" x="763" y="347"/><text fill="#33335B" font-family="sans-serif" font-size="14" lengthAdjust="spacingAndGlyphs" textLength="28" x="732" y="370.5332">ACA</text><!--MD5=[57c6205950f95b36ea6dd841ca12a294]
entity OTHER_MODULES--><rect fill="#FFFFFF" filter="url(#f1psca902cbsth)" height="47.6094" style="stroke: #33335B; stroke-width: 1.5;" width="133" x="820.5" y="336"/><rect fill="#FFFFFF" height="10" style="stroke: #33335B; stroke-width: 1.5;" width="15" x="933.5" y="341"/><rect fill="#FFFFFF" height="2" style="stroke: #33335B; stroke-width: 1.5;" width="4" x="931.5" y="343"/><rect fill="#FFFFFF" height="2" style="stroke: #33335B; stroke-width: 1.5;" width="4" x="931.5" y="347"/><text fill="#33335B" font-family="sans-serif" font-size="14" lengthAdjust="spacingAndGlyphs" textLength="93" x="835.5" y="370.5332">Other modules</text><!--MD5=[81b2abae97fe9166193b5270427f45c0]
entity COPIER--><rect fill="#FFFFFF" filter="url(#f1psca902cbsth)" height="47.6094" style="stroke: #33335B; stroke-width: 1.5;" width="82" x="371" y="180"/><rect fill="#FFFFFF" height="10" style="stroke: #33335B; stroke-width: 1.5;" width="15" x="433" y="185"/><rect fill="#FFFFFF" height="2" style="stroke: #33335B; stroke-width: 1.5;" width="4" x="431" y="187"/><rect fill="#FFFFFF" height="2" style="stroke: #33335B; stroke-width: 1.5;" width="4" x="431" y="191"/><text fill="#33335B" font-family="sans-serif" font-size="14" lengthAdjust="spacingAndGlyphs" textLength="42" x="386" y="214.5332">Copier</text><!--MD5=[183d75e42a7a852d02a7f9ce2cc3343f]
entity SRC--><rect fill="#FFFFFF" filter="url(#f1psca902cbsth)" height="47.6094" style="stroke: #33335B; stroke-width: 1.5;" width="69" x="488.5" y="180"/><rect fill="#FFFFFF" height="10" style="stroke: #33335B; stroke-width: 1.5;" width="15" x="537.5" y="185"/><rect fill="#FFFFFF" height="2" style="stroke: #33335B; stroke-width: 1.5;" width="4" x="535.5" y="187"/><rect fill="#FFFFFF" height="2" style="stroke: #33335B; stroke-width: 1.5;" width="4" x="535.5" y="191"/><text fill="#33335B" font-family="sans-serif" font-size="14" lengthAdjust="spacingAndGlyphs" textLength="29" x="503.5" y="214.5332">SRC</text><!--MD5=[4b04cc8d72cb1110fd273e53f0958e3e]
entity MIXERS--><rect fill="#FFFFFF" filter="url(#f1psca902cbsth)" height="47.6094" style="stroke: #33335B; stroke-width: 1.5;" width="80" x="593" y="180"/><rect fill="#FFFFFF" height="10" style="stroke: #33335B; stroke-width: 1.5;" width="15" x="653" y="185"/><rect fill="#FFFFFF" height="2" style="stroke: #33335B; stroke-width: 1.5;" width="4" x="651" y="187"/><rect fill="#FFFFFF" height="2" style="stroke: #33335B; stroke-width: 1.5;" width="4" x="651" y="191"/><text fill="#33335B" font-family="sans-serif" font-size="14" lengthAdjust="spacingAndGlyphs" textLength="40" x="608" y="214.5332">Mixers</text><!--MD5=[236bfa44e2ecd518b2ededdb05bb1763]
entity HISTORY_BUFFER--><rect fill="#FFFFFF" filter="url(#f1psca902cbsth)" height="47.6094" style="stroke: #33335B; stroke-width: 1.5;" width="156" x="708" y="180"/><rect fill="#FFFFFF" height="10" style="stroke: #33335B; stroke-width: 1.5;" width="15" x="844" y="185"/><rect fill="#FFFFFF" height="2" style="stroke: #33335B; stroke-width: 1.5;" width="4" x="842" y="187"/><rect fill="#FFFFFF" height="2" style="stroke: #33335B; stroke-width: 1.5;" width="4" x="842" y="191"/><text fill="#33335B" font-family="sans-serif" font-size="14" lengthAdjust="spacingAndGlyphs" textLength="116" x="723" y="214.5332">History Buffer/KPB</text><!--MD5=[c999f8f65364e1ebb658d6b7fe226224]
entity PROBE--><rect fill="#FFFFFF" filter="url(#f1psca902cbsth)" height="47.6094" style="stroke: #33335B; stroke-width: 1.5;" width="78" x="899" y="180"/><rect fill="#FFFFFF" height="10" style="stroke: #33335B; stroke-width: 1.5;" width="15" x="957" y="185"/><rect fill="#FFFFFF" height="2" style="stroke: #33335B; stroke-width: 1.5;" width="4" x="955" y="187"/><rect fill="#FFFFFF" height="2" style="stroke: #33335B; stroke-width: 1.5;" width="4" x="955" y="191"/><text fill="#33335B" font-family="sans-serif" font-size="14" lengthAdjust="spacingAndGlyphs" textLength="38" x="914" y="214.5332">Probe</text><!--MD5=[84880ae5c3bf70711146fb4996ef4306]
class SS--><rect fill="#FFFFFF" filter="url(#f1psca902cbsth)" height="48" id="SS" style="stroke: #33335B; stroke-width: 1.5;" width="123" x="689.5" y="532"/><ellipse cx="704.5" cy="548" fill="#B4A7E5" rx="11" ry="11" style="stroke: #33335B; stroke-width: 1.0;"/><path d="M705.4531,544.6406 L705.4531,551.2969 L707.1719,551.2969 Q707.7813,551.2969 708.0469,551.5313 Q708.3125,551.7656 708.3125,552.1563 Q708.3125,552.5313 708.0469,552.7656 Q707.7813,553 707.1719,553 L702.0313,553 Q701.4219,553 701.1563,552.7656 Q700.8906,552.5313 700.8906,552.1406 Q700.8906,551.7656 701.1563,551.5313 Q701.4219,551.2969 702.0313,551.2969 L703.75,551.2969 L703.75,544.6406 L702.0313,544.6406 Q701.4219,544.6406 701.1563,544.4063 Q700.8906,544.1719 700.8906,543.7813 Q700.8906,543.4063 701.1563,543.1719 Q701.4219,542.9375 702.0313,542.9375 L707.1719,542.9375 Q707.7813,542.9375 708.0469,543.1719 Q708.3125,543.4063 708.3125,543.7813 Q708.3125,544.1719 708.0469,544.4063 Q707.7813,544.6406 707.1719,544.6406 L705.4531,544.6406 Z "/><text fill="#33335B" font-family="sans-serif" font-size="12" font-style="italic" lengthAdjust="spacingAndGlyphs" textLength="91" x="718.5" y="552.9102">System Services</text><line style="stroke: #33335B; stroke-width: 1.5;" x1="690.5" x2="811.5" y1="564" y2="564"/><line style="stroke: #33335B; stroke-width: 1.5;" x1="690.5" x2="811.5" y1="572" y2="572"/><!--MD5=[91b1661add713a87aaced2b2832bde16]
entity COMMUNICATION--><rect fill="#FFFFFF" filter="url(#f1psca902cbsth)" height="47.6094" style="stroke: #33335B; stroke-width: 1.5;" width="137" x="137.5" y="648"/><rect fill="#FFFFFF" height="10" style="stroke: #33335B; stroke-width: 1.5;" width="15" x="254.5" y="653"/><rect fill="#FFFFFF" height="2" style="stroke: #33335B; stroke-width: 1.5;" width="4" x="252.5" y="655"/><rect fill="#FFFFFF" height="2" style="stroke: #33335B; stroke-width: 1.5;" width="4" x="252.5" y="659"/><text fill="#33335B" font-family="sans-serif" font-size="14" lengthAdjust="spacingAndGlyphs" textLength="97" x="152.5" y="682.5332">Communication</text><!--MD5=[39473a4710e48934cd290deeaad48e0d]
entity PIPELINE_COMPONENT_INFRASTRUCTURE--><rect fill="#FFFFFF" filter="url(#f1psca902cbsth)" height="47.6094" style="stroke: #33335B; stroke-width: 1.5;" width="290" x="310" y="648"/><rect fill="#FFFFFF" height="10" style="stroke: #33335B; stroke-width: 1.5;" width="15" x="580" y="653"/><rect fill="#FFFFFF" height="2" style="stroke: #33335B; stroke-width: 1.5;" width="4" x="578" y="655"/><rect fill="#FFFFFF" height="2" style="stroke: #33335B; stroke-width: 1.5;" width="4" x="578" y="659"/><text fill="#33335B" font-family="sans-serif" font-size="14" lengthAdjust="spacingAndGlyphs" textLength="250" x="325" y="682.5332">Pipelines and Component Infrastructure</text><!--MD5=[baac23e0658fce5152481e098cf47f4a]
entity AVS_SCHEDULERS--><rect fill="#FFFFFF" filter="url(#f1psca902cbsth)" height="47.6094" style="stroke: #33335B; stroke-width: 1.5;" width="141" x="635.5" y="648"/><rect fill="#FFFFFF" height="10" style="stroke: #33335B; stroke-width: 1.5;" width="15" x="756.5" y="653"/><rect fill="#FFFFFF" height="2" style="stroke: #33335B; stroke-width: 1.5;" width="4" x="754.5" y="655"/><rect fill="#FFFFFF" height="2" style="stroke: #33335B; stroke-width: 1.5;" width="4" x="754.5" y="659"/><text fill="#33335B" font-family="sans-serif" font-size="14" lengthAdjust="spacingAndGlyphs" textLength="101" x="650.5" y="682.5332">AVS Scheduling</text><!--MD5=[7089780ca7565dab24142cd085e29fa4]
entity SERVICES--><rect fill="#FFFFFF" filter="url(#f1psca902cbsth)" height="47.6094" style="stroke: #33335B; stroke-width: 1.5;" width="94" x="884" y="648"/><rect fill="#FFFFFF" height="10" style="stroke: #33335B; stroke-width: 1.5;" width="15" x="958" y="653"/><rect fill="#FFFFFF" height="2" style="stroke: #33335B; stroke-width: 1.5;" width="4" x="956" y="655"/><rect fill="#FFFFFF" height="2" style="stroke: #33335B; stroke-width: 1.5;" width="4" x="956" y="659"/><text fill="#33335B" font-family="sans-serif" font-size="14" lengthAdjust="spacingAndGlyphs" textLength="54" x="899" y="682.5332">Services</text><!--MD5=[b22478295e3d382a8b538f9461fdbed6]
link PROCESSING_3RD_PARTY to WOV_MODULE--><!--MD5=[afaaeace0af5940a065535b8afe21a78]
link WOV_MODULE to ACA_MODULE--><!--MD5=[9588f6402becb52cba2b1c353f69bd46]
link ACA_MODULE to OTHER_MODULES--><!--MD5=[9adb4925be50fd5bd0af6ff871b020f2]
link COPIER to SRC--><!--MD5=[828609bc7b60125919dd2060dbc60899]
link SRC to MIXERS--><!--MD5=[91637f9af7074646a7d0f5e05911c1e9]
link MIXERS to HISTORY_BUFFER--><!--MD5=[460d74632abba2a8a3882bc01973e2c6]
link HISTORY_BUFFER to PROBE--><!--MD5=[3351c10201877050fad1f50099d72d3a]
link BUILTIN_COMPONENTS to LOADABLE_COMPONENTS--><!--MD5=[46ed31ec080125ddf97a9677eb43fe0c]
link COMMUNICATION to PIPELINE_COMPONENT_INFRASTRUCTURE--><!--MD5=[fc857fb3946eed8baee23efc2e23d81b]
link PIPELINE_COMPONENT_INFRASTRUCTURE to AVS_SCHEDULERS--><!--MD5=[054a10473eeb913360f3c7a2ac3b56d2]
link SS to KERNEL_EXTENSION--><!--MD5=[4a45edd94fa979ecb5c755b66e765ced]
link SS to ZEPHYR--><!--MD5=[943b0ff1c1c24cb1fea0e98153378a59]
link KERNEL_EXTENSION to ZEPHYR--><!--MD5=[5104f87873044250271ec376d1d096f0]
link APP_CUSTOMIZATION to SYS_SERVICES--><!--MD5=[550ca3ebe6eec9e011b81a2eddacc090]
link BUILTIN_COMPONENTS to SS--><path d="M342.8591,252.2724 C342.9055,252.3728 342.9523,252.4731 342.9993,252.5731 C343.1874,252.9735 343.3802,253.3713 343.5778,253.7662 C343.973,254.5561 344.3873,255.3348 344.8217,256.1001 C345.6905,257.6308 346.6396,259.1082 347.676,260.5161 C349.7489,263.332 352.1713,265.87 355,268 C368.65,278.28 958,263.84 970,276 C999.35,305.73 998.76,433.7 970,464 C958.28,476.35 832.13,464.21 817,472 C791.96,484.9 773.27,512.03 762.29,531.77 " fill="none" id="BUILTIN_COMPONENTS-SS" style="stroke: #4A4A86; stroke-width: 1.0; stroke-dasharray: 7.0,7.0;"/><!--MD5=[4797890b6a8f7d1435e17bb9aa29fdf5]
link PROCESSING_3RD_PARTY to SS--><path d="M498.19,384.1 C521.68,405.96 558.85,439.05 594,464 C630.22,489.71 674.17,514.71 706.35,531.97 " fill="none" id="PROCESSING_3RD_PARTY-SS" style="stroke: #4A4A86; stroke-width: 1.0; stroke-dasharray: 7.0,7.0;"/><!--MD5=[f779a93c5a5332a2697a32b4f90e68aa]
link WOV_MODULE to SS--><path d="M658.23,384.08 C668.54,405.08 684.39,436.83 699,464 C711.58,487.4 726.73,513.71 737.42,531.99 " fill="none" id="WOV_MODULE-SS" style="stroke: #4A4A86; stroke-width: 1.0; stroke-dasharray: 7.0,7.0;"/><!--MD5=[6116d04c6a0c8950a04a99bd708d1284]
link ACA_MODULE to SS--><path d="M751,384.02 C751,421.25 751,494.3 751,531.71 " fill="none" id="ACA_MODULE-SS" style="stroke: #4A4A86; stroke-width: 1.0; stroke-dasharray: 7.0,7.0;"/><!--MD5=[9f59702cf1ae5b959d23abf158779562]
link OTHER_MODULES to SS--><path d="M870.86,384.02 C844.76,421.25 793.55,494.3 767.33,531.71 " fill="none" id="OTHER_MODULES-SS" style="stroke: #4A4A86; stroke-width: 1.0; stroke-dasharray: 7.0,7.0;"/><!--MD5=[24f6c8cea4339860e1ee51e0afc01c3d]
@startuml
hidefootbox
skinparam componentStyle uml2

skinparam defaultFontColor	#33335b

skinparam rectangle {
	color		#d6d6de
	backgroundColor	#ffffff
}

skinparam component {
	backgroundColor	#ffffff
	borderColor	#33335b
	arrowColor	#f05772
}

skinparam interface {
	backgroundColor	#ffffff
	borderColor	#f05772
}

skinparam class {
	backgroundColor	#ffffff
	borderColor	#33335b
	arrowColor	#f05772
}
skinparam stereotypeCBackgroundColor	#6fccdd

skinparam sequence {
	arrowColor		#4a4a86
	lifeLineBorderColor	#f05772
	groupBorderColor	#a1a1ca
	boxBorderColor		#a1a1ca
	dividerBorderColor	#d6d6de
	dividerBorderThickness	1
}
skinparam participant {
	borderColor		#33335b
	backgroundColor		#ffffff
}
skinparam actor {
	borderColor		#33335b
	backgroundColor		#ffffff
}

skinparam state {
	borderColor		#33335b
	backgroundColor		#ffffff
}

skinparam node {
	backgroundColor		#ffffff
}

skinparam note {
	backgroundColor 	#f6ed80
	borderColor		#d6d6de
}
allowmixing

scale max 1280 width

package "SOF" {

  package "Application layer" as APP_CUSTOMIZATION {

    package "Example Loadable Components" as LOADABLE_COMPONENTS {
      component "3rd Party Post-Processing" as PROCESSING_3RD_PARTY
      component "WoV" as WOV_MODULE
      component "ACA" as ACA_MODULE
      component "Other modules" as OTHER_MODULES

      PROCESSING_3RD_PARTY -[hidden]right- WOV_MODULE
      WOV_MODULE -[hidden]right- ACA_MODULE
      ACA_MODULE -[hidden]right- OTHER_MODULES
    }

    package "Built-in Components" as BUILTIN_COMPONENTS {
      component "Copier" as COPIER
      component "SRC" as SRC
      component "Mixers" as MIXERS
      component "History Buffer/KPB" as HISTORY_BUFFER
      component "Probe" as PROBE

      COPIER -[hidden]right- SRC
      SRC -[hidden]right- MIXERS
      MIXERS -[hidden]right- HISTORY_BUFFER
      HISTORY_BUFFER -[hidden]right- PROBE
    }

      BUILTIN_COMPONENTS -[hidden]down- LOADABLE_COMPONENTS
  }

  package "System Services" as SYS_SERVICES {

    interface "System Services" as SS

    package "Media Processing Pipelines Services extension" as KERNEL_EXTENSION {
        component "Communication" as COMMUNICATION
        component "Pipelines and Component Infrastructure" as PIPELINE_COMPONENT_INFRASTRUCTURE
        component "AVS Scheduling" as AVS_SCHEDULERS

        COMMUNICATION -[hidden]right- PIPELINE_COMPONENT_INFRASTRUCTURE
        PIPELINE_COMPONENT_INFRASTRUCTURE -[hidden]right- AVS_SCHEDULERS
    }

    package "Zephyr" as ZEPHYR {
        component "Services" as SERVICES
    }

    SS -[hidden]down- KERNEL_EXTENSION
    SS -[hidden]down- ZEPHYR

    KERNEL_EXTENSION -[hidden]right- ZEPHYR
  }

  APP_CUSTOMIZATION -[hidden]down- SYS_SERVICES
  BUILTIN_COMPONENTS .down. SS
  PROCESSING_3RD_PARTY .down. SS
  WOV_MODULE .down. SS
  ACA_MODULE .down. SS
  OTHER_MODULES .down. SS
}

@enduml

PlantUML version 1.2019.12(Sun Nov 03 11:24:54 CET 2019)
(GPL source distribution)
Java Runtime: OpenJDK Runtime Environment
JVM: OpenJDK 64-Bit Server VM
Java Version: 1.8.0_302-b08
Operating System: Windows 10
Default Encoding: Cp1252
Language: en
Country: US
--></g></svg>