<?xml version="1.0" encoding="UTF-8" standalone="no"?><svg xmlns="http://www.w3.org/2000/svg" xmlns:xlink="http://www.w3.org/1999/xlink" contentScriptType="application/ecmascript" contentStyleType="text/css" height="382px" preserveAspectRatio="none" style="width:775px;height:382px;" version="1.1" viewBox="0 0 775 382" width="775px" zoomAndPan="magnify"><defs><filter height="300%" id="f1d8rtr2jn46o7" width="300%" x="-1" y="-1"><feGaussianBlur result="blurOut" stdDeviation="2.0"/><feColorMatrix in="blurOut" result="blurOut2" type="matrix" values="0 0 0 0 0 0 0 0 0 0 0 0 0 0 0 0 0 0 .4 0"/><feOffset dx="4.0" dy="4.0" in="blurOut2" result="blurOut3"/><feBlend in="SourceGraphic" in2="blurOut3" mode="normal"/></filter></defs><g><rect fill="#FFFFFF" filter="url(#f1d8rtr2jn46o7)" height="232.7578" style="stroke: #F05772; stroke-width: 1.0;" width="10" x="202" y="119.9609"/><rect fill="#FFFFFF" filter="url(#f1d8rtr2jn46o7)" height="57.3516" style="stroke: #F05772; stroke-width: 1.0;" width="10" x="333" y="150.3125"/><rect fill="#FFFFFF" filter="url(#f1d8rtr2jn46o7)" height="100.7031" style="stroke: #F05772; stroke-width: 1.0;" width="10" x="333" y="238.0156"/><line style="stroke: #F05772; stroke-width: 1.0; stroke-dasharray: 5.0,5.0;" x1="29" x2="29" y1="87.6094" y2="370.7188"/><line style="stroke: #F05772; stroke-width: 1.0; stroke-dasharray: 5.0,5.0;" x1="207" x2="207" y1="87.6094" y2="370.7188"/><line style="stroke: #F05772; stroke-width: 1.0; stroke-dasharray: 5.0,5.0;" x1="337.5" x2="337.5" y1="87.6094" y2="370.7188"/><text fill="#33335B" font-family="sans-serif" font-size="14" lengthAdjust="spacingAndGlyphs" textLength="36" x="8" y="84.5332">driver</text><ellipse cx="29" cy="13" fill="#FFFFFF" filter="url(#f1d8rtr2jn46o7)" rx="8" ry="8" style="stroke: #33335B; stroke-width: 2.0;"/><path d="M29,21 L29,48 M16,29 L42,29 M29,48 L16,63 M29,48 L42,63 " fill="none" filter="url(#f1d8rtr2jn46o7)" style="stroke: #33335B; stroke-width: 2.0;"/><rect fill="#FFFFFF" filter="url(#f1d8rtr2jn46o7)" height="31.6094" style="stroke: #33335B; stroke-width: 1.5;" width="32" x="189" y="51"/><text fill="#33335B" font-family="sans-serif" font-size="14" lengthAdjust="spacingAndGlyphs" textLength="18" x="196" y="72.5332">ipc</text><rect fill="#FFFFFF" filter="url(#f1d8rtr2jn46o7)" height="31.6094" style="stroke: #33335B; stroke-width: 1.5;" width="63" x="304.5" y="51"/><text fill="#33335B" font-family="sans-serif" font-size="14" lengthAdjust="spacingAndGlyphs" textLength="49" x="311.5" y="72.5332">pipeline</text><rect fill="#FFFFFF" filter="url(#f1d8rtr2jn46o7)" height="232.7578" style="stroke: #F05772; stroke-width: 1.0;" width="10" x="202" y="119.9609"/><rect fill="#FFFFFF" filter="url(#f1d8rtr2jn46o7)" height="57.3516" style="stroke: #F05772; stroke-width: 1.0;" width="10" x="333" y="150.3125"/><rect fill="#FFFFFF" filter="url(#f1d8rtr2jn46o7)" height="100.7031" style="stroke: #F05772; stroke-width: 1.0;" width="10" x="333" y="238.0156"/><polygon fill="#4A4A86" points="190,115.9609,200,119.9609,190,123.9609,194,119.9609" style="stroke: #4A4A86; stroke-width: 1.0;"/><line style="stroke: #4A4A86; stroke-width: 1.0;" x1="29" x2="196" y1="119.9609" y2="119.9609"/><text fill="#33335B" font-family="sans-serif" font-size="13" lengthAdjust="spacingAndGlyphs" textLength="154" x="36" y="115.1045">ipc_stream_pcm_params()</text><polygon fill="#4A4A86" points="321,146.3125,331,150.3125,321,154.3125,325,150.3125" style="stroke: #4A4A86; stroke-width: 1.0;"/><line style="stroke: #4A4A86; stroke-width: 1.0;" x1="212" x2="327" y1="150.3125" y2="150.3125"/><text fill="#33335B" font-family="sans-serif" font-size="13" lengthAdjust="spacingAndGlyphs" textLength="102" x="219" y="145.4561">pipeline_params()</text><line style="stroke: #4A4A86; stroke-width: 1.0;" x1="343" x2="385" y1="180.6641" y2="180.6641"/><line style="stroke: #4A4A86; stroke-width: 1.0;" x1="385" x2="385" y1="180.6641" y2="193.6641"/><line style="stroke: #4A4A86; stroke-width: 1.0;" x1="344" x2="385" y1="193.6641" y2="193.6641"/><polygon fill="#4A4A86" points="354,189.6641,344,193.6641,354,197.6641,350,193.6641" style="stroke: #4A4A86; stroke-width: 1.0;"/><text fill="#33335B" font-family="sans-serif" font-size="13" lengthAdjust="spacingAndGlyphs" textLength="413" x="350" y="175.8076">&lt;pipeline operation&gt; (COMP_OPS_PARAMS, first = pcm_dev, params)</text><polygon fill="#4A4A86" points="223,203.6641,213,207.6641,223,211.6641,219,207.6641" style="stroke: #4A4A86; stroke-width: 1.0;"/><line style="stroke: #4A4A86; stroke-width: 1.0; stroke-dasharray: 2.0,2.0;" x1="217" x2="337" y1="207.6641" y2="207.6641"/><polygon fill="#4A4A86" points="321,234.0156,331,238.0156,321,242.0156,325,238.0156" style="stroke: #4A4A86; stroke-width: 1.0;"/><line style="stroke: #4A4A86; stroke-width: 1.0;" x1="212" x2="327" y1="238.0156" y2="238.0156"/><text fill="#33335B" font-family="sans-serif" font-size="13" lengthAdjust="spacingAndGlyphs" textLength="102" x="219" y="233.1592">pipeline_prepare()</text><line style="stroke: #4A4A86; stroke-width: 1.0;" x1="343" x2="385" y1="268.3672" y2="268.3672"/><line style="stroke: #4A4A86; stroke-width: 1.0;" x1="385" x2="385" y1="268.3672" y2="281.3672"/><line style="stroke: #4A4A86; stroke-width: 1.0;" x1="344" x2="385" y1="281.3672" y2="281.3672"/><polygon fill="#4A4A86" points="354,277.3672,344,281.3672,354,285.3672,350,281.3672" style="stroke: #4A4A86; stroke-width: 1.0;"/><text fill="#33335B" font-family="sans-serif" font-size="13" lengthAdjust="spacingAndGlyphs" textLength="273" x="350" y="263.5107">&lt;pipeline operation&gt; (COMP_OPS_PREPARE)</text><line style="stroke: #4A4A86; stroke-width: 1.0;" x1="343" x2="385" y1="311.7188" y2="311.7188"/><line style="stroke: #4A4A86; stroke-width: 1.0;" x1="385" x2="385" y1="311.7188" y2="324.7188"/><line style="stroke: #4A4A86; stroke-width: 1.0;" x1="344" x2="385" y1="324.7188" y2="324.7188"/><polygon fill="#4A4A86" points="354,320.7188,344,324.7188,354,328.7188,350,324.7188" style="stroke: #4A4A86; stroke-width: 1.0;"/><text fill="#33335B" font-family="sans-serif" font-size="13" lengthAdjust="spacingAndGlyphs" textLength="302" x="350" y="306.8623">component_prepare_buffers_downstream/upstream()</text><polygon fill="#4A4A86" points="223,334.7188,213,338.7188,223,342.7188,219,338.7188" style="stroke: #4A4A86; stroke-width: 1.0;"/><line style="stroke: #4A4A86; stroke-width: 1.0; stroke-dasharray: 2.0,2.0;" x1="217" x2="337" y1="338.7188" y2="338.7188"/><polygon fill="#4A4A86" points="40,348.7188,30,352.7188,40,356.7188,36,352.7188" style="stroke: #4A4A86; stroke-width: 1.0;"/><line style="stroke: #4A4A86; stroke-width: 1.0; stroke-dasharray: 2.0,2.0;" x1="34" x2="206" y1="352.7188" y2="352.7188"/><!--MD5=[e6c177bd215bc99ba65a7f7ac57c863f]
@startuml
hidefootbox
skinparam componentStyle uml2

skinparam defaultFontColor	#33335b

skinparam rectangle {
	color		#d6d6de
	backgroundColor	#ffffff
}

skinparam component {
	backgroundColor	#ffffff
	borderColor	#33335b
	arrowColor	#f05772
}

skinparam interface {
	backgroundColor	#ffffff
	borderColor	#f05772
}

skinparam class {
	backgroundColor	#ffffff
	borderColor	#33335b
	arrowColor	#f05772
}
skinparam stereotypeCBackgroundColor	#6fccdd

skinparam sequence {
	arrowColor		#4a4a86
	lifeLineBorderColor	#f05772
	groupBorderColor	#a1a1ca
	boxBorderColor		#a1a1ca
	dividerBorderColor	#d6d6de
	dividerBorderThickness	1
}
skinparam participant {
	borderColor		#33335b
	backgroundColor		#ffffff
}
skinparam actor {
	borderColor		#33335b
	backgroundColor		#ffffff
}

skinparam state {
	borderColor		#33335b
	backgroundColor		#ffffff
}

skinparam node {
	backgroundColor		#ffffff
}

skinparam note {
	backgroundColor 	#f6ed80
	borderColor		#d6d6de
}
actor driver as drv
participant ipc
participant "pipeline" as ppl

drv -> ipc : ipc_stream_pcm_params()
   activate ipc
   ipc -> ppl : pipeline_params()
      activate ppl
      ppl -> ppl : <pipeline operation> (COMP_OPS_PARAMS, first = pcm_dev, params)
   ipc <- - ppl
   deactivate ppl

   ipc -> ppl : pipeline_prepare()
      activate ppl
      ppl -> ppl : <pipeline operation> (COMP_OPS_PREPARE)
      ppl -> ppl : component_prepare_buffers_downstream/upstream()
   ipc <- - ppl
   deactivate ppl
drv <- - ipc
deactivate ipc

@enduml

PlantUML version 1.2019.12(Sun Nov 03 11:24:54 CET 2019)
(GPL source distribution)
Java Runtime: OpenJDK Runtime Environment
JVM: OpenJDK 64-Bit Server VM
Java Version: 1.8.0_302-b08
Operating System: Windows 10
Default Encoding: Cp1252
Language: en
Country: US
--></g></svg>