<?xml version="1.0" encoding="UTF-8" standalone="no"?><svg xmlns="http://www.w3.org/2000/svg" xmlns:xlink="http://www.w3.org/1999/xlink" contentScriptType="application/ecmascript" contentStyleType="text/css" height="315px" preserveAspectRatio="none" style="width:461px;height:315px;" version="1.1" viewBox="0 0 461 315" width="461px" zoomAndPan="magnify"><defs><filter height="300%" id="fq6zp1bjl50rr" width="300%" x="-1" y="-1"><feGaussianBlur result="blurOut" stdDeviation="2.0"/><feColorMatrix in="blurOut" result="blurOut2" type="matrix" values="0 0 0 0 0 0 0 0 0 0 0 0 0 0 0 0 0 0 .4 0"/><feOffset dx="4.0" dy="4.0" in="blurOut2" result="blurOut3"/><feBlend in="SourceGraphic" in2="blurOut3" mode="normal"/></filter></defs><g><!--MD5=[ab55af83c6f8e96805fa81b05d6a69db]
class pipeline--><rect fill="#FFFFFF" filter="url(#fq6zp1bjl50rr)" height="123.0156" id="pipeline" style="stroke: #33335B; stroke-width: 1.5;" width="154" x="6" y="8"/><ellipse cx="56.75" cy="24" fill="#6FCCDD" rx="11" ry="11" style="stroke: #33335B; stroke-width: 1.0;"/><path d="M59.5156,19.875 Q59.6719,19.6563 59.8594,19.5469 Q60.0469,19.4375 60.2656,19.4375 Q60.6406,19.4375 60.875,19.7031 Q61.1094,19.9531 61.1094,20.5625 L61.1094,22.0156 Q61.1094,22.625 60.875,22.8906 Q60.6406,23.1563 60.2656,23.1563 Q59.9219,23.1563 59.7188,22.9531 Q59.5156,22.7656 59.4063,22.25 Q59.3594,21.8906 59.1719,21.7031 Q58.8438,21.3281 58.2344,21.1094 Q57.625,20.8906 57,20.8906 Q56.2344,20.8906 55.5938,21.2188 Q54.9688,21.5469 54.4688,22.2969 Q53.9844,23.0469 53.9844,24.0781 L53.9844,25.1719 Q53.9844,26.4063 54.875,27.2344 Q55.7656,28.0469 57.3594,28.0469 Q58.2969,28.0469 58.9531,27.7969 Q59.3438,27.6406 59.7656,27.2031 Q60.0313,26.9375 60.1719,26.8594 Q60.3281,26.7813 60.5313,26.7813 Q60.8594,26.7813 61.1094,27.0469 Q61.375,27.2969 61.375,27.6406 Q61.375,27.9844 61.0313,28.3906 Q60.5313,28.9688 59.7344,29.2969 Q58.6563,29.75 57.3594,29.75 Q55.8438,29.75 54.6406,29.125 Q53.6563,28.625 52.9688,27.5625 Q52.2813,26.4844 52.2813,25.2031 L52.2813,24.0469 Q52.2813,22.7188 52.8906,21.5781 Q53.5156,20.4219 54.6094,19.8125 Q55.7031,19.1875 56.9375,19.1875 Q57.6719,19.1875 58.3125,19.3594 Q58.9688,19.5156 59.5156,19.875 Z "/><text fill="#33335B" font-family="sans-serif" font-size="12" lengthAdjust="spacingAndGlyphs" textLength="44" x="77.25" y="28.9102">pipeline</text><line style="stroke: #33335B; stroke-width: 1.5;" x1="7" x2="159" y1="40" y2="40"/><text fill="#33335B" font-family="sans-serif" font-size="11" lengthAdjust="spacingAndGlyphs" textLength="40" x="12" y="55.4189">ipc_pipe</text><text fill="#33335B" font-family="sans-serif" font-size="11" lengthAdjust="spacingAndGlyphs" textLength="142" x="12" y="69.2549">comp_list : list of components</text><text fill="#33335B" font-family="sans-serif" font-size="11" lengthAdjust="spacingAndGlyphs" textLength="123" x="12" y="83.0908">buffer_list : list of buffers</text><text fill="#33335B" font-family="sans-serif" font-size="11" lengthAdjust="spacingAndGlyphs" textLength="46" x="12" y="96.9268">pipe_task</text><text fill="#33335B" font-family="sans-serif" font-size="11" lengthAdjust="spacingAndGlyphs" textLength="128" x="12" y="110.7627">sched_comp : comp_dev *</text><text fill="#33335B" font-family="sans-serif" font-size="11" lengthAdjust="spacingAndGlyphs" textLength="77" x="12" y="124.5986">status : uint32_t</text><!--MD5=[228114eb5c53e3eb94ad2fd153ad995c]
class sof_ipc_pipe_new--><rect fill="#FFFFFF" filter="url(#fq6zp1bjl50rr)" height="95.3438" id="sof_ipc_pipe_new" style="stroke: #33335B; stroke-width: 1.5;" width="133" x="16.5" y="209"/><ellipse cx="31.5" cy="225" fill="#6FCCDD" rx="11" ry="11" style="stroke: #33335B; stroke-width: 1.0;"/><path d="M34.2656,220.875 Q34.4219,220.6563 34.6094,220.5469 Q34.7969,220.4375 35.0156,220.4375 Q35.3906,220.4375 35.625,220.7031 Q35.8594,220.9531 35.8594,221.5625 L35.8594,223.0156 Q35.8594,223.625 35.625,223.8906 Q35.3906,224.1563 35.0156,224.1563 Q34.6719,224.1563 34.4688,223.9531 Q34.2656,223.7656 34.1563,223.25 Q34.1094,222.8906 33.9219,222.7031 Q33.5938,222.3281 32.9844,222.1094 Q32.375,221.8906 31.75,221.8906 Q30.9844,221.8906 30.3438,222.2188 Q29.7188,222.5469 29.2188,223.2969 Q28.7344,224.0469 28.7344,225.0781 L28.7344,226.1719 Q28.7344,227.4063 29.625,228.2344 Q30.5156,229.0469 32.1094,229.0469 Q33.0469,229.0469 33.7031,228.7969 Q34.0938,228.6406 34.5156,228.2031 Q34.7813,227.9375 34.9219,227.8594 Q35.0781,227.7813 35.2813,227.7813 Q35.6094,227.7813 35.8594,228.0469 Q36.125,228.2969 36.125,228.6406 Q36.125,228.9844 35.7813,229.3906 Q35.2813,229.9688 34.4844,230.2969 Q33.4063,230.75 32.1094,230.75 Q30.5938,230.75 29.3906,230.125 Q28.4063,229.625 27.7188,228.5625 Q27.0313,227.4844 27.0313,226.2031 L27.0313,225.0469 Q27.0313,223.7188 27.6406,222.5781 Q28.2656,221.4219 29.3594,220.8125 Q30.4531,220.1875 31.6875,220.1875 Q32.4219,220.1875 33.0625,220.3594 Q33.7188,220.5156 34.2656,220.875 Z "/><text fill="#33335B" font-family="sans-serif" font-size="12" lengthAdjust="spacingAndGlyphs" textLength="101" x="45.5" y="229.9102">sof_ipc_pipe_new</text><line style="stroke: #33335B; stroke-width: 1.5;" x1="17.5" x2="148.5" y1="241" y2="241"/><text fill="#33335B" font-family="sans-serif" font-size="11" lengthAdjust="spacingAndGlyphs" textLength="40" x="22.5" y="256.4189">comp_id</text><text fill="#33335B" font-family="sans-serif" font-size="11" lengthAdjust="spacingAndGlyphs" textLength="50" x="22.5" y="270.2549">pipeline_id</text><text fill="#33335B" font-family="sans-serif" font-size="11" lengthAdjust="spacingAndGlyphs" textLength="44" x="22.5" y="284.0908">sched_id</text><text fill="#33335B" font-family="sans-serif" font-size="11" lengthAdjust="spacingAndGlyphs" textLength="9" x="22.5" y="297.9268">...</text><path d="M185,235 L185,252.5 L149.71,256.5 L185,260.5 L185,277.7031 A0,0 0 0 0 185,277.7031 L311,277.7031 A0,0 0 0 0 311,277.7031 L311,245 L301,235 L185,235 A0,0 0 0 0 185,235 " fill="#F6ED80" filter="url(#fq6zp1bjl50rr)" style="stroke: #D6D6DE; stroke-width: 1.0;"/><path d="M301,235 L301,245 L311,245 L301,235 " fill="#F6ED80" style="stroke: #D6D6DE; stroke-width: 1.0;"/><text fill="#33335B" font-family="sans-serif" font-size="13" lengthAdjust="spacingAndGlyphs" textLength="105" x="191" y="253.4951">attributes provided</text><text fill="#33335B" font-family="sans-serif" font-size="13" lengthAdjust="spacingAndGlyphs" textLength="64" x="191" y="269.8467">through ipc</text><!--MD5=[7995dc4b925f04a8b903038d633a4635]
class task--><rect fill="#FFFFFF" filter="url(#fq6zp1bjl50rr)" height="32" id="task" style="stroke: #33335B; stroke-width: 1.5;" width="55" x="252.5" y="53.5"/><ellipse cx="267.5" cy="69.5" fill="#6FCCDD" rx="11" ry="11" style="stroke: #33335B; stroke-width: 1.0;"/><path d="M270.2656,65.375 Q270.4219,65.1563 270.6094,65.0469 Q270.7969,64.9375 271.0156,64.9375 Q271.3906,64.9375 271.625,65.2031 Q271.8594,65.4531 271.8594,66.0625 L271.8594,67.5156 Q271.8594,68.125 271.625,68.3906 Q271.3906,68.6563 271.0156,68.6563 Q270.6719,68.6563 270.4688,68.4531 Q270.2656,68.2656 270.1563,67.75 Q270.1094,67.3906 269.9219,67.2031 Q269.5938,66.8281 268.9844,66.6094 Q268.375,66.3906 267.75,66.3906 Q266.9844,66.3906 266.3438,66.7188 Q265.7188,67.0469 265.2188,67.7969 Q264.7344,68.5469 264.7344,69.5781 L264.7344,70.6719 Q264.7344,71.9063 265.625,72.7344 Q266.5156,73.5469 268.1094,73.5469 Q269.0469,73.5469 269.7031,73.2969 Q270.0938,73.1406 270.5156,72.7031 Q270.7813,72.4375 270.9219,72.3594 Q271.0781,72.2813 271.2813,72.2813 Q271.6094,72.2813 271.8594,72.5469 Q272.125,72.7969 272.125,73.1406 Q272.125,73.4844 271.7813,73.8906 Q271.2813,74.4688 270.4844,74.7969 Q269.4063,75.25 268.1094,75.25 Q266.5938,75.25 265.3906,74.625 Q264.4063,74.125 263.7188,73.0625 Q263.0313,71.9844 263.0313,70.7031 L263.0313,69.5469 Q263.0313,68.2188 263.6406,67.0781 Q264.2656,65.9219 265.3594,65.3125 Q266.4531,64.6875 267.6875,64.6875 Q268.4219,64.6875 269.0625,64.8594 Q269.7188,65.0156 270.2656,65.375 Z "/><text fill="#33335B" font-family="sans-serif" font-size="12" lengthAdjust="spacingAndGlyphs" textLength="23" x="281.5" y="74.4102">task</text><path d="M342.5,48 L342.5,65.5 L307.64,69.5 L342.5,73.5 L342.5,90.7031 A0,0 0 0 0 342.5,90.7031 L449.5,90.7031 A0,0 0 0 0 449.5,90.7031 L449.5,58 L439.5,48 L342.5,48 A0,0 0 0 0 342.5,48 " fill="#F6ED80" filter="url(#fq6zp1bjl50rr)" style="stroke: #D6D6DE; stroke-width: 1.0;"/><path d="M439.5,48 L439.5,58 L449.5,58 L439.5,48 " fill="#F6ED80" style="stroke: #D6D6DE; stroke-width: 1.0;"/><text fill="#33335B" font-family="sans-serif" font-size="13" lengthAdjust="spacingAndGlyphs" textLength="86" x="348.5" y="66.4951">task registered</text><text fill="#33335B" font-family="sans-serif" font-size="13" lengthAdjust="spacingAndGlyphs" textLength="70" x="348.5" y="82.8467">in scheduler</text><!--MD5=[1dacaf936f44fb09a94ee8f650d330b4]
link pipeline to sof_ipc_pipe_new--><path d="M83,131.08 C83,156.37 83,185.29 83,208.88 " fill="none" id="pipeline-sof_ipc_pipe_new" style="stroke: #4A4A86; stroke-width: 1.0;"/><text fill="#33335B" font-family="sans-serif" font-size="13" lengthAdjust="spacingAndGlyphs" textLength="48" x="84" y="175.4951">ipc_pipe</text><!--MD5=[4840c0ed22f8de6d9a6bbeed5a2aa92c]
link pipeline to task--><path d="M160.01,69.5 C192.6,69.5 228.49,69.5 252.45,69.5 " fill="none" id="pipeline-task" style="stroke: #4A4A86; stroke-width: 1.0;"/><text fill="#33335B" font-family="sans-serif" font-size="13" lengthAdjust="spacingAndGlyphs" textLength="56" x="178.25" y="62.9951">pipe_task</text><!--MD5=[f31dc6bdd7bc23c0e9b33764e7eff1ed]
@startuml
hidefootbox
skinparam componentStyle uml2

skinparam defaultFontColor	#33335b

skinparam rectangle {
	color		#d6d6de
	backgroundColor	#ffffff
}

skinparam component {
	backgroundColor	#ffffff
	borderColor	#33335b
	arrowColor	#f05772
}

skinparam interface {
	backgroundColor	#ffffff
	borderColor	#f05772
}

skinparam class {
	backgroundColor	#ffffff
	borderColor	#33335b
	arrowColor	#f05772
}
skinparam stereotypeCBackgroundColor	#6fccdd

skinparam sequence {
	arrowColor		#4a4a86
	lifeLineBorderColor	#f05772
	groupBorderColor	#a1a1ca
	boxBorderColor		#a1a1ca
	dividerBorderColor	#d6d6de
	dividerBorderThickness	1
}
skinparam participant {
	borderColor		#33335b
	backgroundColor		#ffffff
}
skinparam actor {
	borderColor		#33335b
	backgroundColor		#ffffff
}

skinparam state {
	borderColor		#33335b
	backgroundColor		#ffffff
}

skinparam node {
	backgroundColor		#ffffff
}

skinparam note {
	backgroundColor 	#f6ed80
	borderColor		#d6d6de
}
class "pipeline" {
   ipc_pipe
   comp_list : list of components
   buffer_list : list of buffers
   pipe_task
   sched_comp : comp_dev *
   status : uint32_t
}
hide pipeline methods

class sof_ipc_pipe_new {
   comp_id
   pipeline_id
   sched_id
   ...
}
hide sof_ipc_pipe_new methods
note right: attributes provided\nthrough ipc

class task
hide task members
hide task attributes
note right: task registered\nin scheduler

pipeline - - sof_ipc_pipe_new : ipc_pipe
pipeline - task : "pipe_task"

@enduml

PlantUML version 1.2019.12(Sun Nov 03 11:24:54 CET 2019)
(GPL source distribution)
Java Runtime: OpenJDK Runtime Environment
JVM: OpenJDK 64-Bit Server VM
Java Version: 1.8.0_302-b08
Operating System: Windows 10
Default Encoding: Cp1252
Language: en
Country: US
--></g></svg>