<?xml version="1.0" encoding="UTF-8" standalone="no"?><svg xmlns="http://www.w3.org/2000/svg" xmlns:xlink="http://www.w3.org/1999/xlink" contentScriptType="application/ecmascript" contentStyleType="text/css" height="341px" preserveAspectRatio="none" style="width:218px;height:341px;" version="1.1" viewBox="0 0 218 341" width="218px" zoomAndPan="magnify"><defs><filter height="300%" id="fknh3pde3v64x" width="300%" x="-1" y="-1"><feGaussianBlur result="blurOut" stdDeviation="2.0"/><feColorMatrix in="blurOut" result="blurOut2" type="matrix" values="0 0 0 0 0 0 0 0 0 0 0 0 0 0 0 0 0 0 .4 0"/><feOffset dx="4.0" dy="4.0" in="blurOut2" result="blurOut3"/><feBlend in="SourceGraphic" in2="blurOut3" mode="normal"/></filter></defs><g><ellipse cx="96" cy="20" fill="#000000" filter="url(#fknh3pde3v64x)" rx="10" ry="10" style="stroke: none; stroke-width: 1.0;"/><rect fill="#FFFFFF" filter="url(#fknh3pde3v64x)" height="35.0938" rx="12.5" ry="12.5" style="stroke: #33335B; stroke-width: 1.5;" width="102" x="45" y="50"/><text fill="#33335B" font-family="sans-serif" font-size="12" lengthAdjust="spacingAndGlyphs" textLength="82" x="55" y="72.457">IPC notification</text><rect fill="#FFFFFF" filter="url(#fknh3pde3v64x)" height="35.0938" rx="12.5" ry="12.5" style="stroke: #33335B; stroke-width: 1.5;" width="172" x="10" y="154.0117"/><text fill="#33335B" font-family="sans-serif" font-size="12" lengthAdjust="spacingAndGlyphs" textLength="152" x="20" y="176.4688">Forward IPC to primary core</text><polygon fill="#FFFFFF" filter="url(#fknh3pde3v64x)" points="35,105.0938,157,105.0938,169,117.0938,157,129.0938,35,129.0938,23,117.0938,35,105.0938" style="stroke: #33335B; stroke-width: 1.5;"/><text fill="#33335B" font-family="sans-serif" font-size="11" lengthAdjust="spacingAndGlyphs" textLength="18" x="100" y="140.5127">yes</text><text fill="#33335B" font-family="sans-serif" font-size="11" lengthAdjust="spacingAndGlyphs" textLength="122" x="35" y="121.5947">Is this NOT primary core?</text><polygon fill="#FFFFFF" filter="url(#fknh3pde3v64x)" points="96,209.1055,108,221.1055,96,233.1055,84,221.1055,96,209.1055" style="stroke: #33335B; stroke-width: 1.5;"/><rect fill="#FFFFFF" filter="url(#fknh3pde3v64x)" height="35.0938" rx="12.5" ry="12.5" style="stroke: #33335B; stroke-width: 1.5;" width="114" x="39" y="253.1055"/><text fill="#33335B" font-family="sans-serif" font-size="12" lengthAdjust="spacingAndGlyphs" textLength="94" x="49" y="275.5625">Send IPC to Host</text><ellipse cx="96" cy="319.1992" fill="#FFFFFF" filter="url(#fknh3pde3v64x)" rx="11" ry="11" style="stroke: #000000; stroke-width: 1.0;"/><ellipse cx="96" cy="319.1992" fill="#000000" rx="6" ry="6" style="stroke: #7F7F7F; stroke-width: 1.0;"/><line style="stroke: #F05772; stroke-width: 1.5;" x1="96" x2="96" y1="30" y2="50"/><polygon fill="#F05772" points="92,40,96,50,100,40,96,44" style="stroke: #F05772; stroke-width: 1.0;"/><line style="stroke: #F05772; stroke-width: 1.5;" x1="96" x2="96" y1="129.0938" y2="154.0117"/><polygon fill="#F05772" points="92,144.0117,96,154.0117,100,144.0117,96,148.0117" style="stroke: #F05772; stroke-width: 1.0;"/><line style="stroke: #F05772; stroke-width: 1.5;" x1="169" x2="192" y1="117.0938" y2="117.0938"/><polygon fill="#F05772" points="188,161.5586,192,171.5586,196,161.5586,192,165.5586" style="stroke: #F05772; stroke-width: 1.5;"/><line style="stroke: #F05772; stroke-width: 1.5;" x1="192" x2="192" y1="117.0938" y2="221.1055"/><line style="stroke: #F05772; stroke-width: 1.5;" x1="192" x2="108" y1="221.1055" y2="221.1055"/><polygon fill="#F05772" points="118,217.1055,108,221.1055,118,225.1055,114,221.1055" style="stroke: #F05772; stroke-width: 1.0;"/><line style="stroke: #F05772; stroke-width: 1.5;" x1="96" x2="96" y1="189.1055" y2="209.1055"/><polygon fill="#F05772" points="92,199.1055,96,209.1055,100,199.1055,96,203.1055" style="stroke: #F05772; stroke-width: 1.0;"/><line style="stroke: #F05772; stroke-width: 1.5;" x1="96" x2="96" y1="85.0938" y2="105.0938"/><polygon fill="#F05772" points="92,95.0938,96,105.0938,100,95.0938,96,99.0938" style="stroke: #F05772; stroke-width: 1.0;"/><line style="stroke: #F05772; stroke-width: 1.5;" x1="96" x2="96" y1="233.1055" y2="253.1055"/><polygon fill="#F05772" points="92,243.1055,96,253.1055,100,243.1055,96,247.1055" style="stroke: #F05772; stroke-width: 1.0;"/><line style="stroke: #F05772; stroke-width: 1.5;" x1="96" x2="96" y1="288.1992" y2="308.1992"/><polygon fill="#F05772" points="92,298.1992,96,308.1992,100,298.1992,96,302.1992" style="stroke: #F05772; stroke-width: 1.0;"/><!--MD5=[2084e91ed8b30c8298e3c1dad327ed96]
@startuml
hidefootbox
skinparam componentStyle uml2

skinparam defaultFontColor	#33335b

skinparam rectangle {
	color		#d6d6de
	backgroundColor	#ffffff
}

skinparam queue {
	color		#d6d6de
	backgroundColor	#ffffff
}

skinparam component {
	backgroundColor	#ffffff
	borderColor	#33335b
	arrowColor	#f05772
}

skinparam interface {
	backgroundColor	#ffffff
	borderColor	#f05772
}

skinparam class {
	backgroundColor	#ffffff
	borderColor	#33335b
	arrowColor	#f05772
}
skinparam stereotypeCBackgroundColor	#6fccdd

skinparam sequence {
	arrowColor		#4a4a86
	lifeLineBorderColor	#f05772
	groupBorderColor	#a1a1ca
	boxBorderColor		#a1a1ca
	dividerBorderColor	#d6d6de
	dividerBorderThickness	1
}
skinparam participant {
	borderColor		#33335b
	backgroundColor		#ffffff
}
skinparam actor {
	borderColor		#33335b
	backgroundColor		#ffffff
}

skinparam state {
	borderColor		#33335b
	backgroundColor		#ffffff
}

skinparam node {
	backgroundColor		#ffffff
}

skinparam note {
	backgroundColor 	#f6ed80
	borderColor		#d6d6de
}

skinparam activity {
	borderColor		#33335b
	backgroundColor		#ffffff
}

skinparam activityDiamond {
	borderColor		#33335b
	backgroundColor		#ffffff
}

skinparam arrowColor	#f05772
skinparam maxMessageSize 400
skinparam BoxPadding 4

scale max 1024 width

start
:IPC notification;

if (Is this NOT primary core?) then (yes)
  :Forward IPC to primary core;
endif

:Send IPC to Host;
stop

@enduml

PlantUML version 1.2019.12(Sun Nov 03 11:24:54 CET 2019)
(GPL source distribution)
Java Runtime: OpenJDK Runtime Environment
JVM: OpenJDK 64-Bit Server VM
Java Version: 1.8.0_302-b08
Operating System: Windows 10
Default Encoding: Cp1252
Language: en
Country: US
--></g></svg>