<?xml version="1.0" encoding="UTF-8" standalone="no"?><svg xmlns="http://www.w3.org/2000/svg" xmlns:xlink="http://www.w3.org/1999/xlink" contentScriptType="application/ecmascript" contentStyleType="text/css" height="565px" preserveAspectRatio="none" style="width:1604px;height:565px;" version="1.1" viewBox="0 0 1604 565" width="1604px" zoomAndPan="magnify"><defs/><g><text fill="#33335B" font-family="sans-serif" font-size="18" lengthAdjust="spacingAndGlyphs" textLength="384" x="607.5" y="26.708">DP tasks scheduling on secondary DSP core</text><line style="stroke: #000000; stroke-width: 1.7;" x1="10" x2="10" y1="30.9531" y2="424.6406"/><line style="stroke: #000000; stroke-width: 1.7;" x1="1589" x2="1589" y1="30.9531" y2="424.6406"/><line style="stroke: #AAAAAA; stroke-width: 0.5; stroke-dasharray: 3.0,5.0;" x1="84" x2="84" y1="30.9531" y2="424.6406"/><line style="stroke: #AAAAAA; stroke-width: 0.5; stroke-dasharray: 3.0,5.0;" x1="234" x2="234" y1="30.9531" y2="424.6406"/><line style="stroke: #AAAAAA; stroke-width: 0.5; stroke-dasharray: 3.0,5.0;" x1="384" x2="384" y1="30.9531" y2="424.6406"/><line style="stroke: #AAAAAA; stroke-width: 0.5; stroke-dasharray: 3.0,5.0;" x1="534" x2="534" y1="30.9531" y2="424.6406"/><line style="stroke: #AAAAAA; stroke-width: 0.5; stroke-dasharray: 3.0,5.0;" x1="684" x2="684" y1="30.9531" y2="424.6406"/><line style="stroke: #AAAAAA; stroke-width: 0.5; stroke-dasharray: 3.0,5.0;" x1="834" x2="834" y1="30.9531" y2="424.6406"/><line style="stroke: #AAAAAA; stroke-width: 0.5; stroke-dasharray: 3.0,5.0;" x1="984" x2="984" y1="30.9531" y2="424.6406"/><line style="stroke: #AAAAAA; stroke-width: 0.5; stroke-dasharray: 3.0,5.0;" x1="1134" x2="1134" y1="30.9531" y2="424.6406"/><line style="stroke: #AAAAAA; stroke-width: 0.5; stroke-dasharray: 3.0,5.0;" x1="1284" x2="1284" y1="30.9531" y2="424.6406"/><line style="stroke: #AAAAAA; stroke-width: 0.5; stroke-dasharray: 3.0,5.0;" x1="1434" x2="1434" y1="30.9531" y2="424.6406"/><line style="stroke: #AAAAAA; stroke-width: 0.5; stroke-dasharray: 3.0,5.0;" x1="1584" x2="1584" y1="30.9531" y2="424.6406"/><text fill="#33335B" font-family="sans-serif" font-size="12" lengthAdjust="spacingAndGlyphs" textLength="41" x="15" y="42.0918">Task B</text><line style="stroke: #000000; stroke-width: 1.0;" x1="10" x2="57" y1="45.9219" y2="45.9219"/><line style="stroke: #000000; stroke-width: 1.0;" x1="57" x2="67" y1="45.9219" y2="30.9531"/><polygon fill="#D7E0F2" points="96,82.8906,372,82.8906,384,94.8906,372,106.8906,96,106.8906,84,94.8906" style="stroke: #038048; stroke-width: 1.5;"/><line style="stroke: #038048; stroke-width: 1.5;" x1="384" x2="984" y1="94.8906" y2="94.8906"/><polygon fill="#D7E0F2" points="996,82.8906,1272,82.8906,1284,94.8906,1272,106.8906,996,106.8906,984,94.8906" style="stroke: #038048; stroke-width: 1.5;"/><line style="stroke: #038048; stroke-width: 1.5;" x1="1284" x2="1584" y1="94.8906" y2="94.8906"/><text fill="#33335B" font-family="sans-serif" font-size="12" lengthAdjust="spacingAndGlyphs" textLength="29" x="219.5" y="99.0449">Busy</text><text fill="#33335B" font-family="sans-serif" font-size="12" lengthAdjust="spacingAndGlyphs" textLength="29" x="1119.5" y="99.0449">Busy</text><line style="stroke: #FF0000; stroke-width: 1.0;" x1="84" x2="984" y1="73.8906" y2="73.8906"/><polygon fill="#FF0000" points="91.5175,71.1545,91.5175,76.6268,84,73.8906" style="stroke: #FF0000; stroke-width: 1.0;"/><polygon fill="#FF0000" points="976.4825,76.6268,976.4825,71.1545,984,73.8906" style="stroke: #FF0000; stroke-width: 1.0;"/><text fill="#000000" font-family="Serif" font-size="14" lengthAdjust="spacingAndGlyphs" textLength="205" x="431.5" y="65.5889">Task B schedule period (6ms)</text><line style="stroke: #FF0000; stroke-width: 1.0;" x1="984" x2="1284" y1="73.8906" y2="73.8906"/><polygon fill="#FF0000" points="991.5175,71.1545,991.5175,76.6268,984,73.8906" style="stroke: #FF0000; stroke-width: 1.0;"/><polygon fill="#FF0000" points="1276.4825,76.6268,1276.4825,71.1545,1284,73.8906" style="stroke: #FF0000; stroke-width: 1.0;"/><text fill="#000000" font-family="Serif" font-size="14" lengthAdjust="spacingAndGlyphs" textLength="198" x="1035" y="65.5889">Task B execution time (2ms)</text><line style="stroke: #000000; stroke-width: 1.7;" x1="10" x2="1589" y1="30.9531" y2="30.9531"/><text fill="#33335B" font-family="sans-serif" font-size="12" lengthAdjust="spacingAndGlyphs" textLength="41" x="15" y="136.0293">Task A</text><line style="stroke: #000000; stroke-width: 1.0;" x1="10" x2="57" y1="139.8594" y2="139.8594"/><line style="stroke: #000000; stroke-width: 1.0;" x1="57" x2="67" y1="139.8594" y2="124.8906"/><polygon fill="#D7E0F2" points="96,176.8281,297,176.8281,309,188.8281,297,200.8281,96,200.8281,84,188.8281" style="stroke: #038048; stroke-width: 1.5;"/><line style="stroke: #038048; stroke-width: 1.5;" x1="309" x2="684" y1="188.8281" y2="188.8281"/><polygon fill="#D7E0F2" points="696,176.8281,897,176.8281,909,188.8281,897,200.8281,696,200.8281,684,188.8281" style="stroke: #038048; stroke-width: 1.5;"/><line style="stroke: #038048; stroke-width: 1.5;" x1="909" x2="1284" y1="188.8281" y2="188.8281"/><polygon fill="#D7E0F2" points="1296,176.8281,1497,176.8281,1509,188.8281,1497,200.8281,1296,200.8281,1284,188.8281" style="stroke: #038048; stroke-width: 1.5;"/><line style="stroke: #038048; stroke-width: 1.5;" x1="1509" x2="1584" y1="188.8281" y2="188.8281"/><text fill="#33335B" font-family="sans-serif" font-size="12" lengthAdjust="spacingAndGlyphs" textLength="29" x="182" y="192.9824">Busy</text><text fill="#33335B" font-family="sans-serif" font-size="12" lengthAdjust="spacingAndGlyphs" textLength="29" x="782" y="192.9824">Busy</text><text fill="#33335B" font-family="sans-serif" font-size="12" lengthAdjust="spacingAndGlyphs" textLength="29" x="1382" y="192.9824">Busy</text><line style="stroke: #FF0000; stroke-width: 1.0;" x1="84" x2="684" y1="167.8281" y2="167.8281"/><polygon fill="#FF0000" points="91.5175,165.092,91.5175,170.5643,84,167.8281" style="stroke: #FF0000; stroke-width: 1.0;"/><polygon fill="#FF0000" points="676.4825,170.5643,676.4825,165.092,684,167.8281" style="stroke: #FF0000; stroke-width: 1.0;"/><text fill="#000000" font-family="Serif" font-size="14" lengthAdjust="spacingAndGlyphs" textLength="205" x="281.5" y="159.5264">Task A schedule period (4ms)</text><line style="stroke: #FF0000; stroke-width: 1.0;" x1="684" x2="909" y1="167.8281" y2="167.8281"/><polygon fill="#FF0000" points="691.5175,165.092,691.5175,170.5643,684,167.8281" style="stroke: #FF0000; stroke-width: 1.0;"/><polygon fill="#FF0000" points="901.4825,170.5643,901.4825,165.092,909,167.8281" style="stroke: #FF0000; stroke-width: 1.0;"/><text fill="#000000" font-family="Serif" font-size="14" lengthAdjust="spacingAndGlyphs" textLength="211" x="691" y="159.5264">Task A execution time (1.5ms)</text><line style="stroke: #000000; stroke-width: 1.7;" x1="10" x2="1589" y1="124.8906" y2="124.8906"/><text fill="#33335B" font-family="sans-serif" font-size="12" lengthAdjust="spacingAndGlyphs" textLength="121" x="15" y="229.9668">DP task processing</text><line style="stroke: #000000; stroke-width: 1.0;" x1="10" x2="137" y1="233.7969" y2="233.7969"/><line style="stroke: #000000; stroke-width: 1.0;" x1="137" x2="147" y1="233.7969" y2="218.8281"/><polygon fill="#D7E0F2" points="96,240.7656,222,240.7656,234,252.7656,222,264.7656,96,264.7656,84,252.7656" style="stroke: #038048; stroke-width: 1.5;"/><polygon fill="#D7E0F2" points="246,240.7656,297,240.7656,309,252.7656,297,264.7656,246,264.7656,234,252.7656" style="stroke: #038048; stroke-width: 1.5;"/><polygon fill="#D7E0F2" points="321,240.7656,372,240.7656,384,252.7656,372,264.7656,321,264.7656,309,252.7656" style="stroke: #038048; stroke-width: 1.5;"/><polygon fill="#D7E0F2" points="396,240.7656,522,240.7656,534,252.7656,522,264.7656,396,264.7656,384,252.7656" style="stroke: #038048; stroke-width: 1.5;"/><polygon fill="#D7E0F2" points="546,240.7656,597,240.7656,609,252.7656,597,264.7656,546,264.7656,534,252.7656" style="stroke: #038048; stroke-width: 1.5;"/><line style="stroke: #038048; stroke-width: 1.5;" x1="609" x2="684" y1="252.7656" y2="252.7656"/><polygon fill="#D7E0F2" points="696,240.7656,822,240.7656,834,252.7656,822,264.7656,696,264.7656,684,252.7656" style="stroke: #038048; stroke-width: 1.5;"/><polygon fill="#D7E0F2" points="846,240.7656,897,240.7656,909,252.7656,897,264.7656,846,264.7656,834,252.7656" style="stroke: #038048; stroke-width: 1.5;"/><line style="stroke: #038048; stroke-width: 1.5;" x1="909" x2="984" y1="252.7656" y2="252.7656"/><line style="stroke: #038048; stroke-width: 1.5;" x1="984" x2="984.15" y1="252.7656" y2="252.7656"/><polygon fill="#D7E0F2" points="996.15,240.7656,1122.15,240.7656,1134.15,252.7656,1122.15,264.7656,996.15,264.7656,984.15,252.7656" style="stroke: #038048; stroke-width: 1.5;"/><polygon fill="#D7E0F2" points="1146.15,240.7656,1272.15,240.7656,1284.15,252.7656,1272.15,264.7656,1146.15,264.7656,1134.15,252.7656" style="stroke: #038048; stroke-width: 1.5;"/><polygon fill="#D7E0F2" points="1296.15,240.7656,1422.15,240.7656,1434.15,252.7656,1422.15,264.7656,1296.15,264.7656,1284.15,252.7656" style="stroke: #038048; stroke-width: 1.5;"/><polygon fill="#D7E0F2" points="1446.15,240.7656,1497,240.7656,1509,252.7656,1497,264.7656,1446.15,264.7656,1434.15,252.7656" style="stroke: #038048; stroke-width: 1.5;"/><line style="stroke: #038048; stroke-width: 1.5;" x1="1509" x2="1584" y1="252.7656" y2="252.7656"/><text fill="#33335B" font-family="sans-serif" font-size="12" lengthAdjust="spacingAndGlyphs" textLength="8" x="155" y="256.9199">A</text><text fill="#33335B" font-family="sans-serif" font-size="12" lengthAdjust="spacingAndGlyphs" textLength="8" x="267.5" y="256.9199">A</text><text fill="#33335B" font-family="sans-serif" font-size="12" lengthAdjust="spacingAndGlyphs" textLength="8" x="342.5" y="256.9199">B</text><text fill="#33335B" font-family="sans-serif" font-size="12" lengthAdjust="spacingAndGlyphs" textLength="8" x="455" y="256.9199">B</text><text fill="#33335B" font-family="sans-serif" font-size="12" lengthAdjust="spacingAndGlyphs" textLength="8" x="567.5" y="256.9199">B</text><text fill="#33335B" font-family="sans-serif" font-size="12" lengthAdjust="spacingAndGlyphs" textLength="8" x="755" y="256.9199">A</text><text fill="#33335B" font-family="sans-serif" font-size="12" lengthAdjust="spacingAndGlyphs" textLength="8" x="867.5" y="256.9199">A</text><text fill="#33335B" font-family="sans-serif" font-size="12" lengthAdjust="spacingAndGlyphs" textLength="8" x="1055.15" y="256.9199">B</text><text fill="#33335B" font-family="sans-serif" font-size="12" lengthAdjust="spacingAndGlyphs" textLength="8" x="1205.15" y="256.9199">B</text><text fill="#33335B" font-family="sans-serif" font-size="12" lengthAdjust="spacingAndGlyphs" textLength="8" x="1355.15" y="256.9199">A</text><text fill="#33335B" font-family="sans-serif" font-size="12" lengthAdjust="spacingAndGlyphs" textLength="8" x="1467.575" y="256.9199">A</text><line style="stroke: #000000; stroke-width: 1.7;" x1="10" x2="1589" y1="218.8281" y2="218.8281"/><text fill="#33335B" font-family="sans-serif" font-size="12" lengthAdjust="spacingAndGlyphs" textLength="25" x="15" y="293.9043">DSP</text><line style="stroke: #000000; stroke-width: 1.0;" x1="10" x2="41" y1="297.7344" y2="297.7344"/><line style="stroke: #000000; stroke-width: 1.0;" x1="41" x2="51" y1="297.7344" y2="282.7656"/><line style="stroke: #038048; stroke-width: 1.5;" x1="84" x2="609" y1="330.7031" y2="330.7031"/><line style="stroke: #038048; stroke-width: 1.5;" x1="609" x2="684" y1="310.7031" y2="310.7031"/><line style="stroke: #038048; stroke-width: 1.5;" x1="684" x2="909" y1="330.7031" y2="330.7031"/><line style="stroke: #038048; stroke-width: 1.5;" x1="909" x2="984" y1="310.7031" y2="310.7031"/><line style="stroke: #038048; stroke-width: 1.5;" x1="984" x2="984.15" y1="310.7031" y2="310.7031"/><line style="stroke: #038048; stroke-width: 1.5;" x1="984.15" x2="1509" y1="330.7031" y2="330.7031"/><line style="stroke: #038048; stroke-width: 1.5;" x1="1509" x2="1584" y1="310.7031" y2="310.7031"/><line style="stroke: #038048; stroke-width: 1.5;" x1="609" x2="609" y1="310.7031" y2="330.7031"/><line style="stroke: #038048; stroke-width: 1.5;" x1="684" x2="684" y1="310.7031" y2="330.7031"/><line style="stroke: #038048; stroke-width: 1.5;" x1="909" x2="909" y1="310.7031" y2="330.7031"/><line style="stroke: #038048; stroke-width: 1.5;" x1="984" x2="984" y1="310.7031" y2="310.7031"/><line style="stroke: #038048; stroke-width: 1.5;" x1="984.15" x2="984.15" y1="310.7031" y2="330.7031"/><line style="stroke: #038048; stroke-width: 1.5;" x1="1509" x2="1509" y1="310.7031" y2="330.7031"/><text fill="#33335B" font-family="sans-serif" font-size="12" lengthAdjust="spacingAndGlyphs" textLength="69" x="15" y="327.873">Scheduling</text><text fill="#33335B" font-family="sans-serif" font-size="12" lengthAdjust="spacingAndGlyphs" textLength="22" x="15" y="307.873">Idle</text><line style="stroke: #000000; stroke-width: 1.7;" x1="10" x2="1589" y1="282.7656" y2="282.7656"/><text fill="#33335B" font-family="sans-serif" font-size="12" lengthAdjust="spacingAndGlyphs" textLength="93" x="15" y="371.8418">Timer interrupt</text><line style="stroke: #000000; stroke-width: 1.0;" x1="10" x2="109" y1="375.6719" y2="375.6719"/><line style="stroke: #000000; stroke-width: 1.0;" x1="109" x2="119" y1="375.6719" y2="360.7031"/><line style="stroke: #000000; stroke-width: 1.7;" x1="10" x2="1589" y1="360.7031" y2="360.7031"/><line style="stroke: #000000; stroke-width: 2.0;" x1="84" x2="84" y1="424.6406" y2="429.6406"/><line style="stroke: #000000; stroke-width: 2.0;" x1="234" x2="234" y1="424.6406" y2="429.6406"/><line style="stroke: #000000; stroke-width: 2.0;" x1="384" x2="384" y1="424.6406" y2="429.6406"/><line style="stroke: #000000; stroke-width: 2.0;" x1="534" x2="534" y1="424.6406" y2="429.6406"/><line style="stroke: #000000; stroke-width: 2.0;" x1="684" x2="684" y1="424.6406" y2="429.6406"/><line style="stroke: #000000; stroke-width: 2.0;" x1="834" x2="834" y1="424.6406" y2="429.6406"/><line style="stroke: #000000; stroke-width: 2.0;" x1="984" x2="984" y1="424.6406" y2="429.6406"/><line style="stroke: #000000; stroke-width: 2.0;" x1="1134" x2="1134" y1="424.6406" y2="429.6406"/><line style="stroke: #000000; stroke-width: 2.0;" x1="1284" x2="1284" y1="424.6406" y2="429.6406"/><line style="stroke: #000000; stroke-width: 2.0;" x1="1434" x2="1434" y1="424.6406" y2="429.6406"/><line style="stroke: #000000; stroke-width: 2.0;" x1="1584" x2="1584" y1="424.6406" y2="429.6406"/><line style="stroke: #000000; stroke-width: 2.0;" x1="84" x2="1584" y1="424.6406" y2="424.6406"/><text fill="#33335B" font-family="sans-serif" font-size="12" lengthAdjust="spacingAndGlyphs" textLength="8" x="80" y="441.7793">0</text><text fill="#33335B" font-family="sans-serif" font-size="12" lengthAdjust="spacingAndGlyphs" textLength="8" x="230" y="441.7793">1</text><text fill="#33335B" font-family="sans-serif" font-size="12" lengthAdjust="spacingAndGlyphs" textLength="8" x="380" y="441.7793">2</text><text fill="#33335B" font-family="sans-serif" font-size="12" lengthAdjust="spacingAndGlyphs" textLength="8" x="530" y="441.7793">3</text><text fill="#33335B" font-family="sans-serif" font-size="12" lengthAdjust="spacingAndGlyphs" textLength="8" x="680" y="441.7793">4</text><text fill="#33335B" font-family="sans-serif" font-size="12" lengthAdjust="spacingAndGlyphs" textLength="8" x="830" y="441.7793">5</text><text fill="#33335B" font-family="sans-serif" font-size="12" lengthAdjust="spacingAndGlyphs" textLength="8" x="980" y="441.7793">6</text><text fill="#33335B" font-family="sans-serif" font-size="12" lengthAdjust="spacingAndGlyphs" textLength="8" x="1130" y="441.7793">7</text><text fill="#33335B" font-family="sans-serif" font-size="12" lengthAdjust="spacingAndGlyphs" textLength="8" x="1280" y="441.7793">8</text><text fill="#33335B" font-family="sans-serif" font-size="12" lengthAdjust="spacingAndGlyphs" textLength="8" x="1430" y="441.7793">9</text><text fill="#33335B" font-family="sans-serif" font-size="12" lengthAdjust="spacingAndGlyphs" textLength="16" x="1576" y="441.7793">10</text><line style="stroke: #FFA500; stroke-width: 1.0;" x1="84" x2="84" y1="252.7656" y2="188.8281"/><polygon fill="#FFA500" points="86.7362,196.3457,81.2638,196.3457,84,188.8281" style="stroke: #FFA500; stroke-width: 1.0;"/><line style="stroke: #FFA500; stroke-width: 1.0;" x1="234" x2="234" y1="252.7656" y2="200.8281"/><polygon fill="#FFA500" points="236.7362,208.3457,231.2638,208.3457,234,200.8281" style="stroke: #FFA500; stroke-width: 1.0;"/><line style="stroke: #FFA500; stroke-width: 1.0;" x1="309" x2="309" y1="252.7656" y2="188.8281"/><polygon fill="#FFA500" points="311.7362,196.3457,306.2638,196.3457,309,188.8281" style="stroke: #FFA500; stroke-width: 1.0;"/><line style="stroke: #A52A2A; stroke-width: 1.0;" x1="309" x2="84" y1="252.7656" y2="94.8906"/><polygon fill="#A52A2A" points="91.7254,96.9687,88.5822,101.4483,84,94.8906" style="stroke: #A52A2A; stroke-width: 1.0;"/><line style="stroke: #A52A2A; stroke-width: 1.0;" x1="384" x2="159" y1="252.7656" y2="106.8906"/><polygon fill="#A52A2A" points="166.7963,108.6843,163.8193,113.2761,159,106.8906" style="stroke: #A52A2A; stroke-width: 1.0;"/><line style="stroke: #A52A2A; stroke-width: 1.0;" x1="534" x2="309" y1="252.7656" y2="106.8906"/><polygon fill="#A52A2A" points="316.7963,108.6843,313.8193,113.2761,309,106.8906" style="stroke: #A52A2A; stroke-width: 1.0;"/><line style="stroke: #A52A2A; stroke-width: 1.0;" x1="609" x2="384" y1="252.7656" y2="94.8906"/><polygon fill="#A52A2A" points="391.7254,96.9687,388.5822,101.4483,384,94.8906" style="stroke: #A52A2A; stroke-width: 1.0;"/><line style="stroke: #9400D3; stroke-width: 1.0;" x1="84" x2="84" y1="382.6406" y2="330.7031"/><polygon fill="#9400D3" points="86.7362,338.2207,81.2638,338.2207,84,330.7031" style="stroke: #9400D3; stroke-width: 1.0;"/><line style="stroke: #0000FF; stroke-width: 1.0;" x1="84" x2="84" y1="330.7031" y2="252.7656"/><polygon fill="#0000FF" points="86.7362,260.2832,81.2638,260.2832,84,252.7656" style="stroke: #0000FF; stroke-width: 1.0;"/><line style="stroke: #9400D3; stroke-width: 1.0;" x1="234" x2="234" y1="382.6406" y2="330.7031"/><polygon fill="#9400D3" points="236.7362,338.2207,231.2638,338.2207,234,330.7031" style="stroke: #9400D3; stroke-width: 1.0;"/><line style="stroke: #0000FF; stroke-width: 1.0;" x1="234" x2="234" y1="330.7031" y2="252.7656"/><polygon fill="#0000FF" points="236.7362,260.2832,231.2638,260.2832,234,252.7656" style="stroke: #0000FF; stroke-width: 1.0;"/><line style="stroke: #0000FF; stroke-width: 1.0;" x1="309" x2="309" y1="252.7656" y2="330.7031"/><polygon fill="#0000FF" points="306.2638,323.1856,311.7362,323.1856,309,330.7031" style="stroke: #0000FF; stroke-width: 1.0;"/><line style="stroke: #0000FF; stroke-width: 1.0;" x1="309" x2="309" y1="330.7031" y2="252.7656"/><polygon fill="#0000FF" points="311.7362,260.2832,306.2638,260.2832,309,252.7656" style="stroke: #0000FF; stroke-width: 1.0;"/><line style="stroke: #9400D3; stroke-width: 1.0;" x1="384" x2="384" y1="382.6406" y2="330.7031"/><polygon fill="#9400D3" points="386.7362,338.2207,381.2638,338.2207,384,330.7031" style="stroke: #9400D3; stroke-width: 1.0;"/><line style="stroke: #0000FF; stroke-width: 1.0;" x1="384" x2="384" y1="330.7031" y2="252.7656"/><polygon fill="#0000FF" points="386.7362,260.2832,381.2638,260.2832,384,252.7656" style="stroke: #0000FF; stroke-width: 1.0;"/><line style="stroke: #9400D3; stroke-width: 1.0;" x1="534" x2="534" y1="382.6406" y2="330.7031"/><polygon fill="#9400D3" points="536.7362,338.2207,531.2638,338.2207,534,330.7031" style="stroke: #9400D3; stroke-width: 1.0;"/><line style="stroke: #0000FF; stroke-width: 1.0;" x1="534" x2="534" y1="330.7031" y2="252.7656"/><polygon fill="#0000FF" points="536.7362,260.2832,531.2638,260.2832,534,252.7656" style="stroke: #0000FF; stroke-width: 1.0;"/><line style="stroke: #0000FF; stroke-width: 1.0;" x1="609" x2="609" y1="252.7656" y2="310.7031"/><polygon fill="#0000FF" points="606.2638,303.1856,611.7362,303.1856,609,310.7031" style="stroke: #0000FF; stroke-width: 1.0;"/><line style="stroke: #9400D3; stroke-width: 1.0;" x1="684" x2="684" y1="382.6406" y2="330.7031"/><polygon fill="#9400D3" points="686.7362,338.2207,681.2638,338.2207,684,330.7031" style="stroke: #9400D3; stroke-width: 1.0;"/><line style="stroke: #0000FF; stroke-width: 1.0;" x1="684" x2="684" y1="310.7031" y2="252.7656"/><polygon fill="#0000FF" points="686.7362,260.2832,681.2638,260.2832,684,252.7656" style="stroke: #0000FF; stroke-width: 1.0;"/><line style="stroke: #9400D3; stroke-width: 1.0;" x1="834" x2="834" y1="382.6406" y2="330.7031"/><polygon fill="#9400D3" points="836.7362,338.2207,831.2638,338.2207,834,330.7031" style="stroke: #9400D3; stroke-width: 1.0;"/><line style="stroke: #0000FF; stroke-width: 1.0;" x1="834" x2="834" y1="330.7031" y2="252.7656"/><polygon fill="#0000FF" points="836.7362,260.2832,831.2638,260.2832,834,252.7656" style="stroke: #0000FF; stroke-width: 1.0;"/><line style="stroke: #0000FF; stroke-width: 1.0;" x1="909" x2="909" y1="252.7656" y2="310.7031"/><polygon fill="#0000FF" points="906.2638,303.1856,911.7362,303.1856,909,310.7031" style="stroke: #0000FF; stroke-width: 1.0;"/><line style="stroke: #9400D3; stroke-width: 1.0;" x1="984.15" x2="984.15" y1="382.6406" y2="330.7031"/><polygon fill="#9400D3" points="986.8862,338.2207,981.4138,338.2207,984.15,330.7031" style="stroke: #9400D3; stroke-width: 1.0;"/><line style="stroke: #0000FF; stroke-width: 1.0;" x1="984.15" x2="984.15" y1="310.7031" y2="252.7656"/><polygon fill="#0000FF" points="986.8862,260.2832,981.4138,260.2832,984.15,252.7656" style="stroke: #0000FF; stroke-width: 1.0;"/><line style="stroke: #9400D3; stroke-width: 1.0;" x1="1134.15" x2="1134.15" y1="382.6406" y2="330.7031"/><polygon fill="#9400D3" points="1136.8862,338.2207,1131.4138,338.2207,1134.15,330.7031" style="stroke: #9400D3; stroke-width: 1.0;"/><line style="stroke: #0000FF; stroke-width: 1.0;" x1="1134.15" x2="1134.15" y1="330.7031" y2="252.7656"/><polygon fill="#0000FF" points="1136.8862,260.2832,1131.4138,260.2832,1134.15,252.7656" style="stroke: #0000FF; stroke-width: 1.0;"/><line style="stroke: #9400D3; stroke-width: 1.0;" x1="1284.15" x2="1284.15" y1="382.6406" y2="330.7031"/><polygon fill="#9400D3" points="1286.8862,338.2207,1281.4138,338.2207,1284.15,330.7031" style="stroke: #9400D3; stroke-width: 1.0;"/><line style="stroke: #0000FF; stroke-width: 1.0;" x1="1284.15" x2="1284.15" y1="330.7031" y2="252.7656"/><polygon fill="#0000FF" points="1286.8862,260.2832,1281.4138,260.2832,1284.15,252.7656" style="stroke: #0000FF; stroke-width: 1.0;"/><line style="stroke: #9400D3; stroke-width: 1.0;" x1="1434.15" x2="1434.15" y1="382.6406" y2="330.7031"/><polygon fill="#9400D3" points="1436.8862,338.2207,1431.4138,338.2207,1434.15,330.7031" style="stroke: #9400D3; stroke-width: 1.0;"/><line style="stroke: #0000FF; stroke-width: 1.0;" x1="1434.15" x2="1434.15" y1="330.7031" y2="252.7656"/><polygon fill="#0000FF" points="1436.8862,260.2832,1431.4138,260.2832,1434.15,252.7656" style="stroke: #0000FF; stroke-width: 1.0;"/><line style="stroke: #0000FF; stroke-width: 1.0;" x1="1509" x2="1509" y1="252.7656" y2="310.7031"/><polygon fill="#0000FF" points="1506.2638,303.1856,1511.7362,303.1856,1509,310.7031" style="stroke: #0000FF; stroke-width: 1.0;"/><rect fill="#DDDDDD" height="107.7813" rx="5" ry="5" style="stroke: #000000; stroke-width: 1.0;" width="426" x="586" y="446.6094"/><text fill="#33335B" font-family="sans-serif" font-size="14" lengthAdjust="spacingAndGlyphs" textLength="95" x="592" y="464.6045">Assumptions:</text><text fill="#33335B" font-family="sans-serif" font-size="14" lengthAdjust="spacingAndGlyphs" textLength="128" x="592" y="480.9014">1) 1ms scheduling</text><text fill="#33335B" font-family="sans-serif" font-size="14" lengthAdjust="spacingAndGlyphs" textLength="387" x="592" y="497.1982">2) No LL tasks assigned to example secondary DSP core</text><text fill="#33335B" font-family="sans-serif" font-size="14" lengthAdjust="spacingAndGlyphs" textLength="349" x="592" y="513.4951">3) DP Task B do not depend on Task A completion</text><text fill="#33335B" font-family="sans-serif" font-size="14" lengthAdjust="spacingAndGlyphs" textLength="414" x="592" y="529.792">(otherwise, Task B would start on next timer interrupt after A</text><text fill="#33335B" font-family="sans-serif" font-size="14" lengthAdjust="spacingAndGlyphs" textLength="82" x="592" y="546.0889">completion)</text><!--MD5=[ae42feaa5504969672ee7fa8bba67037]
@startuml
hidefootbox
skinparam componentStyle uml2

skinparam defaultFontColor	#33335b

skinparam rectangle {
	color		#d6d6de
	backgroundColor	#ffffff
}

skinparam component {
	backgroundColor	#ffffff
	borderColor	#33335b
	arrowColor	#f05772
}

skinparam interface {
	backgroundColor	#ffffff
	borderColor	#f05772
}

skinparam class {
	backgroundColor	#ffffff
	borderColor	#33335b
	arrowColor	#f05772
}
skinparam stereotypeCBackgroundColor	#6fccdd

skinparam sequence {
	arrowColor		#4a4a86
	lifeLineBorderColor	#f05772
	groupBorderColor	#a1a1ca
	boxBorderColor		#a1a1ca
	dividerBorderColor	#d6d6de
	dividerBorderThickness	1
}
skinparam participant {
	borderColor		#33335b
	backgroundColor		#ffffff
}
skinparam actor {
	borderColor		#33335b
	backgroundColor		#ffffff
}

skinparam state {
	borderColor		#33335b
	backgroundColor		#ffffff
}

skinparam node {
	backgroundColor		#ffffff
}

skinparam note {
	backgroundColor 	#f6ed80
	borderColor		#d6d6de
}

skinparam activity {
	borderColor		#33335b
	backgroundColor		#ffffff
}

skinparam activityDiamond {
	borderColor		#33335b
	backgroundColor		#ffffff
}

skinparam arrowColor	#f05772
skinparam maxMessageSize 400
skinparam BoxPadding 4

Title DP tasks scheduling on secondary DSP core

legend
Assumptions:
1) 1ms scheduling
2) No LL tasks assigned to example secondary DSP core
3) DP Task B do not depend on Task A completion
(otherwise, Task B would start on next timer interrupt after A
completion)
end legend

scale 1 as 150 pixels

concise "Task B" as Task_B
concise "Task A" as Task_A

concise "DP task processing" as DP_Processing
robust "DSP" as DSP
concise "Timer interrupt" as Interrupt


@Task_A
0 is Busy
1.5 is {-}

4 is Busy
5.5 is {-}

8 is Busy
9.5 is {-}

@0 <-> @4: Task A schedule period (4ms)
@4 <-> @5.5: Task A execution time (1.5ms)

DP_Processing@0 -[#Orange]> Task_A@0
DP_Processing@1 -[#Orange]> Task_A@1
DP_Processing@1.5 -[#Orange]> Task_A@1.5


@Task_B
0 is Busy
2 is {-}

6 is Busy
8 is {-}

@0 <-> @6: Task B schedule period (6ms)
@6 <-> @8: Task B execution time (2ms)

DP_Processing@1.5 -[#Brown]> Task_B@0
DP_Processing@2 -[#Brown]> Task_B@0.5
DP_Processing@3 -[#Brown]> Task_B@1.5
DP_Processing@3.5 -[#Brown]> Task_B@2

DSP is Idle
DP_Processing is {-}

@0
DP_Processing is "A"

@0
Interrupt -[#DarkViolet]> DSP
DSP -> DP_Processing
DSP is "Scheduling"
DP_Processing is "A"

@1
Interrupt -[#DarkViolet]> DSP
DSP -> DP_Processing
DP_Processing is "A"

@1.5
DP_Processing -> DSP
DSP -> DP_Processing
DP_Processing is "B"

@2
Interrupt -[#DarkViolet]> DSP
DSP -> DP_Processing
DP_Processing is "B"

@3
Interrupt -[#DarkViolet]> DSP
DSP -> DP_Processing
DP_Processing is "B"

@3.5
DP_Processing -> DSP
DSP is Idle
DP_Processing is {-}

@4
Interrupt -[#DarkViolet]> DSP
DSP is "Scheduling"
DSP -> DP_Processing
DP_Processing is "A"

@5
Interrupt -[#DarkViolet]> DSP
DSP -> DP_Processing
DP_Processing is "A"

@5.5
DP_Processing -> DSP
DSP is Idle
DP_Processing is {-}

@6.001
Interrupt -[#DarkViolet]> DSP
DSP -> DP_Processing
DSP is "Scheduling"
DP_Processing is "B"

@7.001
Interrupt -[#DarkViolet]> DSP
DSP -> DP_Processing
DP_Processing is "B"

@8.001
Interrupt -[#DarkViolet]> DSP
DSP -> DP_Processing
DP_Processing is "A"

@9.001
Interrupt -[#DarkViolet]> DSP
DSP -> DP_Processing
DP_Processing is "A"

@9.5
DP_Processing -> DSP
DSP is Idle
DP_Processing is {-}

@enduml

PlantUML version 1.2019.12(Sun Nov 03 10:24:54 UTC 2019)
(GPL source distribution)
Java Runtime: OpenJDK Runtime Environment
JVM: OpenJDK 64-Bit Server VM
Java Version: 11.0.26+4
Operating System: Linux
Default Encoding: UTF-8
Language: en
Country: null
--></g></svg>