<?xml version="1.0" encoding="UTF-8" standalone="no"?><svg xmlns="http://www.w3.org/2000/svg" xmlns:xlink="http://www.w3.org/1999/xlink" contentScriptType="application/ecmascript" contentStyleType="text/css" height="761px" preserveAspectRatio="none" style="width:807px;height:761px;" version="1.1" viewBox="0 0 807 761" width="807px" zoomAndPan="magnify"><defs><filter height="300%" id="f1qn9dopi7m1zr" width="300%" x="-1" y="-1"><feGaussianBlur result="blurOut" stdDeviation="2.0"/><feColorMatrix in="blurOut" result="blurOut2" type="matrix" values="0 0 0 0 0 0 0 0 0 0 0 0 0 0 0 0 0 0 .4 0"/><feOffset dx="4.0" dy="4.0" in="blurOut2" result="blurOut3"/><feBlend in="SourceGraphic" in2="blurOut3" mode="normal"/></filter></defs><g><rect fill="#FFFFFF" filter="url(#f1qn9dopi7m1zr)" height="642.5859" style="stroke: #F05772; stroke-width: 1.0;" width="10" x="35" y="97.6094"/><rect fill="#FFFFFF" filter="url(#f1qn9dopi7m1zr)" height="642.5859" style="stroke: #F05772; stroke-width: 1.0;" width="10" x="484" y="97.6094"/><rect fill="#FFFFFF" filter="url(#f1qn9dopi7m1zr)" height="79.9609" style="stroke: #F05772; stroke-width: 1.0;" width="10" x="642" y="440.125"/><rect fill="#FFFFFF" filter="url(#f1qn9dopi7m1zr)" height="118.0547" style="stroke: #F05772; stroke-width: 1.0;" width="10" x="642" y="606.1406"/><rect fill="#FFFFFF" filter="url(#f1qn9dopi7m1zr)" height="31.6094" style="stroke: #33335B; stroke-width: 1.5;" width="68" x="611" y="407.7734"/><text fill="#33335B" font-family="sans-serif" font-size="14" lengthAdjust="spacingAndGlyphs" textLength="54" x="618" y="429.3066">DSP FW</text><rect fill="#FFFFFF" filter="url(#f1qn9dopi7m1zr)" height="197.1094" style="stroke: #A1A1CA; stroke-width: 2.0;" width="783" x="13" y="535.0859"/><line style="stroke: #F05772; stroke-width: 1.0; stroke-dasharray: 5.0,5.0;" x1="40" x2="40" y1="87.6094" y2="749.1953"/><line style="stroke: #F05772; stroke-width: 1.0; stroke-dasharray: 5.0,5.0;" x1="187" x2="187" y1="87.6094" y2="749.1953"/><line style="stroke: #F05772; stroke-width: 1.0; stroke-dasharray: 5.0,5.0;" x1="296" x2="296" y1="87.6094" y2="749.1953"/><line style="stroke: #F05772; stroke-width: 1.0; stroke-dasharray: 5.0,5.0;" x1="393" x2="393" y1="87.6094" y2="749.1953"/><line style="stroke: #F05772; stroke-width: 1.0; stroke-dasharray: 5.0,5.0;" x1="489" x2="489" y1="87.6094" y2="749.1953"/><line style="stroke: #F05772; stroke-width: 1.0; stroke-dasharray: 5.0,5.0;" x1="647" x2="647" y1="441.0781" y2="749.1953"/><text fill="#33335B" font-family="sans-serif" font-size="14" lengthAdjust="spacingAndGlyphs" textLength="28" x="23" y="84.5332">Host</text><ellipse cx="40" cy="13" fill="#FFFFFF" filter="url(#f1qn9dopi7m1zr)" rx="8" ry="8" style="stroke: #33335B; stroke-width: 2.0;"/><path d="M40,21 L40,48 M27,29 L53,29 M40,48 L27,63 M40,48 L53,63 " fill="none" filter="url(#f1qn9dopi7m1zr)" style="stroke: #33335B; stroke-width: 2.0;"/><rect fill="#FFFFFF" filter="url(#f1qn9dopi7m1zr)" height="31.6094" style="stroke: #33335B; stroke-width: 1.5;" width="110" x="130" y="51"/><text fill="#33335B" font-family="sans-serif" font-size="14" lengthAdjust="spacingAndGlyphs" textLength="96" x="137" y="72.5332">CodeLoadDMA</text><rect fill="#FFFFFF" filter="url(#f1qn9dopi7m1zr)" height="31.6094" style="stroke: #33335B; stroke-width: 1.5;" width="81" x="254" y="51"/><text fill="#33335B" font-family="sans-serif" font-size="14" lengthAdjust="spacingAndGlyphs" textLength="67" x="261" y="72.5332">MemWnd0</text><rect fill="#FFFFFF" filter="url(#f1qn9dopi7m1zr)" height="31.6094" style="stroke: #33335B; stroke-width: 1.5;" width="85" x="349" y="51"/><text fill="#33335B" font-family="sans-serif" font-size="14" lengthAdjust="spacingAndGlyphs" textLength="71" x="356" y="72.5332">DSP Core0</text><rect fill="#FFFFFF" filter="url(#f1qn9dopi7m1zr)" height="31.6094" style="stroke: #33335B; stroke-width: 1.5;" width="78" x="448" y="51"/><text fill="#33335B" font-family="sans-serif" font-size="14" lengthAdjust="spacingAndGlyphs" textLength="64" x="455" y="72.5332">DSP ROM</text><rect fill="#FFFFFF" filter="url(#f1qn9dopi7m1zr)" height="642.5859" style="stroke: #F05772; stroke-width: 1.0;" width="10" x="35" y="97.6094"/><rect fill="#FFFFFF" filter="url(#f1qn9dopi7m1zr)" height="642.5859" style="stroke: #F05772; stroke-width: 1.0;" width="10" x="484" y="97.6094"/><rect fill="#FFFFFF" filter="url(#f1qn9dopi7m1zr)" height="79.9609" style="stroke: #F05772; stroke-width: 1.0;" width="10" x="642" y="440.125"/><rect fill="#FFFFFF" filter="url(#f1qn9dopi7m1zr)" height="118.0547" style="stroke: #F05772; stroke-width: 1.0;" width="10" x="642" y="606.1406"/><polygon fill="#4A4A86" points="175,115.9609,185,119.9609,175,123.9609,179,119.9609" style="stroke: #4A4A86; stroke-width: 1.0;"/><line style="stroke: #4A4A86; stroke-width: 1.0;" x1="45" x2="181" y1="119.9609" y2="119.9609"/><text fill="#33335B" font-family="sans-serif" font-size="13" lengthAdjust="spacingAndGlyphs" textLength="88" x="52" y="115.1045">init_host_side()</text><polygon fill="#4A4A86" points="198,151.3125,188,155.3125,198,159.3125,194,155.3125" style="stroke: #4A4A86; stroke-width: 1.0;"/><line style="stroke: #4A4A86; stroke-width: 1.0;" x1="192" x2="483" y1="155.3125" y2="155.3125"/><text fill="#33335B" font-family="sans-serif" font-size="13" lengthAdjust="spacingAndGlyphs" textLength="84" x="204" y="150.4561">init_dsp_side()</text><path d="M499,132.9609 L499,158.9609 L649,158.9609 L649,142.9609 L639,132.9609 L499,132.9609 " fill="#F6ED80" filter="url(#f1qn9dopi7m1zr)" style="stroke: #D6D6DE; stroke-width: 1.0;"/><path d="M639,132.9609 L639,142.9609 L649,142.9609 L639,132.9609 " fill="#F6ED80" style="stroke: #D6D6DE; stroke-width: 1.0;"/><text fill="#33335B" font-family="sans-serif" font-size="13" lengthAdjust="spacingAndGlyphs" textLength="129" x="505" y="151.4561">Unified cAVS1.5+ flow</text><polygon fill="#4A4A86" points="284.5,186.6641,294.5,190.6641,284.5,194.6641,288.5,190.6641" style="stroke: #4A4A86; stroke-width: 1.0;"/><line style="stroke: #4A4A86; stroke-width: 1.0;" x1="45" x2="290.5" y1="190.6641" y2="190.6641"/><text fill="#33335B" font-family="sans-serif" font-size="13" lengthAdjust="spacingAndGlyphs" textLength="189" x="52" y="185.8076">wait for (FSR_ROM_INIT_DONE)</text><polygon fill="#4A4A86" points="307.5,217.0156,297.5,221.0156,307.5,225.0156,303.5,221.0156" style="stroke: #4A4A86; stroke-width: 1.0;"/><line style="stroke: #4A4A86; stroke-width: 1.0;" x1="301.5" x2="483" y1="221.0156" y2="221.0156"/><text fill="#33335B" font-family="sans-serif" font-size="13" lengthAdjust="spacingAndGlyphs" textLength="136" x="313.5" y="216.1592">FSR_ROM_INIT_DONE</text><polygon fill="#4A4A86" points="56,231.0156,46,235.0156,56,239.0156,52,235.0156" style="stroke: #4A4A86; stroke-width: 1.0;"/><line style="stroke: #4A4A86; stroke-width: 1.0; stroke-dasharray: 2.0,2.0;" x1="50" x2="295.5" y1="235.0156" y2="235.0156"/><polygon fill="#4A4A86" points="175,261.3672,185,265.3672,175,269.3672,179,265.3672" style="stroke: #4A4A86; stroke-width: 1.0;"/><line style="stroke: #4A4A86; stroke-width: 1.0;" x1="45" x2="181" y1="265.3672" y2="265.3672"/><text fill="#33335B" font-family="sans-serif" font-size="13" lengthAdjust="spacingAndGlyphs" textLength="118" x="52" y="260.5107">write(base fw binary)</text><polygon fill="#4A4A86" points="198,291.7188,188,295.7188,198,299.7188,194,295.7188" style="stroke: #4A4A86; stroke-width: 1.0;"/><line style="stroke: #4A4A86; stroke-width: 1.0;" x1="192" x2="483" y1="295.7188" y2="295.7188"/><text fill="#33335B" font-family="sans-serif" font-size="13" lengthAdjust="spacingAndGlyphs" textLength="142" x="204" y="290.8623">read() : base fw manifest</text><line style="stroke: #4A4A86; stroke-width: 1.0;" x1="494" x2="536" y1="326.0703" y2="326.0703"/><line style="stroke: #4A4A86; stroke-width: 1.0;" x1="536" x2="536" y1="326.0703" y2="339.0703"/><line style="stroke: #4A4A86; stroke-width: 1.0;" x1="495" x2="536" y1="339.0703" y2="339.0703"/><polygon fill="#4A4A86" points="505,335.0703,495,339.0703,505,343.0703,501,339.0703" style="stroke: #4A4A86; stroke-width: 1.0;"/><text fill="#33335B" font-family="sans-serif" font-size="13" lengthAdjust="spacingAndGlyphs" textLength="134" x="501" y="321.2139">veirfy(base fw manifest)</text><polygon fill="#4A4A86" points="198,365.4219,188,369.4219,198,373.4219,194,369.4219" style="stroke: #4A4A86; stroke-width: 1.0;"/><line style="stroke: #4A4A86; stroke-width: 1.0;" x1="192" x2="483" y1="369.4219" y2="369.4219"/><text fill="#33335B" font-family="sans-serif" font-size="13" lengthAdjust="spacingAndGlyphs" textLength="121" x="204" y="364.5654">read() : base fw code</text><polygon fill="#4A4A86" points="307.5,395.7734,297.5,399.7734,307.5,403.7734,303.5,399.7734" style="stroke: #4A4A86; stroke-width: 1.0;"/><line style="stroke: #4A4A86; stroke-width: 1.0;" x1="301.5" x2="483" y1="399.7734" y2="399.7734"/><text fill="#33335B" font-family="sans-serif" font-size="13" lengthAdjust="spacingAndGlyphs" textLength="159" x="313.5" y="394.917">FSR_ROM_FW_ENTERED</text><polygon fill="#4A4A86" points="599,426.125,609,430.125,599,434.125,603,430.125" style="stroke: #4A4A86; stroke-width: 1.0;"/><line style="stroke: #4A4A86; stroke-width: 1.0;" x1="494" x2="605" y1="430.125" y2="430.125"/><text fill="#33335B" font-family="sans-serif" font-size="13" lengthAdjust="spacingAndGlyphs" textLength="34" x="501" y="425.2686">start()</text><rect fill="#FFFFFF" filter="url(#f1qn9dopi7m1zr)" height="31.6094" style="stroke: #33335B; stroke-width: 1.5;" width="68" x="611" y="407.7734"/><text fill="#33335B" font-family="sans-serif" font-size="14" lengthAdjust="spacingAndGlyphs" textLength="54" x="618" y="429.3066">DSP FW</text><line style="stroke: #4A4A86; stroke-width: 1.0;" x1="652" x2="694" y1="476.7344" y2="476.7344"/><line style="stroke: #4A4A86; stroke-width: 1.0;" x1="694" x2="694" y1="476.7344" y2="489.7344"/><line style="stroke: #4A4A86; stroke-width: 1.0;" x1="653" x2="694" y1="489.7344" y2="489.7344"/><polygon fill="#4A4A86" points="663,485.7344,653,489.7344,663,493.7344,659,489.7344" style="stroke: #4A4A86; stroke-width: 1.0;"/><text fill="#33335B" font-family="sans-serif" font-size="13" lengthAdjust="spacingAndGlyphs" textLength="76" x="659" y="471.8779">initialization()</text><polygon fill="#4A4A86" points="56,516.0859,46,520.0859,56,524.0859,52,520.0859" style="stroke: #4A4A86; stroke-width: 1.0;"/><line style="stroke: #4A4A86; stroke-width: 1.0;" x1="50" x2="646" y1="520.0859" y2="520.0859"/><text fill="#33335B" font-family="sans-serif" font-size="13" lengthAdjust="spacingAndGlyphs" textLength="187" x="62" y="515.2295">&lt;&lt;IPC Notification&gt;&gt; FW Ready</text><path d="M13,535.0859 L86,535.0859 L86,543.0859 L76,553.0859 L13,553.0859 L13,535.0859 " fill="#EEEEEE" style="stroke: #A1A1CA; stroke-width: 1.0;"/><rect fill="none" height="197.1094" style="stroke: #A1A1CA; stroke-width: 2.0;" width="783" x="13" y="535.0859"/><text fill="#33335B" font-family="sans-serif" font-size="13" font-weight="bold" lengthAdjust="spacingAndGlyphs" textLength="28" x="28" y="549.5811">loop</text><text fill="#33335B" font-family="sans-serif" font-size="11" font-weight="bold" lengthAdjust="spacingAndGlyphs" textLength="97" x="101" y="548.5049">[libraries loading]</text><polygon fill="#4A4A86" points="175,571.7891,185,575.7891,175,579.7891,179,575.7891" style="stroke: #4A4A86; stroke-width: 1.0;"/><line style="stroke: #4A4A86; stroke-width: 1.0;" x1="45" x2="181" y1="575.7891" y2="575.7891"/><text fill="#33335B" font-family="sans-serif" font-size="13" lengthAdjust="spacingAndGlyphs" textLength="109" x="52" y="570.9326">write(library binary)</text><polygon fill="#4A4A86" points="630,602.1406,640,606.1406,630,610.1406,634,606.1406" style="stroke: #4A4A86; stroke-width: 1.0;"/><line style="stroke: #4A4A86; stroke-width: 1.0;" x1="45" x2="636" y1="606.1406" y2="606.1406"/><text fill="#33335B" font-family="sans-serif" font-size="13" lengthAdjust="spacingAndGlyphs" textLength="128" x="52" y="601.2842">&lt;&lt;IPC&gt;&gt; Load Library</text><polygon fill="#4A4A86" points="198,632.4922,188,636.4922,198,640.4922,194,636.4922" style="stroke: #4A4A86; stroke-width: 1.0;"/><line style="stroke: #4A4A86; stroke-width: 1.0;" x1="192" x2="641" y1="636.4922" y2="636.4922"/><text fill="#33335B" font-family="sans-serif" font-size="13" lengthAdjust="spacingAndGlyphs" textLength="133" x="204" y="631.6357">read() : library manifest</text><line style="stroke: #4A4A86; stroke-width: 1.0;" x1="652" x2="694" y1="666.8438" y2="666.8438"/><line style="stroke: #4A4A86; stroke-width: 1.0;" x1="694" x2="694" y1="666.8438" y2="679.8438"/><line style="stroke: #4A4A86; stroke-width: 1.0;" x1="653" x2="694" y1="679.8438" y2="679.8438"/><polygon fill="#4A4A86" points="663,675.8438,653,679.8438,663,683.8438,659,679.8438" style="stroke: #4A4A86; stroke-width: 1.0;"/><text fill="#33335B" font-family="sans-serif" font-size="13" lengthAdjust="spacingAndGlyphs" textLength="125" x="659" y="661.9873">verify(library manifest)</text><polygon fill="#4A4A86" points="198,706.1953,188,710.1953,198,714.1953,194,710.1953" style="stroke: #4A4A86; stroke-width: 1.0;"/><line style="stroke: #4A4A86; stroke-width: 1.0;" x1="192" x2="641" y1="710.1953" y2="710.1953"/><text fill="#33335B" font-family="sans-serif" font-size="13" lengthAdjust="spacingAndGlyphs" textLength="112" x="204" y="705.3389">read() : library code</text><polygon fill="#4A4A86" points="56,720.1953,46,724.1953,56,728.1953,52,724.1953" style="stroke: #4A4A86; stroke-width: 1.0;"/><line style="stroke: #4A4A86; stroke-width: 1.0; stroke-dasharray: 2.0,2.0;" x1="50" x2="646" y1="724.1953" y2="724.1953"/><!--MD5=[42e26cb6053186f60af0d4db4d5c372d]
@startuml
hidefootbox
skinparam componentStyle uml2

skinparam defaultFontColor	#33335b

skinparam rectangle {
	color		#d6d6de
	backgroundColor	#ffffff
}

skinparam component {
	backgroundColor	#ffffff
	borderColor	#33335b
	arrowColor	#f05772
}

skinparam interface {
	backgroundColor	#ffffff
	borderColor	#f05772
}

skinparam class {
	backgroundColor	#ffffff
	borderColor	#33335b
	arrowColor	#f05772
}
skinparam stereotypeCBackgroundColor	#6fccdd

skinparam sequence {
	arrowColor		#4a4a86
	lifeLineBorderColor	#f05772
	groupBorderColor	#a1a1ca
	boxBorderColor		#a1a1ca
	dividerBorderColor	#d6d6de
	dividerBorderThickness	1
}
skinparam participant {
	borderColor		#33335b
	backgroundColor		#ffffff
}
skinparam actor {
	borderColor		#33335b
	backgroundColor		#ffffff
}

skinparam state {
	borderColor		#33335b
	backgroundColor		#ffffff
}

skinparam node {
	backgroundColor		#ffffff
}

skinparam note {
	backgroundColor 	#f6ed80
	borderColor		#d6d6de
}
actor host as "Host"
participant cldma as "CodeLoadDMA"
participant mw0 as "MemWnd0"
participant core0 as "DSP Core0"
participant rom as "DSP ROM"
participant fw as "DSP FW"

activate rom
activate host
host -> cldma : init_host_side()

rom -> cldma : init_dsp_side()
note right: Unified cAVS1.5+ flow

host -> mw0 : wait for (FSR_ROM_INIT_DONE)
  mw0 <- rom : FSR_ROM_INIT_DONE
host <- - mw0

host -> cldma : write(base fw binary)
  cldma <- rom : read() : base fw manifest
  rom -> rom : veirfy(base fw manifest)
  cldma <- rom : read() : base fw code
  mw0 <- rom : FSR_ROM_FW_ENTERED

  create fw
  rom -> fw : start()
    activate fw
    fw -> fw : initialization()
    host <- fw : <<IPC Notification>> FW Ready
    deactivate fw

loop libraries loading
  host -> cldma : write(library binary)
  host -> fw : <<IPC>> Load Library
    activate fw
    cldma <- fw : read() : library manifest
    fw -> fw : verify(library manifest)
    cldma <- fw : read() : library code
    host <- - fw
    deactivate fw
end loop

@enduml

PlantUML version 1.2019.12(Sun Nov 03 11:24:54 CET 2019)
(GPL source distribution)
Java Runtime: OpenJDK Runtime Environment
JVM: OpenJDK 64-Bit Server VM
Java Version: 1.8.0_302-b08
Operating System: Windows 10
Default Encoding: Cp1252
Language: en
Country: US
--></g></svg>