<?xml version="1.0" encoding="UTF-8" standalone="no"?><svg xmlns="http://www.w3.org/2000/svg" xmlns:xlink="http://www.w3.org/1999/xlink" contentScriptType="application/ecmascript" contentStyleType="text/css" height="587px" preserveAspectRatio="none" style="width:1596px;height:587px;" version="1.1" viewBox="0 0 1596 587" width="1596px" zoomAndPan="magnify"><defs/><g><text fill="#33335B" font-family="sans-serif" font-size="18" lengthAdjust="spacingAndGlyphs" textLength="358" x="617" y="28.6855">DP tasks scheduling on secondary DSP core</text><line style="stroke: #000000; stroke-width: 1.7;" x1="10" x2="10" y1="32.6406" y2="437.5781"/><line style="stroke: #000000; stroke-width: 1.7;" x1="1582" x2="1582" y1="32.6406" y2="437.5781"/><line style="stroke: #AAAAAA; stroke-width: 0.5; stroke-dasharray: 3.0,5.0;" x1="77" x2="77" y1="32.6406" y2="437.5781"/><line style="stroke: #AAAAAA; stroke-width: 0.5; stroke-dasharray: 3.0,5.0;" x1="227" x2="227" y1="32.6406" y2="437.5781"/><line style="stroke: #AAAAAA; stroke-width: 0.5; stroke-dasharray: 3.0,5.0;" x1="377" x2="377" y1="32.6406" y2="437.5781"/><line style="stroke: #AAAAAA; stroke-width: 0.5; stroke-dasharray: 3.0,5.0;" x1="527" x2="527" y1="32.6406" y2="437.5781"/><line style="stroke: #AAAAAA; stroke-width: 0.5; stroke-dasharray: 3.0,5.0;" x1="677" x2="677" y1="32.6406" y2="437.5781"/><line style="stroke: #AAAAAA; stroke-width: 0.5; stroke-dasharray: 3.0,5.0;" x1="827" x2="827" y1="32.6406" y2="437.5781"/><line style="stroke: #AAAAAA; stroke-width: 0.5; stroke-dasharray: 3.0,5.0;" x1="977" x2="977" y1="32.6406" y2="437.5781"/><line style="stroke: #AAAAAA; stroke-width: 0.5; stroke-dasharray: 3.0,5.0;" x1="1127" x2="1127" y1="32.6406" y2="437.5781"/><line style="stroke: #AAAAAA; stroke-width: 0.5; stroke-dasharray: 3.0,5.0;" x1="1277" x2="1277" y1="32.6406" y2="437.5781"/><line style="stroke: #AAAAAA; stroke-width: 0.5; stroke-dasharray: 3.0,5.0;" x1="1427" x2="1427" y1="32.6406" y2="437.5781"/><line style="stroke: #AAAAAA; stroke-width: 0.5; stroke-dasharray: 3.0,5.0;" x1="1577" x2="1577" y1="32.6406" y2="437.5781"/><text fill="#33335B" font-family="sans-serif" font-size="12" lengthAdjust="spacingAndGlyphs" textLength="38" x="15" y="45.0977">Task B</text><line style="stroke: #000000; stroke-width: 1.0;" x1="10" x2="54" y1="48.7344" y2="48.7344"/><line style="stroke: #000000; stroke-width: 1.0;" x1="54" x2="64" y1="48.7344" y2="32.6406"/><polygon fill="#D7E0F2" points="89,86.8281,365,86.8281,377,98.8281,365,110.8281,89,110.8281,77,98.8281" style="stroke: #038048; stroke-width: 1.5;"/><line style="stroke: #038048; stroke-width: 1.5;" x1="377" x2="977" y1="98.8281" y2="98.8281"/><polygon fill="#D7E0F2" points="989,86.8281,1265,86.8281,1277,98.8281,1265,110.8281,989,110.8281,977,98.8281" style="stroke: #038048; stroke-width: 1.5;"/><line style="stroke: #038048; stroke-width: 1.5;" x1="1277" x2="1577" y1="98.8281" y2="98.8281"/><text fill="#33335B" font-family="sans-serif" font-size="12" lengthAdjust="spacingAndGlyphs" textLength="27" x="213.5" y="103.7383">Busy</text><text fill="#33335B" font-family="sans-serif" font-size="12" lengthAdjust="spacingAndGlyphs" textLength="27" x="1113.5" y="103.7383">Busy</text><line style="stroke: #FF0000; stroke-width: 1.0;" x1="77" x2="977" y1="77.8281" y2="77.8281"/><polygon fill="#FF0000" points="84.5175,75.092,84.5175,80.5643,77,77.8281" style="stroke: #FF0000; stroke-width: 1.0;"/><polygon fill="#FF0000" points="969.4825,80.5643,969.4825,75.092,977,77.8281" style="stroke: #FF0000; stroke-width: 1.0;"/><text fill="#000000" font-family="Serif" font-size="14" lengthAdjust="spacingAndGlyphs" textLength="170" x="442" y="69.752">Task B schedule period (6ms)</text><line style="stroke: #FF0000; stroke-width: 1.0;" x1="977" x2="1277" y1="77.8281" y2="77.8281"/><polygon fill="#FF0000" points="984.5175,75.092,984.5175,80.5643,977,77.8281" style="stroke: #FF0000; stroke-width: 1.0;"/><polygon fill="#FF0000" points="1269.4825,80.5643,1269.4825,75.092,1277,77.8281" style="stroke: #FF0000; stroke-width: 1.0;"/><text fill="#000000" font-family="Serif" font-size="14" lengthAdjust="spacingAndGlyphs" textLength="164" x="1045" y="69.752">Task B execution time (2ms)</text><line style="stroke: #000000; stroke-width: 1.7;" x1="10" x2="1582" y1="32.6406" y2="32.6406"/><text fill="#33335B" font-family="sans-serif" font-size="12" lengthAdjust="spacingAndGlyphs" textLength="37" x="15" y="141.2852">Task A</text><line style="stroke: #000000; stroke-width: 1.0;" x1="10" x2="53" y1="144.9219" y2="144.9219"/><line style="stroke: #000000; stroke-width: 1.0;" x1="53" x2="63" y1="144.9219" y2="128.8281"/><polygon fill="#D7E0F2" points="89,183.0156,290,183.0156,302,195.0156,290,207.0156,89,207.0156,77,195.0156" style="stroke: #038048; stroke-width: 1.5;"/><line style="stroke: #038048; stroke-width: 1.5;" x1="302" x2="677" y1="195.0156" y2="195.0156"/><polygon fill="#D7E0F2" points="689,183.0156,890,183.0156,902,195.0156,890,207.0156,689,207.0156,677,195.0156" style="stroke: #038048; stroke-width: 1.5;"/><line style="stroke: #038048; stroke-width: 1.5;" x1="902" x2="1277" y1="195.0156" y2="195.0156"/><polygon fill="#D7E0F2" points="1289,183.0156,1490,183.0156,1502,195.0156,1490,207.0156,1289,207.0156,1277,195.0156" style="stroke: #038048; stroke-width: 1.5;"/><line style="stroke: #038048; stroke-width: 1.5;" x1="1502" x2="1577" y1="195.0156" y2="195.0156"/><text fill="#33335B" font-family="sans-serif" font-size="12" lengthAdjust="spacingAndGlyphs" textLength="27" x="176" y="199.9258">Busy</text><text fill="#33335B" font-family="sans-serif" font-size="12" lengthAdjust="spacingAndGlyphs" textLength="27" x="776" y="199.9258">Busy</text><text fill="#33335B" font-family="sans-serif" font-size="12" lengthAdjust="spacingAndGlyphs" textLength="27" x="1376" y="199.9258">Busy</text><line style="stroke: #FF0000; stroke-width: 1.0;" x1="77" x2="677" y1="174.0156" y2="174.0156"/><polygon fill="#FF0000" points="84.5175,171.2795,84.5175,176.7518,77,174.0156" style="stroke: #FF0000; stroke-width: 1.0;"/><polygon fill="#FF0000" points="669.4825,176.7518,669.4825,171.2795,677,174.0156" style="stroke: #FF0000; stroke-width: 1.0;"/><text fill="#000000" font-family="Serif" font-size="14" lengthAdjust="spacingAndGlyphs" textLength="171" x="291.5" y="165.9395">Task A schedule period (4ms)</text><line style="stroke: #FF0000; stroke-width: 1.0;" x1="677" x2="902" y1="174.0156" y2="174.0156"/><polygon fill="#FF0000" points="684.5175,171.2795,684.5175,176.7518,677,174.0156" style="stroke: #FF0000; stroke-width: 1.0;"/><polygon fill="#FF0000" points="894.4825,176.7518,894.4825,171.2795,902,174.0156" style="stroke: #FF0000; stroke-width: 1.0;"/><text fill="#000000" font-family="Serif" font-size="14" lengthAdjust="spacingAndGlyphs" textLength="176" x="701.5" y="165.9395">Task A execution time (1.5ms)</text><line style="stroke: #000000; stroke-width: 1.7;" x1="10" x2="1582" y1="128.8281" y2="128.8281"/><text fill="#33335B" font-family="sans-serif" font-size="12" lengthAdjust="spacingAndGlyphs" textLength="108" x="15" y="237.4727">DP task processing</text><line style="stroke: #000000; stroke-width: 1.0;" x1="10" x2="124" y1="241.1094" y2="241.1094"/><line style="stroke: #000000; stroke-width: 1.0;" x1="124" x2="134" y1="241.1094" y2="225.0156"/><polygon fill="#D7E0F2" points="89,249.2031,215,249.2031,227,261.2031,215,273.2031,89,273.2031,77,261.2031" style="stroke: #038048; stroke-width: 1.5;"/><polygon fill="#D7E0F2" points="239,249.2031,290,249.2031,302,261.2031,290,273.2031,239,273.2031,227,261.2031" style="stroke: #038048; stroke-width: 1.5;"/><polygon fill="#D7E0F2" points="314,249.2031,365,249.2031,377,261.2031,365,273.2031,314,273.2031,302,261.2031" style="stroke: #038048; stroke-width: 1.5;"/><polygon fill="#D7E0F2" points="389,249.2031,515,249.2031,527,261.2031,515,273.2031,389,273.2031,377,261.2031" style="stroke: #038048; stroke-width: 1.5;"/><polygon fill="#D7E0F2" points="539,249.2031,590,249.2031,602,261.2031,590,273.2031,539,273.2031,527,261.2031" style="stroke: #038048; stroke-width: 1.5;"/><line style="stroke: #038048; stroke-width: 1.5;" x1="602" x2="677" y1="261.2031" y2="261.2031"/><polygon fill="#D7E0F2" points="689,249.2031,815,249.2031,827,261.2031,815,273.2031,689,273.2031,677,261.2031" style="stroke: #038048; stroke-width: 1.5;"/><polygon fill="#D7E0F2" points="839,249.2031,890,249.2031,902,261.2031,890,273.2031,839,273.2031,827,261.2031" style="stroke: #038048; stroke-width: 1.5;"/><line style="stroke: #038048; stroke-width: 1.5;" x1="902" x2="977" y1="261.2031" y2="261.2031"/><line style="stroke: #038048; stroke-width: 1.5;" x1="977" x2="977.15" y1="261.2031" y2="261.2031"/><polygon fill="#D7E0F2" points="989.15,249.2031,1115.15,249.2031,1127.15,261.2031,1115.15,273.2031,989.15,273.2031,977.15,261.2031" style="stroke: #038048; stroke-width: 1.5;"/><polygon fill="#D7E0F2" points="1139.15,249.2031,1265.15,249.2031,1277.15,261.2031,1265.15,273.2031,1139.15,273.2031,1127.15,261.2031" style="stroke: #038048; stroke-width: 1.5;"/><polygon fill="#D7E0F2" points="1289.15,249.2031,1415.15,249.2031,1427.15,261.2031,1415.15,273.2031,1289.15,273.2031,1277.15,261.2031" style="stroke: #038048; stroke-width: 1.5;"/><polygon fill="#D7E0F2" points="1439.15,249.2031,1490,249.2031,1502,261.2031,1490,273.2031,1439.15,273.2031,1427.15,261.2031" style="stroke: #038048; stroke-width: 1.5;"/><line style="stroke: #038048; stroke-width: 1.5;" x1="1502" x2="1577" y1="261.2031" y2="261.2031"/><text fill="#33335B" font-family="sans-serif" font-size="12" lengthAdjust="spacingAndGlyphs" textLength="7" x="148.5" y="266.1133">A</text><text fill="#33335B" font-family="sans-serif" font-size="12" lengthAdjust="spacingAndGlyphs" textLength="7" x="261" y="266.1133">A</text><text fill="#33335B" font-family="sans-serif" font-size="12" lengthAdjust="spacingAndGlyphs" textLength="8" x="335.5" y="266.1133">B</text><text fill="#33335B" font-family="sans-serif" font-size="12" lengthAdjust="spacingAndGlyphs" textLength="8" x="448" y="266.1133">B</text><text fill="#33335B" font-family="sans-serif" font-size="12" lengthAdjust="spacingAndGlyphs" textLength="8" x="560.5" y="266.1133">B</text><text fill="#33335B" font-family="sans-serif" font-size="12" lengthAdjust="spacingAndGlyphs" textLength="7" x="748.5" y="266.1133">A</text><text fill="#33335B" font-family="sans-serif" font-size="12" lengthAdjust="spacingAndGlyphs" textLength="7" x="861" y="266.1133">A</text><text fill="#33335B" font-family="sans-serif" font-size="12" lengthAdjust="spacingAndGlyphs" textLength="8" x="1048.15" y="266.1133">B</text><text fill="#33335B" font-family="sans-serif" font-size="12" lengthAdjust="spacingAndGlyphs" textLength="8" x="1198.15" y="266.1133">B</text><text fill="#33335B" font-family="sans-serif" font-size="12" lengthAdjust="spacingAndGlyphs" textLength="7" x="1348.65" y="266.1133">A</text><text fill="#33335B" font-family="sans-serif" font-size="12" lengthAdjust="spacingAndGlyphs" textLength="7" x="1461.075" y="266.1133">A</text><line style="stroke: #000000; stroke-width: 1.7;" x1="10" x2="1582" y1="225.0156" y2="225.0156"/><text fill="#33335B" font-family="sans-serif" font-size="12" lengthAdjust="spacingAndGlyphs" textLength="25" x="15" y="303.6602">DSP</text><line style="stroke: #000000; stroke-width: 1.0;" x1="10" x2="41" y1="307.2969" y2="307.2969"/><line style="stroke: #000000; stroke-width: 1.0;" x1="41" x2="51" y1="307.2969" y2="291.2031"/><line style="stroke: #038048; stroke-width: 1.5;" x1="77" x2="602" y1="341.3906" y2="341.3906"/><line style="stroke: #038048; stroke-width: 1.5;" x1="602" x2="677" y1="321.3906" y2="321.3906"/><line style="stroke: #038048; stroke-width: 1.5;" x1="677" x2="902" y1="341.3906" y2="341.3906"/><line style="stroke: #038048; stroke-width: 1.5;" x1="902" x2="977" y1="321.3906" y2="321.3906"/><line style="stroke: #038048; stroke-width: 1.5;" x1="977" x2="977.15" y1="321.3906" y2="321.3906"/><line style="stroke: #038048; stroke-width: 1.5;" x1="977.15" x2="1502" y1="341.3906" y2="341.3906"/><line style="stroke: #038048; stroke-width: 1.5;" x1="1502" x2="1577" y1="321.3906" y2="321.3906"/><line style="stroke: #038048; stroke-width: 1.5;" x1="602" x2="602" y1="321.3906" y2="341.3906"/><line style="stroke: #038048; stroke-width: 1.5;" x1="677" x2="677" y1="321.3906" y2="341.3906"/><line style="stroke: #038048; stroke-width: 1.5;" x1="902" x2="902" y1="321.3906" y2="341.3906"/><line style="stroke: #038048; stroke-width: 1.5;" x1="977" x2="977" y1="321.3906" y2="321.3906"/><line style="stroke: #038048; stroke-width: 1.5;" x1="977.15" x2="977.15" y1="321.3906" y2="341.3906"/><line style="stroke: #038048; stroke-width: 1.5;" x1="1502" x2="1502" y1="321.3906" y2="341.3906"/><text fill="#33335B" font-family="sans-serif" font-size="12" lengthAdjust="spacingAndGlyphs" textLength="62" x="15" y="338.7539">Scheduling</text><text fill="#33335B" font-family="sans-serif" font-size="12" lengthAdjust="spacingAndGlyphs" textLength="20" x="15" y="318.7539">Idle</text><line style="stroke: #000000; stroke-width: 1.7;" x1="10" x2="1582" y1="291.2031" y2="291.2031"/><text fill="#33335B" font-family="sans-serif" font-size="12" lengthAdjust="spacingAndGlyphs" textLength="80" x="15" y="383.8477">Timer interrupt</text><line style="stroke: #000000; stroke-width: 1.0;" x1="10" x2="96" y1="387.4844" y2="387.4844"/><line style="stroke: #000000; stroke-width: 1.0;" x1="96" x2="106" y1="387.4844" y2="371.3906"/><line style="stroke: #000000; stroke-width: 1.7;" x1="10" x2="1582" y1="371.3906" y2="371.3906"/><line style="stroke: #000000; stroke-width: 2.0;" x1="77" x2="77" y1="437.5781" y2="442.5781"/><line style="stroke: #000000; stroke-width: 2.0;" x1="227" x2="227" y1="437.5781" y2="442.5781"/><line style="stroke: #000000; stroke-width: 2.0;" x1="377" x2="377" y1="437.5781" y2="442.5781"/><line style="stroke: #000000; stroke-width: 2.0;" x1="527" x2="527" y1="437.5781" y2="442.5781"/><line style="stroke: #000000; stroke-width: 2.0;" x1="677" x2="677" y1="437.5781" y2="442.5781"/><line style="stroke: #000000; stroke-width: 2.0;" x1="827" x2="827" y1="437.5781" y2="442.5781"/><line style="stroke: #000000; stroke-width: 2.0;" x1="977" x2="977" y1="437.5781" y2="442.5781"/><line style="stroke: #000000; stroke-width: 2.0;" x1="1127" x2="1127" y1="437.5781" y2="442.5781"/><line style="stroke: #000000; stroke-width: 2.0;" x1="1277" x2="1277" y1="437.5781" y2="442.5781"/><line style="stroke: #000000; stroke-width: 2.0;" x1="1427" x2="1427" y1="437.5781" y2="442.5781"/><line style="stroke: #000000; stroke-width: 2.0;" x1="1577" x2="1577" y1="437.5781" y2="442.5781"/><line style="stroke: #000000; stroke-width: 2.0;" x1="77" x2="1577" y1="437.5781" y2="437.5781"/><text fill="#33335B" font-family="sans-serif" font-size="12" lengthAdjust="spacingAndGlyphs" textLength="7" x="73.5" y="456.0352">0</text><text fill="#33335B" font-family="sans-serif" font-size="12" lengthAdjust="spacingAndGlyphs" textLength="7" x="223.5" y="456.0352">1</text><text fill="#33335B" font-family="sans-serif" font-size="12" lengthAdjust="spacingAndGlyphs" textLength="7" x="373.5" y="456.0352">2</text><text fill="#33335B" font-family="sans-serif" font-size="12" lengthAdjust="spacingAndGlyphs" textLength="7" x="523.5" y="456.0352">3</text><text fill="#33335B" font-family="sans-serif" font-size="12" lengthAdjust="spacingAndGlyphs" textLength="7" x="673.5" y="456.0352">4</text><text fill="#33335B" font-family="sans-serif" font-size="12" lengthAdjust="spacingAndGlyphs" textLength="7" x="823.5" y="456.0352">5</text><text fill="#33335B" font-family="sans-serif" font-size="12" lengthAdjust="spacingAndGlyphs" textLength="7" x="973.5" y="456.0352">6</text><text fill="#33335B" font-family="sans-serif" font-size="12" lengthAdjust="spacingAndGlyphs" textLength="7" x="1123.5" y="456.0352">7</text><text fill="#33335B" font-family="sans-serif" font-size="12" lengthAdjust="spacingAndGlyphs" textLength="7" x="1273.5" y="456.0352">8</text><text fill="#33335B" font-family="sans-serif" font-size="12" lengthAdjust="spacingAndGlyphs" textLength="7" x="1423.5" y="456.0352">9</text><text fill="#33335B" font-family="sans-serif" font-size="12" lengthAdjust="spacingAndGlyphs" textLength="14" x="1570" y="456.0352">10</text><line style="stroke: #FFA500; stroke-width: 1.0;" x1="77" x2="77" y1="261.2031" y2="195.0156"/><polygon fill="#FFA500" points="79.7362,202.5332,74.2638,202.5332,77,195.0156" style="stroke: #FFA500; stroke-width: 1.0;"/><line style="stroke: #FFA500; stroke-width: 1.0;" x1="227" x2="227" y1="261.2031" y2="207.0156"/><polygon fill="#FFA500" points="229.7362,214.5332,224.2638,214.5332,227,207.0156" style="stroke: #FFA500; stroke-width: 1.0;"/><line style="stroke: #FFA500; stroke-width: 1.0;" x1="302" x2="302" y1="261.2031" y2="195.0156"/><polygon fill="#FFA500" points="304.7362,202.5332,299.2638,202.5332,302,195.0156" style="stroke: #FFA500; stroke-width: 1.0;"/><line style="stroke: #A52A2A; stroke-width: 1.0;" x1="302" x2="77" y1="261.2031" y2="98.8281"/><polygon fill="#A52A2A" points="84.6971,101.0086,81.4947,105.4461,77,98.8281" style="stroke: #A52A2A; stroke-width: 1.0;"/><line style="stroke: #A52A2A; stroke-width: 1.0;" x1="377" x2="152" y1="261.2031" y2="110.8281"/><polygon fill="#A52A2A" points="159.7705,112.7304,156.7298,117.2802,152,110.8281" style="stroke: #A52A2A; stroke-width: 1.0;"/><line style="stroke: #A52A2A; stroke-width: 1.0;" x1="527" x2="302" y1="261.2031" y2="110.8281"/><polygon fill="#A52A2A" points="309.7705,112.7304,306.7298,117.2802,302,110.8281" style="stroke: #A52A2A; stroke-width: 1.0;"/><line style="stroke: #A52A2A; stroke-width: 1.0;" x1="602" x2="377" y1="261.2031" y2="98.8281"/><polygon fill="#A52A2A" points="384.6971,101.0086,381.4947,105.4461,377,98.8281" style="stroke: #A52A2A; stroke-width: 1.0;"/><line style="stroke: #9400D3; stroke-width: 1.0;" x1="77" x2="77" y1="395.5781" y2="341.3906"/><polygon fill="#9400D3" points="79.7362,348.9082,74.2638,348.9082,77,341.3906" style="stroke: #9400D3; stroke-width: 1.0;"/><line style="stroke: #0000FF; stroke-width: 1.0;" x1="77" x2="77" y1="341.3906" y2="261.2031"/><polygon fill="#0000FF" points="79.7362,268.7207,74.2638,268.7207,77,261.2031" style="stroke: #0000FF; stroke-width: 1.0;"/><line style="stroke: #9400D3; stroke-width: 1.0;" x1="227" x2="227" y1="395.5781" y2="341.3906"/><polygon fill="#9400D3" points="229.7362,348.9082,224.2638,348.9082,227,341.3906" style="stroke: #9400D3; stroke-width: 1.0;"/><line style="stroke: #0000FF; stroke-width: 1.0;" x1="227" x2="227" y1="341.3906" y2="261.2031"/><polygon fill="#0000FF" points="229.7362,268.7207,224.2638,268.7207,227,261.2031" style="stroke: #0000FF; stroke-width: 1.0;"/><line style="stroke: #0000FF; stroke-width: 1.0;" x1="302" x2="302" y1="261.2031" y2="341.3906"/><polygon fill="#0000FF" points="299.2638,333.8731,304.7362,333.8731,302,341.3906" style="stroke: #0000FF; stroke-width: 1.0;"/><line style="stroke: #0000FF; stroke-width: 1.0;" x1="302" x2="302" y1="341.3906" y2="261.2031"/><polygon fill="#0000FF" points="304.7362,268.7207,299.2638,268.7207,302,261.2031" style="stroke: #0000FF; stroke-width: 1.0;"/><line style="stroke: #9400D3; stroke-width: 1.0;" x1="377" x2="377" y1="395.5781" y2="341.3906"/><polygon fill="#9400D3" points="379.7362,348.9082,374.2638,348.9082,377,341.3906" style="stroke: #9400D3; stroke-width: 1.0;"/><line style="stroke: #0000FF; stroke-width: 1.0;" x1="377" x2="377" y1="341.3906" y2="261.2031"/><polygon fill="#0000FF" points="379.7362,268.7207,374.2638,268.7207,377,261.2031" style="stroke: #0000FF; stroke-width: 1.0;"/><line style="stroke: #9400D3; stroke-width: 1.0;" x1="527" x2="527" y1="395.5781" y2="341.3906"/><polygon fill="#9400D3" points="529.7362,348.9082,524.2638,348.9082,527,341.3906" style="stroke: #9400D3; stroke-width: 1.0;"/><line style="stroke: #0000FF; stroke-width: 1.0;" x1="527" x2="527" y1="341.3906" y2="261.2031"/><polygon fill="#0000FF" points="529.7362,268.7207,524.2638,268.7207,527,261.2031" style="stroke: #0000FF; stroke-width: 1.0;"/><line style="stroke: #0000FF; stroke-width: 1.0;" x1="602" x2="602" y1="261.2031" y2="321.3906"/><polygon fill="#0000FF" points="599.2638,313.8731,604.7362,313.8731,602,321.3906" style="stroke: #0000FF; stroke-width: 1.0;"/><line style="stroke: #9400D3; stroke-width: 1.0;" x1="677" x2="677" y1="395.5781" y2="341.3906"/><polygon fill="#9400D3" points="679.7362,348.9082,674.2638,348.9082,677,341.3906" style="stroke: #9400D3; stroke-width: 1.0;"/><line style="stroke: #0000FF; stroke-width: 1.0;" x1="677" x2="677" y1="321.3906" y2="261.2031"/><polygon fill="#0000FF" points="679.7362,268.7207,674.2638,268.7207,677,261.2031" style="stroke: #0000FF; stroke-width: 1.0;"/><line style="stroke: #9400D3; stroke-width: 1.0;" x1="827" x2="827" y1="395.5781" y2="341.3906"/><polygon fill="#9400D3" points="829.7362,348.9082,824.2638,348.9082,827,341.3906" style="stroke: #9400D3; stroke-width: 1.0;"/><line style="stroke: #0000FF; stroke-width: 1.0;" x1="827" x2="827" y1="341.3906" y2="261.2031"/><polygon fill="#0000FF" points="829.7362,268.7207,824.2638,268.7207,827,261.2031" style="stroke: #0000FF; stroke-width: 1.0;"/><line style="stroke: #0000FF; stroke-width: 1.0;" x1="902" x2="902" y1="261.2031" y2="321.3906"/><polygon fill="#0000FF" points="899.2638,313.8731,904.7362,313.8731,902,321.3906" style="stroke: #0000FF; stroke-width: 1.0;"/><line style="stroke: #9400D3; stroke-width: 1.0;" x1="977.15" x2="977.15" y1="395.5781" y2="341.3906"/><polygon fill="#9400D3" points="979.8862,348.9082,974.4138,348.9082,977.15,341.3906" style="stroke: #9400D3; stroke-width: 1.0;"/><line style="stroke: #0000FF; stroke-width: 1.0;" x1="977.15" x2="977.15" y1="321.3906" y2="261.2031"/><polygon fill="#0000FF" points="979.8862,268.7207,974.4138,268.7207,977.15,261.2031" style="stroke: #0000FF; stroke-width: 1.0;"/><line style="stroke: #9400D3; stroke-width: 1.0;" x1="1127.15" x2="1127.15" y1="395.5781" y2="341.3906"/><polygon fill="#9400D3" points="1129.8862,348.9082,1124.4138,348.9082,1127.15,341.3906" style="stroke: #9400D3; stroke-width: 1.0;"/><line style="stroke: #0000FF; stroke-width: 1.0;" x1="1127.15" x2="1127.15" y1="341.3906" y2="261.2031"/><polygon fill="#0000FF" points="1129.8862,268.7207,1124.4138,268.7207,1127.15,261.2031" style="stroke: #0000FF; stroke-width: 1.0;"/><line style="stroke: #9400D3; stroke-width: 1.0;" x1="1277.15" x2="1277.15" y1="395.5781" y2="341.3906"/><polygon fill="#9400D3" points="1279.8862,348.9082,1274.4138,348.9082,1277.15,341.3906" style="stroke: #9400D3; stroke-width: 1.0;"/><line style="stroke: #0000FF; stroke-width: 1.0;" x1="1277.15" x2="1277.15" y1="341.3906" y2="261.2031"/><polygon fill="#0000FF" points="1279.8862,268.7207,1274.4138,268.7207,1277.15,261.2031" style="stroke: #0000FF; stroke-width: 1.0;"/><line style="stroke: #9400D3; stroke-width: 1.0;" x1="1427.15" x2="1427.15" y1="395.5781" y2="341.3906"/><polygon fill="#9400D3" points="1429.8862,348.9082,1424.4138,348.9082,1427.15,341.3906" style="stroke: #9400D3; stroke-width: 1.0;"/><line style="stroke: #0000FF; stroke-width: 1.0;" x1="1427.15" x2="1427.15" y1="341.3906" y2="261.2031"/><polygon fill="#0000FF" points="1429.8862,268.7207,1424.4138,268.7207,1427.15,261.2031" style="stroke: #0000FF; stroke-width: 1.0;"/><line style="stroke: #0000FF; stroke-width: 1.0;" x1="1502" x2="1502" y1="261.2031" y2="321.3906"/><polygon fill="#0000FF" points="1499.2638,313.8731,1504.7362,313.8731,1502,321.3906" style="stroke: #0000FF; stroke-width: 1.0;"/><rect fill="#DDDDDD" height="115.6563" rx="5" ry="5" style="stroke: #000000; stroke-width: 1.0;" width="389" x="601" y="460.6719"/><text fill="#33335B" font-family="sans-serif" font-size="14" lengthAdjust="spacingAndGlyphs" textLength="84" x="607" y="480.2051">Assumptions:</text><text fill="#33335B" font-family="sans-serif" font-size="14" lengthAdjust="spacingAndGlyphs" textLength="115" x="607" y="497.8145">1) 1ms scheduling</text><text fill="#33335B" font-family="sans-serif" font-size="14" lengthAdjust="spacingAndGlyphs" textLength="358" x="607" y="515.4238">2) No LL tasks assigned to example secondary DSP core</text><text fill="#33335B" font-family="sans-serif" font-size="14" lengthAdjust="spacingAndGlyphs" textLength="320" x="607" y="533.0332">3) DP Task B do not depend on Task A completion</text><text fill="#33335B" font-family="sans-serif" font-size="14" lengthAdjust="spacingAndGlyphs" textLength="377" x="607" y="550.6426">(otherwise, Task B would start on next timer interrupt after A</text><text fill="#33335B" font-family="sans-serif" font-size="14" lengthAdjust="spacingAndGlyphs" textLength="73" x="607" y="568.252">completion)</text><!--MD5=[f68abc8159159e872ab978f65012c2b4]
@startuml
hidefootbox
skinparam componentStyle uml2

skinparam defaultFontColor	#33335b

skinparam rectangle {
	color		#d6d6de
	backgroundColor	#ffffff
}

skinparam component {
	backgroundColor	#ffffff
	borderColor	#33335b
	arrowColor	#f05772
}

skinparam interface {
	backgroundColor	#ffffff
	borderColor	#f05772
}

skinparam class {
	backgroundColor	#ffffff
	borderColor	#33335b
	arrowColor	#f05772
}
skinparam stereotypeCBackgroundColor	#6fccdd

skinparam sequence {
	arrowColor		#4a4a86
	lifeLineBorderColor	#f05772
	groupBorderColor	#a1a1ca
	boxBorderColor		#a1a1ca
	dividerBorderColor	#d6d6de
	dividerBorderThickness	1
}
skinparam participant {
	borderColor		#33335b
	backgroundColor		#ffffff
}
skinparam actor {
	borderColor		#33335b
	backgroundColor		#ffffff
}

skinparam state {
	borderColor		#33335b
	backgroundColor		#ffffff
}

skinparam node {
	backgroundColor		#ffffff
}

skinparam note {
	backgroundColor 	#f6ed80
	borderColor		#d6d6de
}

Title DP tasks scheduling on secondary DSP core

legend
Assumptions:
1) 1ms scheduling
2) No LL tasks assigned to example secondary DSP core
3) DP Task B do not depend on Task A completion
(otherwise, Task B would start on next timer interrupt after A
completion)
end legend

scale 1 as 150 pixels

concise "Task B" as Task_B
concise "Task A" as Task_A

concise "DP task processing" as DP_Processing
robust "DSP" as DSP
concise "Timer interrupt" as Interrupt


@Task_A
0 is Busy
1.5 is {-}

4 is Busy
5.5 is {-}

8 is Busy
9.5 is {-}

@0 <-> @4: Task A schedule period (4ms)
@4 <-> @5.5: Task A execution time (1.5ms)

DP_Processing@0 -[#Orange]> Task_A@0
DP_Processing@1 -[#Orange]> Task_A@1
DP_Processing@1.5 -[#Orange]> Task_A@1.5


@Task_B
0 is Busy
2 is {-}

6 is Busy
8 is {-}

@0 <-> @6: Task B schedule period (6ms)
@6 <-> @8: Task B execution time (2ms)

DP_Processing@1.5 -[#Brown]> Task_B@0
DP_Processing@2 -[#Brown]> Task_B@0.5
DP_Processing@3 -[#Brown]> Task_B@1.5
DP_Processing@3.5 -[#Brown]> Task_B@2

DSP is Idle
DP_Processing is {-}

@0
DP_Processing is "A"

@0
Interrupt -[#DarkViolet]> DSP
DSP -> DP_Processing
DSP is "Scheduling"
DP_Processing is "A"

@1
Interrupt -[#DarkViolet]> DSP
DSP -> DP_Processing
DP_Processing is "A"

@1.5
DP_Processing -> DSP
DSP -> DP_Processing
DP_Processing is "B"

@2
Interrupt -[#DarkViolet]> DSP
DSP -> DP_Processing
DP_Processing is "B"

@3
Interrupt -[#DarkViolet]> DSP
DSP -> DP_Processing
DP_Processing is "B"

@3.5
DP_Processing -> DSP
DSP is Idle
DP_Processing is {-}

@4
Interrupt -[#DarkViolet]> DSP
DSP is "Scheduling"
DSP -> DP_Processing
DP_Processing is "A"

@5
Interrupt -[#DarkViolet]> DSP
DSP -> DP_Processing
DP_Processing is "A"

@5.5
DP_Processing -> DSP
DSP is Idle
DP_Processing is {-}

@6.001
Interrupt -[#DarkViolet]> DSP
DSP -> DP_Processing
DSP is "Scheduling"
DP_Processing is "B"

@7.001
Interrupt -[#DarkViolet]> DSP
DSP -> DP_Processing
DP_Processing is "B"

@8.001
Interrupt -[#DarkViolet]> DSP
DSP -> DP_Processing
DP_Processing is "A"

@9.001
Interrupt -[#DarkViolet]> DSP
DSP -> DP_Processing
DP_Processing is "A"

@9.5
DP_Processing -> DSP
DSP is Idle
DP_Processing is {-}

@enduml

PlantUML version 1.2019.12(Sun Nov 03 11:24:54 CET 2019)
(GPL source distribution)
Java Runtime: OpenJDK Runtime Environment
JVM: OpenJDK 64-Bit Server VM
Java Version: 1.8.0_302-b08
Operating System: Windows 10
Default Encoding: Cp1252
Language: en
Country: US
--></g></svg>