<?xml version="1.0" encoding="UTF-8" standalone="no"?><svg xmlns="http://www.w3.org/2000/svg" xmlns:xlink="http://www.w3.org/1999/xlink" contentScriptType="application/ecmascript" contentStyleType="text/css" height="374px" preserveAspectRatio="none" style="width:844px;height:374px;" version="1.1" viewBox="0 0 844 374" width="844px" zoomAndPan="magnify"><defs><filter height="300%" id="f1d8rtr2jn46o7" width="300%" x="-1" y="-1"><feGaussianBlur result="blurOut" stdDeviation="2.0"/><feColorMatrix in="blurOut" result="blurOut2" type="matrix" values="0 0 0 0 0 0 0 0 0 0 0 0 0 0 0 0 0 0 .4 0"/><feOffset dx="4.0" dy="4.0" in="blurOut2" result="blurOut3"/><feBlend in="SourceGraphic" in2="blurOut3" mode="normal"/></filter></defs><g><rect fill="#FFFFFF" filter="url(#f1d8rtr2jn46o7)" height="226.6641" style="stroke: #F05772; stroke-width: 1.0;" width="10" x="221" y="117.4297"/><rect fill="#FFFFFF" filter="url(#f1d8rtr2jn46o7)" height="56.1328" style="stroke: #F05772; stroke-width: 1.0;" width="10" x="366" y="146.5625"/><rect fill="#FFFFFF" filter="url(#f1d8rtr2jn46o7)" height="98.2656" style="stroke: #F05772; stroke-width: 1.0;" width="10" x="366" y="231.8281"/><line style="stroke: #F05772; stroke-width: 1.0; stroke-dasharray: 5.0,5.0;" x1="30" x2="30" y1="86.2969" y2="362.0938"/><line style="stroke: #F05772; stroke-width: 1.0; stroke-dasharray: 5.0,5.0;" x1="226" x2="226" y1="86.2969" y2="362.0938"/><line style="stroke: #F05772; stroke-width: 1.0; stroke-dasharray: 5.0,5.0;" x1="371" x2="371" y1="86.2969" y2="362.0938"/><text fill="#33335B" font-family="sans-serif" font-size="14" lengthAdjust="spacingAndGlyphs" textLength="38" x="8" y="82.9951">driver</text><ellipse cx="30" cy="13" fill="#FFFFFF" filter="url(#f1d8rtr2jn46o7)" rx="8" ry="8" style="stroke: #33335B; stroke-width: 2.0;"/><path d="M30,21 L30,48 M17,29 L43,29 M30,48 L17,63 M30,48 L43,63 " fill="none" filter="url(#f1d8rtr2jn46o7)" style="stroke: #33335B; stroke-width: 2.0;"/><rect fill="#FFFFFF" filter="url(#f1d8rtr2jn46o7)" height="30.2969" style="stroke: #33335B; stroke-width: 1.5;" width="34" x="207" y="51"/><text fill="#33335B" font-family="sans-serif" font-size="14" lengthAdjust="spacingAndGlyphs" textLength="20" x="214" y="70.9951">ipc</text><rect fill="#FFFFFF" filter="url(#f1d8rtr2jn46o7)" height="30.2969" style="stroke: #33335B; stroke-width: 1.5;" width="68" x="335" y="51"/><text fill="#33335B" font-family="sans-serif" font-size="14" lengthAdjust="spacingAndGlyphs" textLength="54" x="342" y="70.9951">pipeline</text><rect fill="#FFFFFF" filter="url(#f1d8rtr2jn46o7)" height="226.6641" style="stroke: #F05772; stroke-width: 1.0;" width="10" x="221" y="117.4297"/><rect fill="#FFFFFF" filter="url(#f1d8rtr2jn46o7)" height="56.1328" style="stroke: #F05772; stroke-width: 1.0;" width="10" x="366" y="146.5625"/><rect fill="#FFFFFF" filter="url(#f1d8rtr2jn46o7)" height="98.2656" style="stroke: #F05772; stroke-width: 1.0;" width="10" x="366" y="231.8281"/><polygon fill="#4A4A86" points="209,113.4297,219,117.4297,209,121.4297,213,117.4297" style="stroke: #4A4A86; stroke-width: 1.0;"/><line style="stroke: #4A4A86; stroke-width: 1.0;" x1="30" x2="215" y1="117.4297" y2="117.4297"/><text fill="#33335B" font-family="sans-serif" font-size="13" lengthAdjust="spacingAndGlyphs" textLength="172" x="37" y="112.3638">ipc_stream_pcm_params()</text><polygon fill="#4A4A86" points="354,142.5625,364,146.5625,354,150.5625,358,146.5625" style="stroke: #4A4A86; stroke-width: 1.0;"/><line style="stroke: #4A4A86; stroke-width: 1.0;" x1="231" x2="360" y1="146.5625" y2="146.5625"/><text fill="#33335B" font-family="sans-serif" font-size="13" lengthAdjust="spacingAndGlyphs" textLength="115" x="238" y="141.4966">pipeline_params()</text><line style="stroke: #4A4A86; stroke-width: 1.0;" x1="376" x2="418" y1="175.6953" y2="175.6953"/><line style="stroke: #4A4A86; stroke-width: 1.0;" x1="418" x2="418" y1="175.6953" y2="188.6953"/><line style="stroke: #4A4A86; stroke-width: 1.0;" x1="377" x2="418" y1="188.6953" y2="188.6953"/><polygon fill="#4A4A86" points="387,184.6953,377,188.6953,387,192.6953,383,188.6953" style="stroke: #4A4A86; stroke-width: 1.0;"/><text fill="#33335B" font-family="sans-serif" font-size="13" lengthAdjust="spacingAndGlyphs" textLength="449" x="383" y="170.6294">&lt;pipeline operation&gt; (COMP_OPS_PARAMS, first = pcm_dev, params)</text><polygon fill="#4A4A86" points="242,198.6953,232,202.6953,242,206.6953,238,202.6953" style="stroke: #4A4A86; stroke-width: 1.0;"/><line style="stroke: #4A4A86; stroke-width: 1.0; stroke-dasharray: 2.0,2.0;" x1="236" x2="370" y1="202.6953" y2="202.6953"/><polygon fill="#4A4A86" points="354,227.8281,364,231.8281,354,235.8281,358,231.8281" style="stroke: #4A4A86; stroke-width: 1.0;"/><line style="stroke: #4A4A86; stroke-width: 1.0;" x1="231" x2="360" y1="231.8281" y2="231.8281"/><text fill="#33335B" font-family="sans-serif" font-size="13" lengthAdjust="spacingAndGlyphs" textLength="116" x="238" y="226.7622">pipeline_prepare()</text><line style="stroke: #4A4A86; stroke-width: 1.0;" x1="376" x2="418" y1="260.9609" y2="260.9609"/><line style="stroke: #4A4A86; stroke-width: 1.0;" x1="418" x2="418" y1="260.9609" y2="273.9609"/><line style="stroke: #4A4A86; stroke-width: 1.0;" x1="377" x2="418" y1="273.9609" y2="273.9609"/><polygon fill="#4A4A86" points="387,269.9609,377,273.9609,387,277.9609,383,273.9609" style="stroke: #4A4A86; stroke-width: 1.0;"/><text fill="#33335B" font-family="sans-serif" font-size="13" lengthAdjust="spacingAndGlyphs" textLength="286" x="383" y="255.895">&lt;pipeline operation&gt; (COMP_OPS_PREPARE)</text><line style="stroke: #4A4A86; stroke-width: 1.0;" x1="376" x2="418" y1="303.0938" y2="303.0938"/><line style="stroke: #4A4A86; stroke-width: 1.0;" x1="418" x2="418" y1="303.0938" y2="316.0938"/><line style="stroke: #4A4A86; stroke-width: 1.0;" x1="377" x2="418" y1="316.0938" y2="316.0938"/><polygon fill="#4A4A86" points="387,312.0938,377,316.0938,387,320.0938,383,316.0938" style="stroke: #4A4A86; stroke-width: 1.0;"/><text fill="#33335B" font-family="sans-serif" font-size="13" lengthAdjust="spacingAndGlyphs" textLength="343" x="383" y="298.0278">component_prepare_buffers_downstream/upstream()</text><polygon fill="#4A4A86" points="242,326.0938,232,330.0938,242,334.0938,238,330.0938" style="stroke: #4A4A86; stroke-width: 1.0;"/><line style="stroke: #4A4A86; stroke-width: 1.0; stroke-dasharray: 2.0,2.0;" x1="236" x2="370" y1="330.0938" y2="330.0938"/><polygon fill="#4A4A86" points="41,340.0938,31,344.0938,41,348.0938,37,344.0938" style="stroke: #4A4A86; stroke-width: 1.0;"/><line style="stroke: #4A4A86; stroke-width: 1.0; stroke-dasharray: 2.0,2.0;" x1="35" x2="225" y1="344.0938" y2="344.0938"/><!--MD5=[92bbe63c596fe17673aa4ba6107af3be]
@startuml
hidefootbox
skinparam componentStyle uml2

skinparam defaultFontColor	#33335b

skinparam rectangle {
	color		#d6d6de
	backgroundColor	#ffffff
}

skinparam component {
	backgroundColor	#ffffff
	borderColor	#33335b
	arrowColor	#f05772
}

skinparam interface {
	backgroundColor	#ffffff
	borderColor	#f05772
}

skinparam class {
	backgroundColor	#ffffff
	borderColor	#33335b
	arrowColor	#f05772
}
skinparam stereotypeCBackgroundColor	#6fccdd

skinparam sequence {
	arrowColor		#4a4a86
	lifeLineBorderColor	#f05772
	groupBorderColor	#a1a1ca
	boxBorderColor		#a1a1ca
	dividerBorderColor	#d6d6de
	dividerBorderThickness	1
}
skinparam participant {
	borderColor		#33335b
	backgroundColor		#ffffff
}
skinparam actor {
	borderColor		#33335b
	backgroundColor		#ffffff
}

skinparam state {
	borderColor		#33335b
	backgroundColor		#ffffff
}

skinparam node {
	backgroundColor		#ffffff
}

skinparam note {
	backgroundColor 	#f6ed80
	borderColor		#d6d6de
}
actor driver as drv
participant ipc
participant "pipeline" as ppl

drv -> ipc : ipc_stream_pcm_params()
   activate ipc
   ipc -> ppl : pipeline_params()
      activate ppl
      ppl -> ppl : <pipeline operation> (COMP_OPS_PARAMS, first = pcm_dev, params)
   ipc <- - ppl
   deactivate ppl

   ipc -> ppl : pipeline_prepare()
      activate ppl
      ppl -> ppl : <pipeline operation> (COMP_OPS_PREPARE)
      ppl -> ppl : component_prepare_buffers_downstream/upstream()
   ipc <- - ppl
   deactivate ppl
drv <- - ipc
deactivate ipc

@enduml

PlantUML version 1.2019.12(Sun Nov 03 10:24:54 UTC 2019)
(GPL source distribution)
Java Runtime: OpenJDK Runtime Environment
JVM: OpenJDK 64-Bit Server VM
Java Version: 11.0.13+8
Operating System: Linux
Default Encoding: UTF-8
Language: en
Country: null
--></g></svg>