<?xml version="1.0" encoding="UTF-8" standalone="no"?><svg xmlns="http://www.w3.org/2000/svg" xmlns:xlink="http://www.w3.org/1999/xlink" contentScriptType="application/ecmascript" contentStyleType="text/css" height="555.6561px" preserveAspectRatio="none" style="width:812px;height:555px;" version="1.1" viewBox="0 0 812 555" width="812.6697px" zoomAndPan="magnify"><defs><filter height="300%" id="f1o2b7izs4lgbo" width="300%" x="-1" y="-1"><feGaussianBlur result="blurOut" stdDeviation="1.8099547511312217"/><feColorMatrix in="blurOut" result="blurOut2" type="matrix" values="0 0 0 0 0 0 0 0 0 0 0 0 0 0 0 0 0 0 .4 0"/><feOffset dx="3.6199095022624435" dy="3.6199095022624435" in="blurOut2" result="blurOut3"/><feBlend in="SourceGraphic" in2="blurOut3" mode="normal"/></filter></defs><g><rect fill="#FFFFFF" filter="url(#f1o2b7izs4lgbo)" height="245.9842" style="stroke: #FFFFFF; stroke-width: 0.9049773755656109;" width="9.0498" x="163.8009" y="81.0591"/><line style="stroke: #F05772; stroke-width: 0.9049773755656109;" x1="163.8009" x2="163.8009" y1="81.0591" y2="327.0433"/><line style="stroke: #F05772; stroke-width: 0.9049773755656109;" x1="172.8507" x2="172.8507" y1="81.0591" y2="327.0433"/><line style="stroke: #F05772; stroke-width: 0.9049773755656109;" x1="163.8009" x2="172.8507" y1="81.0591" y2="81.0591"/><rect fill="#FFFFFF" filter="url(#f1o2b7izs4lgbo)" height="184.3962" style="stroke: #FFFFFF; stroke-width: 0.9049773755656109;" width="9.0498" x="163.8009" y="352.3826"/><line style="stroke: #F05772; stroke-width: 0.9049773755656109;" x1="163.8009" x2="163.8009" y1="352.3826" y2="536.7788"/><line style="stroke: #F05772; stroke-width: 0.9049773755656109;" x1="172.8507" x2="172.8507" y1="352.3826" y2="536.7788"/><line style="stroke: #F05772; stroke-width: 0.9049773755656109;" x1="163.8009" x2="172.8507" y1="536.7788" y2="536.7788"/><rect fill="#FFFFFF" filter="url(#f1o2b7izs4lgbo)" height="218.5167" style="stroke: #FFFFFF; stroke-width: 0.9049773755656109;" width="9.0498" x="307.6923" y="108.5266"/><line style="stroke: #F05772; stroke-width: 0.9049773755656109;" x1="307.6923" x2="307.6923" y1="108.5266" y2="327.0433"/><line style="stroke: #F05772; stroke-width: 0.9049773755656109;" x1="316.7421" x2="316.7421" y1="108.5266" y2="327.0433"/><line style="stroke: #F05772; stroke-width: 0.9049773755656109;" x1="307.6923" x2="316.7421" y1="108.5266" y2="108.5266"/><rect fill="#FFFFFF" filter="url(#f1o2b7izs4lgbo)" height="184.3962" style="stroke: #FFFFFF; stroke-width: 0.9049773755656109;" width="9.0498" x="307.6923" y="352.3826"/><line style="stroke: #F05772; stroke-width: 0.9049773755656109;" x1="307.6923" x2="307.6923" y1="352.3826" y2="536.7788"/><line style="stroke: #F05772; stroke-width: 0.9049773755656109;" x1="316.7421" x2="316.7421" y1="352.3826" y2="536.7788"/><line style="stroke: #F05772; stroke-width: 0.9049773755656109;" x1="307.6923" x2="316.7421" y1="536.7788" y2="536.7788"/><rect fill="#FFFFFF" filter="url(#f1o2b7izs4lgbo)" height="83.3074" style="stroke: #F05772; stroke-width: 0.9049773755656109;" width="9.0498" x="312.2172" y="158.0317"/><rect fill="#FFFFFF" filter="url(#f1o2b7izs4lgbo)" height="69.4146" style="stroke: #F05772; stroke-width: 0.9049773755656109;" width="9.0498" x="312.2172" y="427.5452"/><rect fill="#FFFFFF" filter="url(#f1o2b7izs4lgbo)" height="72.1295" style="stroke: #F05772; stroke-width: 0.9049773755656109;" width="9.0498" x="486.8778" y="241.3391"/><line style="stroke: #F05772; stroke-width: 0.9049773755656109;" x1="167.8733" x2="167.8733" y1="51.7817" y2="327.0433"/><line style="stroke: #F05772; stroke-width: 0.9049773755656109; stroke-dasharray: 1.0,4.0;" x1="167.8733" x2="167.8733" y1="327.0433" y2="352.3826"/><line style="stroke: #F05772; stroke-width: 0.9049773755656109;" x1="167.8733" x2="167.8733" y1="352.3826" y2="544.9236"/><line style="stroke: #F05772; stroke-width: 0.9049773755656109;" x1="311.7647" x2="311.7647" y1="51.7817" y2="327.0433"/><line style="stroke: #F05772; stroke-width: 0.9049773755656109; stroke-dasharray: 1.0,4.0;" x1="311.7647" x2="311.7647" y1="327.0433" y2="352.3826"/><line style="stroke: #F05772; stroke-width: 0.9049773755656109;" x1="311.7647" x2="311.7647" y1="352.3826" y2="544.9236"/><line style="stroke: #F05772; stroke-width: 0.9049773755656109;" x1="490.9502" x2="490.9502" y1="51.7817" y2="327.0433"/><line style="stroke: #F05772; stroke-width: 0.9049773755656109; stroke-dasharray: 1.0,4.0;" x1="490.9502" x2="490.9502" y1="327.0433" y2="352.3826"/><line style="stroke: #F05772; stroke-width: 0.9049773755656109;" x1="490.9502" x2="490.9502" y1="352.3826" y2="544.9236"/><line style="stroke: #F05772; stroke-width: 0.9049773755656109;" x1="624.8869" x2="624.8869" y1="51.7817" y2="327.0433"/><line style="stroke: #F05772; stroke-width: 0.9049773755656109; stroke-dasharray: 1.0,4.0;" x1="624.8869" x2="624.8869" y1="327.0433" y2="352.3826"/><line style="stroke: #F05772; stroke-width: 0.9049773755656109;" x1="624.8869" x2="624.8869" y1="352.3826" y2="544.9236"/><line style="stroke: #F05772; stroke-width: 0.9049773755656109;" x1="703.6199" x2="703.6199" y1="51.7817" y2="327.0433"/><line style="stroke: #F05772; stroke-width: 0.9049773755656109; stroke-dasharray: 1.0,4.0;" x1="703.6199" x2="703.6199" y1="327.0433" y2="352.3826"/><line style="stroke: #F05772; stroke-width: 0.9049773755656109;" x1="703.6199" x2="703.6199" y1="352.3826" y2="544.9236"/><line style="stroke: #F05772; stroke-width: 0.9049773755656109;" x1="763.3484" x2="763.3484" y1="51.7817" y2="327.0433"/><line style="stroke: #F05772; stroke-width: 0.9049773755656109; stroke-dasharray: 1.0,4.0;" x1="763.3484" x2="763.3484" y1="327.0433" y2="352.3826"/><line style="stroke: #F05772; stroke-width: 0.9049773755656109;" x1="763.3484" x2="763.3484" y1="352.3826" y2="544.9236"/><rect fill="#FFFFFF" filter="url(#f1o2b7izs4lgbo)" height="28.6058" style="stroke: #33335B; stroke-width: 1.3574660633484164;" width="58.8235" x="137.1041" y="18.651"/><text fill="#33335B" font-family="sans-serif" font-size="12.6697" lengthAdjust="spacingAndGlyphs" textLength="46.1538" x="143.4389" y="38.1381">platform</text><rect fill="#FFFFFF" filter="url(#f1o2b7izs4lgbo)" height="28.6058" style="stroke: #33335B; stroke-width: 1.3574660633484164;" width="87.7828" x="266.5158" y="18.651"/><text fill="#33335B" font-family="sans-serif" font-size="12.6697" lengthAdjust="spacingAndGlyphs" textLength="75.1131" x="272.8507" y="38.1381">cavs/lps_wait</text><rect fill="#FFFFFF" filter="url(#f1o2b7izs4lgbo)" height="44.5419" style="stroke: #33335B; stroke-width: 1.3574660633484164;" width="67.8733" x="455.6561" y="2.7149"/><text fill="#33335B" font-family="sans-serif" font-size="12.6697" lengthAdjust="spacingAndGlyphs" textLength="46.1538" x="466.5158" y="22.202">cavs/lps</text><text fill="#33335B" font-family="sans-serif" font-size="12.6697" lengthAdjust="spacingAndGlyphs" textLength="55.2036" x="461.991" y="38.1381">pg thread</text><rect fill="#FFFFFF" filter="url(#f1o2b7izs4lgbo)" height="28.6058" style="stroke: #33335B; stroke-width: 1.3574660633484164;" width="76.9231" x="585.0679" y="18.651"/><text fill="#33335B" font-family="sans-serif" font-size="12.6697" lengthAdjust="spacingAndGlyphs" textLength="64.2534" x="591.4027" y="38.1381">pm-runtime</text><rect fill="#FFFFFF" filter="url(#f1o2b7izs4lgbo)" height="44.5419" style="stroke: #33335B; stroke-width: 1.3574660633484164;" width="55.2036" x="674.6606" y="2.7149"/><text fill="#33335B" font-family="sans-serif" font-size="12.6697" lengthAdjust="spacingAndGlyphs" textLength="42.5339" x="680.9955" y="22.202">Lpsram</text><text fill="#33335B" font-family="sans-serif" font-size="12.6697" lengthAdjust="spacingAndGlyphs" textLength="26.2443" x="689.1403" y="38.1381">Boot</text><rect fill="#FFFFFF" filter="url(#f1o2b7izs4lgbo)" height="44.5419" style="stroke: #33335B; stroke-width: 1.3574660633484164;" width="38.914" x="742.5339" y="2.7149"/><text fill="#33335B" font-family="sans-serif" font-size="12.6697" lengthAdjust="spacingAndGlyphs" textLength="22.6244" x="750.6787" y="22.202">Dsp</text><text fill="#33335B" font-family="sans-serif" font-size="12.6697" lengthAdjust="spacingAndGlyphs" textLength="26.2443" x="748.8688" y="38.1381">Rom</text><rect fill="#FFFFFF" filter="url(#f1o2b7izs4lgbo)" height="245.9842" style="stroke: #FFFFFF; stroke-width: 0.9049773755656109;" width="9.0498" x="163.8009" y="81.0591"/><line style="stroke: #F05772; stroke-width: 0.9049773755656109;" x1="163.8009" x2="163.8009" y1="81.0591" y2="327.0433"/><line style="stroke: #F05772; stroke-width: 0.9049773755656109;" x1="172.8507" x2="172.8507" y1="81.0591" y2="327.0433"/><line style="stroke: #F05772; stroke-width: 0.9049773755656109;" x1="163.8009" x2="172.8507" y1="81.0591" y2="81.0591"/><rect fill="#FFFFFF" filter="url(#f1o2b7izs4lgbo)" height="184.3962" style="stroke: #FFFFFF; stroke-width: 0.9049773755656109;" width="9.0498" x="163.8009" y="352.3826"/><line style="stroke: #F05772; stroke-width: 0.9049773755656109;" x1="163.8009" x2="163.8009" y1="352.3826" y2="536.7788"/><line style="stroke: #F05772; stroke-width: 0.9049773755656109;" x1="172.8507" x2="172.8507" y1="352.3826" y2="536.7788"/><line style="stroke: #F05772; stroke-width: 0.9049773755656109;" x1="163.8009" x2="172.8507" y1="536.7788" y2="536.7788"/><rect fill="#FFFFFF" filter="url(#f1o2b7izs4lgbo)" height="218.5167" style="stroke: #FFFFFF; stroke-width: 0.9049773755656109;" width="9.0498" x="307.6923" y="108.5266"/><line style="stroke: #F05772; stroke-width: 0.9049773755656109;" x1="307.6923" x2="307.6923" y1="108.5266" y2="327.0433"/><line style="stroke: #F05772; stroke-width: 0.9049773755656109;" x1="316.7421" x2="316.7421" y1="108.5266" y2="327.0433"/><line style="stroke: #F05772; stroke-width: 0.9049773755656109;" x1="307.6923" x2="316.7421" y1="108.5266" y2="108.5266"/><rect fill="#FFFFFF" filter="url(#f1o2b7izs4lgbo)" height="184.3962" style="stroke: #FFFFFF; stroke-width: 0.9049773755656109;" width="9.0498" x="307.6923" y="352.3826"/><line style="stroke: #F05772; stroke-width: 0.9049773755656109;" x1="307.6923" x2="307.6923" y1="352.3826" y2="536.7788"/><line style="stroke: #F05772; stroke-width: 0.9049773755656109;" x1="316.7421" x2="316.7421" y1="352.3826" y2="536.7788"/><line style="stroke: #F05772; stroke-width: 0.9049773755656109;" x1="307.6923" x2="316.7421" y1="536.7788" y2="536.7788"/><rect fill="#FFFFFF" filter="url(#f1o2b7izs4lgbo)" height="83.3074" style="stroke: #F05772; stroke-width: 0.9049773755656109;" width="9.0498" x="312.2172" y="158.0317"/><rect fill="#FFFFFF" filter="url(#f1o2b7izs4lgbo)" height="69.4146" style="stroke: #F05772; stroke-width: 0.9049773755656109;" width="9.0498" x="312.2172" y="427.5452"/><rect fill="#FFFFFF" filter="url(#f1o2b7izs4lgbo)" height="72.1295" style="stroke: #F05772; stroke-width: 0.9049773755656109;" width="9.0498" x="486.8778" y="241.3391"/><polygon fill="#4A4A86" points="152.9412,77.4392,161.991,81.0591,152.9412,84.679,156.5611,81.0591" style="stroke: #4A4A86; stroke-width: 0.9049773755656109;"/><line style="stroke: #4A4A86; stroke-width: 0.9049773755656109;" x1="2.7149" x2="158.371" y1="81.0591" y2="81.0591"/><text fill="#33335B" font-family="sans-serif" font-size="11.7647" lengthAdjust="spacingAndGlyphs" textLength="143.8914" x="9.0498" y="76.6641">platform_wait_for_interrupt()</text><polygon fill="#4A4A86" points="296.8326,104.9067,305.8824,108.5266,296.8326,112.1465,300.4525,108.5266" style="stroke: #4A4A86; stroke-width: 0.9049773755656109;"/><line style="stroke: #4A4A86; stroke-width: 0.9049773755656109;" x1="172.8507" x2="302.2624" y1="108.5266" y2="108.5266"/><text fill="#33335B" font-family="sans-serif" font-size="11.7647" lengthAdjust="spacingAndGlyphs" textLength="117.6471" x="179.1855" y="104.1316">lps_wait_for_interrupt()</text><line style="stroke: #4A4A86; stroke-width: 0.9049773755656109;" x1="316.7421" x2="359.276" y1="146.267" y2="146.267"/><line style="stroke: #4A4A86; stroke-width: 0.9049773755656109;" x1="359.276" x2="359.276" y1="146.267" y2="158.0317"/><line style="stroke: #4A4A86; stroke-width: 0.9049773755656109;" x1="322.1719" x2="359.276" y1="158.0317" y2="158.0317"/><polygon fill="#4A4A86" points="331.2217,154.4118,322.1719,158.0317,331.2217,161.6516,327.6018,158.0317" style="stroke: #4A4A86; stroke-width: 0.9049773755656109;"/><text fill="#33335B" font-family="sans-serif" font-size="11.7647" lengthAdjust="spacingAndGlyphs" textLength="60.6335" x="327.6018" y="127.0742">platform_pg</text><text fill="#33335B" font-family="sans-serif" font-size="11.7647" lengthAdjust="spacingAndGlyphs" textLength="157.4661" x="327.6018" y="141.872">int_handler(D0i3/D0) [SW INT]</text><polygon fill="#4A4A86" points="614.4796,198.3279,623.5294,201.9478,614.4796,205.5677,618.0995,201.9478" style="stroke: #4A4A86; stroke-width: 0.9049773755656109;"/><line style="stroke: #4A4A86; stroke-width: 0.9049773755656109;" x1="321.267" x2="619.9095" y1="201.9478" y2="201.9478"/><text fill="#33335B" font-family="sans-serif" font-size="11.7647" font-weight="bold" lengthAdjust="spacingAndGlyphs" textLength="138.4615" x="327.6018" y="197.5528">pm_runtime_put(DSP, 0)</text><path d="M629.8643,174.3213 L629.8643,212.3303 L720.362,212.3303 L720.362,183.371 L711.3122,174.3213 L629.8643,174.3213 " fill="#F6ED80" filter="url(#f1o2b7izs4lgbo)" style="stroke: #D6D6DE; stroke-width: 0.9049773755656109;"/><path d="M711.3122,174.3213 L711.3122,183.371 L720.362,183.371 L711.3122,174.3213 " fill="#F6ED80" style="stroke: #D6D6DE; stroke-width: 0.9049773755656109;"/><text fill="#33335B" font-family="sans-serif" font-size="11.7647" lengthAdjust="spacingAndGlyphs" textLength="71.4932" x="635.2941" y="191.0589">DSP core PG</text><text fill="#33335B" font-family="sans-serif" font-size="11.7647" lengthAdjust="spacingAndGlyphs" textLength="40.724" x="635.2941" y="205.8567">enabled</text><polygon fill="#4A4A86" points="476.0181,237.7192,485.0679,241.3391,476.0181,244.959,479.638,241.3391" style="stroke: #4A4A86; stroke-width: 0.9049773755656109;"/><line style="stroke: #4A4A86; stroke-width: 0.9049773755656109;" x1="316.7421" x2="481.448" y1="241.3391" y2="241.3391"/><text fill="#33335B" font-family="sans-serif" font-size="11.7647" lengthAdjust="spacingAndGlyphs" textLength="89.5928" x="323.0769" y="236.9441">platform_pg_task</text><line style="stroke: #4A4A86; stroke-width: 0.9049773755656109;" x1="495.9276" x2="533.9367" y1="268.8066" y2="268.8066"/><line style="stroke: #4A4A86; stroke-width: 0.9049773755656109;" x1="533.9367" x2="533.9367" y1="268.8066" y2="280.5713"/><line style="stroke: #4A4A86; stroke-width: 0.9049773755656109;" x1="496.8326" x2="533.9367" y1="280.5713" y2="280.5713"/><polygon fill="#4A4A86" points="505.8824,276.9514,496.8326,280.5713,505.8824,284.1912,502.2624,280.5713" style="stroke: #4A4A86; stroke-width: 0.9049773755656109;"/><text fill="#33335B" font-family="sans-serif" font-size="11.7647" lengthAdjust="spacingAndGlyphs" textLength="112.2172" x="502.2624" y="264.4116">configure lpsram boot</text><line style="stroke: #4A4A86; stroke-width: 0.9049773755656109;" x1="495.9276" x2="533.9367" y1="312.5636" y2="312.5636"/><line style="stroke: #4A4A86; stroke-width: 0.9049773755656109;" x1="533.9367" x2="533.9367" y1="312.5636" y2="324.3283"/><line style="stroke: #4A4A86; stroke-width: 0.9049773755656109;" x1="491.4027" x2="533.9367" y1="324.3283" y2="324.3283"/><polygon fill="#4A4A86" points="500.4525,320.7084,491.4027,324.3283,500.4525,327.9482,496.8326,324.3283" style="stroke: #4A4A86; stroke-width: 0.9049773755656109;"/><text fill="#33335B" font-family="sans-serif" font-size="11.7647" lengthAdjust="spacingAndGlyphs" textLength="23.5294" x="502.2624" y="308.1687">waiti</text><path d="M541.1765,293.6934 L541.1765,317.2229 L660.6335,317.2229 L660.6335,302.7432 L651.5837,293.6934 L541.1765,293.6934 " fill="#F6ED80" filter="url(#f1o2b7izs4lgbo)" style="stroke: #D6D6DE; stroke-width: 0.9049773755656109;"/><path d="M651.5837,293.6934 L651.5837,302.7432 L660.6335,302.7432 L651.5837,293.6934 " fill="#F6ED80" style="stroke: #D6D6DE; stroke-width: 0.9049773755656109;"/><text fill="#33335B" font-family="sans-serif" font-size="11.7647" lengthAdjust="spacingAndGlyphs" textLength="100.4525" x="546.6063" y="310.4311">DSP core is PG-ed</text><polygon fill="#4A4A86" points="773.7557,368.9904,764.7059,372.6103,773.7557,376.2302,770.1357,372.6103" style="stroke: #4A4A86; stroke-width: 0.9049773755656109;"/><line style="stroke: #4A4A86; stroke-width: 0.9049773755656109;" x1="768.3258" x2="801.81" y1="372.6103" y2="372.6103"/><text fill="#33335B" font-family="sans-serif" font-size="11.7647" lengthAdjust="spacingAndGlyphs" textLength="17.1946" x="779.1855" y="368.2153">INT</text><polygon fill="#4A4A86" points="714.0271,381.6601,704.9774,385.28,714.0271,388.8999,710.4072,385.28" style="stroke: #4A4A86; stroke-width: 0.9049773755656109;"/><line style="stroke: #4A4A86; stroke-width: 0.9049773755656109;" x1="708.5973" x2="762.8959" y1="385.28" y2="385.28"/><polygon fill="#4A4A86" points="331.2217,423.9253,322.1719,427.5452,331.2217,431.1652,327.6018,427.5452" style="stroke: #4A4A86; stroke-width: 0.9049773755656109;"/><line style="stroke: #4A4A86; stroke-width: 0.9049773755656109;" x1="325.7919" x2="703.1674" y1="427.5452" y2="427.5452"/><text fill="#33335B" font-family="sans-serif" font-size="11.7647" lengthAdjust="spacingAndGlyphs" textLength="60.6335" x="336.6516" y="408.3525">platform_pg</text><text fill="#33335B" font-family="sans-serif" font-size="11.7647" lengthAdjust="spacingAndGlyphs" textLength="157.4661" x="336.6516" y="423.1503">int_handler(D0i3/D0) [SW INT]</text><polygon fill="#4A4A86" points="614.4796,463.3166,623.5294,466.9365,614.4796,470.5564,618.0995,466.9365" style="stroke: #4A4A86; stroke-width: 0.9049773755656109;"/><line style="stroke: #4A4A86; stroke-width: 0.9049773755656109;" x1="321.267" x2="619.9095" y1="466.9365" y2="466.9365"/><text fill="#33335B" font-family="sans-serif" font-size="11.7647" font-weight="bold" lengthAdjust="spacingAndGlyphs" textLength="138.4615" x="327.6018" y="462.5415">pm_runtime_get(DSP, 0)</text><path d="M629.8643,439.31 L629.8643,477.319 L720.362,477.319 L720.362,448.3597 L711.3122,439.31 L629.8643,439.31 " fill="#F6ED80" filter="url(#f1o2b7izs4lgbo)" style="stroke: #D6D6DE; stroke-width: 0.9049773755656109;"/><path d="M711.3122,439.31 L711.3122,448.3597 L720.362,448.3597 L711.3122,439.31 " fill="#F6ED80" style="stroke: #D6D6DE; stroke-width: 0.9049773755656109;"/><text fill="#33335B" font-family="sans-serif" font-size="11.7647" lengthAdjust="spacingAndGlyphs" textLength="71.4932" x="635.2941" y="456.0476">DSP core PG</text><text fill="#33335B" font-family="sans-serif" font-size="11.7647" lengthAdjust="spacingAndGlyphs" textLength="43.4389" x="635.2941" y="470.8454">disabled</text><line style="stroke: #4A4A86; stroke-width: 0.9049773755656109; stroke-dasharray: 2.0,2.0;" x1="321.267" x2="359.276" y1="496.0549" y2="496.0549"/><line style="stroke: #4A4A86; stroke-width: 0.9049773755656109; stroke-dasharray: 2.0,2.0;" x1="359.276" x2="359.276" y1="496.0549" y2="507.8196"/><line style="stroke: #4A4A86; stroke-width: 0.9049773755656109; stroke-dasharray: 2.0,2.0;" x1="316.7421" x2="359.276" y1="507.8196" y2="507.8196"/><polygon fill="#4A4A86" points="325.7919,504.1997,316.7421,507.8196,325.7919,511.4395,322.1719,507.8196" style="stroke: #4A4A86; stroke-width: 0.9049773755656109;"/><polygon fill="#4A4A86" points="182.8054,512.3445,173.7557,515.9644,182.8054,519.5843,179.1855,515.9644" style="stroke: #4A4A86; stroke-width: 0.9049773755656109;"/><line style="stroke: #4A4A86; stroke-width: 0.9049773755656109; stroke-dasharray: 2.0,2.0;" x1="177.3756" x2="306.7873" y1="515.9644" y2="515.9644"/><polygon fill="#4A4A86" points="12.6697,525.0141,3.6199,528.634,12.6697,532.254,9.0498,528.634" style="stroke: #4A4A86; stroke-width: 0.9049773755656109;"/><line style="stroke: #4A4A86; stroke-width: 0.9049773755656109; stroke-dasharray: 2.0,2.0;" x1="7.2398" x2="162.8959" y1="528.634" y2="528.634"/><!--MD5=[495082f3701d778955740c992fa866aa]
@startuml
hidefootbox
skinparam componentStyle uml2

skinparam defaultFontColor	#33335b

skinparam rectangle {
	color		#d6d6de
	backgroundColor	#ffffff
}

skinparam component {
	backgroundColor	#ffffff
	borderColor	#33335b
	arrowColor	#f05772
}

skinparam interface {
	backgroundColor	#ffffff
	borderColor	#f05772
}

skinparam class {
	backgroundColor	#ffffff
	borderColor	#33335b
	arrowColor	#f05772
}
skinparam stereotypeCBackgroundColor	#6fccdd

skinparam sequence {
	arrowColor		#4a4a86
	lifeLineBorderColor	#f05772
	groupBorderColor	#a1a1ca
	boxBorderColor		#a1a1ca
	dividerBorderColor	#d6d6de
	dividerBorderThickness	1
}
skinparam participant {
	borderColor		#33335b
	backgroundColor		#ffffff
}
skinparam actor {
	borderColor		#33335b
	backgroundColor		#ffffff
}

skinparam state {
	borderColor		#33335b
	backgroundColor		#ffffff
}

skinparam node {
	backgroundColor		#ffffff
}

skinparam note {
	backgroundColor 	#f6ed80
	borderColor		#d6d6de
}
scale max 800 width

participant platform
participant lps as "cavs/lps_wait"
participant lps_pg as "cavs/lps\npg thread"
participant pm_rt as "pm-runtime"

participant lpsram_boot as "Lpsram\nBoot"
participant dsp_rom as "Dsp\nRom"

-> platform : platform_wait_for_interrupt()
   activate platform
   platform -> lps : lps_wait_for_interrupt()
      activate lps
      lps -> lps : platform_pg\nint_handler(D0i3/D0) [SW INT]
         activate lps
         lps -> pm_rt : <b>pm_runtime_put(DSP, 0)</b>
            note right: DSP core PG\nenabled
         lps -> lps_pg : platform_pg_task
         deactivate lps
            activate lps_pg
               lps_pg -> lps_pg : configure lpsram boot
               lps_pg -> lps_pg : waiti
                  note right: DSP core is PG-ed
               deactivate lps_pg
...

dsp_rom <- : INT
lpsram_boot <- dsp_rom
lps <- lpsram_boot : platform_pg\nint_handler(D0i3/D0) [SW INT]
   activate lps
   lps -> pm_rt : <b>pm_runtime_get(DSP, 0)
      note right: DSP core PG\ndisabled
   lps <- - lps
   deactivate lps
platform <- - lps
<- - platform

@enduml

PlantUML version 1.2019.12(Sun Nov 03 11:24:54 CET 2019)
(GPL source distribution)
Java Runtime: OpenJDK Runtime Environment
JVM: OpenJDK 64-Bit Server VM
Java Version: 1.8.0_302-b08
Operating System: Windows 10
Default Encoding: Cp1252
Language: en
Country: US
--></g></svg>