<?xml version="1.0" encoding="UTF-8" standalone="no"?><svg xmlns="http://www.w3.org/2000/svg" xmlns:xlink="http://www.w3.org/1999/xlink" contentScriptType="application/ecmascript" contentStyleType="text/css" height="375px" preserveAspectRatio="none" style="width:571px;height:375px;" version="1.1" viewBox="0 0 571 375" width="571px" zoomAndPan="magnify"><defs><filter height="300%" id="f1bqrayahdwxc1" width="300%" x="-1" y="-1"><feGaussianBlur result="blurOut" stdDeviation="2.0"/><feColorMatrix in="blurOut" result="blurOut2" type="matrix" values="0 0 0 0 0 0 0 0 0 0 0 0 0 0 0 0 0 0 .4 0"/><feOffset dx="4.0" dy="4.0" in="blurOut2" result="blurOut3"/><feBlend in="SourceGraphic" in2="blurOut3" mode="normal"/></filter></defs><g><!--cluster cavs--><polygon fill="#FFFFFF" filter="url(#f1bqrayahdwxc1)" points="99,145,141,145,148,167.2969,387,167.2969,387,242,99,242,99,145" style="stroke: #000000; stroke-width: 1.5;"/><line style="stroke: #000000; stroke-width: 1.5;" x1="99" x2="148" y1="167.2969" y2="167.2969"/><text fill="#33335B" font-family="sans-serif" font-size="14" font-weight="bold" lengthAdjust="spacingAndGlyphs" textLength="36" x="103" y="159.9951">cavs</text><!--cluster arch--><polygon fill="#FFFFFF" filter="url(#f1bqrayahdwxc1)" points="165,266,206,266,213,288.2969,549,288.2969,549,363,165,363,165,266" style="stroke: #000000; stroke-width: 1.5;"/><line style="stroke: #000000; stroke-width: 1.5;" x1="165" x2="213" y1="288.2969" y2="288.2969"/><text fill="#33335B" font-family="sans-serif" font-size="14" font-weight="bold" lengthAdjust="spacingAndGlyphs" textLength="35" x="169" y="280.9951">arch</text><!--cluster platform--><polygon fill="#FFFFFF" filter="url(#f1bqrayahdwxc1)" points="22,24,94,24,101,46.2969,442,46.2969,442,121,22,121,22,24" style="stroke: #000000; stroke-width: 1.5;"/><line style="stroke: #000000; stroke-width: 1.5;" x1="22" x2="101" y1="46.2969" y2="46.2969"/><text fill="#33335B" font-family="sans-serif" font-size="14" font-weight="bold" lengthAdjust="spacingAndGlyphs" textLength="66" x="26" y="38.9951">platform</text><!--entity 2.0--><rect fill="#FFFFFF" filter="url(#f1bqrayahdwxc1)" height="46.2969" style="stroke: #33335B; stroke-width: 1.5;" width="62" x="309" y="180"/><rect fill="#FFFFFF" height="10" style="stroke: #33335B; stroke-width: 1.5;" width="15" x="351" y="185"/><rect fill="#FFFFFF" height="2" style="stroke: #33335B; stroke-width: 1.5;" width="4" x="349" y="187"/><rect fill="#FFFFFF" height="2" style="stroke: #33335B; stroke-width: 1.5;" width="4" x="349" y="191"/><text fill="#33335B" font-family="sans-serif" font-size="14" lengthAdjust="spacingAndGlyphs" textLength="22" x="324" y="212.9951">2.0</text><!--entity 1.8--><rect fill="#FFFFFF" filter="url(#f1bqrayahdwxc1)" height="46.2969" style="stroke: #33335B; stroke-width: 1.5;" width="62" x="212" y="180"/><rect fill="#FFFFFF" height="10" style="stroke: #33335B; stroke-width: 1.5;" width="15" x="254" y="185"/><rect fill="#FFFFFF" height="2" style="stroke: #33335B; stroke-width: 1.5;" width="4" x="252" y="187"/><rect fill="#FFFFFF" height="2" style="stroke: #33335B; stroke-width: 1.5;" width="4" x="252" y="191"/><text fill="#33335B" font-family="sans-serif" font-size="14" lengthAdjust="spacingAndGlyphs" textLength="22" x="227" y="212.9951">1.8</text><!--entity 1.5--><rect fill="#FFFFFF" filter="url(#f1bqrayahdwxc1)" height="46.2969" style="stroke: #33335B; stroke-width: 1.5;" width="62" x="115" y="180"/><rect fill="#FFFFFF" height="10" style="stroke: #33335B; stroke-width: 1.5;" width="15" x="157" y="185"/><rect fill="#FFFFFF" height="2" style="stroke: #33335B; stroke-width: 1.5;" width="4" x="155" y="187"/><rect fill="#FFFFFF" height="2" style="stroke: #33335B; stroke-width: 1.5;" width="4" x="155" y="191"/><text fill="#33335B" font-family="sans-serif" font-size="14" lengthAdjust="spacingAndGlyphs" textLength="22" x="130" y="212.9951">1.5</text><!--entity host--><rect fill="#FFFFFF" filter="url(#f1bqrayahdwxc1)" height="46.2969" style="stroke: #33335B; stroke-width: 1.5;" width="71" x="461.5" y="301"/><rect fill="#FFFFFF" height="10" style="stroke: #33335B; stroke-width: 1.5;" width="15" x="512.5" y="306"/><rect fill="#FFFFFF" height="2" style="stroke: #33335B; stroke-width: 1.5;" width="4" x="510.5" y="308"/><rect fill="#FFFFFF" height="2" style="stroke: #33335B; stroke-width: 1.5;" width="4" x="510.5" y="312"/><text fill="#33335B" font-family="sans-serif" font-size="14" lengthAdjust="spacingAndGlyphs" textLength="31" x="476.5" y="333.9951">host</text><!--entity xtensa--><rect fill="#FFFFFF" filter="url(#f1bqrayahdwxc1)" height="46.2969" style="stroke: #33335B; stroke-width: 1.5;" width="86" x="340" y="301"/><rect fill="#FFFFFF" height="10" style="stroke: #33335B; stroke-width: 1.5;" width="15" x="406" y="306"/><rect fill="#FFFFFF" height="2" style="stroke: #33335B; stroke-width: 1.5;" width="4" x="404" y="308"/><rect fill="#FFFFFF" height="2" style="stroke: #33335B; stroke-width: 1.5;" width="4" x="404" y="312"/><text fill="#33335B" font-family="sans-serif" font-size="14" lengthAdjust="spacingAndGlyphs" textLength="46" x="355" y="333.9951">xtensa</text><!--entity xtensa_smp--><rect fill="#FFFFFF" filter="url(#f1bqrayahdwxc1)" height="46.2969" style="stroke: #33335B; stroke-width: 1.5;" width="123" x="181.5" y="301"/><rect fill="#FFFFFF" height="10" style="stroke: #33335B; stroke-width: 1.5;" width="15" x="284.5" y="306"/><rect fill="#FFFFFF" height="2" style="stroke: #33335B; stroke-width: 1.5;" width="4" x="282.5" y="308"/><rect fill="#FFFFFF" height="2" style="stroke: #33335B; stroke-width: 1.5;" width="4" x="282.5" y="312"/><text fill="#33335B" font-family="sans-serif" font-size="14" lengthAdjust="spacingAndGlyphs" textLength="83" x="196.5" y="333.9951">xtensa_smp</text><!--entity icelake--><rect fill="#FFFFFF" filter="url(#f1bqrayahdwxc1)" height="46.2969" style="stroke: #33335B; stroke-width: 1.5;" width="88" x="338" y="59"/><rect fill="#FFFFFF" height="10" style="stroke: #33335B; stroke-width: 1.5;" width="15" x="406" y="64"/><rect fill="#FFFFFF" height="2" style="stroke: #33335B; stroke-width: 1.5;" width="4" x="404" y="66"/><rect fill="#FFFFFF" height="2" style="stroke: #33335B; stroke-width: 1.5;" width="4" x="404" y="70"/><text fill="#33335B" font-family="sans-serif" font-size="14" lengthAdjust="spacingAndGlyphs" textLength="48" x="353" y="91.9951">icelake</text><!--entity cannonlake--><rect fill="#FFFFFF" filter="url(#f1bqrayahdwxc1)" height="46.2969" style="stroke: #33335B; stroke-width: 1.5;" width="120" x="183" y="59"/><rect fill="#FFFFFF" height="10" style="stroke: #33335B; stroke-width: 1.5;" width="15" x="283" y="64"/><rect fill="#FFFFFF" height="2" style="stroke: #33335B; stroke-width: 1.5;" width="4" x="281" y="66"/><rect fill="#FFFFFF" height="2" style="stroke: #33335B; stroke-width: 1.5;" width="4" x="281" y="70"/><text fill="#33335B" font-family="sans-serif" font-size="14" lengthAdjust="spacingAndGlyphs" textLength="80" x="198" y="91.9951">cannonlake</text><!--entity apollolake--><rect fill="#FFFFFF" filter="url(#f1bqrayahdwxc1)" height="46.2969" style="stroke: #33335B; stroke-width: 1.5;" width="109" x="38.5" y="59"/><rect fill="#FFFFFF" height="10" style="stroke: #33335B; stroke-width: 1.5;" width="15" x="127.5" y="64"/><rect fill="#FFFFFF" height="2" style="stroke: #33335B; stroke-width: 1.5;" width="4" x="125.5" y="66"/><rect fill="#FFFFFF" height="2" style="stroke: #33335B; stroke-width: 1.5;" width="4" x="125.5" y="70"/><text fill="#33335B" font-family="sans-serif" font-size="14" lengthAdjust="spacingAndGlyphs" textLength="69" x="53.5" y="91.9951">apollolake</text><!--link 1.5 to xtensa_smp--><path d="M164.018,226.104 C180.249,246.016 204.14,275.326 221.392,296.4912 " fill="none" id="1.5-xtensa_smp" style="stroke: #4A4A86; stroke-width: 1.0; stroke-dasharray: 7.0,7.0;"/><polygon fill="#4A4A86" points="224.75,300.6105,222.1644,291.1071,221.591,296.7348,215.9633,296.1615,224.75,300.6105" style="stroke: #4A4A86; stroke-width: 1.0;"/><!--link 1.8 to xtensa_smp--><path d="M243,226.104 C243,245.685 243,274.351 243,295.4262 " fill="none" id="1.8-xtensa_smp" style="stroke: #4A4A86; stroke-width: 1.0; stroke-dasharray: 7.0,7.0;"/><polygon fill="#4A4A86" points="243,300.6105,247,291.6105,243,295.6105,239,291.6105,243,300.6105" style="stroke: #4A4A86; stroke-width: 1.0;"/><!--link 2.0 to xtensa_smp--><path d="M321.982,226.104 C305.751,246.016 281.86,275.326 264.608,296.4912 " fill="none" id="2.0-xtensa_smp" style="stroke: #4A4A86; stroke-width: 1.0; stroke-dasharray: 7.0,7.0;"/><polygon fill="#4A4A86" points="261.25,300.6105,270.0367,296.1615,264.409,296.7348,263.8356,291.1071,261.25,300.6105" style="stroke: #4A4A86; stroke-width: 1.0;"/><!--link apollolake to 1.5--><path d="M102.8447,105.104 C111.639,124.851 124.55,153.838 133.957,174.96 " fill="none" id="apollolake-1.5" style="stroke: #4A4A86; stroke-width: 1.0; stroke-dasharray: 7.0,7.0;"/><polygon fill="#4A4A86" points="136.028,179.61,136.02,169.7611,133.9936,175.0426,128.7121,173.0162,136.028,179.61" style="stroke: #4A4A86; stroke-width: 1.0;"/><!--link cannonlake to 1.8--><path d="M243,105.104 C243,124.685 243,153.351 243,174.426 " fill="none" id="cannonlake-1.8" style="stroke: #4A4A86; stroke-width: 1.0; stroke-dasharray: 7.0,7.0;"/><polygon fill="#4A4A86" points="243,179.61,247,170.61,243,174.61,239,170.61,243,179.61" style="stroke: #4A4A86; stroke-width: 1.0;"/><!--link icelake to 2.0--><path d="M374.199,105.104 C367.259,124.768 357.084,153.595 349.638,174.694 " fill="none" id="icelake-2.0" style="stroke: #4A4A86; stroke-width: 1.0; stroke-dasharray: 7.0,7.0;"/><polygon fill="#4A4A86" points="347.902,179.61,354.6692,172.4543,349.566,174.895,347.1253,169.7918,347.902,179.61" style="stroke: #4A4A86; stroke-width: 1.0;"/><!--
@startuml
hidefootbox
skinparam componentStyle uml2

skinparam defaultFontColor	#33335b

skinparam rectangle {
	color		#d6d6de
	backgroundColor	#ffffff
}

skinparam component {
	backgroundColor	#ffffff
	borderColor	#33335b
	arrowColor	#f05772
}

skinparam interface {
	backgroundColor	#ffffff
	borderColor	#f05772
}

skinparam class {
	backgroundColor	#ffffff
	borderColor	#33335b
	arrowColor	#f05772
}
skinparam stereotypeCBackgroundColor	#6fccdd

skinparam sequence {
	arrowColor		#4a4a86
	lifeLineBorderColor	#f05772
	groupBorderColor	#a1a1ca
	boxBorderColor		#a1a1ca
	dividerBorderColor	#d6d6de
	dividerBorderThickness	1
}
skinparam participant {
	borderColor		#33335b
	backgroundColor		#ffffff
}
skinparam actor {
	borderColor		#33335b
	backgroundColor		#ffffff
}

skinparam state {
	borderColor		#33335b
	backgroundColor		#ffffff
}

skinparam node {
	backgroundColor		#ffffff
}

skinparam note {
	backgroundColor 	#f6ed80
	borderColor		#d6d6de
}
package cavs {
   component 2.0
   component 1.8
   component 1.5
}

package arch {
   component host
   component xtensa
   component xtensa_smp
}

1.5 ..> xtensa_smp
1.8 ..> xtensa_smp
2.0 ..> xtensa_smp

package platform {
   component icelake
   component cannonlake
   component apollolake
}

apollolake ..> 1.5
cannonlake ..> 1.8
icelake ..> 2.0

@enduml

PlantUML version 1.2019.06(Fri May 24 17:10:25 UTC 2019)
(GPL source distribution)
Java Runtime: OpenJDK Runtime Environment
JVM: OpenJDK 64-Bit Server VM
Java Version: 11.0.2+9
Operating System: Linux
OS Version: 4.15.0-1028-gcp
Default Encoding: UTF-8
Language: en
Country: US
--></g></svg>