<?xml version="1.0" encoding="UTF-8" standalone="no"?><svg xmlns="http://www.w3.org/2000/svg" xmlns:xlink="http://www.w3.org/1999/xlink" contentScriptType="application/ecmascript" contentStyleType="text/css" height="337px" preserveAspectRatio="none" style="width:823px;height:337px;" version="1.1" viewBox="0 0 823 337" width="823px" zoomAndPan="magnify"><defs><filter height="300%" id="f18k3gv7tif2cy" width="300%" x="-1" y="-1"><feGaussianBlur result="blurOut" stdDeviation="2.0"/><feColorMatrix in="blurOut" result="blurOut2" type="matrix" values="0 0 0 0 0 0 0 0 0 0 0 0 0 0 0 0 0 0 .4 0"/><feOffset dx="4.0" dy="4.0" in="blurOut2" result="blurOut3"/><feBlend in="SourceGraphic" in2="blurOut3" mode="normal"/></filter></defs><g><rect fill="#FFFFFF" filter="url(#f18k3gv7tif2cy)" height="191.4063" style="stroke: #F05772; stroke-width: 1.0;" width="10" x="220" y="71.9609"/><rect fill="#FFFFFF" filter="url(#f18k3gv7tif2cy)" height="147.0547" style="stroke: #F05772; stroke-width: 1.0;" width="10" x="397" y="102.3125"/><rect fill="#FFFFFF" filter="url(#f18k3gv7tif2cy)" height="14" style="stroke: #F05772; stroke-width: 1.0;" width="10" x="585" y="132.6641"/><rect fill="#FFFFFF" filter="url(#f18k3gv7tif2cy)" height="58.3516" style="stroke: #F05772; stroke-width: 1.0;" width="10" x="747" y="177.0156"/><rect fill="#FFFFFF" filter="url(#f18k3gv7tif2cy)" height="14" style="stroke: #F05772; stroke-width: 1.0;" width="10" x="793" y="293.7188"/><line style="stroke: #F05772; stroke-width: 1.0; stroke-dasharray: 5.0,5.0;" x1="35" x2="35" y1="39.6094" y2="325.7188"/><line style="stroke: #F05772; stroke-width: 1.0; stroke-dasharray: 5.0,5.0;" x1="99" x2="99" y1="39.6094" y2="325.7188"/><line style="stroke: #F05772; stroke-width: 1.0; stroke-dasharray: 5.0,5.0;" x1="225" x2="225" y1="39.6094" y2="325.7188"/><line style="stroke: #F05772; stroke-width: 1.0; stroke-dasharray: 5.0,5.0;" x1="401.5" x2="401.5" y1="39.6094" y2="325.7188"/><line style="stroke: #F05772; stroke-width: 1.0; stroke-dasharray: 5.0,5.0;" x1="589.5" x2="589.5" y1="39.6094" y2="325.7188"/><line style="stroke: #F05772; stroke-width: 1.0; stroke-dasharray: 5.0,5.0;" x1="752" x2="752" y1="39.6094" y2="325.7188"/><line style="stroke: #F05772; stroke-width: 1.0; stroke-dasharray: 5.0,5.0;" x1="798" x2="798" y1="39.6094" y2="325.7188"/><rect fill="#FFFFFF" filter="url(#f18k3gv7tif2cy)" height="31.6094" style="stroke: #33335B; stroke-width: 1.5;" width="50" x="8" y="3"/><text fill="#33335B" font-family="sans-serif" font-size="14" lengthAdjust="spacingAndGlyphs" textLength="36" x="15" y="24.5332">core0</text><rect fill="#FFFFFF" filter="url(#f18k3gv7tif2cy)" height="31.6094" style="stroke: #33335B; stroke-width: 1.5;" width="50" x="72" y="3"/><text fill="#33335B" font-family="sans-serif" font-size="14" lengthAdjust="spacingAndGlyphs" textLength="36" x="79" y="24.5332">core1</text><rect fill="#FFFFFF" filter="url(#f18k3gv7tif2cy)" height="31.6094" style="stroke: #33335B; stroke-width: 1.5;" width="32" x="207" y="3"/><text fill="#33335B" font-family="sans-serif" font-size="14" lengthAdjust="spacingAndGlyphs" textLength="18" x="214" y="24.5332">ipc</text><rect fill="#FFFFFF" filter="url(#f18k3gv7tif2cy)" height="31.6094" style="stroke: #33335B; stroke-width: 1.5;" width="37" x="381.5" y="3"/><text fill="#33335B" font-family="sans-serif" font-size="14" lengthAdjust="spacingAndGlyphs" textLength="23" x="388.5" y="24.5332">cpu</text><rect fill="#FFFFFF" filter="url(#f18k3gv7tif2cy)" height="31.6094" style="stroke: #33335B; stroke-width: 1.5;" width="43" x="566.5" y="3"/><text fill="#33335B" font-family="sans-serif" font-size="14" lengthAdjust="spacingAndGlyphs" textLength="29" x="573.5" y="24.5332">alloc</text><rect fill="#FFFFFF" filter="url(#f18k3gv7tif2cy)" height="31.6094" style="stroke: #33335B; stroke-width: 1.5;" width="32" x="734" y="3"/><text fill="#33335B" font-family="sans-serif" font-size="14" lengthAdjust="spacingAndGlyphs" textLength="18" x="741" y="24.5332">idc</text><rect fill="#FFFFFF" filter="url(#f18k3gv7tif2cy)" height="31.6094" style="stroke: #33335B; stroke-width: 1.5;" width="32" x="780" y="3"/><text fill="#33335B" font-family="sans-serif" font-size="14" lengthAdjust="spacingAndGlyphs" textLength="18" x="787" y="24.5332">init</text><rect fill="#FFFFFF" filter="url(#f18k3gv7tif2cy)" height="191.4063" style="stroke: #F05772; stroke-width: 1.0;" width="10" x="220" y="71.9609"/><rect fill="#FFFFFF" filter="url(#f18k3gv7tif2cy)" height="147.0547" style="stroke: #F05772; stroke-width: 1.0;" width="10" x="397" y="102.3125"/><rect fill="#FFFFFF" filter="url(#f18k3gv7tif2cy)" height="14" style="stroke: #F05772; stroke-width: 1.0;" width="10" x="585" y="132.6641"/><rect fill="#FFFFFF" filter="url(#f18k3gv7tif2cy)" height="58.3516" style="stroke: #F05772; stroke-width: 1.0;" width="10" x="747" y="177.0156"/><rect fill="#FFFFFF" filter="url(#f18k3gv7tif2cy)" height="14" style="stroke: #F05772; stroke-width: 1.0;" width="10" x="793" y="293.7188"/><polygon fill="#4A4A86" points="208,67.9609,218,71.9609,208,75.9609,212,71.9609" style="stroke: #4A4A86; stroke-width: 1.0;"/><line style="stroke: #4A4A86; stroke-width: 1.0;" x1="35" x2="214" y1="71.9609" y2="71.9609"/><text fill="#33335B" font-family="sans-serif" font-size="13" lengthAdjust="spacingAndGlyphs" textLength="166" x="42" y="67.1045">ipc_pm_core_enable(header)</text><polygon fill="#4A4A86" points="385,98.3125,395,102.3125,385,106.3125,389,102.3125" style="stroke: #4A4A86; stroke-width: 1.0;"/><line style="stroke: #4A4A86; stroke-width: 1.0;" x1="230" x2="391" y1="102.3125" y2="102.3125"/><text fill="#33335B" font-family="sans-serif" font-size="13" lengthAdjust="spacingAndGlyphs" textLength="148" x="237" y="97.4561">cpu_enable_core(core_id)</text><polygon fill="#4A4A86" points="573,128.6641,583,132.6641,573,136.6641,577,132.6641" style="stroke: #4A4A86; stroke-width: 1.0;"/><line style="stroke: #4A4A86; stroke-width: 1.0;" x1="407" x2="579" y1="132.6641" y2="132.6641"/><text fill="#33335B" font-family="sans-serif" font-size="13" lengthAdjust="spacingAndGlyphs" textLength="159" x="414" y="127.8076">alloc_core_context(core_id)</text><polygon fill="#4A4A86" points="418,142.6641,408,146.6641,418,150.6641,414,146.6641" style="stroke: #4A4A86; stroke-width: 1.0;"/><line style="stroke: #4A4A86; stroke-width: 1.0; stroke-dasharray: 2.0,2.0;" x1="412" x2="589" y1="146.6641" y2="146.6641"/><polygon fill="#4A4A86" points="735,173.0156,745,177.0156,735,181.0156,739,177.0156" style="stroke: #4A4A86; stroke-width: 1.0;"/><line style="stroke: #4A4A86; stroke-width: 1.0;" x1="407" x2="741" y1="177.0156" y2="177.0156"/><text fill="#33335B" font-family="sans-serif" font-size="13" lengthAdjust="spacingAndGlyphs" textLength="173" x="414" y="172.1592">idc_enable_interrupts(core_id)</text><polygon fill="#4A4A86" points="418,187.0156,408,191.0156,418,195.0156,414,191.0156" style="stroke: #4A4A86; stroke-width: 1.0;"/><line style="stroke: #4A4A86; stroke-width: 1.0; stroke-dasharray: 2.0,2.0;" x1="412" x2="746" y1="191.0156" y2="191.0156"/><polygon fill="#4A4A86" points="735,217.3672,745,221.3672,735,225.3672,739,221.3672" style="stroke: #4A4A86; stroke-width: 1.0;"/><line style="stroke: #4A4A86; stroke-width: 1.0;" x1="407" x2="741" y1="221.3672" y2="221.3672"/><text fill="#33335B" font-family="sans-serif" font-size="13" lengthAdjust="spacingAndGlyphs" textLength="316" x="414" y="216.5107">arch_idc_send_msg(power_up, IDC_NON_BLOCKING)</text><polygon fill="#4A4A86" points="418,231.3672,408,235.3672,418,239.3672,414,235.3672" style="stroke: #4A4A86; stroke-width: 1.0;"/><line style="stroke: #4A4A86; stroke-width: 1.0; stroke-dasharray: 2.0,2.0;" x1="412" x2="751" y1="235.3672" y2="235.3672"/><polygon fill="#4A4A86" points="241,245.3672,231,249.3672,241,253.3672,237,249.3672" style="stroke: #4A4A86; stroke-width: 1.0;"/><line style="stroke: #4A4A86; stroke-width: 1.0; stroke-dasharray: 2.0,2.0;" x1="235" x2="401" y1="249.3672" y2="249.3672"/><polygon fill="#4A4A86" points="46,259.3672,36,263.3672,46,267.3672,42,263.3672" style="stroke: #4A4A86; stroke-width: 1.0;"/><line style="stroke: #4A4A86; stroke-width: 1.0; stroke-dasharray: 2.0,2.0;" x1="40" x2="224" y1="263.3672" y2="263.3672"/><polygon fill="#4A4A86" points="781,289.7188,791,293.7188,781,297.7188,785,293.7188" style="stroke: #4A4A86; stroke-width: 1.0;"/><line style="stroke: #4A4A86; stroke-width: 1.0;" x1="99" x2="787" y1="293.7188" y2="293.7188"/><text fill="#33335B" font-family="sans-serif" font-size="13" lengthAdjust="spacingAndGlyphs" textLength="93" x="106" y="288.8623">slave_core_init()</text><polygon fill="#4A4A86" points="786,303.7188,796,307.7188,786,311.7188,790,307.7188" style="stroke: #4A4A86; stroke-width: 1.0;"/><line style="stroke: #4A4A86; stroke-width: 1.0; stroke-dasharray: 2.0,2.0;" x1="99" x2="792" y1="307.7188" y2="307.7188"/><!--MD5=[b8f06f22e3b723158e58d064aa9392ee]
@startuml
hidefootbox
skinparam componentStyle uml2

skinparam defaultFontColor	#33335b

skinparam rectangle {
	color		#d6d6de
	backgroundColor	#ffffff
}

skinparam component {
	backgroundColor	#ffffff
	borderColor	#33335b
	arrowColor	#f05772
}

skinparam interface {
	backgroundColor	#ffffff
	borderColor	#f05772
}

skinparam class {
	backgroundColor	#ffffff
	borderColor	#33335b
	arrowColor	#f05772
}
skinparam stereotypeCBackgroundColor	#6fccdd

skinparam sequence {
	arrowColor		#4a4a86
	lifeLineBorderColor	#f05772
	groupBorderColor	#a1a1ca
	boxBorderColor		#a1a1ca
	dividerBorderColor	#d6d6de
	dividerBorderThickness	1
}
skinparam participant {
	borderColor		#33335b
	backgroundColor		#ffffff
}
skinparam actor {
	borderColor		#33335b
	backgroundColor		#ffffff
}

skinparam state {
	borderColor		#33335b
	backgroundColor		#ffffff
}

skinparam node {
	backgroundColor		#ffffff
}

skinparam note {
	backgroundColor 	#f6ed80
	borderColor		#d6d6de
}
participant core0
participant core1
participant ipc
participant cpu
participant alloc
participant idc
participant init

core0 -> ipc : ipc_pm_core_enable(header)
   activate ipc

   ipc -> cpu : cpu_enable_core(core_id)
      activate cpu

      cpu -> alloc : alloc_core_context(core_id)
         activate alloc
      cpu <- - alloc
      deactivate alloc

      cpu -> idc : idc_enable_interrupts(core_id)
         activate idc
      cpu <- - idc
      cpu-> idc : arch_idc_send_msg(power_up, IDC_NON_BLOCKING)
      cpu <- - idc
      deactivate idc

   ipc <- - cpu
   deactivate cpu

core0 <- - ipc
deactivate ipc

core1 -> init : slave_core_init()
   activate init
init <- - core1
deactivate init

@enduml

PlantUML version 1.2019.12(Sun Nov 03 11:24:54 CET 2019)
(GPL source distribution)
Java Runtime: OpenJDK Runtime Environment
JVM: OpenJDK 64-Bit Server VM
Java Version: 1.8.0_302-b08
Operating System: Windows 10
Default Encoding: Cp1252
Language: en
Country: US
--></g></svg>