<?xml version="1.0" encoding="UTF-8" standalone="no"?><svg xmlns="http://www.w3.org/2000/svg" xmlns:xlink="http://www.w3.org/1999/xlink" contentScriptType="application/ecmascript" contentStyleType="text/css" height="489px" preserveAspectRatio="none" style="width:162px;height:489px;" version="1.1" viewBox="0 0 162 489" width="162px" zoomAndPan="magnify"><defs><filter height="300%" id="f17yrc0t8dwoqn" width="300%" x="-1" y="-1"><feGaussianBlur result="blurOut" stdDeviation="2.0"/><feColorMatrix in="blurOut" result="blurOut2" type="matrix" values="0 0 0 0 0 0 0 0 0 0 0 0 0 0 0 0 0 0 .4 0"/><feOffset dx="4.0" dy="4.0" in="blurOut2" result="blurOut3"/><feBlend in="SourceGraphic" in2="blurOut3" mode="normal"/></filter></defs><g><!--MD5=[5174bcca1b4ebfd73c4eb390d7997b86]
class lsd--><rect fill="#FFFFFF" filter="url(#f17yrc0t8dwoqn)" height="95.3438" id="lsd" style="stroke: #33335B; stroke-width: 1.5;" width="127" x="15" y="8"/><ellipse cx="30" cy="24" fill="#6FCCDD" rx="11" ry="11" style="stroke: #33335B; stroke-width: 1.0;"/><path d="M32.7656,19.875 Q32.9219,19.6563 33.1094,19.5469 Q33.2969,19.4375 33.5156,19.4375 Q33.8906,19.4375 34.125,19.7031 Q34.3594,19.9531 34.3594,20.5625 L34.3594,22.0156 Q34.3594,22.625 34.125,22.8906 Q33.8906,23.1563 33.5156,23.1563 Q33.1719,23.1563 32.9688,22.9531 Q32.7656,22.7656 32.6563,22.25 Q32.6094,21.8906 32.4219,21.7031 Q32.0938,21.3281 31.4844,21.1094 Q30.875,20.8906 30.25,20.8906 Q29.4844,20.8906 28.8438,21.2188 Q28.2188,21.5469 27.7188,22.2969 Q27.2344,23.0469 27.2344,24.0781 L27.2344,25.1719 Q27.2344,26.4063 28.125,27.2344 Q29.0156,28.0469 30.6094,28.0469 Q31.5469,28.0469 32.2031,27.7969 Q32.5938,27.6406 33.0156,27.2031 Q33.2813,26.9375 33.4219,26.8594 Q33.5781,26.7813 33.7813,26.7813 Q34.1094,26.7813 34.3594,27.0469 Q34.625,27.2969 34.625,27.6406 Q34.625,27.9844 34.2813,28.3906 Q33.7813,28.9688 32.9844,29.2969 Q31.9063,29.75 30.6094,29.75 Q29.0938,29.75 27.8906,29.125 Q26.9063,28.625 26.2188,27.5625 Q25.5313,26.4844 25.5313,25.2031 L25.5313,24.0469 Q25.5313,22.7188 26.1406,21.5781 Q26.7656,20.4219 27.8594,19.8125 Q28.9531,19.1875 30.1875,19.1875 Q30.9219,19.1875 31.5625,19.3594 Q32.2188,19.5156 32.7656,19.875 Z "/><text fill="#33335B" font-family="sans-serif" font-size="12" lengthAdjust="spacingAndGlyphs" textLength="95" x="44" y="28.9102">ll_schedule_data</text><line style="stroke: #33335B; stroke-width: 1.5;" x1="16" x2="141" y1="40" y2="40"/><rect fill="none" height="6" style="stroke: #C82930; stroke-width: 1.0;" width="6" x="23" y="48"/><text fill="#33335B" font-family="sans-serif" font-size="11" lengthAdjust="spacingAndGlyphs" textLength="48" x="35" y="55.4189">tasks : list</text><rect fill="none" height="6" style="stroke: #C82930; stroke-width: 1.0;" width="6" x="23" y="61.8359"/><text fill="#33335B" font-family="sans-serif" font-size="11" lengthAdjust="spacingAndGlyphs" textLength="52" x="35" y="69.2549">num_tasks</text><rect fill="none" height="6" style="stroke: #C82930; stroke-width: 1.0;" width="6" x="23" y="75.6719"/><text fill="#33335B" font-family="sans-serif" font-size="11" lengthAdjust="spacingAndGlyphs" textLength="18" x="35" y="83.0908">pcd</text><rect fill="none" height="6" style="stroke: #C82930; stroke-width: 1.0;" width="6" x="23" y="89.5078"/><text fill="#33335B" font-family="sans-serif" font-size="11" lengthAdjust="spacingAndGlyphs" textLength="34" x="35" y="96.9268">domain</text><!--MD5=[f88fbe2a60644cdf1f58f90e11b0acf5]
class lsdom--><rect fill="#FFFFFF" filter="url(#f17yrc0t8dwoqn)" height="297.0469" id="lsdom" style="stroke: #33335B; stroke-width: 1.5;" width="145" x="6" y="181"/><ellipse cx="21" cy="197" fill="#6FCCDD" rx="11" ry="11" style="stroke: #33335B; stroke-width: 1.0;"/><path d="M23.7656,192.875 Q23.9219,192.6563 24.1094,192.5469 Q24.2969,192.4375 24.5156,192.4375 Q24.8906,192.4375 25.125,192.7031 Q25.3594,192.9531 25.3594,193.5625 L25.3594,195.0156 Q25.3594,195.625 25.125,195.8906 Q24.8906,196.1563 24.5156,196.1563 Q24.1719,196.1563 23.9688,195.9531 Q23.7656,195.7656 23.6563,195.25 Q23.6094,194.8906 23.4219,194.7031 Q23.0938,194.3281 22.4844,194.1094 Q21.875,193.8906 21.25,193.8906 Q20.4844,193.8906 19.8438,194.2188 Q19.2188,194.5469 18.7188,195.2969 Q18.2344,196.0469 18.2344,197.0781 L18.2344,198.1719 Q18.2344,199.4063 19.125,200.2344 Q20.0156,201.0469 21.6094,201.0469 Q22.5469,201.0469 23.2031,200.7969 Q23.5938,200.6406 24.0156,200.2031 Q24.2813,199.9375 24.4219,199.8594 Q24.5781,199.7813 24.7813,199.7813 Q25.1094,199.7813 25.3594,200.0469 Q25.625,200.2969 25.625,200.6406 Q25.625,200.9844 25.2813,201.3906 Q24.7813,201.9688 23.9844,202.2969 Q22.9063,202.75 21.6094,202.75 Q20.0938,202.75 18.8906,202.125 Q17.9063,201.625 17.2188,200.5625 Q16.5313,199.4844 16.5313,198.2031 L16.5313,197.0469 Q16.5313,195.7188 17.1406,194.5781 Q17.7656,193.4219 18.8594,192.8125 Q19.9531,192.1875 21.1875,192.1875 Q21.9219,192.1875 22.5625,192.3594 Q23.2188,192.5156 23.7656,192.875 Z "/><text fill="#33335B" font-family="sans-serif" font-size="12" lengthAdjust="spacingAndGlyphs" textLength="113" x="35" y="201.9102">ll_schedule_domain</text><line style="stroke: #33335B; stroke-width: 1.5;" x1="7" x2="150" y1="213" y2="213"/><rect fill="none" height="6" style="stroke: #C82930; stroke-width: 1.0;" width="6" x="14" y="221"/><text fill="#33335B" font-family="sans-serif" font-size="11" lengthAdjust="spacingAndGlyphs" textLength="39" x="26" y="228.4189">last_tick</text><rect fill="none" height="6" style="stroke: #C82930; stroke-width: 1.0;" width="6" x="14" y="234.8359"/><text fill="#33335B" font-family="sans-serif" font-size="11" lengthAdjust="spacingAndGlyphs" textLength="19" x="26" y="242.2549">lock</text><rect fill="none" height="6" style="stroke: #C82930; stroke-width: 1.0;" width="6" x="14" y="248.6719"/><text fill="#33335B" font-family="sans-serif" font-size="11" lengthAdjust="spacingAndGlyphs" textLength="78" x="26" y="256.0908">total_num_tasks</text><rect fill="none" height="6" style="stroke: #C82930; stroke-width: 1.0;" width="6" x="14" y="262.5078"/><text fill="#33335B" font-family="sans-serif" font-size="11" lengthAdjust="spacingAndGlyphs" textLength="57" x="26" y="269.9268">num_clients</text><rect fill="none" height="6" style="stroke: #C82930; stroke-width: 1.0;" width="6" x="14" y="276.3438"/><text fill="#33335B" font-family="sans-serif" font-size="11" lengthAdjust="spacingAndGlyphs" textLength="64" x="26" y="283.7627">ticks_per_ms</text><rect fill="none" height="6" style="stroke: #C82930; stroke-width: 1.0;" width="6" x="14" y="290.1797"/><text fill="#33335B" font-family="sans-serif" font-size="11" lengthAdjust="spacingAndGlyphs" textLength="21" x="26" y="297.5986">type</text><rect fill="none" height="6" style="stroke: #C82930; stroke-width: 1.0;" width="6" x="14" y="304.0156"/><text fill="#33335B" font-family="sans-serif" font-size="11" lengthAdjust="spacingAndGlyphs" textLength="13" x="26" y="311.4346">clk</text><rect fill="none" height="6" style="stroke: #C82930; stroke-width: 1.0;" width="6" x="14" y="317.8516"/><text fill="#33335B" font-family="sans-serif" font-size="11" lengthAdjust="spacingAndGlyphs" textLength="64" x="26" y="325.2705">synchronous</text><rect fill="none" height="6" style="stroke: #C82930; stroke-width: 1.0;" width="6" x="14" y="331.6875"/><text fill="#33335B" font-family="sans-serif" font-size="11" lengthAdjust="spacingAndGlyphs" textLength="45" x="26" y="339.1064">priv_data</text><rect fill="none" height="6" style="stroke: #C82930; stroke-width: 1.0;" width="6" x="14" y="345.5234"/><text fill="#33335B" font-family="sans-serif" font-size="11" lengthAdjust="spacingAndGlyphs" textLength="84" x="26" y="352.9424">registered : array</text><rect fill="none" height="6" style="stroke: #C82930; stroke-width: 1.0;" width="6" x="14" y="359.3594"/><text fill="#33335B" font-family="sans-serif" font-size="11" lengthAdjust="spacingAndGlyphs" textLength="73" x="26" y="366.7783">enabled : array</text><line style="stroke: #33335B; stroke-width: 1.5;" x1="7" x2="150" y1="373.1953" y2="373.1953"/><ellipse cx="17" cy="384.1953" fill="#84BE84" rx="3" ry="3" style="stroke: #038048; stroke-width: 1.0;"/><text fill="#33335B" font-family="sans-serif" font-size="11" lengthAdjust="spacingAndGlyphs" textLength="85" x="26" y="388.6143">domain_register()</text><ellipse cx="17" cy="398.0313" fill="#84BE84" rx="3" ry="3" style="stroke: #038048; stroke-width: 1.0;"/><text fill="#33335B" font-family="sans-serif" font-size="11" lengthAdjust="spacingAndGlyphs" textLength="97" x="26" y="402.4502">domain_unregister()</text><ellipse cx="17" cy="411.8672" fill="#84BE84" rx="3" ry="3" style="stroke: #038048; stroke-width: 1.0;"/><text fill="#33335B" font-family="sans-serif" font-size="11" lengthAdjust="spacingAndGlyphs" textLength="80" x="26" y="416.2861">domain_enable()</text><ellipse cx="17" cy="425.7031" fill="#84BE84" rx="3" ry="3" style="stroke: #038048; stroke-width: 1.0;"/><text fill="#33335B" font-family="sans-serif" font-size="11" lengthAdjust="spacingAndGlyphs" textLength="82" x="26" y="430.1221">domain_disable()</text><ellipse cx="17" cy="439.5391" fill="#84BE84" rx="3" ry="3" style="stroke: #038048; stroke-width: 1.0;"/><text fill="#33335B" font-family="sans-serif" font-size="11" lengthAdjust="spacingAndGlyphs" textLength="63" x="26" y="443.958">domain_set()</text><ellipse cx="17" cy="453.375" fill="#84BE84" rx="3" ry="3" style="stroke: #038048; stroke-width: 1.0;"/><text fill="#33335B" font-family="sans-serif" font-size="11" lengthAdjust="spacingAndGlyphs" textLength="72" x="26" y="457.7939">domain_clear()</text><ellipse cx="17" cy="467.2109" fill="#84BE84" rx="3" ry="3" style="stroke: #038048; stroke-width: 1.0;"/><text fill="#33335B" font-family="sans-serif" font-size="11" lengthAdjust="spacingAndGlyphs" textLength="100" x="26" y="471.6299">domain_is_pending()</text><!--MD5=[f33f936c6d8667e964f510f4938e47b6]
reverse link lsd to lsdom--><path d="M78.5,116.44 C78.5,135.76 78.5,158.1 78.5,180.88 " fill="none" id="lsd&lt;-lsdom" style="stroke: #4A4A86; stroke-width: 1.0;"/><polygon fill="#4A4A86" points="78.5,103.26,74.5,109.26,78.5,115.26,82.5,109.26,78.5,103.26" style="stroke: #4A4A86; stroke-width: 1.0;"/><text fill="#33335B" font-family="sans-serif" font-size="13" lengthAdjust="spacingAndGlyphs" textLength="49" x="79.5" y="147.4951">contains</text><!--MD5=[d698bc484006063f677bab06f30008ae]
@startuml
hidefootbox
skinparam componentStyle uml2

skinparam defaultFontColor	#33335b

skinparam rectangle {
	color		#d6d6de
	backgroundColor	#ffffff
}

skinparam component {
	backgroundColor	#ffffff
	borderColor	#33335b
	arrowColor	#f05772
}

skinparam interface {
	backgroundColor	#ffffff
	borderColor	#f05772
}

skinparam class {
	backgroundColor	#ffffff
	borderColor	#33335b
	arrowColor	#f05772
}
skinparam stereotypeCBackgroundColor	#6fccdd

skinparam sequence {
	arrowColor		#4a4a86
	lifeLineBorderColor	#f05772
	groupBorderColor	#a1a1ca
	boxBorderColor		#a1a1ca
	dividerBorderColor	#d6d6de
	dividerBorderThickness	1
}
skinparam participant {
	borderColor		#33335b
	backgroundColor		#ffffff
}
skinparam actor {
	borderColor		#33335b
	backgroundColor		#ffffff
}

skinparam state {
	borderColor		#33335b
	backgroundColor		#ffffff
}

skinparam node {
	backgroundColor		#ffffff
}

skinparam note {
	backgroundColor 	#f6ed80
	borderColor		#d6d6de
}
class "ll_schedule_data" as lsd {
   - tasks : list
   - num_tasks
   - pcd
   - domain
}
hide lsd methods

class "ll_schedule_domain" as lsdom {
   - last_tick
   - lock
   - total_num_tasks
   - num_clients
   - ticks_per_ms
   - type
   - clk
   - synchronous
   - priv_data
   - registered : array
   - enabled : array
   + domain_register()
   + domain_unregister()
   + domain_enable()
   + domain_disable()
   + domain_set()
   + domain_clear()
   + domain_is_pending()
}

lsd *- - lsdom : contains

@enduml

PlantUML version 1.2019.12(Sun Nov 03 11:24:54 CET 2019)
(GPL source distribution)
Java Runtime: OpenJDK Runtime Environment
JVM: OpenJDK 64-Bit Server VM
Java Version: 1.8.0_302-b08
Operating System: Windows 10
Default Encoding: Cp1252
Language: en
Country: US
--></g></svg>