<?xml version="1.0" encoding="UTF-8" standalone="no"?><svg xmlns="http://www.w3.org/2000/svg" xmlns:xlink="http://www.w3.org/1999/xlink" contentScriptType="application/ecmascript" contentStyleType="text/css" height="1163px" preserveAspectRatio="none" style="width:540px;height:1163px;" version="1.1" viewBox="0 0 540 1163" width="540px" zoomAndPan="magnify"><defs><filter height="300%" id="f8wv1i86gtqoy" width="300%" x="-1" y="-1"><feGaussianBlur result="blurOut" stdDeviation="2.0"/><feColorMatrix in="blurOut" result="blurOut2" type="matrix" values="0 0 0 0 0 0 0 0 0 0 0 0 0 0 0 0 0 0 .4 0"/><feOffset dx="4.0" dy="4.0" in="blurOut2" result="blurOut3"/><feBlend in="SourceGraphic" in2="blurOut3" mode="normal"/></filter></defs><g><text fill="#33335B" font-family="sans-serif" font-size="18" lengthAdjust="spacingAndGlyphs" textLength="147" x="200.5" y="16.708">image build flow</text><!--MD5=[9e0a7e62d5f2161e5902d10e50a2a44a]
class bootloader_elf_file--><rect fill="#FFFFFF" filter="url(#f8wv1i86gtqoy)" height="69.6094" id="bootloader_elf_file" style="stroke: #33335B; stroke-width: 1.5;" width="181" x="55" y="28.9531"/><ellipse cx="85.75" cy="44.9531" fill="#DA70D6" rx="11" ry="11" style="stroke: #33335B; stroke-width: 1.0;"/><path d="M89.9844,40.7188 L84.7031,40.7188 L84.7031,43.3906 L89.5,43.3906 L89.5,45.5469 L84.7031,45.5469 L84.7031,50.9531 L82.2656,50.9531 L82.2656,38.5625 L89.9844,38.5625 L89.9844,40.7188 Z "/><text fill="#33335B" font-family="sans-serif" font-size="12" lengthAdjust="spacingAndGlyphs" textLength="114" x="103.25" y="49.1074">bootloader_elf_file</text><line style="stroke: #33335B; stroke-width: 1.5;" x1="56" x2="235" y1="60.9531" y2="60.9531"/><text fill="#33335B" font-family="sans-serif" font-size="11" lengthAdjust="spacingAndGlyphs" textLength="169" x="61" y="91.9683">Used for CAVS 1.5 and newer</text><line style="stroke: #33335B; stroke-width: 1.0;" x1="56" x2="133" y1="75.3555" y2="75.3555"/><text fill="#33335B" font-family="sans-serif" font-size="11" lengthAdjust="spacingAndGlyphs" textLength="25" x="133" y="78.6636">note</text><line style="stroke: #33335B; stroke-width: 1.0;" x1="158" x2="235" y1="75.3555" y2="75.3555"/><!--MD5=[5c970644e5b7143556414cadba97c378]
class firmware_elf_file--><rect fill="#FFFFFF" filter="url(#f8wv1i86gtqoy)" height="48" id="firmware_elf_file" style="stroke: #33335B; stroke-width: 1.5;" width="130" x="271.5" y="39.9531"/><ellipse cx="286.5" cy="55.9531" fill="#DA70D6" rx="11" ry="11" style="stroke: #33335B; stroke-width: 1.0;"/><path d="M290.7344,51.7188 L285.4531,51.7188 L285.4531,54.3906 L290.25,54.3906 L290.25,56.5469 L285.4531,56.5469 L285.4531,61.9531 L283.0156,61.9531 L283.0156,49.5625 L290.7344,49.5625 L290.7344,51.7188 Z "/><text fill="#33335B" font-family="sans-serif" font-size="12" lengthAdjust="spacingAndGlyphs" textLength="98" x="300.5" y="60.1074">firmware_elf_file</text><line style="stroke: #33335B; stroke-width: 1.5;" x1="272.5" x2="400.5" y1="71.9531" y2="71.9531"/><line style="stroke: #33335B; stroke-width: 1.5;" x1="272.5" x2="400.5" y1="79.9531" y2="79.9531"/><!--MD5=[759b83eeaa614abeac43c954de736d9c]
class rimage--><rect fill="#FFFFFF" filter="url(#f8wv1i86gtqoy)" height="86.4141" id="rimage" style="stroke: #33335B; stroke-width: 1.5;" width="150" x="165.5" y="159.9531"/><ellipse cx="214.75" cy="175.9531" fill="#6FCCDD" rx="11" ry="11" style="stroke: #33335B; stroke-width: 1.0;"/><path d="M217.7188,181.5938 Q217.1406,181.8906 216.5,182.0313 Q215.8594,182.1875 215.1563,182.1875 Q212.6563,182.1875 211.3281,180.5469 Q210.0156,178.8906 210.0156,175.7656 Q210.0156,172.6406 211.3281,170.9844 Q212.6563,169.3281 215.1563,169.3281 Q215.8594,169.3281 216.5,169.4844 Q217.1563,169.6406 217.7188,169.9375 L217.7188,172.6563 Q217.0938,172.0781 216.5,171.8125 Q215.9063,171.5313 215.2813,171.5313 Q213.9375,171.5313 213.25,172.6094 Q212.5625,173.6719 212.5625,175.7656 Q212.5625,177.8594 213.25,178.9375 Q213.9375,180 215.2813,180 Q215.9063,180 216.5,179.7344 Q217.0938,179.4531 217.7188,178.875 L217.7188,181.5938 Z "/><text fill="#33335B" font-family="sans-serif" font-size="12" lengthAdjust="spacingAndGlyphs" textLength="43" x="235.25" y="180.1074">rimage</text><line style="stroke: #33335B; stroke-width: 1.5;" x1="166.5" x2="314.5" y1="191.9531" y2="191.9531"/><line style="stroke: #33335B; stroke-width: 1.5;" x1="166.5" x2="314.5" y1="199.9531" y2="199.9531"/><ellipse cx="176.5" cy="210.9531" fill="#84BE84" rx="3" ry="3" style="stroke: #038048; stroke-width: 1.0;"/><text fill="#33335B" font-family="sans-serif" font-size="11" lengthAdjust="spacingAndGlyphs" textLength="93" x="185.5" y="214.1636">write_firmware()</text><ellipse cx="176.5" cy="223.7578" fill="#84BE84" rx="3" ry="3" style="stroke: #038048; stroke-width: 1.0;"/><text fill="#33335B" font-family="sans-serif" font-size="11" lengthAdjust="spacingAndGlyphs" textLength="124" x="185.5" y="226.9683">write_firmware_meu()</text><ellipse cx="176.5" cy="236.5625" fill="#84BE84" rx="3" ry="3" style="stroke: #038048; stroke-width: 1.0;"/><text fill="#33335B" font-family="sans-serif" font-size="11" lengthAdjust="spacingAndGlyphs" textLength="90" x="185.5" y="239.7729">ext_man_write()</text><!--MD5=[2b8f868b3e7ef29862ca687d258a0faa]
class adsp_manifest_file--><rect fill="#FFFFFF" filter="url(#f8wv1i86gtqoy)" height="60.8047" id="adsp_manifest_file" style="stroke: #33335B; stroke-width: 1.5;" width="147" x="6" y="462.9531"/><ellipse cx="21" cy="478.9531" fill="#DA70D6" rx="11" ry="11" style="stroke: #33335B; stroke-width: 1.0;"/><path d="M25.2344,474.7188 L19.9531,474.7188 L19.9531,477.3906 L24.75,477.3906 L24.75,479.5469 L19.9531,479.5469 L19.9531,484.9531 L17.5156,484.9531 L17.5156,472.5625 L25.2344,472.5625 L25.2344,474.7188 Z "/><text fill="#33335B" font-family="sans-serif" font-size="12" lengthAdjust="spacingAndGlyphs" textLength="115" x="35" y="483.1074">adsp_manifest_file</text><line style="stroke: #33335B; stroke-width: 1.5;" x1="7" x2="152" y1="494.9531" y2="494.9531"/><text fill="#33335B" font-family="sans-serif" font-size="11" lengthAdjust="spacingAndGlyphs" textLength="77" x="12" y="509.1636">suffix: .ri.met</text><line style="stroke: #33335B; stroke-width: 1.5;" x1="7" x2="152" y1="515.7578" y2="515.7578"/><!--MD5=[448a08719e7bd68494804755628afe01]
class image_file--><rect fill="#FFFFFF" filter="url(#f8wv1i86gtqoy)" height="120.8281" id="image_file" style="stroke: #33335B; stroke-width: 1.5;" width="110" x="143.5" y="722.9531"/><ellipse cx="165.7" cy="738.9531" fill="#DA70D6" rx="11" ry="11" style="stroke: #33335B; stroke-width: 1.0;"/><path d="M169.9344,734.7188 L164.6531,734.7188 L164.6531,737.3906 L169.45,737.3906 L169.45,739.5469 L164.6531,739.5469 L164.6531,744.9531 L162.2156,744.9531 L162.2156,732.5625 L169.9344,732.5625 L169.9344,734.7188 Z "/><text fill="#33335B" font-family="sans-serif" font-size="12" lengthAdjust="spacingAndGlyphs" textLength="62" x="181.3" y="743.1074">image_file</text><line style="stroke: #33335B; stroke-width: 1.5;" x1="144.5" x2="252.5" y1="754.9531" y2="754.9531"/><text fill="#33335B" font-family="sans-serif" font-size="11" lengthAdjust="spacingAndGlyphs" textLength="51" x="149.5" y="769.1636">suffix: .ri</text><ellipse cx="154.5" cy="795.5625" fill="none" rx="3" ry="3" style="stroke: #038048; stroke-width: 1.0;"/><text fill="#33335B" font-family="sans-serif" font-size="11" lengthAdjust="spacingAndGlyphs" textLength="77" x="163.5" y="798.7729">CSE manifest</text><ellipse cx="154.5" cy="808.3672" fill="none" rx="3" ry="3" style="stroke: #038048; stroke-width: 1.0;"/><text fill="#33335B" font-family="sans-serif" font-size="11" lengthAdjust="spacingAndGlyphs" textLength="78" x="163.5" y="811.5776">CSS manifest</text><ellipse cx="154.5" cy="821.1719" fill="none" rx="3" ry="3" style="stroke: #038048; stroke-width: 1.0;"/><text fill="#33335B" font-family="sans-serif" font-size="11" lengthAdjust="spacingAndGlyphs" textLength="84" x="163.5" y="824.3823">ADSP manifest</text><ellipse cx="154.5" cy="833.9766" fill="none" rx="3" ry="3" style="stroke: #038048; stroke-width: 1.0;"/><text fill="#33335B" font-family="sans-serif" font-size="11" lengthAdjust="spacingAndGlyphs" textLength="75" x="163.5" y="837.187">runtime code</text><line style="stroke: #33335B; stroke-width: 1.0;" x1="144.5" x2="176.5" y1="782.1602" y2="782.1602"/><text fill="#33335B" font-family="sans-serif" font-size="11" lengthAdjust="spacingAndGlyphs" textLength="44" x="176.5" y="785.4683">Content</text><line style="stroke: #33335B; stroke-width: 1.0;" x1="220.5" x2="252.5" y1="782.1602" y2="782.1602"/><!--MD5=[4e768ebb13fcf4c654a352fc010d5e54]
class unsigned_image_file--><rect fill="#FFFFFF" filter="url(#f8wv1i86gtqoy)" height="95.2188" id="unsigned_image_file" style="stroke: #33335B; stroke-width: 1.5;" width="158" x="246.5" y="337.9531"/><ellipse cx="261.5" cy="353.9531" fill="#DA70D6" rx="11" ry="11" style="stroke: #33335B; stroke-width: 1.0;"/><path d="M265.7344,349.7188 L260.4531,349.7188 L260.4531,352.3906 L265.25,352.3906 L265.25,354.5469 L260.4531,354.5469 L260.4531,359.9531 L258.0156,359.9531 L258.0156,347.5625 L265.7344,347.5625 L265.7344,349.7188 Z "/><text fill="#33335B" font-family="sans-serif" font-size="12" lengthAdjust="spacingAndGlyphs" textLength="126" x="275.5" y="358.1074">unsigned_image_file</text><line style="stroke: #33335B; stroke-width: 1.5;" x1="247.5" x2="403.5" y1="369.9531" y2="369.9531"/><text fill="#33335B" font-family="sans-serif" font-size="11" lengthAdjust="spacingAndGlyphs" textLength="76" x="252.5" y="384.1636">suffix: .ri.uns</text><ellipse cx="257.5" cy="410.5625" fill="none" rx="3" ry="3" style="stroke: #038048; stroke-width: 1.0;"/><text fill="#33335B" font-family="sans-serif" font-size="11" lengthAdjust="spacingAndGlyphs" textLength="84" x="266.5" y="413.7729">ADSP manifest</text><ellipse cx="257.5" cy="423.3672" fill="none" rx="3" ry="3" style="stroke: #038048; stroke-width: 1.0;"/><text fill="#33335B" font-family="sans-serif" font-size="11" lengthAdjust="spacingAndGlyphs" textLength="75" x="266.5" y="426.5776">runtime code</text><line style="stroke: #33335B; stroke-width: 1.0;" x1="247.5" x2="303.5" y1="397.1602" y2="397.1602"/><text fill="#33335B" font-family="sans-serif" font-size="11" lengthAdjust="spacingAndGlyphs" textLength="44" x="303.5" y="400.4683">Content</text><line style="stroke: #33335B; stroke-width: 1.0;" x1="347.5" x2="403.5" y1="397.1602" y2="397.1602"/><!--MD5=[d9fc180130ed2022e7c2981ad5d1b604]
class ext_man_file--><rect fill="#FFFFFF" filter="url(#f8wv1i86gtqoy)" height="60.8047" id="ext_man_file" style="stroke: #33335B; stroke-width: 1.5;" width="108" x="366.5" y="631.9531"/><ellipse cx="381.5" cy="647.9531" fill="#DA70D6" rx="11" ry="11" style="stroke: #33335B; stroke-width: 1.0;"/><path d="M385.7344,643.7188 L380.4531,643.7188 L380.4531,646.3906 L385.25,646.3906 L385.25,648.5469 L380.4531,648.5469 L380.4531,653.9531 L378.0156,653.9531 L378.0156,641.5625 L385.7344,641.5625 L385.7344,643.7188 Z "/><text fill="#33335B" font-family="sans-serif" font-size="12" lengthAdjust="spacingAndGlyphs" textLength="76" x="395.5" y="652.1074">ext_man_file</text><line style="stroke: #33335B; stroke-width: 1.5;" x1="367.5" x2="473.5" y1="663.9531" y2="663.9531"/><text fill="#33335B" font-family="sans-serif" font-size="11" lengthAdjust="spacingAndGlyphs" textLength="86" x="372.5" y="678.1636">suffix: .ri.xman</text><line style="stroke: #33335B; stroke-width: 1.5;" x1="367.5" x2="473.5" y1="684.7578" y2="684.7578"/><!--MD5=[feadd63be3ba81d0be5f2cf6da2328b0]
class build_step--><rect fill="#FFFFFF" filter="url(#f8wv1i86gtqoy)" height="52.7734" id="build_step" style="stroke: #33335B; stroke-width: 1.5;" width="125" x="192" y="904.9531"/><text fill="#33335B" font-family="sans-serif" font-size="12" lengthAdjust="spacingAndGlyphs" textLength="64" x="222.5" y="921.0918">build_step</text><line style="stroke: #33335B; stroke-width: 1.5;" x1="193" x2="316" y1="928.9219" y2="928.9219"/><line style="stroke: #33335B; stroke-width: 1.5;" x1="193" x2="316" y1="936.9219" y2="936.9219"/><ellipse cx="203" cy="947.9219" fill="#84BE84" rx="3" ry="3" style="stroke: #038048; stroke-width: 1.0;"/><text fill="#33335B" font-family="sans-serif" font-size="11" lengthAdjust="spacingAndGlyphs" textLength="99" x="212" y="951.1323">glue binary files()</text><!--MD5=[61f913ddb0380a8b7cb2e0b8ec9032aa]
class final_image_file--><rect fill="#FFFFFF" filter="url(#f8wv1i86gtqoy)" height="133.6328" id="final_image_file" style="stroke: #33335B; stroke-width: 1.5;" width="132" x="188.5" y="1018.9531"/><ellipse cx="206.2" cy="1034.9531" fill="#DA70D6" rx="11" ry="11" style="stroke: #33335B; stroke-width: 1.0;"/><path d="M210.4344,1030.7188 L205.1531,1030.7188 L205.1531,1033.3906 L209.95,1033.3906 L209.95,1035.5469 L205.1531,1035.5469 L205.1531,1040.9531 L202.7156,1040.9531 L202.7156,1028.5625 L210.4344,1028.5625 L210.4344,1030.7188 Z "/><text fill="#33335B" font-family="sans-serif" font-size="12" lengthAdjust="spacingAndGlyphs" textLength="94" x="220.8" y="1039.1074">final_image_file</text><line style="stroke: #33335B; stroke-width: 1.5;" x1="189.5" x2="319.5" y1="1050.9531" y2="1050.9531"/><text fill="#33335B" font-family="sans-serif" font-size="11" lengthAdjust="spacingAndGlyphs" textLength="51" x="194.5" y="1065.1636">suffix: .ri</text><ellipse cx="199.5" cy="1091.5625" fill="none" rx="3" ry="3" style="stroke: #038048; stroke-width: 1.0;"/><text fill="#33335B" font-family="sans-serif" font-size="11" lengthAdjust="spacingAndGlyphs" textLength="106" x="208.5" y="1094.7729">Extended manifest</text><ellipse cx="199.5" cy="1104.3672" fill="none" rx="3" ry="3" style="stroke: #038048; stroke-width: 1.0;"/><text fill="#33335B" font-family="sans-serif" font-size="11" lengthAdjust="spacingAndGlyphs" textLength="77" x="208.5" y="1107.5776">CSE manifest</text><ellipse cx="199.5" cy="1117.1719" fill="none" rx="3" ry="3" style="stroke: #038048; stroke-width: 1.0;"/><text fill="#33335B" font-family="sans-serif" font-size="11" lengthAdjust="spacingAndGlyphs" textLength="78" x="208.5" y="1120.3823">CSS manifest</text><ellipse cx="199.5" cy="1129.9766" fill="none" rx="3" ry="3" style="stroke: #038048; stroke-width: 1.0;"/><text fill="#33335B" font-family="sans-serif" font-size="11" lengthAdjust="spacingAndGlyphs" textLength="84" x="208.5" y="1133.187">ADSP manifest</text><ellipse cx="199.5" cy="1142.7813" fill="none" rx="3" ry="3" style="stroke: #038048; stroke-width: 1.0;"/><text fill="#33335B" font-family="sans-serif" font-size="11" lengthAdjust="spacingAndGlyphs" textLength="75" x="208.5" y="1145.9917">runtime code</text><line style="stroke: #33335B; stroke-width: 1.0;" x1="189.5" x2="232.5" y1="1078.1602" y2="1078.1602"/><text fill="#33335B" font-family="sans-serif" font-size="11" lengthAdjust="spacingAndGlyphs" textLength="44" x="232.5" y="1081.4683">Content</text><line style="stroke: #33335B; stroke-width: 1.0;" x1="276.5" x2="319.5" y1="1078.1602" y2="1078.1602"/><!--MD5=[dfdf12dbb17e691a01e1d6356fac9a6e]
class MEU--><rect fill="#FFFFFF" filter="url(#f8wv1i86gtqoy)" height="48" id="MEU" style="stroke: #33335B; stroke-width: 1.5;" width="59" x="290" y="553.9531"/><ellipse cx="305" cy="569.9531" fill="#6FCCDD" rx="11" ry="11" style="stroke: #33335B; stroke-width: 1.0;"/><path d="M307.9688,575.5938 Q307.3906,575.8906 306.75,576.0313 Q306.1094,576.1875 305.4063,576.1875 Q302.9063,576.1875 301.5781,574.5469 Q300.2656,572.8906 300.2656,569.7656 Q300.2656,566.6406 301.5781,564.9844 Q302.9063,563.3281 305.4063,563.3281 Q306.1094,563.3281 306.75,563.4844 Q307.4063,563.6406 307.9688,563.9375 L307.9688,566.6563 Q307.3438,566.0781 306.75,565.8125 Q306.1563,565.5313 305.5313,565.5313 Q304.1875,565.5313 303.5,566.6094 Q302.8125,567.6719 302.8125,569.7656 Q302.8125,571.8594 303.5,572.9375 Q304.1875,574 305.5313,574 Q306.1563,574 306.75,573.7344 Q307.3438,573.4531 307.9688,572.875 L307.9688,575.5938 Z "/><text fill="#33335B" font-family="sans-serif" font-size="12" lengthAdjust="spacingAndGlyphs" textLength="27" x="319" y="574.1074">MEU</text><line style="stroke: #33335B; stroke-width: 1.5;" x1="291" x2="348" y1="585.9531" y2="585.9531"/><line style="stroke: #33335B; stroke-width: 1.5;" x1="291" x2="348" y1="593.9531" y2="593.9531"/><!--MD5=[9f164c5e8a206d118f532443bb44e19a]
link firmware_elf_file to rimage--><path d="M320.21,88.1931 C307.32,106.5931 288.91,132.8731 273.02,155.5431 " fill="none" id="firmware_elf_file-&gt;rimage" style="stroke: #F05772; stroke-width: 1.0;"/><polygon fill="#F05772" points="270.09,159.7331,278.5293,154.6559,272.9583,155.6376,271.9765,150.0666,270.09,159.7331" style="stroke: #F05772; stroke-width: 1.0;"/><!--MD5=[8aa184c494ca7b091c4423651a8a00a1]
link bootloader_elf_file to rimage--><path d="M169.23,99.1731 C181.08,116.2631 195.6,137.1931 208.43,155.7031 " fill="none" id="bootloader_elf_file-&gt;rimage" style="stroke: #F05772; stroke-width: 1.0;"/><polygon fill="#F05772" points="211.31,159.8531,209.4619,150.1792,208.458,155.7463,202.891,154.7424,211.31,159.8531" style="stroke: #F05772; stroke-width: 1.0;"/><!--MD5=[e121641ecc5db650c1585999a253913c]
link rimage to ext_man_file--><path d="M315.78,220.5431 C348,231.2731 383.44,248.5531 406.5,275.9531 C491.87,377.4231 453.56,552.5331 431.82,626.6831 " fill="none" id="rimage-&gt;ext_man_file" style="stroke: #F05772; stroke-width: 1.0;"/><polygon fill="#F05772" points="430.28,631.8431,436.6667,624.3457,431.697,627.0481,428.9947,622.0785,430.28,631.8431" style="stroke: #F05772; stroke-width: 1.0;"/><text fill="#33335B" font-family="sans-serif" font-size="13" lengthAdjust="spacingAndGlyphs" textLength="69" x="459.5" y="390.02">with -e flag</text><!--MD5=[3d74be91c6596303381cfe4bdfe57612]
link ext_man_file to build_step--><path d="M402.1,693.0431 C370.31,744.1831 305.42,848.5531 273.33,900.1631 " fill="none" id="ext_man_file-&gt;build_step" style="stroke: #F05772; stroke-width: 1.0;"/><polygon fill="#F05772" points="270.52,904.6931,278.6736,899.1688,273.1636,900.4491,271.8832,894.9391,270.52,904.6931" style="stroke: #F05772; stroke-width: 1.0;"/><!--MD5=[0ecfa9a817a07359882269f7d48069ca]
link rimage to adsp_manifest_file--><path d="M191.85,246.3431 C183.02,255.5131 174.42,265.5931 167.5,275.9531 C128.42,334.4131 101.92,412.9531 88.88,457.5831 " fill="none" id="rimage-&gt;adsp_manifest_file" style="stroke: #F05772; stroke-width: 1.0;"/><polygon fill="#F05772" points="87.43,462.5931,93.7693,455.0557,88.8168,457.7893,86.0832,452.8368,87.43,462.5931" style="stroke: #F05772; stroke-width: 1.0;"/><!--MD5=[d5d5fa582c6141b6399fc3197b6a9e93]
link rimage to image_file--><path d="M228.91,246.1531 C215.57,297.0731 194.49,385.5131 186.5,462.9531 C177.43,550.9331 184.3,653.1831 190.78,717.8431 " fill="none" id="rimage-&gt;image_file" style="stroke: #F05772; stroke-width: 1.0;"/><polygon fill="#F05772" points="191.29,722.8131,194.3427,713.4493,190.7755,717.8397,186.3851,714.2725,191.29,722.8131" style="stroke: #F05772; stroke-width: 1.0;"/><text fill="#33335B" font-family="sans-serif" font-size="13" lengthAdjust="spacingAndGlyphs" textLength="79" x="212.5" y="490.52">without MEU</text><text fill="#33335B" font-family="sans-serif" font-size="13" lengthAdjust="spacingAndGlyphs" textLength="129" x="187.5" y="505.6528">without -s argument</text><!--MD5=[96676d2f6fc44b6ee7a5006f490c58bd]
link rimage to unsigned_image_file--><path d="M260.43,246.2731 C272.63,272.1831 288.32,305.5031 301.24,332.9431 " fill="none" id="rimage-&gt;unsigned_image_file" style="stroke: #F05772; stroke-width: 1.0;"/><polygon fill="#F05772" points="303.46,337.6431,303.2516,327.7965,301.3331,333.1181,296.0115,331.1995,303.46,337.6431" style="stroke: #F05772; stroke-width: 1.0;"/><text fill="#33335B" font-family="sans-serif" font-size="13" lengthAdjust="spacingAndGlyphs" textLength="58" x="312.5" y="289.02">with MEU</text><text fill="#33335B" font-family="sans-serif" font-size="13" lengthAdjust="spacingAndGlyphs" textLength="108" x="289.5" y="304.1528">with -s argument</text><!--MD5=[3f98dffc21ba7ca92fb0a8f4891208ec]
link unsigned_image_file to MEU--><path d="M326.81,433.2631 C327.22,459.8731 327.2,493.8031 325.5,523.9531 C325.05,531.9131 324.22,540.5231 323.33,548.4331 " fill="none" id="unsigned_image_file-&gt;MEU" style="stroke: #F05772; stroke-width: 1.0;"/><polygon fill="#F05772" points="322.7,553.7831,327.7256,545.313,323.285,548.8175,319.7805,544.3769,322.7,553.7831" style="stroke: #F05772; stroke-width: 1.0;"/><!--MD5=[a247dd4ef82881fe4b21a9db735565e5]
link MEU to image_file--><path d="M305.62,602.2931 C288.98,630.2831 260.39,678.3631 236.94,717.8131 " fill="none" id="MEU-&gt;image_file" style="stroke: #F05772; stroke-width: 1.0;"/><polygon fill="#F05772" points="234.1,722.5831,242.1382,716.8921,236.6557,718.2856,235.2622,712.8031,234.1,722.5831" style="stroke: #F05772; stroke-width: 1.0;"/><!--MD5=[bab3313d51e292a29d933f0a6fae518f]
link adsp_manifest_file to image_file--><path d="M91.79,524.1931 C110.57,569.6431 146.86,657.4831 171.87,718.0031 " fill="none" id="adsp_manifest_file-&gt;image_file" style="stroke: #F05772; stroke-width: 1.0;"/><polygon fill="#F05772" points="173.8,722.6731,174.0567,712.8276,171.8891,718.0527,166.664,715.8851,173.8,722.6731" style="stroke: #F05772; stroke-width: 1.0;"/><!--MD5=[641eaf0602c64cdd821f1fc86092ecd5]
link image_file to build_step--><path d="M221.44,844.2631 C228.78,863.3831 236.59,883.7631 242.78,899.8931 " fill="none" id="image_file-&gt;build_step" style="stroke: #F05772; stroke-width: 1.0;"/><polygon fill="#F05772" points="244.65,904.7631,245.1727,894.9281,242.8647,900.0927,237.7001,897.7847,244.65,904.7631" style="stroke: #F05772; stroke-width: 1.0;"/><!--MD5=[03f02b53c00fd529b0c3ec70fe53a131]
link build_step to final_image_file--><path d="M254.5,957.9831 C254.5,973.3731 254.5,993.8231 254.5,1013.8031 " fill="none" id="build_step-&gt;final_image_file" style="stroke: #F05772; stroke-width: 1.0;"/><polygon fill="#F05772" points="254.5,1018.8731,258.5,1009.8731,254.5,1013.8731,250.5,1009.8731,254.5,1018.8731" style="stroke: #F05772; stroke-width: 1.0;"/><!--MD5=[4c54fd899f4b419883659b5fe722e447]
@startuml
hidefootbox
skinparam componentStyle uml2

skinparam defaultFontColor	#33335b

skinparam rectangle {
	color		#d6d6de
	backgroundColor	#ffffff
}

skinparam component {
	backgroundColor	#ffffff
	borderColor	#33335b
	arrowColor	#f05772
}

skinparam interface {
	backgroundColor	#ffffff
	borderColor	#f05772
}

skinparam class {
	backgroundColor	#ffffff
	borderColor	#33335b
	arrowColor	#f05772
}
skinparam stereotypeCBackgroundColor	#6fccdd

skinparam sequence {
	arrowColor		#4a4a86
	lifeLineBorderColor	#f05772
	groupBorderColor	#a1a1ca
	boxBorderColor		#a1a1ca
	dividerBorderColor	#d6d6de
	dividerBorderThickness	1
}
skinparam participant {
	borderColor		#33335b
	backgroundColor		#ffffff
}
skinparam actor {
	borderColor		#33335b
	backgroundColor		#ffffff
}

skinparam state {
	borderColor		#33335b
	backgroundColor		#ffffff
}

skinparam node {
	backgroundColor		#ffffff
}

skinparam note {
	backgroundColor 	#f6ed80
	borderColor		#d6d6de
}

skinparam activity {
	borderColor		#33335b
	backgroundColor		#ffffff
}

skinparam activityDiamond {
	borderColor		#33335b
	backgroundColor		#ffffff
}

skinparam arrowColor	#f05772
skinparam maxMessageSize 400
skinparam BoxPadding 4

title image build flow

class bootloader_elf_file << (F, orchid) >> {
  - - note - -
  Used for CAVS 1.5 and newer
}
class firmware_elf_file << (F, orchid) >> {
}

class rimage {
   +write_firmware()
   +write_firmware_meu()
   +ext_man_write()
}

class adsp_manifest_file << (F, orchid) >> {
   suffix: .ri.met
}

class image_file << (F, orchid) >> {
   suffix: .ri
   - - Content - -
   +CSE manifest
   +CSS manifest
   +ADSP manifest
   +runtime code
}

class unsigned_image_file << (F, orchid) >> {
   suffix: .ri.uns
  - - Content - -
   +ADSP manifest
   +runtime code
}

class ext_man_file << (F, orchid) >> {
   suffix: .ri.xman
}

class build_step {
   + glue binary files()
}
hide build_step circle

class final_image_file << (F, orchid) >> {
   suffix: .ri
   - - Content - -
   +Extended manifest
   +CSE manifest
   +CSS manifest
   +ADSP manifest
   +runtime code
}

firmware_elf_file -down-> rimage
bootloader_elf_file -down-> rimage
rimage -down-> ext_man_file : with -e flag
ext_man_file -down-> build_step
rimage -down-> adsp_manifest_file
rimage -down-> image_file : without MEU\nwithout -s argument
rimage -down-> unsigned_image_file : with MEU \nwith -s argument
unsigned_image_file -down-> MEU
MEU -down-> image_file
adsp_manifest_file -down-> image_file
image_file -down-> build_step
build_step -down-> final_image_file

@enduml

PlantUML version 1.2019.12(Sun Nov 03 10:24:54 UTC 2019)
(GPL source distribution)
Java Runtime: OpenJDK Runtime Environment
JVM: OpenJDK 64-Bit Server VM
Java Version: 11.0.24+8
Operating System: Linux
Default Encoding: UTF-8
Language: en
Country: null
--></g></svg>