<?xml version="1.0" encoding="UTF-8" standalone="no"?><svg xmlns="http://www.w3.org/2000/svg" xmlns:xlink="http://www.w3.org/1999/xlink" contentScriptType="application/ecmascript" contentStyleType="text/css" height="205px" preserveAspectRatio="none" style="width:350px;height:205px;" version="1.1" viewBox="0 0 350 205" width="350px" zoomAndPan="magnify"><defs><filter height="300%" id="f1khnptbfh5kfz" width="300%" x="-1" y="-1"><feGaussianBlur result="blurOut" stdDeviation="2.0"/><feColorMatrix in="blurOut" result="blurOut2" type="matrix" values="0 0 0 0 0 0 0 0 0 0 0 0 0 0 0 0 0 0 .4 0"/><feOffset dx="4.0" dy="4.0" in="blurOut2" result="blurOut3"/><feBlend in="SourceGraphic" in2="blurOut3" mode="normal"/></filter></defs><g><!--MD5=[341df0fbac484c38b853cbf9ac34663d]
class scheduler_ops--><rect fill="#FFFFFF" filter="url(#f1khnptbfh5kfz)" height="186.3594" id="scheduler_ops" style="stroke: #33335B; stroke-width: 1.5;" width="153" x="6" y="8"/><ellipse cx="38.1" cy="24" fill="#6FCCDD" rx="11" ry="11" style="stroke: #33335B; stroke-width: 1.0;"/><path d="M40.8656,19.875 Q41.0219,19.6563 41.2094,19.5469 Q41.3969,19.4375 41.6156,19.4375 Q41.9906,19.4375 42.225,19.7031 Q42.4594,19.9531 42.4594,20.5625 L42.4594,22.0156 Q42.4594,22.625 42.225,22.8906 Q41.9906,23.1563 41.6156,23.1563 Q41.2719,23.1563 41.0688,22.9531 Q40.8656,22.7656 40.7563,22.25 Q40.7094,21.8906 40.5219,21.7031 Q40.1938,21.3281 39.5844,21.1094 Q38.975,20.8906 38.35,20.8906 Q37.5844,20.8906 36.9438,21.2188 Q36.3188,21.5469 35.8188,22.2969 Q35.3344,23.0469 35.3344,24.0781 L35.3344,25.1719 Q35.3344,26.4063 36.225,27.2344 Q37.1156,28.0469 38.7094,28.0469 Q39.6469,28.0469 40.3031,27.7969 Q40.6938,27.6406 41.1156,27.2031 Q41.3813,26.9375 41.5219,26.8594 Q41.6781,26.7813 41.8813,26.7813 Q42.2094,26.7813 42.4594,27.0469 Q42.725,27.2969 42.725,27.6406 Q42.725,27.9844 42.3813,28.3906 Q41.8813,28.9688 41.0844,29.2969 Q40.0063,29.75 38.7094,29.75 Q37.1938,29.75 35.9906,29.125 Q35.0063,28.625 34.3188,27.5625 Q33.6313,26.4844 33.6313,25.2031 L33.6313,24.0469 Q33.6313,22.7188 34.2406,21.5781 Q34.8656,20.4219 35.9594,19.8125 Q37.0531,19.1875 38.2875,19.1875 Q39.0219,19.1875 39.6625,19.3594 Q40.3188,19.5156 40.8656,19.875 Z "/><text fill="#33335B" font-family="sans-serif" font-size="12" lengthAdjust="spacingAndGlyphs" textLength="83" x="55.9" y="28.9102">scheduler_ops</text><line style="stroke: #33335B; stroke-width: 1.5;" x1="7" x2="158" y1="40" y2="40"/><ellipse cx="17" cy="68.8359" fill="#84BE84" rx="3" ry="3" style="stroke: #038048; stroke-width: 1.0;"/><text fill="#33335B" font-family="sans-serif" font-size="11" lengthAdjust="spacingAndGlyphs" textLength="78" x="26" y="73.2549">schedule_task()</text><ellipse cx="17" cy="82.6719" fill="#84BE84" rx="3" ry="3" style="stroke: #038048; stroke-width: 1.0;"/><text fill="#33335B" font-family="sans-serif" font-size="11" lengthAdjust="spacingAndGlyphs" textLength="116" x="26" y="87.0908">schedule_task_cancel()</text><ellipse cx="17" cy="96.5078" fill="#84BE84" rx="3" ry="3" style="stroke: #038048; stroke-width: 1.0;"/><text fill="#33335B" font-family="sans-serif" font-size="11" lengthAdjust="spacingAndGlyphs" textLength="104" x="26" y="100.9268">schedule_task_free()</text><line style="stroke: #33335B; stroke-width: 1.0; stroke-dasharray: 1.0,2.0;" x1="7" x2="57" y1="54.918" y2="54.918"/><text fill="#33335B" font-family="sans-serif" font-size="11" lengthAdjust="spacingAndGlyphs" textLength="51" x="57" y="58.9189">Mandatory</text><line style="stroke: #33335B; stroke-width: 1.0; stroke-dasharray: 1.0,2.0;" x1="108" x2="158" y1="54.918" y2="54.918"/><ellipse cx="17" cy="128.1797" fill="#84BE84" rx="3" ry="3" style="stroke: #038048; stroke-width: 1.0;"/><text fill="#33335B" font-family="sans-serif" font-size="11" lengthAdjust="spacingAndGlyphs" textLength="120" x="26" y="132.5986">schedule_task_running()</text><ellipse cx="17" cy="142.0156" fill="#84BE84" rx="3" ry="3" style="stroke: #038048; stroke-width: 1.0;"/><text fill="#33335B" font-family="sans-serif" font-size="11" lengthAdjust="spacingAndGlyphs" textLength="127" x="26" y="146.4346">schedule_task_complete()</text><ellipse cx="17" cy="155.8516" fill="#84BE84" rx="3" ry="3" style="stroke: #038048; stroke-width: 1.0;"/><text fill="#33335B" font-family="sans-serif" font-size="11" lengthAdjust="spacingAndGlyphs" textLength="88" x="26" y="160.2705">reschedule_task()</text><ellipse cx="17" cy="169.6875" fill="#84BE84" rx="3" ry="3" style="stroke: #038048; stroke-width: 1.0;"/><text fill="#33335B" font-family="sans-serif" font-size="11" lengthAdjust="spacingAndGlyphs" textLength="82" x="26" y="174.1064">scheduler_free()</text><ellipse cx="17" cy="183.5234" fill="#84BE84" rx="3" ry="3" style="stroke: #038048; stroke-width: 1.0;"/><text fill="#33335B" font-family="sans-serif" font-size="11" lengthAdjust="spacingAndGlyphs" textLength="78" x="26" y="187.9424">scheduler_run()</text><line style="stroke: #33335B; stroke-width: 1.0; stroke-dasharray: 1.0,2.0;" x1="7" x2="63" y1="114.2617" y2="114.2617"/><text fill="#33335B" font-family="sans-serif" font-size="11" lengthAdjust="spacingAndGlyphs" textLength="39" x="63" y="118.2627">Optional</text><line style="stroke: #33335B; stroke-width: 1.0; stroke-dasharray: 1.0,2.0;" x1="102" x2="158" y1="114.2617" y2="114.2617"/><!--MD5=[5b96f930ea75387137104988349bd03f]
class schedule_types--><rect fill="#FFFFFF" filter="url(#f1khnptbfh5kfz)" height="81.5078" id="schedule_types" style="stroke: #33335B; stroke-width: 1.5;" width="145" x="194" y="60"/><ellipse cx="220.7" cy="76" fill="#EB937F" rx="11" ry="11" style="stroke: #33335B; stroke-width: 1.0;"/><path d="M219.5594,76.7969 L219.5594,79.2969 L223.8875,79.2969 L223.8875,78.375 Q223.8875,77.7656 224.1219,77.5 Q224.3719,77.2344 224.7469,77.2344 Q225.1219,77.2344 225.3563,77.5 Q225.5906,77.7656 225.5906,78.375 L225.5906,81 L217.5906,81 Q216.9656,81 216.7,80.7656 Q216.45,80.5313 216.45,80.1406 Q216.45,79.7656 216.7156,79.5313 Q216.9813,79.2969 217.5906,79.2969 L217.8563,79.2969 L217.8563,72.6406 L217.5906,72.6406 Q216.9656,72.6406 216.7,72.4063 Q216.45,72.1719 216.45,71.7813 Q216.45,71.4063 216.7,71.1719 Q216.9656,70.9375 217.5906,70.9375 L225.2156,70.9375 L225.2156,73.5313 Q225.2156,74.1406 224.9813,74.4063 Q224.7625,74.6563 224.3719,74.6563 Q223.9969,74.6563 223.7625,74.4063 Q223.5281,74.1406 223.5281,73.5313 L223.5281,72.6406 L219.5594,72.6406 L219.5594,75.0938 L221.0438,75.0938 Q221.0438,74.4375 221.1688,74.25 Q221.4344,73.8438 221.9031,73.8438 Q222.2781,73.8438 222.5125,74.1094 Q222.7469,74.3594 222.7469,74.9688 L222.7469,76.9375 Q222.7469,77.4844 222.6219,77.6719 Q222.3563,78.0625 221.9031,78.0625 Q221.4344,78.0625 221.1688,77.6563 Q221.0438,77.4688 221.0438,76.7969 L219.5594,76.7969 Z "/><text fill="#33335B" font-family="sans-serif" font-size="12" lengthAdjust="spacingAndGlyphs" textLength="87" x="237.3" y="80.9102">schedule_types</text><line style="stroke: #33335B; stroke-width: 1.5;" x1="195" x2="338" y1="92" y2="92"/><text fill="#33335B" font-family="sans-serif" font-size="11" lengthAdjust="spacingAndGlyphs" textLength="105" x="200" y="107.4189">SOF_SCHEDULE_EDF</text><text fill="#33335B" font-family="sans-serif" font-size="11" lengthAdjust="spacingAndGlyphs" textLength="133" x="200" y="121.2549">SOF_SCHEDULE_LL_TIMER</text><text fill="#33335B" font-family="sans-serif" font-size="11" lengthAdjust="spacingAndGlyphs" textLength="127" x="200" y="135.0908">SOF_SCHEDULE_LL_DMA</text><!--MD5=[c500d343574f8ea92560228708c38de0]
@startuml
hidefootbox
skinparam componentStyle uml2

skinparam defaultFontColor	#33335b

skinparam rectangle {
	color		#d6d6de
	backgroundColor	#ffffff
}

skinparam component {
	backgroundColor	#ffffff
	borderColor	#33335b
	arrowColor	#f05772
}

skinparam interface {
	backgroundColor	#ffffff
	borderColor	#f05772
}

skinparam class {
	backgroundColor	#ffffff
	borderColor	#33335b
	arrowColor	#f05772
}
skinparam stereotypeCBackgroundColor	#6fccdd

skinparam sequence {
	arrowColor		#4a4a86
	lifeLineBorderColor	#f05772
	groupBorderColor	#a1a1ca
	boxBorderColor		#a1a1ca
	dividerBorderColor	#d6d6de
	dividerBorderThickness	1
}
skinparam participant {
	borderColor		#33335b
	backgroundColor		#ffffff
}
skinparam actor {
	borderColor		#33335b
	backgroundColor		#ffffff
}

skinparam state {
	borderColor		#33335b
	backgroundColor		#ffffff
}

skinparam node {
	backgroundColor		#ffffff
}

skinparam note {
	backgroundColor 	#f6ed80
	borderColor		#d6d6de
}
class "scheduler_ops" {
   .. Mandatory ..
   + schedule_task()
   + schedule_task_cancel()
   + schedule_task_free()
   .. Optional ..
   + schedule_task_running()
   + schedule_task_complete()
   + reschedule_task()
   + scheduler_free()
   + scheduler_run()
}

enum schedule_types {
   SOF_SCHEDULE_EDF
   SOF_SCHEDULE_LL_TIMER
   SOF_SCHEDULE_LL_DMA
}
hide schedule_types methods

@enduml

PlantUML version 1.2019.12(Sun Nov 03 11:24:54 CET 2019)
(GPL source distribution)
Java Runtime: OpenJDK Runtime Environment
JVM: OpenJDK 64-Bit Server VM
Java Version: 1.8.0_302-b08
Operating System: Windows 10
Default Encoding: Cp1252
Language: en
Country: US
--></g></svg>