<?xml version="1.0" encoding="UTF-8" standalone="no"?><svg xmlns="http://www.w3.org/2000/svg" xmlns:xlink="http://www.w3.org/1999/xlink" contentScriptType="application/ecmascript" contentStyleType="text/css" height="1330px" preserveAspectRatio="none" style="width:576px;height:1330px;" version="1.1" viewBox="0 0 576 1330" width="576px" zoomAndPan="magnify"><defs><filter height="300%" id="fww4rvxmufq7h" width="300%" x="-1" y="-1"><feGaussianBlur result="blurOut" stdDeviation="2.0"/><feColorMatrix in="blurOut" result="blurOut2" type="matrix" values="0 0 0 0 0 0 0 0 0 0 0 0 0 0 0 0 0 0 .4 0"/><feOffset dx="4.0" dy="4.0" in="blurOut2" result="blurOut3"/><feBlend in="SourceGraphic" in2="blurOut3" mode="normal"/></filter></defs><g><ellipse cx="191" cy="18" fill="#000000" filter="url(#fww4rvxmufq7h)" rx="10" ry="10" style="stroke: none; stroke-width: 1.0;"/><rect fill="#FFFFFF" filter="url(#fww4rvxmufq7h)" height="50" rx="12.5" ry="12.5" style="stroke: #33335B; stroke-width: 1.5;" width="117" x="132.5" y="106"/><line style="stroke: #33335B; stroke-width: 1.5;" x1="132.5" x2="249.5" y1="133.6094" y2="133.6094"/><text fill="#33335B" font-family="sans-serif" font-size="14" lengthAdjust="spacingAndGlyphs" textLength="97" x="142.5" y="125.5332">NewABIChange</text><rect fill="#FFFFFF" filter="url(#fww4rvxmufq7h)" height="50" rx="12.5" ry="12.5" style="stroke: #33335B; stroke-width: 1.5;" width="50" x="7" y="271.5"/><line style="stroke: #33335B; stroke-width: 1.5;" x1="7" x2="57" y1="299.1094" y2="299.1094"/><text fill="#33335B" font-family="sans-serif" font-size="14" lengthAdjust="spacingAndGlyphs" textLength="29" x="17.5" y="291.0332">RFC</text><path d="M92,267 L92,292.5 L57.15,296.5 L92,300.5 L92,326.0547 A0,0 0 0 0 92,326.0547 L298,326.0547 A0,0 0 0 0 298,326.0547 L298,277 L288,267 L92,267 A0,0 0 0 0 92,267 " fill="#F6ED80" filter="url(#fww4rvxmufq7h)" style="stroke: #D6D6DE; stroke-width: 1.0;"/><path d="M288,267 L288,277 L298,277 L288,267 " fill="#F6ED80" style="stroke: #D6D6DE; stroke-width: 1.0;"/><text fill="#33335B" font-family="sans-serif" font-size="13" lengthAdjust="spacingAndGlyphs" textLength="144" x="98" y="285.4951">RFC stage is intended to</text><text fill="#33335B" font-family="sans-serif" font-size="13" lengthAdjust="spacingAndGlyphs" textLength="157" x="98" y="301.8467">avoid wasted effort via early</text><text fill="#33335B" font-family="sans-serif" font-size="13" lengthAdjust="spacingAndGlyphs" textLength="181" x="102" y="318.1982">engagement with the ABI users</text><rect fill="#FFFFFF" filter="url(#fww4rvxmufq7h)" height="50" rx="12.5" ry="12.5" style="stroke: #33335B; stroke-width: 1.5;" width="110" x="6" y="437"/><line style="stroke: #33335B; stroke-width: 1.5;" x1="6" x2="116" y1="464.6094" y2="464.6094"/><text fill="#33335B" font-family="sans-serif" font-size="14" lengthAdjust="spacingAndGlyphs" textLength="90" x="16" y="456.5332">RFCApproved</text><rect fill="#FFFFFF" filter="url(#fww4rvxmufq7h)" height="50" rx="12.5" ry="12.5" style="stroke: #33335B; stroke-width: 1.5;" width="137" x="137.5" y="565"/><line style="stroke: #33335B; stroke-width: 1.5;" x1="137.5" x2="274.5" y1="592.6094" y2="592.6094"/><text fill="#33335B" font-family="sans-serif" font-size="14" lengthAdjust="spacingAndGlyphs" textLength="117" x="147.5" y="584.5332">FWImplementation</text><rect fill="#FFFFFF" filter="url(#fww4rvxmufq7h)" height="50" rx="12.5" ry="12.5" style="stroke: #33335B; stroke-width: 1.5;" width="124" x="144" y="693"/><line style="stroke: #33335B; stroke-width: 1.5;" x1="144" x2="268" y1="720.6094" y2="720.6094"/><text fill="#33335B" font-family="sans-serif" font-size="14" lengthAdjust="spacingAndGlyphs" textLength="104" x="154" y="712.5332">ABIClassification</text><rect fill="#FFFFFF" filter="url(#fww4rvxmufq7h)" height="50" rx="12.5" ry="12.5" style="stroke: #33335B; stroke-width: 1.5;" width="102" x="155" y="837"/><line style="stroke: #33335B; stroke-width: 1.5;" x1="155" x2="257" y1="864.6094" y2="864.6094"/><text fill="#33335B" font-family="sans-serif" font-size="14" lengthAdjust="spacingAndGlyphs" textLength="82" x="165" y="856.5332">ABIApproved</text><rect fill="#FFFFFF" filter="url(#fww4rvxmufq7h)" height="50" rx="12.5" ry="12.5" style="stroke: #33335B; stroke-width: 1.5;" width="117" x="147.5" y="981"/><line style="stroke: #33335B; stroke-width: 1.5;" x1="147.5" x2="264.5" y1="1008.6094" y2="1008.6094"/><text fill="#33335B" font-family="sans-serif" font-size="14" lengthAdjust="spacingAndGlyphs" textLength="97" x="157.5" y="1000.5332">DriverPRCheck</text><rect fill="#FFFFFF" filter="url(#fww4rvxmufq7h)" height="50" rx="12.5" ry="12.5" style="stroke: #33335B; stroke-width: 1.5;" width="140" x="136" y="1269"/><line style="stroke: #33335B; stroke-width: 1.5;" x1="136" x2="276" y1="1296.6094" y2="1296.6094"/><text fill="#33335B" font-family="sans-serif" font-size="14" lengthAdjust="spacingAndGlyphs" textLength="120" x="146" y="1288.5332">FWChangeMerged</text><rect fill="#FFFFFF" filter="url(#fww4rvxmufq7h)" height="50" rx="12.5" ry="12.5" style="stroke: #33335B; stroke-width: 1.5;" width="140" x="424" y="1125"/><line style="stroke: #33335B; stroke-width: 1.5;" x1="424" x2="564" y1="1152.6094" y2="1152.6094"/><text fill="#33335B" font-family="sans-serif" font-size="14" lengthAdjust="spacingAndGlyphs" textLength="120" x="434" y="1144.5332">DrvChangeMerged</text><!--MD5=[d947f9ee9e8583f0175dac9ab25cc135]
link *start to NewABIChange--><path d="M191,28.08 C191,43.75 191,76.47 191,100.64 " fill="none" id="*start-&gt;NewABIChange" style="stroke: #4A4A86; stroke-width: 1.0;"/><polygon fill="#4A4A86" points="191,105.65,195,96.65,191,100.65,187,96.65,191,105.65" style="stroke: #4A4A86; stroke-width: 1.0;"/><text fill="#33335B" font-family="sans-serif" font-size="13" lengthAdjust="spacingAndGlyphs" textLength="243" x="192" y="72.4951">Firmware feature that requires ABI change</text><!--MD5=[6c0a702b064a08536bd5194c65a5e38e]
link NewABIChange to RFC--><path d="M167.54,156.12 C138.65,185.83 89.68,236.19 59.18,267.55 " fill="none" id="NewABIChange-&gt;RFC" style="stroke: #4A4A86; stroke-width: 1.0;"/><polygon fill="#4A4A86" points="55.56,271.28,64.7015,267.6148,59.0452,267.6948,58.9652,262.0385,55.56,271.28" style="stroke: #4A4A86; stroke-width: 1.0;"/><text fill="#33335B" font-family="sans-serif" font-size="13" lengthAdjust="spacingAndGlyphs" textLength="138" x="150" y="200.4951">Send RFC Pull Request</text><text fill="#33335B" font-family="sans-serif" font-size="13" lengthAdjust="spacingAndGlyphs" textLength="153" x="142.5" y="216.8467">covering interface changes</text><text fill="#33335B" font-family="sans-serif" font-size="13" lengthAdjust="spacingAndGlyphs" textLength="160" x="141" y="233.1982">and rationale for the change</text><!--MD5=[d2ef43fa9d27348855ad0d434701d419]
link RFC to RFCApproved--><path d="M36.28,321.62 C41.46,350.85 50.19,400.06 55.77,431.5 " fill="none" id="RFC-&gt;RFCApproved" style="stroke: #4A4A86; stroke-width: 1.0;"/><polygon fill="#4A4A86" points="56.7,436.78,59.0671,427.2198,55.827,431.8568,51.19,428.6167,56.7,436.78" style="stroke: #4A4A86; stroke-width: 1.0;"/><text fill="#33335B" font-family="sans-serif" font-size="13" lengthAdjust="spacingAndGlyphs" textLength="152" x="100.5" y="370.4951">a) Approve+1 from at least</text><text fill="#33335B" font-family="sans-serif" font-size="13" lengthAdjust="spacingAndGlyphs" textLength="200" x="76.5" y="386.8467">one Driver and one FW Maintainer,</text><text fill="#33335B" font-family="sans-serif" font-size="13" lengthAdjust="spacingAndGlyphs" textLength="245" x="56" y="403.1982">b) Owners assigned for FW and driver impl</text><!--MD5=[d8266fd3bf4e4888e1b61a678ccf8c9d]
link NewABIChange to FWImplementation--><path d="M249.65,144.91 C272.17,152.92 295.85,165.72 310,186 C317.7,197.03 321.95,245.52 329,517 C329.21,525 333.37,528.3 329,535 C317.54,552.55 298.96,564.43 279.68,572.47 " fill="none" id="NewABIChange-&gt;FWImplementation" style="stroke: #4A4A86; stroke-width: 1.0;"/><polygon fill="#4A4A86" points="274.77,574.43,284.6119,574.8014,279.4124,572.573,281.6407,567.3736,274.77,574.43" style="stroke: #4A4A86; stroke-width: 1.0;"/><text fill="#33335B" font-family="sans-serif" font-size="13" lengthAdjust="spacingAndGlyphs" textLength="147" x="329" y="378.9951">Fast path implementation</text><text fill="#33335B" font-family="sans-serif" font-size="13" lengthAdjust="spacingAndGlyphs" textLength="153" x="326" y="395.3467">only when no driver impact</text><!--MD5=[ebe142d97be07bcaa4b8d41406f3d04c]
link RFCApproved to FWImplementation--><path d="M54.49,487.1 C51.89,502.16 51.44,521.24 61,535 C77.38,558.57 105.34,571.88 132.37,579.37 " fill="none" id="RFCApproved-&gt;FWImplementation" style="stroke: #4A4A86; stroke-width: 1.0;"/><polygon fill="#4A4A86" points="137.4,580.71,129.7323,574.5289,132.5684,579.4235,127.6738,582.2596,137.4,580.71" style="stroke: #4A4A86; stroke-width: 1.0;"/><text fill="#33335B" font-family="sans-serif" font-size="13" lengthAdjust="spacingAndGlyphs" textLength="262" x="62" y="531.4951">Implementation done, submit as non-RFC PR</text><!--MD5=[035bb6c3b755ca9cb81c24f4bab9b2a0]
link FWImplementation to ABIClassification--><path d="M206,615.29 C206,635.95 206,665.67 206,687.65 " fill="none" id="FWImplementation-&gt;ABIClassification" style="stroke: #4A4A86; stroke-width: 1.0;"/><polygon fill="#4A4A86" points="206,692.78,210,683.78,206,687.78,202,683.78,206,692.78" style="stroke: #4A4A86; stroke-width: 1.0;"/><text fill="#33335B" font-family="sans-serif" font-size="13" lengthAdjust="spacingAndGlyphs" textLength="141" x="207" y="659.4951">Tag PR for ABI classifier</text><!--MD5=[f5ba36811c9701a18ca721fe6fc0bb7d]
link ABIClassification to ABIApproved--><path d="M206,743.09 C206,767.57 206,805.52 206,831.72 " fill="none" id="ABIClassification-&gt;ABIApproved" style="stroke: #4A4A86; stroke-width: 1.0;"/><polygon fill="#4A4A86" points="206,836.79,210,827.79,206,831.79,202,827.79,206,836.79" style="stroke: #4A4A86; stroke-width: 1.0;"/><text fill="#33335B" font-family="sans-serif" font-size="13" lengthAdjust="spacingAndGlyphs" textLength="152" x="244.5" y="787.4951">TSC member approval and</text><text fill="#33335B" font-family="sans-serif" font-size="13" lengthAdjust="spacingAndGlyphs" textLength="227" x="207" y="803.8467">ABI MAJOR.MINOR classification done</text><!--MD5=[b712fe514747f6d9b3539db6677702b6]
link ABIApproved to DriverPRCheck--><path d="M206,887.09 C206,911.57 206,949.52 206,975.72 " fill="none" id="ABIApproved-&gt;DriverPRCheck" style="stroke: #4A4A86; stroke-width: 1.0;"/><polygon fill="#4A4A86" points="206,980.79,210,971.79,206,975.79,202,971.79,206,980.79" style="stroke: #4A4A86; stroke-width: 1.0;"/><text fill="#33335B" font-family="sans-serif" font-size="13" lengthAdjust="spacingAndGlyphs" textLength="150" x="236.5" y="931.4951">If driver change is needed,</text><text fill="#33335B" font-family="sans-serif" font-size="13" lengthAdjust="spacingAndGlyphs" textLength="209" x="207" y="947.8467">wait until both sides ready for merge</text><!--MD5=[77b230be902b254ffa35a5507c24890b]
link DriverPRCheck to FWChangeMerged--><path d="M203.06,1031.36 C200.35,1055.19 196.51,1092.53 195,1125 C192.74,1173.64 198.08,1230.12 202.08,1263.63 " fill="none" id="DriverPRCheck-&gt;FWChangeMerged" style="stroke: #4A4A86; stroke-width: 1.0;"/><polygon fill="#4A4A86" points="202.71,1268.81,205.6028,1259.3956,202.1109,1263.846,197.6604,1260.3541,202.71,1268.81" style="stroke: #4A4A86; stroke-width: 1.0;"/><text fill="#33335B" font-family="sans-serif" font-size="13" lengthAdjust="spacingAndGlyphs" textLength="100" x="251" y="1147.4951">No driver change:</text><text fill="#33335B" font-family="sans-serif" font-size="13" lengthAdjust="spacingAndGlyphs" textLength="210" x="196" y="1163.8467">After review and validation ok, merge</text><!--MD5=[1f9bc16a16210cf46e79b5b37b6a649e]
link DriverPRCheck to DrvChangeMerged--><path d="M254.86,1031.09 C306.26,1056.44 386.95,1096.22 440.16,1122.46 " fill="none" id="DriverPRCheck-&gt;DrvChangeMerged" style="stroke: #4A4A86; stroke-width: 1.0;"/><polygon fill="#4A4A86" points="444.91,1124.79,438.5909,1117.2356,440.4208,1122.5883,435.0682,1124.4183,444.91,1124.79" style="stroke: #4A4A86; stroke-width: 1.0;"/><text fill="#33335B" font-family="sans-serif" font-size="13" lengthAdjust="spacingAndGlyphs" textLength="91" x="397" y="1075.4951">After review and</text><text fill="#33335B" font-family="sans-serif" font-size="13" lengthAdjust="spacingAndGlyphs" textLength="115" x="385" y="1091.8467">validation ok, merge</text><!--MD5=[bb2108a5d5655ec3bf608ccf9e037a4a]
link DrvChangeMerged to FWChangeMerged--><path d="M445.14,1175.09 C393.74,1200.44 313.05,1240.22 259.84,1266.46 " fill="none" id="DrvChangeMerged-&gt;FWChangeMerged" style="stroke: #4A4A86; stroke-width: 1.0;"/><polygon fill="#4A4A86" points="255.09,1268.79,264.9318,1268.4183,259.5792,1266.5883,261.4091,1261.2356,255.09,1268.79" style="stroke: #4A4A86; stroke-width: 1.0;"/><text fill="#33335B" font-family="sans-serif" font-size="13" lengthAdjust="spacingAndGlyphs" textLength="91" x="397" y="1219.4951">After review and</text><text fill="#33335B" font-family="sans-serif" font-size="13" lengthAdjust="spacingAndGlyphs" textLength="115" x="385" y="1235.8467">validation ok, merge</text><!--MD5=[8ccf137779822a4b3dfe9c53776e4f9c]
@startuml
hidefootbox
skinparam componentStyle uml2

skinparam defaultFontColor	#33335b

skinparam rectangle {
	color		#d6d6de
	backgroundColor	#ffffff
}

skinparam component {
	backgroundColor	#ffffff
	borderColor	#33335b
	arrowColor	#f05772
}

skinparam interface {
	backgroundColor	#ffffff
	borderColor	#f05772
}

skinparam class {
	backgroundColor	#ffffff
	borderColor	#33335b
	arrowColor	#f05772
}
skinparam stereotypeCBackgroundColor	#6fccdd

skinparam sequence {
	arrowColor		#4a4a86
	lifeLineBorderColor	#f05772
	groupBorderColor	#a1a1ca
	boxBorderColor		#a1a1ca
	dividerBorderColor	#d6d6de
	dividerBorderThickness	1
}
skinparam participant {
	borderColor		#33335b
	backgroundColor		#ffffff
}
skinparam actor {
	borderColor		#33335b
	backgroundColor		#ffffff
}

skinparam state {
	borderColor		#33335b
	backgroundColor		#ffffff
}

skinparam node {
	backgroundColor		#ffffff
}

skinparam note {
	backgroundColor 	#f6ed80
	borderColor		#d6d6de
}
[*] - -> NewABIChange: Firmware feature that requires ABI change

NewABIChange - -> RFC: Send RFC Pull Request\ncovering interface changes\n and rationale for the change

note right of RFC : RFC stage is intended to\navoid wasted effort via early\n engagement with the ABI users

RFC - -> RFCApproved: a) Approve+1 from at least\none Driver and one FW Maintainer,\n b) Owners assigned for FW and driver impl

NewABIChange - -> FWImplementation: Fast path implementation\nonly when no driver impact

RFCApproved - -> FWImplementation: Implementation done, submit as non-RFC PR

FWImplementation - -> ABIClassification: Tag PR for ABI classifier

ABIClassification - -> ABIApproved: TSC member approval and\nABI MAJOR.MINOR classification done

ABIApproved - -> DriverPRCheck: If driver change is needed,\nwait until both sides ready for merge

DriverPRCheck - -> FWChangeMerged: No driver change:\nAfter review and validation ok, merge

DriverPRCheck - -> DrvChangeMerged: After review and\nvalidation ok, merge

DrvChangeMerged - -> FWChangeMerged: After review and\nvalidation ok, merge

@enduml

PlantUML version 1.2019.12(Sun Nov 03 11:24:54 CET 2019)
(GPL source distribution)
Java Runtime: OpenJDK Runtime Environment
JVM: OpenJDK 64-Bit Server VM
Java Version: 1.8.0_302-b08
Operating System: Windows 10
Default Encoding: Cp1252
Language: en
Country: US
--></g></svg>