<?xml version="1.0" encoding="UTF-8" standalone="no"?><svg xmlns="http://www.w3.org/2000/svg" xmlns:xlink="http://www.w3.org/1999/xlink" contentScriptType="application/ecmascript" contentStyleType="text/css" height="195px" preserveAspectRatio="none" style="width:383px;height:195px;" version="1.1" viewBox="0 0 383 195" width="383px" zoomAndPan="magnify"><defs><filter height="300%" id="f1khnptbfh5kfz" width="300%" x="-1" y="-1"><feGaussianBlur result="blurOut" stdDeviation="2.0"/><feColorMatrix in="blurOut" result="blurOut2" type="matrix" values="0 0 0 0 0 0 0 0 0 0 0 0 0 0 0 0 0 0 .4 0"/><feOffset dx="4.0" dy="4.0" in="blurOut2" result="blurOut3"/><feBlend in="SourceGraphic" in2="blurOut3" mode="normal"/></filter></defs><g><!--MD5=[341df0fbac484c38b853cbf9ac34663d]
class scheduler_ops--><rect fill="#FFFFFF" filter="url(#f1khnptbfh5kfz)" height="176.0469" id="scheduler_ops" style="stroke: #33335B; stroke-width: 1.5;" width="173" x="6" y="8"/><ellipse cx="43.5" cy="24" fill="#6FCCDD" rx="11" ry="11" style="stroke: #33335B; stroke-width: 1.0;"/><path d="M46.4688,29.6406 Q45.8906,29.9375 45.25,30.0781 Q44.6094,30.2344 43.9063,30.2344 Q41.4063,30.2344 40.0781,28.5938 Q38.7656,26.9375 38.7656,23.8125 Q38.7656,20.6875 40.0781,19.0313 Q41.4063,17.375 43.9063,17.375 Q44.6094,17.375 45.25,17.5313 Q45.9063,17.6875 46.4688,17.9844 L46.4688,20.7031 Q45.8438,20.125 45.25,19.8594 Q44.6563,19.5781 44.0313,19.5781 Q42.6875,19.5781 42,20.6563 Q41.3125,21.7188 41.3125,23.8125 Q41.3125,25.9063 42,26.9844 Q42.6875,28.0469 44.0313,28.0469 Q44.6563,28.0469 45.25,27.7813 Q45.8438,27.5 46.4688,26.9219 L46.4688,29.6406 Z "/><text fill="#33335B" font-family="sans-serif" font-size="12" lengthAdjust="spacingAndGlyphs" textLength="91" x="62.5" y="28.1543">scheduler_ops</text><line style="stroke: #33335B; stroke-width: 1.5;" x1="7" x2="178" y1="40" y2="40"/><ellipse cx="17" cy="67.8047" fill="#84BE84" rx="3" ry="3" style="stroke: #038048; stroke-width: 1.0;"/><text fill="#33335B" font-family="sans-serif" font-size="11" lengthAdjust="spacingAndGlyphs" textLength="89" x="26" y="71.0151">schedule_task()</text><ellipse cx="17" cy="80.6094" fill="#84BE84" rx="3" ry="3" style="stroke: #038048; stroke-width: 1.0;"/><text fill="#33335B" font-family="sans-serif" font-size="11" lengthAdjust="spacingAndGlyphs" textLength="131" x="26" y="83.8198">schedule_task_cancel()</text><ellipse cx="17" cy="93.4141" fill="#84BE84" rx="3" ry="3" style="stroke: #038048; stroke-width: 1.0;"/><text fill="#33335B" font-family="sans-serif" font-size="11" lengthAdjust="spacingAndGlyphs" textLength="118" x="26" y="96.6245">schedule_task_free()</text><line style="stroke: #33335B; stroke-width: 1.0; stroke-dasharray: 1.0,2.0;" x1="7" x2="63" y1="54.4023" y2="54.4023"/><text fill="#33335B" font-family="sans-serif" font-size="11" lengthAdjust="spacingAndGlyphs" textLength="59" x="63" y="57.7104">Mandatory</text><line style="stroke: #33335B; stroke-width: 1.0; stroke-dasharray: 1.0,2.0;" x1="122" x2="178" y1="54.4023" y2="54.4023"/><ellipse cx="17" cy="123.0234" fill="#84BE84" rx="3" ry="3" style="stroke: #038048; stroke-width: 1.0;"/><text fill="#33335B" font-family="sans-serif" font-size="11" lengthAdjust="spacingAndGlyphs" textLength="138" x="26" y="126.2339">schedule_task_running()</text><ellipse cx="17" cy="135.8281" fill="#84BE84" rx="3" ry="3" style="stroke: #038048; stroke-width: 1.0;"/><text fill="#33335B" font-family="sans-serif" font-size="11" lengthAdjust="spacingAndGlyphs" textLength="147" x="26" y="139.0386">schedule_task_complete()</text><ellipse cx="17" cy="148.6328" fill="#84BE84" rx="3" ry="3" style="stroke: #038048; stroke-width: 1.0;"/><text fill="#33335B" font-family="sans-serif" font-size="11" lengthAdjust="spacingAndGlyphs" textLength="101" x="26" y="151.8433">reschedule_task()</text><ellipse cx="17" cy="161.4375" fill="#84BE84" rx="3" ry="3" style="stroke: #038048; stroke-width: 1.0;"/><text fill="#33335B" font-family="sans-serif" font-size="11" lengthAdjust="spacingAndGlyphs" textLength="93" x="26" y="164.6479">scheduler_free()</text><ellipse cx="17" cy="174.2422" fill="#84BE84" rx="3" ry="3" style="stroke: #038048; stroke-width: 1.0;"/><text fill="#33335B" font-family="sans-serif" font-size="11" lengthAdjust="spacingAndGlyphs" textLength="89" x="26" y="177.4526">scheduler_run()</text><line style="stroke: #33335B; stroke-width: 1.0; stroke-dasharray: 1.0,2.0;" x1="7" x2="69" y1="109.6211" y2="109.6211"/><text fill="#33335B" font-family="sans-serif" font-size="11" lengthAdjust="spacingAndGlyphs" textLength="47" x="69" y="112.9292">Optional</text><line style="stroke: #33335B; stroke-width: 1.0; stroke-dasharray: 1.0,2.0;" x1="116" x2="178" y1="109.6211" y2="109.6211"/><!--MD5=[5b96f930ea75387137104988349bd03f]
class schedule_types--><rect fill="#FFFFFF" filter="url(#f1khnptbfh5kfz)" height="78.4141" id="schedule_types" style="stroke: #33335B; stroke-width: 1.5;" width="158" x="214.5" y="57"/><ellipse cx="242.55" cy="73" fill="#EB937F" rx="11" ry="11" style="stroke: #33335B; stroke-width: 1.0;"/><path d="M246.6594,79 L238.9406,79 L238.9406,66.6094 L246.6594,66.6094 L246.6594,68.7656 L241.3938,68.7656 L241.3938,71.4375 L246.1594,71.4375 L246.1594,73.5938 L241.3938,73.5938 L241.3938,76.8438 L246.6594,76.8438 L246.6594,79 Z "/><text fill="#33335B" font-family="sans-serif" font-size="12" lengthAdjust="spacingAndGlyphs" textLength="97" x="259.45" y="77.1543">schedule_types</text><line style="stroke: #33335B; stroke-width: 1.5;" x1="215.5" x2="371.5" y1="89" y2="89"/><text fill="#33335B" font-family="sans-serif" font-size="11" lengthAdjust="spacingAndGlyphs" textLength="116" x="220.5" y="103.2104">SOF_SCHEDULE_EDF</text><text fill="#33335B" font-family="sans-serif" font-size="11" lengthAdjust="spacingAndGlyphs" textLength="146" x="220.5" y="116.0151">SOF_SCHEDULE_LL_TIMER</text><text fill="#33335B" font-family="sans-serif" font-size="11" lengthAdjust="spacingAndGlyphs" textLength="137" x="220.5" y="128.8198">SOF_SCHEDULE_LL_DMA</text><!--MD5=[239b5d2d734aae8f07c41be3d6b943ea]
@startuml
hidefootbox
skinparam componentStyle uml2

skinparam defaultFontColor	#33335b

skinparam rectangle {
	color		#d6d6de
	backgroundColor	#ffffff
}

skinparam component {
	backgroundColor	#ffffff
	borderColor	#33335b
	arrowColor	#f05772
}

skinparam interface {
	backgroundColor	#ffffff
	borderColor	#f05772
}

skinparam class {
	backgroundColor	#ffffff
	borderColor	#33335b
	arrowColor	#f05772
}
skinparam stereotypeCBackgroundColor	#6fccdd

skinparam sequence {
	arrowColor		#4a4a86
	lifeLineBorderColor	#f05772
	groupBorderColor	#a1a1ca
	boxBorderColor		#a1a1ca
	dividerBorderColor	#d6d6de
	dividerBorderThickness	1
}
skinparam participant {
	borderColor		#33335b
	backgroundColor		#ffffff
}
skinparam actor {
	borderColor		#33335b
	backgroundColor		#ffffff
}

skinparam state {
	borderColor		#33335b
	backgroundColor		#ffffff
}

skinparam node {
	backgroundColor		#ffffff
}

skinparam note {
	backgroundColor 	#f6ed80
	borderColor		#d6d6de
}
class "scheduler_ops" {
   .. Mandatory ..
   + schedule_task()
   + schedule_task_cancel()
   + schedule_task_free()
   .. Optional ..
   + schedule_task_running()
   + schedule_task_complete()
   + reschedule_task()
   + scheduler_free()
   + scheduler_run()
}

enum schedule_types {
   SOF_SCHEDULE_EDF
   SOF_SCHEDULE_LL_TIMER
   SOF_SCHEDULE_LL_DMA
}
hide schedule_types methods

@enduml

PlantUML version 1.2019.12(Sun Nov 03 10:24:54 UTC 2019)
(GPL source distribution)
Java Runtime: OpenJDK Runtime Environment
JVM: OpenJDK 64-Bit Server VM
Java Version: 11.0.16+8
Operating System: Linux
Default Encoding: UTF-8
Language: en
Country: null
--></g></svg>