<?xml version="1.0" encoding="UTF-8" standalone="no"?><svg xmlns="http://www.w3.org/2000/svg" xmlns:xlink="http://www.w3.org/1999/xlink" contentScriptType="application/ecmascript" contentStyleType="text/css" height="402px" preserveAspectRatio="none" style="width:656px;height:402px;" version="1.1" viewBox="0 0 656 402" width="656px" zoomAndPan="magnify"><defs><filter height="300%" id="fid2qwxg5kc6y" width="300%" x="-1" y="-1"><feGaussianBlur result="blurOut" stdDeviation="2.0"/><feColorMatrix in="blurOut" result="blurOut2" type="matrix" values="0 0 0 0 0 0 0 0 0 0 0 0 0 0 0 0 0 0 .4 0"/><feOffset dx="4.0" dy="4.0" in="blurOut2" result="blurOut3"/><feBlend in="SourceGraphic" in2="blurOut3" mode="normal"/></filter></defs><g><rect fill="#FFFFFF" filter="url(#fid2qwxg5kc6y)" height="170.4063" style="stroke: #F05772; stroke-width: 1.0;" width="10" x="500" y="211.0156"/><line style="stroke: #F05772; stroke-width: 1.0; stroke-dasharray: 5.0,5.0;" x1="25" x2="25" y1="87.6094" y2="390.4219"/><line style="stroke: #F05772; stroke-width: 1.0; stroke-dasharray: 5.0,5.0;" x1="233.5" x2="233.5" y1="87.6094" y2="390.4219"/><line style="stroke: #F05772; stroke-width: 1.0; stroke-dasharray: 5.0,5.0;" x1="330.5" x2="330.5" y1="87.6094" y2="390.4219"/><line style="stroke: #F05772; stroke-width: 1.0; stroke-dasharray: 5.0,5.0;" x1="505" x2="505" y1="87.6094" y2="390.4219"/><text fill="#33335B" font-family="sans-serif" font-size="14" lengthAdjust="spacingAndGlyphs" textLength="28" x="8" y="84.5332">Host</text><ellipse cx="25" cy="13" fill="#FFFFFF" filter="url(#fid2qwxg5kc6y)" rx="8" ry="8" style="stroke: #33335B; stroke-width: 2.0;"/><path d="M25,21 L25,48 M12,29 L38,29 M25,48 L12,63 M25,48 L38,63 " fill="none" filter="url(#fid2qwxg5kc6y)" style="stroke: #33335B; stroke-width: 2.0;"/><rect fill="#FFFFFF" filter="url(#fid2qwxg5kc6y)" height="31.6094" style="stroke: #33335B; stroke-width: 1.5;" width="81" x="191.5" y="51"/><text fill="#33335B" font-family="sans-serif" font-size="14" lengthAdjust="spacingAndGlyphs" textLength="67" x="198.5" y="72.5332">MemWnd0</text><rect fill="#FFFFFF" filter="url(#fid2qwxg5kc6y)" height="31.6094" style="stroke: #33335B; stroke-width: 1.5;" width="85" x="286.5" y="51"/><text fill="#33335B" font-family="sans-serif" font-size="14" lengthAdjust="spacingAndGlyphs" textLength="71" x="293.5" y="72.5332">DSP Core0</text><rect fill="#FFFFFF" filter="url(#fid2qwxg5kc6y)" height="31.6094" style="stroke: #33335B; stroke-width: 1.5;" width="78" x="464" y="51"/><text fill="#33335B" font-family="sans-serif" font-size="14" lengthAdjust="spacingAndGlyphs" textLength="64" x="471" y="72.5332">DSP ROM</text><rect fill="#FFFFFF" filter="url(#fid2qwxg5kc6y)" height="170.4063" style="stroke: #F05772; stroke-width: 1.0;" width="10" x="500" y="211.0156"/><polygon fill="#4A4A86" points="319,115.9609,329,119.9609,319,123.9609,323,119.9609" style="stroke: #4A4A86; stroke-width: 1.0;"/><line style="stroke: #4A4A86; stroke-width: 1.0;" x1="25" x2="325" y1="119.9609" y2="119.9609"/><text fill="#33335B" font-family="sans-serif" font-size="13" lengthAdjust="spacingAndGlyphs" textLength="110" x="32" y="115.1045">power up and reset</text><polygon fill="#4A4A86" points="493,146.3125,503,150.3125,493,154.3125,497,150.3125" style="stroke: #4A4A86; stroke-width: 1.0;"/><line style="stroke: #4A4A86; stroke-width: 1.0;" x1="25" x2="499" y1="150.3125" y2="150.3125"/><text fill="#33335B" font-family="sans-serif" font-size="13" lengthAdjust="spacingAndGlyphs" textLength="231" x="32" y="145.4561">&lt;&lt;IPC&gt;&gt; ROM Control(set_boot_config)</text><polygon fill="#4A4A86" points="319,176.6641,329,180.6641,319,184.6641,323,180.6641" style="stroke: #4A4A86; stroke-width: 1.0;"/><line style="stroke: #4A4A86; stroke-width: 1.0;" x1="25" x2="325" y1="180.6641" y2="180.6641"/><text fill="#33335B" font-family="sans-serif" font-size="13" lengthAdjust="spacingAndGlyphs" textLength="38" x="32" y="175.8076">unstall</text><polygon fill="#4A4A86" points="488,207.0156,498,211.0156,488,215.0156,492,211.0156" style="stroke: #4A4A86; stroke-width: 1.0;"/><line style="stroke: #4A4A86; stroke-width: 1.0;" x1="331" x2="494" y1="211.0156" y2="211.0156"/><text fill="#33335B" font-family="sans-serif" font-size="13" lengthAdjust="spacingAndGlyphs" textLength="80" x="338" y="206.1592">ResetVector()</text><polygon fill="#4A4A86" points="222,237.3672,232,241.3672,222,245.3672,226,241.3672" style="stroke: #4A4A86; stroke-width: 1.0;"/><line style="stroke: #4A4A86; stroke-width: 1.0;" x1="25" x2="228" y1="241.3672" y2="241.3672"/><text fill="#33335B" font-family="sans-serif" font-size="13" lengthAdjust="spacingAndGlyphs" textLength="185" x="32" y="236.5107">wait for(FSR_ROM_INIT_DONE)</text><line style="stroke: #4A4A86; stroke-width: 1.0;" x1="510" x2="552" y1="271.7188" y2="271.7188"/><line style="stroke: #4A4A86; stroke-width: 1.0;" x1="552" x2="552" y1="271.7188" y2="284.7188"/><line style="stroke: #4A4A86; stroke-width: 1.0;" x1="511" x2="552" y1="284.7188" y2="284.7188"/><polygon fill="#4A4A86" points="521,280.7188,511,284.7188,521,288.7188,517,284.7188" style="stroke: #4A4A86; stroke-width: 1.0;"/><text fill="#33335B" font-family="sans-serif" font-size="13" lengthAdjust="spacingAndGlyphs" textLength="127" x="517" y="266.8623">Process ROM Control</text><polygon fill="#4A4A86" points="245,311.0703,235,315.0703,245,319.0703,241,315.0703" style="stroke: #4A4A86; stroke-width: 1.0;"/><line style="stroke: #4A4A86; stroke-width: 1.0;" x1="239" x2="499" y1="315.0703" y2="315.0703"/><text fill="#33335B" font-family="sans-serif" font-size="13" lengthAdjust="spacingAndGlyphs" textLength="242" x="251" y="310.2139">FwRegsSetState(FSR_ROM_INIT_DONE)</text><polygon fill="#4A4A86" points="36,325.0703,26,329.0703,36,333.0703,32,329.0703" style="stroke: #4A4A86; stroke-width: 1.0;"/><line style="stroke: #4A4A86; stroke-width: 1.0; stroke-dasharray: 2.0,2.0;" x1="30" x2="233" y1="329.0703" y2="329.0703"/><line style="stroke: #4A4A86; stroke-width: 1.0;" x1="25" x2="67" y1="359.4219" y2="359.4219"/><line style="stroke: #4A4A86; stroke-width: 1.0;" x1="67" x2="67" y1="359.4219" y2="372.4219"/><line style="stroke: #4A4A86; stroke-width: 1.0;" x1="26" x2="67" y1="372.4219" y2="372.4219"/><polygon fill="#4A4A86" points="36,368.4219,26,372.4219,36,376.4219,32,372.4219" style="stroke: #4A4A86; stroke-width: 1.0;"/><text fill="#33335B" font-family="sans-serif" font-size="13" lengthAdjust="spacingAndGlyphs" textLength="90" x="32" y="354.5654">binaries loading</text><!--MD5=[c3c6ddbf66f8d5d668e66065091ebb74]
@startuml
hidefootbox
skinparam componentStyle uml2

skinparam defaultFontColor	#33335b

skinparam rectangle {
	color		#d6d6de
	backgroundColor	#ffffff
}

skinparam component {
	backgroundColor	#ffffff
	borderColor	#33335b
	arrowColor	#f05772
}

skinparam interface {
	backgroundColor	#ffffff
	borderColor	#f05772
}

skinparam class {
	backgroundColor	#ffffff
	borderColor	#33335b
	arrowColor	#f05772
}
skinparam stereotypeCBackgroundColor	#6fccdd

skinparam sequence {
	arrowColor		#4a4a86
	lifeLineBorderColor	#f05772
	groupBorderColor	#a1a1ca
	boxBorderColor		#a1a1ca
	dividerBorderColor	#d6d6de
	dividerBorderThickness	1
}
skinparam participant {
	borderColor		#33335b
	backgroundColor		#ffffff
}
skinparam actor {
	borderColor		#33335b
	backgroundColor		#ffffff
}

skinparam state {
	borderColor		#33335b
	backgroundColor		#ffffff
}

skinparam node {
	backgroundColor		#ffffff
}

skinparam note {
	backgroundColor 	#f6ed80
	borderColor		#d6d6de
}
actor Host
participant mw0 as "MemWnd0"
participant core0 as "DSP Core0"
participant rom as "DSP ROM"

Host -> core0 : power up and reset

Host -> rom : <<IPC>> ROM Control(set_boot_config)
Host -> core0 : unstall
  core0 -> rom : ResetVector()
    activate rom

Host -> mw0 : wait for(FSR_ROM_INIT_DONE)

  rom -> rom : Process ROM Control

  mw0 <- rom : FwRegsSetState(FSR_ROM_INIT_DONE)

Host <- - mw0

Host -> Host : binaries loading

@enduml

PlantUML version 1.2019.12(Sun Nov 03 11:24:54 CET 2019)
(GPL source distribution)
Java Runtime: OpenJDK Runtime Environment
JVM: OpenJDK 64-Bit Server VM
Java Version: 1.8.0_302-b08
Operating System: Windows 10
Default Encoding: Cp1252
Language: en
Country: US
--></g></svg>