<?xml version="1.0" encoding="UTF-8" standalone="no"?><svg xmlns="http://www.w3.org/2000/svg" xmlns:xlink="http://www.w3.org/1999/xlink" contentScriptType="application/ecmascript" contentStyleType="text/css" height="455px" preserveAspectRatio="none" style="width:967px;height:455px;" version="1.1" viewBox="0 0 967 455" width="967px" zoomAndPan="magnify"><defs/><g><text fill="#33335B" font-family="sans-serif" font-size="18" lengthAdjust="spacingAndGlyphs" textLength="238" x="363.5" y="28.6855">Task scheduling on DSP core</text><line style="stroke: #000000; stroke-width: 1.7;" x1="10" x2="10" y1="32.6406" y2="341.3906"/><line style="stroke: #000000; stroke-width: 1.7;" x1="955" x2="955" y1="32.6406" y2="341.3906"/><line style="stroke: #AAAAAA; stroke-width: 0.5; stroke-dasharray: 3.0,5.0;" x1="150" x2="150" y1="32.6406" y2="341.3906"/><line style="stroke: #AAAAAA; stroke-width: 0.5; stroke-dasharray: 3.0,5.0;" x1="350" x2="350" y1="32.6406" y2="341.3906"/><line style="stroke: #AAAAAA; stroke-width: 0.5; stroke-dasharray: 3.0,5.0;" x1="550" x2="550" y1="32.6406" y2="341.3906"/><line style="stroke: #AAAAAA; stroke-width: 0.5; stroke-dasharray: 3.0,5.0;" x1="750" x2="750" y1="32.6406" y2="341.3906"/><line style="stroke: #AAAAAA; stroke-width: 0.5; stroke-dasharray: 3.0,5.0;" x1="950" x2="950" y1="32.6406" y2="341.3906"/><text fill="#33335B" font-family="sans-serif" font-size="12" lengthAdjust="spacingAndGlyphs" textLength="120" x="15" y="45.0977">DP Tasks Processing</text><line style="stroke: #000000; stroke-width: 1.0;" x1="10" x2="136" y1="48.7344" y2="48.7344"/><line style="stroke: #000000; stroke-width: 1.0;" x1="136" x2="146" y1="48.7344" y2="32.6406"/><line style="stroke: #038048; stroke-width: 1.5;" x1="150" x2="190" y1="68.8281" y2="68.8281"/><polygon fill="#D7E0F2" points="202,56.8281,278,56.8281,290,68.8281,278,80.8281,202,80.8281,190,68.8281" style="stroke: #038048; stroke-width: 1.5;"/><line style="stroke: #038048; stroke-width: 1.5;" x1="290" x2="390" y1="68.8281" y2="68.8281"/><polygon fill="#D7E0F2" points="402,56.8281,478,56.8281,490,68.8281,478,80.8281,402,80.8281,390,68.8281" style="stroke: #038048; stroke-width: 1.5;"/><line style="stroke: #038048; stroke-width: 1.5;" x1="490" x2="590" y1="68.8281" y2="68.8281"/><polygon fill="#D7E0F2" points="602,56.8281,678,56.8281,690,68.8281,678,80.8281,602,80.8281,590,68.8281" style="stroke: #038048; stroke-width: 1.5;"/><line style="stroke: #038048; stroke-width: 1.5;" x1="690" x2="790" y1="68.8281" y2="68.8281"/><polygon fill="#D7E0F2" points="802,56.8281,878,56.8281,890,68.8281,878,80.8281,802,80.8281,790,68.8281" style="stroke: #038048; stroke-width: 1.5;"/><line style="stroke: #038048; stroke-width: 1.5;" x1="890" x2="950" y1="68.8281" y2="68.8281"/><text fill="#33335B" font-family="sans-serif" font-size="12" lengthAdjust="spacingAndGlyphs" textLength="27" x="226.5" y="73.7383">Busy</text><text fill="#33335B" font-family="sans-serif" font-size="12" lengthAdjust="spacingAndGlyphs" textLength="27" x="426.5" y="73.7383">Busy</text><text fill="#33335B" font-family="sans-serif" font-size="12" lengthAdjust="spacingAndGlyphs" textLength="27" x="626.5" y="73.7383">Busy</text><text fill="#33335B" font-family="sans-serif" font-size="12" lengthAdjust="spacingAndGlyphs" textLength="27" x="826.5" y="73.7383">Busy</text><line style="stroke: #000000; stroke-width: 1.7;" x1="10" x2="955" y1="32.6406" y2="32.6406"/><text fill="#33335B" font-family="sans-serif" font-size="12" lengthAdjust="spacingAndGlyphs" textLength="117" x="15" y="111.2852">LL Tasks Processing</text><line style="stroke: #000000; stroke-width: 1.0;" x1="10" x2="133" y1="114.9219" y2="114.9219"/><line style="stroke: #000000; stroke-width: 1.0;" x1="133" x2="143" y1="114.9219" y2="98.8281"/><polygon fill="#D7E0F2" points="162,123.0156,178,123.0156,190,135.0156,178,147.0156,162,147.0156,150,135.0156" style="stroke: #038048; stroke-width: 1.5;"/><line style="stroke: #038048; stroke-width: 1.5;" x1="190" x2="350" y1="135.0156" y2="135.0156"/><polygon fill="#D7E0F2" points="362,123.0156,378,123.0156,390,135.0156,378,147.0156,362,147.0156,350,135.0156" style="stroke: #038048; stroke-width: 1.5;"/><line style="stroke: #038048; stroke-width: 1.5;" x1="390" x2="550" y1="135.0156" y2="135.0156"/><polygon fill="#D7E0F2" points="562,123.0156,578,123.0156,590,135.0156,578,147.0156,562,147.0156,550,135.0156" style="stroke: #038048; stroke-width: 1.5;"/><line style="stroke: #038048; stroke-width: 1.5;" x1="590" x2="750" y1="135.0156" y2="135.0156"/><polygon fill="#D7E0F2" points="762,123.0156,778,123.0156,790,135.0156,778,147.0156,762,147.0156,750,135.0156" style="stroke: #038048; stroke-width: 1.5;"/><line style="stroke: #038048; stroke-width: 1.5;" x1="790" x2="950" y1="135.0156" y2="135.0156"/><text fill="#33335B" font-family="sans-serif" font-size="12" lengthAdjust="spacingAndGlyphs" textLength="27" x="156.5" y="139.9258">Busy</text><text fill="#33335B" font-family="sans-serif" font-size="12" lengthAdjust="spacingAndGlyphs" textLength="27" x="356.5" y="139.9258">Busy</text><text fill="#33335B" font-family="sans-serif" font-size="12" lengthAdjust="spacingAndGlyphs" textLength="27" x="556.5" y="139.9258">Busy</text><text fill="#33335B" font-family="sans-serif" font-size="12" lengthAdjust="spacingAndGlyphs" textLength="27" x="756.5" y="139.9258">Busy</text><line style="stroke: #000000; stroke-width: 1.7;" x1="10" x2="955" y1="98.8281" y2="98.8281"/><text fill="#33335B" font-family="sans-serif" font-size="12" lengthAdjust="spacingAndGlyphs" textLength="25" x="15" y="177.4727">DSP</text><line style="stroke: #000000; stroke-width: 1.0;" x1="10" x2="41" y1="181.1094" y2="181.1094"/><line style="stroke: #000000; stroke-width: 1.0;" x1="41" x2="51" y1="181.1094" y2="165.0156"/><line style="stroke: #038048; stroke-width: 1.5;" x1="110" x2="150" y1="215.2031" y2="215.2031"/><line style="stroke: #038048; stroke-width: 1.5;" x1="150" x2="290" y1="195.2031" y2="195.2031"/><line style="stroke: #038048; stroke-width: 1.5;" x1="290" x2="350" y1="215.2031" y2="215.2031"/><line style="stroke: #038048; stroke-width: 1.5;" x1="350" x2="490" y1="195.2031" y2="195.2031"/><line style="stroke: #038048; stroke-width: 1.5;" x1="490" x2="550" y1="215.2031" y2="215.2031"/><line style="stroke: #038048; stroke-width: 1.5;" x1="550" x2="690" y1="195.2031" y2="195.2031"/><line style="stroke: #038048; stroke-width: 1.5;" x1="690" x2="750" y1="215.2031" y2="215.2031"/><line style="stroke: #038048; stroke-width: 1.5;" x1="750" x2="890" y1="195.2031" y2="195.2031"/><line style="stroke: #038048; stroke-width: 1.5;" x1="890" x2="950" y1="215.2031" y2="215.2031"/><line style="stroke: #038048; stroke-width: 1.5;" x1="150" x2="150" y1="195.2031" y2="215.2031"/><line style="stroke: #038048; stroke-width: 1.5;" x1="290" x2="290" y1="195.2031" y2="215.2031"/><line style="stroke: #038048; stroke-width: 1.5;" x1="350" x2="350" y1="195.2031" y2="215.2031"/><line style="stroke: #038048; stroke-width: 1.5;" x1="490" x2="490" y1="195.2031" y2="215.2031"/><line style="stroke: #038048; stroke-width: 1.5;" x1="550" x2="550" y1="195.2031" y2="215.2031"/><line style="stroke: #038048; stroke-width: 1.5;" x1="690" x2="690" y1="195.2031" y2="215.2031"/><line style="stroke: #038048; stroke-width: 1.5;" x1="750" x2="750" y1="195.2031" y2="215.2031"/><line style="stroke: #038048; stroke-width: 1.5;" x1="890" x2="890" y1="195.2031" y2="215.2031"/><line style="stroke: #FF0000; stroke-width: 1.5;" x1="390" x2="550" y1="185.2031" y2="185.2031"/><polygon fill="#FF0000" points="397.5175,182.467,397.5175,187.9393,390,185.2031" style="stroke: #FF0000; stroke-width: 1.5;"/><polygon fill="#FF0000" points="542.4825,187.9393,542.4825,182.467,550,185.2031" style="stroke: #FF0000; stroke-width: 1.5;"/><text fill="#000000" font-family="Serif" font-size="14" lengthAdjust="spacingAndGlyphs" textLength="101" x="415.5" y="159.3809">Time available for</text><text fill="#000000" font-family="Serif" font-size="14" lengthAdjust="spacingAndGlyphs" textLength="109" x="415.5" y="177.127">DP tasks execution</text><line style="stroke: #FF0000; stroke-width: 1.5;" x1="590" x2="690" y1="185.2031" y2="185.2031"/><polygon fill="#FF0000" points="597.5175,182.467,597.5175,187.9393,590,185.2031" style="stroke: #FF0000; stroke-width: 1.5;"/><polygon fill="#FF0000" points="682.4825,187.9393,682.4825,182.467,690,185.2031" style="stroke: #FF0000; stroke-width: 1.5;"/><text fill="#000000" font-family="Serif" font-size="14" lengthAdjust="spacingAndGlyphs" textLength="122" x="579" y="159.3809">Actual execution time</text><text fill="#000000" font-family="Serif" font-size="14" lengthAdjust="spacingAndGlyphs" textLength="67" x="579" y="177.127">of DP tasks</text><line style="stroke: #FF0000; stroke-width: 1.5;" x1="750" x2="790" y1="185.2031" y2="185.2031"/><polygon fill="#FF0000" points="757.5175,182.467,757.5175,187.9393,750,185.2031" style="stroke: #FF0000; stroke-width: 1.5;"/><polygon fill="#FF0000" points="782.4825,187.9393,782.4825,182.467,790,185.2031" style="stroke: #FF0000; stroke-width: 1.5;"/><text fill="#000000" font-family="Serif" font-size="14" lengthAdjust="spacingAndGlyphs" textLength="122" x="709" y="159.3809">Actual execution time</text><text fill="#000000" font-family="Serif" font-size="14" lengthAdjust="spacingAndGlyphs" textLength="65" x="709" y="177.127">of LL tasks</text><text fill="#33335B" font-family="sans-serif" font-size="12" lengthAdjust="spacingAndGlyphs" textLength="20" x="15" y="212.5664">Idle</text><text fill="#33335B" font-family="sans-serif" font-size="12" lengthAdjust="spacingAndGlyphs" textLength="95" x="15" y="192.5664">Scheduling tasks</text><line style="stroke: #000000; stroke-width: 1.7;" x1="10" x2="955" y1="165.0156" y2="165.0156"/><text fill="#33335B" font-family="sans-serif" font-size="12" lengthAdjust="spacingAndGlyphs" textLength="80" x="15" y="257.6602">Timer Interrupt</text><line style="stroke: #000000; stroke-width: 1.0;" x1="10" x2="96" y1="261.2969" y2="261.2969"/><line style="stroke: #000000; stroke-width: 1.0;" x1="96" x2="106" y1="261.2969" y2="245.2031"/><line style="stroke: #FF0000; stroke-width: 1.0;" x1="150" x2="350" y1="290.3906" y2="290.3906"/><polygon fill="#FF0000" points="157.5175,287.6545,157.5175,293.1268,150,290.3906" style="stroke: #FF0000; stroke-width: 1.0;"/><polygon fill="#FF0000" points="342.4825,293.1268,342.4825,287.6545,350,290.3906" style="stroke: #FF0000; stroke-width: 1.0;"/><text fill="#000000" font-family="Serif" font-size="14" lengthAdjust="spacingAndGlyphs" textLength="90" x="205" y="282.3145">Schedule period</text><line style="stroke: #000000; stroke-width: 1.7;" x1="10" x2="955" y1="245.2031" y2="245.2031"/><line style="stroke: #000000; stroke-width: 2.0;" x1="150" x2="150" y1="341.3906" y2="346.3906"/><line style="stroke: #000000; stroke-width: 2.0;" x1="350" x2="350" y1="341.3906" y2="346.3906"/><line style="stroke: #000000; stroke-width: 2.0;" x1="550" x2="550" y1="341.3906" y2="346.3906"/><line style="stroke: #000000; stroke-width: 2.0;" x1="750" x2="750" y1="341.3906" y2="346.3906"/><line style="stroke: #000000; stroke-width: 2.0;" x1="950" x2="950" y1="341.3906" y2="346.3906"/><line style="stroke: #000000; stroke-width: 2.0;" x1="150" x2="950" y1="341.3906" y2="341.3906"/><text fill="#33335B" font-family="sans-serif" font-size="12" lengthAdjust="spacingAndGlyphs" textLength="7" x="146.5" y="359.8477">0</text><text fill="#33335B" font-family="sans-serif" font-size="12" lengthAdjust="spacingAndGlyphs" textLength="7" x="346.5" y="359.8477">1</text><text fill="#33335B" font-family="sans-serif" font-size="12" lengthAdjust="spacingAndGlyphs" textLength="7" x="546.5" y="359.8477">2</text><text fill="#33335B" font-family="sans-serif" font-size="12" lengthAdjust="spacingAndGlyphs" textLength="7" x="746.5" y="359.8477">3</text><text fill="#33335B" font-family="sans-serif" font-size="12" lengthAdjust="spacingAndGlyphs" textLength="7" x="946.5" y="359.8477">4</text><line style="stroke: #0000FF; stroke-width: 1.0;" x1="150" x2="150" y1="299.3906" y2="215.2031"/><polygon fill="#0000FF" points="152.7362,222.7207,147.2638,222.7207,150,215.2031" style="stroke: #0000FF; stroke-width: 1.0;"/><line style="stroke: #0000FF; stroke-width: 1.0;" x1="150" x2="150" y1="195.2031" y2="135.0156"/><polygon fill="#0000FF" points="152.7362,142.5332,147.2638,142.5332,150,135.0156" style="stroke: #0000FF; stroke-width: 1.0;"/><line style="stroke: #0000FF; stroke-width: 1.0;" x1="190" x2="190" y1="195.2031" y2="68.8281"/><polygon fill="#0000FF" points="192.7362,76.3457,187.2638,76.3457,190,68.8281" style="stroke: #0000FF; stroke-width: 1.0;"/><line style="stroke: #0000FF; stroke-width: 1.0;" x1="290" x2="290" y1="68.8281" y2="195.2031"/><polygon fill="#0000FF" points="287.2638,187.6856,292.7362,187.6856,290,195.2031" style="stroke: #0000FF; stroke-width: 1.0;"/><line style="stroke: #0000FF; stroke-width: 1.0;" x1="350" x2="350" y1="299.3906" y2="215.2031"/><polygon fill="#0000FF" points="352.7362,222.7207,347.2638,222.7207,350,215.2031" style="stroke: #0000FF; stroke-width: 1.0;"/><line style="stroke: #0000FF; stroke-width: 1.0;" x1="350" x2="350" y1="195.2031" y2="135.0156"/><polygon fill="#0000FF" points="352.7362,142.5332,347.2638,142.5332,350,135.0156" style="stroke: #0000FF; stroke-width: 1.0;"/><line style="stroke: #0000FF; stroke-width: 1.0;" x1="390" x2="390" y1="195.2031" y2="68.8281"/><polygon fill="#0000FF" points="392.7362,76.3457,387.2638,76.3457,390,68.8281" style="stroke: #0000FF; stroke-width: 1.0;"/><line style="stroke: #0000FF; stroke-width: 1.0;" x1="490" x2="490" y1="68.8281" y2="195.2031"/><polygon fill="#0000FF" points="487.2638,187.6856,492.7362,187.6856,490,195.2031" style="stroke: #0000FF; stroke-width: 1.0;"/><line style="stroke: #0000FF; stroke-width: 1.0;" x1="550" x2="550" y1="299.3906" y2="215.2031"/><polygon fill="#0000FF" points="552.7362,222.7207,547.2638,222.7207,550,215.2031" style="stroke: #0000FF; stroke-width: 1.0;"/><line style="stroke: #0000FF; stroke-width: 1.0;" x1="550" x2="550" y1="195.2031" y2="135.0156"/><polygon fill="#0000FF" points="552.7362,142.5332,547.2638,142.5332,550,135.0156" style="stroke: #0000FF; stroke-width: 1.0;"/><line style="stroke: #0000FF; stroke-width: 1.0;" x1="590" x2="590" y1="195.2031" y2="68.8281"/><polygon fill="#0000FF" points="592.7362,76.3457,587.2638,76.3457,590,68.8281" style="stroke: #0000FF; stroke-width: 1.0;"/><line style="stroke: #0000FF; stroke-width: 1.0;" x1="690" x2="690" y1="68.8281" y2="195.2031"/><polygon fill="#0000FF" points="687.2638,187.6856,692.7362,187.6856,690,195.2031" style="stroke: #0000FF; stroke-width: 1.0;"/><line style="stroke: #0000FF; stroke-width: 1.0;" x1="750" x2="750" y1="299.3906" y2="215.2031"/><polygon fill="#0000FF" points="752.7362,222.7207,747.2638,222.7207,750,215.2031" style="stroke: #0000FF; stroke-width: 1.0;"/><line style="stroke: #0000FF; stroke-width: 1.0;" x1="750" x2="750" y1="195.2031" y2="135.0156"/><polygon fill="#0000FF" points="752.7362,142.5332,747.2638,142.5332,750,135.0156" style="stroke: #0000FF; stroke-width: 1.0;"/><line style="stroke: #0000FF; stroke-width: 1.0;" x1="790" x2="790" y1="195.2031" y2="68.8281"/><polygon fill="#0000FF" points="792.7362,76.3457,787.2638,76.3457,790,68.8281" style="stroke: #0000FF; stroke-width: 1.0;"/><line style="stroke: #0000FF; stroke-width: 1.0;" x1="890" x2="890" y1="68.8281" y2="195.2031"/><polygon fill="#0000FF" points="887.2638,187.6856,892.7362,187.6856,890,195.2031" style="stroke: #0000FF; stroke-width: 1.0;"/><rect fill="#DDDDDD" height="80.4375" rx="5" ry="5" style="stroke: #000000; stroke-width: 1.0;" width="263" x="350.5" y="364.4844"/><text fill="#33335B" font-family="sans-serif" font-size="14" lengthAdjust="spacingAndGlyphs" textLength="84" x="356.5" y="384.0176">Assumptions:</text><text fill="#33335B" font-family="sans-serif" font-size="14" lengthAdjust="spacingAndGlyphs" textLength="115" x="356.5" y="401.627">1) 1ms scheduling</text><text fill="#33335B" font-family="sans-serif" font-size="14" lengthAdjust="spacingAndGlyphs" textLength="207" x="356.5" y="419.2363">2) 0.1ms takes LL task execution</text><text fill="#33335B" font-family="sans-serif" font-size="14" lengthAdjust="spacingAndGlyphs" textLength="251" x="356.5" y="436.8457">3) 0.5ms takes execution of all DP tasks</text><!--MD5=[2dba40cc7c8f7e4caa5e02560ab94247]
@startuml
hidefootbox
skinparam componentStyle uml2

skinparam defaultFontColor	#33335b

skinparam rectangle {
	color		#d6d6de
	backgroundColor	#ffffff
}

skinparam component {
	backgroundColor	#ffffff
	borderColor	#33335b
	arrowColor	#f05772
}

skinparam interface {
	backgroundColor	#ffffff
	borderColor	#f05772
}

skinparam class {
	backgroundColor	#ffffff
	borderColor	#33335b
	arrowColor	#f05772
}
skinparam stereotypeCBackgroundColor	#6fccdd

skinparam sequence {
	arrowColor		#4a4a86
	lifeLineBorderColor	#f05772
	groupBorderColor	#a1a1ca
	boxBorderColor		#a1a1ca
	dividerBorderColor	#d6d6de
	dividerBorderThickness	1
}
skinparam participant {
	borderColor		#33335b
	backgroundColor		#ffffff
}
skinparam actor {
	borderColor		#33335b
	backgroundColor		#ffffff
}

skinparam state {
	borderColor		#33335b
	backgroundColor		#ffffff
}

skinparam node {
	backgroundColor		#ffffff
}

skinparam note {
	backgroundColor 	#f6ed80
	borderColor		#d6d6de
}

Title Task scheduling on DSP core

legend
Assumptions:
1) 1ms scheduling
2) 0.1ms takes LL task execution
3) 0.5ms takes execution of all DP tasks
end legend

scale 1 as 200 pixels

concise "DP Tasks Processing" as DP_Processing
concise "LL Tasks Processing" as LL_Processing
robust "DSP" as DSP
concise "Timer Interrupt" as Interrupt

DSP is Idle

@DSP
@1.2 <-> @2: Time available for\nDP tasks execution
@2.2 <-> @2.7: Actual execution time\nof DP tasks
@3 <-> @3.2: Actual execution time\nof LL tasks

@Interrupt
@0 <-> @1 : Schedule period

@0
Interrupt -> DSP
DSP -> LL_Processing
DSP is "Scheduling tasks"
LL_Processing is Busy
DP_Processing is {-}

@+0.2
DSP -> DP_Processing
LL_Processing is {-}
DP_Processing is Busy

@+0.5
DP_Processing -> DSP
DP_Processing is {-}
DSP is Idle

@1
Interrupt -> DSP
DSP -> LL_Processing
DSP is "Scheduling tasks"
LL_Processing is Busy

@+0.2
DSP -> DP_Processing
LL_Processing is {-}
DP_Processing is Busy

@+0.5
DP_Processing -> DSP
DP_Processing is {-}
DSP is Idle

@2
Interrupt -> DSP
DSP -> LL_Processing
DSP is "Scheduling tasks"
LL_Processing is Busy

@+0.2
DSP -> DP_Processing
LL_Processing is {-}
DP_Processing is Busy

@+0.5
DP_Processing -> DSP
DP_Processing is {-}
DSP is Idle

@3
Interrupt -> DSP
DSP -> LL_Processing
DSP is "Scheduling tasks"
LL_Processing is Busy

@+0.2
DSP -> DP_Processing

LL_Processing is {-}
DP_Processing is Busy

@+0.5
DP_Processing -> DSP
DP_Processing is {-}
DSP is Idle

@enduml

PlantUML version 1.2019.12(Sun Nov 03 11:24:54 CET 2019)
(GPL source distribution)
Java Runtime: OpenJDK Runtime Environment
JVM: OpenJDK 64-Bit Server VM
Java Version: 1.8.0_302-b08
Operating System: Windows 10
Default Encoding: Cp1252
Language: en
Country: US
--></g></svg>