<?xml version="1.0" encoding="UTF-8" standalone="no"?><svg xmlns="http://www.w3.org/2000/svg" xmlns:xlink="http://www.w3.org/1999/xlink" contentScriptType="application/ecmascript" contentStyleType="text/css" height="791px" preserveAspectRatio="none" style="width:1107px;height:791px;" version="1.1" viewBox="0 0 1107 791" width="1107px" zoomAndPan="magnify"><defs><filter height="300%" id="f1xm0hw1rzypff" width="300%" x="-1" y="-1"><feGaussianBlur result="blurOut" stdDeviation="2.0"/><feColorMatrix in="blurOut" result="blurOut2" type="matrix" values="0 0 0 0 0 0 0 0 0 0 0 0 0 0 0 0 0 0 .4 0"/><feOffset dx="4.0" dy="4.0" in="blurOut2" result="blurOut3"/><feBlend in="SourceGraphic" in2="blurOut3" mode="normal"/></filter></defs><g><rect fill="#90EE90" height="769.1563" style="stroke: #A1A1CA; stroke-width: 1.0;" width="66" x="8" y="4"/><text fill="#33335B" font-family="sans-serif" font-size="13" font-weight="bold" lengthAdjust="spacingAndGlyphs" textLength="34" x="24" y="16.0669">Host</text><rect fill="#87CEFA" height="769.1563" style="stroke: #A1A1CA; stroke-width: 1.0;" width="509" x="209" y="4"/><text fill="#33335B" font-family="sans-serif" font-size="13" font-weight="bold" lengthAdjust="spacingAndGlyphs" textLength="29" x="449" y="16.0669">SOF</text><rect fill="#ADD8E6" height="769.1563" style="stroke: #A1A1CA; stroke-width: 1.0;" width="220" x="870" y="4"/><text fill="#33335B" font-family="sans-serif" font-size="13" font-weight="bold" lengthAdjust="spacingAndGlyphs" textLength="95" x="932.5" y="16.0669">Zephyr RTOS</text><rect fill="#FFFFFF" filter="url(#f1xm0hw1rzypff)" height="671.5938" style="stroke: #F05772; stroke-width: 1.0;" width="10" x="261" y="89.5625"/><rect fill="#FFFFFF" filter="url(#f1xm0hw1rzypff)" height="555.0625" style="stroke: #F05772; stroke-width: 1.0;" width="10" x="416" y="176.9609"/><rect fill="#FFFFFF" filter="url(#f1xm0hw1rzypff)" height="29.1328" style="stroke: #F05772; stroke-width: 1.0;" width="10" x="646" y="118.6953"/><rect fill="#FFFFFF" filter="url(#f1xm0hw1rzypff)" height="29.1328" style="stroke: #F05772; stroke-width: 1.0;" width="10" x="646" y="206.0938"/><rect fill="#FFFFFF" filter="url(#f1xm0hw1rzypff)" height="446.6641" style="stroke: #F05772; stroke-width: 1.0;" width="10" x="646" y="249.2266"/><rect fill="#FFFFFF" filter="url(#f1xm0hw1rzypff)" height="14" style="stroke: #F05772; stroke-width: 1.0;" width="10" x="975" y="235.2266"/><rect fill="#FFFFFF" filter="url(#f1xm0hw1rzypff)" height="14" style="stroke: #F05772; stroke-width: 1.0;" width="10" x="975" y="293.4922"/><rect fill="#FFFFFF" filter="url(#f1xm0hw1rzypff)" height="14" style="stroke: #F05772; stroke-width: 1.0;" width="10" x="975" y="336.625"/><rect fill="#FFFFFF" filter="url(#f1xm0hw1rzypff)" height="14" style="stroke: #F05772; stroke-width: 1.0;" width="10" x="975" y="446.0234"/><rect fill="#FFFFFF" filter="url(#f1xm0hw1rzypff)" height="14" style="stroke: #F05772; stroke-width: 1.0;" width="10" x="975" y="504.2891"/><rect fill="#FFFFFF" filter="url(#f1xm0hw1rzypff)" height="160.6641" style="stroke: #A1A1CA; stroke-width: 2.0;" width="518" x="578" y="365.625"/><rect fill="#FFFFFF" filter="url(#f1xm0hw1rzypff)" height="163.6016" style="stroke: #A1A1CA; stroke-width: 2.0;" width="395" x="329" y="540.2891"/><rect fill="#FFFFFF" height="73.0703" style="stroke: none; stroke-width: 1.0;" width="395" x="329" y="630.8203"/><line style="stroke: #F05772; stroke-width: 1.0; stroke-dasharray: 5.0,5.0;" x1="41" x2="41" y1="58.4297" y2="779.1563"/><line style="stroke: #F05772; stroke-width: 1.0; stroke-dasharray: 5.0,5.0;" x1="266" x2="266" y1="58.4297" y2="779.1563"/><line style="stroke: #F05772; stroke-width: 1.0; stroke-dasharray: 5.0,5.0;" x1="421" x2="421" y1="58.4297" y2="779.1563"/><line style="stroke: #F05772; stroke-width: 1.0; stroke-dasharray: 5.0,5.0;" x1="651" x2="651" y1="58.4297" y2="779.1563"/><line style="stroke: #F05772; stroke-width: 1.0; stroke-dasharray: 5.0,5.0;" x1="980" x2="980" y1="58.4297" y2="779.1563"/><rect fill="#FFFFFF" filter="url(#f1xm0hw1rzypff)" height="30.2969" style="stroke: #33335B; stroke-width: 1.5;" width="54" x="12" y="23.1328"/><text fill="#33335B" font-family="sans-serif" font-size="14" lengthAdjust="spacingAndGlyphs" textLength="40" x="19" y="43.1279">Driver</text><rect fill="#FFFFFF" filter="url(#f1xm0hw1rzypff)" height="30.2969" style="stroke: #33335B; stroke-width: 1.5;" width="102" x="213" y="23.1328"/><text fill="#33335B" font-family="sans-serif" font-size="14" lengthAdjust="spacingAndGlyphs" textLength="88" x="220" y="43.1279">IPC4 Handler</text><rect fill="#FFFFFF" filter="url(#f1xm0hw1rzypff)" height="30.2969" style="stroke: #33335B; stroke-width: 1.5;" width="160" x="339" y="23.1328"/><text fill="#33335B" font-family="sans-serif" font-size="14" lengthAdjust="spacingAndGlyphs" textLength="146" x="346" y="43.1279">Component Manager</text><rect fill="#FFFFFF" filter="url(#f1xm0hw1rzypff)" height="30.2969" style="stroke: #33335B; stroke-width: 1.5;" width="122" x="588" y="23.1328"/><text fill="#33335B" font-family="sans-serif" font-size="14" lengthAdjust="spacingAndGlyphs" textLength="108" x="595" y="43.1279">Library Manager</text><rect fill="#FFFFFF" filter="url(#f1xm0hw1rzypff)" height="30.2969" style="stroke: #33335B; stroke-width: 1.5;" width="208" x="874" y="23.1328"/><text fill="#33335B" font-family="sans-serif" font-size="14" lengthAdjust="spacingAndGlyphs" textLength="194" x="881" y="43.1279">Memory Management Driver</text><rect fill="#FFFFFF" filter="url(#f1xm0hw1rzypff)" height="671.5938" style="stroke: #F05772; stroke-width: 1.0;" width="10" x="261" y="89.5625"/><rect fill="#FFFFFF" filter="url(#f1xm0hw1rzypff)" height="555.0625" style="stroke: #F05772; stroke-width: 1.0;" width="10" x="416" y="176.9609"/><rect fill="#FFFFFF" filter="url(#f1xm0hw1rzypff)" height="29.1328" style="stroke: #F05772; stroke-width: 1.0;" width="10" x="646" y="118.6953"/><rect fill="#FFFFFF" filter="url(#f1xm0hw1rzypff)" height="29.1328" style="stroke: #F05772; stroke-width: 1.0;" width="10" x="646" y="206.0938"/><rect fill="#FFFFFF" filter="url(#f1xm0hw1rzypff)" height="446.6641" style="stroke: #F05772; stroke-width: 1.0;" width="10" x="646" y="249.2266"/><rect fill="#FFFFFF" filter="url(#f1xm0hw1rzypff)" height="14" style="stroke: #F05772; stroke-width: 1.0;" width="10" x="975" y="235.2266"/><rect fill="#FFFFFF" filter="url(#f1xm0hw1rzypff)" height="14" style="stroke: #F05772; stroke-width: 1.0;" width="10" x="975" y="293.4922"/><rect fill="#FFFFFF" filter="url(#f1xm0hw1rzypff)" height="14" style="stroke: #F05772; stroke-width: 1.0;" width="10" x="975" y="336.625"/><rect fill="#FFFFFF" filter="url(#f1xm0hw1rzypff)" height="14" style="stroke: #F05772; stroke-width: 1.0;" width="10" x="975" y="446.0234"/><rect fill="#FFFFFF" filter="url(#f1xm0hw1rzypff)" height="14" style="stroke: #F05772; stroke-width: 1.0;" width="10" x="975" y="504.2891"/><polygon fill="#F05772" points="249,85.5625,259,89.5625,249,93.5625,253,89.5625" style="stroke: #F05772; stroke-width: 1.0;"/><line style="stroke: #F05772; stroke-width: 1.0;" x1="41" x2="255" y1="89.5625" y2="89.5625"/><text fill="#33335B" font-family="sans-serif" font-size="13" lengthAdjust="spacingAndGlyphs" textLength="201" x="48" y="84.4966">SOF_IPC4_MOD_INIT_INSTANCE</text><polygon fill="#F05772" points="634,114.6953,644,118.6953,634,122.6953,638,118.6953" style="stroke: #F05772; stroke-width: 1.0;"/><line style="stroke: #F05772; stroke-width: 1.0;" x1="271" x2="640" y1="118.6953" y2="118.6953"/><text fill="#33335B" font-family="sans-serif" font-size="13" lengthAdjust="spacingAndGlyphs" textLength="200" x="278" y="113.6294">lib_manager_register_module()</text><polygon fill="#F05772" points="282,143.8281,272,147.8281,282,151.8281,278,147.8281" style="stroke: #F05772; stroke-width: 1.0;"/><line style="stroke: #F05772; stroke-width: 1.0;" x1="276" x2="650" y1="147.8281" y2="147.8281"/><text fill="#33335B" font-family="sans-serif" font-size="13" lengthAdjust="spacingAndGlyphs" textLength="83" x="288" y="142.7622">return status</text><polygon fill="#F05772" points="404,172.9609,414,176.9609,404,180.9609,408,176.9609" style="stroke: #F05772; stroke-width: 1.0;"/><line style="stroke: #F05772; stroke-width: 1.0;" x1="271" x2="410" y1="176.9609" y2="176.9609"/><text fill="#33335B" font-family="sans-serif" font-size="13" lengthAdjust="spacingAndGlyphs" textLength="126" x="278" y="171.895">Create comp_driver</text><polygon fill="#F05772" points="634,202.0938,644,206.0938,634,210.0938,638,206.0938" style="stroke: #F05772; stroke-width: 1.0;"/><line style="stroke: #F05772; stroke-width: 1.0;" x1="426" x2="640" y1="206.0938" y2="206.0938"/><text fill="#33335B" font-family="sans-serif" font-size="13" lengthAdjust="spacingAndGlyphs" textLength="201" x="433" y="201.0278">Allocate L2 memory for module</text><polygon fill="#F05772" points="963,231.2266,973,235.2266,963,239.2266,967,235.2266" style="stroke: #F05772; stroke-width: 1.0;"/><line style="stroke: #F05772; stroke-width: 1.0;" x1="651" x2="969" y1="235.2266" y2="235.2266"/><text fill="#33335B" font-family="sans-serif" font-size="13" lengthAdjust="spacingAndGlyphs" textLength="104" x="658" y="230.1606">Map L2 memory</text><polygon fill="#F05772" points="667,245.2266,657,249.2266,667,253.2266,663,249.2266" style="stroke: #F05772; stroke-width: 1.0;"/><line style="stroke: #F05772; stroke-width: 1.0;" x1="661" x2="979" y1="249.2266" y2="249.2266"/><polygon fill="#F05772" points="963,289.4922,973,293.4922,963,297.4922,967,293.4922" style="stroke: #F05772; stroke-width: 1.0;"/><line style="stroke: #F05772; stroke-width: 1.0;" x1="656" x2="969" y1="293.4922" y2="293.4922"/><text fill="#33335B" font-family="sans-serif" font-size="13" lengthAdjust="spacingAndGlyphs" textLength="192" x="663" y="273.2935">Load module code and rodata</text><text fill="#33335B" font-family="sans-serif" font-size="13" lengthAdjust="spacingAndGlyphs" textLength="143" x="663" y="288.4263">from L3 to L2 memory</text><polygon fill="#F05772" points="667,303.4922,657,307.4922,667,311.4922,663,307.4922" style="stroke: #F05772; stroke-width: 1.0;"/><line style="stroke: #F05772; stroke-width: 1.0;" x1="661" x2="979" y1="307.4922" y2="307.4922"/><polygon fill="#F05772" points="963,332.625,973,336.625,963,340.625,967,336.625" style="stroke: #F05772; stroke-width: 1.0;"/><line style="stroke: #F05772; stroke-width: 1.0;" x1="656" x2="969" y1="336.625" y2="336.625"/><text fill="#33335B" font-family="sans-serif" font-size="13" lengthAdjust="spacingAndGlyphs" textLength="175" x="663" y="331.5591">Initialize L2 memory for bss</text><polygon fill="#F05772" points="667,346.625,657,350.625,667,354.625,663,350.625" style="stroke: #F05772; stroke-width: 1.0;"/><line style="stroke: #F05772; stroke-width: 1.0;" x1="661" x2="979" y1="350.625" y2="350.625"/><path d="M578,365.625 L655,365.625 L655,372.625 L645,382.625 L578,382.625 L578,365.625 " fill="#EEEEEE" style="stroke: #A1A1CA; stroke-width: 1.0;"/><rect fill="none" height="160.6641" style="stroke: #A1A1CA; stroke-width: 2.0;" width="518" x="578" y="365.625"/><text fill="#33335B" font-family="sans-serif" font-size="13" font-weight="bold" lengthAdjust="spacingAndGlyphs" textLength="32" x="593" y="378.6919">loop</text><text fill="#33335B" font-family="sans-serif" font-size="11" font-weight="bold" lengthAdjust="spacingAndGlyphs" textLength="220" x="670" y="377.8354">[Search library for shared module]</text><line style="stroke: #F05772; stroke-width: 1.0;" x1="656" x2="698" y1="403.8906" y2="403.8906"/><line style="stroke: #F05772; stroke-width: 1.0;" x1="698" x2="698" y1="403.8906" y2="416.8906"/><line style="stroke: #F05772; stroke-width: 1.0;" x1="657" x2="698" y1="416.8906" y2="416.8906"/><polygon fill="#F05772" points="667,412.8906,657,416.8906,667,420.8906,663,416.8906" style="stroke: #F05772; stroke-width: 1.0;"/><text fill="#33335B" font-family="sans-serif" font-size="13" lengthAdjust="spacingAndGlyphs" textLength="305" x="663" y="398.8247">Check if shared module exists and is not loaded</text><polygon fill="#F05772" points="963,442.0234,973,446.0234,963,450.0234,967,446.0234" style="stroke: #F05772; stroke-width: 1.0;"/><line style="stroke: #F05772; stroke-width: 1.0;" x1="656" x2="969" y1="446.0234" y2="446.0234"/><text fill="#33335B" font-family="sans-serif" font-size="13" lengthAdjust="spacingAndGlyphs" textLength="280" x="663" y="440.9575">Allocate/Map L2 memory for shared module</text><polygon fill="#F05772" points="667,456.0234,657,460.0234,667,464.0234,663,460.0234" style="stroke: #F05772; stroke-width: 1.0;"/><line style="stroke: #F05772; stroke-width: 1.0;" x1="661" x2="979" y1="460.0234" y2="460.0234"/><polygon fill="#F05772" points="963,500.2891,973,504.2891,963,508.2891,967,504.2891" style="stroke: #F05772; stroke-width: 1.0;"/><line style="stroke: #F05772; stroke-width: 1.0;" x1="656" x2="969" y1="504.2891" y2="504.2891"/><text fill="#33335B" font-family="sans-serif" font-size="13" lengthAdjust="spacingAndGlyphs" textLength="240" x="663" y="484.0903">Load shared module code and rodata</text><text fill="#33335B" font-family="sans-serif" font-size="13" lengthAdjust="spacingAndGlyphs" textLength="143" x="663" y="499.2231">from L3 to L2 memory</text><polygon fill="#F05772" points="667,514.2891,657,518.2891,667,522.2891,663,518.2891" style="stroke: #F05772; stroke-width: 1.0;"/><line style="stroke: #F05772; stroke-width: 1.0;" x1="661" x2="979" y1="518.2891" y2="518.2891"/><path d="M329,540.2891 L393,540.2891 L393,547.2891 L383,557.2891 L329,557.2891 L329,540.2891 " fill="#EEEEEE" style="stroke: #A1A1CA; stroke-width: 1.0;"/><rect fill="none" height="163.6016" style="stroke: #A1A1CA; stroke-width: 2.0;" width="395" x="329" y="540.2891"/><text fill="#33335B" font-family="sans-serif" font-size="13" font-weight="bold" lengthAdjust="spacingAndGlyphs" textLength="19" x="344" y="553.356">alt</text><text fill="#33335B" font-family="sans-serif" font-size="11" font-weight="bold" lengthAdjust="spacingAndGlyphs" textLength="91" x="408" y="552.4995">[IADK module]</text><polygon fill="#F05772" points="634,589.6875,644,593.6875,634,597.6875,638,593.6875" style="stroke: #F05772; stroke-width: 1.0;"/><line style="stroke: #F05772; stroke-width: 1.0;" x1="426" x2="640" y1="593.6875" y2="593.6875"/><text fill="#33335B" font-family="sans-serif" font-size="13" lengthAdjust="spacingAndGlyphs" textLength="181" x="433" y="573.4888">Create/Initialize comp_driver</text><text fill="#33335B" font-family="sans-serif" font-size="13" lengthAdjust="spacingAndGlyphs" textLength="164" x="433" y="588.6216">with IADK Module Adapter</text><polygon fill="#F05772" points="437,618.8203,427,622.8203,437,626.8203,433,622.8203" style="stroke: #F05772; stroke-width: 1.0;"/><line style="stroke: #F05772; stroke-width: 1.0;" x1="431" x2="645" y1="622.8203" y2="622.8203"/><text fill="#33335B" font-family="sans-serif" font-size="13" lengthAdjust="spacingAndGlyphs" textLength="83" x="443" y="617.7544">return status</text><line style="stroke: #A1A1CA; stroke-width: 1.0; stroke-dasharray: 2.0,2.0;" x1="329" x2="724" y1="631.8203" y2="631.8203"/><text fill="#33335B" font-family="sans-serif" font-size="11" font-weight="bold" lengthAdjust="spacingAndGlyphs" textLength="87" x="334" y="642.0308">[SOF module]</text><polygon fill="#F05772" points="634,662.7578,644,666.7578,634,670.7578,638,666.7578" style="stroke: #F05772; stroke-width: 1.0;"/><line style="stroke: #F05772; stroke-width: 1.0;" x1="426" x2="640" y1="666.7578" y2="666.7578"/><text fill="#33335B" font-family="sans-serif" font-size="13" lengthAdjust="spacingAndGlyphs" textLength="181" x="433" y="661.6919">Create/Initialize comp_driver</text><polygon fill="#F05772" points="437,691.8906,427,695.8906,437,699.8906,433,695.8906" style="stroke: #F05772; stroke-width: 1.0;"/><line style="stroke: #F05772; stroke-width: 1.0;" x1="431" x2="650" y1="695.8906" y2="695.8906"/><text fill="#33335B" font-family="sans-serif" font-size="13" lengthAdjust="spacingAndGlyphs" textLength="83" x="443" y="690.8247">return status</text><polygon fill="#F05772" points="282,728.0234,272,732.0234,282,736.0234,278,732.0234" style="stroke: #F05772; stroke-width: 1.0;"/><line style="stroke: #F05772; stroke-width: 1.0;" x1="276" x2="420" y1="732.0234" y2="732.0234"/><text fill="#33335B" font-family="sans-serif" font-size="13" lengthAdjust="spacingAndGlyphs" textLength="83" x="288" y="726.9575">return status</text><polygon fill="#F05772" points="52,757.1563,42,761.1563,52,765.1563,48,761.1563" style="stroke: #F05772; stroke-width: 1.0;"/><line style="stroke: #F05772; stroke-width: 1.0;" x1="46" x2="265" y1="761.1563" y2="761.1563"/><text fill="#33335B" font-family="sans-serif" font-size="13" lengthAdjust="spacingAndGlyphs" textLength="139" x="58" y="756.0903">Complete IPC request</text><!--MD5=[a30a4bdd358a29da5db6fa9858108958]
@startuml
hidefootbox
skinparam componentStyle uml2

skinparam defaultFontColor	#33335b

skinparam rectangle {
	color		#d6d6de
	backgroundColor	#ffffff
}

skinparam component {
	backgroundColor	#ffffff
	borderColor	#33335b
	arrowColor	#f05772
}

skinparam interface {
	backgroundColor	#ffffff
	borderColor	#f05772
}

skinparam class {
	backgroundColor	#ffffff
	borderColor	#33335b
	arrowColor	#f05772
}
skinparam stereotypeCBackgroundColor	#6fccdd

skinparam sequence {
	arrowColor		#4a4a86
	lifeLineBorderColor	#f05772
	groupBorderColor	#a1a1ca
	boxBorderColor		#a1a1ca
	dividerBorderColor	#d6d6de
	dividerBorderThickness	1
}
skinparam participant {
	borderColor		#33335b
	backgroundColor		#ffffff
}
skinparam actor {
	borderColor		#33335b
	backgroundColor		#ffffff
}

skinparam state {
	borderColor		#33335b
	backgroundColor		#ffffff
}

skinparam node {
	backgroundColor		#ffffff
}

skinparam note {
	backgroundColor 	#f6ed80
	borderColor		#d6d6de
}

skinparam activity {
	borderColor		#33335b
	backgroundColor		#ffffff
}

skinparam activityDiamond {
	borderColor		#33335b
	backgroundColor		#ffffff
}

skinparam arrowColor	#f05772
skinparam maxMessageSize 400
skinparam BoxPadding 4

box "Host" #LightGreen
	participant "Driver" as host_driver
end box

box "SOF" #LightSkyBlue
	participant "IPC4 Handler" as ipc4_handler
	participant "Component Manager" as component_manager
	participant "Library Manager" as library_manager
end box

box "Zephyr RTOS" #LightBlue
	participant "Memory Management Driver" as memory_management_driver
end box

host_driver -> ipc4_handler: SOF_IPC4_MOD_INIT_INSTANCE
	activate ipc4_handler
	ipc4_handler -> library_manager: lib_manager_register_module()
	activate library_manager
	library_manager -> ipc4_handler: return status
	deactivate library_manager
	ipc4_handler -> component_manager: Create comp_driver
		activate component_manager
		component_manager -> library_manager: Allocate L2 memory for module
		activate library_manager
		library_manager -> memory_management_driver: Map L2 memory
		deactivate library_manager
		activate memory_management_driver
		memory_management_driver -> library_manager
		deactivate memory_management_driver
		activate library_manager
		library_manager -> memory_management_driver: Load module code and rodata \nfrom L3 to L2 memory
		activate memory_management_driver
		memory_management_driver -> library_manager
		deactivate memory_management_driver
		library_manager -> memory_management_driver: Initialize L2 memory for bss
		activate memory_management_driver
		memory_management_driver -> library_manager
		deactivate memory_management_driver
	loop Search library for shared module
		library_manager -> library_manager: Check if shared module exists and is not loaded
		library_manager -> memory_management_driver: Allocate/Map L2 memory for shared module
		activate memory_management_driver
		memory_management_driver -> library_manager
		deactivate memory_management_driver
		library_manager -> memory_management_driver: Load shared module code and rodata \nfrom L3 to L2 memory
		activate memory_management_driver
		memory_management_driver -> library_manager
		deactivate memory_management_driver
	end loop
	alt IADK module
		component_manager -> library_manager: Create/Initialize comp_driver \nwith IADK Module Adapter 
		library_manager -> component_manager: return status
	else SOF module
		component_manager -> library_manager: Create/Initialize comp_driver 
		library_manager -> component_manager: return status
		deactivate library_manager
	end alt
	component_manager -> ipc4_handler: return status
	deactivate component_manager
ipc4_handler -> host_driver: Complete IPC request
deactivate ipc4_handler

@enduml

PlantUML version 1.2019.12(Sun Nov 03 10:24:54 UTC 2019)
(GPL source distribution)
Java Runtime: OpenJDK Runtime Environment
JVM: OpenJDK 64-Bit Server VM
Java Version: 11.0.17+8
Operating System: Linux
Default Encoding: UTF-8
Language: en
Country: null
--></g></svg>