<?xml version="1.0" encoding="UTF-8" standalone="no"?><svg xmlns="http://www.w3.org/2000/svg" xmlns:xlink="http://www.w3.org/1999/xlink" contentScriptType="application/ecmascript" contentStyleType="text/css" height="405px" preserveAspectRatio="none" style="width:469px;height:405px;" version="1.1" viewBox="0 0 469 405" width="469px" zoomAndPan="magnify"><defs><filter height="300%" id="f1pe26kqghn566" width="300%" x="-1" y="-1"><feGaussianBlur result="blurOut" stdDeviation="2.0"/><feColorMatrix in="blurOut" result="blurOut2" type="matrix" values="0 0 0 0 0 0 0 0 0 0 0 0 0 0 0 0 0 0 .4 0"/><feOffset dx="4.0" dy="4.0" in="blurOut2" result="blurOut3"/><feBlend in="SourceGraphic" in2="blurOut3" mode="normal"/></filter></defs><g><ellipse cx="267" cy="20" fill="#000000" filter="url(#f1pe26kqghn566)" rx="10" ry="10" style="stroke: none; stroke-width: 1.0;"/><rect fill="#FFFFFF" filter="url(#f1pe26kqghn566)" height="35.0938" rx="12.5" ry="12.5" style="stroke: #33335B; stroke-width: 1.5;" width="85" x="224.5" y="50"/><text fill="#33335B" font-family="sans-serif" font-size="12" lengthAdjust="spacingAndGlyphs" textLength="65" x="234.5" y="72.457">IPC request</text><polygon fill="#FFFFFF" filter="url(#f1pe26kqghn566)" points="212.5,105.0938,321.5,105.0938,333.5,117.0938,321.5,129.0938,212.5,129.0938,200.5,117.0938,212.5,105.0938" style="stroke: #33335B; stroke-width: 1.5;"/><text fill="#33335B" font-family="sans-serif" font-size="11" lengthAdjust="spacingAndGlyphs" textLength="109" x="212.5" y="121.5947">Is Module IPC request?</text><text fill="#33335B" font-family="sans-serif" font-size="11" lengthAdjust="spacingAndGlyphs" textLength="18" x="182.5" y="114.6768">yes</text><text fill="#33335B" font-family="sans-serif" font-size="11" lengthAdjust="spacingAndGlyphs" textLength="12" x="333.5" y="114.6768">no</text><rect fill="#FFFFFF" filter="url(#f1pe26kqghn566)" height="35.0938" rx="12.5" ry="12.5" style="stroke: #33335B; stroke-width: 1.5;" width="188" x="55.5" y="188.0117"/><text fill="#33335B" font-family="sans-serif" font-size="12" lengthAdjust="spacingAndGlyphs" textLength="168" x="65.5" y="210.4688">Forward IPC to secondary core</text><polygon fill="#FFFFFF" filter="url(#f1pe26kqghn566)" points="32,139.0938,267,139.0938,279,151.0938,267,163.0938,32,163.0938,20,151.0938,32,139.0938" style="stroke: #33335B; stroke-width: 1.5;"/><text fill="#33335B" font-family="sans-serif" font-size="11" lengthAdjust="spacingAndGlyphs" textLength="18" x="153.5" y="174.5127">yes</text><text fill="#33335B" font-family="sans-serif" font-size="11" lengthAdjust="spacingAndGlyphs" textLength="235" x="32" y="155.5947">Is this module NOT running on current DSP core?</text><polygon fill="#FFFFFF" filter="url(#f1pe26kqghn566)" points="149.5,243.1055,161.5,255.1055,149.5,267.1055,137.5,255.1055,149.5,243.1055" style="stroke: #33335B; stroke-width: 1.5;"/><rect fill="#FFFFFF" filter="url(#f1pe26kqghn566)" height="35.0938" rx="12.5" ry="12.5" style="stroke: #33335B; stroke-width: 1.5;" width="155" x="72" y="287.1055"/><text fill="#33335B" font-family="sans-serif" font-size="12" lengthAdjust="spacingAndGlyphs" textLength="135" x="82" y="309.5625">Call module IPC handler</text><rect fill="#FFFFFF" filter="url(#f1pe26kqghn566)" height="35.0938" rx="12.5" ry="12.5" style="stroke: #33335B; stroke-width: 1.5;" width="147" x="311" y="139.0938"/><text fill="#33335B" font-family="sans-serif" font-size="12" lengthAdjust="spacingAndGlyphs" textLength="127" x="321" y="161.5508">Call global IPC handler</text><polygon fill="#FFFFFF" filter="url(#f1pe26kqghn566)" points="267,328.1992,279,340.1992,267,352.1992,255,340.1992,267,328.1992" style="stroke: #33335B; stroke-width: 1.5;"/><ellipse cx="267" cy="383.1992" fill="#FFFFFF" filter="url(#f1pe26kqghn566)" rx="11" ry="11" style="stroke: #000000; stroke-width: 1.0;"/><ellipse cx="267" cy="383.1992" fill="#000000" rx="6" ry="6" style="stroke: #7F7F7F; stroke-width: 1.0;"/><line style="stroke: #F05772; stroke-width: 1.5;" x1="267" x2="267" y1="30" y2="50"/><polygon fill="#F05772" points="263,40,267,50,271,40,267,44" style="stroke: #F05772; stroke-width: 1.0;"/><line style="stroke: #F05772; stroke-width: 1.5;" x1="149.5" x2="149.5" y1="163.0938" y2="188.0117"/><polygon fill="#F05772" points="145.5,178.0117,149.5,188.0117,153.5,178.0117,149.5,182.0117" style="stroke: #F05772; stroke-width: 1.0;"/><line style="stroke: #F05772; stroke-width: 1.5;" x1="279" x2="291" y1="151.0938" y2="151.0938"/><polygon fill="#F05772" points="287,195.5586,291,205.5586,295,195.5586,291,199.5586" style="stroke: #F05772; stroke-width: 1.5;"/><line style="stroke: #F05772; stroke-width: 1.5;" x1="291" x2="291" y1="151.0938" y2="255.1055"/><line style="stroke: #F05772; stroke-width: 1.5;" x1="291" x2="161.5" y1="255.1055" y2="255.1055"/><polygon fill="#F05772" points="171.5,251.1055,161.5,255.1055,171.5,259.1055,167.5,255.1055" style="stroke: #F05772; stroke-width: 1.0;"/><line style="stroke: #F05772; stroke-width: 1.5;" x1="149.5" x2="149.5" y1="223.1055" y2="243.1055"/><polygon fill="#F05772" points="145.5,233.1055,149.5,243.1055,153.5,233.1055,149.5,237.1055" style="stroke: #F05772; stroke-width: 1.0;"/><line style="stroke: #F05772; stroke-width: 1.5;" x1="149.5" x2="149.5" y1="267.1055" y2="287.1055"/><polygon fill="#F05772" points="145.5,277.1055,149.5,287.1055,153.5,277.1055,149.5,281.1055" style="stroke: #F05772; stroke-width: 1.0;"/><line style="stroke: #F05772; stroke-width: 1.5;" x1="200.5" x2="149.5" y1="117.0938" y2="117.0938"/><line style="stroke: #F05772; stroke-width: 1.5;" x1="149.5" x2="149.5" y1="117.0938" y2="139.0938"/><polygon fill="#F05772" points="145.5,129.0938,149.5,139.0938,153.5,129.0938,149.5,133.0938" style="stroke: #F05772; stroke-width: 1.0;"/><line style="stroke: #F05772; stroke-width: 1.5;" x1="333.5" x2="384.5" y1="117.0938" y2="117.0938"/><line style="stroke: #F05772; stroke-width: 1.5;" x1="384.5" x2="384.5" y1="117.0938" y2="139.0938"/><polygon fill="#F05772" points="380.5,129.0938,384.5,139.0938,388.5,129.0938,384.5,133.0938" style="stroke: #F05772; stroke-width: 1.0;"/><line style="stroke: #F05772; stroke-width: 1.5;" x1="149.5" x2="149.5" y1="322.1992" y2="340.1992"/><line style="stroke: #F05772; stroke-width: 1.5;" x1="149.5" x2="255" y1="340.1992" y2="340.1992"/><polygon fill="#F05772" points="245,336.1992,255,340.1992,245,344.1992,249,340.1992" style="stroke: #F05772; stroke-width: 1.0;"/><line style="stroke: #F05772; stroke-width: 1.5;" x1="384.5" x2="384.5" y1="174.1875" y2="340.1992"/><line style="stroke: #F05772; stroke-width: 1.5;" x1="384.5" x2="279" y1="340.1992" y2="340.1992"/><polygon fill="#F05772" points="289,336.1992,279,340.1992,289,344.1992,285,340.1992" style="stroke: #F05772; stroke-width: 1.0;"/><line style="stroke: #F05772; stroke-width: 1.5;" x1="267" x2="267" y1="85.0938" y2="105.0938"/><polygon fill="#F05772" points="263,95.0938,267,105.0938,271,95.0938,267,99.0938" style="stroke: #F05772; stroke-width: 1.0;"/><line style="stroke: #F05772; stroke-width: 1.5;" x1="267" x2="267" y1="352.1992" y2="372.1992"/><polygon fill="#F05772" points="263,362.1992,267,372.1992,271,362.1992,267,366.1992" style="stroke: #F05772; stroke-width: 1.0;"/><!--MD5=[e66d587a853405cc11fc1b9e4f860610]
@startuml
hidefootbox
skinparam componentStyle uml2

skinparam defaultFontColor	#33335b

skinparam rectangle {
	color		#d6d6de
	backgroundColor	#ffffff
}

skinparam queue {
	color		#d6d6de
	backgroundColor	#ffffff
}

skinparam component {
	backgroundColor	#ffffff
	borderColor	#33335b
	arrowColor	#f05772
}

skinparam interface {
	backgroundColor	#ffffff
	borderColor	#f05772
}

skinparam class {
	backgroundColor	#ffffff
	borderColor	#33335b
	arrowColor	#f05772
}
skinparam stereotypeCBackgroundColor	#6fccdd

skinparam sequence {
	arrowColor		#4a4a86
	lifeLineBorderColor	#f05772
	groupBorderColor	#a1a1ca
	boxBorderColor		#a1a1ca
	dividerBorderColor	#d6d6de
	dividerBorderThickness	1
}
skinparam participant {
	borderColor		#33335b
	backgroundColor		#ffffff
}
skinparam actor {
	borderColor		#33335b
	backgroundColor		#ffffff
}

skinparam state {
	borderColor		#33335b
	backgroundColor		#ffffff
}

skinparam node {
	backgroundColor		#ffffff
}

skinparam note {
	backgroundColor 	#f6ed80
	borderColor		#d6d6de
}

skinparam activity {
	borderColor		#33335b
	backgroundColor		#ffffff
}

skinparam activityDiamond {
	borderColor		#33335b
	backgroundColor		#ffffff
}

skinparam arrowColor	#f05772
skinparam maxMessageSize 400
skinparam BoxPadding 4

scale max 1024 width

start
:IPC request;
if (Is Module IPC request?) then (yes)
  if (Is this module NOT running on current DSP core?) then (yes)
    :Forward IPC to secondary core;
  endif
  :Call module IPC handler;
else (no)
  :Call global IPC handler;
endif
stop

@enduml

PlantUML version 1.2019.12(Sun Nov 03 11:24:54 CET 2019)
(GPL source distribution)
Java Runtime: OpenJDK Runtime Environment
JVM: OpenJDK 64-Bit Server VM
Java Version: 1.8.0_302-b08
Operating System: Windows 10
Default Encoding: Cp1252
Language: en
Country: US
--></g></svg>