<?xml version="1.0" encoding="UTF-8" standalone="no"?><svg xmlns="http://www.w3.org/2000/svg" xmlns:xlink="http://www.w3.org/1999/xlink" contentScriptType="application/ecmascript" contentStyleType="text/css" height="436px" preserveAspectRatio="none" style="width:683px;height:436px;" version="1.1" viewBox="0 0 683 436" width="683px" zoomAndPan="magnify"><defs><filter height="300%" id="fosb08bn0vjog" width="300%" x="-1" y="-1"><feGaussianBlur result="blurOut" stdDeviation="2.0"/><feColorMatrix in="blurOut" result="blurOut2" type="matrix" values="0 0 0 0 0 0 0 0 0 0 0 0 0 0 0 0 0 0 .4 0"/><feOffset dx="4.0" dy="4.0" in="blurOut2" result="blurOut3"/><feBlend in="SourceGraphic" in2="blurOut3" mode="normal"/></filter></defs><g><!--MD5=[9e4aa97db5e5c58d8bed60c7a5d4e5bc]
cluster Zephyr--><rect fill="#FFFFFF" filter="url(#fosb08bn0vjog)" height="176" style="stroke: #33335B; stroke-width: 1.5;" width="376" x="22" y="249"/><rect fill="#FFFFFF" height="10" style="stroke: #33335B; stroke-width: 1.5;" width="15" x="378" y="254"/><rect fill="#FFFFFF" height="2" style="stroke: #33335B; stroke-width: 1.5;" width="4" x="376" y="256"/><rect fill="#FFFFFF" height="2" style="stroke: #33335B; stroke-width: 1.5;" width="4" x="376" y="260"/><text fill="#33335B" font-family="sans-serif" font-size="14" font-weight="bold" lengthAdjust="spacingAndGlyphs" textLength="57" x="181.5" y="274.9951">Zephyr</text><!--MD5=[6394d650e8413bf585d3737c169a36c8]
cluster MPP--><rect fill="#FFFFFF" filter="url(#fosb08bn0vjog)" height="176" style="stroke: #33335B; stroke-width: 1.5;" width="340" x="332" y="24"/><rect fill="#FFFFFF" height="10" style="stroke: #33335B; stroke-width: 1.5;" width="15" x="652" y="29"/><rect fill="#FFFFFF" height="2" style="stroke: #33335B; stroke-width: 1.5;" width="4" x="650" y="31"/><rect fill="#FFFFFF" height="2" style="stroke: #33335B; stroke-width: 1.5;" width="4" x="650" y="35"/><text fill="#33335B" font-family="sans-serif" font-size="14" font-weight="bold" lengthAdjust="spacingAndGlyphs" textLength="33" x="485.5" y="49.9951">MPP</text><!--MD5=[b62323ee1874da9a840ce1f0edb6d2ab]
class DmicDriver--><rect fill="#FFFFFF" filter="url(#fosb08bn0vjog)" height="32" id="DmicDriver" style="stroke: #33335B; stroke-width: 1.5;" width="98" x="280" y="377"/><ellipse cx="295" cy="393" fill="#6FCCDD" rx="11" ry="11" style="stroke: #33335B; stroke-width: 1.0;"/><path d="M297.9688,398.6406 Q297.3906,398.9375 296.75,399.0781 Q296.1094,399.2344 295.4063,399.2344 Q292.9063,399.2344 291.5781,397.5938 Q290.2656,395.9375 290.2656,392.8125 Q290.2656,389.6875 291.5781,388.0313 Q292.9063,386.375 295.4063,386.375 Q296.1094,386.375 296.75,386.5313 Q297.4063,386.6875 297.9688,386.9844 L297.9688,389.7031 Q297.3438,389.125 296.75,388.8594 Q296.1563,388.5781 295.5313,388.5781 Q294.1875,388.5781 293.5,389.6563 Q292.8125,390.7188 292.8125,392.8125 Q292.8125,394.9063 293.5,395.9844 Q294.1875,397.0469 295.5313,397.0469 Q296.1563,397.0469 296.75,396.7813 Q297.3438,396.5 297.9688,395.9219 L297.9688,398.6406 Z "/><text fill="#33335B" font-family="sans-serif" font-size="12" lengthAdjust="spacingAndGlyphs" textLength="66" x="309" y="397.1543">DmicDriver</text><!--MD5=[79da5a0e561bb65dbcb764c35e63b0a4]
class dai_dmic_ops--><rect fill="#FFFFFF" filter="url(#fosb08bn0vjog)" height="32" id="dai_dmic_ops" style="stroke: #33335B; stroke-width: 1.5;" width="114" x="268" y="284"/><ellipse cx="283" cy="300" fill="#B4A7E5" rx="11" ry="11" style="stroke: #33335B; stroke-width: 1.0;"/><path d="M278.9219,295.7656 L278.9219,293.6094 L286.3125,293.6094 L286.3125,295.7656 L283.8438,295.7656 L283.8438,303.8438 L286.3125,303.8438 L286.3125,306 L278.9219,306 L278.9219,303.8438 L281.3906,303.8438 L281.3906,295.7656 L278.9219,295.7656 Z "/><text fill="#33335B" font-family="sans-serif" font-size="12" font-style="italic" lengthAdjust="spacingAndGlyphs" textLength="82" x="297" y="304.1543">dai_dmic_ops</text><!--MD5=[de7e873df13dabe32eb6c6dfa36328fb]
class dai_driver_api--><rect fill="#FFFFFF" filter="url(#fosb08bn0vjog)" height="32" id="dai_driver_api" style="stroke: #33335B; stroke-width: 1.5;" width="117" x="38.5" y="284"/><ellipse cx="53.5" cy="300" fill="#B4A7E5" rx="11" ry="11" style="stroke: #33335B; stroke-width: 1.0;"/><path d="M49.4219,295.7656 L49.4219,293.6094 L56.8125,293.6094 L56.8125,295.7656 L54.3438,295.7656 L54.3438,303.8438 L56.8125,303.8438 L56.8125,306 L49.4219,306 L49.4219,303.8438 L51.8906,303.8438 L51.8906,295.7656 L49.4219,295.7656 Z "/><text fill="#33335B" font-family="sans-serif" font-size="12" font-style="italic" lengthAdjust="spacingAndGlyphs" textLength="85" x="67.5" y="304.1543">dai_driver_api</text><!--MD5=[6de492f04047ff8a778df2bea690e363]
class Gateway--><rect fill="#FFFFFF" filter="url(#fosb08bn0vjog)" height="32" id="Gateway" style="stroke: #33335B; stroke-width: 1.5;" width="87" x="351.5" y="59"/><ellipse cx="366.5" cy="75" fill="#B4A7E5" rx="11" ry="11" style="stroke: #33335B; stroke-width: 1.0;"/><path d="M362.4219,70.7656 L362.4219,68.6094 L369.8125,68.6094 L369.8125,70.7656 L367.3438,70.7656 L367.3438,78.8438 L369.8125,78.8438 L369.8125,81 L362.4219,81 L362.4219,78.8438 L364.8906,78.8438 L364.8906,70.7656 L362.4219,70.7656 Z "/><text fill="#33335B" font-family="sans-serif" font-size="12" font-style="italic" lengthAdjust="spacingAndGlyphs" textLength="55" x="380.5" y="79.1543">Gateway</text><!--MD5=[b964af19f160f0552db2c645a9120b61]
class IoDriver--><rect fill="#FFFFFF" filter="url(#fosb08bn0vjog)" height="32" id="IoDriver" style="stroke: #33335B; stroke-width: 1.5;" width="80" x="557" y="59"/><ellipse cx="572" cy="75" fill="#B4A7E5" rx="11" ry="11" style="stroke: #33335B; stroke-width: 1.0;"/><path d="M567.9219,70.7656 L567.9219,68.6094 L575.3125,68.6094 L575.3125,70.7656 L572.8438,70.7656 L572.8438,78.8438 L575.3125,78.8438 L575.3125,81 L567.9219,81 L567.9219,78.8438 L570.3906,78.8438 L570.3906,70.7656 L567.9219,70.7656 Z "/><text fill="#33335B" font-family="sans-serif" font-size="12" font-style="italic" lengthAdjust="spacingAndGlyphs" textLength="48" x="586" y="79.1543">IoDriver</text><!--MD5=[08a3ec142fb1084e3bf1352b7826c3ff]
class DmicManager--><rect fill="#FFFFFF" filter="url(#fosb08bn0vjog)" height="32" id="DmicManager" style="stroke: #33335B; stroke-width: 1.5;" width="117" x="538.5" y="152"/><ellipse cx="553.5" cy="168" fill="#6FCCDD" rx="11" ry="11" style="stroke: #33335B; stroke-width: 1.0;"/><path d="M556.4688,173.6406 Q555.8906,173.9375 555.25,174.0781 Q554.6094,174.2344 553.9063,174.2344 Q551.4063,174.2344 550.0781,172.5938 Q548.7656,170.9375 548.7656,167.8125 Q548.7656,164.6875 550.0781,163.0313 Q551.4063,161.375 553.9063,161.375 Q554.6094,161.375 555.25,161.5313 Q555.9063,161.6875 556.4688,161.9844 L556.4688,164.7031 Q555.8438,164.125 555.25,163.8594 Q554.6563,163.5781 554.0313,163.5781 Q552.6875,163.5781 552,164.6563 Q551.3125,165.7188 551.3125,167.8125 Q551.3125,169.9063 552,170.9844 Q552.6875,172.0469 554.0313,172.0469 Q554.6563,172.0469 555.25,171.7813 Q555.8438,171.5 556.4688,170.9219 L556.4688,173.6406 Z "/><text fill="#33335B" font-family="sans-serif" font-size="12" lengthAdjust="spacingAndGlyphs" textLength="85" x="567.5" y="172.1543">DmicManager</text><!--MD5=[eb6d85d5b8852d59760b5c3fa53f96b5]
class DmicInput--><rect fill="#FFFFFF" filter="url(#fosb08bn0vjog)" height="32" id="DmicInput" style="stroke: #33335B; stroke-width: 1.5;" width="94" x="348" y="152"/><ellipse cx="363" cy="168" fill="#6FCCDD" rx="11" ry="11" style="stroke: #33335B; stroke-width: 1.0;"/><path d="M365.9688,173.6406 Q365.3906,173.9375 364.75,174.0781 Q364.1094,174.2344 363.4063,174.2344 Q360.9063,174.2344 359.5781,172.5938 Q358.2656,170.9375 358.2656,167.8125 Q358.2656,164.6875 359.5781,163.0313 Q360.9063,161.375 363.4063,161.375 Q364.1094,161.375 364.75,161.5313 Q365.4063,161.6875 365.9688,161.9844 L365.9688,164.7031 Q365.3438,164.125 364.75,163.8594 Q364.1563,163.5781 363.5313,163.5781 Q362.1875,163.5781 361.5,164.6563 Q360.8125,165.7188 360.8125,167.8125 Q360.8125,169.9063 361.5,170.9844 Q362.1875,172.0469 363.5313,172.0469 Q364.1563,172.0469 364.75,171.7813 Q365.3438,171.5 365.9688,170.9219 L365.9688,173.6406 Z "/><text fill="#33335B" font-family="sans-serif" font-size="12" lengthAdjust="spacingAndGlyphs" textLength="62" x="377" y="172.1543">DmicInput</text><!--MD5=[f65ad7c7b6268df6e0885375312d3049]
link dai_dmic_ops to DmicDriver--><path d="M325.66,316.03 C326.4,332.89 327.6,360.08 328.34,376.95 " fill="none" id="dai_dmic_ops-DmicDriver" style="stroke: #F05772; stroke-width: 1.0;"/><!--MD5=[9b92cb896d204a43ef177f92c39cce11]
reverse link dai_driver_api to dai_dmic_ops--><path d="M175.9,300 C206.08,300 239.88,300 267.67,300 " fill="none" id="dai_driver_api&lt;-dai_dmic_ops" style="stroke: #F05772; stroke-width: 1.0;"/><polygon fill="none" points="175.72,307,155.72,300,175.72,293,175.72,307" style="stroke: #F05772; stroke-width: 1.0;"/><text fill="#33335B" font-family="sans-serif" font-size="13" lengthAdjust="spacingAndGlyphs" textLength="76" x="173.75" y="293.0669">implements</text><!--MD5=[beed8db8479c1d19520f14ef16bd6505]
link IoDriver to DmicManager--><path d="M597,91.03 C597,107.89 597,135.08 597,151.95 " fill="none" id="IoDriver-DmicManager" style="stroke: #F05772; stroke-width: 1.0;"/><!--MD5=[44b8fbf50836c2b3e341bc150413378d]
reverse link DmicInput to DmicManager--><path d="M447.23,168 C475.08,168 509.45,168 538.24,168 " fill="none" id="DmicInput&lt;-DmicManager" style="stroke: #F05772; stroke-width: 1.0;"/><polygon fill="#F05772" points="442.11,168,451.11,172,447.11,168,451.11,164,442.11,168" style="stroke: #F05772; stroke-width: 1.0;"/><text fill="#33335B" font-family="sans-serif" font-size="13" lengthAdjust="spacingAndGlyphs" textLength="60" x="460.25" y="161.0669">manages</text><!--MD5=[9107a352db4f0cf08cbb304d6fa8bc78]
link Gateway to DmicInput--><path d="M395,91.03 C395,107.89 395,135.08 395,151.95 " fill="none" id="Gateway-DmicInput" style="stroke: #F05772; stroke-width: 1.0;"/><!--MD5=[ea233d80a5f8fb421f1c23cd05156b45]
link DmicInput to dai_dmic_ops--><path d="M386.83,184.17 C374.14,207.75 349.66,253.2 335.61,279.29 " fill="none" id="DmicInput-&gt;dai_dmic_ops" style="stroke: #F05772; stroke-width: 1.0;"/><polygon fill="#F05772" points="333.11,283.93,340.893,277.8946,335.4762,279.5254,333.8455,274.1086,333.11,283.93" style="stroke: #F05772; stroke-width: 1.0;"/><text fill="#33335B" font-family="sans-serif" font-size="13" lengthAdjust="spacingAndGlyphs" textLength="28" x="369" y="229.0669">calls</text><!--MD5=[c616a11418d3fb35c5c67d95128cb014]
link DmicDriver to DmicInput--><path d="M349.53,376.74 C366.35,362.94 389.09,340.99 400,316 C416.76,277.62 409.99,228.07 402.96,197.43 " fill="none" id="DmicDriver-&gt;DmicInput" style="stroke: #F05772; stroke-width: 1.0;"/><polygon fill="#F05772" points="399.7,184.41,397.2783,191.2023,402.6166,196.0502,405.0384,189.2579,399.7,184.41" style="stroke: #F05772; stroke-width: 1.0;"/><!--MD5=[2f9660aa4d7fcd1d76e97b8b390bbfaf]
@startuml
hidefootbox
skinparam componentStyle uml2

skinparam defaultFontColor	#33335b

skinparam rectangle {
	color		#d6d6de
	backgroundColor	#ffffff
}

skinparam component {
	backgroundColor	#ffffff
	borderColor	#33335b
	arrowColor	#f05772
}

skinparam interface {
	backgroundColor	#ffffff
	borderColor	#f05772
}

skinparam class {
	backgroundColor	#ffffff
	borderColor	#33335b
	arrowColor	#f05772
}
skinparam stereotypeCBackgroundColor	#6fccdd

skinparam sequence {
	arrowColor		#4a4a86
	lifeLineBorderColor	#f05772
	groupBorderColor	#a1a1ca
	boxBorderColor		#a1a1ca
	dividerBorderColor	#d6d6de
	dividerBorderThickness	1
}
skinparam participant {
	borderColor		#33335b
	backgroundColor		#ffffff
}
skinparam actor {
	borderColor		#33335b
	backgroundColor		#ffffff
}

skinparam state {
	borderColor		#33335b
	backgroundColor		#ffffff
}

skinparam node {
	backgroundColor		#ffffff
}

skinparam note {
	backgroundColor 	#f6ed80
	borderColor		#d6d6de
}

skinparam activity {
	borderColor		#33335b
	backgroundColor		#ffffff
}

skinparam activityDiamond {
	borderColor		#33335b
	backgroundColor		#ffffff
}

skinparam arrowColor	#f05772
skinparam maxMessageSize 400
skinparam BoxPadding 4

hide methods
hide attributes

component Zephyr {
	class DmicDriver
	interface dai_dmic_ops
	interface dai_driver_api
}

component MPP {
	interface Gateway

	interface IoDriver
	class DmicManager
	class DmicInput
}

DmicDriver -up- dai_dmic_ops

dai_dmic_ops -left-|> dai_driver_api : implements

DmicManager -up- IoDriver
DmicManager -left-> DmicInput : manages
DmicInput -up- Gateway
DmicInput -down-> dai_dmic_ops : calls
DmicDriver - -* DmicInput

@enduml

PlantUML version 1.2019.12(Sun Nov 03 10:24:54 UTC 2019)
(GPL source distribution)
Java Runtime: OpenJDK Runtime Environment
JVM: OpenJDK 64-Bit Server VM
Java Version: 11.0.24+8
Operating System: Linux
Default Encoding: UTF-8
Language: en
Country: null
--></g></svg>