<?xml version="1.0" encoding="UTF-8" standalone="no"?><svg xmlns="http://www.w3.org/2000/svg" xmlns:xlink="http://www.w3.org/1999/xlink" contentScriptType="application/ecmascript" contentStyleType="text/css" height="508px" preserveAspectRatio="none" style="width:859px;height:508px;" version="1.1" viewBox="0 0 859 508" width="859px" zoomAndPan="magnify"><defs><filter height="300%" id="fgkeglx5rih3d" width="300%" x="-1" y="-1"><feGaussianBlur result="blurOut" stdDeviation="2.0"/><feColorMatrix in="blurOut" result="blurOut2" type="matrix" values="0 0 0 0 0 0 0 0 0 0 0 0 0 0 0 0 0 0 .4 0"/><feOffset dx="4.0" dy="4.0" in="blurOut2" result="blurOut3"/><feBlend in="SourceGraphic" in2="blurOut3" mode="normal"/></filter></defs><g><rect fill="#FFFFFF" filter="url(#fgkeglx5rih3d)" height="286.8047" style="stroke: #A1A1CA; stroke-width: 2.0;" width="679.5" x="167.5" y="103.3125"/><rect fill="#FFFFFF" height="89.5391" style="stroke: none; stroke-width: 1.0;" width="679.5" x="167.5" y="182.3672"/><rect fill="#FFFFFF" height="46.1875" style="stroke: none; stroke-width: 1.0;" width="679.5" x="167.5" y="271.9063"/><rect fill="#FFFFFF" height="56.1875" style="stroke: none; stroke-width: 1.0;" width="679.5" x="167.5" y="318.0938"/><rect fill="#FFFFFF" height="15.8359" style="stroke: none; stroke-width: 1.0;" width="679.5" x="167.5" y="374.2813"/><rect fill="#FFFFFF" filter="url(#fgkeglx5rih3d)" height="61.7031" style="stroke: #A1A1CA; stroke-width: 2.0;" width="568.5" x="167.5" y="404.1172"/><line style="stroke: #F05772; stroke-width: 1.0; stroke-dasharray: 5.0,5.0;" x1="210.5" x2="210.5" y1="39.6094" y2="496.8203"/><line style="stroke: #F05772; stroke-width: 1.0; stroke-dasharray: 5.0,5.0;" x1="616" x2="616" y1="39.6094" y2="496.8203"/><rect fill="#FFFFFF" filter="url(#fgkeglx5rih3d)" height="31.6094" style="stroke: #33335B; stroke-width: 1.5;" width="63" x="177.5" y="3"/><text fill="#33335B" font-family="sans-serif" font-size="14" lengthAdjust="spacingAndGlyphs" textLength="49" x="184.5" y="24.5332">pipeline</text><rect fill="#FFFFFF" filter="url(#fgkeglx5rih3d)" height="31.6094" style="stroke: #33335B; stroke-width: 1.5;" width="84" x="572" y="3"/><text fill="#33335B" font-family="sans-serif" font-size="14" lengthAdjust="spacingAndGlyphs" textLength="70" x="579" y="24.5332">component</text><polygon fill="#4A4A86" points="199,84.3125,209,88.3125,199,92.3125,203,88.3125" style="stroke: #4A4A86; stroke-width: 1.0;"/><line style="stroke: #4A4A86; stroke-width: 1.0;" x1="3" x2="205" y1="88.3125" y2="88.3125"/><text fill="#33335B" font-family="sans-serif" font-size="13" lengthAdjust="spacingAndGlyphs" textLength="184" x="10" y="67.1045">comp_op_downstream(op_data,</text><text fill="#33335B" font-family="sans-serif" font-size="13" lengthAdjust="spacingAndGlyphs" textLength="133" x="10" y="83.4561">start, current, previous)</text><path d="M216,57.7852 L216,83.7852 L517,83.7852 L517,67.7852 L507,57.7852 L216,57.7852 " fill="#F6ED80" filter="url(#fgkeglx5rih3d)" style="stroke: #D6D6DE; stroke-width: 1.0;"/><path d="M507,57.7852 L507,67.7852 L517,67.7852 L507,57.7852 " fill="#F6ED80" style="stroke: #D6D6DE; stroke-width: 1.0;"/><text fill="#33335B" font-family="sans-serif" font-size="13" lengthAdjust="spacingAndGlyphs" textLength="280" x="222" y="76.2803">start, current, and previous are struct *comp_dev</text><path d="M167.5,103.3125 L228.5,103.3125 L228.5,111.3125 L218.5,121.3125 L167.5,121.3125 L167.5,103.3125 " fill="#EEEEEE" style="stroke: #A1A1CA; stroke-width: 1.0;"/><rect fill="none" height="286.8047" style="stroke: #A1A1CA; stroke-width: 2.0;" width="679.5" x="167.5" y="103.3125"/><text fill="#33335B" font-family="sans-serif" font-size="13" font-weight="bold" lengthAdjust="spacingAndGlyphs" textLength="16" x="182.5" y="117.8076">alt</text><text fill="#33335B" font-family="sans-serif" font-size="11" font-weight="bold" lengthAdjust="spacingAndGlyphs" textLength="207" x="243.5" y="116.7314">[op_data-&gt;op == COMP_OPS_PARAMS]</text><polygon fill="#4A4A86" points="604,140.0156,614,144.0156,604,148.0156,608,144.0156" style="stroke: #4A4A86; stroke-width: 1.0;"/><line style="stroke: #4A4A86; stroke-width: 1.0;" x1="211" x2="610" y1="144.0156" y2="144.0156"/><text fill="#33335B" font-family="sans-serif" font-size="13" lengthAdjust="spacingAndGlyphs" textLength="171" x="218" y="139.1592">comp_install_params(current)</text><polygon fill="#4A4A86" points="604,170.3672,614,174.3672,604,178.3672,608,174.3672" style="stroke: #4A4A86; stroke-width: 1.0;"/><line style="stroke: #4A4A86; stroke-width: 1.0;" x1="211" x2="610" y1="174.3672" y2="174.3672"/><text fill="#33335B" font-family="sans-serif" font-size="13" lengthAdjust="spacingAndGlyphs" textLength="130" x="218" y="169.5107">comp_params(current)</text><line style="stroke: #A1A1CA; stroke-width: 1.0; stroke-dasharray: 2.0,2.0;" x1="167.5" x2="847" y1="183.3672" y2="183.3672"/><text fill="#33335B" font-family="sans-serif" font-size="11" font-weight="bold" lengthAdjust="spacingAndGlyphs" textLength="100" x="172.5" y="194.7861">[COMP_OPS_CMD]</text><polygon fill="#4A4A86" points="604,216.5547,614,220.5547,604,224.5547,608,220.5547" style="stroke: #4A4A86; stroke-width: 1.0;"/><line style="stroke: #4A4A86; stroke-width: 1.0;" x1="211" x2="610" y1="220.5547" y2="220.5547"/><text fill="#33335B" font-family="sans-serif" font-size="13" lengthAdjust="spacingAndGlyphs" textLength="112" x="218" y="215.6982">comp_cmd(current)</text><line style="stroke: #4A4A86; stroke-width: 1.0;" x1="211" x2="253" y1="250.9063" y2="250.9063"/><line style="stroke: #4A4A86; stroke-width: 1.0;" x1="253" x2="253" y1="250.9063" y2="263.9063"/><line style="stroke: #4A4A86; stroke-width: 1.0;" x1="212" x2="253" y1="263.9063" y2="263.9063"/><polygon fill="#4A4A86" points="222,259.9063,212,263.9063,222,267.9063,218,263.9063" style="stroke: #4A4A86; stroke-width: 1.0;"/><text fill="#33335B" font-family="sans-serif" font-size="13" lengthAdjust="spacingAndGlyphs" textLength="170" x="218" y="246.0498">pipeline_cmd_update(current)</text><line style="stroke: #A1A1CA; stroke-width: 1.0; stroke-dasharray: 2.0,2.0;" x1="167.5" x2="847" y1="272.9063" y2="272.9063"/><text fill="#33335B" font-family="sans-serif" font-size="11" font-weight="bold" lengthAdjust="spacingAndGlyphs" textLength="123" x="172.5" y="284.3252">[COMP_OPS_PREPARE]</text><polygon fill="#4A4A86" points="604,306.0938,614,310.0938,604,314.0938,608,310.0938" style="stroke: #4A4A86; stroke-width: 1.0;"/><line style="stroke: #4A4A86; stroke-width: 1.0;" x1="211" x2="610" y1="310.0938" y2="310.0938"/><text fill="#33335B" font-family="sans-serif" font-size="13" lengthAdjust="spacingAndGlyphs" textLength="130" x="218" y="305.2373">comp_prepare(current)</text><line style="stroke: #A1A1CA; stroke-width: 1.0; stroke-dasharray: 2.0,2.0;" x1="167.5" x2="847" y1="319.0938" y2="319.0938"/><text fill="#33335B" font-family="sans-serif" font-size="11" font-weight="bold" lengthAdjust="spacingAndGlyphs" textLength="108" x="172.5" y="330.5127">[COMP_OPS_RESET]</text><polygon fill="#4A4A86" points="604,357.2813,614,361.2813,604,365.2813,608,361.2813" style="stroke: #4A4A86; stroke-width: 1.0;"/><line style="stroke: #4A4A86; stroke-width: 1.0;" x1="211" x2="610" y1="361.2813" y2="361.2813"/><text fill="#33335B" font-family="sans-serif" font-size="13" lengthAdjust="spacingAndGlyphs" textLength="116" x="218" y="356.4248">comp_reset(current)</text><path d="M621,338.9297 L621,364.9297 L828,364.9297 L828,348.9297 L818,338.9297 L621,338.9297 " fill="#F6ED80" filter="url(#fgkeglx5rih3d)" style="stroke: #D6D6DE; stroke-width: 1.0;"/><path d="M818,338.9297 L818,348.9297 L828,348.9297 L818,338.9297 " fill="#F6ED80" style="stroke: #D6D6DE; stroke-width: 1.0;"/><text fill="#33335B" font-family="sans-serif" font-size="13" lengthAdjust="spacingAndGlyphs" textLength="186" x="627" y="357.4248">error, handled by other API calls</text><line style="stroke: #A1A1CA; stroke-width: 1.0; stroke-dasharray: 2.0,2.0;" x1="167.5" x2="847" y1="375.2813" y2="375.2813"/><text fill="#33335B" font-family="sans-serif" font-size="11" font-weight="bold" lengthAdjust="spacingAndGlyphs" textLength="114" x="172.5" y="386.7002">[COMP_OPS_BUFFER]</text><path d="M167.5,404.1172 L240.5,404.1172 L240.5,412.1172 L230.5,422.1172 L167.5,422.1172 L167.5,404.1172 " fill="#EEEEEE" style="stroke: #A1A1CA; stroke-width: 1.0;"/><rect fill="none" height="61.7031" style="stroke: #A1A1CA; stroke-width: 2.0;" width="568.5" x="167.5" y="404.1172"/><text fill="#33335B" font-family="sans-serif" font-size="13" font-weight="bold" lengthAdjust="spacingAndGlyphs" textLength="28" x="182.5" y="418.6123">loop</text><text fill="#33335B" font-family="sans-serif" font-size="11" font-weight="bold" lengthAdjust="spacingAndGlyphs" textLength="134" x="255.5" y="417.5361">[for each current's sink]</text><line style="stroke: #4A4A86; stroke-width: 1.0;" x1="211" x2="253" y1="444.8203" y2="444.8203"/><line style="stroke: #4A4A86; stroke-width: 1.0;" x1="253" x2="253" y1="444.8203" y2="457.8203"/><line style="stroke: #4A4A86; stroke-width: 1.0;" x1="212" x2="253" y1="457.8203" y2="457.8203"/><polygon fill="#4A4A86" points="222,453.8203,212,457.8203,222,461.8203,218,457.8203" style="stroke: #4A4A86; stroke-width: 1.0;"/><text fill="#33335B" font-family="sans-serif" font-size="13" lengthAdjust="spacingAndGlyphs" textLength="391" x="218" y="439.9639">component_op_downstream(..., current = consumer @ sink/source)</text><path d="M621,428.9688 L621,454.9688 L717,454.9688 L717,438.9688 L707,428.9688 L621,428.9688 " fill="#F6ED80" filter="url(#fgkeglx5rih3d)" style="stroke: #D6D6DE; stroke-width: 1.0;"/><path d="M707,428.9688 L707,438.9688 L717,438.9688 L707,428.9688 " fill="#F6ED80" style="stroke: #D6D6DE; stroke-width: 1.0;"/><text fill="#33335B" font-family="sans-serif" font-size="13" lengthAdjust="spacingAndGlyphs" textLength="75" x="627" y="447.4639">recursive call</text><polygon fill="#4A4A86" points="14,474.8203,4,478.8203,14,482.8203,10,478.8203" style="stroke: #4A4A86; stroke-width: 1.0;"/><line style="stroke: #4A4A86; stroke-width: 1.0; stroke-dasharray: 2.0,2.0;" x1="8" x2="210" y1="478.8203" y2="478.8203"/><!--MD5=[db4695ed39fa935e9c453a4a72332a5a]
@startuml
hidefootbox
skinparam componentStyle uml2

skinparam defaultFontColor	#33335b

skinparam rectangle {
	color		#d6d6de
	backgroundColor	#ffffff
}

skinparam component {
	backgroundColor	#ffffff
	borderColor	#33335b
	arrowColor	#f05772
}

skinparam interface {
	backgroundColor	#ffffff
	borderColor	#f05772
}

skinparam class {
	backgroundColor	#ffffff
	borderColor	#33335b
	arrowColor	#f05772
}
skinparam stereotypeCBackgroundColor	#6fccdd

skinparam sequence {
	arrowColor		#4a4a86
	lifeLineBorderColor	#f05772
	groupBorderColor	#a1a1ca
	boxBorderColor		#a1a1ca
	dividerBorderColor	#d6d6de
	dividerBorderThickness	1
}
skinparam participant {
	borderColor		#33335b
	backgroundColor		#ffffff
}
skinparam actor {
	borderColor		#33335b
	backgroundColor		#ffffff
}

skinparam state {
	borderColor		#33335b
	backgroundColor		#ffffff
}

skinparam node {
	backgroundColor		#ffffff
}

skinparam note {
	backgroundColor 	#f6ed80
	borderColor		#d6d6de
}
participant "pipeline" as ppl
participant "component" as comp
-> ppl : comp_op_downstream(op_data,\nstart, current, previous)
   note right: start, current, and previous are struct *comp_dev
   alt op_data->op == COMP_OPS_PARAMS
      ppl -> comp : comp_install_params(current)
      ppl -> comp : comp_params(current)
   else COMP_OPS_CMD
      ppl -> comp : comp_cmd(current)
      ppl -> ppl : pipeline_cmd_update(current)
   else COMP_OPS_PREPARE
      ppl -> comp : comp_prepare(current)
   else COMP_OPS_RESET
      ppl -> comp : comp_reset(current)
   else COMP_OPS_BUFFER
      note right: error, handled by other API calls
   end
   loop for each current's sink
      ppl -> ppl : component_op_downstream(..., current = consumer @ sink/source)
      note right: recursive call
   end
<- - ppl

@enduml

PlantUML version 1.2019.12(Sun Nov 03 11:24:54 CET 2019)
(GPL source distribution)
Java Runtime: OpenJDK Runtime Environment
JVM: OpenJDK 64-Bit Server VM
Java Version: 1.8.0_302-b08
Operating System: Windows 10
Default Encoding: Cp1252
Language: en
Country: US
--></g></svg>