<?xml version="1.0" encoding="UTF-8" standalone="no"?><svg xmlns="http://www.w3.org/2000/svg" xmlns:xlink="http://www.w3.org/1999/xlink" contentScriptType="application/ecmascript" contentStyleType="text/css" height="364px" preserveAspectRatio="none" style="width:590px;height:364px;" version="1.1" viewBox="0 0 590 364" width="590px" zoomAndPan="magnify"><defs><filter height="300%" id="fqzyef1f1uh2" width="300%" x="-1" y="-1"><feGaussianBlur result="blurOut" stdDeviation="2.0"/><feColorMatrix in="blurOut" result="blurOut2" type="matrix" values="0 0 0 0 0 0 0 0 0 0 0 0 0 0 0 0 0 0 .4 0"/><feOffset dx="4.0" dy="4.0" in="blurOut2" result="blurOut3"/><feBlend in="SourceGraphic" in2="blurOut3" mode="normal"/></filter></defs><g><!--MD5=[ff658e621e4d039d232dc2816b4a8497]
cluster component--><polygon fill="#FFFFFF" filter="url(#fqzyef1f1uh2)" points="22,24,117,24,124,46.2969,568,46.2969,568,352,22,352,22,24" style="stroke: #000000; stroke-width: 1.5;"/><line style="stroke: #000000; stroke-width: 1.5;" x1="22" x2="124" y1="46.2969" y2="46.2969"/><text fill="#33335B" font-family="sans-serif" font-size="14" font-weight="bold" lengthAdjust="spacingAndGlyphs" textLength="89" x="26" y="38.9951">component</text><!--MD5=[8c61665d9a482ae36487effce834807d]
class comp_driver--><rect fill="#FFFFFF" filter="url(#fqzyef1f1uh2)" height="91.2188" id="comp_driver" style="stroke: #33335B; stroke-width: 1.5;" width="127" x="38.5" y="97.5"/><ellipse cx="62.5" cy="113.5" fill="#6FCCDD" rx="11" ry="11" style="stroke: #33335B; stroke-width: 1.0;"/><path d="M65.4688,119.1406 Q64.8906,119.4375 64.25,119.5781 Q63.6094,119.7344 62.9063,119.7344 Q60.4063,119.7344 59.0781,118.0938 Q57.7656,116.4375 57.7656,113.3125 Q57.7656,110.1875 59.0781,108.5313 Q60.4063,106.875 62.9063,106.875 Q63.6094,106.875 64.25,107.0313 Q64.9063,107.1875 65.4688,107.4844 L65.4688,110.2031 Q64.8438,109.625 64.25,109.3594 Q63.6563,109.0781 63.0313,109.0781 Q61.6875,109.0781 61,110.1563 Q60.3125,111.2188 60.3125,113.3125 Q60.3125,115.4063 61,116.4844 Q61.6875,117.5469 63.0313,117.5469 Q63.6563,117.5469 64.25,117.2813 Q64.8438,117 65.4688,116.4219 L65.4688,119.1406 Z "/><text fill="#33335B" font-family="sans-serif" font-size="12" lengthAdjust="spacingAndGlyphs" textLength="75" x="78.5" y="117.6543">comp_driver</text><line style="stroke: #33335B; stroke-width: 1.5;" x1="39.5" x2="164.5" y1="129.5" y2="129.5"/><text fill="#33335B" font-family="sans-serif" font-size="11" lengthAdjust="spacingAndGlyphs" textLength="81" x="44.5" y="143.7104">type : uint32_t</text><text fill="#33335B" font-family="sans-serif" font-size="11" lengthAdjust="spacingAndGlyphs" textLength="74" x="44.5" y="156.5151">uid : uint32_t</text><text fill="#33335B" font-family="sans-serif" font-size="11" lengthAdjust="spacingAndGlyphs" textLength="115" x="44.5" y="169.3198">module_id : uint32_t</text><text fill="#33335B" font-family="sans-serif" font-size="11" lengthAdjust="spacingAndGlyphs" textLength="91" x="44.5" y="182.1245">ops : comp_ops</text><!--MD5=[ca01a630127841bc4a19e8cd9fad1d12]
class comp_ops--><rect fill="#FFFFFF" filter="url(#fqzyef1f1uh2)" height="32" id="comp_ops" style="stroke: #33335B; stroke-width: 1.5;" width="95" x="54.5" y="304"/><ellipse cx="69.5" cy="320" fill="#6FCCDD" rx="11" ry="11" style="stroke: #33335B; stroke-width: 1.0;"/><path d="M72.4688,325.6406 Q71.8906,325.9375 71.25,326.0781 Q70.6094,326.2344 69.9063,326.2344 Q67.4063,326.2344 66.0781,324.5938 Q64.7656,322.9375 64.7656,319.8125 Q64.7656,316.6875 66.0781,315.0313 Q67.4063,313.375 69.9063,313.375 Q70.6094,313.375 71.25,313.5313 Q71.9063,313.6875 72.4688,313.9844 L72.4688,316.7031 Q71.8438,316.125 71.25,315.8594 Q70.6563,315.5781 70.0313,315.5781 Q68.6875,315.5781 68,316.6563 Q67.3125,317.7188 67.3125,319.8125 Q67.3125,321.9063 68,322.9844 Q68.6875,324.0469 70.0313,324.0469 Q70.6563,324.0469 71.25,323.7813 Q71.8438,323.5 72.4688,322.9219 L72.4688,325.6406 Z "/><text fill="#33335B" font-family="sans-serif" font-size="12" lengthAdjust="spacingAndGlyphs" textLength="63" x="83.5" y="324.1543">comp_ops</text><!--MD5=[6b61d24a2f07ef25d3ad4d1e1b703523]
class comp_dev--><rect fill="#FFFFFF" filter="url(#fqzyef1f1uh2)" height="168.0469" id="comp_dev" style="stroke: #33335B; stroke-width: 1.5;" width="205" x="347.5" y="59"/><ellipse cx="414.75" cy="75" fill="#6FCCDD" rx="11" ry="11" style="stroke: #33335B; stroke-width: 1.0;"/><path d="M417.7188,80.6406 Q417.1406,80.9375 416.5,81.0781 Q415.8594,81.2344 415.1563,81.2344 Q412.6563,81.2344 411.3281,79.5938 Q410.0156,77.9375 410.0156,74.8125 Q410.0156,71.6875 411.3281,70.0313 Q412.6563,68.375 415.1563,68.375 Q415.8594,68.375 416.5,68.5313 Q417.1563,68.6875 417.7188,68.9844 L417.7188,71.7031 Q417.0938,71.125 416.5,70.8594 Q415.9063,70.5781 415.2813,70.5781 Q413.9375,70.5781 413.25,71.6563 Q412.5625,72.7188 412.5625,74.8125 Q412.5625,76.9063 413.25,77.9844 Q413.9375,79.0469 415.2813,79.0469 Q415.9063,79.0469 416.5,78.7813 Q417.0938,78.5 417.7188,77.9219 L417.7188,80.6406 Z "/><text fill="#33335B" font-family="sans-serif" font-size="12" lengthAdjust="spacingAndGlyphs" textLength="62" x="435.25" y="79.1543">comp_dev</text><line style="stroke: #33335B; stroke-width: 1.5;" x1="348.5" x2="551.5" y1="91" y2="91"/><text fill="#33335B" font-family="sans-serif" font-size="11" lengthAdjust="spacingAndGlyphs" textLength="106" x="353.5" y="105.2104">drv : comp_driver*</text><text fill="#33335B" font-family="sans-serif" font-size="11" lengthAdjust="spacingAndGlyphs" textLength="0" x="357.5" y="118.0151"/><text fill="#33335B" font-family="sans-serif" font-size="11" font-style="italic" lengthAdjust="spacingAndGlyphs" textLength="154" x="353.5" y="130.8198">more params goes here ...</text><text fill="#33335B" font-family="sans-serif" font-size="11" lengthAdjust="spacingAndGlyphs" textLength="0" x="357.5" y="143.6245"/><text fill="#33335B" font-family="sans-serif" font-size="11" lengthAdjust="spacingAndGlyphs" textLength="193" x="353.5" y="156.4292">params : sof_ipc_stream_params</text><text fill="#33335B" font-family="sans-serif" font-size="11" lengthAdjust="spacingAndGlyphs" textLength="0" x="357.5" y="169.2339"/><text fill="#33335B" font-family="sans-serif" font-size="11" lengthAdjust="spacingAndGlyphs" textLength="69" x="353.5" y="182.0386">bsource_list</text><text fill="#33335B" font-family="sans-serif" font-size="11" lengthAdjust="spacingAndGlyphs" textLength="53" x="353.5" y="194.8433">bsink_list</text><text fill="#33335B" font-family="sans-serif" font-size="11" lengthAdjust="spacingAndGlyphs" textLength="76" x="353.5" y="207.6479">private: void*</text><text fill="#33335B" font-family="sans-serif" font-size="11" lengthAdjust="spacingAndGlyphs" textLength="120" x="353.5" y="220.4526">comp : sof_ipc_comp</text><!--MD5=[77eaf3e41c79ea6e09654fb4afa917d1]
link comp_driver to comp_ops--><path d="M102,188.61 C102,224.12 102,272.14 102,298.89 " fill="none" id="comp_driver-&gt;comp_ops" style="stroke: #F05772; stroke-width: 1.0;"/><polygon fill="#F05772" points="102,303.94,106,294.94,102,298.94,98,294.94,102,303.94" style="stroke: #F05772; stroke-width: 1.0;"/><text fill="#33335B" font-family="sans-serif" font-size="13" lengthAdjust="spacingAndGlyphs" textLength="54" x="103" y="270.0669">provides</text><text fill="#33335B" font-family="sans-serif" font-size="13" lengthAdjust="spacingAndGlyphs" textLength="23" x="75.0469" y="292.931">ops</text><!--MD5=[a5b5e72d9b0d4a48ef290bd53b21d5f1]
link comp_driver to comp_dev--><path d="M165.83,143 C215.07,143 284.3,143 342.1,143 " fill="none" id="comp_driver-&gt;comp_dev" style="stroke: #F05772; stroke-width: 1.0;"/><polygon fill="#F05772" points="347.3,143,338.3,139,342.3,143,338.3,147,347.3,143" style="stroke: #F05772; stroke-width: 1.0;"/><text fill="#33335B" font-family="sans-serif" font-size="13" lengthAdjust="spacingAndGlyphs" textLength="145" x="184" y="136.0669">creates in comp_new()</text><!--MD5=[591394a967c89e4e9080264c7cf3ca01]
@startuml
hidefootbox
skinparam componentStyle uml2

skinparam defaultFontColor	#33335b

skinparam rectangle {
	color		#d6d6de
	backgroundColor	#ffffff
}

skinparam component {
	backgroundColor	#ffffff
	borderColor	#33335b
	arrowColor	#f05772
}

skinparam interface {
	backgroundColor	#ffffff
	borderColor	#f05772
}

skinparam class {
	backgroundColor	#ffffff
	borderColor	#33335b
	arrowColor	#f05772
}
skinparam stereotypeCBackgroundColor	#6fccdd

skinparam sequence {
	arrowColor		#4a4a86
	lifeLineBorderColor	#f05772
	groupBorderColor	#a1a1ca
	boxBorderColor		#a1a1ca
	dividerBorderColor	#d6d6de
	dividerBorderThickness	1
}
skinparam participant {
	borderColor		#33335b
	backgroundColor		#ffffff
}
skinparam actor {
	borderColor		#33335b
	backgroundColor		#ffffff
}

skinparam state {
	borderColor		#33335b
	backgroundColor		#ffffff
}

skinparam node {
	backgroundColor		#ffffff
}

skinparam note {
	backgroundColor 	#f6ed80
	borderColor		#d6d6de
}

skinparam activity {
	borderColor		#33335b
	backgroundColor		#ffffff
}

skinparam activityDiamond {
	borderColor		#33335b
	backgroundColor		#ffffff
}

skinparam arrowColor	#f05772
skinparam maxMessageSize 400
skinparam BoxPadding 4
package component {

   class comp_driver {
   	type : uint32_t
	uid : uint32_t
   	module_id : uint32_t
   	ops : comp_ops
   }
   hide comp_driver methods

   class comp_ops
   hide comp_ops methods
   hide comp_ops attributes

   class comp_dev {
   	drv : comp_driver*

   	<i>more params goes here ...</i>

   	params : sof_ipc_stream_params

   	bsource_list
   	bsink_list
   	private: void*
   	comp : sof_ipc_comp
   }
   hide comp_dev methods

   comp_driver - -> "ops" comp_ops : provides

   comp_driver -> comp_dev : creates in comp_new()
}

@enduml

PlantUML version 1.2019.12(Sun Nov 03 10:24:54 UTC 2019)
(GPL source distribution)
Java Runtime: OpenJDK Runtime Environment
JVM: OpenJDK 64-Bit Server VM
Java Version: 11.0.22+7
Operating System: Linux
Default Encoding: UTF-8
Language: en
Country: null
--></g></svg>